<?xml version="1.0" encoding="UTF-8" standalone="no"?>
<!DOCTYPE svg PUBLIC "-//W3C//DTD SVG 1.1//EN"
 "http://www.w3.org/Graphics/SVG/1.1/DTD/svg11.dtd">
<!-- Generated by graphviz version 2.36.0 (20140111.2315)
 -->
<!-- Title: G Pages: 1 -->
<svg width="377pt" height="529pt"
 viewBox="0.00 0.00 377.00 529.00" xmlns="http://www.w3.org/2000/svg" xmlns:xlink="http://www.w3.org/1999/xlink">
<g id="graph0" class="graph" transform="scale(1 1) rotate(0) translate(4 525)">
<title>G</title>
<polygon fill="white" stroke="none" points="-4,4 -4,-525 373,-525 373,4 -4,4"/>
<text text-anchor="middle" x="184.5" y="-505.8" font-family="Times,serif" font-size="14.00">ShipReq System Diagram</text>
<g id="clust1" class="cluster"><title>cluster_usr</title>
<polygon fill="#eeeeaa" stroke="black" points="187,-8 187,-85 361,-85 361,-8 187,-8"/>
<text text-anchor="middle" x="274" y="-69.8" font-family="Times,serif" font-size="14.00">Userland</text>
</g>
<g id="clust2" class="cluster"><title>cluster_net</title>
<polygon fill="#e2e2e2" stroke="black" points="75,-131 75,-490 299,-490 299,-131 75,-131"/>
</g>
<g id="clust3" class="cluster"><title>cluster_aws</title>
<polygon fill="#cccccc" stroke="black" points="83,-139 83,-404 291,-404 291,-139 83,-139"/>
<text text-anchor="middle" x="187" y="-388.8" font-family="Times,serif" font-size="14.00">Amazon Web Services</text>
</g>
<!-- eaddr_blogic -->
<g id="node1" class="node"><title>eaddr_blogic</title>
<polygon fill="#aabbff" stroke="black" points="90,-54 87,-58 66,-58 63,-54 0,-54 0,-16 90,-16 90,-54"/>
<text text-anchor="middle" x="45" y="-38.8" font-family="Times,serif" font-size="14.00">bearded.logic</text>
<text text-anchor="middle" x="45" y="-23.8" font-family="Times,serif" font-size="14.00">@gmail.com</text>
</g>
<!-- usr_email -->
<g id="node3" class="node"><title>usr_email</title>
<polygon fill="#ccaa66" stroke="black" points="249,-54 246,-58 225,-58 222,-54 195,-54 195,-16 249,-16 249,-54"/>
<text text-anchor="middle" x="222" y="-38.8" font-family="Times,serif" font-size="14.00">User&#39;s</text>
<text text-anchor="middle" x="222" y="-23.8" font-family="Times,serif" font-size="14.00">email</text>
</g>
<!-- eaddr_blogic&#45;&gt;usr_email -->
<g id="edge9" class="edge"><title>eaddr_blogic&#45;&gt;usr_email</title>
<path fill="none" stroke="black" d="M90.1225,-35C119.458,-35 157.24,-35 184.84,-35"/>
<polygon fill="black" stroke="black" points="184.88,-38.5001 194.88,-35 184.88,-31.5001 184.88,-38.5001"/>
<text text-anchor="middle" x="142.5" y="-41.8" font-family="Times,serif" font-size="14.00">Manual comms</text>
</g>
<!-- usr_web -->
<g id="node2" class="node"><title>usr_web</title>
<polygon fill="#ccaa66" stroke="black" points="353,-54 279,-54 279,-58 267,-58 267,-16 353,-16 353,-54"/>
<polyline fill="none" stroke="black" points="267,-54 279,-54 "/>
<text text-anchor="middle" x="310" y="-38.8" font-family="Times,serif" font-size="14.00">User&#39;s</text>
<text text-anchor="middle" x="310" y="-23.8" font-family="Times,serif" font-size="14.00">web browser</text>
</g>
<!-- gandi -->
<g id="node4" class="node"><title>gandi</title>
<ellipse fill="#55cc55" stroke="black" cx="226" cy="-464" rx="43.319" ry="18"/>
<text text-anchor="middle" x="226" y="-460.3" font-family="Times,serif" font-size="14.00">gandi.net</text>
</g>
<!-- usr_web&#45;&gt;gandi -->
<g id="edge1" class="edge"><title>usr_web&#45;&gt;gandi</title>
<path fill="none" stroke="#996644" d="M310,-54.2292C310,-79.0556 310,-124.889 310,-164 310,-356 310,-356 310,-356 310,-378.351 307.307,-385.343 295,-404 285.082,-419.036 270.268,-432.405 256.907,-442.599"/>
<polygon fill="#996644" stroke="#996644" points="254.824,-439.786 248.831,-448.523 258.965,-445.43 254.824,-439.786"/>
</g>
<!-- aws_r53 -->
<g id="node5" class="node"><title>aws_r53</title>
<ellipse fill="#55cc55" stroke="black" cx="160" cy="-355" rx="42.3456" ry="18"/>
<text text-anchor="middle" x="160" y="-351.3" font-family="Times,serif" font-size="14.00">Route 53</text>
</g>
<!-- gandi&#45;&gt;aws_r53 -->
<g id="edge2" class="edge"><title>gandi&#45;&gt;aws_r53</title>
<path fill="none" stroke="black" d="M215.688,-446.281C204.935,-428.849 187.954,-401.32 175.569,-381.24"/>
<polygon fill="black" stroke="black" points="178.469,-379.275 170.24,-372.601 172.511,-382.95 178.469,-379.275"/>
<text text-anchor="middle" x="222" y="-416.3" font-family="Times,serif" font-size="14.00">DNS:*</text>
</g>
<!-- aws_r53&#45;&gt;aws_r53 -->
<g id="edge3" class="edge"><title>aws_r53&#45;&gt;aws_r53</title>
<path fill="none" stroke="black" d="M207.946,-362.496C215.133,-361.336 220,-358.837 220,-355 220,-349.543 210.156,-346.793 197.793,-346.751"/>
<polygon fill="black" stroke="black" points="207.506,-359.019 197.793,-363.249 208.024,-365.999 207.506,-359.019"/>
<text text-anchor="middle" x="250.5" y="-351.3" font-family="Times,serif" font-size="14.00">DNS:www</text>
</g>
<!-- aws_ec2 -->
<g id="node6" class="node"><title>aws_ec2</title>
<ellipse fill="#55cc55" stroke="black" cx="160" cy="-267" rx="27" ry="18"/>
<text text-anchor="middle" x="160" y="-263.3" font-family="Times,serif" font-size="14.00">EC2</text>
</g>
<!-- aws_r53&#45;&gt;aws_ec2 -->
<g id="edge4" class="edge"><title>aws_r53&#45;&gt;aws_ec2</title>
<path fill="none" stroke="black" d="M160,-336.597C160,-324.746 160,-308.817 160,-295.292"/>
<polygon fill="black" stroke="black" points="163.5,-295.084 160,-285.084 156.5,-295.084 163.5,-295.084"/>
<text text-anchor="middle" x="193.5" y="-307.3" font-family="Times,serif" font-size="14.00">DNS:APEX</text>
</g>
<!-- aws_rds -->
<g id="node7" class="node"><title>aws_rds</title>
<ellipse fill="#55cc55" stroke="black" cx="119" cy="-165" rx="27.4223" ry="18"/>
<text text-anchor="middle" x="119" y="-161.3" font-family="Times,serif" font-size="14.00">RDS</text>
</g>
<!-- aws_ec2&#45;&gt;aws_rds -->
<g id="edge5" class="edge"><title>aws_ec2&#45;&gt;aws_rds</title>
<path fill="none" stroke="black" d="M137.011,-257.388C125.492,-251.764 112.616,-243.172 106,-231 99.4519,-218.953 101.815,-204.039 106.213,-191.537"/>
<polygon fill="black" stroke="black" points="109.514,-192.711 110.045,-182.129 103.031,-190.07 109.514,-192.711"/>
<text text-anchor="middle" x="138.5" y="-219.8" font-family="Times,serif" font-size="14.00">Database</text>
<text text-anchor="middle" x="138.5" y="-204.8" font-family="Times,serif" font-size="14.00">(postgresql)</text>
</g>
<!-- aws_ses -->
<g id="node8" class="node"><title>aws_ses</title>
<ellipse fill="#55cc55" stroke="black" cx="197" cy="-165" rx="27" ry="18"/>
<text text-anchor="middle" x="197" y="-161.3" font-family="Times,serif" font-size="14.00">SES</text>
</g>
<!-- aws_ec2&#45;&gt;aws_ses -->
<g id="edge6" class="edge"><title>aws_ec2&#45;&gt;aws_ses</title>
<path fill="none" stroke="black" d="M167.441,-249.375C169.943,-243.598 172.684,-237.05 175,-231 179.81,-218.436 184.657,-204.309 188.573,-192.443"/>
<polygon fill="black" stroke="black" points="191.979,-193.285 191.75,-182.692 185.324,-191.116 191.979,-193.285"/>
<text text-anchor="middle" x="229" y="-219.8" font-family="Times,serif" font-size="14.00">Outgoing email</text>
<text text-anchor="middle" x="229" y="-204.8" font-family="Times,serif" font-size="14.00">(SMTP)</text>
</g>
<!-- aws_ses&#45;&gt;eaddr_blogic -->
<g id="edge8" class="edge"><title>aws_ses&#45;&gt;eaddr_blogic</title>
<path fill="none" stroke="black" d="M181.372,-150.084C173.761,-143.746 164.269,-136.459 155,-131 147.105,-126.35 143.66,-128.027 136,-123 109.777,-105.792 84.359,-80.5395 67.0832,-61.6678"/>
<polygon fill="black" stroke="black" points="69.4884,-59.108 60.1992,-54.0127 64.2834,-63.7887 69.4884,-59.108"/>
<text text-anchor="middle" x="169" y="-111.8" font-family="Times,serif" font-size="14.00">Expressions</text>
<text text-anchor="middle" x="169" y="-96.8" font-family="Times,serif" font-size="14.00">of Interest</text>
</g>
<!-- aws_ses&#45;&gt;usr_email -->
<g id="edge7" class="edge"><title>aws_ses&#45;&gt;usr_email</title>
<path fill="none" stroke="black" d="M200.32,-147.003C204.434,-125.938 211.505,-89.7337 216.45,-64.4177"/>
<polygon fill="black" stroke="black" points="219.942,-64.7961 218.424,-54.3106 213.072,-63.4542 219.942,-64.7961"/>
</g>
</g>
</svg>
