<?xml version="1.0" encoding="UTF-8" standalone="no"?>
<!DOCTYPE svg PUBLIC "-//W3C//DTD SVG 1.1//EN"
 "http://www.w3.org/Graphics/SVG/1.1/DTD/svg11.dtd">
<!-- Generated by graphviz version 2.36.0 (20140111.2315)
 -->
<!-- Title: G Pages: 1 -->
<svg width="366pt" height="503pt"
 viewBox="0.00 0.00 366.00 503.00" xmlns="http://www.w3.org/2000/svg" xmlns:xlink="http://www.w3.org/1999/xlink">
<g id="graph0" class="graph" transform="scale(1 1) rotate(0) translate(4 499)">
<title>G</title>
<polygon fill="white" stroke="none" points="-4,4 -4,-499 362,-499 362,4 -4,4"/>
<text text-anchor="middle" x="179" y="-479.8" font-family="Times,serif" font-size="14.00">ShipReq System Diagram</text>
<g id="clust2" class="cluster"><title>cluster_usr</title>
<polygon fill="#eeeeaa" stroke="black" points="176,-8 176,-85 350,-85 350,-8 176,-8"/>
<text text-anchor="middle" x="263" y="-69.8" font-family="Times,serif" font-size="14.00">Userland</text>
</g>
<g id="clust3" class="cluster"><title>cluster_net</title>
<polygon fill="#e2ffe2" stroke="black" points="70,-103 70,-464 294,-464 294,-103 70,-103"/>
</g>
<g id="clust4" class="cluster"><title>cluster_aws</title>
<polygon fill="#ccddcc" stroke="black" points="78,-111 78,-378 286,-378 286,-111 78,-111"/>
<text text-anchor="middle" x="182" y="-362.8" font-family="Times,serif" font-size="14.00">Amazon Web Services</text>
</g>
<!-- me -->
<g id="node1" class="node"><title>me</title>
<polygon fill="#aabbff" stroke="black" points="36.5,-143 38,-144.5 38,-147.5 36.5,-149 33.5,-149 32,-147.5 32,-144.5 33.5,-143 36.5,-143"/>
<polyline fill="none" stroke="black" points="35,-143 35,-137 "/>
<polyline fill="none" stroke="black" points="8,-137 62,-137 "/>
<text text-anchor="middle" x="35" y="-125.3" font-family="Times,serif" font-size="14.00">Staff</text>
</g>
<!-- eaddr_blogic -->
<g id="node2" class="node"><title>eaddr_blogic</title>
<polygon fill="#aabbff" stroke="black" points="90,-54 87,-58 66,-58 63,-54 0,-54 0,-16 90,-16 90,-54"/>
<text text-anchor="middle" x="45" y="-38.8" font-family="Times,serif" font-size="14.00">bearded.logic</text>
<text text-anchor="middle" x="45" y="-23.8" font-family="Times,serif" font-size="14.00">@gmail.com</text>
</g>
<!-- me&#45;&gt;eaddr_blogic -->
<g id="edge10" class="edge"><title>me&#45;&gt;eaddr_blogic</title>
<path fill="none" stroke="black" d="M36.8809,-117.191C38.3661,-102.339 40.4625,-81.3748 42.1531,-64.4694"/>
<polygon fill="black" stroke="black" points="45.6824,-64.35 43.1949,-54.0513 38.7171,-63.6534 45.6824,-64.35"/>
</g>
<!-- usr_email -->
<g id="node4" class="node"><title>usr_email</title>
<polygon fill="#ccaa66" stroke="black" points="238,-54 235,-58 214,-58 211,-54 184,-54 184,-16 238,-16 238,-54"/>
<text text-anchor="middle" x="211" y="-38.8" font-family="Times,serif" font-size="14.00">User&#39;s</text>
<text text-anchor="middle" x="211" y="-23.8" font-family="Times,serif" font-size="14.00">email</text>
</g>
<!-- eaddr_blogic&#45;&gt;usr_email -->
<g id="edge9" class="edge"><title>eaddr_blogic&#45;&gt;usr_email</title>
<path fill="none" stroke="black" d="M90.3602,-35C116.567,-35 149.125,-35 173.811,-35"/>
<polygon fill="black" stroke="black" points="173.867,-38.5001 183.867,-35 173.867,-31.5001 173.867,-38.5001"/>
<text text-anchor="middle" x="137" y="-56.8" font-family="Times,serif" font-size="14.00">One&#45;on&#45;one</text>
<text text-anchor="middle" x="137" y="-41.8" font-family="Times,serif" font-size="14.00">conversation</text>
</g>
<!-- usr_web -->
<g id="node3" class="node"><title>usr_web</title>
<polygon fill="#ccaa66" stroke="black" points="342,-54 268,-54 268,-58 256,-58 256,-16 342,-16 342,-54"/>
<polyline fill="none" stroke="black" points="256,-54 268,-54 "/>
<text text-anchor="middle" x="299" y="-38.8" font-family="Times,serif" font-size="14.00">User&#39;s</text>
<text text-anchor="middle" x="299" y="-23.8" font-family="Times,serif" font-size="14.00">web browser</text>
</g>
<!-- gandi -->
<g id="node5" class="node"><title>gandi</title>
<ellipse fill="#55cc55" stroke="black" cx="220" cy="-438" rx="43.319" ry="18"/>
<text text-anchor="middle" x="220" y="-434.3" font-family="Times,serif" font-size="14.00">gandi.net</text>
</g>
<!-- usr_web&#45;&gt;gandi -->
<g id="edge1" class="edge"><title>usr_web&#45;&gt;gandi</title>
<path fill="none" stroke="#996644" d="M300.446,-54.0517C301.923,-74.0671 304,-107.318 304,-136 304,-330 304,-330 304,-330 304,-352.222 302.125,-359.377 290,-378 280.09,-393.222 265.078,-406.611 251.494,-416.77"/>
<polygon fill="#996644" stroke="#996644" points="249.362,-413.992 243.279,-422.666 253.444,-419.679 249.362,-413.992"/>
</g>
<!-- aws_r53 -->
<g id="node6" class="node"><title>aws_r53</title>
<ellipse fill="#55cc55" stroke="black" cx="154" cy="-329" rx="42.3456" ry="18"/>
<text text-anchor="middle" x="154" y="-325.3" font-family="Times,serif" font-size="14.00">Route 53</text>
</g>
<!-- gandi&#45;&gt;aws_r53 -->
<g id="edge2" class="edge"><title>gandi&#45;&gt;aws_r53</title>
<path fill="none" stroke="black" d="M209.688,-420.281C198.935,-402.849 181.954,-375.32 169.569,-355.24"/>
<polygon fill="black" stroke="black" points="172.469,-353.275 164.24,-346.601 166.511,-356.95 172.469,-353.275"/>
<text text-anchor="middle" x="216" y="-390.3" font-family="Times,serif" font-size="14.00">DNS:*</text>
</g>
<!-- aws_r53&#45;&gt;aws_r53 -->
<g id="edge3" class="edge"><title>aws_r53&#45;&gt;aws_r53</title>
<path fill="none" stroke="black" d="M201.946,-336.496C209.133,-335.336 214,-332.837 214,-329 214,-323.543 204.156,-320.793 191.793,-320.751"/>
<polygon fill="black" stroke="black" points="201.506,-333.019 191.793,-337.249 202.024,-339.999 201.506,-333.019"/>
<text text-anchor="middle" x="244.5" y="-325.3" font-family="Times,serif" font-size="14.00">DNS:www</text>
</g>
<!-- aws_ec2 -->
<g id="node7" class="node"><title>aws_ec2</title>
<ellipse fill="#55cc55" stroke="black" cx="154" cy="-241" rx="27" ry="18"/>
<text text-anchor="middle" x="154" y="-237.3" font-family="Times,serif" font-size="14.00">EC2</text>
</g>
<!-- aws_r53&#45;&gt;aws_ec2 -->
<g id="edge4" class="edge"><title>aws_r53&#45;&gt;aws_ec2</title>
<path fill="none" stroke="black" d="M154,-310.597C154,-298.746 154,-282.817 154,-269.292"/>
<polygon fill="black" stroke="black" points="157.5,-269.084 154,-259.084 150.5,-269.084 157.5,-269.084"/>
<text text-anchor="middle" x="187.5" y="-281.3" font-family="Times,serif" font-size="14.00">DNS:APEX</text>
</g>
<!-- aws_rds -->
<g id="node8" class="node"><title>aws_rds</title>
<ellipse fill="#55cc55" stroke="black" cx="114" cy="-137" rx="27.4223" ry="18"/>
<text text-anchor="middle" x="114" y="-133.3" font-family="Times,serif" font-size="14.00">RDS</text>
</g>
<!-- aws_ec2&#45;&gt;aws_rds -->
<g id="edge5" class="edge"><title>aws_ec2&#45;&gt;aws_rds</title>
<path fill="none" stroke="black" d="M131.151,-231.147C119.912,-225.49 107.426,-216.944 101,-205 94.1556,-192.278 96.7792,-176.477 101.405,-163.415"/>
<polygon fill="black" stroke="black" points="104.686,-164.639 105.209,-154.057 98.2008,-162.003 104.686,-164.639"/>
<text text-anchor="middle" x="133.5" y="-193.8" font-family="Times,serif" font-size="14.00">Database</text>
<text text-anchor="middle" x="133.5" y="-178.8" font-family="Times,serif" font-size="14.00">(postgresql)</text>
</g>
<!-- aws_ses -->
<g id="node9" class="node"><title>aws_ses</title>
<ellipse fill="#55cc55" stroke="black" cx="192" cy="-137" rx="27" ry="18"/>
<text text-anchor="middle" x="192" y="-133.3" font-family="Times,serif" font-size="14.00">SES</text>
</g>
<!-- aws_ec2&#45;&gt;aws_ses -->
<g id="edge6" class="edge"><title>aws_ec2&#45;&gt;aws_ses</title>
<path fill="none" stroke="black" d="M161.871,-223.781C164.591,-217.923 167.565,-211.222 170,-205 175.159,-191.818 180.146,-176.875 184.063,-164.452"/>
<polygon fill="black" stroke="black" points="187.467,-165.291 187.083,-154.703 180.781,-163.22 187.467,-165.291"/>
<text text-anchor="middle" x="224" y="-193.8" font-family="Times,serif" font-size="14.00">Outgoing email</text>
<text text-anchor="middle" x="224" y="-178.8" font-family="Times,serif" font-size="14.00">(SMTP)</text>
</g>
<!-- aws_ses&#45;&gt;eaddr_blogic -->
<g id="edge7" class="edge"><title>aws_ses&#45;&gt;eaddr_blogic</title>
<path fill="none" stroke="black" d="M175.527,-122.449C167.894,-116.329 158.622,-109.116 150,-103 128.491,-87.7425 103.646,-71.8169 83.5252,-59.3223"/>
<polygon fill="black" stroke="black" points="85.2765,-56.2903 74.9291,-54.014 81.5986,-62.2462 85.2765,-56.2903"/>
</g>
<!-- aws_ses&#45;&gt;usr_email -->
<g id="edge8" class="edge"><title>aws_ses&#45;&gt;usr_email</title>
<path fill="none" stroke="black" d="M195.223,-119.036C198.064,-104.085 202.26,-82.0002 205.611,-64.3644"/>
<polygon fill="black" stroke="black" points="209.14,-64.5398 207.568,-54.0622 202.263,-63.2331 209.14,-64.5398"/>
</g>
</g>
</svg>
