<?xml version="1.0" encoding="UTF-8" standalone="no"?>
<!DOCTYPE svg PUBLIC "-//W3C//DTD SVG 1.1//EN"
 "http://www.w3.org/Graphics/SVG/1.1/DTD/svg11.dtd">
<!-- Generated by graphviz version 2.36.0 (20140111.2315)
 -->
<!-- Title: G Pages: 1 -->
<svg width="406pt" height="637pt"
 viewBox="0.00 0.00 406.00 637.00" xmlns="http://www.w3.org/2000/svg" xmlns:xlink="http://www.w3.org/1999/xlink">
<g id="graph0" class="graph" transform="scale(1 1) rotate(0) translate(4 633)">
<title>G</title>
<polygon fill="white" stroke="none" points="-4,4 -4,-633 402,-633 402,4 -4,4"/>
<text text-anchor="middle" x="199" y="-613.8" font-family="Times,serif" font-size="14.00">ShipReq System Diagram</text>
<g id="clust3" class="cluster"><title>cluster_usr</title>
<polygon fill="#eeeeaa" stroke="black" points="216,-66 216,-143 390,-143 390,-66 216,-66"/>
<text text-anchor="middle" x="303" y="-127.8" font-family="Times,serif" font-size="14.00">Userland</text>
</g>
<g id="clust4" class="cluster"><title>cluster_net</title>
<polygon fill="#e2ffe2" stroke="black" points="104,-239 104,-598 328,-598 328,-239 104,-239"/>
</g>
<g id="clust5" class="cluster"><title>cluster_aws</title>
<polygon fill="#ccddcc" stroke="black" points="112,-247 112,-512 320,-512 320,-247 112,-247"/>
<text text-anchor="middle" x="216" y="-496.8" font-family="Times,serif" font-size="14.00">Amazon Web Services</text>
</g>
<!-- me -->
<g id="node1" class="node"><title>me</title>
<polygon fill="#aabbff" stroke="black" points="46.5,-197 48,-198.5 48,-201.5 46.5,-203 43.5,-203 42,-201.5 42,-198.5 43.5,-197 46.5,-197"/>
<polyline fill="none" stroke="black" points="45,-197 45,-191 "/>
<polyline fill="none" stroke="black" points="18,-191 72,-191 "/>
<text text-anchor="middle" x="45" y="-179.3" font-family="Times,serif" font-size="14.00">Staff</text>
</g>
<!-- eaddr_blogic -->
<g id="node2" class="node"><title>eaddr_blogic</title>
<polygon fill="#aabbff" stroke="black" points="90,-112 87,-116 66,-116 63,-112 0,-112 0,-74 90,-74 90,-112"/>
<text text-anchor="middle" x="45" y="-96.8" font-family="Times,serif" font-size="14.00">bearded.logic</text>
<text text-anchor="middle" x="45" y="-81.8" font-family="Times,serif" font-size="14.00">@gmail.com</text>
</g>
<!-- me&#45;&gt;eaddr_blogic -->
<g id="edge15" class="edge"><title>me&#45;&gt;eaddr_blogic</title>
<path fill="none" stroke="black" d="M45,-171.49C45,-157.59 45,-138.302 45,-122.447"/>
<polygon fill="black" stroke="black" points="48.5001,-122.127 45,-112.127 41.5001,-122.127 48.5001,-122.127"/>
</g>
<!-- email_man -->
<g id="node6" class="node"><title>email_man</title>
<polygon fill="none" stroke="black" points="223.25,-30 116.75,-30 116.75,-6 223.25,-6 223.25,-30"/>
<polyline fill="none" stroke="black" points="119.75,-19.5 122.75,-16.5 "/>
<polyline fill="none" stroke="black" points="119.75,-16.5 122.75,-19.5 "/>
<polyline fill="none" stroke="black" points="119.75,-9 220.25,-9 "/>
<text text-anchor="middle" x="170" y="-14.3" font-family="Times,serif" font-size="14.00"> Manual comms</text>
</g>
<!-- eaddr_blogic&#45;&gt;email_man -->
<g id="edge13" class="edge"><title>eaddr_blogic&#45;&gt;email_man</title>
<path fill="none" stroke="black" d="M75.8989,-73.9551C92.7678,-64.1036 113.805,-51.8181 131.707,-41.3629"/>
<polygon fill="black" stroke="black" points="133.875,-44.1504 140.745,-36.085 130.344,-38.1057 133.875,-44.1504"/>
</g>
<!-- eaddr_webapp -->
<g id="node3" class="node"><title>eaddr_webapp</title>
<polygon fill="#dddddd" stroke="black" points="205.25,-112 202.25,-116 181.25,-116 178.25,-112 108.75,-112 108.75,-74 205.25,-74 205.25,-112"/>
<text text-anchor="middle" x="157" y="-96.8" font-family="Times,serif" font-size="14.00">no&#45;reply</text>
<text text-anchor="middle" x="157" y="-81.8" font-family="Times,serif" font-size="14.00">@shipreq.com</text>
</g>
<!-- email_eoi -->
<g id="node4" class="node"><title>email_eoi</title>
<polygon fill="none" stroke="black" points="179.25,-203 96.75,-203 96.75,-179 179.25,-179 179.25,-203"/>
<polyline fill="none" stroke="black" points="99.75,-192.5 102.75,-189.5 "/>
<polyline fill="none" stroke="black" points="99.75,-189.5 102.75,-192.5 "/>
<polyline fill="none" stroke="black" points="99.75,-182 176.25,-182 "/>
<text text-anchor="middle" x="138" y="-187.3" font-family="Times,serif" font-size="14.00"> E.o.Interest</text>
</g>
<!-- email_eoi&#45;&gt;eaddr_blogic -->
<g id="edge8" class="edge"><title>email_eoi&#45;&gt;eaddr_blogic</title>
<path fill="none" stroke="black" d="M121.373,-172.837C107.056,-158.058 86.187,-136.516 69.8804,-119.683"/>
<polygon fill="black" stroke="black" points="72.221,-117.069 62.7492,-112.322 67.1933,-121.939 72.221,-117.069"/>
</g>
<!-- email_eoi&#45;&gt;eaddr_webapp -->
<g id="edge9" class="edge"><title>email_eoi&#45;&gt;eaddr_webapp</title>
<path fill="none" stroke="black" stroke-dasharray="1,5" d="M143.005,-164.711C146.262,-148.255 150.435,-127.17 153.374,-112.322"/>
<ellipse fill="black" stroke="black" cx="142.173" cy="-168.913" rx="4.00001" ry="4.00001"/>
</g>
<!-- email_sys -->
<g id="node5" class="node"><title>email_sys</title>
<polygon fill="none" stroke="black" points="292.25,-203 197.75,-203 197.75,-179 292.25,-179 292.25,-203"/>
<polyline fill="none" stroke="black" points="200.75,-192.5 203.75,-189.5 "/>
<polyline fill="none" stroke="black" points="200.75,-189.5 203.75,-192.5 "/>
<polyline fill="none" stroke="black" points="200.75,-182 289.25,-182 "/>
<text text-anchor="middle" x="245" y="-187.3" font-family="Times,serif" font-size="14.00"> System email</text>
</g>
<!-- email_sys&#45;&gt;eaddr_webapp -->
<g id="edge12" class="edge"><title>email_sys&#45;&gt;eaddr_webapp</title>
<path fill="none" stroke="black" stroke-dasharray="1,5" d="M223.461,-166.503C208.16,-149.811 187.905,-127.715 173.795,-112.322"/>
<ellipse fill="black" stroke="black" cx="226.564" cy="-169.888" rx="4.00002" ry="4.00002"/>
</g>
<!-- usr_email -->
<g id="node8" class="node"><title>usr_email</title>
<polygon fill="#ccaa66" stroke="black" points="278,-112 275,-116 254,-116 251,-112 224,-112 224,-74 278,-74 278,-112"/>
<text text-anchor="middle" x="251" y="-96.8" font-family="Times,serif" font-size="14.00">User&#39;s</text>
<text text-anchor="middle" x="251" y="-81.8" font-family="Times,serif" font-size="14.00">email</text>
</g>
<!-- email_sys&#45;&gt;usr_email -->
<g id="edge11" class="edge"><title>email_sys&#45;&gt;usr_email</title>
<path fill="none" stroke="black" d="M246.073,-172.837C246.946,-158.857 248.198,-138.825 249.222,-122.452"/>
<polygon fill="black" stroke="black" points="252.724,-122.521 249.855,-112.322 245.738,-122.084 252.724,-122.521"/>
</g>
<!-- email_man&#45;&gt;usr_email -->
<g id="edge14" class="edge"><title>email_man&#45;&gt;usr_email</title>
<path fill="none" stroke="black" d="M188.957,-36.085C199.213,-45.3281 212.069,-56.9142 223.415,-67.1392"/>
<polygon fill="black" stroke="black" points="221.206,-69.8602 230.978,-73.9551 225.892,-64.6604 221.206,-69.8602"/>
</g>
<!-- usr_web -->
<g id="node7" class="node"><title>usr_web</title>
<polygon fill="#ccaa66" stroke="black" points="382,-112 308,-112 308,-116 296,-116 296,-74 382,-74 382,-112"/>
<polyline fill="none" stroke="black" points="296,-112 308,-112 "/>
<text text-anchor="middle" x="339" y="-96.8" font-family="Times,serif" font-size="14.00">User&#39;s</text>
<text text-anchor="middle" x="339" y="-81.8" font-family="Times,serif" font-size="14.00">web browser</text>
</g>
<!-- gandi -->
<g id="node9" class="node"><title>gandi</title>
<ellipse fill="#55cc55" stroke="black" cx="254" cy="-572" rx="43.319" ry="18"/>
<text text-anchor="middle" x="254" y="-568.3" font-family="Times,serif" font-size="14.00">gandi.net</text>
</g>
<!-- usr_web&#45;&gt;gandi -->
<g id="edge1" class="edge"><title>usr_web&#45;&gt;gandi</title>
<path fill="none" stroke="#996644" d="M339,-112.047C339,-131.342 339,-162.833 339,-190 339,-464 339,-464 339,-464 339,-486.351 336.373,-493.387 324,-512 313.945,-527.126 298.917,-540.505 285.361,-550.682"/>
<polygon fill="#996644" stroke="#996644" points="283.23,-547.904 277.167,-556.592 287.325,-553.581 283.23,-547.904"/>
</g>
<!-- aws_r53 -->
<g id="node10" class="node"><title>aws_r53</title>
<ellipse fill="#55cc55" stroke="black" cx="189" cy="-463" rx="42.3456" ry="18"/>
<text text-anchor="middle" x="189" y="-459.3" font-family="Times,serif" font-size="14.00">Route 53</text>
</g>
<!-- gandi&#45;&gt;aws_r53 -->
<g id="edge2" class="edge"><title>gandi&#45;&gt;aws_r53</title>
<path fill="none" stroke="black" d="M243.844,-554.281C233.254,-536.849 216.531,-509.32 204.333,-489.24"/>
<polygon fill="black" stroke="black" points="207.268,-487.331 199.085,-480.601 201.286,-490.965 207.268,-487.331"/>
<text text-anchor="middle" x="251" y="-524.3" font-family="Times,serif" font-size="14.00">DNS:*</text>
</g>
<!-- aws_r53&#45;&gt;aws_r53 -->
<g id="edge3" class="edge"><title>aws_r53&#45;&gt;aws_r53</title>
<path fill="none" stroke="black" d="M236.946,-470.496C244.133,-469.336 249,-466.837 249,-463 249,-457.543 239.156,-454.793 226.793,-454.751"/>
<polygon fill="black" stroke="black" points="236.506,-467.019 226.793,-471.249 237.024,-473.999 236.506,-467.019"/>
<text text-anchor="middle" x="279.5" y="-459.3" font-family="Times,serif" font-size="14.00">DNS:www</text>
</g>
<!-- aws_ec2 -->
<g id="node11" class="node"><title>aws_ec2</title>
<ellipse fill="#55cc55" stroke="black" cx="189" cy="-375" rx="27" ry="18"/>
<text text-anchor="middle" x="189" y="-371.3" font-family="Times,serif" font-size="14.00">EC2</text>
</g>
<!-- aws_r53&#45;&gt;aws_ec2 -->
<g id="edge4" class="edge"><title>aws_r53&#45;&gt;aws_ec2</title>
<path fill="none" stroke="black" d="M189,-444.597C189,-432.746 189,-416.817 189,-403.292"/>
<polygon fill="black" stroke="black" points="192.5,-403.084 189,-393.084 185.5,-403.084 192.5,-403.084"/>
<text text-anchor="middle" x="222.5" y="-415.3" font-family="Times,serif" font-size="14.00">DNS:APEX</text>
</g>
<!-- aws_rds -->
<g id="node12" class="node"><title>aws_rds</title>
<ellipse fill="#55cc55" stroke="black" cx="148" cy="-273" rx="27.4223" ry="18"/>
<text text-anchor="middle" x="148" y="-269.3" font-family="Times,serif" font-size="14.00">RDS</text>
</g>
<!-- aws_ec2&#45;&gt;aws_rds -->
<g id="edge5" class="edge"><title>aws_ec2&#45;&gt;aws_rds</title>
<path fill="none" stroke="black" d="M166.011,-365.388C154.492,-359.764 141.616,-351.172 135,-339 128.452,-326.953 130.815,-312.039 135.213,-299.537"/>
<polygon fill="black" stroke="black" points="138.514,-300.711 139.045,-290.129 132.031,-298.07 138.514,-300.711"/>
<text text-anchor="middle" x="167.5" y="-327.8" font-family="Times,serif" font-size="14.00">Database</text>
<text text-anchor="middle" x="167.5" y="-312.8" font-family="Times,serif" font-size="14.00">(postgresql)</text>
</g>
<!-- aws_ses -->
<g id="node13" class="node"><title>aws_ses</title>
<ellipse fill="#55cc55" stroke="black" cx="226" cy="-273" rx="27" ry="18"/>
<text text-anchor="middle" x="226" y="-269.3" font-family="Times,serif" font-size="14.00">SES</text>
</g>
<!-- aws_ec2&#45;&gt;aws_ses -->
<g id="edge6" class="edge"><title>aws_ec2&#45;&gt;aws_ses</title>
<path fill="none" stroke="black" d="M196.441,-357.375C198.943,-351.598 201.684,-345.05 204,-339 208.81,-326.436 213.657,-312.309 217.573,-300.443"/>
<polygon fill="black" stroke="black" points="220.979,-301.285 220.75,-290.692 214.324,-299.116 220.979,-301.285"/>
<text text-anchor="middle" x="258" y="-327.8" font-family="Times,serif" font-size="14.00">Outgoing email</text>
<text text-anchor="middle" x="258" y="-312.8" font-family="Times,serif" font-size="14.00">(SMTP)</text>
</g>
<!-- aws_ses&#45;&gt;email_eoi -->
<g id="edge7" class="edge"><title>aws_ses&#45;&gt;email_eoi</title>
<path fill="none" stroke="black" d="M210.672,-258.065C197.924,-246.476 179.489,-229.717 164.376,-215.978"/>
<polygon fill="black" stroke="black" points="166.578,-213.25 156.824,-209.113 161.869,-218.429 166.578,-213.25"/>
</g>
<!-- aws_ses&#45;&gt;email_sys -->
<g id="edge10" class="edge"><title>aws_ses&#45;&gt;email_sys</title>
<path fill="none" stroke="black" d="M230.029,-255.034C232.506,-244.605 235.736,-231.006 238.561,-219.11"/>
<polygon fill="black" stroke="black" points="242.005,-219.755 240.911,-209.217 235.195,-218.138 242.005,-219.755"/>
</g>
</g>
</svg>
