<?xml version="1.0" encoding="UTF-8" standalone="no"?>
<!DOCTYPE svg PUBLIC "-//W3C//DTD SVG 1.1//EN"
 "http://www.w3.org/Graphics/SVG/1.1/DTD/svg11.dtd">
<!-- Generated by graphviz version 2.38.0 (20140413.2041)
 -->
<!-- Title: G Pages: 1 -->
<svg width="1265pt" height="367pt"
 viewBox="0.00 0.00 1264.59 367.48" xmlns="http://www.w3.org/2000/svg" xmlns:xlink="http://www.w3.org/1999/xlink">
<g id="graph0" class="graph" transform="scale(1 1) rotate(0) translate(4 363.48)">
<title>G</title>
<polygon fill="white" stroke="none" points="-4,4 -4,-363.48 1260.59,-363.48 1260.59,4 -4,4"/>
<!-- ro -->
<g id="node1" class="node"><title>ro</title>
<ellipse fill="none" stroke="black" cx="973.526" cy="-242.87" rx="53.0913" ry="18"/>
<text text-anchor="middle" x="973.526" y="-239.17" font-family="Times,serif" font-size="14.00">RO Table</text>
</g>
<!-- kb -->
<g id="node2" class="node"><title>kb</title>
<ellipse fill="none" stroke="black" cx="973.526" cy="-162" rx="83.3857" ry="18"/>
<text text-anchor="middle" x="973.526" y="-158.3" font-family="Times,serif" font-size="14.00">KB focus &amp; nav</text>
</g>
<!-- ro&#45;&gt;kb -->
<g id="edge11" class="edge"><title>ro&#45;&gt;kb</title>
<path fill="none" stroke="black" d="M973.526,-224.756C973.526,-214.731 973.526,-201.836 973.526,-190.425"/>
<polygon fill="black" stroke="black" points="977.026,-190.08 973.526,-180.08 970.026,-190.08 977.026,-190.08"/>
</g>
<!-- rw -->
<g id="node6" class="node"><title>rw</title>
<ellipse fill="none" stroke="black" cx="404.526" cy="-162" rx="55.7903" ry="18"/>
<text text-anchor="middle" x="404.526" y="-158.3" font-family="Times,serif" font-size="14.00">RW Table</text>
</g>
<!-- ro&#45;&gt;rw -->
<g id="edge13" class="edge"><title>ro&#45;&gt;rw</title>
<path fill="none" stroke="black" d="M944.484,-227.699C934.283,-223.278 922.602,-218.825 911.526,-216 756.645,-176.497 567.951,-166.353 470.244,-163.804"/>
<polygon fill="black" stroke="black" points="470.3,-160.305 460.218,-163.561 470.13,-167.303 470.3,-160.305"/>
</g>
<!-- txt -->
<g id="node3" class="node"><title>txt</title>
<ellipse fill="none" stroke="black" cx="547.526" cy="-332.61" rx="152.056" ry="26.7407"/>
<text text-anchor="middle" x="547.526" y="-336.41" font-family="Times,serif" font-size="14.00">Rich text parser &amp; data rep</text>
<text text-anchor="middle" x="547.526" y="-321.41" font-family="Times,serif" font-size="14.00">(incl. refs &amp; markdown)</text>
</g>
<!-- txtPoly -->
<g id="node4" class="node"><title>txtPoly</title>
<ellipse fill="none" stroke="black" cx="547.526" cy="-242.87" rx="124.402" ry="26.7407"/>
<text text-anchor="middle" x="547.526" y="-246.67" font-family="Times,serif" font-size="14.00">Rich text variants</text>
<text text-anchor="middle" x="547.526" y="-231.67" font-family="Times,serif" font-size="14.00">certain features on/off</text>
</g>
<!-- txt&#45;&gt;txtPoly -->
<g id="edge12" class="edge"><title>txt&#45;&gt;txtPoly</title>
<path fill="none" stroke="black" d="M547.526,-305.285C547.526,-297.319 547.526,-288.428 547.526,-279.939"/>
<polygon fill="black" stroke="black" points="551.026,-279.874 547.526,-269.874 544.026,-279.874 551.026,-279.874"/>
</g>
<!-- fieldCellRText -->
<g id="node10" class="node"><title>fieldCellRText</title>
<ellipse fill="#ddffdd" stroke="black" cx="796.526" cy="-242.87" rx="106.132" ry="26.7407"/>
<text text-anchor="middle" x="796.526" y="-246.67" font-family="Times,serif" font-size="14.00">Field cell renderer</text>
<text text-anchor="middle" x="796.526" y="-231.67" font-family="Times,serif" font-size="14.00">Text</text>
</g>
<!-- txt&#45;&gt;fieldCellRText -->
<g id="edge6" class="edge"><title>txt&#45;&gt;fieldCellRText</title>
<path fill="none" stroke="black" d="M613.6,-308.328C648.368,-296.077 690.997,-281.055 726.354,-268.597"/>
<polygon fill="black" stroke="black" points="727.853,-271.78 736.121,-265.155 725.526,-265.177 727.853,-271.78"/>
</g>
<!-- fieldCellEText -->
<g id="node13" class="node"><title>fieldCellEText</title>
<ellipse fill="#ffdddd" stroke="black" cx="313.526" cy="-242.87" rx="91.8478" ry="26.7407"/>
<text text-anchor="middle" x="313.526" y="-246.67" font-family="Times,serif" font-size="14.00">Field cell editor</text>
<text text-anchor="middle" x="313.526" y="-231.67" font-family="Times,serif" font-size="14.00">Text</text>
</g>
<!-- txt&#45;&gt;fieldCellEText -->
<g id="edge10" class="edge"><title>txt&#45;&gt;fieldCellEText</title>
<path fill="none" stroke="black" d="M484.819,-308.097C451.797,-295.716 411.361,-280.554 378.071,-268.072"/>
<polygon fill="black" stroke="black" points="379.027,-264.692 368.435,-264.459 376.57,-271.247 379.027,-264.692"/>
</g>
<!-- cellLock -->
<g id="node5" class="node"><title>cellLock</title>
<ellipse fill="none" stroke="black" cx="404.526" cy="-90" rx="66.0889" ry="18"/>
<text text-anchor="middle" x="404.526" y="-86.3" font-family="Times,serif" font-size="14.00">Cell locking</text>
</g>
<!-- filter -->
<g id="node7" class="node"><title>filter</title>
<ellipse fill="#dddddd" stroke="black" cx="317.526" cy="-18" rx="64.9885" ry="18"/>
<text text-anchor="middle" x="317.526" y="-14.3" font-family="Times,serif" font-size="14.00">Table Filter</text>
</g>
<!-- cellLock&#45;&gt;filter -->
<g id="edge1" class="edge"><title>cellLock&#45;&gt;filter</title>
<path fill="none" stroke="black" d="M384.348,-72.7646C372.819,-63.488 358.186,-51.7144 345.554,-41.5511"/>
<polygon fill="black" stroke="black" points="347.58,-38.6892 337.595,-35.1473 343.192,-44.143 347.58,-38.6892"/>
</g>
<!-- impfields -->
<g id="node8" class="node"><title>impfields</title>
<ellipse fill="#dddddd" stroke="black" cx="492.526" cy="-18" rx="92.0841" ry="18"/>
<text text-anchor="middle" x="492.526" y="-14.3" font-family="Times,serif" font-size="14.00">Implication fields</text>
</g>
<!-- cellLock&#45;&gt;impfields -->
<g id="edge2" class="edge"><title>cellLock&#45;&gt;impfields</title>
<path fill="none" stroke="black" d="M424.936,-72.7646C436.432,-63.6205 450.977,-52.0503 463.628,-41.9876"/>
<polygon fill="black" stroke="black" points="465.969,-44.5978 471.616,-35.6334 461.611,-39.1196 465.969,-44.5978"/>
</g>
<!-- rw&#45;&gt;cellLock -->
<g id="edge14" class="edge"><title>rw&#45;&gt;cellLock</title>
<path fill="none" stroke="black" d="M404.526,-143.697C404.526,-135.983 404.526,-126.712 404.526,-118.112"/>
<polygon fill="black" stroke="black" points="408.026,-118.104 404.526,-108.104 401.026,-118.104 408.026,-118.104"/>
</g>
<!-- fieldCellRI -->
<g id="node9" class="node"><title>fieldCellRI</title>
<ellipse fill="#ddffdd" stroke="black" cx="973.526" cy="-332.61" rx="106.132" ry="26.7407"/>
<text text-anchor="middle" x="973.526" y="-336.41" font-family="Times,serif" font-size="14.00">Field cell renderer</text>
<text text-anchor="middle" x="973.526" y="-321.41" font-family="Times,serif" font-size="14.00">interface</text>
</g>
<!-- fieldCellRI&#45;&gt;ro -->
<g id="edge5" class="edge"><title>fieldCellRI&#45;&gt;ro</title>
<path fill="none" stroke="black" d="M973.526,-305.285C973.526,-294.534 973.526,-282.099 973.526,-271.242"/>
<polygon fill="black" stroke="black" points="977.026,-271.031 973.526,-261.031 970.026,-271.031 977.026,-271.031"/>
</g>
<!-- fieldCellRI&#45;&gt;fieldCellRText -->
<g id="edge3" class="edge"><title>fieldCellRI&#45;&gt;fieldCellRText</title>
<path fill="none" stroke="black" d="M926.558,-308.328C903.864,-297.078 876.458,-283.493 852.669,-271.7"/>
<polygon fill="black" stroke="black" points="853.921,-268.414 843.406,-267.109 850.812,-274.686 853.921,-268.414"/>
</g>
<!-- fieldCellRTag -->
<g id="node11" class="node"><title>fieldCellRTag</title>
<ellipse fill="#ddffdd" stroke="black" cx="1150.53" cy="-242.87" rx="106.132" ry="26.7407"/>
<text text-anchor="middle" x="1150.53" y="-246.67" font-family="Times,serif" font-size="14.00">Field cell renderer</text>
<text text-anchor="middle" x="1150.53" y="-231.67" font-family="Times,serif" font-size="14.00">Tag</text>
</g>
<!-- fieldCellRI&#45;&gt;fieldCellRTag -->
<g id="edge4" class="edge"><title>fieldCellRI&#45;&gt;fieldCellRTag</title>
<path fill="none" stroke="black" d="M1020.49,-308.328C1043.19,-297.078 1070.59,-283.493 1094.38,-271.7"/>
<polygon fill="black" stroke="black" points="1096.24,-274.686 1103.65,-267.109 1093.13,-268.414 1096.24,-274.686"/>
</g>
<!-- fieldCellEI -->
<g id="node12" class="node"><title>fieldCellEI</title>
<ellipse fill="#ffdddd" stroke="black" cx="111.526" cy="-332.61" rx="91.8478" ry="26.7407"/>
<text text-anchor="middle" x="111.526" y="-336.41" font-family="Times,serif" font-size="14.00">Field cell editor</text>
<text text-anchor="middle" x="111.526" y="-321.41" font-family="Times,serif" font-size="14.00">interface</text>
</g>
<!-- fieldCellEI&#45;&gt;rw -->
<g id="edge9" class="edge"><title>fieldCellEI&#45;&gt;rw</title>
<path fill="none" stroke="black" d="M56.447,-310.96C38.5379,-301.312 20.6759,-287.86 10.5263,-269.74 -1.14588,-248.902 -5.19654,-233.979 10.5263,-216 31.8518,-191.614 233.815,-174.49 339.99,-167.093"/>
<polygon fill="black" stroke="black" points="340.531,-170.564 350.268,-166.386 340.051,-163.58 340.531,-170.564"/>
</g>
<!-- fieldCellEI&#45;&gt;fieldCellEText -->
<g id="edge7" class="edge"><title>fieldCellEI&#45;&gt;fieldCellEText</title>
<path fill="none" stroke="black" d="M161.459,-309.922C189.501,-297.741 224.671,-282.465 254.123,-269.672"/>
<polygon fill="black" stroke="black" points="255.69,-272.807 263.468,-265.613 252.901,-266.387 255.69,-272.807"/>
</g>
<!-- fieldCellETag -->
<g id="node14" class="node"><title>fieldCellETag</title>
<ellipse fill="#ffdddd" stroke="black" cx="111.526" cy="-242.87" rx="91.8478" ry="26.7407"/>
<text text-anchor="middle" x="111.526" y="-246.67" font-family="Times,serif" font-size="14.00">Field cell editor</text>
<text text-anchor="middle" x="111.526" y="-231.67" font-family="Times,serif" font-size="14.00">Tag</text>
</g>
<!-- fieldCellEI&#45;&gt;fieldCellETag -->
<g id="edge8" class="edge"><title>fieldCellEI&#45;&gt;fieldCellETag</title>
<path fill="none" stroke="black" d="M111.526,-305.285C111.526,-297.319 111.526,-288.428 111.526,-279.939"/>
<polygon fill="black" stroke="black" points="115.026,-279.874 111.526,-269.874 108.026,-279.874 115.026,-279.874"/>
</g>
</g>
</svg>
