<?xml version="1.0" encoding="UTF-8" standalone="no"?>
<!DOCTYPE svg PUBLIC "-//W3C//DTD SVG 1.1//EN"
 "http://www.w3.org/Graphics/SVG/1.1/DTD/svg11.dtd">
<!-- Generated by graphviz version 2.36.0 (20140111.2315)
 -->
<!-- Title: G Pages: 1 -->
<svg width="715pt" height="246pt"
 viewBox="0.00 0.00 715.00 246.00" xmlns="http://www.w3.org/2000/svg" xmlns:xlink="http://www.w3.org/1999/xlink">
<g id="graph0" class="graph" transform="scale(1 1) rotate(0) translate(4 242)">
<title>G</title>
<polygon fill="white" stroke="none" points="-4,4 -4,-242 711,-242 711,4 -4,4"/>
<!-- START -->
<g id="node1" class="node"><title>START</title>
<ellipse fill="black" stroke="black" cx="393" cy="-227" rx="10.5" ry="11"/>
<text text-anchor="middle" x="393" y="-226.7" font-family="Times,serif" font-size="1.00">START</text>
</g>
<!-- busplan -->
<g id="node5" class="node"><title>busplan</title>
<ellipse fill="none" stroke="black" cx="156" cy="-162" rx="59.1941" ry="18"/>
<text text-anchor="middle" x="156" y="-158.3" font-family="Times,serif" font-size="14.00">Business Plan</text>
</g>
<!-- START&#45;&gt;busplan -->
<g id="edge9" class="edge"><title>START&#45;&gt;busplan</title>
<path fill="none" stroke="red" d="M382.816,-223.293C353.312,-215.45 266.239,-192.304 208.963,-177.079"/>
<polygon fill="red" stroke="red" points="209.551,-173.614 198.988,-174.427 207.753,-180.379 209.551,-173.614"/>
</g>
<!-- selina -->
<g id="node6" class="node"><title>selina</title>
<ellipse fill="none" stroke="black" cx="293" cy="-90" rx="60.1672" ry="18"/>
<text text-anchor="middle" x="293" y="-86.3" font-family="Times,serif" font-size="14.00">Talk to Selina</text>
</g>
<!-- START&#45;&gt;selina -->
<g id="edge10" class="edge"><title>START&#45;&gt;selina</title>
<path fill="none" stroke="red" d="M382.972,-223.263C365.605,-217.978 330.064,-204.656 312,-180 298.903,-162.125 294.454,-137.122 293.108,-118.167"/>
<polygon fill="red" stroke="red" points="296.6,-117.9 292.638,-108.074 289.607,-118.226 296.6,-117.9"/>
</g>
<!-- logo -->
<g id="node8" class="node"><title>logo</title>
<ellipse fill="none" stroke="black" cx="348" cy="-162" rx="27" ry="18"/>
<text text-anchor="middle" x="348" y="-158.3" font-family="Times,serif" font-size="14.00">logo</text>
</g>
<!-- START&#45;&gt;logo -->
<g id="edge11" class="edge"><title>START&#45;&gt;logo</title>
<path fill="none" stroke="red" d="M387.117,-217.764C381.553,-209.974 372.925,-197.895 365.186,-187.061"/>
<polygon fill="red" stroke="red" points="367.907,-184.848 359.247,-178.745 362.211,-188.917 367.907,-184.848"/>
</g>
<!-- nhill_plan -->
<g id="node9" class="node"><title>nhill_plan</title>
<ellipse fill="none" stroke="black" cx="439" cy="-162" rx="46.2191" ry="18"/>
<text text-anchor="middle" x="439" y="-158.3" font-family="Times,serif" font-size="14.00">nhill_plan</text>
</g>
<!-- START&#45;&gt;nhill_plan -->
<g id="edge12" class="edge"><title>START&#45;&gt;nhill_plan</title>
<path fill="none" stroke="red" d="M399.014,-217.764C404.586,-210.132 413.165,-198.383 420.95,-187.721"/>
<polygon fill="red" stroke="red" points="423.879,-189.644 426.95,-179.504 418.226,-185.516 423.879,-189.644"/>
</g>
<!-- pricing -->
<g id="node10" class="node"><title>pricing</title>
<ellipse fill="none" stroke="black" cx="539" cy="-162" rx="35.6194" ry="18"/>
<text text-anchor="middle" x="539" y="-158.3" font-family="Times,serif" font-size="14.00">pricing</text>
</g>
<!-- START&#45;&gt;pricing -->
<g id="edge13" class="edge"><title>START&#45;&gt;pricing</title>
<path fill="none" stroke="red" d="M402.579,-221.866C422.673,-213.196 470.113,-192.725 503.376,-178.372"/>
<polygon fill="red" stroke="red" points="504.977,-181.493 512.772,-174.318 502.203,-175.066 504.977,-181.493"/>
</g>
<!-- requirements -->
<g id="node11" class="node"><title>requirements</title>
<ellipse fill="none" stroke="black" cx="650" cy="-162" rx="57.2927" ry="18"/>
<text text-anchor="middle" x="650" y="-158.3" font-family="Times,serif" font-size="14.00">requirements</text>
</g>
<!-- START&#45;&gt;requirements -->
<g id="edge14" class="edge"><title>START&#45;&gt;requirements</title>
<path fill="none" stroke="red" d="M403.308,-223.546C431.876,-216.737 514.481,-196.987 583,-180 587.634,-178.851 592.445,-177.649 597.267,-176.438"/>
<polygon fill="red" stroke="red" points="598.285,-179.791 607.127,-173.953 596.575,-173.003 598.285,-179.791"/>
</g>
<!-- lp -->
<g id="node2" class="node"><title>lp</title>
<ellipse fill="none" stroke="black" cx="431" cy="-90" rx="59.1941" ry="18"/>
<text text-anchor="middle" x="431" y="-86.3" font-family="Times,serif" font-size="14.00">Landing Page</text>
</g>
<!-- buscards -->
<g id="node3" class="node"><title>buscards</title>
<ellipse fill="none" stroke="black" cx="431" cy="-18" rx="63.0666" ry="18"/>
<text text-anchor="middle" x="431" y="-14.3" font-family="Times,serif" font-size="14.00">Business cards</text>
</g>
<!-- lp&#45;&gt;buscards -->
<g id="edge3" class="edge"><title>lp&#45;&gt;buscards</title>
<path fill="none" stroke="black" d="M431,-71.6966C431,-63.9827 431,-54.7125 431,-46.1124"/>
<polygon fill="black" stroke="black" points="434.5,-46.1043 431,-36.1043 427.5,-46.1044 434.5,-46.1043"/>
</g>
<!-- getusers -->
<g id="node4" class="node"><title>getusers</title>
<ellipse fill="none" stroke="black" cx="293" cy="-18" rx="46.2191" ry="18"/>
<text text-anchor="middle" x="293" y="-14.3" font-family="Times,serif" font-size="14.00">Get Users</text>
</g>
<!-- lp&#45;&gt;getusers -->
<g id="edge6" class="edge"><title>lp&#45;&gt;getusers</title>
<path fill="none" stroke="black" d="M401.734,-74.1548C380.455,-63.3613 351.529,-48.6887 328.861,-37.1903"/>
<polygon fill="black" stroke="black" points="330.386,-34.0393 319.884,-32.6369 327.219,-40.2821 330.386,-34.0393"/>
</g>
<!-- free_bmentor -->
<g id="node7" class="node"><title>free_bmentor</title>
<ellipse fill="none" stroke="black" cx="107" cy="-90" rx="107.361" ry="18"/>
<text text-anchor="middle" x="107" y="-86.3" font-family="Times,serif" font-size="14.00">Free Business Consultation</text>
</g>
<!-- busplan&#45;&gt;free_bmentor -->
<g id="edge4" class="edge"><title>busplan&#45;&gt;free_bmentor</title>
<path fill="none" stroke="black" d="M144.138,-144.055C138.386,-135.837 131.354,-125.791 124.962,-116.66"/>
<polygon fill="black" stroke="black" points="127.695,-114.461 119.093,-108.275 121.96,-118.475 127.695,-114.461"/>
</g>
<!-- selina&#45;&gt;getusers -->
<g id="edge7" class="edge"><title>selina&#45;&gt;getusers</title>
<path fill="none" stroke="black" d="M293,-71.6966C293,-63.9827 293,-54.7125 293,-46.1124"/>
<polygon fill="black" stroke="black" points="296.5,-46.1043 293,-36.1043 289.5,-46.1044 296.5,-46.1043"/>
</g>
<!-- free_bmentor&#45;&gt;getusers -->
<g id="edge8" class="edge"><title>free_bmentor&#45;&gt;getusers</title>
<path fill="none" stroke="black" d="M148.742,-73.2906C179.379,-61.7605 220.81,-46.1684 251.411,-34.6517"/>
<polygon fill="black" stroke="black" points="252.812,-37.8641 260.939,-31.0661 250.347,-31.3127 252.812,-37.8641"/>
</g>
<!-- logo&#45;&gt;lp -->
<g id="edge2" class="edge"><title>logo&#45;&gt;lp</title>
<path fill="none" stroke="black" d="M364.398,-147.17C375.666,-137.667 390.888,-124.83 403.935,-113.826"/>
<polygon fill="black" stroke="black" points="406.336,-116.38 411.723,-107.257 401.823,-111.029 406.336,-116.38"/>
</g>
<!-- logo&#45;&gt;buscards -->
<g id="edge1" class="edge"><title>logo&#45;&gt;buscards</title>
<path fill="none" stroke="black" d="M369.108,-150.439C373.946,-148.185 379.107,-145.911 384,-144 433.888,-124.519 467.287,-151.158 499,-108 508.474,-95.1066 506.022,-86.3766 499,-72 492.551,-58.7967 481.048,-47.9257 469.316,-39.5399"/>
<polygon fill="black" stroke="black" points="471.066,-36.5004 460.801,-33.8752 467.188,-42.3284 471.066,-36.5004"/>
</g>
<!-- pricing&#45;&gt;nhill_plan -->
<g id="edge5" class="edge"><title>pricing&#45;&gt;nhill_plan</title>
<path fill="none" stroke="black" d="M495.49,-162C495.402,-162 495.315,-162 495.227,-162"/>
<polygon fill="black" stroke="black" points="493.624,-165.5 503.624,-162 493.624,-158.5 493.624,-165.5"/>
<polygon fill="black" stroke="black" points="495.094,-158.5 485.094,-162 495.094,-165.5 495.094,-158.5"/>
</g>
</g>
</svg>
