<?xml version="1.0" encoding="UTF-8" standalone="no"?>
<!DOCTYPE svg PUBLIC "-//W3C//DTD SVG 1.1//EN"
 "http://www.w3.org/Graphics/SVG/1.1/DTD/svg11.dtd">
<!-- Generated by graphviz version 2.36.0 (20140111.2315)
 -->
<!-- Title: G Pages: 1 -->
<svg width="997pt" height="800pt"
 viewBox="0.00 0.00 997.15 800.00" xmlns="http://www.w3.org/2000/svg" xmlns:xlink="http://www.w3.org/1999/xlink">
<g id="graph0" class="graph" transform="scale(1 1) rotate(0) translate(4 796)">
<title>G</title>
<polygon fill="white" stroke="none" points="-4,4 -4,-796 993.147,-796 993.147,4 -4,4"/>
<g id="clust1" class="cluster"><title>cluster_base</title>
<polygon fill="#f4fff4" stroke="black" points="8,-366 8,-784 148,-784 148,-366 8,-366"/>
</g>
<g id="clust2" class="cluster"><title>cluster_t</title>
<polygon fill="#eeeeff" stroke="black" points="167,-82 167,-620 943,-620 943,-82 167,-82"/>
</g>
<g id="clust3" class="cluster"><title>cluster_ts</title>
<polygon fill="white" stroke="black" points="365,-274 365,-524 759,-524 759,-274 365,-274"/>
</g>
<g id="clust4" class="cluster"><title>cluster_ta</title>
<polygon fill="white" stroke="black" points="175,-274 175,-612 357,-612 357,-274 175,-274"/>
</g>
<g id="clust5" class="cluster"><title>cluster_w</title>
<polygon fill="white" stroke="black" points="767,-90 767,-436 935,-436 935,-90 767,-90"/>
</g>
<!-- base -->
<g id="node1" class="node"><title>base</title>
<ellipse fill="#cccccc" stroke="black" cx="78" cy="-401" rx="55.3091" ry="26.7407"/>
<text text-anchor="middle" x="78" y="-404.8" font-family="Times,serif" font-size="14.00">[aggregate]</text>
<text text-anchor="middle" x="78" y="-389.8" font-family="Times,serif" font-size="14.00">base</text>
</g>
<!-- baseUtil -->
<g id="node3" class="node"><title>baseUtil</title>
<ellipse fill="#bbffbb" stroke="black" cx="79" cy="-666" rx="40.8928" ry="18"/>
<text text-anchor="middle" x="79" y="-662.3" font-family="Times,serif" font-size="14.00">base&#45;util</text>
</g>
<!-- base&#45;&gt;baseUtil -->
<g id="edge33" class="edge"><title>base&#45;&gt;baseUtil</title>
<path fill="none" stroke="#aaaaaa" stroke-dasharray="5,2" d="M57.2801,-426.4C52.9768,-432.486 48.8808,-439.219 46,-446 40,-460.123 41.3384,-464.714 40,-480 34.5659,-542.063 28.1965,-560.605 47,-620 49.3075,-627.289 53.2828,-634.403 57.6629,-640.745"/>
<polygon fill="#aaaaaa" stroke="#aaaaaa" points="63.768,-648.857 54.1592,-643.573 60.7614,-644.862 57.7548,-640.867 57.7548,-640.867 57.7548,-640.867 60.7614,-644.862 61.3504,-638.161 63.768,-648.857 63.768,-648.857"/>
</g>
<!-- baseDb -->
<g id="node4" class="node"><title>baseDb</title>
<ellipse fill="#bbffbb" stroke="black" cx="101" cy="-586" rx="38.1938" ry="18"/>
<text text-anchor="middle" x="101" y="-582.3" font-family="Times,serif" font-size="14.00">base&#45;db</text>
</g>
<!-- base&#45;&gt;baseDb -->
<g id="edge34" class="edge"><title>base&#45;&gt;baseDb</title>
<path fill="none" stroke="#aaaaaa" stroke-dasharray="5,2" d="M63.5154,-427.399C51.2608,-452.192 37.1417,-490.908 47,-524 51.5934,-539.419 62.7662,-553.179 73.7646,-563.71"/>
<polygon fill="#aaaaaa" stroke="#aaaaaa" points="81.2681,-570.466 70.8254,-567.119 77.5522,-567.12 73.8364,-563.775 73.8364,-563.775 73.8364,-563.775 77.5522,-567.12 76.8474,-560.43 81.2681,-570.466 81.2681,-570.466"/>
</g>
<!-- baseTest -->
<g id="node5" class="node"><title>baseTest</title>
<ellipse fill="#bbffbb" stroke="black" cx="98" cy="-498" rx="41.6928" ry="18"/>
<text text-anchor="middle" x="98" y="-494.3" font-family="Times,serif" font-size="14.00">base&#45;test</text>
</g>
<!-- base&#45;&gt;baseTest -->
<g id="edge35" class="edge"><title>base&#45;&gt;baseTest</title>
<path fill="none" stroke="#aaaaaa" stroke-dasharray="5,2" d="M83.4651,-427.959C86.2212,-441.05 89.5603,-456.911 92.3427,-470.128"/>
<polygon fill="#aaaaaa" stroke="#aaaaaa" points="94.433,-480.057 87.9694,-471.199 93.403,-475.164 92.3729,-470.271 92.3729,-470.271 92.3729,-470.271 93.403,-475.164 96.7763,-469.344 94.433,-480.057 94.433,-480.057"/>
</g>
<!-- baseRaw -->
<g id="node2" class="node"><title>baseRaw</title>
<ellipse fill="#bbffbb" stroke="black" cx="79" cy="-749" rx="60.623" ry="26.7407"/>
<text text-anchor="middle" x="79" y="-752.8" font-family="Times,serif" font-size="14.00">base&#45;util&#45;sjs</text>
<text text-anchor="middle" x="79" y="-737.8" font-family="Times,serif" font-size="14.00">(Scala &amp; JS)</text>
</g>
<!-- baseUtil&#45;&gt;baseRaw -->
<g id="edge1" class="edge"><title>baseUtil&#45;&gt;baseRaw</title>
<path fill="none" stroke="#cc0000" d="M79,-694.415C79,-703.3 79,-713.126 79,-721.911"/>
<polygon fill="#cc0000" stroke="#cc0000" points="82.5001,-694.178 79,-684.178 75.5001,-694.178 82.5001,-694.178"/>
</g>
<!-- baseDb&#45;&gt;baseUtil -->
<g id="edge2" class="edge"><title>baseDb&#45;&gt;baseUtil</title>
<path fill="none" stroke="#cc0000" d="M93.4379,-613.811C90.2297,-625.185 86.5878,-638.098 83.7644,-648.108"/>
<polygon fill="#cc0000" stroke="#cc0000" points="96.8802,-614.499 96.2263,-603.925 90.1431,-612.599 96.8802,-614.499"/>
</g>
<!-- baseTest&#45;&gt;baseUtil -->
<g id="edge3" class="edge"><title>baseTest&#45;&gt;baseUtil</title>
<path fill="none" stroke="#cc0000" d="M72.9231,-521.772C69.5976,-525.613 66.4855,-529.743 64,-534 56.0579,-547.602 56.2451,-552.41 54,-568 50.7058,-590.875 48.2028,-597.628 54,-620 56.6005,-630.036 61.9774,-640.216 67.0806,-648.349"/>
<polygon fill="#cc0000" stroke="#cc0000" points="75.6084,-524.026 79.9165,-514.347 70.5126,-519.227 75.6084,-524.026"/>
</g>
<!-- baseTest&#45;&gt;baseDb -->
<g id="edge4" class="edge"><title>baseTest&#45;&gt;baseDb</title>
<path fill="none" stroke="#cc0000" stroke-dasharray="5,2" d="M74.5387,-522.411C68.8607,-530.843 65.3505,-540.6 69,-550 71.9202,-557.522 77.2941,-564.414 82.8151,-570.056"/>
<polygon fill="#cc0000" stroke="#cc0000" points="77.3388,-524.512 80.7545,-514.483 71.8301,-520.193 77.3388,-524.512"/>
<text text-anchor="middle" x="93.5" y="-538.3" font-family="Times,serif" font-size="14.00">provided</text>
</g>
<!-- taskmanDb -->
<g id="node6" class="node"><title>taskmanDb</title>
<ellipse fill="#aaaaff" stroke="black" cx="468" cy="-498" rx="94.7833" ry="18"/>
<text text-anchor="middle" x="468" y="-494.3" font-family="Times,serif" font-size="14.00">taskman&#45;server&#45;schema</text>
</g>
<!-- taskmanDb&#45;&gt;baseDb -->
<g id="edge5" class="edge"><title>taskmanDb&#45;&gt;baseDb</title>
<path fill="none" stroke="#cc0000" d="M400.84,-514.713C387.634,-517.797 373.882,-521.004 361,-524 276.575,-543.638 255.339,-547.994 171,-568 158.953,-570.858 145.755,-574.047 134.098,-576.885"/>
<polygon fill="#cc0000" stroke="#cc0000" points="401.867,-518.067 410.809,-512.384 400.275,-511.251 401.867,-518.067"/>
</g>
<!-- taskmanServerImpl -->
<g id="node7" class="node"><title>taskmanServerImpl</title>
<ellipse fill="#aaaaff" stroke="black" cx="563" cy="-401" rx="84.485" ry="18"/>
<text text-anchor="middle" x="563" y="-397.3" font-family="Times,serif" font-size="14.00">taskman&#45;server&#45;impl</text>
</g>
<!-- taskmanServerImpl&#45;&gt;taskmanDb -->
<g id="edge16" class="edge"><title>taskmanServerImpl&#45;&gt;taskmanDb</title>
<path fill="none" stroke="#cc0000" d="M538.675,-426.325C521.812,-443.188 499.786,-465.214 484.837,-480.163"/>
<polygon fill="#cc0000" stroke="#cc0000" points="541.42,-428.53 546.016,-418.984 536.47,-423.58 541.42,-428.53"/>
</g>
<!-- taskmanServerLogic -->
<g id="node8" class="node"><title>taskmanServerLogic</title>
<ellipse fill="#aaaaff" stroke="black" cx="666" cy="-498" rx="85.2851" ry="18"/>
<text text-anchor="middle" x="666" y="-494.3" font-family="Times,serif" font-size="14.00">taskman&#45;server&#45;logic</text>
</g>
<!-- taskmanServerImpl&#45;&gt;taskmanServerLogic -->
<g id="edge14" class="edge"><title>taskmanServerImpl&#45;&gt;taskmanServerLogic</title>
<path fill="none" stroke="#cc0000" d="M588.881,-425.87C607.226,-442.791 631.391,-465.079 647.745,-480.163"/>
<polygon fill="#cc0000" stroke="#cc0000" points="591.138,-423.191 581.414,-418.984 586.392,-428.337 591.138,-423.191"/>
</g>
<!-- taskmanApi -->
<g id="node10" class="node"><title>taskmanApi</title>
<ellipse fill="#cccccc" stroke="black" cx="290" cy="-309" rx="58.8803" ry="26.7407"/>
<text text-anchor="middle" x="290" y="-312.8" font-family="Times,serif" font-size="14.00">[aggregate]</text>
<text text-anchor="middle" x="290" y="-297.8" font-family="Times,serif" font-size="14.00">taskman&#45;api</text>
</g>
<!-- taskmanServerImpl&#45;&gt;taskmanApi -->
<g id="edge15" class="edge"><title>taskmanServerImpl&#45;&gt;taskmanApi</title>
<path fill="none" stroke="#cc0000" d="M506.952,-382.971C466.29,-370.44 410.049,-352.742 361,-336 352.428,-333.074 343.319,-329.837 334.585,-326.668"/>
<polygon fill="#cc0000" stroke="#cc0000" points="506.092,-386.368 516.679,-385.962 508.149,-379.677 506.092,-386.368"/>
</g>
<!-- taskmanApiLogic -->
<g id="node12" class="node"><title>taskmanApiLogic</title>
<ellipse fill="#cceeff" stroke="black" cx="274" cy="-586" rx="74.9875" ry="18"/>
<text text-anchor="middle" x="274" y="-582.3" font-family="Times,serif" font-size="14.00">taskman&#45;api&#45;logic</text>
</g>
<!-- taskmanServerLogic&#45;&gt;taskmanApiLogic -->
<g id="edge13" class="edge"><title>taskmanServerLogic&#45;&gt;taskmanApiLogic</title>
<path fill="none" stroke="#cc0000" d="M606.595,-515.167C594.828,-518.218 582.546,-521.297 571,-524 487.842,-543.466 390.791,-562.761 330.862,-574.281"/>
<polygon fill="#cc0000" stroke="#cc0000" points="607.542,-518.537 616.331,-512.619 605.77,-511.765 607.542,-518.537"/>
</g>
<!-- taskmanServer -->
<g id="node9" class="node"><title>taskmanServer</title>
<ellipse fill="#cccccc" stroke="black" cx="563" cy="-309" rx="70.922" ry="26.7407"/>
<text text-anchor="middle" x="563" y="-312.8" font-family="Times,serif" font-size="14.00">[aggregate]</text>
<text text-anchor="middle" x="563" y="-297.8" font-family="Times,serif" font-size="14.00">taskman&#45;server</text>
</g>
<!-- taskmanServer&#45;&gt;taskmanDb -->
<g id="edge28" class="edge"><title>taskmanServer&#45;&gt;taskmanDb</title>
<path fill="none" stroke="#aaaaaa" stroke-dasharray="5,2" d="M513.423,-328.068C496.625,-336.821 479.68,-349.173 470,-366 451.595,-397.993 455.719,-442.062 461.206,-470.043"/>
<polygon fill="#aaaaaa" stroke="#aaaaaa" points="463.332,-479.92 456.829,-471.091 462.28,-475.032 461.228,-470.144 461.228,-470.144 461.228,-470.144 462.28,-475.032 465.627,-469.197 463.332,-479.92 463.332,-479.92"/>
</g>
<!-- taskmanServer&#45;&gt;taskmanServerImpl -->
<g id="edge17" class="edge"><title>taskmanServer&#45;&gt;taskmanServerImpl</title>
<path fill="none" stroke="#cc0000" d="M556.363,-346.318C556.031,-358.937 556.431,-372.504 557.563,-382.842"/>
<polygon fill="#cc0000" stroke="#cc0000" points="559.872,-346.175 556.814,-336.032 552.879,-345.869 559.872,-346.175"/>
</g>
<!-- taskmanServer&#45;&gt;taskmanServerImpl -->
<g id="edge27" class="edge"><title>taskmanServer&#45;&gt;taskmanServerImpl</title>
<path fill="none" stroke="#aaaaaa" stroke-dasharray="5,2" d="M569.186,-336.032C569.913,-347.558 569.937,-361.118 569.258,-372.779"/>
<polygon fill="#aaaaaa" stroke="#aaaaaa" points="568.437,-382.842 564.765,-372.509 568.844,-377.858 569.25,-372.875 569.25,-372.875 569.25,-372.875 568.844,-377.858 573.735,-373.241 568.437,-382.842 568.437,-382.842"/>
</g>
<!-- taskmanServer&#45;&gt;taskmanServerLogic -->
<g id="edge26" class="edge"><title>taskmanServer&#45;&gt;taskmanServerLogic</title>
<path fill="none" stroke="#aaaaaa" stroke-dasharray="5,2" d="M612.033,-328.392C628.767,-337.183 645.812,-349.476 656,-366 675.425,-397.506 674.242,-441.705 670.772,-469.846"/>
<polygon fill="#aaaaaa" stroke="#aaaaaa" points="669.368,-479.786 666.311,-469.255 670.067,-474.835 670.767,-469.884 670.767,-469.884 670.767,-469.884 670.067,-474.835 675.222,-470.514 669.368,-479.786 669.368,-479.786"/>
</g>
<!-- taskmanApiImpl -->
<g id="node11" class="node"><title>taskmanApiImpl</title>
<ellipse fill="#cceeff" stroke="black" cx="256" cy="-401" rx="73.387" ry="18"/>
<text text-anchor="middle" x="256" y="-397.3" font-family="Times,serif" font-size="14.00">taskman&#45;api&#45;impl</text>
</g>
<!-- taskmanApi&#45;&gt;taskmanApiImpl -->
<g id="edge12" class="edge"><title>taskmanApi&#45;&gt;taskmanApiImpl</title>
<path fill="none" stroke="#cc0000" d="M270.451,-344.334C265.061,-357.464 259.993,-371.879 257.07,-382.75"/>
<polygon fill="#cc0000" stroke="#cc0000" points="273.698,-345.641 274.406,-335.07 267.26,-342.893 273.698,-345.641"/>
</g>
<!-- taskmanApi&#45;&gt;taskmanApiImpl -->
<g id="edge25" class="edge"><title>taskmanApi&#45;&gt;taskmanApiImpl</title>
<path fill="none" stroke="#aaaaaa" stroke-dasharray="5,2" d="M286.352,-336.032C282.625,-347.875 277.345,-361.863 272.123,-373.734"/>
<polygon fill="#aaaaaa" stroke="#aaaaaa" points="267.786,-383.115 267.898,-372.149 269.884,-378.576 271.983,-374.038 271.983,-374.038 271.983,-374.038 269.884,-378.576 276.067,-375.927 267.786,-383.115 267.786,-383.115"/>
</g>
<!-- taskmanApi&#45;&gt;taskmanApiLogic -->
<g id="edge24" class="edge"><title>taskmanApi&#45;&gt;taskmanApiLogic</title>
<path fill="none" stroke="#aaaaaa" stroke-dasharray="5,2" d="M316.292,-333.115C324.928,-342.372 333.469,-353.75 338,-366 348.794,-395.179 342.453,-405.209 338,-436 332.162,-476.362 328.711,-486.799 312,-524 306.488,-536.271 298.879,-549.025 291.917,-559.679"/>
<polygon fill="#aaaaaa" stroke="#aaaaaa" points="286.281,-568.078 288.116,-557.267 289.067,-563.926 291.853,-559.774 291.853,-559.774 291.853,-559.774 289.067,-563.926 295.59,-562.282 286.281,-568.078 286.281,-568.078"/>
</g>
<!-- taskmanApiImpl&#45;&gt;baseDb -->
<g id="edge8" class="edge"><title>taskmanApiImpl&#45;&gt;baseDb</title>
<path fill="none" stroke="#cc0000" d="M234.876,-426.939C202.545,-465.112 141.691,-536.959 114.602,-568.94"/>
<polygon fill="#cc0000" stroke="#cc0000" points="237.903,-428.781 241.696,-418.888 232.562,-424.257 237.903,-428.781"/>
</g>
<!-- taskmanApiImpl&#45;&gt;baseTest -->
<g id="edge11" class="edge"><title>taskmanApiImpl&#45;&gt;baseTest</title>
<path fill="none" stroke="#111111" stroke-dasharray="5,2" d="M201.36,-418.42C174.707,-427.108 146.048,-437.671 135,-446 122.946,-455.087 113.136,-469.197 106.653,-480.274"/>
<polygon fill="#111111" stroke="#111111" points="202.6,-421.698 211.053,-415.311 200.462,-415.032 202.6,-421.698"/>
<text text-anchor="middle" x="144.5" y="-450.3" font-family="Times,serif" font-size="14.00">test</text>
</g>
<!-- taskmanApiImpl&#45;&gt;taskmanDb -->
<g id="edge10" class="edge"><title>taskmanApiImpl&#45;&gt;taskmanDb</title>
<path fill="none" stroke="#111111" stroke-dasharray="5,2" d="M299.197,-421.357C338.603,-439.016 396.12,-464.79 432.8,-481.226"/>
<polygon fill="#111111" stroke="#111111" points="300.149,-417.948 289.592,-417.053 297.286,-424.336 300.149,-417.948"/>
<text text-anchor="middle" x="397.5" y="-450.3" font-family="Times,serif" font-size="14.00">test</text>
</g>
<!-- taskmanApiImpl&#45;&gt;taskmanApiLogic -->
<g id="edge7" class="edge"><title>taskmanApiImpl&#45;&gt;taskmanApiLogic</title>
<path fill="none" stroke="#cc0000" d="M255.803,-429.156C255.933,-453.952 256.91,-491.573 261,-524 262.883,-538.933 266.554,-555.633 269.516,-567.779"/>
<polygon fill="#cc0000" stroke="#cc0000" points="259.303,-429.045 255.793,-419.049 252.303,-429.052 259.303,-429.045"/>
</g>
<!-- taskmanApiImpl&#45;&gt;taskmanApiLogic -->
<g id="edge9" class="edge"><title>taskmanApiImpl&#45;&gt;taskmanApiLogic</title>
<path fill="none" stroke="#111111" stroke-dasharray="5,2" d="M259.933,-429.274C260.67,-434.804 261.397,-440.584 262,-446 266.875,-489.813 270.884,-541.584 272.794,-567.854"/>
<polygon fill="#111111" stroke="#111111" points="263.365,-428.539 258.533,-419.11 256.43,-429.494 263.365,-428.539"/>
<text text-anchor="middle" x="289" y="-494.3" font-family="Times,serif" font-size="14.00">test&#45;lib</text>
</g>
<!-- taskmanApiLogic&#45;&gt;baseUtil -->
<g id="edge6" class="edge"><title>taskmanApiLogic&#45;&gt;baseUtil</title>
<path fill="none" stroke="#cc0000" d="M227.74,-605.504C190.678,-620.329 139.816,-640.674 108.202,-653.319"/>
<polygon fill="#cc0000" stroke="#cc0000" points="229.337,-608.635 237.322,-601.671 226.737,-602.136 229.337,-608.635"/>
</g>
<!-- webapp -->
<g id="node13" class="node"><title>webapp</title>
<ellipse fill="#ffff80" stroke="black" cx="847" cy="-125" rx="55.3091" ry="26.7407"/>
<text text-anchor="middle" x="847" y="-128.8" font-family="Times,serif" font-size="14.00">[aggregate]</text>
<text text-anchor="middle" x="847" y="-113.8" font-family="Times,serif" font-size="14.00">webapp</text>
</g>
<!-- webappBack -->
<g id="node14" class="node"><title>webappBack</title>
<ellipse fill="#99ccee" stroke="black" cx="865" cy="-217" rx="62.2891" ry="18"/>
<text text-anchor="middle" x="865" y="-213.3" font-family="Times,serif" font-size="14.00">webapp&#45;server</text>
</g>
<!-- webapp&#45;&gt;webappBack -->
<g id="edge32" class="edge"><title>webapp&#45;&gt;webappBack</title>
<path fill="none" stroke="#aaaaaa" stroke-dasharray="5,2" d="M852.206,-152.032C854.512,-163.558 857.224,-177.118 859.556,-188.779"/>
<polygon fill="#aaaaaa" stroke="#aaaaaa" points="861.568,-198.842 855.194,-189.918 860.588,-193.939 859.607,-189.036 859.607,-189.036 859.607,-189.036 860.588,-193.939 864.02,-188.153 861.568,-198.842 861.568,-198.842"/>
</g>
<!-- webappFront -->
<g id="node15" class="node"><title>webappFront</title>
<ellipse fill="#99ccee" stroke="black" cx="841" cy="-309" rx="65.5227" ry="26.7407"/>
<text text-anchor="middle" x="841" y="-312.8" font-family="Times,serif" font-size="14.00">webapp&#45;client</text>
<text text-anchor="middle" x="841" y="-297.8" font-family="Times,serif" font-size="14.00">(JS)</text>
</g>
<!-- webapp&#45;&gt;webappFront -->
<g id="edge31" class="edge"><title>webapp&#45;&gt;webappFront</title>
<path fill="none" stroke="#aaaaaa" stroke-dasharray="5,2" d="M821.315,-148.947C810.695,-160.144 799.575,-174.528 794,-190 785.865,-212.579 786.525,-221.194 794,-244 797.686,-255.246 804.186,-266.147 811.197,-275.67"/>
<polygon fill="#aaaaaa" stroke="#aaaaaa" points="817.433,-283.657 807.732,-278.544 814.356,-279.716 811.279,-275.775 811.279,-275.775 811.279,-275.775 814.356,-279.716 814.826,-273.006 817.433,-283.657 817.433,-283.657"/>
</g>
<!-- webappBack&#45;&gt;baseDb -->
<g id="edge18" class="edge"><title>webappBack:e&#45;&gt;baseDb</title>
<path fill="none" stroke="#cc0000" d="M939.026,-217.524C1023.52,-226.758 985.071,-355.984 936,-436 890.902,-509.537 846.084,-500.793 763,-524 508.89,-594.977 431.624,-526.952 171,-568 158.523,-569.965 144.995,-573.026 133.188,-576.012"/>
<polygon fill="#cc0000" stroke="#cc0000" points="939.169,-214.026 929,-217 938.804,-221.017 939.169,-214.026"/>
</g>
<!-- webappBack&#45;&gt;taskmanApi -->
<g id="edge19" class="edge"><title>webappBack&#45;&gt;taskmanApi</title>
<path fill="none" stroke="#cc0000" d="M823.162,-236.1C815.242,-239.061 806.946,-241.857 799,-244 742.134,-259.334 726.648,-258.587 668,-264 600.03,-270.273 427.309,-257.802 361,-274 348.918,-276.951 336.455,-282.1 325.407,-287.512"/>
<polygon fill="#cc0000" stroke="#cc0000" points="824.535,-239.321 832.589,-232.437 822,-232.796 824.535,-239.321"/>
</g>
<!-- webappBack&#45;&gt;webappFront -->
<g id="edge22" class="edge"><title>webappBack&#45;&gt;webappFront</title>
<path fill="none" stroke="#cc0000" stroke-dasharray="5,2" d="M857.777,-245.086C854.64,-256.848 850.983,-270.563 847.885,-282.179"/>
<polygon fill="#cc0000" stroke="#cc0000" points="861.178,-245.917 860.373,-235.353 854.414,-244.113 861.178,-245.917"/>
</g>
<!-- webappShared -->
<g id="node16" class="node"><title>webappShared</title>
<ellipse fill="#99ccee" stroke="black" cx="858" cy="-401" rx="69.0935" ry="26.7407"/>
<text text-anchor="middle" x="858" y="-404.8" font-family="Times,serif" font-size="14.00">webapp&#45;shared</text>
<text text-anchor="middle" x="858" y="-389.8" font-family="Times,serif" font-size="14.00">(Scala &amp; JS)</text>
</g>
<!-- webappBack&#45;&gt;webappShared -->
<g id="edge21" class="edge"><title>webappBack&#45;&gt;webappShared</title>
<path fill="none" stroke="#cc0000" d="M892.691,-241.261C901.574,-250.439 910.318,-261.727 915,-274 924.821,-299.746 924.805,-310.248 915,-336 909.176,-351.296 897.833,-365.263 886.789,-376.22"/>
<polygon fill="#cc0000" stroke="#cc0000" points="894.897,-238.525 885.283,-234.073 890.022,-243.549 894.897,-238.525"/>
</g>
<!-- webappFront&#45;&gt;webappShared -->
<g id="edge20" class="edge"><title>webappFront&#45;&gt;webappShared</title>
<path fill="none" stroke="#cc0000" d="M847.786,-345.927C849.56,-355.32 851.439,-365.263 853.094,-374.027"/>
<polygon fill="#cc0000" stroke="#cc0000" points="851.212,-345.208 845.917,-336.032 844.334,-346.508 851.212,-345.208"/>
</g>
<!-- webappShared&#45;&gt;baseRaw -->
<g id="edge23" class="edge"><title>webappShared&#45;&gt;baseRaw</title>
<path fill="none" stroke="#cc0000" d="M896.687,-432.241C913.748,-449.133 930,-471.83 930,-497 930,-497 930,-497 930,-667 930,-746.493 333.938,-749.663 139.52,-748.582"/>
<polygon fill="#cc0000" stroke="#cc0000" points="899.055,-429.663 889.371,-425.367 894.262,-434.765 899.055,-429.663"/>
</g>
<!-- taskman -->
<g id="node17" class="node"><title>taskman</title>
<ellipse fill="#ffff80" stroke="black" cx="563" cy="-217" rx="55.3091" ry="26.7407"/>
<text text-anchor="middle" x="563" y="-220.8" font-family="Times,serif" font-size="14.00">[aggregate]</text>
<text text-anchor="middle" x="563" y="-205.8" font-family="Times,serif" font-size="14.00">taskman</text>
</g>
<!-- taskman&#45;&gt;taskmanServer -->
<g id="edge30" class="edge"><title>taskman&#45;&gt;taskmanServer</title>
<path fill="none" stroke="#aaaaaa" stroke-dasharray="5,2" d="M563,-244.032C563,-252.707 563,-262.534 563,-271.836"/>
<polygon fill="#aaaaaa" stroke="#aaaaaa" points="563,-282.027 558.5,-272.027 563,-277.027 563,-272.027 563,-272.027 563,-272.027 563,-277.027 567.5,-272.027 563,-282.027 563,-282.027"/>
</g>
<!-- taskman&#45;&gt;taskmanApi -->
<g id="edge29" class="edge"><title>taskman&#45;&gt;taskmanApi</title>
<path fill="none" stroke="#aaaaaa" stroke-dasharray="5,2" d="M513.66,-229.1C472.279,-239.018 411.947,-254.909 361,-274 353.089,-276.964 344.859,-280.479 336.926,-284.106"/>
<polygon fill="#aaaaaa" stroke="#aaaaaa" points="327.785,-288.389 334.931,-280.071 332.313,-286.268 336.84,-284.146 336.84,-284.146 336.84,-284.146 332.313,-286.268 338.75,-288.221 327.785,-288.389 327.785,-288.389"/>
</g>
<!-- root -->
<g id="node18" class="node"><title>root</title>
<ellipse fill="#cccccc" stroke="black" cx="847" cy="-27" rx="55.3091" ry="26.7407"/>
<text text-anchor="middle" x="847" y="-30.8" font-family="Times,serif" font-size="14.00">[aggregate]</text>
<text text-anchor="middle" x="847" y="-15.8" font-family="Times,serif" font-size="14.00">root</text>
</g>
<!-- root&#45;&gt;base -->
<g id="edge36" class="edge"><title>root&#45;&gt;base</title>
<path fill="none" stroke="#aaaaaa" stroke-dasharray="5,2" d="M792.131,-29.4543C622.361,-34.6749 117,-55.932 117,-124 117,-124 117,-124 117,-310 117,-329.644 109.081,-349.86 100.379,-366.143"/>
<polygon fill="#aaaaaa" stroke="#aaaaaa" points="95.2195,-375.241 96.238,-364.323 97.686,-370.892 100.152,-366.543 100.152,-366.543 100.152,-366.543 97.686,-370.892 104.067,-368.762 95.2195,-375.241 95.2195,-375.241"/>
</g>
<!-- root&#45;&gt;webapp -->
<g id="edge37" class="edge"><title>root&#45;&gt;webapp</title>
<path fill="none" stroke="#aaaaaa" stroke-dasharray="5,2" d="M847,-53.979C847,-64.4375 847,-76.6768 847,-87.9714"/>
<polygon fill="#aaaaaa" stroke="#aaaaaa" points="847,-98.0003 842.5,-88.0002 847,-93.0003 847,-88.0003 847,-88.0003 847,-88.0003 847,-93.0003 851.5,-88.0003 847,-98.0003 847,-98.0003"/>
</g>
<!-- root&#45;&gt;taskman -->
<g id="edge38" class="edge"><title>root&#45;&gt;taskman</title>
<path fill="none" stroke="#aaaaaa" stroke-dasharray="5,2" d="M891.797,-42.9494C909.795,-51.4131 928.693,-63.9991 939,-82 954.459,-108.999 959.068,-128.227 939,-152 928.95,-163.905 730.399,-192.904 625.983,-207.423"/>
<polygon fill="#aaaaaa" stroke="#aaaaaa" points="615.876,-208.824 625.163,-202.993 620.828,-208.137 625.781,-207.451 625.781,-207.451 625.781,-207.451 620.828,-208.137 626.399,-211.908 615.876,-208.824 615.876,-208.824"/>
</g>
</g>
</svg>
