<?xml version="1.0" encoding="UTF-8" standalone="no"?>
<!DOCTYPE svg PUBLIC "-//W3C//DTD SVG 1.1//EN"
 "http://www.w3.org/Graphics/SVG/1.1/DTD/svg11.dtd">
<!-- Generated by graphviz version 2.36.0 (20140111.2315)
 -->
<!-- Title: G Pages: 1 -->
<svg width="423pt" height="476pt"
 viewBox="0.00 0.00 423.00 476.00" xmlns="http://www.w3.org/2000/svg" xmlns:xlink="http://www.w3.org/1999/xlink">
<g id="graph0" class="graph" transform="scale(1 1) rotate(0) translate(4 472)">
<title>G</title>
<polygon fill="white" stroke="none" points="-4,4 -4,-472 419,-472 419,4 -4,4"/>
<!-- base -->
<g id="node1" class="node"><title>base</title>
<ellipse fill="#bbffbb" stroke="black" cx="240" cy="-450" rx="27" ry="18"/>
<text text-anchor="middle" x="240" y="-446.3" font-family="Times,serif" font-size="14.00">base</text>
</g>
<!-- baseDb -->
<g id="node2" class="node"><title>baseDb</title>
<ellipse fill="#bbffbb" stroke="black" cx="323" cy="-378" rx="38.1938" ry="18"/>
<text text-anchor="middle" x="323" y="-374.3" font-family="Times,serif" font-size="14.00">base&#45;db</text>
</g>
<!-- baseDb&#45;&gt;base -->
<g id="edge1" class="edge"><title>baseDb&#45;&gt;base</title>
<path fill="none" stroke="black" d="M297.017,-400.913C283.588,-412.239 267.626,-425.701 256.011,-435.497"/>
<polygon fill="black" stroke="black" points="299.602,-403.312 304.99,-394.189 295.089,-397.96 299.602,-403.312"/>
</g>
<!-- taskmanServerImpl -->
<g id="node3" class="node"><title>taskmanServerImpl</title>
<ellipse fill="#aaaaff" stroke="black" cx="197" cy="-162" rx="84.485" ry="18"/>
<text text-anchor="middle" x="197" y="-158.3" font-family="Times,serif" font-size="14.00">taskman&#45;server&#45;impl</text>
</g>
<!-- taskmanServerImpl&#45;&gt;baseDb -->
<g id="edge9" class="edge"><title>taskmanServerImpl&#45;&gt;baseDb</title>
<path fill="none" stroke="black" d="M254.917,-180.794C272.942,-188.917 291.378,-200.326 304,-216 337.893,-258.089 331.634,-327.607 326.386,-359.736"/>
<polygon fill="black" stroke="black" points="256.135,-177.509 245.561,-176.84 253.41,-183.957 256.135,-177.509"/>
</g>
<!-- taskmanServerLogic -->
<g id="node4" class="node"><title>taskmanServerLogic</title>
<ellipse fill="#aaaaff" stroke="black" cx="85" cy="-234" rx="85.2851" ry="18"/>
<text text-anchor="middle" x="85" y="-230.3" font-family="Times,serif" font-size="14.00">taskman&#45;server&#45;logic</text>
</g>
<!-- taskmanServerImpl&#45;&gt;taskmanServerLogic -->
<g id="edge7" class="edge"><title>taskmanServerImpl&#45;&gt;taskmanServerLogic</title>
<path fill="none" stroke="black" d="M162.218,-184.739C145.758,-195.027 126.426,-207.109 111.224,-216.61"/>
<polygon fill="black" stroke="black" points="164.398,-187.503 171.023,-179.235 160.688,-181.567 164.398,-187.503"/>
</g>
<!-- taskmanApi -->
<g id="node8" class="node"><title>taskmanApi</title>
<ellipse fill="#ddf8ff" stroke="black" cx="242" cy="-234" rx="53.8905" ry="18"/>
<text text-anchor="middle" x="242" y="-230.3" font-family="Times,serif" font-size="14.00">taskman&#45;api</text>
</g>
<!-- taskmanServerImpl&#45;&gt;taskmanApi -->
<g id="edge8" class="edge"><title>taskmanServerImpl&#45;&gt;taskmanApi</title>
<path fill="none" stroke="black" d="M213.345,-188.425C219.292,-197.676 225.861,-207.894 231.207,-216.211"/>
<polygon fill="black" stroke="black" points="216.245,-186.464 207.893,-179.945 210.357,-190.25 216.245,-186.464"/>
</g>
<!-- taskmanApiLogic -->
<g id="node7" class="node"><title>taskmanApiLogic</title>
<ellipse fill="#ddf8ff" stroke="black" cx="157" cy="-378" rx="74.9875" ry="18"/>
<text text-anchor="middle" x="157" y="-374.3" font-family="Times,serif" font-size="14.00">taskman&#45;api&#45;logic</text>
</g>
<!-- taskmanServerLogic&#45;&gt;taskmanApiLogic -->
<g id="edge6" class="edge"><title>taskmanServerLogic&#45;&gt;taskmanApiLogic</title>
<path fill="none" stroke="black" d="M95.8213,-261.281C103.445,-279.214 114.184,-303.365 125,-324 131.487,-336.376 139.638,-349.85 146.089,-360.115"/>
<polygon fill="black" stroke="black" points="99.0293,-259.881 91.926,-252.02 92.5768,-262.595 99.0293,-259.881"/>
</g>
<!-- taskmanServer -->
<g id="node5" class="node"><title>taskmanServer</title>
<ellipse fill="#aaaaff" stroke="black" cx="197" cy="-90" rx="64.9885" ry="18"/>
<text text-anchor="middle" x="197" y="-86.3" font-family="Times,serif" font-size="14.00">taskman&#45;server</text>
</g>
<!-- taskmanServer&#45;&gt;taskmanServerImpl -->
<g id="edge10" class="edge"><title>taskmanServer&#45;&gt;taskmanServerImpl</title>
<path fill="none" stroke="black" d="M190.409,-117.995C190.06,-126.638 190.285,-135.97 191.087,-143.725"/>
<polygon fill="black" stroke="black" points="193.906,-118.168 191.122,-107.945 186.923,-117.673 193.906,-118.168"/>
</g>
<!-- taskmanServer&#45;&gt;taskmanServerImpl -->
<g id="edge16" class="edge"><title>taskmanServer&#45;&gt;taskmanServerImpl</title>
<path fill="none" stroke="#999999" stroke-dasharray="5,2" d="M202.878,-107.945C203.696,-115.654 203.939,-124.973 203.605,-133.636"/>
<polygon fill="#999999" stroke="#999999" points="202.913,-143.725 199.108,-133.44 203.255,-138.736 203.598,-133.748 203.598,-133.748 203.598,-133.748 203.255,-138.736 208.087,-134.056 202.913,-143.725 202.913,-143.725"/>
</g>
<!-- taskmanServer&#45;&gt;taskmanServerLogic -->
<g id="edge15" class="edge"><title>taskmanServer&#45;&gt;taskmanServerLogic</title>
<path fill="none" stroke="#999999" stroke-dasharray="5,2" d="M157.765,-104.531C138.779,-113.018 117.276,-125.851 104,-144 90.9168,-161.885 86.4663,-186.887 85.1164,-205.839"/>
<polygon fill="#999999" stroke="#999999" points="84.644,-215.93 80.6166,-205.731 84.8779,-210.936 85.1117,-205.941 85.1117,-205.941 85.1117,-205.941 84.8779,-210.936 89.6068,-206.152 84.644,-215.93 84.644,-215.93"/>
</g>
<!-- taskmanApiImpl -->
<g id="node6" class="node"><title>taskmanApiImpl</title>
<ellipse fill="#ddf8ff" stroke="black" cx="240" cy="-306" rx="73.387" ry="18"/>
<text text-anchor="middle" x="240" y="-302.3" font-family="Times,serif" font-size="14.00">taskman&#45;api&#45;impl</text>
</g>
<!-- taskmanApiImpl&#45;&gt;baseDb -->
<g id="edge4" class="edge"><title>taskmanApiImpl&#45;&gt;baseDb</title>
<path fill="none" stroke="black" d="M267.494,-330.188C279.898,-340.649 294.193,-352.705 305.169,-361.962"/>
<polygon fill="black" stroke="black" points="269.571,-327.361 259.67,-323.589 265.058,-332.712 269.571,-327.361"/>
</g>
<!-- taskmanApiImpl&#45;&gt;taskmanApiLogic -->
<g id="edge3" class="edge"><title>taskmanApiImpl&#45;&gt;taskmanApiLogic</title>
<path fill="none" stroke="black" d="M212.506,-330.188C200.732,-340.117 187.255,-351.484 176.529,-360.53"/>
<polygon fill="black" stroke="black" points="214.942,-332.712 220.33,-323.589 210.429,-327.361 214.942,-332.712"/>
</g>
<!-- taskmanApiLogic&#45;&gt;base -->
<g id="edge2" class="edge"><title>taskmanApiLogic&#45;&gt;base</title>
<path fill="none" stroke="black" d="M184.464,-402.163C197.505,-413.161 212.641,-425.926 223.815,-435.35"/>
<polygon fill="black" stroke="black" points="186.571,-399.361 176.67,-395.589 182.058,-404.712 186.571,-399.361"/>
</g>
<!-- taskmanApi&#45;&gt;taskmanApiImpl -->
<g id="edge5" class="edge"><title>taskmanApi&#45;&gt;taskmanApiImpl</title>
<path fill="none" stroke="black" d="M234.638,-261.995C234.041,-270.638 234.001,-279.97 234.581,-287.725"/>
<polygon fill="black" stroke="black" points="238.131,-262.242 235.638,-251.945 231.165,-261.55 238.131,-262.242"/>
</g>
<!-- taskmanApi&#45;&gt;taskmanApiImpl -->
<g id="edge14" class="edge"><title>taskmanApi&#45;&gt;taskmanApiImpl</title>
<path fill="none" stroke="#999999" stroke-dasharray="5,2" d="M247.394,-251.945C247.992,-259.654 247.968,-268.973 247.387,-277.636"/>
<polygon fill="#999999" stroke="#999999" points="246.406,-287.725 242.895,-277.336 246.89,-282.748 247.374,-277.772 247.374,-277.772 247.374,-277.772 246.89,-282.748 251.853,-278.207 246.406,-287.725 246.406,-287.725"/>
</g>
<!-- taskmanApi&#45;&gt;taskmanApiLogic -->
<g id="edge13" class="edge"><title>taskmanApi&#45;&gt;taskmanApiLogic</title>
<path fill="none" stroke="#999999" stroke-dasharray="5,2" d="M206.784,-247.65C188.788,-256.107 168.515,-269.184 158,-288 147.554,-306.692 148.124,-331.226 150.845,-349.8"/>
<polygon fill="#999999" stroke="#999999" points="152.575,-359.695 146.42,-350.619 151.713,-354.769 150.852,-349.844 150.852,-349.844 150.852,-349.844 151.713,-354.769 155.285,-349.069 152.575,-359.695 152.575,-359.695"/>
</g>
<!-- taskman -->
<g id="node9" class="node"><title>taskman</title>
<ellipse fill="#ffbbbb" stroke="black" cx="253" cy="-18" rx="40.0939" ry="18"/>
<text text-anchor="middle" x="253" y="-14.3" font-family="Times,serif" font-size="14.00">taskman</text>
</g>
<!-- taskman&#45;&gt;taskmanServer -->
<g id="edge18" class="edge"><title>taskman&#45;&gt;taskmanServer</title>
<path fill="none" stroke="#999999" stroke-dasharray="5,2" d="M240.012,-35.2354C233.114,-43.857 224.492,-54.6353 216.781,-64.2733"/>
<polygon fill="#999999" stroke="#999999" points="210.307,-72.3666 213.04,-61.7467 213.43,-68.4622 216.554,-64.5579 216.554,-64.5579 216.554,-64.5579 213.43,-68.4622 220.068,-67.369 210.307,-72.3666 210.307,-72.3666"/>
</g>
<!-- taskman&#45;&gt;taskmanApi -->
<g id="edge17" class="edge"><title>taskman&#45;&gt;taskmanApi</title>
<path fill="none" stroke="#999999" stroke-dasharray="5,2" d="M263.018,-35.4474C279.726,-65.0978 309.602,-129.156 290,-180 285.648,-191.288 277.654,-201.662 269.421,-210.183"/>
<polygon fill="#999999" stroke="#999999" points="262.21,-217.17 266.26,-206.979 265.8,-213.69 269.391,-210.211 269.391,-210.211 269.391,-210.211 265.8,-213.69 272.523,-213.443 262.21,-217.17 262.21,-217.17"/>
</g>
<!-- webapp -->
<g id="node10" class="node"><title>webapp</title>
<ellipse fill="#ffbbbb" stroke="black" cx="376" cy="-162" rx="38.1938" ry="18"/>
<text text-anchor="middle" x="376" y="-158.3" font-family="Times,serif" font-size="14.00">webapp</text>
</g>
<!-- webapp&#45;&gt;baseDb -->
<g id="edge11" class="edge"><title>webapp&#45;&gt;baseDb</title>
<path fill="none" stroke="black" d="M375.82,-190.619C374.837,-223.333 370.718,-279.058 355,-324 350.387,-337.19 342.207,-350.651 335.273,-360.707"/>
<polygon fill="black" stroke="black" points="379.323,-190.531 376.045,-180.456 372.324,-190.376 379.323,-190.531"/>
</g>
<!-- webapp&#45;&gt;taskmanApi -->
<g id="edge12" class="edge"><title>webapp&#45;&gt;taskmanApi</title>
<path fill="none" stroke="black" d="M342.559,-180.469C320.084,-192.21 290.818,-207.498 269.658,-218.552"/>
<polygon fill="black" stroke="black" points="344.179,-183.572 351.422,-175.839 340.938,-177.367 344.179,-183.572"/>
</g>
</g>
</svg>
