<?xml version="1.0" encoding="UTF-8" standalone="no"?>
<!DOCTYPE svg PUBLIC "-//W3C//DTD SVG 1.1//EN"
 "http://www.w3.org/Graphics/SVG/1.1/DTD/svg11.dtd">
<!-- Generated by graphviz version 2.38.0 (20140413.2041)
 -->
<!-- Title: G Pages: 1 -->
<svg width="1592pt" height="827pt"
 viewBox="0.00 0.00 1591.90 826.60" xmlns="http://www.w3.org/2000/svg" xmlns:xlink="http://www.w3.org/1999/xlink">
<g id="graph0" class="graph" transform="scale(1 1) rotate(0) translate(4 822.6)">
<title>G</title>
<polygon fill="white" stroke="none" points="-4,4 -4,-822.6 1587.9,-822.6 1587.9,4 -4,4"/>
<!-- removeS -->
<g id="node1" class="node"><title>removeS</title>
<ellipse fill="none" stroke="black" cx="592.631" cy="-26.8701" rx="112.36" ry="26.7407"/>
<text text-anchor="middle" x="592.631" y="-30.6701" font-family="Times,serif" font-size="14.00">Remove from server:</text>
<text text-anchor="middle" x="592.631" y="-15.6701" font-family="Times,serif" font-size="14.00">UnsafeTypes, ProjectDSL</text>
</g>
<!-- realspa -->
<g id="node2" class="node"><title>realspa</title>
<ellipse fill="none" stroke="black" cx="592.631" cy="-116.61" rx="115.931" ry="26.7407"/>
<text text-anchor="middle" x="592.631" y="-120.41" font-family="Times,serif" font-size="14.00">Replace /wip with</text>
<text text-anchor="middle" x="592.631" y="-105.41" font-family="Times,serif" font-size="14.00">real SPA using real project</text>
</g>
<!-- realspa&#45;&gt;removeS -->
<g id="edge18" class="edge"><title>realspa&#45;&gt;removeS</title>
<path fill="none" stroke="black" d="M592.631,-89.2852C592.631,-81.3185 592.631,-72.4275 592.631,-63.9391"/>
<polygon fill="black" stroke="black" points="596.131,-63.874 592.631,-53.874 589.131,-63.8741 596.131,-63.874"/>
</g>
<!-- localProd -->
<g id="node3" class="node"><title>localProd</title>
<ellipse fill="none" stroke="black" cx="344.631" cy="-116.61" rx="114.28" ry="18"/>
<text text-anchor="middle" x="344.631" y="-112.91" font-family="Times,serif" font-size="14.00">Get a local prod env working</text>
</g>
<!-- testDbCodec -->
<g id="node4" class="node"><title>testDbCodec</title>
<ellipse fill="#ffcccc" stroke="black" cx="848.631" cy="-116.61" rx="121.578" ry="18"/>
<text text-anchor="middle" x="848.631" y="-112.91" font-family="Times,serif" font-size="14.00">Ensure db event codec stability</text>
</g>
<!-- devx -->
<g id="node5" class="node"><title>devx</title>
<ellipse fill="#ffcccc" stroke="black" cx="400.631" cy="-197.48" rx="138.375" ry="18"/>
<text text-anchor="middle" x="400.631" y="-193.78" font-family="Times,serif" font-size="14.00">Get /x working again and document</text>
</g>
<!-- devx&#45;&gt;realspa -->
<g id="edge23" class="edge"><title>devx&#45;&gt;realspa</title>
<path fill="none" stroke="black" d="M440.414,-180.138C465.687,-169.756 498.988,-156.077 527.996,-144.161"/>
<polygon fill="black" stroke="black" points="529.328,-147.398 537.248,-140.361 526.668,-140.923 529.328,-147.398"/>
</g>
<!-- devx&#45;&gt;localProd -->
<g id="edge27" class="edge"><title>devx&#45;&gt;localProd</title>
<path fill="none" stroke="black" d="M388.48,-179.367C380.921,-168.721 371.065,-154.84 362.613,-142.935"/>
<polygon fill="black" stroke="black" points="365.402,-140.818 356.758,-134.69 359.694,-144.87 365.402,-140.818"/>
</g>
<!-- realCU -->
<g id="node6" class="node"><title>realCU</title>
<ellipse fill="#ddffcc" stroke="black" cx="92.631" cy="-310.17" rx="92.7622" ry="26.7407"/>
<text text-anchor="middle" x="92.631" y="-313.97" font-family="Times,serif" font-size="14.00">MakeEvent with</text>
<text text-anchor="middle" x="92.631" y="-298.97" font-family="Times,serif" font-size="14.00">ContentUpdate cmds</text>
</g>
<!-- db -->
<g id="node7" class="node"><title>db</title>
<ellipse fill="#ddffcc" stroke="black" cx="791.631" cy="-197.48" rx="122.678" ry="18"/>
<text text-anchor="middle" x="791.631" y="-193.78" font-family="Times,serif" font-size="14.00">DB table, event load, event add</text>
</g>
<!-- db&#45;&gt;realspa -->
<g id="edge24" class="edge"><title>db&#45;&gt;realspa</title>
<path fill="none" stroke="black" d="M750.88,-180.329C724.51,-169.878 689.563,-156.028 659.219,-144.001"/>
<polygon fill="black" stroke="black" points="660.131,-140.598 649.545,-140.167 657.552,-147.105 660.131,-140.598"/>
</g>
<!-- db&#45;&gt;testDbCodec -->
<g id="edge22" class="edge"><title>db&#45;&gt;testDbCodec</title>
<path fill="none" stroke="black" d="M803.999,-179.367C811.693,-168.721 821.725,-154.84 830.328,-142.935"/>
<polygon fill="black" stroke="black" points="833.266,-144.845 836.287,-134.69 827.593,-140.745 833.266,-144.845"/>
</g>
<!-- newReq -->
<g id="node8" class="node"><title>newReq</title>
<ellipse fill="#ddffcc" stroke="black" cx="319.631" cy="-310.17" rx="115.931" ry="26.7407"/>
<text text-anchor="middle" x="319.631" y="-313.97" font-family="Times,serif" font-size="14.00">Create reqs</text>
<text text-anchor="middle" x="319.631" y="-298.97" font-family="Times,serif" font-size="14.00">(UI, Protocol, MakeEvent)</text>
</g>
<!-- newRCG -->
<g id="node9" class="node"><title>newRCG</title>
<ellipse fill="#ddffcc" stroke="black" cx="569.631" cy="-310.17" rx="115.931" ry="26.7407"/>
<text text-anchor="middle" x="569.631" y="-313.97" font-family="Times,serif" font-size="14.00">Create ReqCodeGroups</text>
<text text-anchor="middle" x="569.631" y="-298.97" font-family="Times,serif" font-size="14.00">(UI, Protocol, MakeEvent)</text>
</g>
<!-- template -->
<g id="node10" class="node"><title>template</title>
<ellipse fill="#ddffcc" stroke="black" cx="791.631" cy="-310.17" rx="88.2844" ry="18"/>
<text text-anchor="middle" x="791.631" y="-306.47" font-family="Times,serif" font-size="14.00">Create template event</text>
</g>
<!-- template&#45;&gt;db -->
<g id="edge21" class="edge"><title>template&#45;&gt;db</title>
<path fill="none" stroke="black" d="M791.631,-291.875C791.631,-274.167 791.631,-246.386 791.631,-225.721"/>
<polygon fill="black" stroke="black" points="795.131,-225.654 791.631,-215.654 788.131,-225.654 795.131,-225.654"/>
</g>
<!-- tesths -->
<g id="node11" class="node"><title>tesths</title>
<ellipse fill="#ddffcc" stroke="black" cx="337.631" cy="-728.6" rx="113.98" ry="18"/>
<text text-anchor="middle" x="337.631" y="-724.9" font-family="Times,serif" font-size="14.00">Ensure hash scheme stability</text>
</g>
<!-- devmd -->
<g id="node12" class="node"><title>devmd</title>
<ellipse fill="#ddffcc" stroke="black" cx="1236.63" cy="-197.48" rx="70.6878" ry="18"/>
<text text-anchor="middle" x="1236.63" y="-193.78" font-family="Times,serif" font-size="14.00">Update DEV.md</text>
</g>
<!-- nowip -->
<g id="node13" class="node"><title>nowip</title>
<ellipse fill="#ddffcc" stroke="black" cx="569.631" cy="-422.86" rx="144.075" ry="18"/>
<text text-anchor="middle" x="569.631" y="-419.16" font-family="Times,serif" font-size="14.00">Use real RemoteFn responses in WIP</text>
</g>
<!-- nowip&#45;&gt;realCU -->
<g id="edge28" class="edge"><title>nowip&#45;&gt;realCU</title>
<path fill="none" stroke="black" d="M438.421,-415.36C365.141,-408.771 273.072,-395.515 194.631,-368.86 174.455,-362.004 153.714,-351.101 136.247,-340.61"/>
<polygon fill="black" stroke="black" points="137.783,-337.445 127.433,-335.185 134.115,-343.407 137.783,-337.445"/>
</g>
<!-- nowip&#45;&gt;newReq -->
<g id="edge29" class="edge"><title>nowip&#45;&gt;newReq</title>
<path fill="none" stroke="black" d="M530.086,-405.466C505.427,-395.151 473.083,-381.454 444.631,-368.86 423.024,-359.296 399.465,-348.516 378.682,-338.885"/>
<polygon fill="black" stroke="black" points="379.89,-335.587 369.346,-334.549 376.942,-341.935 379.89,-335.587"/>
</g>
<!-- nowip&#45;&gt;newRCG -->
<g id="edge30" class="edge"><title>nowip&#45;&gt;newRCG</title>
<path fill="none" stroke="black" d="M569.631,-404.565C569.631,-389.379 569.631,-366.786 569.631,-347.625"/>
<polygon fill="black" stroke="black" points="573.131,-347.402 569.631,-337.402 566.131,-347.402 573.131,-347.402"/>
</g>
<!-- nowip&#45;&gt;template -->
<g id="edge8" class="edge"><title>nowip&#45;&gt;template</title>
<path fill="none" stroke="black" d="M611.944,-405.584C636.464,-395.741 667.714,-382.491 694.631,-368.86 716.112,-357.981 739.322,-344.253 757.651,-332.918"/>
<polygon fill="black" stroke="black" points="759.595,-335.83 766.228,-327.568 755.891,-329.891 759.595,-335.83"/>
</g>
<!-- hash -->
<g id="node14" class="node"><title>hash</title>
<ellipse fill="#ddffcc" stroke="black" cx="442.631" cy="-800.6" rx="40.0939" ry="18"/>
<text text-anchor="middle" x="442.631" y="-796.9" font-family="Times,serif" font-size="14.00">Hashing</text>
</g>
<!-- hash&#45;&gt;tesths -->
<g id="edge25" class="edge"><title>hash&#45;&gt;tesths</title>
<path fill="none" stroke="black" d="M421.129,-785.266C406.853,-775.748 387.813,-763.055 371.52,-752.193"/>
<polygon fill="black" stroke="black" points="373.061,-749.014 362.799,-746.379 369.178,-754.838 373.061,-749.014"/>
</g>
<!-- eventap -->
<g id="node27" class="node"><title>eventap</title>
<ellipse fill="#ddffcc" stroke="black" cx="569.631" cy="-728.6" rx="100.983" ry="18"/>
<text text-anchor="middle" x="569.631" y="-724.9" font-family="Times,serif" font-size="14.00">Event application &amp; tests</text>
</g>
<!-- hash&#45;&gt;eventap -->
<g id="edge26" class="edge"><title>hash&#45;&gt;eventap</title>
<path fill="none" stroke="black" d="M467.118,-786.103C485.201,-776.136 510.175,-762.371 530.946,-750.922"/>
<polygon fill="black" stroke="black" points="532.787,-753.904 539.855,-746.012 529.408,-747.774 532.787,-753.904"/>
</g>
<!-- tp -->
<g id="node15" class="node"><title>tp</title>
<ellipse fill="#ddffcc" stroke="black" cx="979.631" cy="-310.17" rx="81.7856" ry="18"/>
<text text-anchor="middle" x="979.631" y="-306.47" font-family="Times,serif" font-size="14.00">Trim .protocol code</text>
</g>
<!-- nwo -->
<g id="node16" class="node"><title>nwo</title>
<ellipse fill="#ddffcc" stroke="black" cx="1236.63" cy="-310.17" rx="156.955" ry="58.8803"/>
<text text-anchor="middle" x="1236.63" y="-336.47" font-family="Times,serif" font-size="14.00">Refactor new world:</text>
<text text-anchor="middle" x="1236.63" y="-321.47" font-family="Times,serif" font-size="14.00">.event</text>
<text text-anchor="middle" x="1236.63" y="-306.47" font-family="Times,serif" font-size="14.00">.protocol</text>
<text text-anchor="middle" x="1236.63" y="-291.47" font-family="Times,serif" font-size="14.00">ClientData, Changes, ChangeListener</text>
<text text-anchor="middle" x="1236.63" y="-276.47" font-family="Times,serif" font-size="14.00">UpdateProject</text>
</g>
<!-- nwo&#45;&gt;devmd -->
<g id="edge20" class="edge"><title>nwo&#45;&gt;devmd</title>
<path fill="none" stroke="black" d="M1236.63,-251.232C1236.63,-242.415 1236.63,-233.685 1236.63,-225.942"/>
<polygon fill="black" stroke="black" points="1240.13,-225.745 1236.63,-215.745 1233.13,-225.745 1240.13,-225.745"/>
</g>
<!-- remove -->
<g id="node17" class="node"><title>remove</title>
<ellipse fill="#ddffcc" stroke="black" cx="1107.63" cy="-422.86" rx="112.38" ry="18"/>
<text text-anchor="middle" x="1107.63" y="-419.16" font-family="Times,serif" font-size="14.00">Remove Δ, δ, Rev, Partition</text>
</g>
<!-- remove&#45;&gt;tp -->
<g id="edge11" class="edge"><title>remove&#45;&gt;tp</title>
<path fill="none" stroke="black" d="M1088.19,-405.049C1066.45,-386.248 1031.09,-355.671 1006.66,-334.547"/>
<polygon fill="black" stroke="black" points="1008.69,-331.671 998.835,-327.777 1004.11,-336.966 1008.69,-331.671"/>
</g>
<!-- remove&#45;&gt;nwo -->
<g id="edge19" class="edge"><title>remove&#45;&gt;nwo</title>
<path fill="none" stroke="black" d="M1127.22,-405.049C1138.15,-395.675 1152.48,-383.375 1167.16,-370.778"/>
<polygon fill="black" stroke="black" points="1169.55,-373.345 1174.86,-364.177 1164.99,-368.033 1169.55,-373.345"/>
</g>
<!-- rpadt -->
<g id="node25" class="node"><title>rpadt</title>
<ellipse fill="#ddffcc" stroke="black" cx="1497.63" cy="-310.17" rx="86.0347" ry="26.7407"/>
<text text-anchor="middle" x="1497.63" y="-313.97" font-family="Times,serif" font-size="14.00">Restore pickleADT</text>
<text text-anchor="middle" x="1497.63" y="-298.97" font-family="Times,serif" font-size="14.00">to Protocol codecs</text>
</g>
<!-- remove&#45;&gt;rpadt -->
<g id="edge12" class="edge"><title>remove&#45;&gt;rpadt</title>
<path fill="none" stroke="black" d="M1204.01,-413.588C1262.83,-406.349 1338.75,-393.031 1402.63,-368.86 1421.21,-361.83 1440.21,-351.126 1456.28,-340.839"/>
<polygon fill="black" stroke="black" points="1458.45,-343.604 1464.89,-335.194 1454.61,-337.751 1458.45,-343.604"/>
</g>
<!-- allve -->
<g id="node18" class="node"><title>allve</title>
<ellipse fill="#ddffcc" stroke="black" cx="853.631" cy="-494.86" rx="180.068" ry="18"/>
<text text-anchor="middle" x="853.631" y="-491.16" font-family="Times,serif" font-size="14.00">All RemoteFns use VerifiedEvents instead of Δ</text>
</g>
<!-- allve&#45;&gt;nowip -->
<g id="edge15" class="edge"><title>allve&#45;&gt;nowip</title>
<path fill="none" stroke="black" d="M789.187,-477.976C745.276,-467.153 687.092,-452.812 641.654,-441.612"/>
<polygon fill="black" stroke="black" points="642.415,-438.195 631.868,-439.2 640.74,-444.992 642.415,-438.195"/>
</g>
<!-- allve&#45;&gt;remove -->
<g id="edge14" class="edge"><title>allve&#45;&gt;remove</title>
<path fill="none" stroke="black" d="M911.904,-477.801C951.278,-466.949 1003.27,-452.622 1043.76,-441.461"/>
<polygon fill="black" stroke="black" points="1044.82,-444.8 1053.53,-438.768 1042.96,-438.051 1044.82,-444.8"/>
</g>
<!-- bc -->
<g id="node19" class="node"><title>bc</title>
<ellipse fill="#ddffcc" stroke="black" cx="929.631" cy="-575.73" rx="173.483" ry="26.7407"/>
<text text-anchor="middle" x="929.631" y="-579.53" font-family="Times,serif" font-size="14.00">Change broadcast from δ</text>
<text text-anchor="middle" x="929.631" y="-564.53" font-family="Times,serif" font-size="14.00">Either each listener scans events or new δ</text>
</g>
<!-- bc&#45;&gt;allve -->
<g id="edge17" class="edge"><title>bc&#45;&gt;allve</title>
<path fill="none" stroke="black" d="M904.746,-548.905C895.817,-539.639 885.787,-529.231 876.992,-520.104"/>
<polygon fill="black" stroke="black" points="879.406,-517.564 869.947,-512.792 874.365,-522.421 879.406,-517.564"/>
</g>
<!-- wip2 -->
<g id="node20" class="node"><title>wip2</title>
<ellipse fill="#ddffcc" stroke="black" cx="569.631" cy="-575.73" rx="168.97" ry="18"/>
<text text-anchor="middle" x="569.631" y="-572.03" font-family="Times,serif" font-size="14.00">WIP to use UpdateProject &amp; VerifiedEvents</text>
</g>
<!-- wip2&#45;&gt;nowip -->
<g id="edge10" class="edge"><title>wip2&#45;&gt;nowip</title>
<path fill="none" stroke="black" d="M569.631,-557.717C569.631,-531.797 569.631,-482.166 569.631,-451.163"/>
<polygon fill="black" stroke="black" points="573.131,-451.043 569.631,-441.043 566.131,-451.043 573.131,-451.043"/>
</g>
<!-- wip2&#45;&gt;allve -->
<g id="edge16" class="edge"><title>wip2&#45;&gt;allve</title>
<path fill="none" stroke="black" d="M627.103,-558.769C673.048,-546.01 737.556,-528.095 785.988,-514.645"/>
<polygon fill="black" stroke="black" points="787.059,-517.98 795.758,-511.932 785.186,-511.235 787.059,-517.98"/>
</g>
<!-- svetcl -->
<g id="node21" class="node"><title>svetcl</title>
<ellipse fill="#ddffcc" stroke="black" cx="877.631" cy="-656.6" rx="116.979" ry="18"/>
<text text-anchor="middle" x="877.631" y="-652.9" font-family="Times,serif" font-size="14.00">Send VerifiedEvents to Client</text>
</g>
<!-- svetcl&#45;&gt;bc -->
<g id="edge13" class="edge"><title>svetcl&#45;&gt;bc</title>
<path fill="none" stroke="black" d="M888.914,-638.486C894.22,-630.439 900.745,-620.543 907.004,-611.049"/>
<polygon fill="black" stroke="black" points="910.053,-612.783 912.636,-602.507 904.209,-608.929 910.053,-612.783"/>
</g>
<!-- svetcl&#45;&gt;wip2 -->
<g id="edge9" class="edge"><title>svetcl&#45;&gt;wip2</title>
<path fill="none" stroke="black" d="M820.06,-640.858C769.493,-627.909 695.716,-609.017 641.33,-595.09"/>
<polygon fill="black" stroke="black" points="641.966,-591.64 631.411,-592.55 640.23,-598.421 641.966,-591.64"/>
</g>
<!-- aveic -->
<g id="node22" class="node"><title>aveic</title>
<ellipse fill="#ddffcc" stroke="black" cx="569.631" cy="-656.6" rx="121.578" ry="18"/>
<text text-anchor="middle" x="569.631" y="-652.9" font-family="Times,serif" font-size="14.00">Apply VerifiedEvents in Client</text>
</g>
<!-- aveic&#45;&gt;wip2 -->
<g id="edge7" class="edge"><title>aveic&#45;&gt;wip2</title>
<path fill="none" stroke="black" d="M569.631,-638.486C569.631,-628.461 569.631,-615.566 569.631,-604.155"/>
<polygon fill="black" stroke="black" points="573.131,-603.81 569.631,-593.81 566.131,-603.81 573.131,-603.81"/>
</g>
<!-- bin -->
<g id="node23" class="node"><title>bin</title>
<ellipse fill="#ddffcc" stroke="black" cx="787.631" cy="-800.6" rx="95.5831" ry="18"/>
<text text-anchor="middle" x="787.631" y="-796.9" font-family="Times,serif" font-size="14.00">Use binary for transport</text>
</g>
<!-- eventbin -->
<g id="node28" class="node"><title>eventbin</title>
<ellipse fill="#ddffcc" stroke="black" cx="787.631" cy="-728.6" rx="98.5829" ry="18"/>
<text text-anchor="middle" x="787.631" y="-724.9" font-family="Times,serif" font-size="14.00">Binary codecs for events</text>
</g>
<!-- bin&#45;&gt;eventbin -->
<g id="edge3" class="edge"><title>bin&#45;&gt;eventbin</title>
<path fill="none" stroke="black" d="M787.631,-782.297C787.631,-774.583 787.631,-765.313 787.631,-756.712"/>
<polygon fill="black" stroke="black" points="791.131,-756.704 787.631,-746.704 784.131,-756.704 791.131,-756.704"/>
</g>
<!-- asfttr -->
<g id="node24" class="node"><title>asfttr</title>
<ellipse fill="#ddffcc" stroke="black" cx="1053.63" cy="-728.6" rx="148.674" ry="18"/>
<text text-anchor="middle" x="1053.63" y="-724.9" font-family="Times,serif" font-size="14.00">Add separate failure type to RemoteFn</text>
</g>
<!-- asfttr&#45;&gt;svetcl -->
<g id="edge6" class="edge"><title>asfttr&#45;&gt;svetcl</title>
<path fill="none" stroke="black" d="M1012.37,-711.188C986.939,-701.075 954.178,-688.045 927.327,-677.366"/>
<polygon fill="black" stroke="black" points="928.313,-673.991 917.727,-673.547 925.726,-680.495 928.313,-673.991"/>
</g>
<!-- event -->
<g id="node26" class="node"><title>event</title>
<ellipse fill="#ddffcc" stroke="black" cx="604.631" cy="-800.6" rx="34.394" ry="18"/>
<text text-anchor="middle" x="604.631" y="-796.9" font-family="Times,serif" font-size="14.00">Events</text>
</g>
<!-- event&#45;&gt;eventap -->
<g id="edge1" class="edge"><title>event&#45;&gt;eventap</title>
<path fill="none" stroke="black" d="M596.336,-783.011C592.256,-774.849 587.241,-764.82 582.664,-755.665"/>
<polygon fill="black" stroke="black" points="585.712,-753.935 578.109,-746.556 579.451,-757.066 585.712,-753.935"/>
</g>
<!-- event&#45;&gt;eventbin -->
<g id="edge2" class="edge"><title>event&#45;&gt;eventbin</title>
<path fill="none" stroke="black" d="M631.633,-789.271C659.442,-778.634 703.423,-761.811 737.607,-748.735"/>
<polygon fill="black" stroke="black" points="738.878,-751.996 746.968,-745.154 736.377,-745.458 738.878,-751.996"/>
</g>
<!-- eventap&#45;&gt;aveic -->
<g id="edge5" class="edge"><title>eventap&#45;&gt;aveic</title>
<path fill="none" stroke="black" d="M569.631,-710.297C569.631,-702.583 569.631,-693.313 569.631,-684.712"/>
<polygon fill="black" stroke="black" points="573.131,-684.704 569.631,-674.704 566.131,-684.704 573.131,-684.704"/>
</g>
<!-- eventbin&#45;&gt;svetcl -->
<g id="edge4" class="edge"><title>eventbin&#45;&gt;svetcl</title>
<path fill="none" stroke="black" d="M808.96,-711.011C820.643,-701.924 835.303,-690.522 848.074,-680.589"/>
<polygon fill="black" stroke="black" points="850.399,-683.215 856.143,-674.313 846.101,-677.689 850.399,-683.215"/>
</g>
</g>
</svg>
