<?xml version="1.0" encoding="UTF-8" standalone="no"?>
<!DOCTYPE svg PUBLIC "-//W3C//DTD SVG 1.1//EN"
 "http://www.w3.org/Graphics/SVG/1.1/DTD/svg11.dtd">
<!-- Generated by graphviz version 2.38.0 (20140413.2041)
 -->
<!-- Title: G Pages: 1 -->
<svg width="974pt" height="494pt"
 viewBox="0.00 0.00 974.16 493.74" xmlns="http://www.w3.org/2000/svg" xmlns:xlink="http://www.w3.org/1999/xlink">
<g id="graph0" class="graph" transform="scale(1 1) rotate(0) translate(4 489.74)">
<title>G</title>
<polygon fill="white" stroke="none" points="-4,4 -4,-489.74 970.164,-489.74 970.164,4 -4,4"/>
<!-- remove -->
<g id="node1" class="node"><title>remove</title>
<ellipse fill="none" stroke="black" cx="642.781" cy="-162" rx="137.576" ry="18"/>
<text text-anchor="middle" x="642.781" y="-158.3" font-family="Times,serif" font-size="14.00">Remove Δ, δ, Rev, Partition</text>
</g>
<!-- tp -->
<g id="node2" class="node"><title>tp</title>
<ellipse fill="none" stroke="black" cx="642.781" cy="-90" rx="102.082" ry="18"/>
<text text-anchor="middle" x="642.781" y="-86.3" font-family="Times,serif" font-size="14.00">Trim .protocol code</text>
</g>
<!-- remove&#45;&gt;tp -->
<g id="edge7" class="edge"><title>remove&#45;&gt;tp</title>
<path fill="none" stroke="black" d="M642.781,-143.697C642.781,-135.983 642.781,-126.712 642.781,-118.112"/>
<polygon fill="black" stroke="black" points="646.281,-118.104 642.781,-108.104 639.281,-118.104 646.281,-118.104"/>
</g>
<!-- rpadt -->
<g id="node4" class="node"><title>rpadt</title>
<ellipse fill="none" stroke="black" cx="642.781" cy="-18" rx="187.367" ry="18"/>
<text text-anchor="middle" x="642.781" y="-14.3" font-family="Times,serif" font-size="14.00">Restore pickleADT to Protocol codecs</text>
</g>
<!-- tp&#45;&gt;rpadt -->
<g id="edge8" class="edge"><title>tp&#45;&gt;rpadt</title>
<path fill="none" stroke="black" d="M642.781,-71.6966C642.781,-63.9827 642.781,-54.7125 642.781,-46.1124"/>
<polygon fill="black" stroke="black" points="646.281,-46.1043 642.781,-36.1043 639.281,-46.1044 646.281,-46.1043"/>
</g>
<!-- template -->
<g id="node3" class="node"><title>template</title>
<ellipse fill="none" stroke="black" cx="215.781" cy="-162" rx="115.88" ry="18"/>
<text text-anchor="middle" x="215.781" y="-158.3" font-family="Times,serif" font-size="14.00">Create template event</text>
</g>
<!-- nowip -->
<g id="node5" class="node"><title>nowip</title>
<ellipse fill="none" stroke="black" cx="215.781" cy="-234" rx="147.574" ry="18"/>
<text text-anchor="middle" x="215.781" y="-230.3" font-family="Times,serif" font-size="14.00">Change WIP into real service</text>
</g>
<!-- nowip&#45;&gt;template -->
<g id="edge4" class="edge"><title>nowip&#45;&gt;template</title>
<path fill="none" stroke="black" d="M215.781,-215.697C215.781,-207.983 215.781,-198.712 215.781,-190.112"/>
<polygon fill="black" stroke="black" points="219.281,-190.104 215.781,-180.104 212.281,-190.104 219.281,-190.104"/>
</g>
<!-- allve -->
<g id="node6" class="node"><title>allve</title>
<ellipse fill="none" stroke="black" cx="642.781" cy="-234" rx="228.56" ry="18"/>
<text text-anchor="middle" x="642.781" y="-230.3" font-family="Times,serif" font-size="14.00">All RemoteFns use VerifiedEvents instead of Δ</text>
</g>
<!-- allve&#45;&gt;remove -->
<g id="edge10" class="edge"><title>allve&#45;&gt;remove</title>
<path fill="none" stroke="black" d="M642.781,-215.697C642.781,-207.983 642.781,-198.712 642.781,-190.112"/>
<polygon fill="black" stroke="black" points="646.281,-190.104 642.781,-180.104 639.281,-190.104 646.281,-190.104"/>
</g>
<!-- wip2 -->
<g id="node7" class="node"><title>wip2</title>
<ellipse fill="#ffcccc" stroke="black" cx="215.781" cy="-314.87" rx="215.562" ry="18"/>
<text text-anchor="middle" x="215.781" y="-311.17" font-family="Times,serif" font-size="14.00">WIP to use UpdateProject &amp; VerifiedEvents</text>
</g>
<!-- wip2&#45;&gt;nowip -->
<g id="edge6" class="edge"><title>wip2&#45;&gt;nowip</title>
<path fill="none" stroke="black" d="M215.781,-296.756C215.781,-286.731 215.781,-273.836 215.781,-262.425"/>
<polygon fill="black" stroke="black" points="219.281,-262.08 215.781,-252.08 212.281,-262.08 219.281,-262.08"/>
</g>
<!-- wip2&#45;&gt;allve -->
<g id="edge11" class="edge"><title>wip2&#45;&gt;allve</title>
<path fill="none" stroke="black" d="M300.142,-298.288C371.29,-285.146 473.086,-266.344 547.227,-252.649"/>
<polygon fill="black" stroke="black" points="548.301,-256.01 557.499,-250.752 547.03,-249.127 548.301,-256.01"/>
</g>
<!-- bc -->
<g id="node8" class="node"><title>bc</title>
<ellipse fill="#ffcccc" stroke="black" cx="676.781" cy="-314.87" rx="227.877" ry="26.7407"/>
<text text-anchor="middle" x="676.781" y="-318.67" font-family="Times,serif" font-size="14.00">Change broadcast from δ</text>
<text text-anchor="middle" x="676.781" y="-303.67" font-family="Times,serif" font-size="14.00">Either each listener scans events or new δ</text>
</g>
<!-- bc&#45;&gt;allve -->
<g id="edge12" class="edge"><title>bc&#45;&gt;allve</title>
<path fill="none" stroke="black" d="M665.459,-287.607C661.849,-279.233 657.853,-269.964 654.234,-261.568"/>
<polygon fill="black" stroke="black" points="657.377,-260.018 650.204,-252.22 650.949,-262.789 657.377,-260.018"/>
</g>
<!-- svetcl -->
<g id="node9" class="node"><title>svetcl</title>
<ellipse fill="#ddffcc" stroke="black" cx="605.781" cy="-395.74" rx="149.473" ry="18"/>
<text text-anchor="middle" x="605.781" y="-392.04" font-family="Times,serif" font-size="14.00">Send VerifiedEvents to Client</text>
</g>
<!-- svetcl&#45;&gt;wip2 -->
<g id="edge5" class="edge"><title>svetcl&#45;&gt;wip2</title>
<path fill="none" stroke="black" d="M532.882,-379.998C468.056,-366.888 373.104,-347.686 304.009,-333.712"/>
<polygon fill="black" stroke="black" points="304.504,-330.242 294.009,-331.69 303.116,-337.103 304.504,-330.242"/>
</g>
<!-- svetcl&#45;&gt;bc -->
<g id="edge9" class="edge"><title>svetcl&#45;&gt;bc</title>
<path fill="none" stroke="black" d="M621.187,-377.626C628.653,-369.333 637.887,-359.075 646.671,-349.318"/>
<polygon fill="black" stroke="black" points="649.486,-351.421 653.576,-341.647 644.284,-346.738 649.486,-351.421"/>
</g>
<!-- aveic -->
<g id="node10" class="node"><title>aveic</title>
<ellipse fill="#ddffcc" stroke="black" cx="215.781" cy="-395.74" rx="152.973" ry="18"/>
<text text-anchor="middle" x="215.781" y="-392.04" font-family="Times,serif" font-size="14.00">Apply VerifiedEvents in Client</text>
</g>
<!-- aveic&#45;&gt;wip2 -->
<g id="edge3" class="edge"><title>aveic&#45;&gt;wip2</title>
<path fill="none" stroke="black" d="M215.781,-377.626C215.781,-367.601 215.781,-354.706 215.781,-343.295"/>
<polygon fill="black" stroke="black" points="219.281,-342.95 215.781,-332.95 212.281,-342.95 219.281,-342.95"/>
</g>
<!-- bin -->
<g id="node11" class="node"><title>bin</title>
<ellipse fill="#ddffcc" stroke="black" cx="438.781" cy="-467.74" rx="124.278" ry="18"/>
<text text-anchor="middle" x="438.781" y="-464.04" font-family="Times,serif" font-size="14.00">Use binary for transport</text>
</g>
<!-- bin&#45;&gt;svetcl -->
<g id="edge1" class="edge"><title>bin&#45;&gt;svetcl</title>
<path fill="none" stroke="black" d="M477.514,-450.505C501.266,-440.549 531.879,-427.717 557.242,-417.086"/>
<polygon fill="black" stroke="black" points="558.81,-420.224 566.679,-413.13 556.104,-413.768 558.81,-420.224"/>
</g>
<!-- asfttr -->
<g id="node12" class="node"><title>asfttr</title>
<ellipse fill="#ddffcc" stroke="black" cx="773.781" cy="-467.74" rx="192.266" ry="18"/>
<text text-anchor="middle" x="773.781" y="-464.04" font-family="Times,serif" font-size="14.00">Add separate failure type to RemoteFn</text>
</g>
<!-- asfttr&#45;&gt;svetcl -->
<g id="edge2" class="edge"><title>asfttr&#45;&gt;svetcl</title>
<path fill="none" stroke="black" d="M733.541,-449.973C709.784,-440.075 679.547,-427.476 654.454,-417.021"/>
<polygon fill="black" stroke="black" points="655.69,-413.744 645.113,-413.129 652.998,-420.206 655.69,-413.744"/>
</g>
</g>
</svg>
