<?xml version="1.0" encoding="UTF-8" standalone="no"?>
<!DOCTYPE svg PUBLIC "-//W3C//DTD SVG 1.1//EN"
 "http://www.w3.org/Graphics/SVG/1.1/DTD/svg11.dtd">
<!-- Generated by graphviz version 2.38.0 (20140413.2041)
 -->
<!-- Title: G Pages: 1 -->
<svg width="2750pt" height="827pt"
 viewBox="0.00 0.00 2749.83 826.60" xmlns="http://www.w3.org/2000/svg" xmlns:xlink="http://www.w3.org/1999/xlink">
<g id="graph0" class="graph" transform="scale(1 1) rotate(0) translate(4 822.6)">
<title>G</title>
<polygon fill="white" stroke="none" points="-4,4 -4,-822.6 2745.83,-822.6 2745.83,4 -4,4"/>
<!-- removeS -->
<g id="node1" class="node"><title>removeS</title>
<ellipse fill="none" stroke="black" cx="534.784" cy="-26.8701" rx="140.929" ry="26.7407"/>
<text text-anchor="middle" x="534.784" y="-30.6701" font-family="Times,serif" font-size="14.00">Remove from server:</text>
<text text-anchor="middle" x="534.784" y="-15.6701" font-family="Times,serif" font-size="14.00">UnsafeTypes, ProjectDSL</text>
</g>
<!-- realspa -->
<g id="node2" class="node"><title>realspa</title>
<ellipse fill="none" stroke="black" cx="534.784" cy="-116.61" rx="147.571" ry="26.7407"/>
<text text-anchor="middle" x="534.784" y="-120.41" font-family="Times,serif" font-size="14.00">Replace /wip with</text>
<text text-anchor="middle" x="534.784" y="-105.41" font-family="Times,serif" font-size="14.00">real SPA using real project</text>
</g>
<!-- realspa&#45;&gt;removeS -->
<g id="edge18" class="edge"><title>realspa&#45;&gt;removeS</title>
<path fill="none" stroke="black" d="M534.784,-89.2852C534.784,-81.3185 534.784,-72.4275 534.784,-63.9391"/>
<polygon fill="black" stroke="black" points="538.284,-63.874 534.784,-53.874 531.284,-63.8741 538.284,-63.874"/>
</g>
<!-- testDbCodec -->
<g id="node3" class="node"><title>testDbCodec</title>
<ellipse fill="none" stroke="black" cx="872.784" cy="-116.61" rx="158.672" ry="18"/>
<text text-anchor="middle" x="872.784" y="-112.91" font-family="Times,serif" font-size="14.00">Ensure db event codec stability</text>
</g>
<!-- localProd -->
<g id="node4" class="node"><title>localProd</title>
<ellipse fill="none" stroke="black" cx="176.784" cy="-116.61" rx="145.674" ry="18"/>
<text text-anchor="middle" x="176.784" y="-112.91" font-family="Times,serif" font-size="14.00">Get a local prod env working</text>
</g>
<!-- newReq -->
<g id="node5" class="node"><title>newReq</title>
<ellipse fill="#ffcc99" stroke="black" cx="1151.78" cy="-310.17" rx="144.914" ry="26.7407"/>
<text text-anchor="middle" x="1151.78" y="-313.97" font-family="Times,serif" font-size="14.00">Create reqs</text>
<text text-anchor="middle" x="1151.78" y="-298.97" font-family="Times,serif" font-size="14.00">(UI, Protocol, MakeEvent)</text>
</g>
<!-- newRCG -->
<g id="node6" class="node"><title>newRCG</title>
<ellipse fill="#ffcc99" stroke="black" cx="1459.78" cy="-310.17" rx="144.914" ry="26.7407"/>
<text text-anchor="middle" x="1459.78" y="-313.97" font-family="Times,serif" font-size="14.00">Create ReqCodeGroups</text>
<text text-anchor="middle" x="1459.78" y="-298.97" font-family="Times,serif" font-size="14.00">(UI, Protocol, MakeEvent)</text>
</g>
<!-- cfgcss -->
<g id="node7" class="node"><title>cfgcss</title>
<ellipse fill="#ffcc99" stroke="black" cx="534.784" cy="-197.48" rx="163.271" ry="18"/>
<text text-anchor="middle" x="534.784" y="-193.78" font-family="Times,serif" font-size="14.00">Replace CSS WIP with ScalaCSS</text>
</g>
<!-- cfgcss&#45;&gt;realspa -->
<g id="edge24" class="edge"><title>cfgcss&#45;&gt;realspa</title>
<path fill="none" stroke="black" d="M534.784,-179.367C534.784,-171.877 534.784,-162.786 534.784,-153.908"/>
<polygon fill="black" stroke="black" points="538.284,-153.693 534.784,-143.693 531.284,-153.693 538.284,-153.693"/>
</g>
<!-- realCU -->
<g id="node8" class="node"><title>realCU</title>
<ellipse fill="#ffcccc" stroke="black" cx="1741.78" cy="-310.17" rx="119.502" ry="26.7407"/>
<text text-anchor="middle" x="1741.78" y="-313.97" font-family="Times,serif" font-size="14.00">MakeEvent with</text>
<text text-anchor="middle" x="1741.78" y="-298.97" font-family="Times,serif" font-size="14.00">ContentUpdate cmds</text>
</g>
<!-- devx -->
<g id="node9" class="node"><title>devx</title>
<ellipse fill="#ffcccc" stroke="black" cx="176.784" cy="-197.48" rx="176.569" ry="18"/>
<text text-anchor="middle" x="176.784" y="-193.78" font-family="Times,serif" font-size="14.00">Get /x working again and document</text>
</g>
<!-- devx&#45;&gt;realspa -->
<g id="edge23" class="edge"><title>devx&#45;&gt;realspa</title>
<path fill="none" stroke="black" d="M247.514,-180.898C300.596,-169.204 374.027,-153.026 433.359,-139.955"/>
<polygon fill="black" stroke="black" points="434.119,-143.372 443.132,-137.802 432.613,-136.535 434.119,-143.372"/>
</g>
<!-- devx&#45;&gt;localProd -->
<g id="edge28" class="edge"><title>devx&#45;&gt;localProd</title>
<path fill="none" stroke="black" d="M176.784,-179.367C176.784,-169.341 176.784,-156.446 176.784,-145.035"/>
<polygon fill="black" stroke="black" points="180.284,-144.69 176.784,-134.69 173.284,-144.69 180.284,-144.69"/>
</g>
<!-- db -->
<g id="node10" class="node"><title>db</title>
<ellipse fill="#ffcccc" stroke="black" cx="872.784" cy="-197.48" rx="157.072" ry="18"/>
<text text-anchor="middle" x="872.784" y="-193.78" font-family="Times,serif" font-size="14.00">DB table, event load, event add</text>
</g>
<!-- db&#45;&gt;realspa -->
<g id="edge25" class="edge"><title>db&#45;&gt;realspa</title>
<path fill="none" stroke="black" d="M806.812,-181.086C757.335,-169.541 688.806,-153.55 632.909,-140.507"/>
<polygon fill="black" stroke="black" points="633.518,-137.055 622.985,-138.191 631.928,-143.872 633.518,-137.055"/>
</g>
<!-- db&#45;&gt;testDbCodec -->
<g id="edge22" class="edge"><title>db&#45;&gt;testDbCodec</title>
<path fill="none" stroke="black" d="M872.784,-179.367C872.784,-169.341 872.784,-156.446 872.784,-145.035"/>
<polygon fill="black" stroke="black" points="876.284,-144.69 872.784,-134.69 869.284,-144.69 876.284,-144.69"/>
</g>
<!-- template -->
<g id="node11" class="node"><title>template</title>
<ellipse fill="#ddffcc" stroke="black" cx="872.784" cy="-310.17" rx="115.88" ry="18"/>
<text text-anchor="middle" x="872.784" y="-306.47" font-family="Times,serif" font-size="14.00">Create template event</text>
</g>
<!-- template&#45;&gt;db -->
<g id="edge21" class="edge"><title>template&#45;&gt;db</title>
<path fill="none" stroke="black" d="M872.784,-291.875C872.784,-274.167 872.784,-246.386 872.784,-225.721"/>
<polygon fill="black" stroke="black" points="876.284,-225.654 872.784,-215.654 869.284,-225.654 876.284,-225.654"/>
</g>
<!-- tesths -->
<g id="node12" class="node"><title>tesths</title>
<ellipse fill="#ddffcc" stroke="black" cx="1163.78" cy="-728.6" rx="148.374" ry="18"/>
<text text-anchor="middle" x="1163.78" y="-724.9" font-family="Times,serif" font-size="14.00">Ensure hash scheme stability</text>
</g>
<!-- devmd -->
<g id="node13" class="node"><title>devmd</title>
<ellipse fill="#ddffcc" stroke="black" cx="2083.78" cy="-197.48" rx="85.2851" ry="18"/>
<text text-anchor="middle" x="2083.78" y="-193.78" font-family="Times,serif" font-size="14.00">Update DEV.md</text>
</g>
<!-- nowip -->
<g id="node14" class="node"><title>nowip</title>
<ellipse fill="#ddffcc" stroke="black" cx="1459.78" cy="-422.86" rx="184.667" ry="18"/>
<text text-anchor="middle" x="1459.78" y="-419.16" font-family="Times,serif" font-size="14.00">Use real RemoteFn responses in WIP</text>
</g>
<!-- nowip&#45;&gt;newReq -->
<g id="edge30" class="edge"><title>nowip&#45;&gt;newReq</title>
<path fill="none" stroke="black" d="M1411.12,-405.485C1380.76,-395.177 1340.91,-381.481 1305.78,-368.86 1278.5,-359.058 1248.64,-347.957 1222.53,-338.128"/>
<polygon fill="black" stroke="black" points="1223.69,-334.823 1213.09,-334.57 1221.22,-341.373 1223.69,-334.823"/>
</g>
<!-- nowip&#45;&gt;newRCG -->
<g id="edge31" class="edge"><title>nowip&#45;&gt;newRCG</title>
<path fill="none" stroke="black" d="M1459.78,-404.565C1459.78,-389.379 1459.78,-366.786 1459.78,-347.625"/>
<polygon fill="black" stroke="black" points="1463.28,-347.402 1459.78,-337.402 1456.28,-347.402 1463.28,-347.402"/>
</g>
<!-- nowip&#45;&gt;realCU -->
<g id="edge29" class="edge"><title>nowip&#45;&gt;realCU</title>
<path fill="none" stroke="black" d="M1511.2,-405.48C1541.34,-395.552 1580.01,-382.251 1613.78,-368.86 1636.68,-359.783 1661.44,-348.883 1683.03,-339.014"/>
<polygon fill="black" stroke="black" points="1684.77,-342.068 1692.39,-334.71 1681.85,-335.708 1684.77,-342.068"/>
</g>
<!-- nowip&#45;&gt;template -->
<g id="edge8" class="edge"><title>nowip&#45;&gt;template</title>
<path fill="none" stroke="black" d="M1291.6,-415.431C1202.89,-408.837 1093.01,-395.555 997.784,-368.86 967.174,-360.279 934.628,-345.042 910.422,-332.381"/>
<polygon fill="black" stroke="black" points="912.046,-329.281 901.574,-327.674 908.759,-335.461 912.046,-329.281"/>
</g>
<!-- hash -->
<g id="node15" class="node"><title>hash</title>
<ellipse fill="#ddffcc" stroke="black" cx="1300.78" cy="-800.6" rx="50.0912" ry="18"/>
<text text-anchor="middle" x="1300.78" y="-796.9" font-family="Times,serif" font-size="14.00">Hashing</text>
</g>
<!-- hash&#45;&gt;tesths -->
<g id="edge26" class="edge"><title>hash&#45;&gt;tesths</title>
<path fill="none" stroke="black" d="M1273.06,-785.435C1253.63,-775.507 1227.32,-762.063 1205.38,-750.856"/>
<polygon fill="black" stroke="black" points="1206.78,-747.639 1196.28,-746.206 1203.6,-753.872 1206.78,-747.639"/>
</g>
<!-- eventap -->
<g id="node28" class="node"><title>eventap</title>
<ellipse fill="#ddffcc" stroke="black" cx="1459.78" cy="-728.6" rx="129.977" ry="18"/>
<text text-anchor="middle" x="1459.78" y="-724.9" font-family="Times,serif" font-size="14.00">Event application &amp; tests</text>
</g>
<!-- hash&#45;&gt;eventap -->
<g id="edge27" class="edge"><title>hash&#45;&gt;eventap</title>
<path fill="none" stroke="black" d="M1331.07,-786.269C1354.26,-776.059 1386.66,-761.793 1413.15,-750.129"/>
<polygon fill="black" stroke="black" points="1414.88,-753.195 1422.62,-745.962 1412.06,-746.788 1414.88,-753.195"/>
</g>
<!-- tp -->
<g id="node16" class="node"><title>tp</title>
<ellipse fill="#ddffcc" stroke="black" cx="2639.78" cy="-310.17" rx="102.082" ry="18"/>
<text text-anchor="middle" x="2639.78" y="-306.47" font-family="Times,serif" font-size="14.00">Trim .protocol code</text>
</g>
<!-- nwo -->
<g id="node17" class="node"><title>nwo</title>
<ellipse fill="#ddffcc" stroke="black" cx="2083.78" cy="-310.17" rx="204.208" ry="58.8803"/>
<text text-anchor="middle" x="2083.78" y="-336.47" font-family="Times,serif" font-size="14.00">Refactor new world:</text>
<text text-anchor="middle" x="2083.78" y="-321.47" font-family="Times,serif" font-size="14.00">.event</text>
<text text-anchor="middle" x="2083.78" y="-306.47" font-family="Times,serif" font-size="14.00">.protocol</text>
<text text-anchor="middle" x="2083.78" y="-291.47" font-family="Times,serif" font-size="14.00">ClientData, Changes, ChangeListener</text>
<text text-anchor="middle" x="2083.78" y="-276.47" font-family="Times,serif" font-size="14.00">UpdateProject</text>
</g>
<!-- nwo&#45;&gt;devmd -->
<g id="edge20" class="edge"><title>nwo&#45;&gt;devmd</title>
<path fill="none" stroke="black" d="M2083.78,-251.232C2083.78,-242.415 2083.78,-233.685 2083.78,-225.942"/>
<polygon fill="black" stroke="black" points="2087.28,-225.745 2083.78,-215.745 2080.28,-225.745 2087.28,-225.745"/>
</g>
<!-- remove -->
<g id="node18" class="node"><title>remove</title>
<ellipse fill="#ddffcc" stroke="black" cx="2247.78" cy="-422.86" rx="137.576" ry="18"/>
<text text-anchor="middle" x="2247.78" y="-419.16" font-family="Times,serif" font-size="14.00">Remove Δ, δ, Rev, Partition</text>
</g>
<!-- remove&#45;&gt;tp -->
<g id="edge11" class="edge"><title>remove&#45;&gt;tp</title>
<path fill="none" stroke="black" d="M2347.15,-410.357C2401.76,-402.248 2470.13,-389.137 2528.78,-368.86 2555.37,-359.67 2583.46,-345.015 2604.73,-332.776"/>
<polygon fill="black" stroke="black" points="2606.54,-335.772 2613.41,-327.702 2603.01,-329.73 2606.54,-335.772"/>
</g>
<!-- remove&#45;&gt;nwo -->
<g id="edge19" class="edge"><title>remove&#45;&gt;nwo</title>
<path fill="none" stroke="black" d="M2222.88,-405.049C2208.75,-395.513 2190.13,-382.948 2171.13,-370.123"/>
<polygon fill="black" stroke="black" points="2172.93,-367.115 2162.68,-364.422 2169.01,-372.917 2172.93,-367.115"/>
</g>
<!-- rpadt -->
<g id="node26" class="node"><title>rpadt</title>
<ellipse fill="#ddffcc" stroke="black" cx="2412.78" cy="-310.17" rx="106.547" ry="26.7407"/>
<text text-anchor="middle" x="2412.78" y="-313.97" font-family="Times,serif" font-size="14.00">Restore pickleADT</text>
<text text-anchor="middle" x="2412.78" y="-298.97" font-family="Times,serif" font-size="14.00">to Protocol codecs</text>
</g>
<!-- remove&#45;&gt;rpadt -->
<g id="edge12" class="edge"><title>remove&#45;&gt;rpadt</title>
<path fill="none" stroke="black" d="M2272.84,-405.049C2298.06,-388.132 2337.49,-361.682 2368.08,-341.162"/>
<polygon fill="black" stroke="black" points="2370.1,-344.023 2376.45,-335.545 2366.2,-338.209 2370.1,-344.023"/>
</g>
<!-- allve -->
<g id="node19" class="node"><title>allve</title>
<ellipse fill="#ddffcc" stroke="black" cx="1818.78" cy="-494.86" rx="228.56" ry="18"/>
<text text-anchor="middle" x="1818.78" y="-491.16" font-family="Times,serif" font-size="14.00">All RemoteFns use VerifiedEvents instead of Δ</text>
</g>
<!-- allve&#45;&gt;nowip -->
<g id="edge15" class="edge"><title>allve&#45;&gt;nowip</title>
<path fill="none" stroke="black" d="M1737.32,-477.976C1681,-466.994 1606.1,-452.39 1548.31,-441.121"/>
<polygon fill="black" stroke="black" points="1548.94,-437.679 1538.46,-439.2 1547.6,-444.549 1548.94,-437.679"/>
</g>
<!-- allve&#45;&gt;remove -->
<g id="edge14" class="edge"><title>allve&#45;&gt;remove</title>
<path fill="none" stroke="black" d="M1913.2,-478.455C1985.18,-466.71 2083.78,-450.621 2155.28,-438.954"/>
<polygon fill="black" stroke="black" points="2155.88,-442.402 2165.19,-437.338 2154.75,-435.494 2155.88,-442.402"/>
</g>
<!-- bc -->
<g id="node20" class="node"><title>bc</title>
<ellipse fill="#ddffcc" stroke="black" cx="1920.78" cy="-575.73" rx="227.877" ry="26.7407"/>
<text text-anchor="middle" x="1920.78" y="-579.53" font-family="Times,serif" font-size="14.00">Change broadcast from δ</text>
<text text-anchor="middle" x="1920.78" y="-564.53" font-family="Times,serif" font-size="14.00">Either each listener scans events or new δ</text>
</g>
<!-- bc&#45;&gt;allve -->
<g id="edge17" class="edge"><title>bc&#45;&gt;allve</title>
<path fill="none" stroke="black" d="M1887.67,-549.123C1875.19,-539.475 1861.08,-528.562 1848.89,-519.138"/>
<polygon fill="black" stroke="black" points="1850.85,-516.234 1840.8,-512.886 1846.57,-521.771 1850.85,-516.234"/>
</g>
<!-- wip2 -->
<g id="node21" class="node"><title>wip2</title>
<ellipse fill="#ddffcc" stroke="black" cx="1459.78" cy="-575.73" rx="215.562" ry="18"/>
<text text-anchor="middle" x="1459.78" y="-572.03" font-family="Times,serif" font-size="14.00">WIP to use UpdateProject &amp; VerifiedEvents</text>
</g>
<!-- wip2&#45;&gt;nowip -->
<g id="edge10" class="edge"><title>wip2&#45;&gt;nowip</title>
<path fill="none" stroke="black" d="M1459.78,-557.717C1459.78,-531.797 1459.78,-482.166 1459.78,-451.163"/>
<polygon fill="black" stroke="black" points="1463.28,-451.043 1459.78,-441.043 1456.28,-451.043 1463.28,-451.043"/>
</g>
<!-- wip2&#45;&gt;allve -->
<g id="edge16" class="edge"><title>wip2&#45;&gt;allve</title>
<path fill="none" stroke="black" d="M1532.43,-558.769C1591.24,-545.85 1674.1,-527.646 1735.57,-514.142"/>
<polygon fill="black" stroke="black" points="1736.61,-517.496 1745.63,-511.932 1735.11,-510.659 1736.61,-517.496"/>
</g>
<!-- svetcl -->
<g id="node22" class="node"><title>svetcl</title>
<ellipse fill="#ddffcc" stroke="black" cx="1849.78" cy="-656.6" rx="149.473" ry="18"/>
<text text-anchor="middle" x="1849.78" y="-652.9" font-family="Times,serif" font-size="14.00">Send VerifiedEvents to Client</text>
</g>
<!-- svetcl&#45;&gt;bc -->
<g id="edge13" class="edge"><title>svetcl&#45;&gt;bc</title>
<path fill="none" stroke="black" d="M1865.19,-638.486C1872.66,-630.193 1881.89,-619.935 1890.67,-610.178"/>
<polygon fill="black" stroke="black" points="1893.49,-612.281 1897.58,-602.507 1888.29,-607.598 1893.49,-612.281"/>
</g>
<!-- svetcl&#45;&gt;wip2 -->
<g id="edge9" class="edge"><title>svetcl&#45;&gt;wip2</title>
<path fill="none" stroke="black" d="M1776.89,-640.858C1712.06,-627.748 1617.11,-608.546 1548.01,-594.572"/>
<polygon fill="black" stroke="black" points="1548.51,-591.102 1538.01,-592.55 1547.12,-597.963 1548.51,-591.102"/>
</g>
<!-- aveic -->
<g id="node23" class="node"><title>aveic</title>
<ellipse fill="#ddffcc" stroke="black" cx="1459.78" cy="-656.6" rx="152.973" ry="18"/>
<text text-anchor="middle" x="1459.78" y="-652.9" font-family="Times,serif" font-size="14.00">Apply VerifiedEvents in Client</text>
</g>
<!-- aveic&#45;&gt;wip2 -->
<g id="edge7" class="edge"><title>aveic&#45;&gt;wip2</title>
<path fill="none" stroke="black" d="M1459.78,-638.486C1459.78,-628.461 1459.78,-615.566 1459.78,-604.155"/>
<polygon fill="black" stroke="black" points="1463.28,-603.81 1459.78,-593.81 1456.28,-603.81 1463.28,-603.81"/>
</g>
<!-- bin -->
<g id="node24" class="node"><title>bin</title>
<ellipse fill="#ddffcc" stroke="black" cx="1733.78" cy="-800.6" rx="124.278" ry="18"/>
<text text-anchor="middle" x="1733.78" y="-796.9" font-family="Times,serif" font-size="14.00">Use binary for transport</text>
</g>
<!-- eventbin -->
<g id="node29" class="node"><title>eventbin</title>
<ellipse fill="#ddffcc" stroke="black" cx="1733.78" cy="-728.6" rx="126.178" ry="18"/>
<text text-anchor="middle" x="1733.78" y="-724.9" font-family="Times,serif" font-size="14.00">Binary codecs for events</text>
</g>
<!-- bin&#45;&gt;eventbin -->
<g id="edge3" class="edge"><title>bin&#45;&gt;eventbin</title>
<path fill="none" stroke="black" d="M1733.78,-782.297C1733.78,-774.583 1733.78,-765.313 1733.78,-756.712"/>
<polygon fill="black" stroke="black" points="1737.28,-756.704 1733.78,-746.704 1730.28,-756.704 1737.28,-756.704"/>
</g>
<!-- asfttr -->
<g id="node25" class="node"><title>asfttr</title>
<ellipse fill="#ddffcc" stroke="black" cx="2069.78" cy="-728.6" rx="192.266" ry="18"/>
<text text-anchor="middle" x="2069.78" y="-724.9" font-family="Times,serif" font-size="14.00">Add separate failure type to RemoteFn</text>
</g>
<!-- asfttr&#45;&gt;svetcl -->
<g id="edge6" class="edge"><title>asfttr&#45;&gt;svetcl</title>
<path fill="none" stroke="black" d="M2018.2,-711.188C1985.84,-700.89 1943.97,-687.567 1910.07,-676.782"/>
<polygon fill="black" stroke="black" points="1910.87,-673.365 1900.28,-673.668 1908.75,-680.035 1910.87,-673.365"/>
</g>
<!-- event -->
<g id="node27" class="node"><title>event</title>
<ellipse fill="#ddffcc" stroke="black" cx="1503.78" cy="-800.6" rx="42.7926" ry="18"/>
<text text-anchor="middle" x="1503.78" y="-796.9" font-family="Times,serif" font-size="14.00">Events</text>
</g>
<!-- event&#45;&gt;eventap -->
<g id="edge1" class="edge"><title>event&#45;&gt;eventap</title>
<path fill="none" stroke="black" d="M1493.36,-783.011C1488.12,-774.678 1481.66,-764.397 1475.81,-755.088"/>
<polygon fill="black" stroke="black" points="1478.73,-753.16 1470.44,-746.556 1472.8,-756.885 1478.73,-753.16"/>
</g>
<!-- event&#45;&gt;eventbin -->
<g id="edge2" class="edge"><title>event&#45;&gt;eventbin</title>
<path fill="none" stroke="black" d="M1537.72,-789.271C1573.27,-778.452 1629.84,-761.234 1673.11,-748.068"/>
<polygon fill="black" stroke="black" points="1674.13,-751.414 1682.68,-745.154 1672.09,-744.718 1674.13,-751.414"/>
</g>
<!-- eventap&#45;&gt;aveic -->
<g id="edge5" class="edge"><title>eventap&#45;&gt;aveic</title>
<path fill="none" stroke="black" d="M1459.78,-710.297C1459.78,-702.583 1459.78,-693.313 1459.78,-684.712"/>
<polygon fill="black" stroke="black" points="1463.28,-684.704 1459.78,-674.704 1456.28,-684.704 1463.28,-684.704"/>
</g>
<!-- eventbin&#45;&gt;svetcl -->
<g id="edge4" class="edge"><title>eventbin&#45;&gt;svetcl</title>
<path fill="none" stroke="black" d="M1761.27,-711.011C1776.76,-701.664 1796.31,-689.869 1813.09,-679.741"/>
<polygon fill="black" stroke="black" points="1815.34,-682.476 1822.09,-674.313 1811.72,-676.483 1815.34,-682.476"/>
</g>
</g>
</svg>
