<?xml version="1.0" encoding="UTF-8" standalone="no"?>
<!DOCTYPE svg PUBLIC "-//W3C//DTD SVG 1.1//EN"
 "http://www.w3.org/Graphics/SVG/1.1/DTD/svg11.dtd">
<!-- Generated by graphviz version 2.40.1 (20161225.0304)
 -->
<!-- Title: G Pages: 1 -->
<svg width="802pt" height="643pt"
 viewBox="0.00 0.00 802.49 642.96" xmlns="http://www.w3.org/2000/svg" xmlns:xlink="http://www.w3.org/1999/xlink">
<g id="graph0" class="graph" transform="scale(1 1) rotate(0) translate(4 638.9605)">
<title>G</title>
<polygon fill="#ffffff" stroke="transparent" points="-4,4 -4,-638.9605 798.4937,-638.9605 798.4937,4 -4,4"/>
<g id="clust1" class="cluster">
<title>cluster_devops</title>
<polygon fill="#e6ffe6" stroke="#000000" points="210.2463,-65 210.2463,-569.9605 783.2463,-569.9605 783.2463,-65 210.2463,-65"/>
</g>
<!-- services -->
<g id="node1" class="node">
<title>services</title>
<ellipse fill="#add8e6" stroke="#000000" cx="146.2463" cy="-263.6102" rx="54.3945" ry="26.7407"/>
<text text-anchor="middle" x="146.2463" y="-267.4102" font-family="Times,serif" font-size="14.00" fill="#000000">ShipReq</text>
<text text-anchor="middle" x="146.2463" y="-252.4102" font-family="Times,serif" font-size="14.00" fill="#000000">services</text>
</g>
<!-- kamon -->
<g id="node2" class="node">
<title>kamon</title>
<ellipse fill="#add8e6" stroke="#000000" cx="42.2463" cy="-181.7401" rx="42.4939" ry="18"/>
<text text-anchor="middle" x="42.2463" y="-178.0401" font-family="Times,serif" font-size="14.00" fill="#000000">kamon</text>
</g>
<!-- services&#45;&gt;kamon -->
<g id="edge5" class="edge">
<title>services&#45;&gt;kamon</title>
<path fill="none" stroke="#000000" d="M117.2765,-240.8048C99.8466,-227.0838 78.0906,-209.9572 62.5009,-197.6849"/>
</g>
<!-- logstash -->
<g id="node3" class="node">
<title>logstash</title>
<ellipse fill="#add8e6" stroke="#000000" cx="152.2463" cy="-181.7401" rx="50.0912" ry="18"/>
<text text-anchor="middle" x="152.2463" y="-178.0401" font-family="Times,serif" font-size="14.00" fill="#000000">logstash</text>
</g>
<!-- services&#45;&gt;logstash -->
<g id="edge6" class="edge">
<title>services&#45;&gt;logstash</title>
<path fill="none" stroke="#000000" d="M148.2442,-236.3486C149.1169,-224.4406 150.1174,-210.7885 150.8997,-200.1134"/>
</g>
<!-- jaeger -->
<g id="node7" class="node">
<title>jaeger</title>
<ellipse fill="#77bb66" stroke="#000000" cx="287.2463" cy="-406.3503" rx="55.7232" ry="26.7407"/>
<text text-anchor="middle" x="287.2463" y="-410.1503" font-family="Times,serif" font-size="14.00" fill="#000000">[tracing]</text>
<text text-anchor="middle" x="287.2463" y="-395.1503" font-family="Times,serif" font-size="14.00" fill="#000000">jaeger</text>
</g>
<!-- kamon&#45;&gt;jaeger -->
<g id="edge23" class="edge">
<title>kamon&#45;&gt;jaeger</title>
<path fill="none" stroke="#000000" d="M39.0259,-199.8943C33.7663,-235.934 27.7881,-316.8728 70.2463,-361.4802 90.7521,-383.0241 165.6537,-394.9124 221.759,-400.9494"/>
<polygon fill="#000000" stroke="#000000" points="221.6917,-404.4611 231.999,-402.0096 222.4127,-397.4983 221.6917,-404.4611"/>
</g>
<!-- es -->
<g id="node4" class="node">
<title>es</title>
<ellipse fill="#ffffe0" stroke="#000000" cx="431.2463" cy="-263.6102" rx="75.2868" ry="18"/>
<text text-anchor="middle" x="431.2463" y="-259.9102" font-family="Times,serif" font-size="14.00" fill="#000000">ElasticSearch</text>
</g>
<!-- logstash&#45;&gt;es -->
<g id="edge21" class="edge">
<title>logstash&#45;&gt;es</title>
<path fill="none" stroke="#000000" d="M188.4523,-194.1689C194.3782,-196.0992 200.4685,-198.0211 206.2463,-199.7401 268.3443,-218.2161 285.037,-218.6419 347.2463,-236.7401 356.9494,-239.563 367.2326,-242.7163 377.1519,-245.8421"/>
<polygon fill="#000000" stroke="#000000" points="376.3244,-249.2515 386.9148,-248.9453 378.445,-242.5805 376.3244,-249.2515"/>
</g>
<!-- jaeger_storage -->
<g id="node5" class="node">
<title>jaeger_storage</title>
<ellipse fill="#ffffe0" stroke="#000000" cx="278.2463" cy="-263.6102" rx="59.5901" ry="18"/>
<text text-anchor="middle" x="278.2463" y="-259.9102" font-family="Times,serif" font-size="14.00" fill="#000000">Cassandra</text>
</g>
<!-- prometheus_storage -->
<g id="node6" class="node">
<title>prometheus_storage</title>
<ellipse fill="#ffffe0" stroke="#000000" cx="507.2463" cy="-99.8701" rx="78.4777" ry="26.7407"/>
<text text-anchor="middle" x="507.2463" y="-103.6701" font-family="Times,serif" font-size="14.00" fill="#000000">InfluxDB |</text>
<text text-anchor="middle" x="507.2463" y="-88.6701" font-family="Times,serif" font-size="14.00" fill="#000000">TimescaleDB</text>
</g>
<!-- jaeger&#45;&gt;es -->
<g id="edge25" class="edge">
<title>jaeger&#45;&gt;es</title>
<path fill="none" stroke="#000000" stroke-dasharray="1,5" d="M311.6739,-382.1364C337.9656,-356.0747 379.5761,-314.8282 406.1313,-288.5054"/>
<polygon fill="#000000" stroke="#000000" points="408.8878,-290.7012 413.5259,-281.1755 403.9598,-285.7297 408.8878,-290.7012"/>
<text text-anchor="middle" x="370.2463" y="-331.2802" font-family="Times,serif" font-size="14.00" fill="#000000">?</text>
</g>
<!-- jaeger&#45;&gt;jaeger_storage -->
<g id="edge24" class="edge">
<title>jaeger&#45;&gt;jaeger_storage</title>
<path fill="none" stroke="#000000" stroke-dasharray="1,5" d="M285.5322,-379.166C283.9525,-354.1109 281.6175,-317.0779 280.0193,-291.73"/>
<polygon fill="#000000" stroke="#000000" points="283.5062,-291.4109 279.3838,-281.651 276.5201,-291.8515 283.5062,-291.4109"/>
<text text-anchor="middle" x="286.2463" y="-331.2802" font-family="Times,serif" font-size="14.00" fill="#000000">?</text>
</g>
<!-- prometheus -->
<g id="node8" class="node">
<title>prometheus</title>
<ellipse fill="#77bb66" stroke="#000000" cx="650.2463" cy="-263.6102" rx="125.316" ry="26.7407"/>
<text text-anchor="middle" x="650.2463" y="-267.4102" font-family="Times,serif" font-size="14.00" fill="#000000">[monitoring] [alerting]</text>
<text text-anchor="middle" x="650.2463" y="-252.4102" font-family="Times,serif" font-size="14.00" fill="#000000">prometheus</text>
</g>
<!-- prometheus&#45;&gt;services -->
<g id="edge13" class="edge">
<title>prometheus&#45;&gt;services</title>
<path fill="none" stroke="#000000" d="M589.5631,-287.2537C564.2263,-295.9295 534.2257,-304.6768 506.2463,-308.9802 442.3312,-318.8109 277.1974,-327.5231 215.2463,-308.9802 203.5503,-305.4795 192.0005,-299.2875 181.7939,-292.582"/>
<polygon fill="#000000" stroke="#000000" points="183.7752,-289.6968 173.5626,-286.8765 179.7874,-295.4499 183.7752,-289.6968"/>
</g>
<!-- prometheus&#45;&gt;kamon -->
<g id="edge14" class="edge">
<title>prometheus&#45;&gt;kamon</title>
<path fill="none" stroke="#000000" d="M561.5261,-244.5216C546.1443,-241.6223 530.2683,-238.8871 515.2463,-236.7401 328.8652,-210.1019 277.2517,-239.6089 93.2463,-199.7401 89.8395,-199.002 86.3482,-198.0993 82.8687,-197.0955"/>
<polygon fill="#000000" stroke="#000000" points="83.7625,-193.7077 73.1732,-194.0509 81.6652,-200.3862 83.7625,-193.7077"/>
</g>
<!-- prometheus&#45;&gt;prometheus_storage -->
<g id="edge20" class="edge">
<title>prometheus&#45;&gt;prometheus_storage</title>
<path fill="none" stroke="#000000" stroke-dasharray="1,5" d="M626.9526,-236.9381C602.3242,-208.7377 563.4125,-164.1824 536.6782,-133.5707"/>
<polygon fill="#000000" stroke="#000000" points="539.036,-130.9496 529.8218,-125.7199 533.7636,-135.5542 539.036,-130.9496"/>
</g>
<!-- alertmanager -->
<g id="node10" class="node">
<title>alertmanager</title>
<ellipse fill="#77bb66" stroke="#000000" cx="683.2463" cy="-99.8701" rx="79.8062" ry="26.7407"/>
<text text-anchor="middle" x="683.2463" y="-103.6701" font-family="Times,serif" font-size="14.00" fill="#000000">[alerting]</text>
<text text-anchor="middle" x="683.2463" y="-88.6701" font-family="Times,serif" font-size="14.00" fill="#000000">alertmanager</text>
</g>
<!-- prometheus&#45;&gt;alertmanager -->
<g id="edge15" class="edge">
<title>prometheus&#45;&gt;alertmanager</title>
<path fill="none" stroke="#000000" d="M655.6955,-236.5718C661.165,-209.4332 669.6328,-167.4178 675.7371,-137.1293"/>
<polygon fill="#000000" stroke="#000000" points="679.2441,-137.443 677.7889,-126.9486 672.3821,-136.06 679.2441,-137.443"/>
</g>
<!-- grafana -->
<g id="node9" class="node">
<title>grafana</title>
<ellipse fill="#77bb66" stroke="#000000" cx="576.2463" cy="-406.3503" rx="74.9067" ry="26.7407"/>
<text text-anchor="middle" x="576.2463" y="-410.1503" font-family="Times,serif" font-size="14.00" fill="#000000">[monitoring]</text>
<text text-anchor="middle" x="576.2463" y="-395.1503" font-family="Times,serif" font-size="14.00" fill="#000000">grafana</text>
</g>
<!-- grafana&#45;&gt;prometheus -->
<g id="edge16" class="edge">
<title>grafana&#45;&gt;prometheus</title>
<path fill="none" stroke="#000000" d="M589.9917,-379.8365C601.7034,-357.2455 618.6428,-324.5708 631.5802,-299.6156"/>
<polygon fill="#000000" stroke="#000000" points="634.828,-300.9552 636.3233,-290.4664 628.6135,-297.7334 634.828,-300.9552"/>
</g>
<!-- email -->
<g id="node18" class="node">
<title>email</title>
<ellipse fill="none" stroke="#000000" cx="594.2463" cy="-18" rx="36.2938" ry="18"/>
<text text-anchor="middle" x="594.2463" y="-14.3" font-family="Times,serif" font-size="14.00" fill="#000000">email</text>
</g>
<!-- alertmanager&#45;&gt;email -->
<g id="edge17" class="edge">
<title>alertmanager&#45;&gt;email</title>
<path fill="none" stroke="#000000" d="M655.574,-74.4146C643.8822,-63.6596 630.3731,-51.2326 619.0145,-40.784"/>
<polygon fill="#000000" stroke="#000000" points="621.2725,-38.1055 611.5432,-33.9113 616.5334,-43.2574 621.2725,-38.1055"/>
</g>
<!-- slack -->
<g id="node19" class="node">
<title>slack</title>
<ellipse fill="none" stroke="#000000" cx="683.2463" cy="-18" rx="35.194" ry="18"/>
<text text-anchor="middle" x="683.2463" y="-14.3" font-family="Times,serif" font-size="14.00" fill="#000000">slack</text>
</g>
<!-- alertmanager&#45;&gt;slack -->
<g id="edge18" class="edge">
<title>alertmanager&#45;&gt;slack</title>
<path fill="none" stroke="#000000" d="M683.2463,-72.6085C683.2463,-64.2357 683.2463,-55.0006 683.2463,-46.5444"/>
<polygon fill="#000000" stroke="#000000" points="686.7463,-46.3732 683.2463,-36.3732 679.7463,-46.3733 686.7463,-46.3732"/>
</g>
<!-- sms -->
<g id="node20" class="node">
<title>sms</title>
<ellipse fill="none" stroke="#000000" cx="765.2463" cy="-18" rx="29.4969" ry="18"/>
<text text-anchor="middle" x="765.2463" y="-14.3" font-family="Times,serif" font-size="14.00" fill="#000000">sms</text>
</g>
<!-- alertmanager&#45;&gt;sms -->
<g id="edge19" class="edge">
<title>alertmanager&#45;&gt;sms</title>
<path fill="none" stroke="#000000" d="M709.1916,-73.9659C719.9144,-63.26 732.2327,-50.9613 742.5858,-40.6245"/>
<polygon fill="#000000" stroke="#000000" points="745.1225,-43.0377 749.7263,-33.4954 740.1767,-38.084 745.1225,-43.0377"/>
</g>
<!-- kibana -->
<g id="node11" class="node">
<title>kibana</title>
<ellipse fill="#77bb66" stroke="#000000" cx="426.2463" cy="-406.3503" rx="56.6372" ry="26.7407"/>
<text text-anchor="middle" x="426.2463" y="-410.1503" font-family="Times,serif" font-size="14.00" fill="#000000">[logging]</text>
<text text-anchor="middle" x="426.2463" y="-395.1503" font-family="Times,serif" font-size="14.00" fill="#000000">kibana</text>
</g>
<!-- kibana&#45;&gt;es -->
<g id="edge22" class="edge">
<title>kibana&#45;&gt;es</title>
<path fill="none" stroke="#000000" d="M427.1985,-379.166C428.0761,-354.1109 429.3733,-317.0779 430.2613,-291.73"/>
<polygon fill="#000000" stroke="#000000" points="433.762,-291.7674 430.6143,-281.651 426.7663,-291.5223 433.762,-291.7674"/>
</g>
<!-- portal -->
<g id="node12" class="node">
<title>portal</title>
<ellipse fill="#77bb66" stroke="#000000" cx="501.2463" cy="-535.0904" rx="126.6443" ry="26.7407"/>
<text text-anchor="middle" x="501.2463" y="-538.8904" font-family="Times,serif" font-size="14.00" fill="#000000">DevOps portal</text>
<text text-anchor="middle" x="501.2463" y="-523.8904" font-family="Times,serif" font-size="14.00" fill="#000000">Custom, simple HTML</text>
</g>
<!-- portal&#45;&gt;services -->
<g id="edge7" class="edge">
<title>portal&#45;&gt;services</title>
<path fill="none" stroke="#000000" d="M601.9277,-518.6446C623.1223,-512.105 644.4324,-502.9721 662.2463,-490.2203 702.2737,-461.5674 696.205,-413.098 660.2463,-379.4802 597.946,-321.2359 359.2679,-369.1115 278.2463,-342.4802 243.9545,-331.2088 209.0624,-309.8412 183.7708,-292.1871"/>
<polygon fill="#000000" stroke="#000000" points="185.7549,-289.3033 175.5764,-286.3624 181.6993,-295.0088 185.7549,-289.3033"/>
</g>
<!-- portal&#45;&gt;jaeger -->
<g id="edge1" class="edge">
<title>portal&#45;&gt;jaeger</title>
<path fill="none" stroke="#000000" d="M458.9667,-509.6555C421.9787,-487.4039 368.4629,-455.2094 331.0342,-432.6926"/>
<polygon fill="#000000" stroke="#000000" points="332.7325,-429.6298 322.3593,-427.4739 329.124,-435.6281 332.7325,-429.6298"/>
</g>
<!-- portal&#45;&gt;prometheus -->
<g id="edge2" class="edge">
<title>portal&#45;&gt;prometheus</title>
<path fill="none" stroke="#000000" d="M592.1772,-516.2507C632.1783,-505.2619 670.2463,-489.7937 670.2463,-470.7203 670.2463,-470.7203 670.2463,-470.7203 670.2463,-334.9802 670.2463,-323.4534 667.7974,-311.2548 664.6136,-300.2659"/>
<polygon fill="#000000" stroke="#000000" points="667.8962,-299.0387 661.5321,-290.5681 661.2248,-301.1585 667.8962,-299.0387"/>
</g>
<!-- portal&#45;&gt;grafana -->
<g id="edge3" class="edge">
<title>portal&#45;&gt;grafana</title>
<path fill="none" stroke="#000000" d="M516.7863,-508.4154C528.0492,-489.0823 543.3926,-462.7447 555.672,-441.6668"/>
<polygon fill="#000000" stroke="#000000" points="558.7165,-443.3937 560.7261,-432.9912 552.668,-439.87 558.7165,-443.3937"/>
</g>
<!-- portal&#45;&gt;kibana -->
<g id="edge4" class="edge">
<title>portal&#45;&gt;kibana</title>
<path fill="none" stroke="#000000" d="M485.7062,-508.4154C474.3682,-488.9534 458.8951,-462.3932 446.5754,-441.2459"/>
<polygon fill="#000000" stroke="#000000" points="449.5678,-439.4295 441.5098,-432.5507 443.5194,-442.9532 449.5678,-439.4295"/>
</g>
<!-- mailchimp -->
<g id="node13" class="node">
<title>mailchimp</title>
<ellipse fill="none" stroke="#000000" cx="270.2463" cy="-616.9605" rx="59.5901" ry="18"/>
<text text-anchor="middle" x="270.2463" y="-613.2605" font-family="Times,serif" font-size="14.00" fill="#000000">mailchimp</text>
</g>
<!-- mailchimp&#45;&gt;portal -->
<g id="edge8" class="edge">
<title>mailchimp&#45;&gt;portal</title>
<path fill="none" stroke="#000000" d="M318.8778,-599.7247C352.8866,-587.6714 398.6941,-571.4365 435.8911,-558.2533"/>
<polygon fill="#000000" stroke="#000000" points="317.4274,-596.5253 309.171,-603.1649 319.7658,-603.1232 317.4274,-596.5253"/>
</g>
<!-- gsuite -->
<g id="node14" class="node">
<title>gsuite</title>
<ellipse fill="none" stroke="#000000" cx="387.2463" cy="-616.9605" rx="39.7935" ry="18"/>
<text text-anchor="middle" x="387.2463" y="-613.2605" font-family="Times,serif" font-size="14.00" fill="#000000">gsuite</text>
</g>
<!-- gsuite&#45;&gt;portal -->
<g id="edge9" class="edge">
<title>gsuite&#45;&gt;portal</title>
<path fill="none" stroke="#000000" d="M416.9501,-595.6284C431.6775,-585.0518 449.5875,-572.1896 465.105,-561.0456"/>
<polygon fill="#000000" stroke="#000000" points="414.7696,-592.8852 408.6888,-601.5613 418.8529,-598.571 414.7696,-592.8852"/>
</g>
<!-- freshdesk -->
<g id="node15" class="node">
<title>freshdesk</title>
<ellipse fill="none" stroke="#000000" cx="501.2463" cy="-616.9605" rx="56.59" ry="18"/>
<text text-anchor="middle" x="501.2463" y="-613.2605" font-family="Times,serif" font-size="14.00" fill="#000000">freshdesk</text>
</g>
<!-- freshdesk&#45;&gt;portal -->
<g id="edge10" class="edge">
<title>freshdesk&#45;&gt;portal</title>
<path fill="none" stroke="#000000" d="M501.2463,-588.5414C501.2463,-580.0105 501.2463,-570.6772 501.2463,-562.2311"/>
<polygon fill="#000000" stroke="#000000" points="497.7463,-588.7908 501.2463,-598.7908 504.7463,-588.7909 497.7463,-588.7908"/>
</g>
<!-- mailgun -->
<g id="node16" class="node">
<title>mailgun</title>
<ellipse fill="none" stroke="#000000" cx="624.2463" cy="-616.9605" rx="48.1917" ry="18"/>
<text text-anchor="middle" x="624.2463" y="-613.2605" font-family="Times,serif" font-size="14.00" fill="#000000">mailgun</text>
</g>
<!-- mailgun&#45;&gt;portal -->
<g id="edge11" class="edge">
<title>mailgun&#45;&gt;portal</title>
<path fill="none" stroke="#000000" d="M592.0493,-595.5299C576.0761,-584.8979 556.6611,-571.9751 539.89,-560.8121"/>
<polygon fill="#000000" stroke="#000000" points="590.2667,-598.5477 600.5306,-601.1751 594.1454,-592.7205 590.2667,-598.5477"/>
</g>
<!-- gcp -->
<g id="node17" class="node">
<title>gcp</title>
<ellipse fill="none" stroke="#000000" cx="718.2463" cy="-616.9605" rx="27.8951" ry="18"/>
<text text-anchor="middle" x="718.2463" y="-613.2605" font-family="Times,serif" font-size="14.00" fill="#000000">gcp</text>
</g>
<!-- gcp&#45;&gt;portal -->
<g id="edge12" class="edge">
<title>gcp&#45;&gt;portal</title>
<path fill="none" stroke="#000000" d="M686.8163,-601.3765C684.9411,-600.5383 683.0745,-599.7267 681.2463,-598.9605 645.3128,-583.9002 604.4452,-569.2095 570.7427,-557.7218"/>
<polygon fill="#000000" stroke="#000000" points="685.5823,-604.6624 696.1261,-605.7013 688.5315,-598.314 685.5823,-604.6624"/>
</g>
</g>
</svg>
