<?xml version="1.0" encoding="UTF-8" standalone="no"?>
<!DOCTYPE svg PUBLIC "-//W3C//DTD SVG 1.1//EN"
 "http://www.w3.org/Graphics/SVG/1.1/DTD/svg11.dtd">
<!-- Generated by graphviz version 2.40.1 (20161225.0304)
 -->
<!-- Title: G Pages: 1 -->
<svg width="762pt" height="496pt"
 viewBox="0.00 0.00 762.04 496.17" xmlns="http://www.w3.org/2000/svg" xmlns:xlink="http://www.w3.org/1999/xlink">
<g id="graph0" class="graph" transform="scale(1 1) rotate(0) translate(4 492.1737)">
<title>G</title>
<polygon fill="#ffffff" stroke="transparent" points="-4,4 -4,-492.1737 758.0409,-492.1737 758.0409,4 -4,4"/>
<g id="clust1" class="cluster">
<title>cluster_devops</title>
<polygon fill="#e6ffe6" stroke="#000000" points="96.7947,-64 96.7947,-424.1737 543.7947,-424.1737 543.7947,-64 96.7947,-64"/>
</g>
<!-- services -->
<g id="node1" class="node">
<title>services</title>
<ellipse fill="#add8e6" stroke="#000000" cx="606.7947" cy="-209.8234" rx="54.3945" ry="26.7407"/>
<text text-anchor="middle" x="606.7947" y="-213.6234" font-family="Times,serif" font-size="14.00" fill="#000000">ShipReq</text>
<text text-anchor="middle" x="606.7947" y="-198.6234" font-family="Times,serif" font-size="14.00" fill="#000000">services</text>
</g>
<!-- kamon -->
<g id="node2" class="node">
<title>kamon</title>
<ellipse fill="#add8e6" stroke="#000000" cx="711.7947" cy="-109.4767" rx="42.4939" ry="18"/>
<text text-anchor="middle" x="711.7947" y="-105.7767" font-family="Times,serif" font-size="14.00" fill="#000000">kamon</text>
</g>
<!-- services&#45;&gt;kamon -->
<g id="edge5" class="edge">
<title>services&#45;&gt;kamon</title>
<path fill="none" stroke="#000000" d="M631.9448,-185.7878C651.238,-167.3496 677.3682,-142.3775 694.3999,-126.1005"/>
</g>
<!-- logstash -->
<g id="node3" class="node">
<title>logstash</title>
<ellipse fill="#add8e6" stroke="#000000" cx="601.7947" cy="-109.4767" rx="50.0912" ry="18"/>
<text text-anchor="middle" x="601.7947" y="-105.7767" font-family="Times,serif" font-size="14.00" fill="#000000">logstash</text>
</g>
<!-- services&#45;&gt;logstash -->
<g id="edge6" class="edge">
<title>services&#45;&gt;logstash</title>
<path fill="none" stroke="#000000" d="M605.4548,-182.9323C604.5812,-165.3998 603.4648,-142.9938 602.6959,-127.5634"/>
</g>
<!-- jaeger -->
<g id="node6" class="node">
<title>jaeger</title>
<ellipse fill="#77bb66" stroke="#000000" cx="479.7947" cy="-299.5635" rx="55.7232" ry="26.7407"/>
<text text-anchor="middle" x="479.7947" y="-303.3635" font-family="Times,serif" font-size="14.00" fill="#000000">[tracing]</text>
<text text-anchor="middle" x="479.7947" y="-288.3635" font-family="Times,serif" font-size="14.00" fill="#000000">jaeger</text>
</g>
<!-- kamon&#45;&gt;jaeger -->
<g id="edge23" class="edge">
<title>kamon&#45;&gt;jaeger</title>
<path fill="none" stroke="#000000" d="M710.7961,-127.7151C708.3217,-155.0834 699.7171,-206.7508 669.7947,-236.6934 651.2981,-255.2026 588.7929,-273.6956 540.469,-285.784"/>
<polygon fill="#000000" stroke="#000000" points="539.5753,-282.3994 530.7024,-288.1892 541.2492,-289.1964 539.5753,-282.3994"/>
</g>
<!-- es -->
<g id="node4" class="node">
<title>es</title>
<ellipse fill="#ffffe0" stroke="#000000" cx="458.7947" cy="-209.8234" rx="75.2868" ry="18"/>
<text text-anchor="middle" x="458.7947" y="-206.1234" font-family="Times,serif" font-size="14.00" fill="#000000">ElasticSearch</text>
</g>
<!-- logstash&#45;&gt;es -->
<g id="edge21" class="edge">
<title>logstash&#45;&gt;es</title>
<path fill="none" stroke="#000000" d="M578.9481,-125.5087C555.3733,-142.0517 518.3743,-168.0149 491.6595,-186.7613"/>
<polygon fill="#000000" stroke="#000000" points="489.5525,-183.964 483.3773,-192.5732 493.5734,-189.694 489.5525,-183.964"/>
</g>
<!-- prometheus_storage -->
<g id="node5" class="node">
<title>prometheus_storage</title>
<ellipse fill="#ffffe0" stroke="#000000" cx="208.7947" cy="-109.4767" rx="78.4777" ry="37.4533"/>
<text text-anchor="middle" x="208.7947" y="-120.7767" font-family="Times,serif" font-size="14.00" fill="#000000">Cortex |</text>
<text text-anchor="middle" x="208.7947" y="-105.7767" font-family="Times,serif" font-size="14.00" fill="#000000">InfluxDB |</text>
<text text-anchor="middle" x="208.7947" y="-90.7767" font-family="Times,serif" font-size="14.00" fill="#000000">TimescaleDB</text>
</g>
<!-- jaeger&#45;&gt;es -->
<g id="edge24" class="edge">
<title>jaeger&#45;&gt;es</title>
<path fill="none" stroke="#000000" stroke-dasharray="1,5" d="M473.494,-272.6385C470.9305,-261.6837 467.9671,-249.0203 465.3756,-237.946"/>
<polygon fill="#000000" stroke="#000000" points="468.7167,-236.8623 463.0301,-227.9229 461.9008,-238.4573 468.7167,-236.8623"/>
</g>
<!-- prometheus -->
<g id="node7" class="node">
<title>prometheus</title>
<ellipse fill="#77bb66" stroke="#000000" cx="235.7947" cy="-209.8234" rx="125.316" ry="26.7407"/>
<text text-anchor="middle" x="235.7947" y="-213.6234" font-family="Times,serif" font-size="14.00" fill="#000000">[monitoring] [alerting]</text>
<text text-anchor="middle" x="235.7947" y="-198.6234" font-family="Times,serif" font-size="14.00" fill="#000000">prometheus</text>
</g>
<!-- prometheus&#45;&gt;services -->
<g id="edge13" class="edge">
<title>prometheus&#45;&gt;services</title>
<path fill="none" stroke="#000000" d="M294.9773,-233.5483C356.8642,-254.915 456.2842,-279.4627 538.7947,-254.6934 550.0057,-251.3279 561.0747,-245.4492 570.9218,-239.0339"/>
<polygon fill="#000000" stroke="#000000" points="572.9843,-241.8633 579.2337,-233.3078 569.013,-236.0988 572.9843,-241.8633"/>
</g>
<!-- prometheus&#45;&gt;kamon -->
<g id="edge14" class="edge">
<title>prometheus&#45;&gt;kamon</title>
<path fill="none" stroke="#000000" d="M326.862,-191.3307C342.8059,-188.3473 359.2605,-185.4297 374.7947,-182.9533 501.3113,-162.7846 541.7945,-194.4105 660.7947,-146.9533 669.4507,-143.5013 677.9689,-138.2232 685.4906,-132.7079"/>
<polygon fill="#000000" stroke="#000000" points="688.0777,-135.1289 693.8113,-126.2195 683.7731,-129.6088 688.0777,-135.1289"/>
</g>
<!-- prometheus&#45;&gt;prometheus_storage -->
<g id="edge20" class="edge">
<title>prometheus&#45;&gt;prometheus_storage</title>
<path fill="none" stroke="#000000" stroke-dasharray="1,5" d="M228.5592,-182.9323C226.3796,-174.8319 223.9202,-165.6911 221.4952,-156.6787"/>
<polygon fill="#000000" stroke="#000000" points="224.8704,-155.752 218.8923,-147.0048 218.1108,-157.5708 224.8704,-155.752"/>
</g>
<!-- alertmanager -->
<g id="node9" class="node">
<title>alertmanager</title>
<ellipse fill="#77bb66" stroke="#000000" cx="384.7947" cy="-109.4767" rx="79.8062" ry="26.7407"/>
<text text-anchor="middle" x="384.7947" y="-113.2767" font-family="Times,serif" font-size="14.00" fill="#000000">[alerting]</text>
<text text-anchor="middle" x="384.7947" y="-98.2767" font-family="Times,serif" font-size="14.00" fill="#000000">alertmanager</text>
</g>
<!-- prometheus&#45;&gt;alertmanager -->
<g id="edge15" class="edge">
<title>prometheus&#45;&gt;alertmanager</title>
<path fill="none" stroke="#000000" d="M274.1659,-183.9816C294.4003,-170.3544 319.3264,-153.5674 340.3928,-139.3799"/>
<polygon fill="#000000" stroke="#000000" points="342.5188,-142.1679 348.858,-133.6788 338.6085,-136.3618 342.5188,-142.1679"/>
</g>
<!-- grafana -->
<g id="node8" class="node">
<title>grafana</title>
<ellipse fill="#77bb66" stroke="#000000" cx="199.7947" cy="-299.5635" rx="74.9067" ry="26.7407"/>
<text text-anchor="middle" x="199.7947" y="-303.3635" font-family="Times,serif" font-size="14.00" fill="#000000">[monitoring]</text>
<text text-anchor="middle" x="199.7947" y="-288.3635" font-family="Times,serif" font-size="14.00" fill="#000000">grafana</text>
</g>
<!-- grafana&#45;&gt;prometheus -->
<g id="edge16" class="edge">
<title>grafana&#45;&gt;prometheus</title>
<path fill="none" stroke="#000000" d="M210.5959,-272.6385C213.942,-264.2974 217.6855,-254.9657 221.2424,-246.0991"/>
<polygon fill="#000000" stroke="#000000" points="224.5263,-247.3136 225.0011,-236.7294 218.0295,-244.7073 224.5263,-247.3136"/>
</g>
<!-- email -->
<g id="node17" class="node">
<title>email</title>
<ellipse fill="none" stroke="#000000" cx="295.7947" cy="-18" rx="36.2938" ry="18"/>
<text text-anchor="middle" x="295.7947" y="-14.3" font-family="Times,serif" font-size="14.00" fill="#000000">email</text>
</g>
<!-- alertmanager&#45;&gt;email -->
<g id="edge17" class="edge">
<title>alertmanager&#45;&gt;email</title>
<path fill="none" stroke="#000000" d="M359.5289,-83.5078C346.641,-70.2612 331.0877,-54.2751 318.5721,-41.4112"/>
<polygon fill="#000000" stroke="#000000" points="321.0792,-38.969 311.5972,-34.2422 316.062,-43.8504 321.0792,-38.969"/>
</g>
<!-- slack -->
<g id="node18" class="node">
<title>slack</title>
<ellipse fill="none" stroke="#000000" cx="384.7947" cy="-18" rx="35.194" ry="18"/>
<text text-anchor="middle" x="384.7947" y="-14.3" font-family="Times,serif" font-size="14.00" fill="#000000">slack</text>
</g>
<!-- alertmanager&#45;&gt;slack -->
<g id="edge18" class="edge">
<title>alertmanager&#45;&gt;slack</title>
<path fill="none" stroke="#000000" d="M384.7947,-82.5254C384.7947,-71.066 384.7947,-57.7024 384.7947,-46.1186"/>
<polygon fill="#000000" stroke="#000000" points="388.2948,-46.0865 384.7947,-36.0865 381.2948,-46.0865 388.2948,-46.0865"/>
</g>
<!-- sms -->
<g id="node19" class="node">
<title>sms</title>
<ellipse fill="none" stroke="#000000" cx="466.7947" cy="-18" rx="29.4969" ry="18"/>
<text text-anchor="middle" x="466.7947" y="-14.3" font-family="Times,serif" font-size="14.00" fill="#000000">sms</text>
</g>
<!-- alertmanager&#45;&gt;sms -->
<g id="edge19" class="edge">
<title>alertmanager&#45;&gt;sms</title>
<path fill="none" stroke="#000000" d="M408.0733,-83.5078C419.915,-70.2975 434.199,-54.3628 445.7139,-41.5171"/>
<polygon fill="#000000" stroke="#000000" points="448.4105,-43.7524 452.4792,-33.97 443.1981,-39.08 448.4105,-43.7524"/>
</g>
<!-- kibana -->
<g id="node10" class="node">
<title>kibana</title>
<ellipse fill="#77bb66" stroke="#000000" cx="349.7947" cy="-299.5635" rx="56.6372" ry="26.7407"/>
<text text-anchor="middle" x="349.7947" y="-303.3635" font-family="Times,serif" font-size="14.00" fill="#000000">[logging]</text>
<text text-anchor="middle" x="349.7947" y="-288.3635" font-family="Times,serif" font-size="14.00" fill="#000000">kibana</text>
</g>
<!-- kibana&#45;&gt;es -->
<g id="edge22" class="edge">
<title>kibana&#45;&gt;es</title>
<path fill="none" stroke="#000000" d="M378.1486,-276.2196C393.9409,-263.2177 413.5717,-247.0556 429.5111,-233.9327"/>
<polygon fill="#000000" stroke="#000000" points="431.9744,-236.4382 437.47,-227.3801 427.5252,-231.0341 431.9744,-236.4382"/>
</g>
<!-- portal -->
<g id="node11" class="node">
<title>portal</title>
<ellipse fill="#77bb66" stroke="#000000" cx="290.7947" cy="-389.3036" rx="126.6443" ry="26.7407"/>
<text text-anchor="middle" x="290.7947" y="-393.1036" font-family="Times,serif" font-size="14.00" fill="#000000">DevOps portal</text>
<text text-anchor="middle" x="290.7947" y="-378.1036" font-family="Times,serif" font-size="14.00" fill="#000000">Custom, simple HTML</text>
</g>
<!-- portal&#45;&gt;services -->
<g id="edge7" class="edge">
<title>portal&#45;&gt;services</title>
<path fill="none" stroke="#000000" d="M391.5159,-373.0206C451.559,-361.6831 520.6601,-345.2568 544.7947,-326.4335 570.6057,-306.3028 586.9102,-272.36 596.2843,-246.2706"/>
<polygon fill="#000000" stroke="#000000" points="599.6325,-247.2957 599.543,-236.7012 593.0062,-245.0391 599.6325,-247.2957"/>
</g>
<!-- portal&#45;&gt;jaeger -->
<g id="edge1" class="edge">
<title>portal&#45;&gt;jaeger</title>
<path fill="none" stroke="#000000" d="M342.6898,-364.663C370.1588,-351.6203 403.7022,-335.6934 430.7348,-322.8579"/>
<polygon fill="#000000" stroke="#000000" points="432.4722,-325.9075 440.0044,-318.4565 429.4697,-319.5841 432.4722,-325.9075"/>
</g>
<!-- portal&#45;&gt;prometheus -->
<g id="edge2" class="edge">
<title>portal&#45;&gt;prometheus</title>
<path fill="none" stroke="#000000" d="M206.9389,-369.0389C167.7298,-357.6981 127.17,-342.6073 115.7947,-326.4335 102.0544,-306.8971 103.4309,-293.1289 115.7947,-272.6934 125.0052,-257.4699 139.2516,-245.7535 154.7532,-236.8009"/>
<polygon fill="#000000" stroke="#000000" points="156.8383,-239.6542 163.9968,-231.8435 153.5299,-233.4854 156.8383,-239.6542"/>
</g>
<!-- portal&#45;&gt;grafana -->
<g id="edge3" class="edge">
<title>portal&#45;&gt;grafana</title>
<path fill="none" stroke="#000000" d="M263.9839,-362.864C254.1964,-353.212 243.0124,-342.1828 232.7516,-332.0641"/>
<polygon fill="#000000" stroke="#000000" points="235.0542,-329.4192 225.4764,-324.8896 230.1391,-334.4034 235.0542,-329.4192"/>
</g>
<!-- portal&#45;&gt;kibana -->
<g id="edge4" class="edge">
<title>portal&#45;&gt;kibana</title>
<path fill="none" stroke="#000000" d="M308.4966,-362.3786C314.4218,-353.3663 321.1073,-343.1976 327.3458,-333.7087"/>
<polygon fill="#000000" stroke="#000000" points="330.3457,-335.5168 332.9148,-325.2381 324.4966,-331.6712 330.3457,-335.5168"/>
</g>
<!-- mailchimp -->
<g id="node12" class="node">
<title>mailchimp</title>
<ellipse fill="none" stroke="#000000" cx="59.7947" cy="-470.1737" rx="59.5901" ry="18"/>
<text text-anchor="middle" x="59.7947" y="-466.4737" font-family="Times,serif" font-size="14.00" fill="#000000">mailchimp</text>
</g>
<!-- mailchimp&#45;&gt;portal -->
<g id="edge8" class="edge">
<title>mailchimp&#45;&gt;portal</title>
<path fill="none" stroke="#000000" d="M108.6576,-453.0674C142.5483,-441.2027 188.0734,-425.265 225.1305,-412.2918"/>
<polygon fill="#000000" stroke="#000000" points="107.2625,-449.8474 98.9807,-456.4552 109.5755,-456.4543 107.2625,-449.8474"/>
</g>
<!-- gsuite -->
<g id="node13" class="node">
<title>gsuite</title>
<ellipse fill="none" stroke="#000000" cx="176.7947" cy="-470.1737" rx="39.7935" ry="18"/>
<text text-anchor="middle" x="176.7947" y="-466.4737" font-family="Times,serif" font-size="14.00" fill="#000000">gsuite</text>
</g>
<!-- gsuite&#45;&gt;portal -->
<g id="edge9" class="edge">
<title>gsuite&#45;&gt;portal</title>
<path fill="none" stroke="#000000" d="M206.4281,-449.1521C221.0257,-438.7968 238.763,-426.2142 254.2,-415.2634"/>
<polygon fill="#000000" stroke="#000000" points="204.3684,-446.322 198.2372,-454.9626 208.4185,-452.0314 204.3684,-446.322"/>
</g>
<!-- freshdesk -->
<g id="node14" class="node">
<title>freshdesk</title>
<ellipse fill="none" stroke="#000000" cx="290.7947" cy="-470.1737" rx="56.59" ry="18"/>
<text text-anchor="middle" x="290.7947" y="-466.4737" font-family="Times,serif" font-size="14.00" fill="#000000">freshdesk</text>
</g>
<!-- freshdesk&#45;&gt;portal -->
<g id="edge10" class="edge">
<title>freshdesk&#45;&gt;portal</title>
<path fill="none" stroke="#000000" d="M290.7947,-441.8008C290.7947,-433.4767 290.7947,-424.4017 290.7947,-416.1742"/>
<polygon fill="#000000" stroke="#000000" points="287.2948,-441.823 290.7947,-451.823 294.2948,-441.823 287.2948,-441.823"/>
</g>
<!-- mailgun -->
<g id="node15" class="node">
<title>mailgun</title>
<ellipse fill="none" stroke="#000000" cx="413.7947" cy="-470.1737" rx="48.1917" ry="18"/>
<text text-anchor="middle" x="413.7947" y="-466.4737" font-family="Times,serif" font-size="14.00" fill="#000000">mailgun</text>
</g>
<!-- mailgun&#45;&gt;portal -->
<g id="edge11" class="edge">
<title>mailgun&#45;&gt;portal</title>
<path fill="none" stroke="#000000" d="M381.3724,-448.8567C365.5402,-438.4473 346.3684,-425.8422 329.747,-414.914"/>
<polygon fill="#000000" stroke="#000000" points="379.5085,-451.8199 389.7871,-454.3891 383.3541,-445.9708 379.5085,-451.8199"/>
</g>
<!-- gcp -->
<g id="node16" class="node">
<title>gcp</title>
<ellipse fill="none" stroke="#000000" cx="507.7947" cy="-470.1737" rx="27.8951" ry="18"/>
<text text-anchor="middle" x="507.7947" y="-466.4737" font-family="Times,serif" font-size="14.00" fill="#000000">gcp</text>
</g>
<!-- gcp&#45;&gt;portal -->
<g id="edge12" class="edge">
<title>gcp&#45;&gt;portal</title>
<path fill="none" stroke="#000000" d="M476.3693,-454.5789C474.4929,-453.7435 472.6248,-452.9354 470.7947,-452.1737 435.1923,-437.3555 394.7164,-423.004 361.1757,-411.7633"/>
<polygon fill="#000000" stroke="#000000" points="475.1376,-457.8657 485.6822,-458.8962 478.0817,-451.5149 475.1376,-457.8657"/>
</g>
</g>
</svg>
