<?xml version="1.0" encoding="UTF-8" standalone="no"?>
<!DOCTYPE svg PUBLIC "-//W3C//DTD SVG 1.1//EN"
 "http://www.w3.org/Graphics/SVG/1.1/DTD/svg11.dtd">
<!-- Generated by graphviz version 2.40.1 (20161225.0304)
 -->
<!-- Title: G Pages: 1 -->
<svg width="673pt" height="810pt"
 viewBox="0.00 0.00 673.05 810.44" xmlns="http://www.w3.org/2000/svg" xmlns:xlink="http://www.w3.org/1999/xlink">
<g id="graph0" class="graph" transform="scale(1 1) rotate(0) translate(4 806.4407)">
<title>G</title>
<polygon fill="#ffffff" stroke="transparent" points="-4,4 -4,-806.4407 669.0456,-806.4407 669.0456,4 -4,4"/>
<g id="clust1" class="cluster">
<title>cluster_devops</title>
<polygon fill="#e6ffe6" stroke="#000000" points="8,-65 8,-737.4407 455,-737.4407 455,-65 8,-65"/>
</g>
<!-- shipreq -->
<g id="node1" class="node">
<title>shipreq</title>
<ellipse fill="#add8e6" stroke="#000000" cx="520" cy="-611.8305" rx="57.0522" ry="26.7407"/>
<text text-anchor="middle" x="520" y="-615.6305" font-family="Times,serif" font-size="14.00" fill="#000000">ShipReq:</text>
<text text-anchor="middle" x="520" y="-600.6305" font-family="Times,serif" font-size="14.00" fill="#000000">webapp</text>
</g>
<!-- kamon -->
<g id="node3" class="node">
<title>kamon</title>
<ellipse fill="#add8e6" stroke="#000000" cx="505" cy="-310.4802" rx="42.4939" ry="18"/>
<text text-anchor="middle" x="505" y="-306.7802" font-family="Times,serif" font-size="14.00" fill="#000000">kamon</text>
</g>
<!-- shipreq&#45;&gt;kamon -->
<g id="edge6" class="edge">
<title>shipreq&#45;&gt;kamon</title>
<path fill="none" stroke="#000000" d="M503.2348,-578.1959C496.3672,-561.4556 490,-540.6588 490,-521.0904 490,-521.0904 490,-521.0904 490,-392.3503 490,-370.0971 495.4282,-344.9903 499.7537,-328.5161"/>
<ellipse fill="#000000" stroke="#000000" cx="504.8272" cy="-581.907" rx="4" ry="4"/>
</g>
<!-- logstash -->
<g id="node4" class="node">
<title>logstash</title>
<ellipse fill="#add8e6" stroke="#000000" cx="615" cy="-310.4802" rx="50.0912" ry="18"/>
<text text-anchor="middle" x="615" y="-306.7802" font-family="Times,serif" font-size="14.00" fill="#000000">logstash</text>
</g>
<!-- shipreq&#45;&gt;logstash -->
<g id="edge7" class="edge">
<title>shipreq&#45;&gt;logstash</title>
<path fill="none" stroke="#000000" d="M580.1533,-597.8102C618.1065,-584.9898 660,-561.6518 660,-521.0904 660,-521.0904 660,-521.0904 660,-392.3503 660,-367.6972 644.1357,-343.4573 631.246,-327.831"/>
<ellipse fill="#000000" stroke="#000000" cx="575.939" cy="-599.1647" rx="4" ry="4"/>
</g>
<!-- taskman -->
<g id="node2" class="node">
<title>taskman</title>
<ellipse fill="#add8e6" stroke="#000000" cx="575" cy="-392.3503" rx="57.0522" ry="26.7407"/>
<text text-anchor="middle" x="575" y="-396.1503" font-family="Times,serif" font-size="14.00" fill="#000000">ShipReq:</text>
<text text-anchor="middle" x="575" y="-381.1503" font-family="Times,serif" font-size="14.00" fill="#000000">taskman</text>
</g>
<!-- taskman&#45;&gt;kamon -->
<g id="edge8" class="edge">
<title>taskman&#45;&gt;kamon</title>
<path fill="none" stroke="#000000" d="M548.3574,-361.1898C538.6855,-349.8778 528.1092,-337.5082 519.8238,-327.8177"/>
<ellipse fill="#000000" stroke="#000000" cx="551.0179" cy="-364.3015" rx="4" ry="4"/>
</g>
<!-- taskman&#45;&gt;logstash -->
<g id="edge9" class="edge">
<title>taskman&#45;&gt;logstash</title>
<path fill="none" stroke="#000000" d="M591.5034,-358.572C596.5868,-348.1676 601.9812,-337.1265 606.3175,-328.2511"/>
<ellipse fill="#000000" stroke="#000000" cx="589.6324" cy="-362.4015" rx="4" ry="4"/>
</g>
<!-- jaeger -->
<g id="node6" class="node">
<title>jaeger</title>
<ellipse fill="#77bb66" stroke="#000000" cx="391" cy="-392.3503" rx="55.7232" ry="26.7407"/>
<text text-anchor="middle" x="391" y="-396.1503" font-family="Times,serif" font-size="14.00" fill="#000000">[tracing]</text>
<text text-anchor="middle" x="391" y="-381.1503" font-family="Times,serif" font-size="14.00" fill="#000000">jaeger</text>
</g>
<!-- kamon&#45;&gt;jaeger -->
<g id="edge24" class="edge">
<title>kamon&#45;&gt;jaeger</title>
<path fill="none" stroke="#000000" d="M483.2723,-326.0841C468.406,-336.7605 448.2655,-351.2246 430.5939,-363.9156"/>
<polygon fill="#000000" stroke="#000000" points="428.2318,-361.3028 422.151,-369.9789 432.3151,-366.9886 428.2318,-361.3028"/>
</g>
<!-- es -->
<g id="node5" class="node">
<title>es</title>
<ellipse fill="#ffffe0" stroke="#000000" cx="372" cy="-228.6102" rx="75.2868" ry="18"/>
<text text-anchor="middle" x="372" y="-224.9102" font-family="Times,serif" font-size="14.00" fill="#000000">ElasticSearch</text>
</g>
<!-- logstash&#45;&gt;es -->
<g id="edge22" class="edge">
<title>logstash&#45;&gt;es</title>
<path fill="none" stroke="#000000" d="M578.3573,-298.1348C537.7569,-284.456 471.9065,-262.2701 425.5323,-246.646"/>
<polygon fill="#000000" stroke="#000000" points="426.5424,-243.293 415.9483,-243.417 424.3074,-249.9266 426.5424,-243.293"/>
</g>
<!-- jaeger&#45;&gt;es -->
<g id="edge25" class="edge">
<title>jaeger&#45;&gt;es</title>
<path fill="none" stroke="#ff0000" stroke-dasharray="5,2" d="M387.8625,-365.3119C384.3929,-335.4107 378.8276,-287.4497 375.2957,-257.0123"/>
<polygon fill="#ff0000" stroke="#ff0000" points="378.7674,-256.5652 374.138,-247.0353 371.8141,-257.3721 378.7674,-256.5652"/>
<text text-anchor="start" x="384" y="-314.2802" font-family="Times,serif" font-size="14.00" fill="#ff0000"> &#160;?</text>
<text text-anchor="middle" x="416" y="-299.2802" font-family="Times,serif" font-size="14.00" fill="#ff0000">req: 5.x &#160;</text>
</g>
<!-- prometheus -->
<g id="node7" class="node">
<title>prometheus</title>
<ellipse fill="#77bb66" stroke="#000000" cx="153" cy="-228.6102" rx="125.316" ry="26.7407"/>
<text text-anchor="middle" x="153" y="-232.4102" font-family="Times,serif" font-size="14.00" fill="#000000">[monitoring] [alerting]</text>
<text text-anchor="middle" x="153" y="-217.4102" font-family="Times,serif" font-size="14.00" fill="#000000">prometheus</text>
</g>
<!-- prometheus&#45;&gt;kamon -->
<g id="edge16" class="edge">
<title>prometheus&#45;&gt;kamon</title>
<path fill="none" stroke="#000000" d="M244.9479,-246.9924C327.4147,-263.6122 438.5197,-286.3825 459,-292.4802 460.911,-293.0492 462.8542,-293.6633 464.8082,-294.3096"/>
<polygon fill="#000000" stroke="#000000" points="463.9721,-297.7259 474.5669,-297.7501 466.2996,-291.1242 463.9721,-297.7259"/>
</g>
<!-- alertmanager -->
<g id="node9" class="node">
<title>alertmanager</title>
<ellipse fill="#77bb66" stroke="#000000" cx="153" cy="-99.8701" rx="79.8063" ry="26.7407"/>
<text text-anchor="middle" x="153" y="-103.6701" font-family="Times,serif" font-size="14.00" fill="#000000">[alerting]</text>
<text text-anchor="middle" x="153" y="-88.6701" font-family="Times,serif" font-size="14.00" fill="#000000">alertmanager</text>
</g>
<!-- prometheus&#45;&gt;alertmanager -->
<g id="edge17" class="edge">
<title>prometheus&#45;&gt;alertmanager</title>
<path fill="none" stroke="#000000" d="M153,-201.622C153,-182.8256 153,-157.5213 153,-136.8496"/>
<polygon fill="#000000" stroke="#000000" points="156.5001,-136.8226 153,-126.8227 149.5001,-136.8227 156.5001,-136.8226"/>
</g>
<!-- grafana -->
<g id="node8" class="node">
<title>grafana</title>
<ellipse fill="#77bb66" stroke="#000000" cx="91" cy="-392.3503" rx="74.9067" ry="26.7407"/>
<text text-anchor="middle" x="91" y="-396.1503" font-family="Times,serif" font-size="14.00" fill="#000000">[monitoring]</text>
<text text-anchor="middle" x="91" y="-381.1503" font-family="Times,serif" font-size="14.00" fill="#000000">grafana</text>
</g>
<!-- grafana&#45;&gt;prometheus -->
<g id="edge18" class="edge">
<title>grafana&#45;&gt;prometheus</title>
<path fill="none" stroke="#000000" d="M101.0994,-365.6782C111.4718,-338.285 127.6876,-295.4595 139.2314,-264.9727"/>
<polygon fill="#000000" stroke="#000000" points="142.5339,-266.1346 142.8018,-255.5432 135.9874,-263.6558 142.5339,-266.1346"/>
</g>
<!-- email -->
<g id="node18" class="node">
<title>email</title>
<ellipse fill="#e6e6e6" stroke="#000000" cx="64" cy="-18" rx="36.2938" ry="18"/>
<text text-anchor="middle" x="64" y="-14.3" font-family="Times,serif" font-size="14.00" fill="#000000">email</text>
</g>
<!-- alertmanager&#45;&gt;email -->
<g id="edge19" class="edge">
<title>alertmanager&#45;&gt;email</title>
<path fill="none" stroke="#000000" d="M125.3277,-74.4146C113.636,-63.6596 100.1268,-51.2326 88.7683,-40.784"/>
<polygon fill="#000000" stroke="#000000" points="91.0263,-38.1055 81.297,-33.9113 86.2872,-43.2574 91.0263,-38.1055"/>
</g>
<!-- slack -->
<g id="node19" class="node">
<title>slack</title>
<ellipse fill="#e6e6e6" stroke="#000000" cx="153" cy="-18" rx="35.194" ry="18"/>
<text text-anchor="middle" x="153" y="-14.3" font-family="Times,serif" font-size="14.00" fill="#000000">slack</text>
</g>
<!-- alertmanager&#45;&gt;slack -->
<g id="edge20" class="edge">
<title>alertmanager&#45;&gt;slack</title>
<path fill="none" stroke="#000000" d="M153,-72.6085C153,-64.2357 153,-55.0006 153,-46.5444"/>
<polygon fill="#000000" stroke="#000000" points="156.5001,-46.3732 153,-36.3732 149.5001,-46.3733 156.5001,-46.3732"/>
</g>
<!-- sms -->
<g id="node20" class="node">
<title>sms</title>
<ellipse fill="#e6e6e6" stroke="#000000" cx="235" cy="-18" rx="29.4969" ry="18"/>
<text text-anchor="middle" x="235" y="-14.3" font-family="Times,serif" font-size="14.00" fill="#000000">sms</text>
</g>
<!-- alertmanager&#45;&gt;sms -->
<g id="edge21" class="edge">
<title>alertmanager&#45;&gt;sms</title>
<path fill="none" stroke="#000000" d="M178.9453,-73.9659C189.6682,-63.26 201.9864,-50.9613 212.3396,-40.6245"/>
<polygon fill="#000000" stroke="#000000" points="214.8762,-43.0377 219.48,-33.4954 209.9304,-38.084 214.8762,-43.0377"/>
</g>
<!-- kibana -->
<g id="node10" class="node">
<title>kibana</title>
<ellipse fill="#77bb66" stroke="#000000" cx="261" cy="-392.3503" rx="56.6372" ry="26.7407"/>
<text text-anchor="middle" x="261" y="-396.1503" font-family="Times,serif" font-size="14.00" fill="#000000">[logging]</text>
<text text-anchor="middle" x="261" y="-381.1503" font-family="Times,serif" font-size="14.00" fill="#000000">kibana</text>
</g>
<!-- kibana&#45;&gt;es -->
<g id="edge23" class="edge">
<title>kibana&#45;&gt;es</title>
<path fill="none" stroke="#000000" d="M278.3438,-366.7659C298.9883,-336.3124 333.2847,-285.7206 354.1496,-254.942"/>
<polygon fill="#000000" stroke="#000000" points="357.1956,-256.6862 359.9098,-246.4449 351.4014,-252.7583 357.1956,-256.6862"/>
</g>
<!-- portal -->
<g id="node11" class="node">
<title>portal</title>
<ellipse fill="#77bb66" stroke="#000000" cx="358" cy="-702.5706" rx="51.7379" ry="26.7407"/>
<text text-anchor="middle" x="358" y="-706.3706" font-family="Times,serif" font-size="14.00" fill="#000000">DevOps</text>
<text text-anchor="middle" x="358" y="-691.3706" font-family="Times,serif" font-size="14.00" fill="#000000">portal</text>
</g>
<!-- portal&#45;&gt;shipreq -->
<g id="edge10" class="edge">
<title>portal&#45;&gt;shipreq</title>
<path fill="none" stroke="#0000cc" stroke-dasharray="5,2" d="M393.1516,-682.8814C416.8758,-669.5929 448.4243,-651.9218 474.123,-637.5273"/>
<polygon fill="#0000cc" stroke="#0000cc" points="475.9324,-640.5255 482.9466,-632.585 472.5116,-634.4183 475.9324,-640.5255"/>
</g>
<!-- proxy -->
<g id="node12" class="node">
<title>proxy</title>
<ellipse fill="#77bb66" stroke="#000000" cx="261" cy="-521.0904" rx="84.2917" ry="26.7407"/>
<text text-anchor="middle" x="261" y="-524.8904" font-family="Times,serif" font-size="14.00" fill="#000000">[security]</text>
<text text-anchor="middle" x="261" y="-509.8904" font-family="Times,serif" font-size="14.00" fill="#000000">Reverse proxy</text>
</g>
<!-- portal&#45;&gt;proxy -->
<g id="edge1" class="edge">
<title>portal&#45;&gt;proxy</title>
<path fill="none" stroke="#0000cc" stroke-dasharray="5,2" d="M344.1023,-676.5689C327.2714,-645.0795 298.84,-591.8863 279.9947,-556.6282"/>
<polygon fill="#0000cc" stroke="#0000cc" points="282.988,-554.8034 275.1874,-547.634 276.8145,-558.1032 282.988,-554.8034"/>
</g>
<!-- proxy&#45;&gt;jaeger -->
<g id="edge2" class="edge">
<title>proxy&#45;&gt;jaeger</title>
<path fill="none" stroke="#0000cc" stroke-dasharray="5,2" d="M286.995,-495.3473C307.7651,-474.7785 336.967,-445.8596 359.1426,-423.899"/>
<polygon fill="#0000cc" stroke="#0000cc" points="361.7286,-426.2638 366.3713,-416.7403 356.803,-421.29 361.7286,-426.2638"/>
</g>
<!-- proxy&#45;&gt;prometheus -->
<g id="edge3" class="edge">
<title>proxy&#45;&gt;prometheus</title>
<path fill="none" stroke="#0000cc" stroke-dasharray="5,2" d="M212.4377,-498.9783C197.543,-488.6984 185,-474.7031 185,-456.7203 185,-456.7203 185,-456.7203 185,-310.4802 185,-294.7331 179.8009,-278.3791 173.5941,-264.4659"/>
<polygon fill="#0000cc" stroke="#0000cc" points="176.6624,-262.7695 169.1875,-255.2611 170.3486,-265.7921 176.6624,-262.7695"/>
</g>
<!-- proxy&#45;&gt;grafana -->
<g id="edge4" class="edge">
<title>proxy&#45;&gt;grafana</title>
<path fill="none" stroke="#0000cc" stroke-dasharray="5,2" d="M215.2079,-498.3288C203.3746,-491.7536 190.9051,-484.1848 180,-476.2203 159.3332,-461.1265 138.3968,-441.6523 122.0266,-425.2691"/>
<polygon fill="#0000cc" stroke="#0000cc" points="124.3578,-422.6483 114.8439,-417.9861 119.3738,-427.5637 124.3578,-422.6483"/>
</g>
<!-- proxy&#45;&gt;kibana -->
<g id="edge5" class="edge">
<title>proxy&#45;&gt;kibana</title>
<path fill="none" stroke="#0000cc" stroke-dasharray="5,2" d="M261,-494.1023C261,-475.3058 261,-450.0015 261,-429.3299"/>
<polygon fill="#0000cc" stroke="#0000cc" points="264.5001,-429.3029 261,-419.3029 257.5001,-429.3029 264.5001,-429.3029"/>
</g>
<!-- mailchimp -->
<g id="node13" class="node">
<title>mailchimp</title>
<ellipse fill="#e6e6e6" stroke="#000000" cx="127" cy="-784.4407" rx="59.5901" ry="18"/>
<text text-anchor="middle" x="127" y="-780.7407" font-family="Times,serif" font-size="14.00" fill="#000000">mailchimp</text>
</g>
<!-- mailchimp&#45;&gt;portal -->
<g id="edge11" class="edge">
<title>mailchimp&#45;&gt;portal</title>
<path fill="none" stroke="#0000cc" stroke-dasharray="5,2" d="M175.4884,-767.2556C216.7278,-752.6397 275.3924,-731.8481 314.9849,-717.8159"/>
<polygon fill="#0000cc" stroke="#0000cc" points="174.1811,-764.0056 165.9248,-770.6451 176.5195,-770.6034 174.1811,-764.0056"/>
</g>
<!-- gsuite -->
<g id="node14" class="node">
<title>gsuite</title>
<ellipse fill="#e6e6e6" stroke="#000000" cx="244" cy="-784.4407" rx="39.7935" ry="18"/>
<text text-anchor="middle" x="244" y="-780.7407" font-family="Times,serif" font-size="14.00" fill="#000000">gsuite</text>
</g>
<!-- gsuite&#45;&gt;portal -->
<g id="edge12" class="edge">
<title>gsuite&#45;&gt;portal</title>
<path fill="none" stroke="#0000cc" stroke-dasharray="5,2" d="M273.7072,-763.1062C290.2961,-751.1927 310.9221,-736.38 327.6186,-724.3893"/>
<polygon fill="#0000cc" stroke="#0000cc" points="271.5233,-760.3655 265.4425,-769.0416 275.6066,-766.0512 271.5233,-760.3655"/>
</g>
<!-- freshdesk -->
<g id="node15" class="node">
<title>freshdesk</title>
<ellipse fill="#e6e6e6" stroke="#000000" cx="358" cy="-784.4407" rx="56.59" ry="18"/>
<text text-anchor="middle" x="358" y="-780.7407" font-family="Times,serif" font-size="14.00" fill="#000000">freshdesk</text>
</g>
<!-- freshdesk&#45;&gt;portal -->
<g id="edge13" class="edge">
<title>freshdesk&#45;&gt;portal</title>
<path fill="none" stroke="#0000cc" stroke-dasharray="5,2" d="M358,-756.0216C358,-747.4907 358,-738.1574 358,-729.7114"/>
<polygon fill="#0000cc" stroke="#0000cc" points="354.5001,-756.271 358,-766.2711 361.5001,-756.2711 354.5001,-756.271"/>
</g>
<!-- mailgun -->
<g id="node16" class="node">
<title>mailgun</title>
<ellipse fill="#e6e6e6" stroke="#000000" cx="481" cy="-784.4407" rx="48.1917" ry="18"/>
<text text-anchor="middle" x="481" y="-780.7407" font-family="Times,serif" font-size="14.00" fill="#000000">mailgun</text>
</g>
<!-- mailgun&#45;&gt;portal -->
<g id="edge14" class="edge">
<title>mailgun&#45;&gt;portal</title>
<path fill="none" stroke="#0000cc" stroke-dasharray="5,2" d="M448.7814,-762.9957C430.6571,-750.932 408.1069,-735.9223 390.0158,-723.8806"/>
<polygon fill="#0000cc" stroke="#0000cc" points="447.0205,-766.028 457.2844,-768.6553 450.8991,-760.2008 447.0205,-766.028"/>
</g>
<!-- gcp -->
<g id="node17" class="node">
<title>gcp</title>
<ellipse fill="#e6e6e6" stroke="#000000" cx="575" cy="-784.4407" rx="27.8951" ry="18"/>
<text text-anchor="middle" x="575" y="-780.7407" font-family="Times,serif" font-size="14.00" fill="#000000">gcp</text>
</g>
<!-- gcp&#45;&gt;portal -->
<g id="edge15" class="edge">
<title>gcp&#45;&gt;portal</title>
<path fill="none" stroke="#0000cc" stroke-dasharray="5,2" d="M543.5701,-768.8567C541.6948,-768.0186 539.8282,-767.2069 538,-766.4407 492.4334,-747.343 438.9323,-728.8396 402.1691,-716.7082"/>
<polygon fill="#0000cc" stroke="#0000cc" points="542.336,-772.1426 552.8798,-773.1815 545.2852,-765.7942 542.336,-772.1426"/>
</g>
</g>
</svg>
