<?xml version="1.0" encoding="UTF-8" standalone="no"?>
<!DOCTYPE svg PUBLIC "-//W3C//DTD SVG 1.1//EN"
 "http://www.w3.org/Graphics/SVG/1.1/DTD/svg11.dtd">
<!-- Generated by graphviz version 2.38.0 (20140413.2041)
 -->
<!-- Title: G Pages: 1 -->
<svg width="1601pt" height="881pt"
 viewBox="0.00 0.00 1601.00 881.18" xmlns="http://www.w3.org/2000/svg" xmlns:xlink="http://www.w3.org/1999/xlink">
<g id="graph0" class="graph" transform="scale(1 1) rotate(0) translate(4 877.181)">
<title>G</title>
<polygon fill="white" stroke="none" points="-4,4 -4,-877.181 1597,-877.181 1597,4 -4,4"/>
<g id="clust1" class="cluster"><title>cluster_base</title>
<polygon fill="#f4fff4" stroke="black" points="1373,-451.701 1373,-865.181 1535,-865.181 1535,-451.701 1373,-451.701"/>
</g>
<g id="clust2" class="cluster"><title>cluster_t</title>
<polygon fill="#eeeeff" stroke="black" points="410,-171.48 410,-703.441 1358,-703.441 1358,-171.48 410,-171.48"/>
</g>
<g id="clust3" class="cluster"><title>cluster_ts</title>
<polygon fill="white" stroke="black" points="628,-360.96 628,-608.441 1124,-608.441 1124,-360.96 628,-360.96"/>
</g>
<g id="clust4" class="cluster"><title>cluster_ta</title>
<polygon fill="white" stroke="black" points="1132,-360.96 1132,-695.441 1350,-695.441 1350,-360.96 1132,-360.96"/>
</g>
<g id="clust5" class="cluster"><title>cluster_w</title>
<polygon fill="white" stroke="black" points="418,-179.48 418,-521.441 620,-521.441 620,-179.48 418,-179.48"/>
</g>
<g id="clust6" class="cluster"><title>cluster_supp</title>
<polygon fill="#fff2f2" stroke="black" points="20,-82.7401 20,-339.96 380,-339.96 380,-82.7401 20,-82.7401"/>
</g>
<!-- base -->
<g id="node1" class="node"><title>base</title>
<ellipse fill="#cccccc" stroke="black" cx="1456" cy="-486.571" rx="70.922" ry="26.7407"/>
<text text-anchor="middle" x="1456" y="-490.371" font-family="Times,serif" font-size="14.00">[aggregate]</text>
<text text-anchor="middle" x="1456" y="-475.371" font-family="Times,serif" font-size="14.00">base</text>
</g>
<!-- baseUtil -->
<g id="node3" class="node"><title>baseUtil</title>
<ellipse fill="#bbffbb" stroke="black" cx="1450" cy="-748.441" rx="50.8918" ry="18"/>
<text text-anchor="middle" x="1450" y="-744.741" font-family="Times,serif" font-size="14.00">base&#45;util</text>
</g>
<!-- base&#45;&gt;baseUtil -->
<g id="edge38" class="edge"><title>base&#45;&gt;baseUtil</title>
<path fill="none" stroke="#aaaaaa" stroke-dasharray="5,2" d="M1428.34,-511.656C1414.57,-525.524 1399.33,-544.192 1392,-564.441 1384.44,-585.339 1380.75,-676.893 1394,-703.441 1398.64,-712.733 1406.26,-720.665 1414.41,-727.128"/>
<polygon fill="#aaaaaa" stroke="#aaaaaa" points="1422.65,-733.098 1411.91,-730.872 1418.6,-730.164 1414.55,-727.229 1414.55,-727.229 1414.55,-727.229 1418.6,-730.164 1417.19,-723.586 1422.65,-733.098 1422.65,-733.098"/>
</g>
<!-- baseDb -->
<g id="node4" class="node"><title>baseDb</title>
<ellipse fill="#bbffbb" stroke="black" cx="1450" cy="-669.441" rx="46.5926" ry="18"/>
<text text-anchor="middle" x="1450" y="-665.741" font-family="Times,serif" font-size="14.00">base&#45;db</text>
</g>
<!-- base&#45;&gt;baseDb -->
<g id="edge39" class="edge"><title>base&#45;&gt;baseDb</title>
<path fill="none" stroke="#aaaaaa" stroke-dasharray="5,2" d="M1481.5,-511.688C1494.46,-525.7 1508.93,-544.495 1516,-564.441 1526.25,-593.348 1532.89,-607.209 1517,-633.441 1511.9,-641.854 1504.05,-648.342 1495.48,-653.31"/>
<polygon fill="#aaaaaa" stroke="#aaaaaa" points="1486.39,-657.953 1493.25,-649.398 1490.84,-655.679 1495.3,-653.405 1495.3,-653.405 1495.3,-653.405 1490.84,-655.679 1497.34,-657.413 1486.39,-657.953 1486.39,-657.953"/>
</g>
<!-- baseTest -->
<g id="node5" class="node"><title>baseTest</title>
<ellipse fill="#bbffbb" stroke="black" cx="1454" cy="-582.441" rx="53.0913" ry="18"/>
<text text-anchor="middle" x="1454" y="-578.741" font-family="Times,serif" font-size="14.00">base&#45;test</text>
</g>
<!-- base&#45;&gt;baseTest -->
<g id="edge40" class="edge"><title>base&#45;&gt;baseTest</title>
<path fill="none" stroke="#aaaaaa" stroke-dasharray="5,2" d="M1455.45,-513.47C1455.18,-526.104 1454.86,-541.302 1454.58,-554.12"/>
<polygon fill="#aaaaaa" stroke="#aaaaaa" points="1454.37,-564.219 1450.08,-554.126 1454.47,-559.22 1454.58,-554.221 1454.58,-554.221 1454.58,-554.221 1454.47,-559.22 1459.08,-554.317 1454.37,-564.219 1454.37,-564.219"/>
</g>
<!-- baseRaw -->
<g id="node2" class="node"><title>baseRaw</title>
<ellipse fill="#bbffbb" stroke="black" cx="1453" cy="-830.311" rx="72.25" ry="26.7407"/>
<text text-anchor="middle" x="1453" y="-834.111" font-family="Times,serif" font-size="14.00">base&#45;util&#45;sjs</text>
<text text-anchor="middle" x="1453" y="-819.111" font-family="Times,serif" font-size="14.00">(Scala &amp; JS)</text>
</g>
<!-- baseUtil&#45;&gt;baseRaw -->
<g id="edge1" class="edge"><title>baseUtil&#45;&gt;baseRaw</title>
<path fill="none" stroke="#cc0000" d="M1451.03,-776.963C1451.35,-785.466 1451.7,-794.802 1452.02,-803.207"/>
<polygon fill="#cc0000" stroke="#cc0000" points="1454.52,-776.633 1450.65,-766.771 1447.53,-776.896 1454.52,-776.633"/>
</g>
<!-- baseDb&#45;&gt;baseUtil -->
<g id="edge2" class="edge"><title>baseDb&#45;&gt;baseUtil</title>
<path fill="none" stroke="#cc0000" d="M1450,-697.818C1450,-708.682 1450,-720.838 1450,-730.4"/>
<polygon fill="#cc0000" stroke="#cc0000" points="1453.5,-697.529 1450,-687.529 1446.5,-697.53 1453.5,-697.529"/>
</g>
<!-- baseTest&#45;&gt;baseUtil -->
<g id="edge3" class="edge"><title>baseTest&#45;&gt;baseUtil</title>
<path fill="none" stroke="#cc0000" d="M1497.43,-601.808C1503.67,-606.329 1509.23,-611.824 1513,-618.441 1516.3,-624.234 1513.33,-626.782 1513,-633.441 1511.44,-664.668 1521.05,-676.036 1506,-703.441 1499.27,-715.687 1487.57,-725.695 1476.6,-733.055"/>
<polygon fill="#cc0000" stroke="#cc0000" points="1498.95,-598.627 1488.63,-596.234 1495.21,-604.541 1498.95,-598.627"/>
</g>
<!-- baseTest&#45;&gt;baseDb -->
<g id="edge4" class="edge"><title>baseTest&#45;&gt;baseDb</title>
<path fill="none" stroke="#cc0000" stroke-dasharray="5,2" d="M1449.74,-610.533C1449.44,-613.199 1449.18,-615.869 1449,-618.441 1448.22,-629.353 1448.45,-641.636 1448.89,-651.297"/>
<polygon fill="#cc0000" stroke="#cc0000" points="1453.23,-610.851 1451.07,-600.479 1446.29,-609.934 1453.23,-610.851"/>
<text text-anchor="middle" x="1481" y="-622.241" font-family="Times,serif" font-size="14.00">provided</text>
</g>
<!-- taskmanDb -->
<g id="node6" class="node"><title>taskmanDb</title>
<ellipse fill="#aaaaff" stroke="black" cx="994" cy="-582.441" rx="122.379" ry="18"/>
<text text-anchor="middle" x="994" y="-578.741" font-family="Times,serif" font-size="14.00">taskman&#45;server&#45;schema</text>
</g>
<!-- taskmanDb&#45;&gt;baseDb -->
<g id="edge5" class="edge"><title>taskmanDb&#45;&gt;baseDb</title>
<path fill="none" stroke="#cc0000" d="M1076.58,-598.85C1093.58,-602.023 1111.37,-605.34 1128,-608.441 1228.9,-627.254 1347.59,-649.366 1408.83,-660.772"/>
<polygon fill="#cc0000" stroke="#cc0000" points="1077.15,-595.396 1066.67,-597.002 1075.86,-602.277 1077.15,-595.396"/>
</g>
<!-- taskmanServerImpl -->
<g id="node7" class="node"><title>taskmanServerImpl</title>
<ellipse fill="#aaaaff" stroke="black" cx="871" cy="-486.571" rx="106.681" ry="18"/>
<text text-anchor="middle" x="871" y="-482.871" font-family="Times,serif" font-size="14.00">taskman&#45;server&#45;impl</text>
</g>
<!-- taskmanServerImpl&#45;&gt;taskmanDb -->
<g id="edge16" class="edge"><title>taskmanServerImpl&#45;&gt;taskmanDb</title>
<path fill="none" stroke="#cc0000" d="M900.977,-510.449C922.84,-527.133 951.985,-549.376 971.786,-564.487"/>
<polygon fill="#cc0000" stroke="#cc0000" points="903.063,-507.637 892.99,-504.353 898.816,-513.202 903.063,-507.637"/>
</g>
<!-- taskmanServerLogic -->
<g id="node8" class="node"><title>taskmanServerLogic</title>
<ellipse fill="#aaaaff" stroke="black" cx="745" cy="-582.441" rx="108.581" ry="18"/>
<text text-anchor="middle" x="745" y="-578.741" font-family="Times,serif" font-size="14.00">taskman&#45;server&#45;logic</text>
</g>
<!-- taskmanServerImpl&#45;&gt;taskmanServerLogic -->
<g id="edge14" class="edge"><title>taskmanServerImpl&#45;&gt;taskmanServerLogic</title>
<path fill="none" stroke="#cc0000" d="M840.238,-510.488C817.692,-527.285 787.605,-549.7 767.331,-564.804"/>
<polygon fill="#cc0000" stroke="#cc0000" points="842.546,-513.134 848.474,-504.353 838.363,-507.52 842.546,-513.134"/>
</g>
<!-- taskmanApi -->
<g id="node10" class="node"><title>taskmanApi</title>
<ellipse fill="#cccccc" stroke="black" cx="1219" cy="-395.831" rx="73.5782" ry="26.7407"/>
<text text-anchor="middle" x="1219" y="-399.631" font-family="Times,serif" font-size="14.00">[aggregate]</text>
<text text-anchor="middle" x="1219" y="-384.631" font-family="Times,serif" font-size="14.00">taskman&#45;api</text>
</g>
<!-- taskmanServerImpl&#45;&gt;taskmanApi -->
<g id="edge15" class="edge"><title>taskmanServerImpl&#45;&gt;taskmanApi</title>
<path fill="none" stroke="#cc0000" d="M940.373,-469.336C992.193,-457.03 1064.69,-439.437 1128,-422.701 1139.27,-419.72 1151.29,-416.403 1162.78,-413.165"/>
<polygon fill="#cc0000" stroke="#cc0000" points="939.543,-465.935 930.62,-471.647 941.158,-472.747 939.543,-465.935"/>
</g>
<!-- taskmanApiLogic -->
<g id="node12" class="node"><title>taskmanApiLogic</title>
<ellipse fill="#cceeff" stroke="black" cx="1249" cy="-669.441" rx="92.8835" ry="18"/>
<text text-anchor="middle" x="1249" y="-665.741" font-family="Times,serif" font-size="14.00">taskman&#45;api&#45;logic</text>
</g>
<!-- taskmanServerLogic&#45;&gt;taskmanApiLogic -->
<g id="edge13" class="edge"><title>taskmanServerLogic&#45;&gt;taskmanApiLogic</title>
<path fill="none" stroke="#cc0000" d="M816.89,-599.324C832.085,-602.498 848.047,-605.697 863,-608.441 971.562,-628.363 1098.1,-647.205 1175.88,-658.287"/>
<polygon fill="#cc0000" stroke="#cc0000" points="817.54,-595.885 807.033,-597.247 816.096,-602.734 817.54,-595.885"/>
</g>
<!-- taskmanServer -->
<g id="node9" class="node"><title>taskmanServer</title>
<ellipse fill="#cccccc" stroke="black" cx="871" cy="-395.831" rx="90.5193" ry="26.7407"/>
<text text-anchor="middle" x="871" y="-399.631" font-family="Times,serif" font-size="14.00">[aggregate]</text>
<text text-anchor="middle" x="871" y="-384.631" font-family="Times,serif" font-size="14.00">taskman&#45;server</text>
</g>
<!-- taskmanServer&#45;&gt;taskmanDb -->
<g id="edge33" class="edge"><title>taskmanServer&#45;&gt;taskmanDb</title>
<path fill="none" stroke="#aaaaaa" stroke-dasharray="5,2" d="M937.539,-414.055C956.583,-422.3 975.324,-434.316 987,-451.701 1007.41,-482.086 1004.76,-526.079 1000.08,-554.22"/>
<polygon fill="#aaaaaa" stroke="#aaaaaa" points="998.231,-564.168 995.634,-553.514 999.145,-559.252 1000.06,-554.336 1000.06,-554.336 1000.06,-554.336 999.145,-559.252 1004.48,-555.158 998.231,-564.168 998.231,-564.168"/>
</g>
<!-- taskmanServer&#45;&gt;taskmanServerImpl -->
<g id="edge17" class="edge"><title>taskmanServer&#45;&gt;taskmanServerImpl</title>
<path fill="none" stroke="#cc0000" d="M864.353,-433.017C864.04,-445.317 864.44,-458.487 865.554,-468.566"/>
<polygon fill="#cc0000" stroke="#cc0000" points="867.852,-433.116 864.784,-422.976 860.858,-432.816 867.852,-433.116"/>
</g>
<!-- taskmanServer&#45;&gt;taskmanServerImpl -->
<g id="edge32" class="edge"><title>taskmanServer&#45;&gt;taskmanServerImpl</title>
<path fill="none" stroke="#aaaaaa" stroke-dasharray="5,2" d="M877.216,-422.976C877.907,-434.134 877.927,-447.153 877.276,-458.419"/>
<polygon fill="#aaaaaa" stroke="#aaaaaa" points="876.446,-468.566 872.777,-458.232 876.854,-463.582 877.262,-458.599 877.262,-458.599 877.262,-458.599 876.854,-463.582 881.747,-458.966 876.446,-468.566 876.446,-468.566"/>
</g>
<!-- taskmanServer&#45;&gt;taskmanServerLogic -->
<g id="edge31" class="edge"><title>taskmanServer&#45;&gt;taskmanServerLogic</title>
<path fill="none" stroke="#aaaaaa" stroke-dasharray="5,2" d="M804.701,-414.218C785.67,-422.472 766.875,-434.452 755,-451.701 734.212,-481.895 735.76,-525.939 739.68,-554.143"/>
<polygon fill="#aaaaaa" stroke="#aaaaaa" points="741.257,-564.115 735.25,-554.941 740.476,-559.176 739.695,-554.238 739.695,-554.238 739.695,-554.238 740.476,-559.176 744.139,-553.535 741.257,-564.115 741.257,-564.115"/>
</g>
<!-- taskmanApiImpl -->
<g id="node11" class="node"><title>taskmanApiImpl</title>
<ellipse fill="#cceeff" stroke="black" cx="1231" cy="-486.571" rx="90.9839" ry="18"/>
<text text-anchor="middle" x="1231" y="-482.871" font-family="Times,serif" font-size="14.00">taskman&#45;api&#45;impl</text>
</g>
<!-- taskmanApi&#45;&gt;taskmanApiImpl -->
<g id="edge12" class="edge"><title>taskmanApi&#45;&gt;taskmanApiImpl</title>
<path fill="none" stroke="#cc0000" d="M1217.25,-433.017C1218.6,-445.317 1220.78,-458.487 1223.25,-468.566"/>
<polygon fill="#cc0000" stroke="#cc0000" points="1220.72,-432.611 1216.32,-422.976 1213.75,-433.255 1220.72,-432.611"/>
</g>
<!-- taskmanApi&#45;&gt;taskmanApiImpl -->
<g id="edge30" class="edge"><title>taskmanApi&#45;&gt;taskmanApiImpl</title>
<path fill="none" stroke="#aaaaaa" stroke-dasharray="5,2" d="M1228.66,-422.498C1230.88,-433.67 1232.69,-446.778 1233.58,-458.141"/>
<polygon fill="#aaaaaa" stroke="#aaaaaa" points="1234.14,-468.382 1229.1,-458.642 1233.87,-463.389 1233.6,-458.397 1233.6,-458.397 1233.6,-458.397 1233.87,-463.389 1238.09,-458.151 1234.14,-468.382 1234.14,-468.382"/>
</g>
<!-- taskmanApi&#45;&gt;taskmanApiLogic -->
<g id="edge29" class="edge"><title>taskmanApi&#45;&gt;taskmanApiLogic</title>
<path fill="none" stroke="#aaaaaa" stroke-dasharray="5,2" d="M1278.26,-411.803C1298.56,-420.077 1319.14,-432.685 1331,-451.701 1347.4,-478.001 1338.8,-491.443 1331,-521.441 1318.92,-567.888 1288.59,-615.238 1268.4,-643.218"/>
<polygon fill="#aaaaaa" stroke="#aaaaaa" points="1262.24,-651.596 1264.54,-640.874 1265.2,-647.569 1268.16,-643.541 1268.16,-643.541 1268.16,-643.541 1265.2,-647.569 1271.79,-646.208 1262.24,-651.596 1262.24,-651.596"/>
</g>
<!-- taskmanApiImpl&#45;&gt;baseDb -->
<g id="edge8" class="edge"><title>taskmanApiImpl&#45;&gt;baseDb</title>
<path fill="none" stroke="#cc0000" d="M1183.27,-506.545C1166.13,-512.48 1146.46,-518.295 1128,-521.441 1114.2,-523.793 633.803,-521.442 624,-531.441 600.042,-555.878 600.523,-583.541 624,-608.441 679.739,-667.559 1273.3,-641.952 1354,-651.441 1372.32,-653.595 1392.45,-656.997 1409.52,-660.193"/>
<polygon fill="#cc0000" stroke="#cc0000" points="1184.81,-509.714 1193.05,-503.056 1182.46,-503.121 1184.81,-509.714"/>
</g>
<!-- taskmanApiImpl&#45;&gt;baseTest -->
<g id="edge11" class="edge"><title>taskmanApiImpl&#45;&gt;baseTest</title>
<path fill="none" stroke="#111111" stroke-dasharray="5,2" d="M1277.26,-507.045C1320.48,-525.238 1383.88,-551.923 1421.83,-567.899"/>
<polygon fill="#111111" stroke="#111111" points="1278.4,-503.725 1267.82,-503.071 1275.68,-510.177 1278.4,-503.725"/>
<text text-anchor="middle" x="1384" y="-535.241" font-family="Times,serif" font-size="14.00">test</text>
</g>
<!-- taskmanApiImpl&#45;&gt;taskmanDb -->
<g id="edge10" class="edge"><title>taskmanApiImpl&#45;&gt;taskmanDb</title>
<path fill="none" stroke="#111111" stroke-dasharray="5,2" d="M1182.58,-506.747C1138.94,-524.035 1075.49,-549.165 1034.48,-565.408"/>
<polygon fill="#111111" stroke="#111111" points="1184.12,-509.903 1192.13,-502.966 1181.54,-503.395 1184.12,-509.903"/>
<text text-anchor="middle" x="1134" y="-535.241" font-family="Times,serif" font-size="14.00">test</text>
</g>
<!-- taskmanApiImpl&#45;&gt;taskmanApiLogic -->
<g id="edge7" class="edge"><title>taskmanApiImpl&#45;&gt;taskmanApiLogic</title>
<path fill="none" stroke="#cc0000" d="M1243.72,-514.104C1249.98,-528.612 1256.84,-547.111 1260,-564.441 1265.54,-594.806 1258.87,-630.704 1253.76,-651.396"/>
<polygon fill="#cc0000" stroke="#cc0000" points="1246.82,-512.46 1239.54,-504.762 1240.43,-515.32 1246.82,-512.46"/>
</g>
<!-- taskmanApiImpl&#45;&gt;taskmanApiLogic -->
<g id="edge9" class="edge"><title>taskmanApiImpl&#45;&gt;taskmanApiLogic</title>
<path fill="none" stroke="#111111" stroke-dasharray="5,2" d="M1217.48,-513.802C1206.56,-538.57 1194.57,-576.566 1205,-608.441 1210.35,-624.768 1222.01,-640.325 1231.99,-651.505"/>
<polygon fill="#111111" stroke="#111111" points="1220.68,-515.226 1221.72,-504.683 1214.33,-512.274 1220.68,-515.226"/>
<text text-anchor="middle" x="1230.5" y="-578.741" font-family="Times,serif" font-size="14.00">test&#45;lib</text>
</g>
<!-- taskmanApiLogic&#45;&gt;baseUtil -->
<g id="edge6" class="edge"><title>taskmanApiLogic&#45;&gt;baseUtil</title>
<path fill="none" stroke="#cc0000" d="M1298.75,-689.499C1335.58,-703.607 1384.73,-722.437 1416.86,-734.746"/>
<polygon fill="#cc0000" stroke="#cc0000" points="1299.78,-686.147 1289.19,-685.838 1297.28,-692.684 1299.78,-686.147"/>
</g>
<!-- webapp -->
<g id="node13" class="node"><title>webapp</title>
<ellipse fill="#ffff80" stroke="black" cx="499" cy="-214.35" rx="70.922" ry="26.7407"/>
<text text-anchor="middle" x="499" y="-218.15" font-family="Times,serif" font-size="14.00">[aggregate]</text>
<text text-anchor="middle" x="499" y="-203.15" font-family="Times,serif" font-size="14.00">webapp</text>
</g>
<!-- webappBack -->
<g id="node14" class="node"><title>webappBack</title>
<ellipse fill="#99ccee" stroke="black" cx="533" cy="-305.09" rx="79.0865" ry="18"/>
<text text-anchor="middle" x="533" y="-301.39" font-family="Times,serif" font-size="14.00">webapp&#45;server</text>
</g>
<!-- webapp&#45;&gt;webappBack -->
<g id="edge37" class="edge"><title>webapp&#45;&gt;webappBack</title>
<path fill="none" stroke="#aaaaaa" stroke-dasharray="5,2" d="M508.834,-241.018C513.203,-252.42 518.344,-265.839 522.759,-277.362"/>
<polygon fill="#aaaaaa" stroke="#aaaaaa" points="526.414,-286.902 518.634,-279.173 524.625,-282.232 522.836,-277.563 522.836,-277.563 522.836,-277.563 524.625,-282.232 527.039,-275.953 526.414,-286.902 526.414,-286.902"/>
</g>
<!-- webappFront -->
<g id="node15" class="node"><title>webappFront</title>
<ellipse fill="#99ccee" stroke="black" cx="509" cy="-395.831" rx="82.9636" ry="26.7407"/>
<text text-anchor="middle" x="509" y="-399.631" font-family="Times,serif" font-size="14.00">webapp&#45;client</text>
<text text-anchor="middle" x="509" y="-384.631" font-family="Times,serif" font-size="14.00">(JS)</text>
</g>
<!-- webapp&#45;&gt;webappFront -->
<g id="edge36" class="edge"><title>webapp&#45;&gt;webappFront</title>
<path fill="none" stroke="#aaaaaa" stroke-dasharray="5,2" d="M471.422,-239.186C461.047,-249.933 450.449,-263.514 445,-278.22 435.467,-303.951 433.535,-315.03 445,-339.96 449.311,-349.335 456.101,-357.707 463.678,-364.919"/>
<polygon fill="#aaaaaa" stroke="#aaaaaa" points="471.455,-371.737 460.969,-368.528 467.696,-368.441 463.936,-365.145 463.936,-365.145 463.936,-365.145 467.696,-368.441 466.903,-361.761 471.455,-371.737 471.455,-371.737"/>
</g>
<!-- webappBack&#45;&gt;baseDb -->
<g id="edge18" class="edge"><title>webappBack:e&#45;&gt;baseDb</title>
<path fill="none" stroke="#cc0000" d="M615.61,-315.05C615.46,-324.74 614.239,-338.249 616,-339.96 630.709,-354.251 1333.59,-358.96 1354,-360.96 1444.16,-369.797 1555,-304.238 1555,-394.831 1555,-394.831 1555,-394.831 1555,-583.441 1555,-620.615 1514.75,-644.34 1484.09,-657.02"/>
<polygon fill="#cc0000" stroke="#cc0000" points="619.051,-314.403 614,-305.09 612.141,-315.521 619.051,-314.403"/>
</g>
<!-- webappBack&#45;&gt;taskmanApi -->
<g id="edge19" class="edge"><title>webappBack&#45;&gt;taskmanApi</title>
<path fill="none" stroke="#cc0000" d="M573.836,-325.623C587.016,-331.142 601.875,-336.565 616,-339.96 726.719,-366.578 1016.2,-339.316 1128,-360.96 1143.23,-363.908 1159.26,-369.112 1173.56,-374.569"/>
<polygon fill="#cc0000" stroke="#cc0000" points="575.137,-322.372 564.57,-321.614 572.358,-328.797 575.137,-322.372"/>
</g>
<!-- webappBack&#45;&gt;webappFront -->
<g id="edge22" class="edge"><title>webappBack&#45;&gt;webappFront</title>
<path fill="none" stroke="#cc0000" stroke-dasharray="5,2" d="M525.704,-333.068C522.615,-344.489 519.032,-357.738 515.978,-369.029"/>
<polygon fill="#cc0000" stroke="#cc0000" points="529.14,-333.767 528.373,-323.2 522.383,-331.94 529.14,-333.767"/>
</g>
<!-- webappShared -->
<g id="node16" class="node"><title>webappShared</title>
<ellipse fill="#99ccee" stroke="black" cx="522" cy="-486.571" rx="77.5641" ry="26.7407"/>
<text text-anchor="middle" x="522" y="-490.371" font-family="Times,serif" font-size="14.00">webapp&#45;base</text>
<text text-anchor="middle" x="522" y="-475.371" font-family="Times,serif" font-size="14.00">(Scala &amp; JS)</text>
</g>
<!-- webappBack&#45;&gt;webappShared -->
<g id="edge21" class="edge"><title>webappBack&#45;&gt;webappShared</title>
<path fill="none" stroke="#cc0000" d="M571.634,-327.835C583.268,-336.508 594.63,-347.635 601,-360.96 612.835,-385.717 612.918,-397.984 601,-422.701 592.854,-439.594 577.716,-453.349 562.855,-463.638"/>
<polygon fill="#cc0000" stroke="#cc0000" points="573.39,-324.794 563.182,-321.958 569.394,-330.541 573.39,-324.794"/>
</g>
<!-- webappFront&#45;&gt;webappShared -->
<g id="edge20" class="edge"><title>webappFront&#45;&gt;webappShared</title>
<path fill="none" stroke="#cc0000" d="M514.315,-433.109C515.616,-441.992 516.983,-451.323 518.197,-459.613"/>
<polygon fill="#cc0000" stroke="#cc0000" points="517.743,-432.363 512.83,-422.976 510.817,-433.377 517.743,-432.363"/>
</g>
<!-- webappShared&#45;&gt;baseRaw -->
<g id="edge23" class="edge"><title>webappShared&#45;&gt;baseRaw</title>
<path fill="none" stroke="#cc0000" d="M535.539,-523.121C540.984,-540.45 546,-561.755 546,-581.441 546,-581.441 546,-581.441 546,-749.441 546,-791.306 1167.28,-818.582 1381.45,-826.741"/>
<polygon fill="#cc0000" stroke="#cc0000" points="538.79,-521.807 532.317,-513.419 532.147,-524.012 538.79,-521.807"/>
</g>
<!-- taskman -->
<g id="node17" class="node"><title>taskman</title>
<ellipse fill="#ffff80" stroke="black" cx="871" cy="-305.09" rx="70.922" ry="26.7407"/>
<text text-anchor="middle" x="871" y="-308.89" font-family="Times,serif" font-size="14.00">[aggregate]</text>
<text text-anchor="middle" x="871" y="-293.89" font-family="Times,serif" font-size="14.00">taskman</text>
</g>
<!-- taskman&#45;&gt;taskmanServer -->
<g id="edge35" class="edge"><title>taskman&#45;&gt;taskmanServer</title>
<path fill="none" stroke="#aaaaaa" stroke-dasharray="5,2" d="M871,-332.235C871,-340.54 871,-349.876 871,-358.752"/>
<polygon fill="#aaaaaa" stroke="#aaaaaa" points="871,-368.872 866.5,-358.872 871,-363.872 871,-358.872 871,-358.872 871,-358.872 871,-363.872 875.5,-358.872 871,-368.872 871,-368.872"/>
</g>
<!-- taskman&#45;&gt;taskmanApi -->
<g id="edge34" class="edge"><title>taskman&#45;&gt;taskmanApi</title>
<path fill="none" stroke="#aaaaaa" stroke-dasharray="5,2" d="M934.482,-316.972C986.89,-326.591 1062.95,-342.02 1128,-360.96 1138.89,-364.131 1150.34,-367.976 1161.31,-371.92"/>
<polygon fill="#aaaaaa" stroke="#aaaaaa" points="1170.8,-375.397 1159.86,-376.18 1166.1,-373.676 1161.41,-371.955 1161.41,-371.955 1161.41,-371.955 1166.1,-373.676 1162.96,-367.73 1170.8,-375.397 1170.8,-375.397"/>
</g>
<!-- benchmark -->
<g id="node18" class="node"><title>benchmark</title>
<ellipse fill="#ffffdd" stroke="black" cx="285" cy="-117.61" rx="70.922" ry="26.7407"/>
<text text-anchor="middle" x="285" y="-121.41" font-family="Times,serif" font-size="14.00">[aggregate]</text>
<text text-anchor="middle" x="285" y="-106.41" font-family="Times,serif" font-size="14.00">benchmark</text>
</g>
<!-- benchmarkJvm -->
<g id="node19" class="node"><title>benchmarkJvm</title>
<ellipse fill="#ffcccc" stroke="black" cx="285" cy="-214.35" rx="87.1846" ry="18"/>
<text text-anchor="middle" x="285" y="-210.65" font-family="Times,serif" font-size="14.00">benchmark JVM</text>
</g>
<!-- benchmark&#45;&gt;benchmarkJvm -->
<g id="edge41" class="edge"><title>benchmark&#45;&gt;benchmarkJvm</title>
<path fill="none" stroke="#aaaaaa" stroke-dasharray="5,2" d="M285,-144.498C285,-157.339 285,-172.851 285,-185.899"/>
<polygon fill="#aaaaaa" stroke="#aaaaaa" points="285,-196.166 280.5,-186.166 285,-191.166 285,-186.166 285,-186.166 285,-186.166 285,-191.166 289.5,-186.166 285,-196.166 285,-196.166"/>
</g>
<!-- benchmarkJs -->
<g id="node20" class="node"><title>benchmarkJs</title>
<ellipse fill="#ffcccc" stroke="black" cx="104" cy="-214.35" rx="76.0865" ry="18"/>
<text text-anchor="middle" x="104" y="-210.65" font-family="Times,serif" font-size="14.00">benchmark JS</text>
</g>
<!-- benchmark&#45;&gt;benchmarkJs -->
<g id="edge42" class="edge"><title>benchmark&#45;&gt;benchmarkJs</title>
<path fill="none" stroke="#aaaaaa" stroke-dasharray="5,2" d="M244.38,-139.872C213.965,-155.792 172.619,-177.433 142.682,-193.103"/>
<polygon fill="#aaaaaa" stroke="#aaaaaa" points="133.782,-197.761 140.555,-189.137 138.212,-195.443 142.642,-193.124 142.642,-193.124 142.642,-193.124 138.212,-195.443 144.729,-197.111 133.782,-197.761 133.782,-197.761"/>
</g>
<!-- benchmarkJvm&#45;&gt;webappBack -->
<g id="edge26" class="edge"><title>benchmarkJvm&#45;&gt;webappBack</title>
<path fill="none" stroke="#cc0000" d="M327.334,-235.607C345.222,-243.785 366.411,-252.98 386,-260.22 417.976,-272.039 454.726,-283.007 483.482,-291.02"/>
<polygon fill="#cc0000" stroke="#cc0000" points="328.313,-232.204 317.767,-231.187 325.377,-238.558 328.313,-232.204"/>
</g>
<!-- benchmarkShared -->
<g id="node21" class="node"><title>benchmarkShared</title>
<ellipse fill="#ffcccc" stroke="black" cx="169" cy="-305.09" rx="69.0935" ry="26.7407"/>
<text text-anchor="middle" x="169" y="-308.89" font-family="Times,serif" font-size="14.00">benchmark</text>
<text text-anchor="middle" x="169" y="-293.89" font-family="Times,serif" font-size="14.00">base</text>
</g>
<!-- benchmarkJvm&#45;&gt;benchmarkShared -->
<g id="edge24" class="edge"><title>benchmarkJvm&#45;&gt;benchmarkShared</title>
<path fill="none" stroke="#cc0000" d="M255.452,-237.954C238.36,-251.03 216.886,-267.457 199.616,-280.669"/>
<polygon fill="#cc0000" stroke="#cc0000" points="257.637,-240.69 263.453,-231.834 253.384,-235.13 257.637,-240.69"/>
</g>
<!-- benchmarkJs&#45;&gt;webappFront -->
<g id="edge27" class="edge"><title>benchmarkJs&#45;&gt;webappFront</title>
<path fill="none" stroke="#cc0000" d="M147.632,-234.472C175.966,-246.904 213.687,-263.484 247,-278.22 322.128,-311.454 409.251,-350.29 461.698,-373.7"/>
<polygon fill="#cc0000" stroke="#cc0000" points="148.967,-231.236 138.403,-230.424 146.155,-237.646 148.967,-231.236"/>
</g>
<!-- benchmarkJs&#45;&gt;benchmarkShared -->
<g id="edge25" class="edge"><title>benchmarkJs&#45;&gt;benchmarkShared</title>
<path fill="none" stroke="#cc0000" d="M122.588,-240.727C131.376,-252.725 141.838,-267.008 150.602,-278.972"/>
<polygon fill="#cc0000" stroke="#cc0000" points="125.265,-238.459 116.533,-232.46 119.618,-242.596 125.265,-238.459"/>
</g>
<!-- utils -->
<g id="node22" class="node"><title>utils</title>
<ellipse fill="#ffffdd" stroke="black" cx="112" cy="-117.61" rx="31.3957" ry="18"/>
<text text-anchor="middle" x="112" y="-113.91" font-family="Times,serif" font-size="14.00">utils</text>
</g>
<!-- utils&#45;&gt;webappShared -->
<g id="edge28" class="edge"><title>utils&#45;&gt;webappShared</title>
<path fill="none" stroke="#cc0000" d="M76.3978,-131.468C43.6038,-145.871 0,-172.67 0,-213.35 0,-213.35 0,-213.35 0,-396.831 0,-441.529 301.321,-469.531 446.097,-480.406"/>
<polygon fill="#cc0000" stroke="#cc0000" points="77.8636,-134.649 85.741,-127.564 75.1647,-128.19 77.8636,-134.649"/>
</g>
<!-- root -->
<g id="node23" class="node"><title>root</title>
<ellipse fill="#cccccc" stroke="black" cx="400" cy="-26.8701" rx="70.922" ry="26.7407"/>
<text text-anchor="middle" x="400" y="-30.6701" font-family="Times,serif" font-size="14.00">[aggregate]</text>
<text text-anchor="middle" x="400" y="-15.6701" font-family="Times,serif" font-size="14.00">root</text>
</g>
<!-- root&#45;&gt;base -->
<g id="edge43" class="edge"><title>root&#45;&gt;base</title>
<path fill="none" stroke="#aaaaaa" stroke-dasharray="5,2" d="M470.614,-29.404C726.893,-35.4295 1593,-59.9821 1593,-116.61 1593,-116.61 1593,-116.61 1593,-396.831 1593,-432.965 1559.01,-455.119 1524.89,-468.255"/>
<polygon fill="#aaaaaa" stroke="#aaaaaa" points="1515.29,-471.725 1523.17,-464.093 1520,-470.025 1524.7,-468.325 1524.7,-468.325 1524.7,-468.325 1520,-470.025 1526.23,-472.557 1515.29,-471.725 1515.29,-471.725"/>
</g>
<!-- root&#45;&gt;webapp -->
<g id="edge44" class="edge"><title>root&#45;&gt;webapp</title>
<path fill="none" stroke="#aaaaaa" stroke-dasharray="5,2" d="M413.558,-53.2714C430.913,-85.7858 461.055,-142.26 480.506,-178.701"/>
<polygon fill="#aaaaaa" stroke="#aaaaaa" points="485.447,-187.959 476.769,-181.256 483.093,-183.548 480.739,-179.137 480.739,-179.137 480.739,-179.137 483.093,-183.548 484.708,-177.018 485.447,-187.959 485.447,-187.959"/>
</g>
<!-- root&#45;&gt;taskman -->
<g id="edge45" class="edge"><title>root&#45;&gt;taskman</title>
<path fill="none" stroke="#aaaaaa" stroke-dasharray="5,2" d="M397.805,-53.9265C394.123,-104.809 389.336,-214.734 414,-241.22 426.803,-254.969 666.428,-282.347 793.438,-295.982"/>
<polygon fill="#aaaaaa" stroke="#aaaaaa" points="803.502,-297.059 793.08,-300.47 798.531,-296.527 793.559,-295.995 793.559,-295.995 793.559,-295.995 798.531,-296.527 794.038,-291.521 803.502,-297.059 803.502,-297.059"/>
</g>
<!-- root&#45;&gt;benchmark -->
<g id="edge46" class="edge"><title>root&#45;&gt;benchmark</title>
<path fill="none" stroke="#aaaaaa" stroke-dasharray="5,2" d="M369.785,-51.1855C355.635,-62.1042 338.616,-75.2373 323.55,-86.8626"/>
<polygon fill="#aaaaaa" stroke="#aaaaaa" points="315.412,-93.1424 320.58,-83.4705 319.371,-90.0878 323.329,-87.0332 323.329,-87.0332 323.329,-87.0332 319.371,-90.0878 326.078,-90.5958 315.412,-93.1424 315.412,-93.1424"/>
</g>
<!-- root&#45;&gt;utils -->
<g id="edge47" class="edge"><title>root&#45;&gt;utils</title>
<path fill="none" stroke="#aaaaaa" stroke-dasharray="5,2" d="M342.494,-42.8355C303.481,-53.2853 250.859,-67.9604 205,-82.7401 185.586,-88.9969 164.181,-96.7336 146.805,-103.232"/>
<polygon fill="#aaaaaa" stroke="#aaaaaa" points="137.085,-106.895 144.856,-99.1578 141.764,-105.132 146.443,-103.369 146.443,-103.369 146.443,-103.369 141.764,-105.132 148.03,-107.58 137.085,-106.895 137.085,-106.895"/>
</g>
</g>
</svg>
