<?xml version="1.0" encoding="UTF-8" standalone="no"?>
<!DOCTYPE svg PUBLIC "-//W3C//DTD SVG 1.1//EN"
 "http://www.w3.org/Graphics/SVG/1.1/DTD/svg11.dtd">
<!-- Generated by graphviz version 2.38.0 (20140413.2041)
 -->
<!-- Title: G Pages: 1 -->
<svg width="2182pt" height="1392pt"
 viewBox="0.00 0.00 2182.00 1392.10" xmlns="http://www.w3.org/2000/svg" xmlns:xlink="http://www.w3.org/1999/xlink">
<g id="graph0" class="graph" transform="scale(1 1) rotate(0) translate(4 1388.1)">
<title>G</title>
<polygon fill="white" stroke="none" points="-4,4 -4,-1388.1 2178,-1388.1 2178,4 -4,4"/>
<g id="clust1" class="cluster"><title>cluster_base</title>
<polygon fill="#f4fff4" stroke="black" points="20,-909.401 20,-1376.1 244,-1376.1 244,-909.401 20,-909.401"/>
</g>
<g id="clust2" class="cluster"><title>cluster_t</title>
<polygon fill="#eeeeff" stroke="black" points="252,-171.48 252,-1091.88 1748,-1091.88 1748,-171.48 252,-171.48"/>
</g>
<g id="clust3" class="cluster"><title>cluster_ts</title>
<polygon fill="white" stroke="black" points="1244,-699.921 1244,-970.271 1740,-970.271 1740,-699.921 1244,-699.921"/>
</g>
<g id="clust4" class="cluster"><title>cluster_ta</title>
<polygon fill="white" stroke="black" points="260,-804.661 260,-1075.01 478,-1075.01 478,-804.661 260,-804.661"/>
</g>
<g id="clust5" class="cluster"><title>cluster_w</title>
<polygon fill="white" stroke="black" points="486,-179.48 486,-1083.88 1226,-1083.88 1226,-179.48 486,-179.48"/>
</g>
<g id="clust6" class="cluster"><title>cluster_supp</title>
<polygon fill="#fff2f2" stroke="black" points="1756,-82.7401 1756,-339.96 2116,-339.96 2116,-82.7401 1756,-82.7401"/>
</g>
<!-- base -->
<g id="node1" class="node"><title>base</title>
<ellipse fill="#cccccc" stroke="black" cx="99" cy="-944.271" rx="70.922" ry="26.7407"/>
<text text-anchor="middle" x="99" y="-948.071" font-family="Times,serif" font-size="14.00">[aggregate]</text>
<text text-anchor="middle" x="99" y="-933.071" font-family="Times,serif" font-size="14.00">base</text>
</g>
<!-- baseMacro -->
<g id="node2" class="node"><title>baseMacro</title>
<ellipse fill="#bbffbb" stroke="black" cx="107" cy="-1341.23" rx="73.5782" ry="26.7407"/>
<text text-anchor="middle" x="107" y="-1345.03" font-family="Times,serif" font-size="14.00">base&#45;macro</text>
<text text-anchor="middle" x="107" y="-1330.03" font-family="Times,serif" font-size="14.00">(Scala &amp; JS)</text>
</g>
<!-- base&#45;&gt;baseMacro -->
<g id="edge69" class="edge"><title>base&#45;&gt;baseMacro</title>
<path fill="none" stroke="#aaaaaa" stroke-dasharray="5,2" d="M70.5283,-969.213C51.1484,-988.309 29,-1016.93 29,-1048.01 29,-1048.01 29,-1048.01 29,-1251.49 29,-1275.33 45.0713,-1295.81 62.6237,-1311.07"/>
<polygon fill="#aaaaaa" stroke="#aaaaaa" points="70.7402,-1317.71 60.1503,-1314.86 66.8697,-1314.54 62.9991,-1311.38 62.9991,-1311.38 62.9991,-1311.38 66.8697,-1314.54 65.8479,-1307.89 70.7402,-1317.71 70.7402,-1317.71"/>
</g>
<!-- baseUtil -->
<g id="node3" class="node"><title>baseUtil</title>
<ellipse fill="#bbffbb" stroke="black" cx="122" cy="-1250.49" rx="73.5782" ry="26.7407"/>
<text text-anchor="middle" x="122" y="-1254.29" font-family="Times,serif" font-size="14.00">base&#45;util</text>
<text text-anchor="middle" x="122" y="-1239.29" font-family="Times,serif" font-size="14.00">(Scala &amp; JS)</text>
</g>
<!-- base&#45;&gt;baseUtil -->
<g id="edge66" class="edge"><title>base&#45;&gt;baseUtil</title>
<path fill="none" stroke="#aaaaaa" stroke-dasharray="5,2" d="M84.7081,-970.728C81.8237,-976.638 79.0514,-982.999 77,-989.141 49.0805,-1072.73 25.231,-1105.21 59,-1186.62 64.0455,-1198.78 72.713,-1209.82 82.0321,-1219.12"/>
<polygon fill="#aaaaaa" stroke="#aaaaaa" points="89.5887,-1226.2 79.215,-1222.65 85.9404,-1222.79 82.2922,-1219.37 82.2922,-1219.37 82.2922,-1219.37 85.9404,-1222.79 85.3694,-1216.08 89.5887,-1226.2 89.5887,-1226.2"/>
</g>
<!-- baseDb -->
<g id="node4" class="node"><title>baseDb</title>
<ellipse fill="#bbffbb" stroke="black" cx="119" cy="-1159.75" rx="50.8235" ry="26.7407"/>
<text text-anchor="middle" x="119" y="-1163.55" font-family="Times,serif" font-size="14.00">base&#45;db</text>
<text text-anchor="middle" x="119" y="-1148.55" font-family="Times,serif" font-size="14.00">(JVM)</text>
</g>
<!-- base&#45;&gt;baseDb -->
<g id="edge67" class="edge"><title>base&#45;&gt;baseDb</title>
<path fill="none" stroke="#aaaaaa" stroke-dasharray="5,2" d="M89.2867,-971.116C79.5679,-1000.74 67.5762,-1050.53 79,-1091.88 82.2598,-1103.68 88.2131,-1115.49 94.5483,-1125.84"/>
<polygon fill="#aaaaaa" stroke="#aaaaaa" points="100.156,-1134.51 90.9474,-1128.56 97.4411,-1130.31 94.7264,-1126.11 94.7264,-1126.11 94.7264,-1126.11 97.4411,-1130.31 98.5054,-1123.67 100.156,-1134.51 100.156,-1134.51"/>
</g>
<!-- baseTest -->
<g id="node5" class="node"><title>baseTest</title>
<ellipse fill="white" stroke="darkgreen" cx="162" cy="-1049.01" rx="73.5782" ry="26.7407"/>
<text text-anchor="middle" x="162" y="-1052.81" font-family="Times,serif" font-size="14.00">base&#45;test</text>
<text text-anchor="middle" x="162" y="-1037.81" font-family="Times,serif" font-size="14.00">(Scala &amp; JS)</text>
</g>
<!-- base&#45;&gt;baseTest -->
<g id="edge68" class="edge"><title>base&#45;&gt;baseTest</title>
<path fill="none" stroke="#aaaaaa" stroke-dasharray="5,2" d="M114.573,-970.668C122.524,-983.634 132.312,-999.596 140.927,-1013.65"/>
<polygon fill="#aaaaaa" stroke="#aaaaaa" points="146.388,-1022.55 137.324,-1016.38 143.774,-1018.29 141.16,-1014.03 141.16,-1014.03 141.16,-1014.03 143.774,-1018.29 144.996,-1011.67 146.388,-1022.55 146.388,-1022.55"/>
</g>
<!-- baseUtil&#45;&gt;baseMacro -->
<g id="edge1" class="edge"><title>baseUtil&#45;&gt;baseMacro</title>
<path fill="none" stroke="#cc0000" d="M117.581,-1277.64C116.177,-1285.94 114.599,-1295.28 113.098,-1304.15"/>
<polygon fill="#cc0000" stroke="#cc0000" points="109.603,-1303.83 111.388,-1314.27 116.506,-1305 109.603,-1303.83"/>
</g>
<!-- baseDb&#45;&gt;baseUtil -->
<g id="edge2" class="edge"><title>baseDb&#45;&gt;baseUtil</title>
<path fill="none" stroke="#cc0000" d="M119.884,-1186.9C120.165,-1195.2 120.48,-1204.54 120.78,-1213.41"/>
<polygon fill="#cc0000" stroke="#cc0000" points="117.286,-1213.66 121.122,-1223.53 124.282,-1213.42 117.286,-1213.66"/>
</g>
<!-- baseTest&#45;&gt;baseUtil -->
<g id="edge3" class="edge"><title>baseTest&#45;&gt;baseUtil</title>
<path fill="none" stroke="#111111" d="M175.654,-1075.47C179.075,-1083.1 182.263,-1091.64 184,-1099.88 188.811,-1122.71 194.936,-1149.24 179,-1186.62 174.079,-1198.16 166.125,-1208.98 157.7,-1218.28"/>
<polygon fill="#111111" stroke="#111111" points="154.963,-1216.08 150.569,-1225.72 160.016,-1220.93 154.963,-1216.08"/>
</g>
<!-- baseTest&#45;&gt;baseDb -->
<g id="edge4" class="edge"><title>baseTest&#45;&gt;baseDb</title>
<path fill="none" stroke="#111111" stroke-dasharray="5,2" d="M135.992,-1074.2C129.55,-1081.75 123.495,-1090.55 120,-1099.88 117.337,-1106.99 116.135,-1114.93 115.77,-1122.61"/>
<polygon fill="#111111" stroke="#111111" points="112.269,-1122.83 115.733,-1132.84 119.269,-1122.85 112.269,-1122.83"/>
<text text-anchor="middle" x="152" y="-1103.68" font-family="Times,serif" font-size="14.00">provided</text>
</g>
<!-- taskmanDb -->
<g id="node6" class="node"><title>taskmanDb</title>
<ellipse fill="#aaaaff" stroke="black" cx="1610" cy="-944.271" rx="122.379" ry="18"/>
<text text-anchor="middle" x="1610" y="-940.571" font-family="Times,serif" font-size="14.00">taskman&#45;server&#45;schema</text>
</g>
<!-- taskmanDb&#45;&gt;baseDb -->
<g id="edge5" class="edge"><title>taskmanDb&#45;&gt;baseDb</title>
<path fill="none" stroke="#cc0000" d="M1573.88,-961.499C1509.82,-989.955 1371.77,-1049.82 1252,-1091.88 1217.9,-1103.86 1209.66,-1108.98 1174,-1114.88 980.779,-1146.89 375.112,-1156.03 180.129,-1158.18"/>
<polygon fill="#cc0000" stroke="#cc0000" points="180.023,-1154.68 170.062,-1158.28 180.099,-1161.68 180.023,-1154.68"/>
</g>
<!-- taskmanServerImpl -->
<g id="node7" class="node"><title>taskmanServerImpl</title>
<ellipse fill="#aaaaff" stroke="black" cx="1484" cy="-839.531" rx="106.681" ry="18"/>
<text text-anchor="middle" x="1484" y="-835.831" font-family="Times,serif" font-size="14.00">taskman&#45;server&#45;impl</text>
</g>
<!-- taskmanServerImpl&#45;&gt;taskmanDb -->
<g id="edge16" class="edge"><title>taskmanServerImpl&#45;&gt;taskmanDb</title>
<path fill="none" stroke="#cc0000" d="M1504.52,-857.267C1525.36,-874.255 1557.79,-900.703 1581.2,-919.785"/>
<polygon fill="#cc0000" stroke="#cc0000" points="1579.1,-922.593 1589.06,-926.2 1583.53,-917.168 1579.1,-922.593"/>
</g>
<!-- taskmanServerLogic -->
<g id="node8" class="node"><title>taskmanServerLogic</title>
<ellipse fill="#aaaaff" stroke="black" cx="1361" cy="-944.271" rx="108.581" ry="18"/>
<text text-anchor="middle" x="1361" y="-940.571" font-family="Times,serif" font-size="14.00">taskman&#45;server&#45;logic</text>
</g>
<!-- taskmanServerImpl&#45;&gt;taskmanServerLogic -->
<g id="edge14" class="edge"><title>taskmanServerImpl&#45;&gt;taskmanServerLogic</title>
<path fill="none" stroke="#cc0000" d="M1463.96,-857.267C1443.5,-874.357 1411.58,-901.02 1388.71,-920.127"/>
<polygon fill="#cc0000" stroke="#cc0000" points="1386.46,-917.446 1381.03,-926.543 1390.95,-922.818 1386.46,-917.446"/>
</g>
<!-- taskmanApi -->
<g id="node10" class="node"><title>taskmanApi</title>
<ellipse fill="#cccccc" stroke="black" cx="396" cy="-839.531" rx="73.5782" ry="26.7407"/>
<text text-anchor="middle" x="396" y="-843.331" font-family="Times,serif" font-size="14.00">[aggregate]</text>
<text text-anchor="middle" x="396" y="-828.331" font-family="Times,serif" font-size="14.00">taskman&#45;api</text>
</g>
<!-- taskmanServerImpl&#45;&gt;taskmanApi -->
<g id="edge15" class="edge"><title>taskmanServerImpl&#45;&gt;taskmanApi</title>
<path fill="none" stroke="#cc0000" d="M1428.63,-824.094C1375.78,-810.214 1293.67,-790.862 1221,-783.161 1140.34,-774.614 569.221,-761.701 491,-783.161 471.65,-788.47 452.249,-798.855 436.07,-809.28"/>
<polygon fill="#cc0000" stroke="#cc0000" points="433.809,-806.581 427.434,-815.044 437.695,-812.403 433.809,-806.581"/>
</g>
<!-- taskmanApiLogic -->
<g id="node12" class="node"><title>taskmanApiLogic</title>
<ellipse fill="#cceeff" stroke="black" cx="377" cy="-1049.01" rx="92.8835" ry="18"/>
<text text-anchor="middle" x="377" y="-1045.31" font-family="Times,serif" font-size="14.00">taskman&#45;api&#45;logic</text>
</g>
<!-- taskmanServerLogic&#45;&gt;taskmanApiLogic -->
<g id="edge13" class="edge"><title>taskmanServerLogic&#45;&gt;taskmanApiLogic</title>
<path fill="none" stroke="#cc0000" d="M1299.29,-959.131C1277.5,-963.581 1252.75,-968.131 1230,-971.141 899.662,-1014.84 811.231,-970.757 482,-1022.14 467.305,-1024.43 451.65,-1027.79 437.037,-1031.32"/>
<polygon fill="#cc0000" stroke="#cc0000" points="435.972,-1027.98 427.111,-1033.79 437.659,-1034.77 435.972,-1027.98"/>
</g>
<!-- taskmanServer -->
<g id="node9" class="node"><title>taskmanServer</title>
<ellipse fill="#cccccc" stroke="black" cx="1484" cy="-734.791" rx="90.5193" ry="26.7407"/>
<text text-anchor="middle" x="1484" y="-738.591" font-family="Times,serif" font-size="14.00">[aggregate]</text>
<text text-anchor="middle" x="1484" y="-723.591" font-family="Times,serif" font-size="14.00">taskman&#45;server</text>
</g>
<!-- taskmanServer&#45;&gt;taskmanDb -->
<g id="edge59" class="edge"><title>taskmanServer&#45;&gt;taskmanDb</title>
<path fill="none" stroke="#aaaaaa" stroke-dasharray="5,2" d="M1540.64,-755.909C1562.92,-766.804 1586.4,-782.645 1600,-804.661 1620.9,-838.478 1619.04,-886.183 1615.06,-915.89"/>
<polygon fill="#aaaaaa" stroke="#aaaaaa" points="1613.53,-925.962 1610.58,-915.401 1614.28,-921.018 1615.03,-916.074 1615.03,-916.074 1615.03,-916.074 1614.28,-921.018 1619.48,-916.747 1613.53,-925.962 1613.53,-925.962"/>
</g>
<!-- taskmanServer&#45;&gt;taskmanServerImpl -->
<g id="edge17" class="edge"><title>taskmanServer&#45;&gt;taskmanServerImpl</title>
<path fill="none" stroke="#cc0000" d="M1478.05,-761.717C1477.02,-776.737 1476.99,-795.64 1477.94,-810.935"/>
<polygon fill="#cc0000" stroke="#cc0000" points="1474.49,-811.654 1478.81,-821.327 1481.46,-811.071 1474.49,-811.654"/>
</g>
<!-- taskmanServer&#45;&gt;taskmanServerImpl -->
<g id="edge58" class="edge"><title>taskmanServer&#45;&gt;taskmanServerImpl</title>
<path fill="none" stroke="#aaaaaa" stroke-dasharray="5,2" d="M1489.95,-761.717C1490.98,-776.737 1491.01,-795.64 1490.06,-810.935"/>
<polygon fill="#aaaaaa" stroke="#aaaaaa" points="1489.19,-821.327 1485.54,-810.987 1489.61,-816.345 1490.03,-811.362 1490.03,-811.362 1490.03,-811.362 1489.61,-816.345 1494.51,-811.737 1489.19,-821.327 1489.19,-821.327"/>
</g>
<!-- taskmanServer&#45;&gt;taskmanServerLogic -->
<g id="edge57" class="edge"><title>taskmanServer&#45;&gt;taskmanServerLogic</title>
<path fill="none" stroke="#aaaaaa" stroke-dasharray="5,2" d="M1427.13,-755.768C1404.81,-766.639 1381.37,-782.5 1368,-804.661 1347.5,-838.656 1350.49,-886.31 1355.22,-915.958"/>
<polygon fill="#aaaaaa" stroke="#aaaaaa" points="1357,-926.008 1350.83,-916.948 1356.13,-921.085 1355.26,-916.162 1355.26,-916.162 1355.26,-916.162 1356.13,-921.085 1359.69,-915.375 1357,-926.008 1357,-926.008"/>
</g>
<!-- taskmanApiImpl -->
<g id="node11" class="node"><title>taskmanApiImpl</title>
<ellipse fill="#cceeff" stroke="black" cx="359" cy="-944.271" rx="90.9839" ry="18"/>
<text text-anchor="middle" x="359" y="-940.571" font-family="Times,serif" font-size="14.00">taskman&#45;api&#45;impl</text>
</g>
<!-- taskmanApi&#45;&gt;taskmanApiImpl -->
<g id="edge12" class="edge"><title>taskmanApi&#45;&gt;taskmanApiImpl</title>
<path fill="none" stroke="#cc0000" d="M380.938,-865.928C374.372,-881.184 367.345,-900.589 362.737,-916.145"/>
<polygon fill="#cc0000" stroke="#cc0000" points="359.249,-915.631 359.97,-926.201 365.998,-917.489 359.249,-915.631"/>
</g>
<!-- taskmanApi&#45;&gt;taskmanApiImpl -->
<g id="edge56" class="edge"><title>taskmanApi&#45;&gt;taskmanApiImpl</title>
<path fill="none" stroke="#aaaaaa" stroke-dasharray="5,2" d="M392.616,-866.457C388.119,-881.866 381.109,-901.362 374.498,-916.856"/>
<polygon fill="#aaaaaa" stroke="#aaaaaa" points="370.242,-926.378 370.215,-915.412 372.283,-921.813 374.323,-917.248 374.323,-917.248 374.323,-917.248 372.283,-921.813 378.431,-919.085 370.242,-926.378 370.242,-926.378"/>
</g>
<!-- taskmanApi&#45;&gt;taskmanApiLogic -->
<g id="edge55" class="edge"><title>taskmanApi&#45;&gt;taskmanApiLogic</title>
<path fill="none" stroke="#aaaaaa" stroke-dasharray="5,2" d="M426.142,-864.385C438.855,-876.368 452.253,-892.03 459,-909.401 468.934,-934.98 469.69,-945.869 459,-971.141 449.593,-993.381 430.119,-1012.08 412.51,-1025.47"/>
<polygon fill="#aaaaaa" stroke="#aaaaaa" points="404.067,-1031.61 409.51,-1022.09 408.111,-1028.67 412.156,-1025.73 412.156,-1025.73 412.156,-1025.73 408.111,-1028.67 414.802,-1029.37 404.067,-1031.61 404.067,-1031.61"/>
</g>
<!-- taskmanApiImpl&#45;&gt;baseDb -->
<g id="edge8" class="edge"><title>taskmanApiImpl&#45;&gt;baseDb</title>
<path fill="none" stroke="#cc0000" d="M414.432,-958.642C435.477,-963.266 459.737,-968.056 482,-971.141 564.516,-982.575 1173.13,-961.266 1230,-1022.14 1251.16,-1044.79 1251.25,-1069.32 1230,-1091.88 1193.76,-1130.37 407.279,-1151.93 179.998,-1157.37"/>
<polygon fill="#cc0000" stroke="#cc0000" points="179.834,-1153.87 169.92,-1157.61 180,-1160.87 179.834,-1153.87"/>
</g>
<!-- taskmanApiImpl&#45;&gt;baseTest -->
<g id="edge11" class="edge"><title>taskmanApiImpl&#45;&gt;baseTest</title>
<path fill="none" stroke="#111111" stroke-dasharray="5,2" d="M328.219,-961.324C297.193,-977.505 248.794,-1002.75 212.207,-1021.83"/>
<polygon fill="#111111" stroke="#111111" points="210.426,-1018.81 203.178,-1026.54 213.663,-1025.02 210.426,-1018.81"/>
<text text-anchor="middle" x="287" y="-992.941" font-family="Times,serif" font-size="14.00">test</text>
</g>
<!-- taskmanApiImpl&#45;&gt;taskmanDb -->
<g id="edge10" class="edge"><title>taskmanApiImpl&#45;&gt;taskmanDb</title>
<path fill="none" stroke="#111111" stroke-dasharray="5,2" d="M398.68,-928.066C418.038,-920.948 441.872,-913.327 464,-909.401 464,-909.401 1479,-909.401 1479,-909.401 1502.32,-912.812 1527.45,-918.891 1549.4,-925.029"/>
<polygon fill="#111111" stroke="#111111" points="1548.66,-928.46 1559.24,-927.844 1550.59,-921.729 1548.66,-928.46"/>
<text text-anchor="middle" x="969" y="-888.201" font-family="Times,serif" font-size="14.00">test</text>
</g>
<!-- taskmanApiImpl&#45;&gt;taskmanApiLogic -->
<g id="edge7" class="edge"><title>taskmanApiImpl&#45;&gt;taskmanApiLogic</title>
<path fill="none" stroke="#cc0000" d="M358.168,-962.434C357.938,-974.263 358.309,-990.288 361,-1004.14 362.101,-1009.81 363.829,-1015.72 365.749,-1021.3"/>
<polygon fill="#cc0000" stroke="#cc0000" points="362.542,-1022.72 369.319,-1030.87 369.1,-1020.27 362.542,-1022.72"/>
</g>
<!-- taskmanApiImpl&#45;&gt;taskmanApiLogic -->
<g id="edge9" class="edge"><title>taskmanApiImpl&#45;&gt;taskmanApiLogic</title>
<path fill="none" stroke="#111111" stroke-dasharray="5,2" d="M362.053,-962.7C364.85,-978.663 369.034,-1002.54 372.264,-1020.98"/>
<polygon fill="#111111" stroke="#111111" points="368.818,-1021.59 373.992,-1030.84 375.713,-1020.39 368.818,-1021.59"/>
<text text-anchor="middle" x="395.5" y="-992.941" font-family="Times,serif" font-size="14.00">test&#45;lib</text>
</g>
<!-- taskmanApiLogic&#45;&gt;baseUtil -->
<g id="edge6" class="edge"><title>taskmanApiLogic&#45;&gt;baseUtil</title>
<path fill="none" stroke="#cc0000" d="M338.909,-1065.51C301.187,-1080.28 241.479,-1102.1 188,-1114.88 159.849,-1121.61 78,-1111.05 59,-1132.88 43.3215,-1150.9 49.8484,-1164.56 59,-1186.62 64.0455,-1198.78 72.713,-1209.82 82.0321,-1219.12"/>
<polygon fill="#cc0000" stroke="#cc0000" points="79.8988,-1221.92 89.5887,-1226.2 84.6856,-1216.81 79.8988,-1221.92"/>
</g>
<!-- webapp -->
<g id="node13" class="node"><title>webapp</title>
<ellipse fill="#ffff80" stroke="black" cx="968" cy="-214.35" rx="70.922" ry="26.7407"/>
<text text-anchor="middle" x="968" y="-218.15" font-family="Times,serif" font-size="14.00">[aggregate]</text>
<text text-anchor="middle" x="968" y="-203.15" font-family="Times,serif" font-size="14.00">webapp</text>
</g>
<!-- webappClientHome -->
<g id="node19" class="node"><title>webappClientHome</title>
<ellipse fill="#99ccee" stroke="black" cx="615" cy="-467.571" rx="113.689" ry="26.7407"/>
<text text-anchor="middle" x="615" y="-471.371" font-family="Times,serif" font-size="14.00">webapp&#45;client&#45;home</text>
<text text-anchor="middle" x="615" y="-456.371" font-family="Times,serif" font-size="14.00">(JS)</text>
</g>
<!-- webapp&#45;&gt;webappClientHome -->
<g id="edge63" class="edge"><title>webapp&#45;&gt;webappClientHome</title>
<path fill="none" stroke="#aaaaaa" stroke-dasharray="5,2" d="M899.368,-221.182C820.365,-229.289 697.202,-246.657 664,-278.22 622.462,-317.709 614.457,-387.56 613.784,-430.2"/>
<polygon fill="#aaaaaa" stroke="#aaaaaa" points="613.755,-440.42 609.284,-430.407 613.769,-435.42 613.784,-430.42 613.784,-430.42 613.784,-430.42 613.769,-435.42 618.284,-430.433 613.755,-440.42 613.755,-440.42"/>
</g>
<!-- webappClientWw -->
<g id="node21" class="node"><title>webappClientWw</title>
<ellipse fill="#99ccee" stroke="black" cx="958" cy="-467.571" rx="103.476" ry="26.7407"/>
<text text-anchor="middle" x="958" y="-471.371" font-family="Times,serif" font-size="14.00">webapp&#45;client&#45;ww</text>
<text text-anchor="middle" x="958" y="-456.371" font-family="Times,serif" font-size="14.00">(JS)</text>
</g>
<!-- webapp&#45;&gt;webappClientWw -->
<g id="edge65" class="edge"><title>webapp&#45;&gt;webappClientWw</title>
<path fill="none" stroke="#aaaaaa" stroke-dasharray="5,2" d="M966.967,-241.289C965.179,-286.232 961.498,-378.687 959.452,-430.084"/>
<polygon fill="#aaaaaa" stroke="#aaaaaa" points="959.042,-440.397 954.943,-430.225 959.241,-435.401 959.44,-430.405 959.44,-430.405 959.44,-430.405 959.241,-435.401 963.936,-430.584 959.042,-440.397 959.042,-440.397"/>
</g>
<!-- webappClientProject -->
<g id="node22" class="node"><title>webappClientProject</title>
<ellipse fill="#99ccee" stroke="black" cx="1056" cy="-539.311" rx="122.159" ry="26.7407"/>
<text text-anchor="middle" x="1056" y="-543.111" font-family="Times,serif" font-size="14.00">webapp&#45;client&#45;project</text>
<text text-anchor="middle" x="1056" y="-528.111" font-family="Times,serif" font-size="14.00">(JS)</text>
</g>
<!-- webapp&#45;&gt;webappClientProject -->
<g id="edge62" class="edge"><title>webapp&#45;&gt;webappClientProject</title>
<path fill="none" stroke="#aaaaaa" stroke-dasharray="5,2" d="M982.491,-240.651C1004.83,-281.264 1046.69,-364.22 1062,-440.701 1066.03,-460.834 1064.91,-483.729 1062.61,-502.283"/>
<polygon fill="#aaaaaa" stroke="#aaaaaa" points="1061.2,-512.375 1058.13,-501.846 1061.89,-507.423 1062.59,-502.472 1062.59,-502.472 1062.59,-502.472 1061.89,-507.423 1067.04,-503.098 1061.2,-512.375 1061.2,-512.375"/>
</g>
<!-- webappServer -->
<g id="node24" class="node"><title>webappServer</title>
<ellipse fill="#99ccee" stroke="black" cx="752" cy="-305.09" rx="79.0865" ry="18"/>
<text text-anchor="middle" x="752" y="-301.39" font-family="Times,serif" font-size="14.00">webapp&#45;server</text>
</g>
<!-- webapp&#45;&gt;webappServer -->
<g id="edge64" class="edge"><title>webapp&#45;&gt;webappServer</title>
<path fill="none" stroke="#aaaaaa" stroke-dasharray="5,2" d="M921.131,-234.606C884.684,-249.579 834.386,-270.243 798.128,-285.14"/>
<polygon fill="#aaaaaa" stroke="#aaaaaa" points="788.764,-288.987 796.304,-281.024 793.389,-287.086 798.014,-285.186 798.014,-285.186 798.014,-285.186 793.389,-287.086 799.724,-289.349 788.764,-288.987 788.764,-288.987"/>
</g>
<!-- webappMacro -->
<g id="node14" class="node"><title>webappMacro</title>
<ellipse fill="#99ccee" stroke="black" cx="657" cy="-1049.01" rx="86.0347" ry="26.7407"/>
<text text-anchor="middle" x="657" y="-1052.81" font-family="Times,serif" font-size="14.00">webapp&#45;macro</text>
<text text-anchor="middle" x="657" y="-1037.81" font-family="Times,serif" font-size="14.00">(Scala &amp; JS)</text>
</g>
<!-- webappMacro&#45;&gt;baseUtil -->
<g id="edge18" class="edge"><title>webappMacro&#45;&gt;baseUtil</title>
<path fill="none" stroke="#cc0000" d="M603.253,-1070.05C502.654,-1107.56 286.64,-1188.1 181.683,-1227.24"/>
<polygon fill="#cc0000" stroke="#cc0000" points="180.332,-1224.01 172.184,-1230.78 182.777,-1230.57 180.332,-1224.01"/>
</g>
<!-- webappBase -->
<g id="node15" class="node"><title>webappBase</title>
<ellipse fill="#99ccee" stroke="black" cx="890" cy="-944.271" rx="77.5641" ry="26.7407"/>
<text text-anchor="middle" x="890" y="-948.071" font-family="Times,serif" font-size="14.00">webapp&#45;base</text>
<text text-anchor="middle" x="890" y="-933.071" font-family="Times,serif" font-size="14.00">(Scala &amp; JS)</text>
</g>
<!-- webappBase&#45;&gt;webappMacro -->
<g id="edge19" class="edge"><title>webappBase&#45;&gt;webappMacro</title>
<path fill="none" stroke="#cc0000" d="M843.409,-965.815C806.402,-982.133 754.46,-1005.04 714.802,-1022.52"/>
<polygon fill="#cc0000" stroke="#cc0000" points="713.253,-1019.38 705.515,-1026.62 716.078,-1025.79 713.253,-1019.38"/>
</g>
<!-- webappServerLogic -->
<g id="node16" class="node"><title>webappServerLogic</title>
<ellipse fill="#99ccee" stroke="black" cx="608" cy="-734.791" rx="113.689" ry="26.7407"/>
<text text-anchor="middle" x="608" y="-738.591" font-family="Times,serif" font-size="14.00">webapp&#45;server&#45;logic</text>
<text text-anchor="middle" x="608" y="-723.591" font-family="Times,serif" font-size="14.00">(Scala &amp; JS)</text>
</g>
<!-- webappServerLogic&#45;&gt;taskmanApi -->
<g id="edge21" class="edge"><title>webappServerLogic&#45;&gt;taskmanApi</title>
<path fill="none" stroke="#cc0000" d="M523.388,-752.97C501.244,-759.462 477.991,-768.161 458,-779.661 445.799,-786.68 434.13,-796.576 424.273,-806.256"/>
<polygon fill="#cc0000" stroke="#cc0000" points="421.61,-803.972 417.109,-813.564 426.609,-808.872 421.61,-803.972"/>
</g>
<!-- webappServerLogic&#45;&gt;webappBase -->
<g id="edge20" class="edge"><title>webappServerLogic&#45;&gt;webappBase</title>
<path fill="none" stroke="#cc0000" d="M607.671,-761.913C608.739,-791.145 614.973,-838.104 642,-866.401 683.826,-910.192 750.049,-929.192 803.546,-937.36"/>
<polygon fill="#cc0000" stroke="#cc0000" points="803.327,-940.864 813.721,-938.808 804.314,-933.934 803.327,-940.864"/>
</g>
<!-- webappBaseTest -->
<g id="node25" class="node"><title>webappBaseTest</title>
<ellipse fill="white" stroke="blue" cx="751" cy="-839.531" rx="100.318" ry="26.7407"/>
<text text-anchor="middle" x="751" y="-843.331" font-family="Times,serif" font-size="14.00">webapp&#45;base&#45;test</text>
<text text-anchor="middle" x="751" y="-828.331" font-family="Times,serif" font-size="14.00">(Scala &amp; JS)</text>
</g>
<!-- webappServerLogic&#45;&gt;webappBaseTest -->
<g id="edge22" class="edge"><title>webappServerLogic&#45;&gt;webappBaseTest</title>
<path fill="none" stroke="#111111" stroke-dasharray="5,2" d="M642.616,-760.661C662.465,-774.922 687.535,-792.934 708.564,-808.042"/>
<polygon fill="#111111" stroke="#111111" points="706.539,-810.897 716.702,-813.89 710.623,-805.212 706.539,-810.897"/>
<text text-anchor="middle" x="703" y="-783.461" font-family="Times,serif" font-size="14.00">test</text>
</g>
<!-- webappClientBase -->
<g id="node17" class="node"><title>webappClientBase</title>
<ellipse fill="#99ccee" stroke="black" cx="890" cy="-734.791" rx="109.703" ry="26.7407"/>
<text text-anchor="middle" x="890" y="-738.591" font-family="Times,serif" font-size="14.00">webapp&#45;client&#45;base</text>
<text text-anchor="middle" x="890" y="-723.591" font-family="Times,serif" font-size="14.00">(JS)</text>
</g>
<!-- webappClientBase&#45;&gt;webappBase -->
<g id="edge25" class="edge"><title>webappClientBase&#45;&gt;webappBase</title>
<path fill="none" stroke="#cc0000" d="M890,-762.068C890,-798.782 890,-865.569 890,-907"/>
<polygon fill="#cc0000" stroke="#cc0000" points="886.5,-907.207 890,-917.207 893.5,-907.207 886.5,-907.207"/>
</g>
<!-- webappClientBase&#45;&gt;webappBaseTest -->
<g id="edge26" class="edge"><title>webappClientBase&#45;&gt;webappBaseTest</title>
<path fill="none" stroke="#111111" stroke-dasharray="5,2" d="M856.706,-760.4C837.364,-774.696 812.832,-792.829 792.271,-808.026"/>
<polygon fill="#111111" stroke="#111111" points="789.984,-805.364 784.022,-814.123 794.144,-810.994 789.984,-805.364"/>
<text text-anchor="middle" x="843" y="-783.461" font-family="Times,serif" font-size="14.00">test</text>
</g>
<!-- webappClientPublic -->
<g id="node18" class="node"><title>webappClientPublic</title>
<ellipse fill="#99ccee" stroke="black" cx="735" cy="-539.311" rx="117.26" ry="26.7407"/>
<text text-anchor="middle" x="735" y="-543.111" font-family="Times,serif" font-size="14.00">webapp&#45;client&#45;public</text>
<text text-anchor="middle" x="735" y="-528.111" font-family="Times,serif" font-size="14.00">(JS)</text>
</g>
<!-- webappClientPublic&#45;&gt;webappClientBase -->
<g id="edge31" class="edge"><title>webappClientPublic&#45;&gt;webappClientBase</title>
<path fill="none" stroke="#cc0000" d="M800.129,-561.671C842.389,-576.998 891.787,-598.209 904,-617.181 919.423,-641.14 913.836,-673.69 905.581,-698.312"/>
<polygon fill="#cc0000" stroke="#cc0000" points="902.189,-697.4 902.065,-707.994 908.768,-699.79 902.189,-697.4"/>
</g>
<!-- webappClientBaseTest -->
<g id="node26" class="node"><title>webappClientBaseTest</title>
<ellipse fill="white" stroke="blue" cx="763" cy="-644.051" rx="132.458" ry="26.7407"/>
<text text-anchor="middle" x="763" y="-647.851" font-family="Times,serif" font-size="14.00">webapp&#45;client&#45;base&#45;test</text>
<text text-anchor="middle" x="763" y="-632.851" font-family="Times,serif" font-size="14.00">(JS)</text>
</g>
<!-- webappClientPublic&#45;&gt;webappClientBaseTest -->
<g id="edge32" class="edge"><title>webappClientPublic&#45;&gt;webappClientBaseTest</title>
<path fill="none" stroke="#111111" stroke-dasharray="5,2" d="M742.066,-566.236C745.448,-578.647 749.553,-593.709 753.229,-607.197"/>
<polygon fill="#111111" stroke="#111111" points="749.93,-608.406 755.937,-617.133 756.684,-606.565 749.93,-608.406"/>
<text text-anchor="middle" x="765" y="-587.981" font-family="Times,serif" font-size="14.00">test</text>
</g>
<!-- webappClientHome&#45;&gt;webappClientBase -->
<g id="edge29" class="edge"><title>webappClientHome&#45;&gt;webappClientBase</title>
<path fill="none" stroke="#cc0000" d="M582.502,-493.738C577.409,-499.304 572.883,-505.604 570,-512.441 560.72,-534.449 564.243,-543.001 570,-566.181 576.182,-591.072 585.587,-594.213 597,-617.181 608.722,-640.771 601.559,-654.305 622,-670.921 665.918,-706.622 690.897,-686.997 746,-699.921 764.333,-704.221 783.978,-708.836 802.678,-713.233"/>
<polygon fill="#cc0000" stroke="#cc0000" points="802.12,-716.698 812.656,-715.58 803.723,-709.884 802.12,-716.698"/>
</g>
<!-- webappClientHome&#45;&gt;webappClientBaseTest -->
<g id="edge30" class="edge"><title>webappClientHome&#45;&gt;webappClientBaseTest</title>
<path fill="none" stroke="#111111" stroke-dasharray="5,2" d="M590.694,-494.287C586.715,-499.887 583.184,-506.059 581,-512.441 573.268,-535.039 567.799,-546.276 581,-566.181 598.79,-593.006 627.994,-610.494 657.853,-621.886"/>
<polygon fill="#111111" stroke="#111111" points="656.963,-625.285 667.557,-625.374 659.331,-618.698 656.963,-625.285"/>
<text text-anchor="middle" x="595" y="-535.611" font-family="Times,serif" font-size="14.00">test</text>
</g>
<!-- webappClientWwApi -->
<g id="node20" class="node"><title>webappClientWwApi</title>
<ellipse fill="#99ccee" stroke="black" cx="1076" cy="-644.051" rx="121.745" ry="26.7407"/>
<text text-anchor="middle" x="1076" y="-647.851" font-family="Times,serif" font-size="14.00">webapp&#45;client&#45;ww&#45;api</text>
<text text-anchor="middle" x="1076" y="-632.851" font-family="Times,serif" font-size="14.00">(JS)</text>
</g>
<!-- webappClientWwApi&#45;&gt;webappBase -->
<g id="edge33" class="edge"><title>webappClientWwApi&#45;&gt;webappBase</title>
<path fill="none" stroke="#cc0000" d="M1073.61,-671.19C1067.7,-721.483 1048.13,-832.632 987,-899.401 978.629,-908.544 967.986,-915.908 956.837,-921.797"/>
<polygon fill="#cc0000" stroke="#cc0000" points="955.264,-918.67 947.82,-926.209 958.341,-924.957 955.264,-918.67"/>
</g>
<!-- webappClientWw&#45;&gt;webappClientWwApi -->
<g id="edge34" class="edge"><title>webappClientWw&#45;&gt;webappClientWwApi</title>
<path fill="none" stroke="#cc0000" d="M1057.01,-475.185C1110.99,-481.08 1170.17,-492.082 1187,-512.441 1202.22,-530.85 1198.08,-545.024 1187,-566.181 1176.34,-586.528 1157.58,-602.561 1138.48,-614.602"/>
<polygon fill="#cc0000" stroke="#cc0000" points="1136.49,-611.714 1129.71,-619.854 1140.08,-617.72 1136.49,-611.714"/>
</g>
<!-- webappClientWw&#45;&gt;webappClientBaseTest -->
<g id="edge35" class="edge"><title>webappClientWw&#45;&gt;webappClientBaseTest</title>
<path fill="none" stroke="#111111" stroke-dasharray="5,2" d="M919.84,-492.805C911.854,-498.732 903.802,-505.409 897,-512.441 877.013,-533.104 880.553,-545.106 861,-566.181 845.454,-582.937 826.039,-598.961 808.599,-612.001"/>
<polygon fill="#111111" stroke="#111111" points="806.21,-609.413 800.222,-618.153 810.354,-615.055 806.21,-609.413"/>
<text text-anchor="middle" x="911" y="-535.611" font-family="Times,serif" font-size="14.00">test</text>
</g>
<!-- webappClientProject&#45;&gt;webappClientBase -->
<g id="edge36" class="edge"><title>webappClientProject&#45;&gt;webappClientBase</title>
<path fill="none" stroke="#cc0000" d="M1009.8,-564.217C987.85,-577.431 962.626,-595.561 945,-617.181 922.794,-644.418 929.34,-658.304 914,-689.921 912.56,-692.889 911.019,-695.943 909.438,-698.991"/>
<polygon fill="#cc0000" stroke="#cc0000" points="906.237,-697.555 904.638,-708.029 912.42,-700.838 906.237,-697.555"/>
</g>
<!-- webappClientProject&#45;&gt;webappClientWwApi -->
<g id="edge37" class="edge"><title>webappClientProject&#45;&gt;webappClientWwApi</title>
<path fill="none" stroke="#cc0000" d="M1061.05,-566.236C1063.46,-578.647 1066.39,-593.709 1069.02,-607.197"/>
<polygon fill="#cc0000" stroke="#cc0000" points="1065.61,-607.987 1070.95,-617.133 1072.48,-606.649 1065.61,-607.987"/>
</g>
<!-- webappClientProject&#45;&gt;webappClientBaseTest -->
<g id="edge38" class="edge"><title>webappClientProject&#45;&gt;webappClientBaseTest</title>
<path fill="none" stroke="#111111" stroke-dasharray="5,2" d="M977.702,-560.016C956.267,-566.562 933.344,-574.658 913,-584.181 901.947,-589.355 900.961,-593.815 890,-599.181 875.773,-606.146 860.157,-612.502 844.891,-618.083"/>
<polygon fill="#111111" stroke="#111111" points="843.687,-614.797 835.447,-621.457 846.041,-621.389 843.687,-614.797"/>
<text text-anchor="middle" x="927" y="-587.981" font-family="Times,serif" font-size="14.00">test</text>
</g>
<!-- webappGen -->
<g id="node23" class="node"><title>webappGen</title>
<ellipse fill="#99ccee" stroke="black" cx="855" cy="-395.831" rx="73.5782" ry="26.7407"/>
<text text-anchor="middle" x="855" y="-399.631" font-family="Times,serif" font-size="14.00">webapp&#45;gen</text>
<text text-anchor="middle" x="855" y="-384.631" font-family="Times,serif" font-size="14.00">(Scala &amp; JS)</text>
</g>
<!-- webappGen&#45;&gt;webappBase -->
<g id="edge39" class="edge"><title>webappGen&#45;&gt;webappBase</title>
<path fill="none" stroke="#cc0000" d="M924.309,-405.344C967.208,-411.979 1022.9,-423.092 1070,-440.701 1130.72,-463.4 1161.7,-458.069 1197,-512.441 1222.47,-551.661 1204.78,-570.471 1207,-617.181 1208.14,-641.038 1215.5,-648.598 1207,-670.921 1158.15,-799.263 1114.12,-824.541 999,-899.401 985.743,-908.022 970.52,-915.444 955.738,-921.603"/>
<polygon fill="#cc0000" stroke="#cc0000" points="954.088,-918.494 946.112,-925.468 956.696,-924.99 954.088,-918.494"/>
</g>
<!-- webappGen&#45;&gt;webappClientProject -->
<g id="edge40" class="edge"><title>webappGen&#45;&gt;webappClientProject</title>
<path fill="none" stroke="#111111" stroke-dasharray="5,2" d="M831.381,-421.593C827.123,-427.442 823.308,-433.954 821,-440.701 813.268,-463.299 805.696,-476.103 821,-494.441 835.328,-511.608 898.016,-508.351 920,-512.441 931.63,-514.604 943.815,-516.892 955.912,-519.176"/>
<polygon fill="#111111" stroke="#111111" points="955.562,-522.672 966.039,-521.091 956.863,-515.794 955.562,-522.672"/>
<text text-anchor="middle" x="833.5" y="-463.871" font-family="Times,serif" font-size="14.00">run</text>
</g>
<!-- webappGen&#45;&gt;webappBaseTest -->
<g id="edge41" class="edge"><title>webappGen&#45;&gt;webappBaseTest</title>
<path fill="none" stroke="#111111" stroke-dasharray="5,2" d="M827.572,-420.966C797.605,-446.831 751.065,-485.402 730,-494.441 680.036,-515.88 647.341,-473.891 609,-512.441 596.527,-524.982 582.863,-657.18 594,-670.921 633.188,-719.273 688.451,-654.499 731,-699.921 737.913,-707.301 744.287,-763.623 747.903,-802.162"/>
<polygon fill="#111111" stroke="#111111" points="744.453,-802.865 748.849,-812.505 751.424,-802.228 744.453,-802.865"/>
<text text-anchor="middle" x="608" y="-640.351" font-family="Times,serif" font-size="14.00">test</text>
</g>
<!-- webappServer&#45;&gt;baseDb -->
<g id="edge45" class="edge"><title>webappServer&#45;&gt;baseDb</title>
<path fill="none" stroke="#cc0000" d="M673.794,-308.314C495.85,-314.413 76,-335.129 76,-394.831 76,-394.831 76,-394.831 76,-592.681 76,-685.068 0,-693.774 0,-786.161 0,-786.161 0,-786.161 0,-1050.01 0,-1090.3 37.634,-1119.67 70.574,-1137.65"/>
<polygon fill="#cc0000" stroke="#cc0000" points="69.2211,-1140.89 79.7052,-1142.42 72.4626,-1134.69 69.2211,-1140.89"/>
</g>
<!-- webappServer&#45;&gt;taskmanApi -->
<g id="edge42" class="edge"><title>webappServer&#45;&gt;taskmanApi</title>
<path fill="none" stroke="#cc0000" d="M676.344,-310.74C576.433,-318.995 413,-340.761 413,-394.831 413,-394.831 413,-394.831 413,-735.791 413,-758.166 409.027,-782.918 404.922,-802.52"/>
<polygon fill="#cc0000" stroke="#cc0000" points="401.447,-802.028 402.719,-812.546 408.284,-803.53 401.447,-802.028"/>
</g>
<!-- webappServer&#45;&gt;webappServerLogic -->
<g id="edge43" class="edge"><title>webappServer&#45;&gt;webappServerLogic</title>
<path fill="none" stroke="#cc0000" d="M690.769,-316.547C614.753,-333.443 495,-374.648 495,-466.571 495,-466.571 495,-466.571 495,-645.051 495,-672.488 515.86,-692.73 539.656,-706.894"/>
<polygon fill="#cc0000" stroke="#cc0000" points="538.083,-710.025 548.522,-711.84 541.494,-703.912 538.083,-710.025"/>
</g>
<!-- webappServer&#45;&gt;webappClientPublic -->
<g id="edge46" class="edge"><title>webappServer&#45;&gt;webappClientPublic</title>
<path fill="none" stroke="#cc0000" stroke-dasharray="5,2" d="M750.75,-323.166C748.001,-360.716 741.38,-451.161 737.657,-502.018"/>
<polygon fill="#cc0000" stroke="#cc0000" points="734.148,-502.007 736.909,-512.236 741.13,-502.518 734.148,-502.007"/>
</g>
<!-- webappServer&#45;&gt;webappClientHome -->
<g id="edge47" class="edge"><title>webappServer&#45;&gt;webappClientHome</title>
<path fill="none" stroke="#cc0000" stroke-dasharray="5,2" d="M737.598,-322.961C715.337,-349.037 672.151,-399.625 643.44,-433.256"/>
<polygon fill="#cc0000" stroke="#cc0000" points="640.663,-431.118 636.832,-440.997 645.987,-435.663 640.663,-431.118"/>
</g>
<!-- webappServer&#45;&gt;webappClientWw -->
<g id="edge49" class="edge"><title>webappServer&#45;&gt;webappClientWw</title>
<path fill="none" stroke="#cc0000" stroke-dasharray="5,2" d="M823.338,-312.999C862.617,-320.541 909.117,-336.259 938,-368.96 952.725,-385.632 957.703,-410.182 959.011,-430.49"/>
<polygon fill="#cc0000" stroke="#cc0000" points="955.52,-430.797 959.393,-440.659 962.515,-430.535 955.52,-430.797"/>
</g>
<!-- webappServer&#45;&gt;webappClientProject -->
<g id="edge48" class="edge"><title>webappServer&#45;&gt;webappClientProject</title>
<path fill="none" stroke="#cc0000" stroke-dasharray="5,2" d="M753.277,-323.093C755.375,-346.158 760.525,-388.419 772,-422.701 783.388,-456.721 779.839,-473.545 809,-494.441 852.837,-525.853 875.893,-503.055 929,-512.441 939.075,-514.221 949.577,-516.185 960.038,-518.212"/>
<polygon fill="#cc0000" stroke="#cc0000" points="959.552,-521.683 970.038,-520.17 960.897,-514.813 959.552,-521.683"/>
</g>
<!-- webappServer&#45;&gt;webappGen -->
<g id="edge44" class="edge"><title>webappServer&#45;&gt;webappGen</title>
<path fill="none" stroke="#cc0000" d="M771.374,-322.782C784.895,-334.431 803.336,-350.319 819.461,-364.211"/>
<polygon fill="#cc0000" stroke="#cc0000" points="817.298,-366.968 827.159,-370.844 821.867,-361.665 817.298,-366.968"/>
</g>
<!-- webappBaseTest&#45;&gt;baseTest -->
<g id="edge23" class="edge"><title>webappBaseTest&#45;&gt;baseTest</title>
<path fill="none" stroke="#111111" d="M657.574,-849.405C523.626,-862.749 289.382,-888.632 256,-909.401 217.127,-933.586 190.512,-980.458 175.782,-1012.96"/>
<polygon fill="#111111" stroke="#111111" points="172.572,-1011.56 171.767,-1022.13 178.985,-1014.37 172.572,-1011.56"/>
</g>
<!-- webappBaseTest&#45;&gt;webappBase -->
<g id="edge24" class="edge"><title>webappBaseTest&#45;&gt;webappBase</title>
<path fill="none" stroke="#111111" d="M784.294,-865.14C803.918,-879.645 828.885,-898.099 849.627,-913.43"/>
<polygon fill="#111111" stroke="#111111" points="847.813,-916.441 857.935,-919.571 851.973,-910.812 847.813,-916.441"/>
</g>
<!-- webappClientBaseTest&#45;&gt;webappClientBase -->
<g id="edge27" class="edge"><title>webappClientBaseTest&#45;&gt;webappClientBase</title>
<path fill="none" stroke="#111111" d="M798.715,-670.006C813.447,-680.301 830.666,-692.332 846.154,-703.154"/>
<polygon fill="#111111" stroke="#111111" points="844.352,-706.164 854.554,-709.023 848.361,-700.426 844.352,-706.164"/>
</g>
<!-- webappClientBaseTest&#45;&gt;webappBaseTest -->
<g id="edge28" class="edge"><title>webappClientBaseTest&#45;&gt;webappBaseTest</title>
<path fill="none" stroke="#111111" d="M761.382,-671.144C759.282,-704.992 755.609,-764.211 753.242,-802.375"/>
<polygon fill="#111111" stroke="#111111" points="749.738,-802.345 752.612,-812.543 756.724,-802.779 749.738,-802.345"/>
</g>
<!-- taskman -->
<g id="node27" class="node"><title>taskman</title>
<ellipse fill="#ffff80" stroke="black" cx="1484" cy="-644.051" rx="70.922" ry="26.7407"/>
<text text-anchor="middle" x="1484" y="-647.851" font-family="Times,serif" font-size="14.00">[aggregate]</text>
<text text-anchor="middle" x="1484" y="-632.851" font-family="Times,serif" font-size="14.00">taskman</text>
</g>
<!-- taskman&#45;&gt;taskmanServer -->
<g id="edge61" class="edge"><title>taskman&#45;&gt;taskmanServer</title>
<path fill="none" stroke="#aaaaaa" stroke-dasharray="5,2" d="M1484,-671.196C1484,-679.501 1484,-688.836 1484,-697.713"/>
<polygon fill="#aaaaaa" stroke="#aaaaaa" points="1484,-707.833 1479.5,-697.833 1484,-702.833 1484,-697.833 1484,-697.833 1484,-697.833 1484,-702.833 1488.5,-697.833 1484,-707.833 1484,-707.833"/>
</g>
<!-- taskman&#45;&gt;taskmanApi -->
<g id="edge60" class="edge"><title>taskman&#45;&gt;taskmanApi</title>
<path fill="none" stroke="#aaaaaa" stroke-dasharray="5,2" d="M1416.24,-651.814C1352.61,-659.611 1263.73,-674.705 1240,-699.921 1220.95,-720.164 1250.95,-743.392 1230,-761.661 1198.67,-788.981 521.559,-766.895 482,-779.661 471.79,-782.956 452.583,-795.832 434.907,-808.705"/>
<polygon fill="#aaaaaa" stroke="#aaaaaa" points="426.398,-814.982 431.774,-805.424 430.422,-812.014 434.445,-809.046 434.445,-809.046 434.445,-809.046 430.422,-812.014 437.117,-812.667 426.398,-814.982 426.398,-814.982"/>
</g>
<!-- benchmark -->
<g id="node28" class="node"><title>benchmark</title>
<ellipse fill="#ffffdd" stroke="black" cx="1877" cy="-117.61" rx="70.922" ry="26.7407"/>
<text text-anchor="middle" x="1877" y="-121.41" font-family="Times,serif" font-size="14.00">[aggregate]</text>
<text text-anchor="middle" x="1877" y="-106.41" font-family="Times,serif" font-size="14.00">benchmark</text>
</g>
<!-- benchmarkJvm -->
<g id="node29" class="node"><title>benchmarkJvm</title>
<ellipse fill="#ffcccc" stroke="black" cx="1850" cy="-214.35" rx="86.3847" ry="18"/>
<text text-anchor="middle" x="1850" y="-210.65" font-family="Times,serif" font-size="14.00">benchmark JVM</text>
</g>
<!-- benchmark&#45;&gt;benchmarkJvm -->
<g id="edge70" class="edge"><title>benchmark&#45;&gt;benchmarkJvm</title>
<path fill="none" stroke="#aaaaaa" stroke-dasharray="5,2" d="M1869.62,-144.498C1865.93,-157.467 1861.45,-173.162 1857.71,-186.29"/>
<polygon fill="#aaaaaa" stroke="#aaaaaa" points="1854.9,-196.166 1853.31,-185.316 1856.27,-191.358 1857.64,-186.549 1857.64,-186.549 1857.64,-186.549 1856.27,-191.358 1861.97,-187.782 1854.9,-196.166 1854.9,-196.166"/>
</g>
<!-- benchmarkJs -->
<g id="node30" class="node"><title>benchmarkJs</title>
<ellipse fill="#ffcccc" stroke="black" cx="2031" cy="-214.35" rx="76.8869" ry="18"/>
<text text-anchor="middle" x="2031" y="-210.65" font-family="Times,serif" font-size="14.00">benchmark JS</text>
</g>
<!-- benchmark&#45;&gt;benchmarkJs -->
<g id="edge71" class="edge"><title>benchmark&#45;&gt;benchmarkJs</title>
<path fill="none" stroke="#aaaaaa" stroke-dasharray="5,2" d="M1913.11,-140.823C1938.13,-156.215 1971.26,-176.6 1996.03,-191.838"/>
<polygon fill="#aaaaaa" stroke="#aaaaaa" points="2004.75,-197.2 1993.87,-195.793 2000.49,-194.58 1996.23,-191.96 1996.23,-191.96 1996.23,-191.96 2000.49,-194.58 1998.59,-188.127 2004.75,-197.2 2004.75,-197.2"/>
</g>
<!-- benchmarkJvm&#45;&gt;webappServer -->
<g id="edge52" class="edge"><title>benchmarkJvm&#45;&gt;webappServer</title>
<path fill="none" stroke="#cc0000" d="M1771.03,-221.732C1570.24,-237.961 1041.51,-280.692 835.682,-297.327"/>
<polygon fill="#cc0000" stroke="#cc0000" points="835.223,-293.853 825.537,-298.147 835.787,-300.83 835.223,-293.853"/>
</g>
<!-- benchmarkShared -->
<g id="node31" class="node"><title>benchmarkShared</title>
<ellipse fill="#ffcccc" stroke="black" cx="1882" cy="-305.09" rx="69.0935" ry="26.7407"/>
<text text-anchor="middle" x="1882" y="-308.89" font-family="Times,serif" font-size="14.00">benchmark</text>
<text text-anchor="middle" x="1882" y="-293.89" font-family="Times,serif" font-size="14.00">base</text>
</g>
<!-- benchmarkJvm&#45;&gt;benchmarkShared -->
<g id="edge50" class="edge"><title>benchmarkJvm&#45;&gt;benchmarkShared</title>
<path fill="none" stroke="#cc0000" d="M1856.17,-232.46C1859.87,-242.713 1864.71,-256.138 1869.2,-268.59"/>
<polygon fill="#cc0000" stroke="#cc0000" points="1866.01,-270.069 1872.7,-278.289 1872.6,-267.695 1866.01,-270.069"/>
</g>
<!-- benchmarkJs&#45;&gt;webappClientProject -->
<g id="edge53" class="edge"><title>benchmarkJs&#45;&gt;webappClientProject</title>
<path fill="none" stroke="#cc0000" d="M2026.21,-232.488C2017.66,-259.74 1997.1,-312.658 1960,-339.96 1835.48,-431.602 1387.31,-497.552 1172.46,-524.65"/>
<polygon fill="#cc0000" stroke="#cc0000" points="1171.9,-521.194 1162.41,-525.911 1172.77,-528.139 1171.9,-521.194"/>
</g>
<!-- benchmarkJs&#45;&gt;benchmarkShared -->
<g id="edge51" class="edge"><title>benchmarkJs&#45;&gt;benchmarkShared</title>
<path fill="none" stroke="#cc0000" d="M2004.02,-231.42C1982.71,-244.109 1952.51,-262.097 1927.48,-277.002"/>
<polygon fill="#cc0000" stroke="#cc0000" points="1925.67,-274.007 1918.87,-282.131 1929.25,-280.022 1925.67,-274.007"/>
</g>
<!-- utils -->
<g id="node32" class="node"><title>utils</title>
<ellipse fill="#ffffdd" stroke="black" cx="2024" cy="-117.61" rx="31.3957" ry="18"/>
<text text-anchor="middle" x="2024" y="-113.91" font-family="Times,serif" font-size="14.00">utils</text>
</g>
<!-- utils&#45;&gt;webappBase -->
<g id="edge54" class="edge"><title>utils&#45;&gt;webappBase</title>
<path fill="none" stroke="#cc0000" d="M2050.26,-127.564C2083.36,-140.715 2136,-168.654 2136,-213.35 2136,-213.35 2136,-213.35 2136,-840.531 2136,-890.456 1289.74,-905.083 1240,-909.401 1149.13,-917.289 1045.12,-927.506 974.253,-934.647"/>
<polygon fill="#cc0000" stroke="#cc0000" points="973.641,-931.191 964.043,-935.678 974.344,-938.156 973.641,-931.191"/>
</g>
<!-- root -->
<g id="node33" class="node"><title>root</title>
<ellipse fill="#cccccc" stroke="black" cx="1877" cy="-26.8701" rx="70.922" ry="26.7407"/>
<text text-anchor="middle" x="1877" y="-30.6701" font-family="Times,serif" font-size="14.00">[aggregate]</text>
<text text-anchor="middle" x="1877" y="-15.6701" font-family="Times,serif" font-size="14.00">root</text>
</g>
<!-- root&#45;&gt;base -->
<g id="edge72" class="edge"><title>root&#45;&gt;base</title>
<path fill="none" stroke="#aaaaaa" stroke-dasharray="5,2" d="M1806.04,-27.5161C1468.07,-26.2862 38,-26.4111 38,-116.61 38,-116.61 38,-116.61 38,-840.531 38,-866.85 52.9831,-892.317 68.0979,-911.311"/>
<polygon fill="#aaaaaa" stroke="#aaaaaa" points="74.5404,-919.039 64.6806,-914.24 71.3388,-915.199 68.1371,-911.358 68.1371,-911.358 68.1371,-911.358 71.3388,-915.199 71.5935,-908.477 74.5404,-919.039 74.5404,-919.039"/>
</g>
<!-- root&#45;&gt;webapp -->
<g id="edge73" class="edge"><title>root&#45;&gt;webapp</title>
<path fill="none" stroke="#aaaaaa" stroke-dasharray="5,2" d="M1815.59,-40.4004C1653.11,-73.5537 1212.59,-163.443 1039.35,-198.792"/>
<polygon fill="#aaaaaa" stroke="#aaaaaa" points="1029.32,-200.838 1038.22,-194.43 1034.22,-199.839 1039.12,-198.839 1039.12,-198.839 1039.12,-198.839 1034.22,-199.839 1040.02,-203.248 1029.32,-200.838 1029.32,-200.838"/>
</g>
<!-- root&#45;&gt;taskman -->
<g id="edge74" class="edge"><title>root&#45;&gt;taskman</title>
<path fill="none" stroke="#aaaaaa" stroke-dasharray="5,2" d="M1945.14,-34.4886C2032.82,-44.9312 2174,-69.1185 2174,-116.61 2174,-116.61 2174,-116.61 2174,-260.22 2174,-537.192 1743.64,-615.461 1562.67,-636.129"/>
<polygon fill="#aaaaaa" stroke="#aaaaaa" points="1552.68,-637.24 1562.12,-631.662 1557.65,-636.687 1562.62,-636.135 1562.62,-636.135 1562.62,-636.135 1557.65,-636.687 1563.12,-640.607 1552.68,-637.24 1552.68,-637.24"/>
</g>
<!-- root&#45;&gt;benchmark -->
<g id="edge75" class="edge"><title>root&#45;&gt;benchmark</title>
<path fill="none" stroke="#aaaaaa" stroke-dasharray="5,2" d="M1877,-54.0151C1877,-62.3197 1877,-71.6554 1877,-80.5319"/>
<polygon fill="#aaaaaa" stroke="#aaaaaa" points="1877,-90.652 1872.5,-80.652 1877,-85.652 1877,-80.652 1877,-80.652 1877,-80.652 1877,-85.652 1881.5,-80.6521 1877,-90.652 1877,-90.652"/>
</g>
<!-- root&#45;&gt;utils -->
<g id="edge76" class="edge"><title>root&#45;&gt;utils</title>
<path fill="none" stroke="#aaaaaa" stroke-dasharray="5,2" d="M1913.72,-50.034C1938.64,-65.0804 1971.17,-84.717 1994.43,-98.7579"/>
<polygon fill="#aaaaaa" stroke="#aaaaaa" points="2003.16,-104.03 1992.27,-102.714 1998.88,-101.446 1994.6,-98.8617 1994.6,-98.8617 1994.6,-98.8617 1998.88,-101.446 1996.92,-95.0092 2003.16,-104.03 2003.16,-104.03"/>
</g>
</g>
</svg>
