<?xml version="1.0" encoding="UTF-8" standalone="no"?>
<!DOCTYPE svg PUBLIC "-//W3C//DTD SVG 1.1//EN"
 "http://www.w3.org/Graphics/SVG/1.1/DTD/svg11.dtd">
<!-- Generated by graphviz version 2.38.0 (20140413.2041)
 -->
<!-- Title: G Pages: 1 -->
<svg width="2586pt" height="1183pt"
 viewBox="0.00 0.00 2586.00 1182.62" xmlns="http://www.w3.org/2000/svg" xmlns:xlink="http://www.w3.org/1999/xlink">
<g id="graph0" class="graph" transform="scale(1 1) rotate(0) translate(4 1178.62)">
<title>G</title>
<polygon fill="white" stroke="none" points="-4,4 -4,-1178.62 2582,-1178.62 2582,4 -4,4"/>
<g id="clust1" class="cluster"><title>cluster_base</title>
<polygon fill="#f4fff4" stroke="black" points="2334,-699.921 2334,-1166.62 2558,-1166.62 2558,-699.921 2334,-699.921"/>
</g>
<g id="clust2" class="cluster"><title>cluster_t</title>
<polygon fill="#eeeeff" stroke="black" points="388,-171.48 388,-882.401 2326,-882.401 2326,-171.48 388,-171.48"/>
</g>
<g id="clust3" class="cluster"><title>cluster_ts</title>
<polygon fill="white" stroke="black" points="1812,-504.441 1812,-760.791 2308,-760.791 2308,-504.441 1812,-504.441"/>
</g>
<g id="clust4" class="cluster"><title>cluster_ta</title>
<polygon fill="white" stroke="black" points="1564,-609.181 1564,-865.531 1782,-865.531 1782,-609.181 1564,-609.181"/>
</g>
<g id="clust5" class="cluster"><title>cluster_w</title>
<polygon fill="white" stroke="black" points="546,-179.48 546,-874.401 1556,-874.401 1556,-179.48 546,-179.48"/>
</g>
<g id="clust6" class="cluster"><title>cluster_supp</title>
<polygon fill="#fff2f2" stroke="black" points="20,-82.7401 20,-339.96 380,-339.96 380,-82.7401 20,-82.7401"/>
</g>
<!-- base -->
<g id="node1" class="node"><title>base</title>
<ellipse fill="#cccccc" stroke="black" cx="2479" cy="-734.791" rx="70.922" ry="26.7407"/>
<text text-anchor="middle" x="2479" y="-738.591" font-family="Times,serif" font-size="14.00">[aggregate]</text>
<text text-anchor="middle" x="2479" y="-723.591" font-family="Times,serif" font-size="14.00">base</text>
</g>
<!-- baseMacro -->
<g id="node2" class="node"><title>baseMacro</title>
<ellipse fill="#bbffbb" stroke="black" cx="2465" cy="-1131.75" rx="73.5782" ry="26.7407"/>
<text text-anchor="middle" x="2465" y="-1135.55" font-family="Times,serif" font-size="14.00">base&#45;macro</text>
<text text-anchor="middle" x="2465" y="-1120.55" font-family="Times,serif" font-size="14.00">(Scala &amp; JS)</text>
</g>
<!-- base&#45;&gt;baseMacro -->
<g id="edge65" class="edge"><title>base&#45;&gt;baseMacro</title>
<path fill="none" stroke="#aaaaaa" stroke-dasharray="5,2" d="M2507.47,-759.733C2526.85,-778.828 2549,-807.451 2549,-838.531 2549,-838.531 2549,-838.531 2549,-1042.01 2549,-1066.88 2531.38,-1087.59 2512.28,-1102.72"/>
<polygon fill="#aaaaaa" stroke="#aaaaaa" points="2504.05,-1108.87 2509.37,-1099.28 2508.06,-1105.88 2512.06,-1102.89 2512.06,-1102.89 2512.06,-1102.89 2508.06,-1105.88 2514.75,-1106.49 2504.05,-1108.87 2504.05,-1108.87"/>
</g>
<!-- baseUtil -->
<g id="node3" class="node"><title>baseUtil</title>
<ellipse fill="#bbffbb" stroke="black" cx="2443" cy="-1041.01" rx="73.5782" ry="26.7407"/>
<text text-anchor="middle" x="2443" y="-1044.81" font-family="Times,serif" font-size="14.00">base&#45;util</text>
<text text-anchor="middle" x="2443" y="-1029.81" font-family="Times,serif" font-size="14.00">(Scala &amp; JS)</text>
</g>
<!-- base&#45;&gt;baseUtil -->
<g id="edge62" class="edge"><title>base&#45;&gt;baseUtil</title>
<path fill="none" stroke="#aaaaaa" stroke-dasharray="5,2" d="M2495.6,-760.976C2498.86,-766.899 2501.91,-773.335 2504,-779.661 2518.34,-823.048 2514.76,-837.207 2508,-882.401 2500.09,-935.253 2495.08,-949.495 2469,-996.141 2467.21,-999.344 2465.32,-1002.66 2463.4,-1005.97"/>
<polygon fill="#aaaaaa" stroke="#aaaaaa" points="2458.34,-1014.62 2459.51,-1003.72 2460.87,-1010.3 2463.39,-1005.99 2463.39,-1005.99 2463.39,-1005.99 2460.87,-1010.3 2467.28,-1008.26 2458.34,-1014.62 2458.34,-1014.62"/>
</g>
<!-- baseDb -->
<g id="node4" class="node"><title>baseDb</title>
<ellipse fill="#bbffbb" stroke="black" cx="2405" cy="-950.271" rx="50.8235" ry="26.7407"/>
<text text-anchor="middle" x="2405" y="-954.071" font-family="Times,serif" font-size="14.00">base&#45;db</text>
<text text-anchor="middle" x="2405" y="-939.071" font-family="Times,serif" font-size="14.00">(JVM)</text>
</g>
<!-- base&#45;&gt;baseDb -->
<g id="edge63" class="edge"><title>base&#45;&gt;baseDb</title>
<path fill="none" stroke="#aaaaaa" stroke-dasharray="5,2" d="M2490.51,-761.574C2502.23,-791.789 2516.39,-842.764 2499,-882.401 2490.22,-902.417 2471.84,-917.52 2453.64,-928.262"/>
<polygon fill="#aaaaaa" stroke="#aaaaaa" points="2444.77,-933.187 2451.33,-924.4 2449.14,-930.761 2453.51,-928.335 2453.51,-928.335 2453.51,-928.335 2449.14,-930.761 2455.69,-932.269 2444.77,-933.187 2444.77,-933.187"/>
</g>
<!-- baseTest -->
<g id="node5" class="node"><title>baseTest</title>
<ellipse fill="white" stroke="darkgreen" cx="2416" cy="-839.531" rx="73.5782" ry="26.7407"/>
<text text-anchor="middle" x="2416" y="-843.331" font-family="Times,serif" font-size="14.00">base&#45;test</text>
<text text-anchor="middle" x="2416" y="-828.331" font-family="Times,serif" font-size="14.00">(Scala &amp; JS)</text>
</g>
<!-- base&#45;&gt;baseTest -->
<g id="edge64" class="edge"><title>base&#45;&gt;baseTest</title>
<path fill="none" stroke="#aaaaaa" stroke-dasharray="5,2" d="M2463.43,-761.187C2455.48,-774.154 2445.69,-790.116 2437.07,-804.165"/>
<polygon fill="#aaaaaa" stroke="#aaaaaa" points="2431.61,-813.071 2433,-802.193 2434.23,-808.808 2436.84,-804.546 2436.84,-804.546 2436.84,-804.546 2434.23,-808.808 2440.68,-806.898 2431.61,-813.071 2431.61,-813.071"/>
</g>
<!-- baseUtil&#45;&gt;baseMacro -->
<g id="edge1" class="edge"><title>baseUtil&#45;&gt;baseMacro</title>
<path fill="none" stroke="#cc0000" d="M2449.48,-1068.16C2451.56,-1076.55 2453.91,-1086 2456.13,-1094.96"/>
<polygon fill="#cc0000" stroke="#cc0000" points="2452.76,-1095.93 2458.56,-1104.79 2459.56,-1094.24 2452.76,-1095.93"/>
</g>
<!-- baseDb&#45;&gt;baseUtil -->
<g id="edge2" class="edge"><title>baseDb&#45;&gt;baseUtil</title>
<path fill="none" stroke="#cc0000" d="M2415.99,-976.939C2419.73,-985.677 2423.98,-995.599 2427.98,-1004.94"/>
<polygon fill="#cc0000" stroke="#cc0000" points="2424.88,-1006.59 2432.03,-1014.4 2431.31,-1003.83 2424.88,-1006.59"/>
</g>
<!-- baseTest&#45;&gt;baseUtil -->
<g id="edge3" class="edge"><title>baseTest&#45;&gt;baseUtil</title>
<path fill="none" stroke="#111111" d="M2449.43,-863.482C2457.71,-871.006 2465.5,-880.113 2470,-890.401 2486.26,-927.542 2473.28,-973.978 2460.3,-1005.18"/>
<polygon fill="#111111" stroke="#111111" points="2457.1,-1003.78 2456.31,-1014.35 2463.51,-1006.58 2457.1,-1003.78"/>
</g>
<!-- baseTest&#45;&gt;baseDb -->
<g id="edge4" class="edge"><title>baseTest&#45;&gt;baseDb</title>
<path fill="none" stroke="#111111" stroke-dasharray="5,2" d="M2409.86,-866.534C2408.31,-874.179 2406.84,-882.587 2406,-890.401 2405.22,-897.654 2404.79,-905.439 2404.59,-912.894"/>
<polygon fill="#111111" stroke="#111111" points="2401.09,-913.073 2404.43,-923.126 2408.09,-913.181 2401.09,-913.073"/>
<text text-anchor="middle" x="2438" y="-894.201" font-family="Times,serif" font-size="14.00">provided</text>
</g>
<!-- taskmanDb -->
<g id="node6" class="node"><title>taskmanDb</title>
<ellipse fill="#aaaaff" stroke="black" cx="1942" cy="-734.791" rx="122.379" ry="18"/>
<text text-anchor="middle" x="1942" y="-731.091" font-family="Times,serif" font-size="14.00">taskman&#45;server&#45;schema</text>
</g>
<!-- taskmanDb&#45;&gt;baseDb -->
<g id="edge5" class="edge"><title>taskmanDb&#45;&gt;baseDb</title>
<path fill="none" stroke="#cc0000" d="M1870.8,-749.498C1844.28,-754.102 1813.85,-758.791 1786,-761.661 1717.19,-768.749 589.898,-762.759 542,-812.661 520.536,-835.023 520.479,-860.094 542,-882.401 605.913,-948.65 2028.02,-949.959 2343.42,-949.432"/>
<polygon fill="#cc0000" stroke="#cc0000" points="2343.74,-952.931 2353.73,-949.413 2343.72,-945.931 2343.74,-952.931"/>
</g>
<!-- taskmanServerImpl -->
<g id="node7" class="node"><title>taskmanServerImpl</title>
<ellipse fill="#aaaaff" stroke="black" cx="2006" cy="-644.051" rx="106.681" ry="18"/>
<text text-anchor="middle" x="2006" y="-640.351" font-family="Times,serif" font-size="14.00">taskman&#45;server&#45;impl</text>
</g>
<!-- taskmanServerImpl&#45;&gt;taskmanDb -->
<g id="edge16" class="edge"><title>taskmanServerImpl&#45;&gt;taskmanDb</title>
<path fill="none" stroke="#cc0000" d="M1993.66,-662.161C1984.19,-675.297 1970.96,-693.637 1960.26,-708.471"/>
<polygon fill="#cc0000" stroke="#cc0000" points="1957.31,-706.575 1954.3,-716.734 1962.99,-710.67 1957.31,-706.575"/>
</g>
<!-- taskmanServerLogic -->
<g id="node8" class="node"><title>taskmanServerLogic</title>
<ellipse fill="#aaaaff" stroke="black" cx="2191" cy="-734.791" rx="108.581" ry="18"/>
<text text-anchor="middle" x="2191" y="-731.091" font-family="Times,serif" font-size="14.00">taskman&#45;server&#45;logic</text>
</g>
<!-- taskmanServerImpl&#45;&gt;taskmanServerLogic -->
<g id="edge14" class="edge"><title>taskmanServerImpl&#45;&gt;taskmanServerLogic</title>
<path fill="none" stroke="#cc0000" d="M2039.93,-661.327C2070.31,-675.9 2115.01,-697.342 2147.91,-713.122"/>
<polygon fill="#cc0000" stroke="#cc0000" points="2146.75,-716.449 2157.28,-717.618 2149.78,-710.137 2146.75,-716.449"/>
</g>
<!-- taskmanApi -->
<g id="node10" class="node"><title>taskmanApi</title>
<ellipse fill="#cccccc" stroke="black" cx="1683" cy="-644.051" rx="73.5782" ry="26.7407"/>
<text text-anchor="middle" x="1683" y="-647.851" font-family="Times,serif" font-size="14.00">[aggregate]</text>
<text text-anchor="middle" x="1683" y="-632.851" font-family="Times,serif" font-size="14.00">taskman&#45;api</text>
</g>
<!-- taskmanServerImpl&#45;&gt;taskmanApi -->
<g id="edge15" class="edge"><title>taskmanServerImpl&#45;&gt;taskmanApi</title>
<path fill="none" stroke="#cc0000" d="M1898.93,-644.051C1854.98,-644.051 1811.03,-644.051 1767.08,-644.051"/>
<polygon fill="#cc0000" stroke="#cc0000" points="1766.81,-640.551 1756.81,-644.051 1766.81,-647.551 1766.81,-640.551"/>
</g>
<!-- taskmanApiLogic -->
<g id="node12" class="node"><title>taskmanApiLogic</title>
<ellipse fill="#cceeff" stroke="black" cx="1681" cy="-839.531" rx="92.8835" ry="18"/>
<text text-anchor="middle" x="1681" y="-835.831" font-family="Times,serif" font-size="14.00">taskman&#45;api&#45;logic</text>
</g>
<!-- taskmanServerLogic&#45;&gt;taskmanApiLogic -->
<g id="edge13" class="edge"><title>taskmanServerLogic&#45;&gt;taskmanApiLogic</title>
<path fill="none" stroke="#cc0000" d="M2129.2,-749.61C2111.11,-753.583 2091.28,-757.866 2073,-761.661 1962.3,-784.647 1833.62,-809.531 1754.75,-824.574"/>
<polygon fill="#cc0000" stroke="#cc0000" points="1754.08,-821.139 1744.91,-826.449 1755.39,-828.016 1754.08,-821.139"/>
</g>
<!-- taskmanServer -->
<g id="node9" class="node"><title>taskmanServer</title>
<ellipse fill="#cccccc" stroke="black" cx="2006" cy="-539.311" rx="90.5193" ry="26.7407"/>
<text text-anchor="middle" x="2006" y="-543.111" font-family="Times,serif" font-size="14.00">[aggregate]</text>
<text text-anchor="middle" x="2006" y="-528.111" font-family="Times,serif" font-size="14.00">taskman&#45;server</text>
</g>
<!-- taskmanServer&#45;&gt;taskmanDb -->
<g id="edge55" class="edge"><title>taskmanServer&#45;&gt;taskmanDb</title>
<path fill="none" stroke="#aaaaaa" stroke-dasharray="5,2" d="M1948.28,-560.115C1925.95,-570.927 1902.75,-586.791 1890,-609.181 1876.42,-633.028 1880.71,-645.103 1890,-670.921 1895.21,-685.399 1905.36,-698.911 1915.33,-709.669"/>
<polygon fill="#aaaaaa" stroke="#aaaaaa" points="1922.47,-716.991 1912.27,-712.977 1918.98,-713.412 1915.49,-709.834 1915.49,-709.834 1915.49,-709.834 1918.98,-713.412 1918.71,-706.691 1922.47,-716.991 1922.47,-716.991"/>
</g>
<!-- taskmanServer&#45;&gt;taskmanServerImpl -->
<g id="edge17" class="edge"><title>taskmanServer&#45;&gt;taskmanServerImpl</title>
<path fill="none" stroke="#cc0000" d="M2000.05,-566.236C1999.02,-581.257 1998.99,-600.159 1999.94,-615.455"/>
<polygon fill="#cc0000" stroke="#cc0000" points="1996.49,-616.174 2000.81,-625.847 2003.46,-615.59 1996.49,-616.174"/>
</g>
<!-- taskmanServer&#45;&gt;taskmanServerImpl -->
<g id="edge54" class="edge"><title>taskmanServer&#45;&gt;taskmanServerImpl</title>
<path fill="none" stroke="#aaaaaa" stroke-dasharray="5,2" d="M2011.95,-566.236C2012.98,-581.257 2013.01,-600.159 2012.06,-615.455"/>
<polygon fill="#aaaaaa" stroke="#aaaaaa" points="2011.19,-625.847 2007.54,-615.507 2011.61,-620.865 2012.03,-615.882 2012.03,-615.882 2012.03,-615.882 2011.61,-620.865 2016.51,-616.257 2011.19,-625.847 2011.19,-625.847"/>
</g>
<!-- taskmanServer&#45;&gt;taskmanServerLogic -->
<g id="edge53" class="edge"><title>taskmanServer&#45;&gt;taskmanServerLogic</title>
<path fill="none" stroke="#aaaaaa" stroke-dasharray="5,2" d="M2054.87,-561.93C2077.27,-573.577 2103,-589.599 2122,-609.181 2149.79,-637.821 2169.96,-679.873 2181.08,-707.044"/>
<polygon fill="#aaaaaa" stroke="#aaaaaa" points="2184.89,-716.671 2177.03,-709.031 2183.05,-712.022 2181.21,-707.374 2181.21,-707.374 2181.21,-707.374 2183.05,-712.022 2185.39,-705.716 2184.89,-716.671 2184.89,-716.671"/>
</g>
<!-- taskmanApiImpl -->
<g id="node11" class="node"><title>taskmanApiImpl</title>
<ellipse fill="#cceeff" stroke="black" cx="1683" cy="-734.791" rx="90.9839" ry="18"/>
<text text-anchor="middle" x="1683" y="-731.091" font-family="Times,serif" font-size="14.00">taskman&#45;api&#45;impl</text>
</g>
<!-- taskmanApi&#45;&gt;taskmanApiImpl -->
<g id="edge12" class="edge"><title>taskmanApi&#45;&gt;taskmanApiImpl</title>
<path fill="none" stroke="#cc0000" d="M1676.78,-671.196C1676.09,-682.354 1676.07,-695.373 1676.72,-706.639"/>
<polygon fill="#cc0000" stroke="#cc0000" points="1673.25,-707.105 1677.55,-716.786 1680.23,-706.534 1673.25,-707.105"/>
</g>
<!-- taskmanApi&#45;&gt;taskmanApiImpl -->
<g id="edge52" class="edge"><title>taskmanApi&#45;&gt;taskmanApiImpl</title>
<path fill="none" stroke="#aaaaaa" stroke-dasharray="5,2" d="M1689.22,-671.196C1689.91,-682.354 1689.93,-695.373 1689.28,-706.639"/>
<polygon fill="#aaaaaa" stroke="#aaaaaa" points="1688.45,-716.786 1684.78,-706.452 1688.85,-711.803 1689.26,-706.819 1689.26,-706.819 1689.26,-706.819 1688.85,-711.803 1693.75,-707.186 1688.45,-716.786 1688.45,-716.786"/>
</g>
<!-- taskmanApi&#45;&gt;taskmanApiLogic -->
<g id="edge51" class="edge"><title>taskmanApi&#45;&gt;taskmanApiLogic</title>
<path fill="none" stroke="#aaaaaa" stroke-dasharray="5,2" d="M1628.36,-662.234C1610.73,-670.659 1593.14,-682.795 1583,-699.921 1569.02,-723.534 1570.99,-736.987 1583,-761.661 1594.67,-785.65 1617.85,-804.371 1638.74,-817.329"/>
<polygon fill="#aaaaaa" stroke="#aaaaaa" points="1647.51,-822.529 1636.62,-821.301 1643.21,-819.979 1638.91,-817.43 1638.91,-817.43 1638.91,-817.43 1643.21,-819.979 1641.21,-813.559 1647.51,-822.529 1647.51,-822.529"/>
</g>
<!-- taskmanApiImpl&#45;&gt;baseDb -->
<g id="edge8" class="edge"><title>taskmanApiImpl&#45;&gt;baseDb</title>
<path fill="none" stroke="#cc0000" d="M1731.49,-750.13C1861.35,-788.526 2216.28,-893.47 2351.61,-933.485"/>
<polygon fill="#cc0000" stroke="#cc0000" points="2350.77,-936.886 2361.35,-936.365 2352.75,-930.173 2350.77,-936.886"/>
</g>
<!-- taskmanApiImpl&#45;&gt;baseTest -->
<g id="edge11" class="edge"><title>taskmanApiImpl&#45;&gt;baseTest</title>
<path fill="none" stroke="#111111" stroke-dasharray="5,2" d="M1740.7,-748.717C1761.81,-753.184 1785.92,-757.986 1808,-761.661 1859.07,-770.161 2183.99,-810.177 2336.79,-828.868"/>
<polygon fill="#111111" stroke="#111111" points="2336.69,-832.382 2347.04,-830.122 2337.54,-825.434 2336.69,-832.382"/>
<text text-anchor="middle" x="2066" y="-783.461" font-family="Times,serif" font-size="14.00">test</text>
</g>
<!-- taskmanApiImpl&#45;&gt;taskmanDb -->
<g id="edge10" class="edge"><title>taskmanApiImpl&#45;&gt;taskmanDb</title>
<path fill="none" stroke="#111111" stroke-dasharray="5,2" d="M1774.31,-734.791C1785.81,-734.791 1797.74,-734.791 1809.7,-734.791"/>
<polygon fill="#111111" stroke="#111111" points="1809.75,-738.291 1819.75,-734.791 1809.75,-731.291 1809.75,-738.291"/>
<text text-anchor="middle" x="1796.9" y="-720.591" font-family="Times,serif" font-size="14.00">test</text>
</g>
<!-- taskmanApiImpl&#45;&gt;taskmanApiLogic -->
<g id="edge7" class="edge"><title>taskmanApiImpl&#45;&gt;taskmanApiLogic</title>
<path fill="none" stroke="#cc0000" d="M1695.78,-752.707C1702.99,-764.291 1709.85,-780.13 1706,-794.661 1704.39,-800.741 1701.72,-806.859 1698.71,-812.516"/>
<polygon fill="#cc0000" stroke="#cc0000" points="1695.47,-811.114 1693.44,-821.513 1701.51,-814.648 1695.47,-811.114"/>
</g>
<!-- taskmanApiImpl&#45;&gt;taskmanApiLogic -->
<g id="edge9" class="edge"><title>taskmanApiImpl&#45;&gt;taskmanApiLogic</title>
<path fill="none" stroke="#111111" stroke-dasharray="5,2" d="M1666.78,-752.702C1660.57,-760.315 1654.21,-769.802 1651,-779.661 1647.26,-791.133 1651.66,-803.117 1658.14,-813.255"/>
<polygon fill="#111111" stroke="#111111" points="1655.51,-815.592 1664.22,-821.629 1661.18,-811.48 1655.51,-815.592"/>
<text text-anchor="middle" x="1676.5" y="-783.461" font-family="Times,serif" font-size="14.00">test&#45;lib</text>
</g>
<!-- taskmanApiLogic&#45;&gt;baseUtil -->
<g id="edge6" class="edge"><title>taskmanApiLogic&#45;&gt;baseUtil</title>
<path fill="none" stroke="#cc0000" d="M1733.98,-854.4C1868.67,-889.66 2224.15,-982.721 2374.4,-1022.05"/>
<polygon fill="#cc0000" stroke="#cc0000" points="2373.87,-1025.53 2384.43,-1024.68 2375.64,-1018.76 2373.87,-1025.53"/>
</g>
<!-- webapp -->
<g id="node13" class="node"><title>webapp</title>
<ellipse fill="#ffff80" stroke="black" cx="981" cy="-214.35" rx="70.922" ry="26.7407"/>
<text text-anchor="middle" x="981" y="-218.15" font-family="Times,serif" font-size="14.00">[aggregate]</text>
<text text-anchor="middle" x="981" y="-203.15" font-family="Times,serif" font-size="14.00">webapp</text>
</g>
<!-- webappClientHome -->
<g id="node18" class="node"><title>webappClientHome</title>
<ellipse fill="#99ccee" stroke="black" cx="1301" cy="-467.571" rx="113.689" ry="26.7407"/>
<text text-anchor="middle" x="1301" y="-471.371" font-family="Times,serif" font-size="14.00">webapp&#45;client&#45;home</text>
<text text-anchor="middle" x="1301" y="-456.371" font-family="Times,serif" font-size="14.00">(JS)</text>
</g>
<!-- webapp&#45;&gt;webappClientHome -->
<g id="edge59" class="edge"><title>webapp&#45;&gt;webappClientHome</title>
<path fill="none" stroke="#aaaaaa" stroke-dasharray="5,2" d="M1022.58,-236.223C1035.22,-243.073 1048.94,-251.04 1061,-259.22 1140.91,-313.423 1223.95,-390.659 1268.34,-433.941"/>
<polygon fill="#aaaaaa" stroke="#aaaaaa" points="1275.65,-441.101 1265.36,-437.317 1272.08,-437.602 1268.51,-434.103 1268.51,-434.103 1268.51,-434.103 1272.08,-437.602 1271.66,-430.888 1275.65,-441.101 1275.65,-441.101"/>
</g>
<!-- webappClientWw -->
<g id="node20" class="node"><title>webappClientWw</title>
<ellipse fill="#99ccee" stroke="black" cx="1079" cy="-467.571" rx="103.476" ry="26.7407"/>
<text text-anchor="middle" x="1079" y="-471.371" font-family="Times,serif" font-size="14.00">webapp&#45;client&#45;ww</text>
<text text-anchor="middle" x="1079" y="-456.371" font-family="Times,serif" font-size="14.00">(JS)</text>
</g>
<!-- webapp&#45;&gt;webappClientWw -->
<g id="edge61" class="edge"><title>webapp&#45;&gt;webappClientWw</title>
<path fill="none" stroke="#aaaaaa" stroke-dasharray="5,2" d="M1024.53,-235.703C1041.42,-245.958 1059.07,-260.112 1069,-278.22 1095.1,-325.79 1091.6,-390.686 1085.89,-430.551"/>
<polygon fill="#aaaaaa" stroke="#aaaaaa" points="1084.32,-440.608 1081.41,-430.035 1085.09,-435.668 1085.86,-430.727 1085.86,-430.727 1085.86,-430.727 1085.09,-435.668 1090.31,-431.419 1084.32,-440.608 1084.32,-440.608"/>
</g>
<!-- webappClientProject -->
<g id="node21" class="node"><title>webappClientProject</title>
<ellipse fill="#99ccee" stroke="black" cx="696" cy="-539.311" rx="122.159" ry="26.7407"/>
<text text-anchor="middle" x="696" y="-543.111" font-family="Times,serif" font-size="14.00">webapp&#45;client&#45;project</text>
<text text-anchor="middle" x="696" y="-528.111" font-family="Times,serif" font-size="14.00">(JS)</text>
</g>
<!-- webapp&#45;&gt;webappClientProject -->
<g id="edge58" class="edge"><title>webapp&#45;&gt;webappClientProject</title>
<path fill="none" stroke="#aaaaaa" stroke-dasharray="5,2" d="M934.611,-234.728C863.457,-265.465 732.769,-326.281 706,-368.96 680.861,-409.042 683.334,-465.505 688.665,-502.008"/>
<polygon fill="#aaaaaa" stroke="#aaaaaa" points="690.303,-512.199 684.273,-503.04 689.509,-507.263 688.716,-502.326 688.716,-502.326 688.716,-502.326 689.509,-507.263 693.159,-501.612 690.303,-512.199 690.303,-512.199"/>
</g>
<!-- webappServer -->
<g id="node23" class="node"><title>webappServer</title>
<ellipse fill="#99ccee" stroke="black" cx="981" cy="-305.09" rx="79.0865" ry="18"/>
<text text-anchor="middle" x="981" y="-301.39" font-family="Times,serif" font-size="14.00">webapp&#45;server</text>
</g>
<!-- webapp&#45;&gt;webappServer -->
<g id="edge60" class="edge"><title>webapp&#45;&gt;webappServer</title>
<path fill="none" stroke="#aaaaaa" stroke-dasharray="5,2" d="M981,-241.495C981,-252.653 981,-265.673 981,-276.939"/>
<polygon fill="#aaaaaa" stroke="#aaaaaa" points="981,-287.085 976.5,-277.085 981,-282.085 981,-277.085 981,-277.085 981,-277.085 981,-282.085 985.5,-277.085 981,-287.085 981,-287.085"/>
</g>
<!-- webappMacro -->
<g id="node14" class="node"><title>webappMacro</title>
<ellipse fill="#99ccee" stroke="black" cx="1335" cy="-839.531" rx="86.0347" ry="26.7407"/>
<text text-anchor="middle" x="1335" y="-843.331" font-family="Times,serif" font-size="14.00">webapp&#45;macro</text>
<text text-anchor="middle" x="1335" y="-828.331" font-family="Times,serif" font-size="14.00">(Scala &amp; JS)</text>
</g>
<!-- webappMacro&#45;&gt;baseUtil -->
<g id="edge18" class="edge"><title>webappMacro&#45;&gt;baseUtil</title>
<path fill="none" stroke="#cc0000" d="M1403.13,-856.152C1522.56,-883.193 1777.68,-939.442 1995,-977.141 2123.53,-999.438 2273.87,-1019.27 2363.61,-1030.45"/>
<polygon fill="#cc0000" stroke="#cc0000" points="2363.36,-1033.94 2373.71,-1031.7 2364.22,-1026.99 2363.36,-1033.94"/>
</g>
<!-- webappBase -->
<g id="node15" class="node"><title>webappBase</title>
<ellipse fill="#99ccee" stroke="black" cx="953" cy="-734.791" rx="77.5641" ry="26.7407"/>
<text text-anchor="middle" x="953" y="-738.591" font-family="Times,serif" font-size="14.00">webapp&#45;base</text>
<text text-anchor="middle" x="953" y="-723.591" font-family="Times,serif" font-size="14.00">(Scala &amp; JS)</text>
</g>
<!-- webappBase&#45;&gt;webappMacro -->
<g id="edge19" class="edge"><title>webappBase&#45;&gt;webappMacro</title>
<path fill="none" stroke="#cc0000" d="M1013.11,-751.957C1080.23,-770.011 1188.92,-799.241 1261.16,-818.671"/>
<polygon fill="#cc0000" stroke="#cc0000" points="1260.54,-822.128 1271.1,-821.346 1262.36,-815.369 1260.54,-822.128"/>
</g>
<!-- webappServerLogic -->
<g id="node16" class="node"><title>webappServerLogic</title>
<ellipse fill="#99ccee" stroke="black" cx="1434" cy="-539.311" rx="113.689" ry="26.7407"/>
<text text-anchor="middle" x="1434" y="-543.111" font-family="Times,serif" font-size="14.00">webapp&#45;server&#45;logic</text>
<text text-anchor="middle" x="1434" y="-528.111" font-family="Times,serif" font-size="14.00">(Scala &amp; JS)</text>
</g>
<!-- webappServerLogic&#45;&gt;taskmanApi -->
<g id="edge21" class="edge"><title>webappServerLogic&#45;&gt;taskmanApi</title>
<path fill="none" stroke="#cc0000" d="M1488.95,-562.985C1529.61,-579.761 1584.84,-602.548 1625.98,-619.523"/>
<polygon fill="#cc0000" stroke="#cc0000" points="1624.74,-622.8 1635.32,-623.379 1627.41,-616.329 1624.74,-622.8"/>
</g>
<!-- webappServerLogic&#45;&gt;webappBase -->
<g id="edge20" class="edge"><title>webappServerLogic&#45;&gt;webappBase</title>
<path fill="none" stroke="#cc0000" d="M1421.97,-566.069C1404.31,-600.706 1367.84,-661.25 1317,-689.921 1271.18,-715.765 1132.76,-726.525 1040.44,-730.905"/>
<polygon fill="#cc0000" stroke="#cc0000" points="1040.08,-727.417 1030.26,-731.371 1040.4,-734.41 1040.08,-727.417"/>
</g>
<!-- webappBaseTest -->
<g id="node24" class="node"><title>webappBaseTest</title>
<ellipse fill="white" stroke="blue" cx="1193" cy="-644.051" rx="100.318" ry="26.7407"/>
<text text-anchor="middle" x="1193" y="-647.851" font-family="Times,serif" font-size="14.00">webapp&#45;base&#45;test</text>
<text text-anchor="middle" x="1193" y="-632.851" font-family="Times,serif" font-size="14.00">(Scala &amp; JS)</text>
</g>
<!-- webappServerLogic&#45;&gt;webappBaseTest -->
<g id="edge22" class="edge"><title>webappServerLogic&#45;&gt;webappBaseTest</title>
<path fill="none" stroke="#111111" stroke-dasharray="5,2" d="M1380.51,-563.112C1343.31,-578.971 1293.62,-600.157 1254.73,-616.734"/>
<polygon fill="#111111" stroke="#111111" points="1252.92,-613.702 1245.09,-620.843 1255.67,-620.141 1252.92,-613.702"/>
<text text-anchor="middle" x="1342" y="-587.981" font-family="Times,serif" font-size="14.00">test</text>
</g>
<!-- webappClientPublic -->
<g id="node17" class="node"><title>webappClientPublic</title>
<ellipse fill="#99ccee" stroke="black" cx="1017" cy="-539.311" rx="117.26" ry="26.7407"/>
<text text-anchor="middle" x="1017" y="-543.111" font-family="Times,serif" font-size="14.00">webapp&#45;client&#45;public</text>
<text text-anchor="middle" x="1017" y="-528.111" font-family="Times,serif" font-size="14.00">(JS)</text>
</g>
<!-- webappClientPublic&#45;&gt;webappBase -->
<g id="edge27" class="edge"><title>webappClientPublic&#45;&gt;webappBase</title>
<path fill="none" stroke="#cc0000" d="M956.802,-562.45C925.863,-573.694 887.505,-587.426 853,-599.181 839.296,-603.849 830.522,-597.478 822,-609.181 805.848,-631.363 807.385,-647.697 822,-670.921 835.226,-691.938 857.65,-706.088 880.242,-715.544"/>
<polygon fill="#cc0000" stroke="#cc0000" points="878.979,-718.808 889.567,-719.191 881.528,-712.289 878.979,-718.808"/>
</g>
<!-- webappClientPublic&#45;&gt;webappBaseTest -->
<g id="edge28" class="edge"><title>webappClientPublic&#45;&gt;webappBaseTest</title>
<path fill="none" stroke="#111111" stroke-dasharray="5,2" d="M1058.71,-564.659C1084.19,-579.533 1116.91,-598.633 1143.67,-614.255"/>
<polygon fill="#111111" stroke="#111111" points="1142.1,-617.39 1152.5,-619.409 1145.63,-611.345 1142.1,-617.39"/>
<text text-anchor="middle" x="1130" y="-587.981" font-family="Times,serif" font-size="14.00">test</text>
</g>
<!-- webappClientHome&#45;&gt;webappBase -->
<g id="edge25" class="edge"><title>webappClientHome&#45;&gt;webappBase</title>
<path fill="none" stroke="#cc0000" d="M1303.03,-494.595C1306.8,-546.3 1313.49,-658.106 1302,-670.921 1267.98,-708.858 1132.02,-724.02 1040.18,-729.999"/>
<polygon fill="#cc0000" stroke="#cc0000" points="1039.81,-726.516 1030.05,-730.634 1040.25,-733.502 1039.81,-726.516"/>
</g>
<!-- webappClientHome&#45;&gt;webappBaseTest -->
<g id="edge26" class="edge"><title>webappClientHome&#45;&gt;webappBaseTest</title>
<path fill="none" stroke="#111111" stroke-dasharray="5,2" d="M1276.06,-494.18C1273.21,-497.53 1270.46,-500.997 1268,-504.441 1244.37,-537.556 1222.88,-578.964 1209.03,-607.86"/>
<polygon fill="#111111" stroke="#111111" points="1205.75,-606.614 1204.63,-617.15 1212.07,-609.61 1205.75,-606.614"/>
<text text-anchor="middle" x="1282" y="-535.611" font-family="Times,serif" font-size="14.00">test</text>
</g>
<!-- webappClientWwApi -->
<g id="node19" class="node"><title>webappClientWwApi</title>
<ellipse fill="#99ccee" stroke="black" cx="953" cy="-644.051" rx="121.745" ry="26.7407"/>
<text text-anchor="middle" x="953" y="-647.851" font-family="Times,serif" font-size="14.00">webapp&#45;client&#45;ww&#45;api</text>
<text text-anchor="middle" x="953" y="-632.851" font-family="Times,serif" font-size="14.00">(JS)</text>
</g>
<!-- webappClientWwApi&#45;&gt;webappBase -->
<g id="edge29" class="edge"><title>webappClientWwApi&#45;&gt;webappBase</title>
<path fill="none" stroke="#cc0000" d="M953,-671.196C953,-679.501 953,-688.836 953,-697.713"/>
<polygon fill="#cc0000" stroke="#cc0000" points="949.5,-697.833 953,-707.833 956.5,-697.833 949.5,-697.833"/>
</g>
<!-- webappClientWw&#45;&gt;webappClientWwApi -->
<g id="edge30" class="edge"><title>webappClientWw&#45;&gt;webappClientWwApi</title>
<path fill="none" stroke="#cc0000" d="M1130.65,-490.88C1135.46,-494.769 1139.75,-499.265 1143,-504.441 1154.22,-522.289 1161.71,-583.164 1148,-599.181 1138.64,-610.117 1098.1,-606.265 1084,-609.181 1068.72,-612.343 1052.54,-616.145 1036.97,-620.043"/>
<polygon fill="#cc0000" stroke="#cc0000" points="1035.67,-616.761 1026.83,-622.612 1037.39,-623.547 1035.67,-616.761"/>
</g>
<!-- webappClientWw&#45;&gt;webappBaseTest -->
<g id="edge31" class="edge"><title>webappClientWw&#45;&gt;webappBaseTest</title>
<path fill="none" stroke="#111111" stroke-dasharray="5,2" d="M1140.37,-489.396C1146.98,-493.575 1153.07,-498.545 1158,-504.441 1182.06,-533.236 1189.91,-576.359 1192.3,-606.847"/>
<polygon fill="#111111" stroke="#111111" points="1188.82,-607.297 1192.94,-617.059 1195.81,-606.861 1188.82,-607.297"/>
<text text-anchor="middle" x="1201" y="-535.611" font-family="Times,serif" font-size="14.00">test</text>
</g>
<!-- webappClientProject&#45;&gt;webappBase -->
<g id="edge32" class="edge"><title>webappClientProject&#45;&gt;webappBase</title>
<path fill="none" stroke="#cc0000" d="M708.569,-566.144C714.219,-576.773 721.339,-588.962 729,-599.181 762.885,-644.379 769.979,-660.171 818,-689.921 836.447,-701.349 858.176,-710.106 878.746,-716.677"/>
<polygon fill="#cc0000" stroke="#cc0000" points="877.828,-720.056 888.415,-719.636 879.877,-713.362 877.828,-720.056"/>
</g>
<!-- webappClientProject&#45;&gt;webappClientWwApi -->
<g id="edge33" class="edge"><title>webappClientProject&#45;&gt;webappClientWwApi</title>
<path fill="none" stroke="#cc0000" d="M714.629,-566.071C724.463,-577.871 737.495,-591.017 752,-599.181 777.198,-613.363 806.56,-622.962 834.932,-629.459"/>
<polygon fill="#cc0000" stroke="#cc0000" points="834.402,-632.926 844.918,-631.631 835.89,-626.086 834.402,-632.926"/>
</g>
<!-- webappClientProject&#45;&gt;webappBaseTest -->
<g id="edge34" class="edge"><title>webappClientProject&#45;&gt;webappBaseTest</title>
<path fill="none" stroke="#111111" stroke-dasharray="5,2" d="M736.966,-564.747C760.651,-577.536 791.519,-591.995 821,-599.181 877.823,-613.031 1026.35,-599.307 1084,-609.181 1097.6,-611.509 1111.86,-615.076 1125.41,-619.034"/>
<polygon fill="#111111" stroke="#111111" points="1124.56,-622.432 1135.14,-621.974 1126.58,-615.731 1124.56,-622.432"/>
<text text-anchor="middle" x="835" y="-587.981" font-family="Times,serif" font-size="14.00">test</text>
</g>
<!-- webappGen -->
<g id="node22" class="node"><title>webappGen</title>
<ellipse fill="#99ccee" stroke="black" cx="789" cy="-395.831" rx="73.5782" ry="26.7407"/>
<text text-anchor="middle" x="789" y="-399.631" font-family="Times,serif" font-size="14.00">webapp&#45;gen</text>
<text text-anchor="middle" x="789" y="-384.631" font-family="Times,serif" font-size="14.00">(Scala &amp; JS)</text>
</g>
<!-- webappGen&#45;&gt;webappBase -->
<g id="edge35" class="edge"><title>webappGen&#45;&gt;webappBase</title>
<path fill="none" stroke="#cc0000" d="M736.493,-414.689C676.626,-436.24 584.497,-473.444 565,-504.441 550.39,-527.668 551.685,-542.188 565,-566.181 624.692,-673.739 772.591,-712.304 867.574,-726.112"/>
<polygon fill="#cc0000" stroke="#cc0000" points="867.353,-729.615 877.74,-727.525 868.317,-722.682 867.353,-729.615"/>
</g>
<!-- webappGen&#45;&gt;webappClientProject -->
<g id="edge36" class="edge"><title>webappGen&#45;&gt;webappClientProject</title>
<path fill="none" stroke="#111111" stroke-dasharray="5,2" d="M772.373,-422.124C757.418,-444.876 735.313,-478.504 718.727,-503.736"/>
<polygon fill="#111111" stroke="#111111" points="715.68,-502 713.112,-512.279 721.529,-505.845 715.68,-502"/>
<text text-anchor="middle" x="771.5" y="-463.871" font-family="Times,serif" font-size="14.00">run</text>
</g>
<!-- webappGen&#45;&gt;webappBaseTest -->
<g id="edge37" class="edge"><title>webappGen&#45;&gt;webappBaseTest</title>
<path fill="none" stroke="#111111" stroke-dasharray="5,2" d="M798.712,-422.54C815.921,-467.514 851.075,-556.626 863,-566.181 941.089,-628.75 986.966,-584.742 1084,-609.181 1096.28,-612.274 1109.23,-615.934 1121.73,-619.685"/>
<polygon fill="#111111" stroke="#111111" points="1121.07,-623.14 1131.65,-622.703 1123.1,-616.443 1121.07,-623.14"/>
<text text-anchor="middle" x="877" y="-535.611" font-family="Times,serif" font-size="14.00">test</text>
</g>
<!-- webappServer&#45;&gt;baseDb -->
<g id="edge41" class="edge"><title>webappServer&#45;&gt;baseDb</title>
<path fill="none" stroke="#cc0000" d="M1059.11,-308.47C1213.22,-313.87 1567.11,-329.765 1862,-368.96 2026.75,-390.858 2070.2,-391.671 2229,-440.701 2390.31,-490.506 2578,-421.853 2578,-590.681 2578,-590.681 2578,-590.681 2578,-840.531 2578,-896.238 2512.91,-924.518 2462.58,-938.059"/>
<polygon fill="#cc0000" stroke="#cc0000" points="2461.55,-934.707 2452.73,-940.574 2463.29,-941.49 2461.55,-934.707"/>
</g>
<!-- webappServer&#45;&gt;taskmanApi -->
<g id="edge38" class="edge"><title>webappServer&#45;&gt;taskmanApi</title>
<path fill="none" stroke="#cc0000" d="M1055.24,-311.564C1323.17,-332.061 2228.91,-408.055 2312,-504.441 2329.92,-525.225 2330.56,-545.97 2312,-566.181 2273.98,-607.577 1863.35,-599.403 1808,-609.181 1788.11,-612.695 1766.78,-617.914 1747.48,-623.208"/>
<polygon fill="#cc0000" stroke="#cc0000" points="1746.28,-619.911 1737.59,-625.975 1748.16,-626.652 1746.28,-619.911"/>
</g>
<!-- webappServer&#45;&gt;webappServerLogic -->
<g id="edge39" class="edge"><title>webappServer&#45;&gt;webappServerLogic</title>
<path fill="none" stroke="#cc0000" d="M1059.88,-307.127C1158.43,-312.938 1325.15,-338.472 1416,-440.701 1430.72,-457.263 1435.19,-481.814 1436,-502.149"/>
<polygon fill="#cc0000" stroke="#cc0000" points="1432.5,-502.378 1436.12,-512.335 1439.5,-502.293 1432.5,-502.378"/>
</g>
<!-- webappServer&#45;&gt;webappClientPublic -->
<g id="edge42" class="edge"><title>webappServer&#45;&gt;webappClientPublic</title>
<path fill="none" stroke="#cc0000" stroke-dasharray="5,2" d="M976.022,-323.254C967.072,-357.344 951.29,-435.39 975,-494.441 976.419,-497.975 978.274,-501.386 980.414,-504.638"/>
<polygon fill="#cc0000" stroke="#cc0000" points="977.808,-506.993 986.638,-512.847 983.386,-502.764 977.808,-506.993"/>
</g>
<!-- webappServer&#45;&gt;webappClientHome -->
<g id="edge43" class="edge"><title>webappServer&#45;&gt;webappClientHome</title>
<path fill="none" stroke="#cc0000" stroke-dasharray="5,2" d="M1012.27,-321.77C1066.11,-348.775 1177.07,-404.418 1244.67,-438.319"/>
<polygon fill="#cc0000" stroke="#cc0000" points="1243.4,-441.599 1253.91,-442.954 1246.54,-435.342 1243.4,-441.599"/>
</g>
<!-- webappServer&#45;&gt;webappClientWw -->
<g id="edge45" class="edge"><title>webappServer&#45;&gt;webappClientWw</title>
<path fill="none" stroke="#cc0000" stroke-dasharray="5,2" d="M991.302,-322.961C1007.09,-348.817 1037.6,-398.773 1058.13,-432.401"/>
<polygon fill="#cc0000" stroke="#cc0000" points="1055.18,-434.286 1063.38,-440.997 1061.16,-430.638 1055.18,-434.286"/>
</g>
<!-- webappServer&#45;&gt;webappClientProject -->
<g id="edge44" class="edge"><title>webappServer&#45;&gt;webappClientProject</title>
<path fill="none" stroke="#cc0000" stroke-dasharray="5,2" d="M967.741,-322.94C938.684,-358.893 865.749,-443.957 788,-494.441 779.228,-500.137 769.601,-505.541 759.983,-510.485"/>
<polygon fill="#cc0000" stroke="#cc0000" points="758.173,-507.477 750.793,-515.079 761.302,-513.739 758.173,-507.477"/>
</g>
<!-- webappServer&#45;&gt;webappGen -->
<g id="edge40" class="edge"><title>webappServer&#45;&gt;webappGen</title>
<path fill="none" stroke="#cc0000" d="M947.556,-321.548C918.683,-334.892 876.439,-354.417 842.814,-369.958"/>
<polygon fill="#cc0000" stroke="#cc0000" points="841.186,-366.855 833.577,-374.228 844.122,-373.209 841.186,-366.855"/>
</g>
<!-- webappBaseTest&#45;&gt;baseTest -->
<g id="edge23" class="edge"><title>webappBaseTest&#45;&gt;baseTest</title>
<path fill="none" stroke="#111111" d="M1288.38,-652.61C1362.43,-658.276 1467.68,-665.888 1560,-670.921 1643.49,-675.472 2237.94,-661.099 2312,-699.921 2354.32,-722.105 2384.16,-770.113 2400.71,-803.365"/>
<polygon fill="#111111" stroke="#111111" points="2397.74,-805.249 2405.23,-812.742 2404.04,-802.213 2397.74,-805.249"/>
</g>
<!-- webappBaseTest&#45;&gt;webappBase -->
<g id="edge24" class="edge"><title>webappBaseTest&#45;&gt;webappBase</title>
<path fill="none" stroke="#111111" d="M1135.82,-666.194C1099.29,-679.7 1051.95,-697.204 1014.59,-711.017"/>
<polygon fill="#111111" stroke="#111111" points="1013,-707.875 1004.83,-714.626 1015.43,-714.44 1013,-707.875"/>
</g>
<!-- taskman -->
<g id="node25" class="node"><title>taskman</title>
<ellipse fill="#ffff80" stroke="black" cx="467" cy="-395.831" rx="70.922" ry="26.7407"/>
<text text-anchor="middle" x="467" y="-399.631" font-family="Times,serif" font-size="14.00">[aggregate]</text>
<text text-anchor="middle" x="467" y="-384.631" font-family="Times,serif" font-size="14.00">taskman</text>
</g>
<!-- taskman&#45;&gt;taskmanServer -->
<g id="edge57" class="edge"><title>taskman&#45;&gt;taskmanServer</title>
<path fill="none" stroke="#aaaaaa" stroke-dasharray="5,2" d="M478.504,-422.614C490.57,-446.144 511.976,-479.463 542,-494.441 567.305,-507.064 1531.75,-503.23 1560,-504.441 1681.02,-509.625 1820.15,-521.066 1910.39,-529.215"/>
<polygon fill="#aaaaaa" stroke="#aaaaaa" points="1920.6,-530.142 1910.23,-533.72 1915.62,-529.69 1910.64,-529.238 1910.64,-529.238 1910.64,-529.238 1915.62,-529.69 1911.05,-524.757 1920.6,-530.142 1920.6,-530.142"/>
</g>
<!-- taskman&#45;&gt;taskmanApi -->
<g id="edge56" class="edge"><title>taskman&#45;&gt;taskmanApi</title>
<path fill="none" stroke="#aaaaaa" stroke-dasharray="5,2" d="M467.301,-422.798C469.439,-468.461 481.399,-561.834 542,-599.181 566.075,-614.017 1531.99,-605.255 1560,-609.181 1579.89,-611.969 1601.13,-617.033 1620.26,-622.409"/>
<polygon fill="#aaaaaa" stroke="#aaaaaa" points="1630.05,-625.239 1619.19,-626.786 1625.25,-623.851 1620.44,-622.463 1620.44,-622.463 1620.44,-622.463 1625.25,-623.851 1621.69,-618.14 1630.05,-625.239 1630.05,-625.239"/>
</g>
<!-- benchmark -->
<g id="node26" class="node"><title>benchmark</title>
<ellipse fill="#ffffdd" stroke="black" cx="286" cy="-117.61" rx="70.922" ry="26.7407"/>
<text text-anchor="middle" x="286" y="-121.41" font-family="Times,serif" font-size="14.00">[aggregate]</text>
<text text-anchor="middle" x="286" y="-106.41" font-family="Times,serif" font-size="14.00">benchmark</text>
</g>
<!-- benchmarkJvm -->
<g id="node27" class="node"><title>benchmarkJvm</title>
<ellipse fill="#ffcccc" stroke="black" cx="286" cy="-214.35" rx="86.3847" ry="18"/>
<text text-anchor="middle" x="286" y="-210.65" font-family="Times,serif" font-size="14.00">benchmark JVM</text>
</g>
<!-- benchmark&#45;&gt;benchmarkJvm -->
<g id="edge66" class="edge"><title>benchmark&#45;&gt;benchmarkJvm</title>
<path fill="none" stroke="#aaaaaa" stroke-dasharray="5,2" d="M286,-144.498C286,-157.339 286,-172.851 286,-185.899"/>
<polygon fill="#aaaaaa" stroke="#aaaaaa" points="286,-196.166 281.5,-186.166 286,-191.166 286,-186.166 286,-186.166 286,-186.166 286,-191.166 290.5,-186.166 286,-196.166 286,-196.166"/>
</g>
<!-- benchmarkJs -->
<g id="node28" class="node"><title>benchmarkJs</title>
<ellipse fill="#ffcccc" stroke="black" cx="105" cy="-214.35" rx="76.8869" ry="18"/>
<text text-anchor="middle" x="105" y="-210.65" font-family="Times,serif" font-size="14.00">benchmark JS</text>
</g>
<!-- benchmark&#45;&gt;benchmarkJs -->
<g id="edge67" class="edge"><title>benchmark&#45;&gt;benchmarkJs</title>
<path fill="none" stroke="#aaaaaa" stroke-dasharray="5,2" d="M245.38,-139.872C214.965,-155.792 173.619,-177.433 143.682,-193.103"/>
<polygon fill="#aaaaaa" stroke="#aaaaaa" points="134.782,-197.761 141.555,-189.137 139.212,-195.443 143.642,-193.124 143.642,-193.124 143.642,-193.124 139.212,-195.443 145.729,-197.111 134.782,-197.761 134.782,-197.761"/>
</g>
<!-- benchmarkJvm&#45;&gt;webappServer -->
<g id="edge48" class="edge"><title>benchmarkJvm&#45;&gt;webappServer</title>
<path fill="none" stroke="#cc0000" d="M357.76,-224.513C489.247,-241.302 767.732,-276.86 903.425,-294.185"/>
<polygon fill="#cc0000" stroke="#cc0000" points="903.371,-297.707 913.734,-295.502 904.258,-290.763 903.371,-297.707"/>
</g>
<!-- benchmarkShared -->
<g id="node29" class="node"><title>benchmarkShared</title>
<ellipse fill="#ffcccc" stroke="black" cx="156" cy="-305.09" rx="69.0935" ry="26.7407"/>
<text text-anchor="middle" x="156" y="-308.89" font-family="Times,serif" font-size="14.00">benchmark</text>
<text text-anchor="middle" x="156" y="-293.89" font-family="Times,serif" font-size="14.00">base</text>
</g>
<!-- benchmarkJvm&#45;&gt;benchmarkShared -->
<g id="edge46" class="edge"><title>benchmarkJvm&#45;&gt;benchmarkShared</title>
<path fill="none" stroke="#cc0000" d="M261.853,-231.834C243.912,-244.081 218.988,-261.094 197.831,-275.536"/>
<polygon fill="#cc0000" stroke="#cc0000" points="195.615,-272.811 189.329,-281.339 199.562,-278.592 195.615,-272.811"/>
</g>
<!-- benchmarkJs&#45;&gt;webappClientProject -->
<g id="edge49" class="edge"><title>benchmarkJs&#45;&gt;webappClientProject</title>
<path fill="none" stroke="#cc0000" d="M147.103,-229.535C173.991,-240.039 208.469,-256.325 234,-278.22 322.782,-354.359 284.412,-433.11 384,-494.441 414.694,-513.343 496.483,-524.41 568.62,-530.7"/>
<polygon fill="#cc0000" stroke="#cc0000" points="568.468,-534.2 578.728,-531.556 569.059,-527.224 568.468,-534.2"/>
</g>
<!-- benchmarkJs&#45;&gt;benchmarkShared -->
<g id="edge47" class="edge"><title>benchmarkJs&#45;&gt;benchmarkShared</title>
<path fill="none" stroke="#cc0000" d="M114.833,-232.46C120.889,-242.998 128.87,-256.884 136.191,-269.623"/>
<polygon fill="#cc0000" stroke="#cc0000" points="133.351,-271.705 141.368,-278.631 139.42,-268.217 133.351,-271.705"/>
</g>
<!-- utils -->
<g id="node30" class="node"><title>utils</title>
<ellipse fill="#ffffdd" stroke="black" cx="113" cy="-117.61" rx="31.3957" ry="18"/>
<text text-anchor="middle" x="113" y="-113.91" font-family="Times,serif" font-size="14.00">utils</text>
</g>
<!-- utils&#45;&gt;webappBase -->
<g id="edge50" class="edge"><title>utils&#45;&gt;webappBase</title>
<path fill="none" stroke="#cc0000" d="M86.7915,-127.383C53.4102,-140.41 0,-168.293 0,-213.35 0,-213.35 0,-213.35 0,-645.051 0,-688.287 630.07,-719.882 865.581,-730.181"/>
<polygon fill="#cc0000" stroke="#cc0000" points="865.677,-733.689 875.819,-730.627 865.981,-726.695 865.677,-733.689"/>
</g>
<!-- root -->
<g id="node31" class="node"><title>root</title>
<ellipse fill="#cccccc" stroke="black" cx="467" cy="-26.8701" rx="70.922" ry="26.7407"/>
<text text-anchor="middle" x="467" y="-30.6701" font-family="Times,serif" font-size="14.00">[aggregate]</text>
<text text-anchor="middle" x="467" y="-15.6701" font-family="Times,serif" font-size="14.00">root</text>
</g>
<!-- root&#45;&gt;base -->
<g id="edge68" class="edge"><title>root&#45;&gt;base</title>
<path fill="none" stroke="#aaaaaa" stroke-dasharray="5,2" d="M537.758,-29.0102C901.074,-35.0912 2540,-65.3625 2540,-116.61 2540,-116.61 2540,-116.61 2540,-645.051 2540,-666.543 2527.7,-686.628 2514.14,-702.235"/>
<polygon fill="#aaaaaa" stroke="#aaaaaa" points="2507,-709.972 2510.48,-699.572 2510.39,-706.298 2513.78,-702.625 2513.78,-702.625 2513.78,-702.625 2510.39,-706.298 2517.09,-705.678 2507,-709.972 2507,-709.972"/>
</g>
<!-- root&#45;&gt;webapp -->
<g id="edge69" class="edge"><title>root&#45;&gt;webapp</title>
<path fill="none" stroke="#aaaaaa" stroke-dasharray="5,2" d="M524.077,-42.7328C609.095,-65.715 773.224,-113.351 906,-171.48 915.835,-175.786 926.069,-180.981 935.701,-186.225"/>
<polygon fill="#aaaaaa" stroke="#aaaaaa" points="944.718,-191.24 933.792,-190.312 940.349,-188.81 935.979,-186.38 935.979,-186.38 935.979,-186.38 940.349,-188.81 938.166,-182.447 944.718,-191.24 944.718,-191.24"/>
</g>
<!-- root&#45;&gt;taskman -->
<g id="edge70" class="edge"><title>root&#45;&gt;taskman</title>
<path fill="none" stroke="#aaaaaa" stroke-dasharray="5,2" d="M467,-53.8861C467,-71.5732 467,-95.5036 467,-116.61 467,-116.61 467,-116.61 467,-306.09 467,-323.404 467,-342.619 467,-358.728"/>
<polygon fill="#aaaaaa" stroke="#aaaaaa" points="467,-368.815 462.5,-358.814 467,-363.815 467,-358.815 467,-358.815 467,-358.815 467,-363.815 471.5,-358.815 467,-368.815 467,-368.815"/>
</g>
<!-- root&#45;&gt;benchmark -->
<g id="edge71" class="edge"><title>root&#45;&gt;benchmark</title>
<path fill="none" stroke="#aaaaaa" stroke-dasharray="5,2" d="M424.564,-48.6757C398.466,-61.4707 364.856,-77.9488 337.274,-91.4718"/>
<polygon fill="#aaaaaa" stroke="#aaaaaa" points="328.171,-95.9349 335.169,-87.4922 332.66,-93.7338 337.15,-91.5327 337.15,-91.5327 337.15,-91.5327 332.66,-93.7338 339.131,-95.5732 328.171,-95.9349 328.171,-95.9349"/>
</g>
<!-- root&#45;&gt;utils -->
<g id="edge72" class="edge"><title>root&#45;&gt;utils</title>
<path fill="none" stroke="#aaaaaa" stroke-dasharray="5,2" d="M403.362,-38.6344C350.131,-48.2599 272.449,-63.759 206,-82.7401 186.387,-88.3424 164.968,-96.0315 147.633,-102.668"/>
<polygon fill="#aaaaaa" stroke="#aaaaaa" points="137.944,-106.429 145.637,-98.6152 142.605,-104.62 147.266,-102.81 147.266,-102.81 147.266,-102.81 142.605,-104.62 148.895,-107.005 137.944,-106.429 137.944,-106.429"/>
</g>
</g>
</svg>
