<?xml version="1.0" encoding="UTF-8" standalone="no"?>
<!DOCTYPE svg PUBLIC "-//W3C//DTD SVG 1.1//EN"
 "http://www.w3.org/Graphics/SVG/1.1/DTD/svg11.dtd">
<!-- Generated by graphviz version 2.38.0 (20140413.2041)
 -->
<!-- Title: G Pages: 1 -->
<svg width="997pt" height="790pt"
 viewBox="0.00 0.00 996.52 790.44" xmlns="http://www.w3.org/2000/svg" xmlns:xlink="http://www.w3.org/1999/xlink">
<g id="graph0" class="graph" transform="scale(1 1) rotate(0) translate(4 786.441)">
<title>G</title>
<polygon fill="white" stroke="none" points="-4,4 -4,-786.441 992.517,-786.441 992.517,4 -4,4"/>
<g id="clust1" class="cluster"><title>cluster_base</title>
<polygon fill="#f4fff4" stroke="black" points="8,-360.96 8,-774.441 148,-774.441 148,-360.96 8,-360.96"/>
</g>
<g id="clust2" class="cluster"><title>cluster_t</title>
<polygon fill="#eeeeff" stroke="black" points="167,-80.7401 167,-612.701 943,-612.701 943,-80.7401 167,-80.7401"/>
</g>
<g id="clust3" class="cluster"><title>cluster_ts</title>
<polygon fill="white" stroke="black" points="365,-270.22 365,-517.701 759,-517.701 759,-270.22 365,-270.22"/>
</g>
<g id="clust4" class="cluster"><title>cluster_ta</title>
<polygon fill="white" stroke="black" points="175,-270.22 175,-604.701 357,-604.701 357,-270.22 175,-270.22"/>
</g>
<g id="clust5" class="cluster"><title>cluster_w</title>
<polygon fill="white" stroke="black" points="767,-88.7401 767,-430.701 935,-430.701 935,-88.7401 767,-88.7401"/>
</g>
<!-- base -->
<g id="node1" class="node"><title>base</title>
<ellipse fill="#cccccc" stroke="black" cx="78" cy="-395.831" rx="55.3091" ry="26.7407"/>
<text text-anchor="middle" x="78" y="-399.631" font-family="Times,serif" font-size="14.00">[aggregate]</text>
<text text-anchor="middle" x="78" y="-384.631" font-family="Times,serif" font-size="14.00">base</text>
</g>
<!-- baseUtil -->
<g id="node3" class="node"><title>baseUtil</title>
<ellipse fill="#bbffbb" stroke="black" cx="79" cy="-657.701" rx="40.8928" ry="18"/>
<text text-anchor="middle" x="79" y="-654.001" font-family="Times,serif" font-size="14.00">base&#45;util</text>
</g>
<!-- base&#45;&gt;baseUtil -->
<g id="edge33" class="edge"><title>base&#45;&gt;baseUtil</title>
<path fill="none" stroke="#aaaaaa" stroke-dasharray="5,2" d="M57.3043,-421.162C53.0001,-427.23 48.8975,-433.942 46,-440.701 40.1259,-454.402 41.3387,-458.854 40,-473.701 34.445,-535.307 34.8535,-552.049 47,-612.701 48.4206,-619.794 51.8557,-626.582 55.9727,-632.612"/>
<polygon fill="#aaaaaa" stroke="#aaaaaa" points="62.3372,-640.851 52.6628,-635.688 59.2806,-636.894 56.224,-632.937 56.224,-632.937 56.224,-632.937 59.2806,-636.894 59.7853,-630.186 62.3372,-640.851 62.3372,-640.851"/>
</g>
<!-- baseDb -->
<g id="node4" class="node"><title>baseDb</title>
<ellipse fill="#bbffbb" stroke="black" cx="101" cy="-578.701" rx="38.1938" ry="18"/>
<text text-anchor="middle" x="101" y="-575.001" font-family="Times,serif" font-size="14.00">base&#45;db</text>
</g>
<!-- base&#45;&gt;baseDb -->
<g id="edge34" class="edge"><title>base&#45;&gt;baseDb</title>
<path fill="none" stroke="#aaaaaa" stroke-dasharray="5,2" d="M63.4227,-422.026C51.0994,-446.612 36.931,-484.987 47,-517.701 51.6112,-532.682 62.5015,-546.026 73.3037,-556.304"/>
<polygon fill="#aaaaaa" stroke="#aaaaaa" points="81.0627,-563.225 70.6047,-559.926 77.3315,-559.896 73.6002,-556.568 73.6002,-556.568 73.6002,-556.568 77.3315,-559.896 76.5957,-553.21 81.0627,-563.225 81.0627,-563.225"/>
</g>
<!-- baseTest -->
<g id="node5" class="node"><title>baseTest</title>
<ellipse fill="#bbffbb" stroke="black" cx="98" cy="-491.701" rx="41.6928" ry="18"/>
<text text-anchor="middle" x="98" y="-488.001" font-family="Times,serif" font-size="14.00">base&#45;test</text>
</g>
<!-- base&#45;&gt;baseTest -->
<g id="edge35" class="edge"><title>base&#45;&gt;baseTest</title>
<path fill="none" stroke="#aaaaaa" stroke-dasharray="5,2" d="M83.518,-422.729C86.2279,-435.448 89.4915,-450.766 92.234,-463.638"/>
<polygon fill="#aaaaaa" stroke="#aaaaaa" points="94.3915,-473.764 87.9064,-464.922 93.3496,-468.874 92.3076,-463.984 92.3076,-463.984 92.3076,-463.984 93.3496,-468.874 96.7088,-463.046 94.3915,-473.764 94.3915,-473.764"/>
</g>
<!-- baseRaw -->
<g id="node2" class="node"><title>baseRaw</title>
<ellipse fill="#bbffbb" stroke="black" cx="79" cy="-739.571" rx="60.623" ry="26.7407"/>
<text text-anchor="middle" x="79" y="-743.371" font-family="Times,serif" font-size="14.00">base&#45;util&#45;sjs</text>
<text text-anchor="middle" x="79" y="-728.371" font-family="Times,serif" font-size="14.00">(Scala &amp; JS)</text>
</g>
<!-- baseUtil&#45;&gt;baseRaw -->
<g id="edge1" class="edge"><title>baseUtil&#45;&gt;baseRaw</title>
<path fill="none" stroke="#cc0000" d="M79,-686.223C79,-694.726 79,-704.062 79,-712.467"/>
<polygon fill="#cc0000" stroke="#cc0000" points="82.5001,-686.031 79,-676.031 75.5001,-686.031 82.5001,-686.031"/>
</g>
<!-- baseDb&#45;&gt;baseUtil -->
<g id="edge2" class="edge"><title>baseDb&#45;&gt;baseUtil</title>
<path fill="none" stroke="#cc0000" d="M93.2747,-606.739C90.1463,-617.688 86.6292,-629.998 83.8689,-639.66"/>
<polygon fill="#cc0000" stroke="#cc0000" points="96.7355,-607.366 96.1175,-596.789 90.0049,-605.443 96.7355,-607.366"/>
</g>
<!-- baseTest&#45;&gt;baseUtil -->
<g id="edge3" class="edge"><title>baseTest&#45;&gt;baseUtil</title>
<path fill="none" stroke="#cc0000" d="M72.9543,-515.491C69.6245,-519.33 66.5029,-523.454 64,-527.701 56.2186,-540.903 56.2465,-545.541 54,-560.701 50.6122,-583.562 48.0955,-590.356 54,-612.701 56.6038,-622.554 61.9809,-632.512 67.0835,-640.456"/>
<polygon fill="#cc0000" stroke="#cc0000" points="75.6394,-517.745 79.95,-508.067 70.5448,-512.945 75.6394,-517.745"/>
</g>
<!-- baseTest&#45;&gt;baseDb -->
<g id="edge4" class="edge"><title>baseTest&#45;&gt;baseDb</title>
<path fill="none" stroke="#cc0000" stroke-dasharray="5,2" d="M74.1714,-516.234C68.7524,-524.35 65.4958,-533.675 69,-542.701 71.9202,-550.222 77.2941,-557.114 82.8151,-562.756"/>
<polygon fill="#cc0000" stroke="#cc0000" points="76.9941,-518.306 80.4086,-508.277 71.4848,-513.988 76.9941,-518.306"/>
<text text-anchor="middle" x="93.5" y="-531.501" font-family="Times,serif" font-size="14.00">provided</text>
</g>
<!-- taskmanDb -->
<g id="node6" class="node"><title>taskmanDb</title>
<ellipse fill="#aaaaff" stroke="black" cx="468" cy="-491.701" rx="94.7833" ry="18"/>
<text text-anchor="middle" x="468" y="-488.001" font-family="Times,serif" font-size="14.00">taskman&#45;server&#45;schema</text>
</g>
<!-- taskmanDb&#45;&gt;baseDb -->
<g id="edge5" class="edge"><title>taskmanDb&#45;&gt;baseDb</title>
<path fill="none" stroke="#cc0000" d="M400.852,-508.465C387.644,-511.544 373.889,-514.736 361,-517.701 276.623,-537.105 255.292,-540.928 171,-560.701 158.946,-563.528 145.747,-566.711 134.09,-569.552"/>
<polygon fill="#cc0000" stroke="#cc0000" points="401.878,-511.819 410.821,-506.138 400.287,-505.003 401.878,-511.819"/>
</g>
<!-- taskmanServerImpl -->
<g id="node7" class="node"><title>taskmanServerImpl</title>
<ellipse fill="#aaaaff" stroke="black" cx="563" cy="-395.831" rx="84.485" ry="18"/>
<text text-anchor="middle" x="563" y="-392.131" font-family="Times,serif" font-size="14.00">taskman&#45;server&#45;impl</text>
</g>
<!-- taskmanServerImpl&#45;&gt;taskmanDb -->
<g id="edge16" class="edge"><title>taskmanServerImpl&#45;&gt;taskmanDb</title>
<path fill="none" stroke="#cc0000" d="M538.723,-420.819C521.973,-437.369 500.114,-458.969 485.157,-473.747"/>
<polygon fill="#cc0000" stroke="#cc0000" points="541.363,-423.131 546.016,-413.613 536.443,-418.152 541.363,-423.131"/>
</g>
<!-- taskmanServerLogic -->
<g id="node8" class="node"><title>taskmanServerLogic</title>
<ellipse fill="#aaaaff" stroke="black" cx="666" cy="-491.701" rx="85.2851" ry="18"/>
<text text-anchor="middle" x="666" y="-488.001" font-family="Times,serif" font-size="14.00">taskman&#45;server&#45;logic</text>
</g>
<!-- taskmanServerImpl&#45;&gt;taskmanServerLogic -->
<g id="edge14" class="edge"><title>taskmanServerImpl&#45;&gt;taskmanServerLogic</title>
<path fill="none" stroke="#cc0000" d="M588.881,-420.417C607.226,-437.136 631.391,-459.159 647.745,-474.064"/>
<polygon fill="#cc0000" stroke="#cc0000" points="591.163,-417.762 581.414,-413.613 586.448,-422.935 591.163,-417.762"/>
</g>
<!-- taskmanApi -->
<g id="node10" class="node"><title>taskmanApi</title>
<ellipse fill="#cccccc" stroke="black" cx="290" cy="-305.09" rx="58.8803" ry="26.7407"/>
<text text-anchor="middle" x="290" y="-308.89" font-family="Times,serif" font-size="14.00">[aggregate]</text>
<text text-anchor="middle" x="290" y="-293.89" font-family="Times,serif" font-size="14.00">taskman&#45;api</text>
</g>
<!-- taskmanServerImpl&#45;&gt;taskmanApi -->
<g id="edge15" class="edge"><title>taskmanServerImpl&#45;&gt;taskmanApi</title>
<path fill="none" stroke="#cc0000" d="M506.136,-377.923C465.532,-365.658 409.705,-348.403 361,-331.96 352.423,-329.065 343.312,-325.851 334.577,-322.701"/>
<polygon fill="#cc0000" stroke="#cc0000" points="505.272,-381.318 515.857,-380.852 507.291,-374.616 505.272,-381.318"/>
</g>
<!-- taskmanApiLogic -->
<g id="node12" class="node"><title>taskmanApiLogic</title>
<ellipse fill="#cceeff" stroke="black" cx="274" cy="-578.701" rx="74.9875" ry="18"/>
<text text-anchor="middle" x="274" y="-575.001" font-family="Times,serif" font-size="14.00">taskman&#45;api&#45;logic</text>
</g>
<!-- taskmanServerLogic&#45;&gt;taskmanApiLogic -->
<g id="edge13" class="edge"><title>taskmanServerLogic&#45;&gt;taskmanApiLogic</title>
<path fill="none" stroke="#cc0000" d="M606.497,-509.115C595.078,-512.097 583.193,-515.088 572,-517.701 488.872,-537.104 391.824,-555.941 331.632,-567.181"/>
<polygon fill="#cc0000" stroke="#cc0000" points="607.607,-512.442 616.383,-506.505 605.821,-505.673 607.607,-512.442"/>
</g>
<!-- taskmanServer -->
<g id="node9" class="node"><title>taskmanServer</title>
<ellipse fill="#cccccc" stroke="black" cx="563" cy="-305.09" rx="70.922" ry="26.7407"/>
<text text-anchor="middle" x="563" y="-308.89" font-family="Times,serif" font-size="14.00">[aggregate]</text>
<text text-anchor="middle" x="563" y="-293.89" font-family="Times,serif" font-size="14.00">taskman&#45;server</text>
</g>
<!-- taskmanServer&#45;&gt;taskmanDb -->
<g id="edge28" class="edge"><title>taskmanServer&#45;&gt;taskmanDb</title>
<path fill="none" stroke="#aaaaaa" stroke-dasharray="5,2" d="M512.471,-324.075C495.999,-332.598 479.516,-344.591 470,-360.96 451.729,-392.39 455.699,-435.753 461.13,-463.513"/>
<polygon fill="#aaaaaa" stroke="#aaaaaa" points="463.239,-473.331 456.739,-464.499 462.189,-468.442 461.139,-463.554 461.139,-463.554 461.139,-463.554 462.189,-468.442 465.538,-462.609 463.239,-473.331 463.239,-473.331"/>
</g>
<!-- taskmanServer&#45;&gt;taskmanServerImpl -->
<g id="edge17" class="edge"><title>taskmanServer&#45;&gt;taskmanServerImpl</title>
<path fill="none" stroke="#cc0000" d="M556.353,-342.276C556.04,-354.577 556.44,-367.747 557.554,-377.826"/>
<polygon fill="#cc0000" stroke="#cc0000" points="559.852,-342.376 556.784,-332.235 552.858,-342.076 559.852,-342.376"/>
</g>
<!-- taskmanServer&#45;&gt;taskmanServerImpl -->
<g id="edge27" class="edge"><title>taskmanServer&#45;&gt;taskmanServerImpl</title>
<path fill="none" stroke="#aaaaaa" stroke-dasharray="5,2" d="M569.216,-332.235C569.907,-343.393 569.927,-356.413 569.276,-367.679"/>
<polygon fill="#aaaaaa" stroke="#aaaaaa" points="568.446,-377.826 564.777,-367.492 568.854,-372.842 569.262,-367.859 569.262,-367.859 569.262,-367.859 568.854,-372.842 573.747,-368.226 568.446,-377.826 568.446,-377.826"/>
</g>
<!-- taskmanServer&#45;&gt;taskmanServerLogic -->
<g id="edge26" class="edge"><title>taskmanServer&#45;&gt;taskmanServerLogic</title>
<path fill="none" stroke="#aaaaaa" stroke-dasharray="5,2" d="M612.981,-324.405C629.397,-332.962 645.985,-344.892 656,-360.96 675.305,-391.934 674.226,-435.484 670.804,-463.402"/>
<polygon fill="#aaaaaa" stroke="#aaaaaa" points="669.359,-473.627 666.302,-463.096 670.058,-468.676 670.758,-463.725 670.758,-463.725 670.758,-463.725 670.058,-468.676 675.214,-464.355 669.359,-473.627 669.359,-473.627"/>
</g>
<!-- taskmanApiImpl -->
<g id="node11" class="node"><title>taskmanApiImpl</title>
<ellipse fill="#cceeff" stroke="black" cx="256" cy="-395.831" rx="73.387" ry="18"/>
<text text-anchor="middle" x="256" y="-392.131" font-family="Times,serif" font-size="14.00">taskman&#45;api&#45;impl</text>
</g>
<!-- taskmanApi&#45;&gt;taskmanApiImpl -->
<g id="edge12" class="edge"><title>taskmanApi&#45;&gt;taskmanApiImpl</title>
<path fill="none" stroke="#cc0000" d="M270.135,-340.704C264.879,-353.407 259.964,-367.232 257.095,-377.73"/>
<polygon fill="#cc0000" stroke="#cc0000" points="273.452,-341.851 274.193,-331.282 267.023,-339.082 273.452,-341.851"/>
</g>
<!-- taskmanApi&#45;&gt;taskmanApiImpl -->
<g id="edge25" class="edge"><title>taskmanApi&#45;&gt;taskmanApiImpl</title>
<path fill="none" stroke="#aaaaaa" stroke-dasharray="5,2" d="M286.199,-332.235C282.504,-343.739 277.338,-357.22 272.218,-368.719"/>
<polygon fill="#aaaaaa" stroke="#aaaaaa" points="267.962,-377.826 268.12,-366.861 270.079,-373.296 272.196,-368.766 272.196,-368.766 272.196,-368.766 270.079,-373.296 276.273,-370.672 267.962,-377.826 267.962,-377.826"/>
</g>
<!-- taskmanApi&#45;&gt;taskmanApiLogic -->
<g id="edge24" class="edge"><title>taskmanApi&#45;&gt;taskmanApiLogic</title>
<path fill="none" stroke="#aaaaaa" stroke-dasharray="5,2" d="M316.791,-329.185C325.251,-338.148 333.549,-349.112 338,-360.96 348.9,-389.976 342.485,-400.031 338,-430.701 332.161,-470.632 328.731,-480.976 312,-517.701 306.583,-529.59 299.141,-541.916 292.277,-552.281"/>
<polygon fill="#aaaaaa" stroke="#aaaaaa" points="286.46,-560.824 288.368,-550.026 289.274,-556.691 292.088,-552.558 292.088,-552.558 292.088,-552.558 289.274,-556.691 295.808,-555.091 286.46,-560.824 286.46,-560.824"/>
</g>
<!-- taskmanApiImpl&#45;&gt;baseDb -->
<g id="edge8" class="edge"><title>taskmanApiImpl&#45;&gt;baseDb</title>
<path fill="none" stroke="#cc0000" d="M234.876,-421.48C202.545,-459.207 141.691,-530.218 114.602,-561.828"/>
<polygon fill="#cc0000" stroke="#cc0000" points="237.846,-423.393 241.696,-413.522 232.531,-418.838 237.846,-423.393"/>
</g>
<!-- taskmanApiImpl&#45;&gt;baseTest -->
<g id="edge11" class="edge"><title>taskmanApiImpl&#45;&gt;baseTest</title>
<path fill="none" stroke="#111111" stroke-dasharray="5,2" d="M201.392,-413.23C174.748,-421.901 146.088,-432.432 135,-440.701 123.227,-449.48 113.52,-463.043 107.007,-473.829"/>
<polygon fill="#111111" stroke="#111111" points="202.625,-416.511 211.081,-410.127 200.49,-409.844 202.625,-416.511"/>
<text text-anchor="middle" x="144.5" y="-444.501" font-family="Times,serif" font-size="14.00">test</text>
</g>
<!-- taskmanApiImpl&#45;&gt;taskmanDb -->
<g id="edge10" class="edge"><title>taskmanApiImpl&#45;&gt;taskmanDb</title>
<path fill="none" stroke="#111111" stroke-dasharray="5,2" d="M299.623,-416.146C338.821,-433.502 395.683,-458.68 432.252,-474.872"/>
<polygon fill="#111111" stroke="#111111" points="300.622,-412.761 290.061,-411.912 297.788,-419.161 300.622,-412.761"/>
<text text-anchor="middle" x="397.5" y="-444.501" font-family="Times,serif" font-size="14.00">test</text>
</g>
<!-- taskmanApiImpl&#45;&gt;taskmanApiLogic -->
<g id="edge7" class="edge"><title>taskmanApiImpl&#45;&gt;taskmanApiLogic</title>
<path fill="none" stroke="#cc0000" d="M255.794,-424.156C255.926,-448.728 256.91,-485.762 261,-517.701 262.868,-532.29 266.5,-548.586 269.451,-560.508"/>
<polygon fill="#cc0000" stroke="#cc0000" points="259.294,-424.119 255.784,-414.123 252.294,-424.126 259.294,-424.119"/>
</g>
<!-- taskmanApiImpl&#45;&gt;taskmanApiLogic -->
<g id="edge9" class="edge"><title>taskmanApiImpl&#45;&gt;taskmanApiLogic</title>
<path fill="none" stroke="#111111" stroke-dasharray="5,2" d="M259.929,-424.024C260.666,-429.538 261.395,-435.3 262,-440.701 266.815,-483.647 270.82,-534.35 272.753,-560.372"/>
<polygon fill="#111111" stroke="#111111" points="263.364,-423.318 258.529,-413.89 256.43,-424.275 263.364,-423.318"/>
<text text-anchor="middle" x="289" y="-488.001" font-family="Times,serif" font-size="14.00">test&#45;lib</text>
</g>
<!-- taskmanApiLogic&#45;&gt;baseUtil -->
<g id="edge6" class="edge"><title>taskmanApiLogic&#45;&gt;baseUtil</title>
<path fill="none" stroke="#cc0000" d="M227.301,-598.141C190.34,-612.735 139.864,-632.667 108.363,-645.106"/>
<polygon fill="#cc0000" stroke="#cc0000" points="228.847,-601.293 236.863,-594.365 226.276,-594.782 228.847,-601.293"/>
</g>
<!-- webapp -->
<g id="node13" class="node"><title>webapp</title>
<ellipse fill="#ffff80" stroke="black" cx="847" cy="-123.61" rx="55.3091" ry="26.7407"/>
<text text-anchor="middle" x="847" y="-127.41" font-family="Times,serif" font-size="14.00">[aggregate]</text>
<text text-anchor="middle" x="847" y="-112.41" font-family="Times,serif" font-size="14.00">webapp</text>
</g>
<!-- webappBack -->
<g id="node14" class="node"><title>webappBack</title>
<ellipse fill="#99ccee" stroke="black" cx="865" cy="-214.35" rx="62.2891" ry="18"/>
<text text-anchor="middle" x="865" y="-210.65" font-family="Times,serif" font-size="14.00">webapp&#45;server</text>
</g>
<!-- webapp&#45;&gt;webappBack -->
<g id="edge32" class="edge"><title>webapp&#45;&gt;webappBack</title>
<path fill="none" stroke="#aaaaaa" stroke-dasharray="5,2" d="M852.303,-150.755C854.567,-161.913 857.207,-174.933 859.493,-186.199"/>
<polygon fill="#aaaaaa" stroke="#aaaaaa" points="861.551,-196.345 855.153,-187.439 860.557,-191.445 859.563,-186.545 859.563,-186.545 859.563,-186.545 860.557,-191.445 863.973,-185.65 861.551,-196.345 861.551,-196.345"/>
</g>
<!-- webappFront -->
<g id="node15" class="node"><title>webappFront</title>
<ellipse fill="#99ccee" stroke="black" cx="841" cy="-305.09" rx="65.5227" ry="26.7407"/>
<text text-anchor="middle" x="841" y="-308.89" font-family="Times,serif" font-size="14.00">webapp&#45;client</text>
<text text-anchor="middle" x="841" y="-293.89" font-family="Times,serif" font-size="14.00">(JS)</text>
</g>
<!-- webapp&#45;&gt;webappFront -->
<g id="edge31" class="edge"><title>webapp&#45;&gt;webappFront</title>
<path fill="none" stroke="#aaaaaa" stroke-dasharray="5,2" d="M821.044,-147.362C810.51,-158.302 799.535,-172.328 794,-187.48 785.805,-209.915 786.465,-218.556 794,-241.22 797.621,-252.111 803.946,-262.641 810.804,-271.868"/>
<polygon fill="#aaaaaa" stroke="#aaaaaa" points="817.19,-279.949 807.459,-274.893 814.09,-276.026 810.99,-272.103 810.99,-272.103 810.99,-272.103 814.09,-276.026 814.521,-269.313 817.19,-279.949 817.19,-279.949"/>
</g>
<!-- webappBack&#45;&gt;baseDb -->
<g id="edge18" class="edge"><title>webappBack:e&#45;&gt;baseDb</title>
<path fill="none" stroke="#cc0000" d="M939.159,-214.896C1022.32,-224.257 984.611,-351.844 936,-430.701 890.838,-503.963 845.964,-494.808 763,-517.701 508.699,-587.87 431.626,-519.876 171,-560.701 158.521,-562.655 144.993,-565.714 133.186,-568.701"/>
<polygon fill="#cc0000" stroke="#cc0000" points="939.173,-211.392 929,-214.35 938.798,-218.382 939.173,-211.392"/>
</g>
<!-- webappBack&#45;&gt;taskmanApi -->
<g id="edge19" class="edge"><title>webappBack&#45;&gt;taskmanApi</title>
<path fill="none" stroke="#cc0000" d="M823.169,-233.404C815.248,-236.347 806.951,-239.115 799,-241.22 742.128,-256.276 726.602,-255.032 668,-260.22 600.008,-266.24 427.321,-254.072 361,-270.22 349.058,-273.128 336.737,-278.178 325.78,-283.504"/>
<polygon fill="#cc0000" stroke="#cc0000" points="824.53,-236.63 832.596,-229.761 822.007,-230.101 824.53,-236.63"/>
</g>
<!-- webappBack&#45;&gt;webappFront -->
<g id="edge22" class="edge"><title>webappBack&#45;&gt;webappFront</title>
<path fill="none" stroke="#cc0000" stroke-dasharray="5,2" d="M857.704,-242.327C854.615,-253.749 851.032,-266.998 847.978,-278.289"/>
<polygon fill="#cc0000" stroke="#cc0000" points="861.14,-243.027 860.373,-232.46 854.383,-241.2 861.14,-243.027"/>
</g>
<!-- webappShared -->
<g id="node16" class="node"><title>webappShared</title>
<ellipse fill="#99ccee" stroke="black" cx="865" cy="-395.831" rx="61.5366" ry="26.7407"/>
<text text-anchor="middle" x="865" y="-399.631" font-family="Times,serif" font-size="14.00">webapp&#45;base</text>
<text text-anchor="middle" x="865" y="-384.631" font-family="Times,serif" font-size="14.00">(Scala &amp; JS)</text>
</g>
<!-- webappBack&#45;&gt;webappShared -->
<g id="edge21" class="edge"><title>webappBack&#45;&gt;webappShared</title>
<path fill="none" stroke="#cc0000" d="M893.645,-238.369C902.558,-247.268 911.281,-258.211 916,-270.22 926.036,-295.759 925.171,-306.098 916,-331.96 910.786,-346.664 900.505,-360.437 890.532,-371.321"/>
<polygon fill="#cc0000" stroke="#cc0000" points="895.889,-235.676 886.197,-231.397 891.105,-240.786 895.889,-235.676"/>
</g>
<!-- webappFront&#45;&gt;webappShared -->
<g id="edge20" class="edge"><title>webappFront&#45;&gt;webappShared</title>
<path fill="none" stroke="#cc0000" d="M850.733,-342.079C853.159,-351.049 855.713,-360.493 857.98,-368.872"/>
<polygon fill="#cc0000" stroke="#cc0000" points="854.06,-340.975 848.071,-332.235 847.303,-342.802 854.06,-340.975"/>
</g>
<!-- webappShared&#45;&gt;baseRaw -->
<g id="edge23" class="edge"><title>webappShared&#45;&gt;baseRaw</title>
<path fill="none" stroke="#cc0000" d="M900.009,-427.432C915.381,-444.283 930,-466.635 930,-490.701 930,-490.701 930,-490.701 930,-658.701 930,-738.137 334.634,-740.566 139.86,-739.235"/>
<polygon fill="#cc0000" stroke="#cc0000" points="902.399,-424.869 892.943,-420.091 897.356,-429.723 902.399,-424.869"/>
</g>
<!-- taskman -->
<g id="node17" class="node"><title>taskman</title>
<ellipse fill="#ffff80" stroke="black" cx="563" cy="-214.35" rx="55.3091" ry="26.7407"/>
<text text-anchor="middle" x="563" y="-218.15" font-family="Times,serif" font-size="14.00">[aggregate]</text>
<text text-anchor="middle" x="563" y="-203.15" font-family="Times,serif" font-size="14.00">taskman</text>
</g>
<!-- taskman&#45;&gt;taskmanServer -->
<g id="edge30" class="edge"><title>taskman&#45;&gt;taskmanServer</title>
<path fill="none" stroke="#aaaaaa" stroke-dasharray="5,2" d="M563,-241.495C563,-249.8 563,-259.136 563,-268.012"/>
<polygon fill="#aaaaaa" stroke="#aaaaaa" points="563,-278.132 558.5,-268.132 563,-273.132 563,-268.132 563,-268.132 563,-268.132 563,-273.132 567.5,-268.132 563,-278.132 563,-278.132"/>
</g>
<!-- taskman&#45;&gt;taskmanApi -->
<g id="edge29" class="edge"><title>taskman&#45;&gt;taskmanApi</title>
<path fill="none" stroke="#aaaaaa" stroke-dasharray="5,2" d="M513.239,-226.226C471.868,-235.892 411.767,-251.391 361,-270.22 353.085,-273.156 344.853,-276.649 336.918,-280.258"/>
<polygon fill="#aaaaaa" stroke="#aaaaaa" points="327.777,-284.523 334.937,-276.217 332.308,-282.409 336.84,-280.295 336.84,-280.295 336.84,-280.295 332.308,-282.409 338.742,-284.373 327.777,-284.523 327.777,-284.523"/>
</g>
<!-- root -->
<g id="node18" class="node"><title>root</title>
<ellipse fill="#cccccc" stroke="black" cx="847" cy="-26.8701" rx="55.3091" ry="26.7407"/>
<text text-anchor="middle" x="847" y="-30.6701" font-family="Times,serif" font-size="14.00">[aggregate]</text>
<text text-anchor="middle" x="847" y="-15.6701" font-family="Times,serif" font-size="14.00">root</text>
</g>
<!-- root&#45;&gt;base -->
<g id="edge36" class="edge"><title>root&#45;&gt;base</title>
<path fill="none" stroke="#aaaaaa" stroke-dasharray="5,2" d="M791.832,-29.2396C621.769,-34.1863 117,-54.5972 117,-122.61 117,-122.61 117,-122.61 117,-306.09 117,-325.363 109.195,-345.151 100.568,-361.137"/>
<polygon fill="#aaaaaa" stroke="#aaaaaa" points="95.4467,-370.078 96.5129,-359.164 97.9321,-365.739 100.418,-361.4 100.418,-361.4 100.418,-361.4 97.9321,-365.739 104.322,-363.637 95.4467,-370.078 95.4467,-370.078"/>
</g>
<!-- root&#45;&gt;webapp -->
<g id="edge37" class="edge"><title>root&#45;&gt;webapp</title>
<path fill="none" stroke="#aaaaaa" stroke-dasharray="5,2" d="M847,-53.7582C847,-63.8056 847,-75.4888 847,-86.3469"/>
<polygon fill="#aaaaaa" stroke="#aaaaaa" points="847,-96.4241 842.5,-86.4241 847,-91.4241 847,-86.4241 847,-86.4241 847,-86.4241 847,-91.4241 851.5,-86.4242 847,-96.4241 847,-96.4241"/>
</g>
<!-- root&#45;&gt;taskman -->
<g id="edge38" class="edge"><title>root&#45;&gt;taskman</title>
<path fill="none" stroke="#aaaaaa" stroke-dasharray="5,2" d="M892.253,-42.5067C910.102,-50.7514 928.758,-63.0417 939,-80.7401 954.525,-107.568 959.029,-126.825 939,-150.48 928.937,-162.365 730.393,-190.762 625.981,-204.964"/>
<polygon fill="#aaaaaa" stroke="#aaaaaa" points="615.873,-206.335 625.178,-200.532 620.828,-205.663 625.783,-204.991 625.783,-204.991 625.783,-204.991 620.828,-205.663 626.387,-209.45 615.873,-206.335 615.873,-206.335"/>
</g>
</g>
</svg>
