<?xml version="1.0" encoding="UTF-8" standalone="no"?>
<!DOCTYPE svg PUBLIC "-//W3C//DTD SVG 1.1//EN"
 "http://www.w3.org/Graphics/SVG/1.1/DTD/svg11.dtd">
<!-- Generated by graphviz version 2.38.0 (20140413.2041)
 -->
<!-- Title: G Pages: 1 -->
<svg width="1747pt" height="1364pt"
 viewBox="0.00 0.00 1747.00 1364.10" xmlns="http://www.w3.org/2000/svg" xmlns:xlink="http://www.w3.org/1999/xlink">
<g id="graph0" class="graph" transform="scale(1 1) rotate(0) translate(4 1360.1)">
<title>G</title>
<polygon fill="white" stroke="none" points="-4,4 -4,-1360.1 1743,-1360.1 1743,4 -4,4"/>
<g id="clust1" class="cluster"><title>cluster_base</title>
<polygon fill="#f4fff4" stroke="black" points="1533,-895.401 1533,-1348.1 1731,-1348.1 1731,-895.401 1533,-895.401"/>
</g>
<g id="clust2" class="cluster"><title>cluster_t</title>
<polygon fill="#eeeeff" stroke="black" points="326,-171.48 326,-1168.62 1525,-1168.62 1525,-171.48 326,-171.48"/>
</g>
<g id="clust3" class="cluster"><title>cluster_ts</title>
<polygon fill="white" stroke="black" points="933,-270.22 933,-565.311 1327,-565.311 1327,-270.22 933,-270.22"/>
</g>
<g id="clust4" class="cluster"><title>cluster_ta</title>
<polygon fill="white" stroke="black" points="1335,-360.96 1335,-670.051 1517,-670.051 1517,-360.96 1335,-360.96"/>
</g>
<g id="clust5" class="cluster"><title>cluster_w</title>
<polygon fill="white" stroke="black" points="334,-179.48 334,-1160.62 925,-1160.62 925,-179.48 334,-179.48"/>
</g>
<g id="clust6" class="cluster"><title>cluster_supp</title>
<polygon fill="#fff2f2" stroke="black" points="20,-82.7401 20,-339.96 318,-339.96 318,-82.7401 20,-82.7401"/>
</g>
<!-- base -->
<g id="node1" class="node"><title>base</title>
<ellipse fill="#cccccc" stroke="black" cx="1668" cy="-930.271" rx="55.3091" ry="26.7407"/>
<text text-anchor="middle" x="1668" y="-934.071" font-family="Times,serif" font-size="14.00">[aggregate]</text>
<text text-anchor="middle" x="1668" y="-919.071" font-family="Times,serif" font-size="14.00">base</text>
</g>
<!-- baseMacro -->
<g id="node2" class="node"><title>baseMacro</title>
<ellipse fill="#bbffbb" stroke="black" cx="1649" cy="-1313.23" rx="60.623" ry="26.7407"/>
<text text-anchor="middle" x="1649" y="-1317.03" font-family="Times,serif" font-size="14.00">base&#45;macro</text>
<text text-anchor="middle" x="1649" y="-1302.03" font-family="Times,serif" font-size="14.00">(Scala &amp; JS)</text>
</g>
<!-- base&#45;&gt;baseMacro -->
<g id="edge65" class="edge"><title>base&#45;&gt;baseMacro</title>
<path fill="none" stroke="#aaaaaa" stroke-dasharray="5,2" d="M1691.84,-954.589C1706.31,-971.281 1722,-995.124 1722,-1020.01 1722,-1020.01 1722,-1020.01 1722,-1223.49 1722,-1247.19 1706.28,-1268.01 1689.43,-1283.51"/>
<polygon fill="#aaaaaa" stroke="#aaaaaa" points="1681.66,-1290.25 1686.26,-1280.3 1685.43,-1286.97 1689.21,-1283.7 1689.21,-1283.7 1689.21,-1283.7 1685.43,-1286.97 1692.16,-1287.1 1681.66,-1290.25 1681.66,-1290.25"/>
</g>
<!-- baseUtil -->
<g id="node3" class="node"><title>baseUtil</title>
<ellipse fill="#bbffbb" stroke="black" cx="1611" cy="-1222.49" rx="60.623" ry="26.7407"/>
<text text-anchor="middle" x="1611" y="-1226.29" font-family="Times,serif" font-size="14.00">base&#45;util</text>
<text text-anchor="middle" x="1611" y="-1211.29" font-family="Times,serif" font-size="14.00">(Scala &amp; JS)</text>
</g>
<!-- base&#45;&gt;baseUtil -->
<g id="edge62" class="edge"><title>base&#45;&gt;baseUtil</title>
<path fill="none" stroke="#aaaaaa" stroke-dasharray="5,2" d="M1678.37,-956.955C1695.02,-1002.53 1722.34,-1099.25 1686,-1168.62 1680.11,-1179.87 1670.62,-1189.24 1660.34,-1196.81"/>
<polygon fill="#aaaaaa" stroke="#aaaaaa" points="1651.98,-1202.49 1657.72,-1193.15 1656.11,-1199.68 1660.25,-1196.87 1660.25,-1196.87 1660.25,-1196.87 1656.11,-1199.68 1662.78,-1200.59 1651.98,-1202.49 1651.98,-1202.49"/>
</g>
<!-- baseDb -->
<g id="node4" class="node"><title>baseDb</title>
<ellipse fill="#bbffbb" stroke="black" cx="1635" cy="-1125.75" rx="41.9398" ry="26.7407"/>
<text text-anchor="middle" x="1635" y="-1129.55" font-family="Times,serif" font-size="14.00">base&#45;db</text>
<text text-anchor="middle" x="1635" y="-1114.55" font-family="Times,serif" font-size="14.00">(JVM)</text>
</g>
<!-- base&#45;&gt;baseDb -->
<g id="edge63" class="edge"><title>base&#45;&gt;baseDb</title>
<path fill="none" stroke="#aaaaaa" stroke-dasharray="5,2" d="M1675.02,-957.136C1682,-987.77 1689.61,-1039.82 1674,-1080.88 1672.01,-1086.12 1669.07,-1091.13 1665.69,-1095.78"/>
<polygon fill="#aaaaaa" stroke="#aaaaaa" points="1659.23,-1103.7 1662.06,-1093.11 1662.39,-1099.82 1665.55,-1095.95 1665.55,-1095.95 1665.55,-1095.95 1662.39,-1099.82 1669.03,-1098.79 1659.23,-1103.7 1659.23,-1103.7"/>
</g>
<!-- baseTest -->
<g id="node5" class="node"><title>baseTest</title>
<ellipse fill="white" stroke="darkgreen" cx="1602" cy="-1021.01" rx="60.623" ry="26.7407"/>
<text text-anchor="middle" x="1602" y="-1024.81" font-family="Times,serif" font-size="14.00">base&#45;test</text>
<text text-anchor="middle" x="1602" y="-1009.81" font-family="Times,serif" font-size="14.00">(Scala &amp; JS)</text>
</g>
<!-- base&#45;&gt;baseTest -->
<g id="edge64" class="edge"><title>base&#45;&gt;baseTest</title>
<path fill="none" stroke="#aaaaaa" stroke-dasharray="5,2" d="M1649.62,-955.99C1642.52,-965.526 1634.3,-976.579 1626.71,-986.79"/>
<polygon fill="#aaaaaa" stroke="#aaaaaa" points="1620.51,-995.117 1622.87,-984.407 1623.5,-991.105 1626.48,-987.093 1626.48,-987.093 1626.48,-987.093 1623.5,-991.105 1630.09,-989.779 1620.51,-995.117 1620.51,-995.117"/>
</g>
<!-- baseUtil&#45;&gt;baseMacro -->
<g id="edge1" class="edge"><title>baseUtil&#45;&gt;baseMacro</title>
<path fill="none" stroke="#cc0000" d="M1621.99,-1249.16C1625.73,-1257.9 1629.98,-1267.82 1633.98,-1277.17"/>
<polygon fill="#cc0000" stroke="#cc0000" points="1630.88,-1278.81 1638.03,-1286.62 1637.31,-1276.05 1630.88,-1278.81"/>
</g>
<!-- baseDb&#45;&gt;baseUtil -->
<g id="edge2" class="edge"><title>baseDb&#45;&gt;baseUtil</title>
<path fill="none" stroke="#cc0000" d="M1628.44,-1152.64C1625.85,-1162.87 1622.83,-1174.81 1620.03,-1185.84"/>
<polygon fill="#cc0000" stroke="#cc0000" points="1616.61,-1185.08 1617.55,-1195.63 1623.4,-1186.8 1616.61,-1185.08"/>
</g>
<!-- baseTest&#45;&gt;baseUtil -->
<g id="edge3" class="edge"><title>baseTest&#45;&gt;baseUtil</title>
<path fill="none" stroke="#111111" d="M1593.35,-1047.75C1584.7,-1077.28 1573.98,-1126.98 1584,-1168.62 1585.5,-1174.87 1587.88,-1181.21 1590.6,-1187.23"/>
<polygon fill="#111111" stroke="#111111" points="1587.55,-1188.94 1595.11,-1196.36 1593.82,-1185.84 1587.55,-1188.94"/>
</g>
<!-- baseTest&#45;&gt;baseDb -->
<g id="edge4" class="edge"><title>baseTest&#45;&gt;baseDb</title>
<path fill="none" stroke="#111111" stroke-dasharray="5,2" d="M1610.24,-1047.67C1614.3,-1060.3 1619.25,-1075.72 1623.66,-1089.44"/>
<polygon fill="#111111" stroke="#111111" points="1620.36,-1090.61 1626.75,-1099.06 1627.02,-1088.47 1620.36,-1090.61"/>
<text text-anchor="middle" x="1645.5" y="-1069.68" font-family="Times,serif" font-size="14.00">provided</text>
</g>
<!-- taskmanDb -->
<g id="node6" class="node"><title>taskmanDb</title>
<ellipse fill="#aaaaff" stroke="black" cx="1224" cy="-539.311" rx="94.7833" ry="18"/>
<text text-anchor="middle" x="1224" y="-535.611" font-family="Times,serif" font-size="14.00">taskman&#45;server&#45;schema</text>
</g>
<!-- taskmanDb&#45;&gt;baseDb -->
<g id="edge5" class="edge"><title>taskmanDb&#45;&gt;baseDb</title>
<path fill="none" stroke="#cc0000" d="M1275.94,-554.446C1293.33,-558.757 1312.9,-563.152 1331,-566.181 1372.83,-573.182 1489,-556.347 1521,-584.181 1541.29,-601.831 1535,-616.157 1535,-643.051 1535,-643.051 1535,-643.051 1535,-885.401 1535,-957.627 1499.62,-983.319 1532,-1047.88 1544.62,-1073.04 1569.8,-1092.06 1592.11,-1104.9"/>
<polygon fill="#cc0000" stroke="#cc0000" points="1590.67,-1108.1 1601.12,-1109.85 1594.04,-1101.96 1590.67,-1108.1"/>
</g>
<!-- taskmanServerImpl -->
<g id="node7" class="node"><title>taskmanServerImpl</title>
<ellipse fill="#aaaaff" stroke="black" cx="1129" cy="-395.831" rx="84.485" ry="18"/>
<text text-anchor="middle" x="1129" y="-392.131" font-family="Times,serif" font-size="14.00">taskman&#45;server&#45;impl</text>
</g>
<!-- taskmanServerImpl&#45;&gt;taskmanDb -->
<g id="edge16" class="edge"><title>taskmanServerImpl&#45;&gt;taskmanDb</title>
<path fill="none" stroke="#cc0000" d="M1140.46,-413.896C1156.94,-438.434 1187.45,-483.873 1206.68,-512.521"/>
<polygon fill="#cc0000" stroke="#cc0000" points="1204.02,-514.833 1212.5,-521.184 1209.83,-510.931 1204.02,-514.833"/>
</g>
<!-- taskmanServerLogic -->
<g id="node8" class="node"><title>taskmanServerLogic</title>
<ellipse fill="#aaaaff" stroke="black" cx="1026" cy="-539.311" rx="85.2851" ry="18"/>
<text text-anchor="middle" x="1026" y="-535.611" font-family="Times,serif" font-size="14.00">taskman&#45;server&#45;logic</text>
</g>
<!-- taskmanServerImpl&#45;&gt;taskmanServerLogic -->
<g id="edge14" class="edge"><title>taskmanServerImpl&#45;&gt;taskmanServerLogic</title>
<path fill="none" stroke="#cc0000" d="M1116.58,-413.896C1098.63,-438.54 1065.34,-484.267 1044.51,-512.892"/>
<polygon fill="#cc0000" stroke="#cc0000" points="1041.52,-511.04 1038.47,-521.184 1047.18,-515.16 1041.52,-511.04"/>
</g>
<!-- taskmanApi -->
<g id="node10" class="node"><title>taskmanApi</title>
<ellipse fill="#cccccc" stroke="black" cx="1402" cy="-395.831" rx="58.8803" ry="26.7407"/>
<text text-anchor="middle" x="1402" y="-399.631" font-family="Times,serif" font-size="14.00">[aggregate]</text>
<text text-anchor="middle" x="1402" y="-384.631" font-family="Times,serif" font-size="14.00">taskman&#45;api</text>
</g>
<!-- taskmanServerImpl&#45;&gt;taskmanApi -->
<g id="edge15" class="edge"><title>taskmanServerImpl&#45;&gt;taskmanApi</title>
<path fill="none" stroke="#cc0000" d="M1213.51,-395.831C1253.33,-395.831 1293.15,-395.831 1332.97,-395.831"/>
<polygon fill="#cc0000" stroke="#cc0000" points="1333.1,-399.331 1343.1,-395.831 1333.1,-392.331 1333.1,-399.331"/>
</g>
<!-- taskmanApiLogic -->
<g id="node12" class="node"><title>taskmanApiLogic</title>
<ellipse fill="#cceeff" stroke="black" cx="1418" cy="-644.051" rx="74.9875" ry="18"/>
<text text-anchor="middle" x="1418" y="-640.351" font-family="Times,serif" font-size="14.00">taskman&#45;api&#45;logic</text>
</g>
<!-- taskmanServerLogic&#45;&gt;taskmanApiLogic -->
<g id="edge13" class="edge"><title>taskmanServerLogic&#45;&gt;taskmanApiLogic</title>
<path fill="none" stroke="#cc0000" d="M1075.23,-554.021C1089.65,-557.992 1105.44,-562.301 1120,-566.181 1202.65,-588.212 1298.46,-612.749 1358.66,-628.043"/>
<polygon fill="#cc0000" stroke="#cc0000" points="1357.82,-631.441 1368.37,-630.509 1359.54,-624.656 1357.82,-631.441"/>
</g>
<!-- taskmanServer -->
<g id="node9" class="node"><title>taskmanServer</title>
<ellipse fill="#cccccc" stroke="black" cx="1129" cy="-305.09" rx="70.922" ry="26.7407"/>
<text text-anchor="middle" x="1129" y="-308.89" font-family="Times,serif" font-size="14.00">[aggregate]</text>
<text text-anchor="middle" x="1129" y="-293.89" font-family="Times,serif" font-size="14.00">taskman&#45;server</text>
</g>
<!-- taskmanServer&#45;&gt;taskmanDb -->
<g id="edge55" class="edge"><title>taskmanServer&#45;&gt;taskmanDb</title>
<path fill="none" stroke="#aaaaaa" stroke-dasharray="5,2" d="M1179.57,-324.053C1196.04,-332.574 1212.52,-344.572 1222,-360.96 1249.23,-408.021 1239.85,-474.533 1231.41,-511.277"/>
<polygon fill="#aaaaaa" stroke="#aaaaaa" points="1228.97,-521.24 1226.97,-510.458 1230.16,-516.384 1231.34,-511.527 1231.34,-511.527 1231.34,-511.527 1230.16,-516.384 1235.72,-512.596 1228.97,-521.24 1228.97,-521.24"/>
</g>
<!-- taskmanServer&#45;&gt;taskmanServerImpl -->
<g id="edge17" class="edge"><title>taskmanServer&#45;&gt;taskmanServerImpl</title>
<path fill="none" stroke="#cc0000" d="M1122.78,-332.235C1122.09,-343.393 1122.07,-356.413 1122.72,-367.679"/>
<polygon fill="#cc0000" stroke="#cc0000" points="1119.25,-368.144 1123.55,-377.826 1126.23,-367.573 1119.25,-368.144"/>
</g>
<!-- taskmanServer&#45;&gt;taskmanServerImpl -->
<g id="edge54" class="edge"><title>taskmanServer&#45;&gt;taskmanServerImpl</title>
<path fill="none" stroke="#aaaaaa" stroke-dasharray="5,2" d="M1135.22,-332.235C1135.91,-343.393 1135.93,-356.413 1135.28,-367.679"/>
<polygon fill="#aaaaaa" stroke="#aaaaaa" points="1134.45,-377.826 1130.78,-367.492 1134.85,-372.842 1135.26,-367.859 1135.26,-367.859 1135.26,-367.859 1134.85,-372.842 1139.75,-368.226 1134.45,-377.826 1134.45,-377.826"/>
</g>
<!-- taskmanServer&#45;&gt;taskmanServerLogic -->
<g id="edge53" class="edge"><title>taskmanServer&#45;&gt;taskmanServerLogic</title>
<path fill="none" stroke="#aaaaaa" stroke-dasharray="5,2" d="M1078.84,-324.293C1062.4,-332.838 1045.85,-344.79 1036,-360.96 1007.68,-407.466 1013.67,-474.189 1020.11,-511.117"/>
<polygon fill="#aaaaaa" stroke="#aaaaaa" points="1022,-521.133 1015.72,-512.141 1021.07,-516.22 1020.15,-511.307 1020.15,-511.307 1020.15,-511.307 1021.07,-516.22 1024.57,-510.473 1022,-521.133 1022,-521.133"/>
</g>
<!-- taskmanApiImpl -->
<g id="node11" class="node"><title>taskmanApiImpl</title>
<ellipse fill="#cceeff" stroke="black" cx="1436" cy="-539.311" rx="73.387" ry="18"/>
<text text-anchor="middle" x="1436" y="-535.611" font-family="Times,serif" font-size="14.00">taskman&#45;api&#45;impl</text>
</g>
<!-- taskmanApi&#45;&gt;taskmanApiImpl -->
<g id="edge12" class="edge"><title>taskmanApi&#45;&gt;taskmanApiImpl</title>
<path fill="none" stroke="#cc0000" d="M1402.87,-422.78C1407.11,-448.021 1416.26,-486.186 1424.18,-511.662"/>
<polygon fill="#cc0000" stroke="#cc0000" points="1420.93,-512.987 1427.37,-521.403 1427.59,-510.81 1420.93,-512.987"/>
</g>
<!-- taskmanApi&#45;&gt;taskmanApiImpl -->
<g id="edge52" class="edge"><title>taskmanApi&#45;&gt;taskmanApiImpl</title>
<path fill="none" stroke="#aaaaaa" stroke-dasharray="5,2" d="M1413.5,-422.452C1421.33,-447.396 1430.45,-485.186 1434.86,-510.766"/>
<polygon fill="#aaaaaa" stroke="#aaaaaa" points="1436.44,-520.908 1430.45,-511.721 1435.67,-515.968 1434.9,-511.028 1434.9,-511.028 1434.9,-511.028 1435.67,-515.968 1439.34,-510.334 1436.44,-520.908 1436.44,-520.908"/>
</g>
<!-- taskmanApi&#45;&gt;taskmanApiLogic -->
<g id="edge51" class="edge"><title>taskmanApi&#45;&gt;taskmanApiLogic</title>
<path fill="none" stroke="#aaaaaa" stroke-dasharray="5,2" d="M1385.16,-421.861C1364.92,-455.22 1335.81,-515.892 1354,-566.181 1361.38,-586.572 1376.79,-605.361 1390.64,-619.258"/>
<polygon fill="#aaaaaa" stroke="#aaaaaa" points="1398.11,-626.455 1387.78,-622.759 1394.51,-622.986 1390.9,-619.518 1390.9,-619.518 1390.9,-619.518 1394.51,-622.986 1394.03,-616.277 1398.11,-626.455 1398.11,-626.455"/>
</g>
<!-- taskmanApiImpl&#45;&gt;baseDb -->
<g id="edge8" class="edge"><title>taskmanApiImpl&#45;&gt;baseDb</title>
<path fill="none" stroke="#cc0000" d="M1391.2,-553.69C1372.73,-558.589 1351.01,-563.569 1331,-566.181 1275.85,-573.379 380.496,-560.861 330,-584.181 298.306,-598.817 278,-608.141 278,-643.051 278,-643.051 278,-643.051 278,-885.401 278,-919.023 275.305,-936.702 302,-957.141 357.411,-999.567 859.722,-985.722 929,-994.141 1178.24,-1024.43 1472.33,-1087.91 1586.4,-1113.6"/>
<polygon fill="#cc0000" stroke="#cc0000" points="1585.7,-1117.03 1596.23,-1115.82 1587.25,-1110.21 1585.7,-1117.03"/>
</g>
<!-- taskmanApiImpl&#45;&gt;baseTest -->
<g id="edge11" class="edge"><title>taskmanApiImpl&#45;&gt;baseTest</title>
<path fill="none" stroke="#111111" stroke-dasharray="5,2" d="M1488.44,-551.972C1509.18,-558.658 1532.06,-568.871 1549,-584.181 1570.79,-603.871 1579,-613.685 1579,-643.051 1579,-643.051 1579,-643.051 1579,-931.271 1579,-949.328 1583.52,-968.809 1588.55,-984.905"/>
<polygon fill="#111111" stroke="#111111" points="1585.24,-986.057 1591.71,-994.447 1591.89,-983.854 1585.24,-986.057"/>
<text text-anchor="middle" x="1588.5" y="-783.461" font-family="Times,serif" font-size="14.00">test</text>
</g>
<!-- taskmanApiImpl&#45;&gt;taskmanDb -->
<g id="edge10" class="edge"><title>taskmanApiImpl&#45;&gt;taskmanDb</title>
<path fill="none" stroke="#111111" stroke-dasharray="5,2" d="M1362.45,-539.311C1351.76,-539.311 1340.57,-539.311 1329.4,-539.311"/>
<polygon fill="#111111" stroke="#111111" points="1329.15,-535.811 1319.15,-539.311 1329.15,-542.811 1329.15,-535.811"/>
<text text-anchor="middle" x="1340.72" y="-525.111" font-family="Times,serif" font-size="14.00">test</text>
</g>
<!-- taskmanApiImpl&#45;&gt;taskmanApiLogic -->
<g id="edge7" class="edge"><title>taskmanApiImpl&#45;&gt;taskmanApiLogic</title>
<path fill="none" stroke="#cc0000" d="M1428.32,-557.456C1425.13,-565.416 1421.76,-575.108 1420,-584.181 1418.02,-594.354 1417.3,-605.699 1417.14,-615.693"/>
<polygon fill="#cc0000" stroke="#cc0000" points="1413.64,-615.897 1417.17,-625.888 1420.64,-615.88 1413.64,-615.897"/>
</g>
<!-- taskmanApiImpl&#45;&gt;taskmanApiLogic -->
<g id="edge9" class="edge"><title>taskmanApiImpl&#45;&gt;taskmanApiLogic</title>
<path fill="none" stroke="#111111" stroke-dasharray="5,2" d="M1432.95,-557.739C1430.15,-573.702 1425.97,-597.58 1422.74,-616.018"/>
<polygon fill="#111111" stroke="#111111" points="1419.29,-615.426 1421.01,-625.88 1426.18,-616.634 1419.29,-615.426"/>
<text text-anchor="middle" x="1448" y="-587.981" font-family="Times,serif" font-size="14.00">test&#45;lib</text>
</g>
<!-- taskmanApiLogic&#45;&gt;baseUtil -->
<g id="edge6" class="edge"><title>taskmanApiLogic&#45;&gt;baseUtil</title>
<path fill="none" stroke="#cc0000" d="M1345.75,-648.994C1103.57,-662.239 335.38,-704.501 330,-707.921 318.967,-714.934 316,-720.718 316,-733.791 316,-733.791 316,-733.791 316,-931.271 316,-944.345 318.981,-950.106 330,-957.141 442.407,-1028.91 798.079,-968.727 929,-994.141 1171.57,-1041.23 1446.84,-1151.46 1559.16,-1199.01"/>
<polygon fill="#cc0000" stroke="#cc0000" points="1557.99,-1202.31 1568.56,-1203 1560.73,-1195.87 1557.99,-1202.31"/>
</g>
<!-- webapp -->
<g id="node13" class="node"><title>webapp</title>
<ellipse fill="#ffff80" stroke="black" cx="740" cy="-214.35" rx="55.3091" ry="26.7407"/>
<text text-anchor="middle" x="740" y="-218.15" font-family="Times,serif" font-size="14.00">[aggregate]</text>
<text text-anchor="middle" x="740" y="-203.15" font-family="Times,serif" font-size="14.00">webapp</text>
</g>
<!-- webappClientHome -->
<g id="node18" class="node"><title>webappClientHome</title>
<ellipse fill="#99ccee" stroke="black" cx="819" cy="-467.571" rx="90.5193" ry="26.7407"/>
<text text-anchor="middle" x="819" y="-471.371" font-family="Times,serif" font-size="14.00">webapp&#45;client&#45;home</text>
<text text-anchor="middle" x="819" y="-456.371" font-family="Times,serif" font-size="14.00">(JS)</text>
</g>
<!-- webapp&#45;&gt;webappClientHome -->
<g id="edge59" class="edge"><title>webapp&#45;&gt;webappClientHome</title>
<path fill="none" stroke="#aaaaaa" stroke-dasharray="5,2" d="M778.553,-233.725C788.478,-240.352 798.032,-248.822 804,-259.22 834.623,-312.575 831.118,-386.8 825.354,-430.452"/>
<polygon fill="#aaaaaa" stroke="#aaaaaa" points="823.901,-440.597 820.865,-430.06 824.61,-435.648 825.319,-430.698 825.319,-430.698 825.319,-430.698 824.61,-435.648 829.774,-431.337 823.901,-440.597 823.901,-440.597"/>
</g>
<!-- webappClientWw -->
<g id="node20" class="node"><title>webappClientWw</title>
<ellipse fill="#99ccee" stroke="black" cx="641" cy="-467.571" rx="82.9636" ry="26.7407"/>
<text text-anchor="middle" x="641" y="-471.371" font-family="Times,serif" font-size="14.00">webapp&#45;client&#45;ww</text>
<text text-anchor="middle" x="641" y="-456.371" font-family="Times,serif" font-size="14.00">(JS)</text>
</g>
<!-- webapp&#45;&gt;webappClientWw -->
<g id="edge61" class="edge"><title>webapp&#45;&gt;webappClientWw</title>
<path fill="none" stroke="#aaaaaa" stroke-dasharray="5,2" d="M748.612,-241.046C755.827,-266.872 763.165,-307.411 751,-339.96 736.727,-378.15 705.162,-412.44 679.489,-435.671"/>
<polygon fill="#aaaaaa" stroke="#aaaaaa" points="671.737,-442.517 676.253,-432.525 675.484,-439.208 679.232,-435.898 679.232,-435.898 679.232,-435.898 675.484,-439.208 682.211,-439.271 671.737,-442.517 671.737,-442.517"/>
</g>
<!-- webappClientProject -->
<g id="node21" class="node"><title>webappClientProject</title>
<ellipse fill="#99ccee" stroke="black" cx="477" cy="-539.311" rx="95.4188" ry="26.7407"/>
<text text-anchor="middle" x="477" y="-543.111" font-family="Times,serif" font-size="14.00">webapp&#45;client&#45;project</text>
<text text-anchor="middle" x="477" y="-528.111" font-family="Times,serif" font-size="14.00">(JS)</text>
</g>
<!-- webapp&#45;&gt;webappClientProject -->
<g id="edge58" class="edge"><title>webapp&#45;&gt;webappClientProject</title>
<path fill="none" stroke="#aaaaaa" stroke-dasharray="5,2" d="M688.739,-224.483C621.464,-239.572 506.279,-276.857 458,-360.96 428.464,-412.412 444.408,-436.466 457,-494.441 457.616,-497.278 458.433,-500.152 459.384,-503"/>
<polygon fill="#aaaaaa" stroke="#aaaaaa" points="463.041,-512.497 455.248,-504.782 461.244,-507.831 459.447,-503.165 459.447,-503.165 459.447,-503.165 461.244,-507.831 463.646,-501.547 463.041,-512.497 463.041,-512.497"/>
</g>
<!-- webappServer -->
<g id="node23" class="node"><title>webappServer</title>
<ellipse fill="#99ccee" stroke="black" cx="680" cy="-305.09" rx="62.2891" ry="18"/>
<text text-anchor="middle" x="680" y="-301.39" font-family="Times,serif" font-size="14.00">webapp&#45;server</text>
</g>
<!-- webapp&#45;&gt;webappServer -->
<g id="edge60" class="edge"><title>webapp&#45;&gt;webappServer</title>
<path fill="none" stroke="#aaaaaa" stroke-dasharray="5,2" d="M723.287,-240.069C715.083,-252.202 705.219,-266.791 696.98,-278.977"/>
<polygon fill="#aaaaaa" stroke="#aaaaaa" points="691.315,-287.355 693.189,-276.55 694.116,-283.213 696.916,-279.071 696.916,-279.071 696.916,-279.071 694.116,-283.213 700.644,-281.591 691.315,-287.355 691.315,-287.355"/>
</g>
<!-- webappMacro -->
<g id="node14" class="node"><title>webappMacro</title>
<ellipse fill="#99ccee" stroke="black" cx="704" cy="-1125.75" rx="69.0935" ry="26.7407"/>
<text text-anchor="middle" x="704" y="-1129.55" font-family="Times,serif" font-size="14.00">webapp&#45;macro</text>
<text text-anchor="middle" x="704" y="-1114.55" font-family="Times,serif" font-size="14.00">(Scala &amp; JS)</text>
</g>
<!-- webappMacro&#45;&gt;baseUtil -->
<g id="edge18" class="edge"><title>webappMacro&#45;&gt;baseUtil</title>
<path fill="none" stroke="#cc0000" d="M762.679,-1140.25C815.757,-1151.95 896.211,-1168.4 967,-1177.62 1174.32,-1204.63 1421.49,-1215.57 1540.32,-1219.52"/>
<polygon fill="#cc0000" stroke="#cc0000" points="1540.27,-1223.02 1550.38,-1219.85 1540.5,-1216.02 1540.27,-1223.02"/>
</g>
<!-- webappBase -->
<g id="node15" class="node"><title>webappBase</title>
<ellipse fill="#99ccee" stroke="black" cx="569" cy="-1021.01" rx="61.5366" ry="26.7407"/>
<text text-anchor="middle" x="569" y="-1024.81" font-family="Times,serif" font-size="14.00">webapp&#45;base</text>
<text text-anchor="middle" x="569" y="-1009.81" font-family="Times,serif" font-size="14.00">(Scala &amp; JS)</text>
</g>
<!-- webappBase&#45;&gt;webappMacro -->
<g id="edge19" class="edge"><title>webappBase&#45;&gt;webappMacro</title>
<path fill="none" stroke="#cc0000" d="M598.961,-1044.81C618.437,-1059.63 644.026,-1079.11 665.071,-1095.13"/>
<polygon fill="#cc0000" stroke="#cc0000" points="663.11,-1098.03 673.187,-1101.3 667.349,-1092.46 663.11,-1098.03"/>
</g>
<!-- webappBaseServer -->
<g id="node16" class="node"><title>webappBaseServer</title>
<ellipse fill="#99ccee" stroke="black" cx="462" cy="-930.271" rx="88.2768" ry="26.7407"/>
<text text-anchor="middle" x="462" y="-934.071" font-family="Times,serif" font-size="14.00">webapp&#45;base&#45;server</text>
<text text-anchor="middle" x="462" y="-919.071" font-family="Times,serif" font-size="14.00">(Scala &amp; JS)</text>
</g>
<!-- webappBaseServer&#45;&gt;webappBase -->
<g id="edge20" class="edge"><title>webappBaseServer&#45;&gt;webappBase</title>
<path fill="none" stroke="#cc0000" d="M491.521,-955.755C504.449,-966.476 519.731,-979.151 533.293,-990.397"/>
<polygon fill="#cc0000" stroke="#cc0000" points="531.116,-993.139 541.048,-996.829 535.585,-987.751 531.116,-993.139"/>
</g>
<!-- webappClientBase -->
<g id="node17" class="node"><title>webappClientBase</title>
<ellipse fill="#99ccee" stroke="black" cx="667" cy="-734.791" rx="86.0347" ry="26.7407"/>
<text text-anchor="middle" x="667" y="-738.591" font-family="Times,serif" font-size="14.00">webapp&#45;client&#45;base</text>
<text text-anchor="middle" x="667" y="-723.591" font-family="Times,serif" font-size="14.00">(JS)</text>
</g>
<!-- webappClientBase&#45;&gt;webappBase -->
<g id="edge23" class="edge"><title>webappClientBase&#45;&gt;webappBase</title>
<path fill="none" stroke="#cc0000" d="M649.984,-761.361C630.578,-791.881 599.536,-845.119 584,-895.401 575.107,-924.183 571.445,-958.22 569.957,-983.442"/>
<polygon fill="#cc0000" stroke="#cc0000" points="566.449,-983.508 569.443,-993.671 573.44,-983.859 566.449,-983.508"/>
</g>
<!-- webappBaseTest -->
<g id="node24" class="node"><title>webappBaseTest</title>
<ellipse fill="white" stroke="blue" cx="772" cy="-839.531" rx="77.5641" ry="26.7407"/>
<text text-anchor="middle" x="772" y="-843.331" font-family="Times,serif" font-size="14.00">webapp&#45;base&#45;test</text>
<text text-anchor="middle" x="772" y="-828.331" font-family="Times,serif" font-size="14.00">(Scala &amp; JS)</text>
</g>
<!-- webappClientBase&#45;&gt;webappBaseTest -->
<g id="edge24" class="edge"><title>webappClientBase&#45;&gt;webappBaseTest</title>
<path fill="none" stroke="#111111" stroke-dasharray="5,2" d="M692.418,-760.661C706.605,-774.543 724.425,-791.98 739.605,-806.833"/>
<polygon fill="#111111" stroke="#111111" points="737.221,-809.398 746.816,-813.89 742.117,-804.394 737.221,-809.398"/>
<text text-anchor="middle" x="735.5" y="-783.461" font-family="Times,serif" font-size="14.00">test</text>
</g>
<!-- webappClientHome&#45;&gt;webappClientBase -->
<g id="edge27" class="edge"><title>webappClientHome&#45;&gt;webappClientBase</title>
<path fill="none" stroke="#cc0000" d="M791.234,-493.388C759.685,-521.493 711.904,-563.734 707,-566.181 672.446,-583.42 646.313,-554.18 622,-584.181 594.801,-617.742 618.863,-667.452 640.93,-700.226"/>
<polygon fill="#cc0000" stroke="#cc0000" points="638.168,-702.384 646.76,-708.583 643.909,-698.379 638.168,-702.384"/>
</g>
<!-- webappClientBaseTest -->
<g id="node25" class="node"><title>webappClientBaseTest</title>
<ellipse fill="white" stroke="blue" cx="739" cy="-644.051" rx="102.561" ry="26.7407"/>
<text text-anchor="middle" x="739" y="-647.851" font-family="Times,serif" font-size="14.00">webapp&#45;client&#45;base&#45;test</text>
<text text-anchor="middle" x="739" y="-632.851" font-family="Times,serif" font-size="14.00">(JS)</text>
</g>
<!-- webappClientHome&#45;&gt;webappClientBaseTest -->
<g id="edge28" class="edge"><title>webappClientHome&#45;&gt;webappClientBaseTest</title>
<path fill="none" stroke="#111111" stroke-dasharray="5,2" d="M807.196,-494.316C793.429,-524.34 770.597,-574.137 755.184,-607.753"/>
<polygon fill="#111111" stroke="#111111" points="751.839,-606.651 750.853,-617.2 758.202,-609.569 751.839,-606.651"/>
<text text-anchor="middle" x="808.5" y="-535.611" font-family="Times,serif" font-size="14.00">test</text>
</g>
<!-- webappClientWwApi -->
<g id="node19" class="node"><title>webappClientWwApi</title>
<ellipse fill="#99ccee" stroke="black" cx="480" cy="-644.051" rx="97.6615" ry="26.7407"/>
<text text-anchor="middle" x="480" y="-647.851" font-family="Times,serif" font-size="14.00">webapp&#45;client&#45;ww&#45;api</text>
<text text-anchor="middle" x="480" y="-632.851" font-family="Times,serif" font-size="14.00">(JS)</text>
</g>
<!-- webappClientWwApi&#45;&gt;webappBase -->
<g id="edge29" class="edge"><title>webappClientWwApi&#45;&gt;webappBase</title>
<path fill="none" stroke="#cc0000" d="M494.646,-670.644C518.973,-714.789 566.74,-808.859 584,-895.401 589.918,-925.076 585.002,-959.223 579.264,-984.259"/>
<polygon fill="#cc0000" stroke="#cc0000" points="575.845,-983.508 576.872,-994.053 582.645,-985.169 575.845,-983.508"/>
</g>
<!-- webappClientWw&#45;&gt;webappClientWwApi -->
<g id="edge30" class="edge"><title>webappClientWw&#45;&gt;webappClientWwApi</title>
<path fill="none" stroke="#cc0000" d="M628.523,-494.377C617.724,-515.141 600.757,-544.355 581,-566.181 565.098,-583.748 544.735,-600.119 526.464,-613.201"/>
<polygon fill="#cc0000" stroke="#cc0000" points="524.415,-610.363 518.24,-618.972 528.437,-616.093 524.415,-610.363"/>
</g>
<!-- webappClientWw&#45;&gt;webappClientBaseTest -->
<g id="edge31" class="edge"><title>webappClientWw&#45;&gt;webappClientBaseTest</title>
<path fill="none" stroke="#111111" stroke-dasharray="5,2" d="M655.46,-494.316C672.396,-524.469 700.534,-574.565 719.417,-608.185"/>
<polygon fill="#111111" stroke="#111111" points="716.532,-610.195 724.48,-617.2 722.635,-606.767 716.532,-610.195"/>
<text text-anchor="middle" x="706.5" y="-535.611" font-family="Times,serif" font-size="14.00">test</text>
</g>
<!-- webappClientProject&#45;&gt;webappClientBase -->
<g id="edge32" class="edge"><title>webappClientProject&#45;&gt;webappClientBase</title>
<path fill="none" stroke="#cc0000" d="M522.35,-563.115C544.528,-576.266 570.03,-594.67 587,-617.181 607.578,-644.478 592.297,-661.985 612,-689.921 615.382,-694.717 619.432,-699.258 623.781,-703.47"/>
<polygon fill="#cc0000" stroke="#cc0000" points="621.536,-706.159 631.314,-710.237 626.214,-700.951 621.536,-706.159"/>
</g>
<!-- webappClientProject&#45;&gt;webappClientWwApi -->
<g id="edge33" class="edge"><title>webappClientProject&#45;&gt;webappClientWwApi</title>
<path fill="none" stroke="#cc0000" d="M477.757,-566.236C478.116,-578.526 478.551,-593.414 478.941,-606.8"/>
<polygon fill="#cc0000" stroke="#cc0000" points="475.453,-607.24 479.243,-617.133 482.45,-607.036 475.453,-607.24"/>
</g>
<!-- webappClientProject&#45;&gt;webappClientBaseTest -->
<g id="edge34" class="edge"><title>webappClientProject&#45;&gt;webappClientBaseTest</title>
<path fill="none" stroke="#111111" stroke-dasharray="5,2" d="M536.756,-560.352C557.523,-567.562 580.893,-575.953 602,-584.181 627.659,-594.183 655.649,-606.038 679.603,-616.478"/>
<polygon fill="#111111" stroke="#111111" points="678.35,-619.75 688.914,-620.554 681.157,-613.338 678.35,-619.75"/>
<text text-anchor="middle" x="649.5" y="-587.981" font-family="Times,serif" font-size="14.00">test</text>
</g>
<!-- webappGen -->
<g id="node22" class="node"><title>webappGen</title>
<ellipse fill="#99ccee" stroke="black" cx="554" cy="-395.831" rx="60.623" ry="26.7407"/>
<text text-anchor="middle" x="554" y="-399.631" font-family="Times,serif" font-size="14.00">webapp&#45;gen</text>
<text text-anchor="middle" x="554" y="-384.631" font-family="Times,serif" font-size="14.00">(Scala &amp; JS)</text>
</g>
<!-- webappGen&#45;&gt;webappBase -->
<g id="edge35" class="edge"><title>webappGen&#45;&gt;webappBase</title>
<path fill="none" stroke="#cc0000" d="M506.174,-412.589C462.853,-429.682 401.57,-461.56 373,-512.441 360.902,-533.986 350.324,-937.262 365,-957.141 395.081,-997.889 451.183,-1013.05 496.95,-1018.33"/>
<polygon fill="#cc0000" stroke="#cc0000" points="496.839,-1021.83 507.142,-1019.36 497.546,-1014.87 496.839,-1021.83"/>
</g>
<!-- webappGen&#45;&gt;webappClientProject -->
<g id="edge36" class="edge"><title>webappGen&#45;&gt;webappClientProject</title>
<path fill="none" stroke="#111111" stroke-dasharray="5,2" d="M538.644,-422.214C535.087,-428.239 531.361,-434.668 528,-440.701 516.538,-461.277 504.298,-484.653 494.682,-503.369"/>
<polygon fill="#111111" stroke="#111111" points="491.49,-501.924 490.05,-512.42 497.722,-505.113 491.49,-501.924"/>
<text text-anchor="middle" x="537.5" y="-463.871" font-family="Times,serif" font-size="14.00">run</text>
</g>
<!-- webappGen&#45;&gt;webappBaseTest -->
<g id="edge37" class="edge"><title>webappGen&#45;&gt;webappBaseTest</title>
<path fill="none" stroke="#111111" stroke-dasharray="5,2" d="M551.164,-422.986C549.044,-448.299 547.878,-484.288 557,-494.441 576.492,-516.135 659.665,-502.274 687,-512.441 728.189,-527.761 732.96,-542.531 770,-566.181 805.856,-589.075 830.439,-579.938 851,-617.181 885.717,-680.065 835.328,-761.136 800.466,-805.644"/>
<polygon fill="#111111" stroke="#111111" points="797.68,-803.523 794.161,-813.516 803.144,-807.899 797.68,-803.523"/>
<text text-anchor="middle" x="872.5" y="-640.351" font-family="Times,serif" font-size="14.00">test</text>
</g>
<!-- webappServer&#45;&gt;baseDb -->
<g id="edge42" class="edge"><title>webappServer:e&#45;&gt;baseDb</title>
<path fill="none" stroke="#cc0000" d="M744,-305.09C827.67,-305.09 845.844,-330.702 929,-339.96 1190.66,-369.093 1259.55,-330.024 1521,-360.96 1596.21,-369.86 1688,-319.097 1688,-394.831 1688,-394.831 1688,-394.831 1688,-788.161 1688,-839.679 1722.03,-844.856 1732,-895.401 1737.31,-922.323 1737.33,-930.224 1732,-957.141 1720.45,-1015.49 1714.59,-1031.79 1681,-1080.88 1677.15,-1086.51 1672.47,-1091.98 1667.6,-1097.04"/>
<polygon fill="#cc0000" stroke="#cc0000" points="1665.07,-1094.62 1660.39,-1104.12 1669.98,-1099.61 1665.07,-1094.62"/>
</g>
<!-- webappServer&#45;&gt;taskmanApi -->
<g id="edge38" class="edge"><title>webappServer&#45;&gt;taskmanApi</title>
<path fill="none" stroke="#cc0000" d="M722.873,-318.307C763.081,-329.142 825.072,-344.257 880,-350.96 929.754,-357.032 1282.24,-349.356 1331,-360.96 1339.78,-363.051 1348.77,-366.321 1357.26,-370.022"/>
<polygon fill="#cc0000" stroke="#cc0000" points="1356.06,-373.322 1366.6,-374.343 1359,-366.969 1356.06,-373.322"/>
</g>
<!-- webappServer&#45;&gt;webappBase -->
<g id="edge39" class="edge"><title>webappServer&#45;&gt;webappBase</title>
<path fill="none" stroke="#cc0000" d="M724.399,-317.887C778.941,-334.975 869.342,-372.322 911,-440.701 933.6,-477.798 916,-494.872 916,-538.311 916,-538.311 916,-538.311 916,-931.271 916,-987.706 741.546,-1008.72 640.031,-1016.18"/>
<polygon fill="#cc0000" stroke="#cc0000" points="639.568,-1012.7 629.84,-1016.9 640.062,-1019.68 639.568,-1012.7"/>
</g>
<!-- webappServer&#45;&gt;webappBaseServer -->
<g id="edge40" class="edge"><title>webappServer&#45;&gt;webappBaseServer</title>
<path fill="none" stroke="#cc0000" d="M620.477,-310.683C573.387,-316.597 507.541,-330.11 458,-360.96 416.441,-386.84 406.183,-398.132 382,-440.701 311.289,-565.17 314.877,-624.246 355,-761.661 370.12,-813.444 406.646,-864.458 432.814,-896.349"/>
<polygon fill="#cc0000" stroke="#cc0000" points="430.131,-898.597 439.224,-904.034 435.506,-894.113 430.131,-898.597"/>
</g>
<!-- webappServer&#45;&gt;webappClientHome -->
<g id="edge43" class="edge"><title>webappServer&#45;&gt;webappClientHome</title>
<path fill="none" stroke="#cc0000" stroke-dasharray="5,2" d="M694.352,-322.66C716.956,-348.757 761.281,-399.932 790.521,-433.69"/>
<polygon fill="#cc0000" stroke="#cc0000" points="788.05,-436.184 797.243,-441.452 793.342,-431.601 788.05,-436.184"/>
</g>
<!-- webappServer&#45;&gt;webappClientWw -->
<g id="edge45" class="edge"><title>webappServer&#45;&gt;webappClientWw</title>
<path fill="none" stroke="#cc0000" stroke-dasharray="5,2" d="M675.826,-323.265C669.629,-348.765 657.853,-397.223 649.722,-430.681"/>
<polygon fill="#cc0000" stroke="#cc0000" points="646.286,-429.998 647.326,-440.541 653.088,-431.651 646.286,-429.998"/>
</g>
<!-- webappServer&#45;&gt;webappClientProject -->
<g id="edge44" class="edge"><title>webappServer&#45;&gt;webappClientProject</title>
<path fill="none" stroke="#cc0000" stroke-dasharray="5,2" d="M625.377,-314.094C573.706,-322.891 501.524,-338.779 484,-360.96 452.349,-401.023 458.737,-463.521 467.183,-502.629"/>
<polygon fill="#cc0000" stroke="#cc0000" points="463.807,-503.566 469.47,-512.52 470.627,-501.989 463.807,-503.566"/>
</g>
<!-- webappServer&#45;&gt;webappGen -->
<g id="edge41" class="edge"><title>webappServer&#45;&gt;webappGen</title>
<path fill="none" stroke="#cc0000" d="M657.474,-321.955C639.805,-334.399 614.771,-352.03 593.752,-366.833"/>
<polygon fill="#cc0000" stroke="#cc0000" points="591.484,-364.15 585.323,-372.77 595.514,-369.873 591.484,-364.15"/>
</g>
<!-- webappBaseTest&#45;&gt;baseTest -->
<g id="edge21" class="edge"><title>webappBaseTest&#45;&gt;baseTest</title>
<path fill="none" stroke="#111111" d="M836.783,-854.54C992.086,-888.123 1384.13,-972.9 1538.31,-1006.24"/>
<polygon fill="#111111" stroke="#111111" points="1537.61,-1009.67 1548.12,-1008.36 1539.09,-1002.83 1537.61,-1009.67"/>
</g>
<!-- webappBaseTest&#45;&gt;webappBaseServer -->
<g id="edge22" class="edge"><title>webappBaseTest&#45;&gt;webappBaseServer</title>
<path fill="none" stroke="#111111" d="M713.327,-857.327C662.596,-871.849 589.057,-892.9 534.623,-908.482"/>
<polygon fill="#111111" stroke="#111111" points="533.342,-905.208 524.692,-911.325 535.269,-911.938 533.342,-905.208"/>
</g>
<!-- webappClientBaseTest&#45;&gt;webappClientBase -->
<g id="edge25" class="edge"><title>webappClientBaseTest&#45;&gt;webappClientBase</title>
<path fill="none" stroke="#111111" d="M718.175,-670.718C710.647,-679.996 702.036,-690.609 694.052,-700.45"/>
<polygon fill="#111111" stroke="#111111" points="691.113,-698.517 687.53,-708.488 696.548,-702.928 691.113,-698.517"/>
</g>
<!-- webappClientBaseTest&#45;&gt;webappBaseTest -->
<g id="edge26" class="edge"><title>webappClientBaseTest&#45;&gt;webappBaseTest</title>
<path fill="none" stroke="#111111" d="M750.266,-670.882C754.663,-682.062 759.29,-695.427 762,-707.921 768.778,-739.175 771.127,-775.504 771.868,-801.901"/>
<polygon fill="#111111" stroke="#111111" points="768.375,-802.285 772.089,-812.207 775.373,-802.134 768.375,-802.285"/>
</g>
<!-- taskman -->
<g id="node26" class="node"><title>taskman</title>
<ellipse fill="#ffff80" stroke="black" cx="1129" cy="-214.35" rx="55.3091" ry="26.7407"/>
<text text-anchor="middle" x="1129" y="-218.15" font-family="Times,serif" font-size="14.00">[aggregate]</text>
<text text-anchor="middle" x="1129" y="-203.15" font-family="Times,serif" font-size="14.00">taskman</text>
</g>
<!-- taskman&#45;&gt;taskmanServer -->
<g id="edge57" class="edge"><title>taskman&#45;&gt;taskmanServer</title>
<path fill="none" stroke="#aaaaaa" stroke-dasharray="5,2" d="M1129,-241.495C1129,-249.8 1129,-259.136 1129,-268.012"/>
<polygon fill="#aaaaaa" stroke="#aaaaaa" points="1129,-278.132 1124.5,-268.132 1129,-273.132 1129,-268.132 1129,-268.132 1129,-268.132 1129,-273.132 1133.5,-268.132 1129,-278.132 1129,-278.132"/>
</g>
<!-- taskman&#45;&gt;taskmanApi -->
<g id="edge56" class="edge"><title>taskman&#45;&gt;taskmanApi</title>
<path fill="none" stroke="#aaaaaa" stroke-dasharray="5,2" d="M1183.82,-218.822C1227.61,-224.092 1288.48,-237.284 1331,-270.22 1360.32,-292.93 1379.55,-331.394 1390.52,-359.593"/>
<polygon fill="#aaaaaa" stroke="#aaaaaa" points="1394.05,-369.097 1386.35,-361.293 1392.31,-364.411 1390.56,-359.724 1390.56,-359.724 1390.56,-359.724 1392.31,-364.411 1394.78,-358.156 1394.05,-369.097 1394.05,-369.097"/>
</g>
<!-- benchmark -->
<g id="node27" class="node"><title>benchmark</title>
<ellipse fill="#ffffdd" stroke="black" cx="239" cy="-117.61" rx="55.3091" ry="26.7407"/>
<text text-anchor="middle" x="239" y="-121.41" font-family="Times,serif" font-size="14.00">[aggregate]</text>
<text text-anchor="middle" x="239" y="-106.41" font-family="Times,serif" font-size="14.00">benchmark</text>
</g>
<!-- benchmarkJvm -->
<g id="node28" class="node"><title>benchmarkJvm</title>
<ellipse fill="#ffcccc" stroke="black" cx="239" cy="-214.35" rx="70.6878" ry="18"/>
<text text-anchor="middle" x="239" y="-210.65" font-family="Times,serif" font-size="14.00">benchmark JVM</text>
</g>
<!-- benchmark&#45;&gt;benchmarkJvm -->
<g id="edge66" class="edge"><title>benchmark&#45;&gt;benchmarkJvm</title>
<path fill="none" stroke="#aaaaaa" stroke-dasharray="5,2" d="M239,-144.498C239,-157.339 239,-172.851 239,-185.899"/>
<polygon fill="#aaaaaa" stroke="#aaaaaa" points="239,-196.166 234.5,-186.166 239,-191.166 239,-186.166 239,-186.166 239,-186.166 239,-191.166 243.5,-186.166 239,-196.166 239,-196.166"/>
</g>
<!-- benchmarkJs -->
<g id="node29" class="node"><title>benchmarkJs</title>
<ellipse fill="#ffcccc" stroke="black" cx="89" cy="-214.35" rx="61.1893" ry="18"/>
<text text-anchor="middle" x="89" y="-210.65" font-family="Times,serif" font-size="14.00">benchmark JS</text>
</g>
<!-- benchmark&#45;&gt;benchmarkJs -->
<g id="edge67" class="edge"><title>benchmark&#45;&gt;benchmarkJs</title>
<path fill="none" stroke="#aaaaaa" stroke-dasharray="5,2" d="M206.082,-139.401C181.35,-155.022 147.591,-176.344 122.677,-192.08"/>
<polygon fill="#aaaaaa" stroke="#aaaaaa" points="113.931,-197.604 119.983,-188.459 118.159,-194.934 122.386,-192.264 122.386,-192.264 122.386,-192.264 118.159,-194.934 124.789,-196.068 113.931,-197.604 113.931,-197.604"/>
</g>
<!-- benchmarkJvm&#45;&gt;webappServer -->
<g id="edge48" class="edge"><title>benchmarkJvm&#45;&gt;webappServer</title>
<path fill="none" stroke="#cc0000" d="M282.283,-228.603C297.307,-232.951 314.318,-237.592 330,-241.22 428.891,-264.099 545.125,-283.523 615.634,-294.493"/>
<polygon fill="#cc0000" stroke="#cc0000" points="615.28,-297.979 625.698,-296.049 616.35,-291.062 615.28,-297.979"/>
</g>
<!-- benchmarkShared -->
<g id="node30" class="node"><title>benchmarkShared</title>
<ellipse fill="#ffcccc" stroke="black" cx="203" cy="-305.09" rx="54.3945" ry="26.7407"/>
<text text-anchor="middle" x="203" y="-308.89" font-family="Times,serif" font-size="14.00">benchmark</text>
<text text-anchor="middle" x="203" y="-293.89" font-family="Times,serif" font-size="14.00">base</text>
</g>
<!-- benchmarkJvm&#45;&gt;benchmarkShared -->
<g id="edge46" class="edge"><title>benchmarkJvm&#45;&gt;benchmarkShared</title>
<path fill="none" stroke="#cc0000" d="M232.059,-232.46C227.826,-242.895 222.26,-256.615 217.134,-269.251"/>
<polygon fill="#cc0000" stroke="#cc0000" points="213.844,-268.049 213.328,-278.631 220.331,-270.681 213.844,-268.049"/>
</g>
<!-- benchmarkJs&#45;&gt;webappClientProject -->
<g id="edge49" class="edge"><title>benchmarkJs&#45;&gt;webappClientProject</title>
<path fill="none" stroke="#cc0000" d="M92.3397,-232.505C98.1229,-258.385 112.151,-307.799 140,-339.96 214.154,-425.599 334.816,-483.868 409.852,-514.062"/>
<polygon fill="#cc0000" stroke="#cc0000" points="408.637,-517.346 419.222,-517.783 411.22,-510.84 408.637,-517.346"/>
</g>
<!-- benchmarkJs&#45;&gt;benchmarkShared -->
<g id="edge47" class="edge"><title>benchmarkJs&#45;&gt;benchmarkShared</title>
<path fill="none" stroke="#cc0000" d="M109.645,-231.42C125.406,-243.69 147.533,-260.914 166.289,-275.514"/>
<polygon fill="#cc0000" stroke="#cc0000" points="164.322,-278.418 174.363,-281.799 168.622,-272.894 164.322,-278.418"/>
</g>
<!-- utils -->
<g id="node31" class="node"><title>utils</title>
<ellipse fill="#ffffdd" stroke="black" cx="97" cy="-117.61" rx="27" ry="18"/>
<text text-anchor="middle" x="97" y="-113.91" font-family="Times,serif" font-size="14.00">utils</text>
</g>
<!-- utils&#45;&gt;webappBase -->
<g id="edge50" class="edge"><title>utils&#45;&gt;webappBase</title>
<path fill="none" stroke="#cc0000" d="M74.9892,-128.205C46.3701,-142.345 0,-171.685 0,-213.35 0,-213.35 0,-213.35 0,-931.271 0,-981.115 345.272,-1007.15 497.898,-1016.23"/>
<polygon fill="#cc0000" stroke="#cc0000" points="497.919,-1019.73 508.107,-1016.83 498.329,-1012.75 497.919,-1019.73"/>
</g>
<!-- root -->
<g id="node32" class="node"><title>root</title>
<ellipse fill="#cccccc" stroke="black" cx="740" cy="-26.8701" rx="55.3091" ry="26.7407"/>
<text text-anchor="middle" x="740" y="-30.6701" font-family="Times,serif" font-size="14.00">[aggregate]</text>
<text text-anchor="middle" x="740" y="-15.6701" font-family="Times,serif" font-size="14.00">root</text>
</g>
<!-- root&#45;&gt;base -->
<g id="edge68" class="edge"><title>root&#45;&gt;base</title>
<path fill="none" stroke="#aaaaaa" stroke-dasharray="5,2" d="M795.124,-29.9191C1002.77,-37.9955 1726,-69.5064 1726,-116.61 1726,-116.61 1726,-116.61 1726,-840.531 1726,-862.16 1713.78,-882.631 1700.56,-898.45"/>
<polygon fill="#aaaaaa" stroke="#aaaaaa" points="1693.61,-906.279 1696.88,-895.812 1696.93,-902.539 1700.25,-898.799 1700.25,-898.799 1700.25,-898.799 1696.93,-902.539 1703.61,-901.786 1693.61,-906.279 1693.61,-906.279"/>
</g>
<!-- root&#45;&gt;webapp -->
<g id="edge69" class="edge"><title>root&#45;&gt;webapp</title>
<path fill="none" stroke="#aaaaaa" stroke-dasharray="5,2" d="M740,-54.0515C740,-86.2255 740,-140.989 740,-177.17"/>
<polygon fill="#aaaaaa" stroke="#aaaaaa" points="740,-187.302 735.5,-177.302 740,-182.302 740,-177.302 740,-177.302 740,-177.302 740,-182.302 744.5,-177.302 740,-187.302 740,-187.302"/>
</g>
<!-- root&#45;&gt;taskman -->
<g id="edge70" class="edge"><title>root&#45;&gt;taskman</title>
<path fill="none" stroke="#aaaaaa" stroke-dasharray="5,2" d="M778.721,-46.3327C850.372,-80.4967 1003.42,-153.471 1081.32,-190.615"/>
<polygon fill="#aaaaaa" stroke="#aaaaaa" points="1090.44,-194.962 1079.47,-194.72 1085.92,-192.81 1081.41,-190.658 1081.41,-190.658 1081.41,-190.658 1085.92,-192.81 1083.35,-186.596 1090.44,-194.962 1090.44,-194.962"/>
</g>
<!-- root&#45;&gt;benchmark -->
<g id="edge71" class="edge"><title>root&#45;&gt;benchmark</title>
<path fill="none" stroke="#aaaaaa" stroke-dasharray="5,2" d="M688.739,-36.9498C595.791,-53.4133 399.853,-88.1188 300.116,-105.785"/>
<polygon fill="#aaaaaa" stroke="#aaaaaa" points="290.189,-107.543 299.251,-101.368 295.112,-106.671 300.036,-105.799 300.036,-105.799 300.036,-105.799 295.112,-106.671 300.821,-110.23 290.189,-107.543 290.189,-107.543"/>
</g>
<!-- root&#45;&gt;utils -->
<g id="edge72" class="edge"><title>root&#45;&gt;utils</title>
<path fill="none" stroke="#aaaaaa" stroke-dasharray="5,2" d="M684.467,-27.5649C582.049,-28.2479 357.23,-35.5801 175,-82.7401 158.51,-87.0076 141.041,-94.308 126.824,-101.041"/>
<polygon fill="#aaaaaa" stroke="#aaaaaa" points="117.553,-105.567 124.565,-97.1359 122.046,-103.373 126.539,-101.18 126.539,-101.18 126.539,-101.18 122.046,-103.373 128.514,-105.223 117.553,-105.567 117.553,-105.567"/>
</g>
</g>
</svg>
