<?xml version="1.0" encoding="UTF-8" standalone="no"?>
<!DOCTYPE svg PUBLIC "-//W3C//DTD SVG 1.1//EN"
 "http://www.w3.org/Graphics/SVG/1.1/DTD/svg11.dtd">
<!-- Generated by graphviz version 2.44.0 (0)
 -->
<!-- Title: G Pages: 1 -->
<svg width="1962pt" height="1576pt"
 viewBox="0.00 0.00 1962.00 1575.58" xmlns="http://www.w3.org/2000/svg" xmlns:xlink="http://www.w3.org/1999/xlink">
<g id="graph0" class="graph" transform="scale(1 1) rotate(0) translate(4 1571.58)">
<title>G</title>
<polygon fill="white" stroke="transparent" points="-4,4 -4,-1571.58 1958,-1571.58 1958,4 -4,4"/>
<g id="clust3" class="cluster">
<title>cluster_taskman</title>
<polygon fill="#eeeeff" stroke="black" points="1130,-393.83 1130,-768.92 1590,-768.92 1590,-393.83 1130,-393.83"/>
</g>
<g id="clust4" class="cluster">
<title>cluster_webapp</title>
<polygon fill="#eeeeff" stroke="black" points="334,-189.48 334,-1394.1 1122,-1394.1 1122,-189.48 334,-189.48"/>
</g>
<g id="clust1" class="cluster">
<title>cluster_base</title>
<polygon fill="#f4fff4" stroke="black" points="1598,-8 1598,-559.44 1946,-559.44 1946,-8 1598,-8"/>
</g>
<g id="clust5" class="cluster">
<title>cluster_supp</title>
<polygon fill="#fff2f2" stroke="black" points="20,-1233.62 20,-1484.84 326,-1484.84 326,-1233.62 20,-1233.62"/>
</g>
<!-- baseMacro -->
<g id="node1" class="node">
<title>baseMacro</title>
<ellipse fill="#bbffbb" stroke="black" cx="1854" cy="-42.87" rx="69.09" ry="26.74"/>
<text text-anchor="middle" x="1854" y="-46.67" font-family="Times,serif" font-size="14.00">base&#45;macro</text>
<text text-anchor="middle" x="1854" y="-31.67" font-family="Times,serif" font-size="14.00">(JVM &amp; JS)</text>
</g>
<!-- basePredef -->
<g id="node2" class="node">
<title>basePredef</title>
<ellipse fill="#bbffbb" stroke="black" cx="1807" cy="-224.35" rx="71.34" ry="26.74"/>
<text text-anchor="middle" x="1807" y="-228.15" font-family="Times,serif" font-size="14.00">base&#45;predef</text>
<text text-anchor="middle" x="1807" y="-213.15" font-family="Times,serif" font-size="14.00">(JVM &amp; JS)</text>
</g>
<!-- baseUtil -->
<g id="node3" class="node">
<title>baseUtil</title>
<ellipse fill="#bbffbb" stroke="black" cx="1807" cy="-133.61" rx="65.52" ry="26.74"/>
<text text-anchor="middle" x="1807" y="-137.41" font-family="Times,serif" font-size="14.00">base&#45;util</text>
<text text-anchor="middle" x="1807" y="-122.41" font-family="Times,serif" font-size="14.00">(JVM &amp; JS)</text>
</g>
<!-- basePredef&#45;&gt;baseUtil -->
<g id="edge1" class="edge">
<title>basePredef&#45;&gt;baseUtil</title>
<path fill="none" stroke="#cc0000" d="M1807,-197.21C1807,-188.9 1807,-179.56 1807,-170.69"/>
<polygon fill="#cc0000" stroke="#cc0000" points="1810.5,-170.57 1807,-160.57 1803.5,-170.57 1810.5,-170.57"/>
</g>
<!-- baseUtil&#45;&gt;baseMacro -->
<g id="edge2" class="edge">
<title>baseUtil&#45;&gt;baseMacro</title>
<path fill="none" stroke="#cc0000" d="M1820.59,-106.94C1825.32,-98.02 1830.7,-87.86 1835.74,-78.35"/>
<polygon fill="#cc0000" stroke="#cc0000" points="1838.85,-79.95 1840.44,-69.48 1832.66,-76.68 1838.85,-79.95"/>
</g>
<!-- baseDb -->
<g id="node4" class="node">
<title>baseDb</title>
<ellipse fill="#bbffbb" stroke="black" cx="1662" cy="-315.09" rx="50.82" ry="26.74"/>
<text text-anchor="middle" x="1662" y="-318.89" font-family="Times,serif" font-size="14.00">base&#45;db</text>
<text text-anchor="middle" x="1662" y="-303.89" font-family="Times,serif" font-size="14.00">(JVM)</text>
</g>
<!-- baseOps -->
<g id="node5" class="node">
<title>baseOps</title>
<ellipse fill="#bbffbb" stroke="black" cx="1662" cy="-224.35" rx="55.72" ry="26.74"/>
<text text-anchor="middle" x="1662" y="-228.15" font-family="Times,serif" font-size="14.00">base&#45;ops</text>
<text text-anchor="middle" x="1662" y="-213.15" font-family="Times,serif" font-size="14.00">(JVM)</text>
</g>
<!-- baseDb&#45;&gt;baseOps -->
<g id="edge4" class="edge">
<title>baseDb&#45;&gt;baseOps</title>
<path fill="none" stroke="#cc0000" d="M1662,-287.95C1662,-279.64 1662,-270.31 1662,-261.43"/>
<polygon fill="#cc0000" stroke="#cc0000" points="1665.5,-261.31 1662,-251.31 1658.5,-261.31 1665.5,-261.31"/>
</g>
<!-- baseOps&#45;&gt;baseUtil -->
<g id="edge3" class="edge">
<title>baseOps&#45;&gt;baseUtil</title>
<path fill="none" stroke="#cc0000" d="M1695.63,-202.77C1715.63,-190.53 1741.23,-174.86 1762.85,-161.63"/>
<polygon fill="#cc0000" stroke="#cc0000" points="1764.83,-164.52 1771.53,-156.32 1761.17,-158.55 1764.83,-164.52"/>
</g>
<!-- baseTest -->
<g id="node6" class="node">
<title>baseTest</title>
<ellipse fill="white" stroke="darkgreen" cx="1704" cy="-419.83" rx="65.52" ry="26.74"/>
<text text-anchor="middle" x="1704" y="-423.63" font-family="Times,serif" font-size="14.00">base&#45;test</text>
<text text-anchor="middle" x="1704" y="-408.63" font-family="Times,serif" font-size="14.00">(JVM &amp; JS)</text>
</g>
<!-- baseTest&#45;&gt;baseUtil -->
<g id="edge5" class="edge">
<title>baseTest&#45;&gt;baseUtil</title>
<path fill="none" stroke="#111111" d="M1741.75,-397.75C1786.15,-370.52 1857.55,-318.51 1887,-251.22 1898,-226.08 1899.79,-213.76 1887,-189.48 1880.68,-177.49 1870.43,-167.61 1859.34,-159.71"/>
<polygon fill="#111111" stroke="#111111" points="1861.03,-156.63 1850.75,-154.05 1857.17,-162.47 1861.03,-156.63"/>
</g>
<!-- baseTest&#45;&gt;baseDb -->
<g id="edge6" class="edge">
<title>baseTest&#45;&gt;baseDb</title>
<path fill="none" stroke="#111111" stroke-dasharray="5,2" d="M1693.51,-393.17C1688.26,-380.32 1681.83,-364.59 1676.15,-350.69"/>
<polygon fill="#111111" stroke="#111111" points="1679.38,-349.36 1672.36,-341.42 1672.9,-352 1679.38,-349.36"/>
<text text-anchor="middle" x="1717" y="-363.76" font-family="Times,serif" font-size="14.00">provided</text>
</g>
<!-- base -->
<g id="node7" class="node">
<title>base</title>
<ellipse fill="#ffffdd" stroke="darkgreen" cx="1867" cy="-524.57" rx="70.92" ry="26.74"/>
<text text-anchor="middle" x="1867" y="-528.37" font-family="Times,serif" font-size="14.00">[aggregate]</text>
<text text-anchor="middle" x="1867" y="-513.37" font-family="Times,serif" font-size="14.00">base</text>
</g>
<!-- base&#45;&gt;baseMacro -->
<g id="edge68" class="edge">
<title>base&#45;&gt;baseMacro</title>
<path fill="none" stroke="#aaaaaa" stroke-dasharray="5,2" d="M1895.47,-499.63C1914.85,-480.53 1937,-451.91 1937,-420.83 1937,-420.83 1937,-420.83 1937,-132.61 1937,-107.69 1919.33,-86.88 1900.29,-71.68"/>
<polygon fill="#aaaaaa" stroke="#aaaaaa" points="1892.1,-65.52 1902.8,-67.93 1896.09,-68.52 1900.09,-71.53 1900.09,-71.53 1900.09,-71.53 1896.09,-68.52 1897.39,-75.13 1892.1,-65.52 1892.1,-65.52"/>
</g>
<!-- base&#45;&gt;baseUtil -->
<g id="edge65" class="edge">
<title>base&#45;&gt;baseUtil</title>
<path fill="none" stroke="#aaaaaa" stroke-dasharray="5,2" d="M1887.05,-498.6C1900.96,-478.73 1917,-449.59 1917,-420.83 1917,-420.83 1917,-420.83 1917,-223.35 1917,-192.82 1891.01,-171 1864.3,-156.64"/>
<polygon fill="#aaaaaa" stroke="#aaaaaa" points="1855.25,-152.06 1866.2,-152.56 1859.71,-154.32 1864.17,-156.58 1864.17,-156.58 1864.17,-156.58 1859.71,-154.32 1862.13,-160.59 1855.25,-152.06 1855.25,-152.06"/>
</g>
<!-- base&#45;&gt;baseDb -->
<g id="edge66" class="edge">
<title>base&#45;&gt;baseDb</title>
<path fill="none" stroke="#aaaaaa" stroke-dasharray="5,2" d="M1855.08,-498C1837.4,-462.56 1801.06,-398.53 1753,-359.96 1741,-350.33 1726.53,-342.14 1712.7,-335.55"/>
<polygon fill="#aaaaaa" stroke="#aaaaaa" points="1703.27,-331.24 1714.23,-331.3 1707.81,-333.31 1712.36,-335.39 1712.36,-335.39 1712.36,-335.39 1707.81,-333.31 1710.49,-339.48 1703.27,-331.24 1703.27,-331.24"/>
</g>
<!-- base&#45;&gt;baseTest -->
<g id="edge67" class="edge">
<title>base&#45;&gt;baseTest</title>
<path fill="none" stroke="#aaaaaa" stroke-dasharray="5,2" d="M1831.63,-501.28C1806.9,-485.69 1773.72,-464.77 1747.38,-448.18"/>
<polygon fill="#aaaaaa" stroke="#aaaaaa" points="1738.74,-442.73 1749.6,-444.25 1742.97,-445.39 1747.2,-448.06 1747.2,-448.06 1747.2,-448.06 1742.97,-445.39 1744.8,-451.87 1738.74,-442.73 1738.74,-442.73"/>
</g>
<!-- taskmanDb -->
<g id="node8" class="node">
<title>taskmanDb</title>
<ellipse fill="#ffffff" stroke="black" cx="1461" cy="-419.83" rx="120.78" ry="18"/>
<text text-anchor="middle" x="1461" y="-416.13" font-family="Times,serif" font-size="14.00">taskman&#45;server&#45;schema</text>
</g>
<!-- taskmanDb&#45;&gt;baseDb -->
<g id="edge7" class="edge">
<title>taskmanDb&#45;&gt;baseDb</title>
<path fill="none" stroke="#cc0000" d="M1493.29,-402.32C1526.75,-385.22 1579.29,-358.37 1616.85,-339.17"/>
<polygon fill="#cc0000" stroke="#cc0000" points="1618.74,-342.13 1626.05,-334.46 1615.56,-335.9 1618.74,-342.13"/>
</g>
<!-- taskmanServerLogic -->
<g id="node9" class="node">
<title>taskmanServerLogic</title>
<ellipse fill="#ffffff" stroke="black" cx="1246" cy="-524.57" rx="107.78" ry="18"/>
<text text-anchor="middle" x="1246" y="-520.87" font-family="Times,serif" font-size="14.00">taskman&#45;server&#45;logic</text>
</g>
<!-- taskmanApiLogic -->
<g id="node11" class="node">
<title>taskmanApiLogic</title>
<ellipse fill="#ffffff" stroke="black" cx="1230" cy="-419.83" rx="92.08" ry="18"/>
<text text-anchor="middle" x="1230" y="-416.13" font-family="Times,serif" font-size="14.00">taskman&#45;api&#45;logic</text>
</g>
<!-- taskmanServerLogic&#45;&gt;taskmanApiLogic -->
<g id="edge14" class="edge">
<title>taskmanServerLogic&#45;&gt;taskmanApiLogic</title>
<path fill="none" stroke="#cc0000" d="M1243.29,-506.14C1240.81,-490.25 1237.12,-466.52 1234.25,-448.12"/>
<polygon fill="#cc0000" stroke="#cc0000" points="1237.67,-447.34 1232.67,-438 1230.75,-448.42 1237.67,-447.34"/>
</g>
<!-- taskmanApi -->
<g id="node10" class="node">
<title>taskmanApi</title>
<ellipse fill="#ffffff" stroke="black" cx="1439" cy="-524.57" rx="67.69" ry="18"/>
<text text-anchor="middle" x="1439" y="-520.87" font-family="Times,serif" font-size="14.00">taskman&#45;api</text>
</g>
<!-- taskmanApi&#45;&gt;baseDb -->
<g id="edge10" class="edge">
<title>taskmanApi&#45;&gt;baseDb</title>
<path fill="none" stroke="#cc0000" d="M1480.57,-510.35C1513.7,-498.11 1559.6,-477.18 1591,-446.7 1605.94,-432.2 1630.25,-384.1 1646.18,-350.51"/>
<polygon fill="#cc0000" stroke="#cc0000" points="1649.35,-352 1650.44,-341.47 1643.01,-349.02 1649.35,-352"/>
</g>
<!-- taskmanApi&#45;&gt;baseTest -->
<g id="edge13" class="edge">
<title>taskmanApi&#45;&gt;baseTest</title>
<path fill="none" stroke="#111111" stroke-dasharray="5,2" d="M1489.31,-512.52C1518.57,-505.15 1555.74,-494.15 1587,-479.7 1598.08,-474.58 1599.33,-470.63 1610,-464.7 1622.92,-457.52 1637.21,-450.44 1650.67,-444.12"/>
<polygon fill="#111111" stroke="#111111" points="1652.23,-447.26 1659.83,-439.88 1649.29,-440.91 1652.23,-447.26"/>
<text text-anchor="middle" x="1624" y="-468.5" font-family="Times,serif" font-size="14.00">test</text>
</g>
<!-- taskmanApi&#45;&gt;taskmanDb -->
<g id="edge12" class="edge">
<title>taskmanApi&#45;&gt;taskmanDb</title>
<path fill="none" stroke="#111111" stroke-dasharray="5,2" d="M1442.73,-506.14C1446.15,-490.18 1451.26,-466.3 1455.21,-447.86"/>
<polygon fill="#111111" stroke="#111111" points="1458.65,-448.51 1457.32,-438 1451.81,-447.05 1458.65,-448.51"/>
<text text-anchor="middle" x="1465" y="-468.5" font-family="Times,serif" font-size="14.00">test</text>
</g>
<!-- taskmanApi&#45;&gt;taskmanApiLogic -->
<g id="edge9" class="edge">
<title>taskmanApi&#45;&gt;taskmanApiLogic</title>
<path fill="none" stroke="#cc0000" d="M1397.61,-510.21C1375.08,-502.38 1346.98,-491.67 1323,-479.7 1301.89,-469.16 1279.51,-455.1 1261.99,-443.35"/>
<polygon fill="#cc0000" stroke="#cc0000" points="1263.55,-440.18 1253.31,-437.46 1259.61,-445.97 1263.55,-440.18"/>
</g>
<!-- taskmanApi&#45;&gt;taskmanApiLogic -->
<g id="edge11" class="edge">
<title>taskmanApi&#45;&gt;taskmanApiLogic</title>
<path fill="none" stroke="#111111" stroke-dasharray="5,2" d="M1408.16,-508.41C1371.92,-490.6 1311.64,-460.96 1271.37,-441.17"/>
<polygon fill="#111111" stroke="#111111" points="1272.86,-438 1262.34,-436.73 1269.77,-444.28 1272.86,-438"/>
<text text-anchor="middle" x="1372.5" y="-468.5" font-family="Times,serif" font-size="14.00">test&#45;lib</text>
</g>
<!-- taskmanApiLogic&#45;&gt;baseUtil -->
<g id="edge8" class="edge">
<title>taskmanApiLogic&#45;&gt;baseUtil</title>
<path fill="none" stroke="#cc0000" d="M1251.45,-402.11C1306.04,-360.31 1455.91,-250.31 1597,-189.48 1642.17,-170.01 1695.87,-156.13 1737.67,-147.2"/>
<polygon fill="#cc0000" stroke="#cc0000" points="1738.41,-150.62 1747.48,-145.15 1736.97,-143.77 1738.41,-150.62"/>
</g>
<!-- taskmanServer -->
<g id="node12" class="node">
<title>taskmanServer</title>
<ellipse fill="#00ccff" stroke="black" cx="1439" cy="-629.31" rx="83.39" ry="18"/>
<text text-anchor="middle" x="1439" y="-625.61" font-family="Times,serif" font-size="14.00">taskman&#45;server</text>
</g>
<!-- taskmanServer&#45;&gt;taskmanDb -->
<g id="edge17" class="edge">
<title>taskmanServer&#45;&gt;taskmanDb</title>
<path fill="none" stroke="#cc0000" d="M1466.56,-612.3C1484.31,-600.28 1505.9,-582.03 1516,-559.44 1527.2,-534.39 1524.38,-523.83 1516,-497.7 1509.75,-478.24 1496.57,-459.52 1484.67,-445.42"/>
<polygon fill="#cc0000" stroke="#cc0000" points="1487.11,-442.89 1477.88,-437.69 1481.85,-447.51 1487.11,-442.89"/>
</g>
<!-- taskmanServer&#45;&gt;taskmanServerLogic -->
<g id="edge15" class="edge">
<title>taskmanServer&#45;&gt;taskmanServerLogic</title>
<path fill="none" stroke="#cc0000" d="M1409.27,-612.48C1376.12,-594.84 1322.37,-566.23 1285.67,-546.69"/>
<polygon fill="#cc0000" stroke="#cc0000" points="1287.2,-543.54 1276.72,-541.93 1283.91,-549.71 1287.2,-543.54"/>
</g>
<!-- taskmanServer&#45;&gt;taskmanApi -->
<g id="edge16" class="edge">
<title>taskmanServer&#45;&gt;taskmanApi</title>
<path fill="none" stroke="#cc0000" d="M1439,-610.88C1439,-594.99 1439,-571.26 1439,-552.86"/>
<polygon fill="#cc0000" stroke="#cc0000" points="1442.5,-552.74 1439,-542.74 1435.5,-552.74 1442.5,-552.74"/>
</g>
<!-- taskman -->
<g id="node13" class="node">
<title>taskman</title>
<ellipse fill="#ffff80" stroke="black" cx="1337" cy="-734.05" rx="70.92" ry="26.74"/>
<text text-anchor="middle" x="1337" y="-737.85" font-family="Times,serif" font-size="14.00">[aggregate]</text>
<text text-anchor="middle" x="1337" y="-722.85" font-family="Times,serif" font-size="14.00">taskman</text>
</g>
<!-- taskman&#45;&gt;taskmanApi -->
<g id="edge59" class="edge">
<title>taskman&#45;&gt;taskmanApi</title>
<path fill="none" stroke="#aaaaaa" stroke-dasharray="5,2" d="M1333.31,-707.16C1330.62,-679.61 1329.98,-635.5 1347,-602.44 1359.12,-578.91 1381.9,-559.78 1401.76,-546.5"/>
<polygon fill="#aaaaaa" stroke="#aaaaaa" points="1410.35,-540.99 1404.36,-550.18 1406.14,-543.69 1401.93,-546.39 1401.93,-546.39 1401.93,-546.39 1406.14,-543.69 1399.5,-542.6 1410.35,-540.99 1410.35,-540.99"/>
</g>
<!-- taskman&#45;&gt;taskmanServer -->
<g id="edge60" class="edge">
<title>taskman&#45;&gt;taskmanServer</title>
<path fill="none" stroke="#aaaaaa" stroke-dasharray="5,2" d="M1361.17,-708.7C1377.52,-692.24 1399.01,-670.59 1415.26,-654.22"/>
<polygon fill="#aaaaaa" stroke="#aaaaaa" points="1422.33,-647.1 1418.48,-657.37 1418.81,-650.65 1415.28,-654.2 1415.28,-654.2 1415.28,-654.2 1418.81,-650.65 1412.09,-651.03 1422.33,-647.1 1422.33,-647.1"/>
</g>
<!-- webappMacro -->
<g id="node14" class="node">
<title>webappMacro</title>
<ellipse fill="#ffffff" stroke="black" cx="728" cy="-224.35" rx="85.62" ry="26.74"/>
<text text-anchor="middle" x="728" y="-228.15" font-family="Times,serif" font-size="14.00">webapp&#45;macro</text>
<text text-anchor="middle" x="728" y="-213.15" font-family="Times,serif" font-size="14.00">(JVM &amp; JS)</text>
</g>
<!-- webappMacro&#45;&gt;baseUtil -->
<g id="edge18" class="edge">
<title>webappMacro&#45;&gt;baseUtil</title>
<path fill="none" stroke="#cc0000" d="M809.99,-216.61C1013.27,-199.89 1538.16,-156.72 1732.87,-140.71"/>
<polygon fill="#cc0000" stroke="#cc0000" points="1733.32,-144.18 1743,-139.87 1732.75,-137.21 1733.32,-144.18"/>
</g>
<!-- webappBase -->
<g id="node15" class="node">
<title>webappBase</title>
<ellipse fill="#ffffff" stroke="black" cx="424" cy="-315.09" rx="77.56" ry="26.74"/>
<text text-anchor="middle" x="424" y="-318.89" font-family="Times,serif" font-size="14.00">webapp&#45;base</text>
<text text-anchor="middle" x="424" y="-303.89" font-family="Times,serif" font-size="14.00">(JVM &amp; JS)</text>
</g>
<!-- webappBase&#45;&gt;webappMacro -->
<g id="edge19" class="edge">
<title>webappBase&#45;&gt;webappMacro</title>
<path fill="none" stroke="#cc0000" d="M482.25,-297.09C532.08,-282.54 603.96,-261.56 657.12,-246.04"/>
<polygon fill="#cc0000" stroke="#cc0000" points="658.2,-249.37 666.81,-243.21 656.23,-242.65 658.2,-249.37"/>
</g>
<!-- webappBaseMember -->
<g id="node16" class="node">
<title>webappBaseMember</title>
<ellipse fill="#ffffff" stroke="black" cx="688" cy="-419.83" rx="122.16" ry="26.74"/>
<text text-anchor="middle" x="688" y="-423.63" font-family="Times,serif" font-size="14.00">webapp&#45;base&#45;member</text>
<text text-anchor="middle" x="688" y="-408.63" font-family="Times,serif" font-size="14.00">(JVM &amp; JS)</text>
</g>
<!-- webappBaseMember&#45;&gt;webappBase -->
<g id="edge25" class="edge">
<title>webappBaseMember&#45;&gt;webappBase</title>
<path fill="none" stroke="#cc0000" d="M629.74,-396.16C586.45,-379.31 527.58,-356.4 483.91,-339.4"/>
<polygon fill="#cc0000" stroke="#cc0000" points="485.14,-336.13 474.55,-335.76 482.6,-342.65 485.14,-336.13"/>
</g>
<!-- webappSampleData -->
<g id="node17" class="node">
<title>webappSampleData</title>
<ellipse fill="#ffffff" stroke="black" cx="547" cy="-524.57" rx="112.36" ry="26.74"/>
<text text-anchor="middle" x="547" y="-528.37" font-family="Times,serif" font-size="14.00">webapp&#45;sampledata</text>
<text text-anchor="middle" x="547" y="-513.37" font-family="Times,serif" font-size="14.00">(JVM &amp; JS)</text>
</g>
<!-- webappSampleData&#45;&gt;webappBaseMember -->
<g id="edge20" class="edge">
<title>webappSampleData&#45;&gt;webappBaseMember</title>
<path fill="none" stroke="#cc0000" d="M581.13,-498.7C600.47,-484.61 624.84,-466.85 645.42,-451.85"/>
<polygon fill="#cc0000" stroke="#cc0000" points="647.67,-454.55 653.69,-445.83 643.55,-448.89 647.67,-454.55"/>
</g>
<!-- webappServerLogic -->
<g id="node18" class="node">
<title>webappServerLogic</title>
<ellipse fill="#ffffff" stroke="black" cx="456" cy="-1177.75" rx="113.69" ry="26.74"/>
<text text-anchor="middle" x="456" y="-1181.55" font-family="Times,serif" font-size="14.00">webapp&#45;server&#45;logic</text>
<text text-anchor="middle" x="456" y="-1166.55" font-family="Times,serif" font-size="14.00">(JVM &amp; JS)</text>
</g>
<!-- webappServerLogic&#45;&gt;taskmanApiLogic -->
<g id="edge21" class="edge">
<title>webappServerLogic&#45;&gt;taskmanApiLogic</title>
<path fill="none" stroke="#cc0000" d="M414.27,-1152.7C407.51,-1147.03 401.32,-1140.41 397,-1132.88 349.89,-1050.84 333.47,-771.35 403,-707.18 433.52,-679.02 548.38,-697.8 589,-689.18 831.41,-637.74 1097.5,-496.08 1193.2,-442.1"/>
<polygon fill="#cc0000" stroke="#cc0000" points="1195.21,-444.98 1202.18,-437.01 1191.76,-438.89 1195.21,-444.98"/>
</g>
<!-- webappSsrJvm -->
<g id="node22" class="node">
<title>webappSsrJvm</title>
<ellipse fill="#ffffff" stroke="black" cx="558" cy="-1034.27" rx="69.09" ry="26.74"/>
<text text-anchor="middle" x="558" y="-1038.07" font-family="Times,serif" font-size="14.00">webapp&#45;ssr</text>
<text text-anchor="middle" x="558" y="-1023.07" font-family="Times,serif" font-size="14.00">(JVM)</text>
</g>
<!-- webappServerLogic&#45;&gt;webappSsrJvm -->
<g id="edge23" class="edge">
<title>webappServerLogic&#45;&gt;webappSsrJvm</title>
<path fill="none" stroke="#cc0000" d="M474.47,-1151.13C491.18,-1127.95 515.89,-1093.68 534.1,-1068.42"/>
<polygon fill="#cc0000" stroke="#cc0000" points="537,-1070.39 540.01,-1060.23 531.32,-1066.29 537,-1070.39"/>
</g>
<!-- webappClientPublic -->
<g id="node24" class="node">
<title>webappClientPublic</title>
<ellipse fill="#00ccff" stroke="black" cx="528" cy="-734.05" rx="115.93" ry="26.74"/>
<text text-anchor="middle" x="528" y="-737.85" font-family="Times,serif" font-size="14.00">webapp&#45;client&#45;public</text>
<text text-anchor="middle" x="528" y="-722.85" font-family="Times,serif" font-size="14.00">(JVM &amp; JS)</text>
</g>
<!-- webappServerLogic&#45;&gt;webappClientPublic -->
<g id="edge22" class="edge">
<title>webappServerLogic&#45;&gt;webappClientPublic</title>
<path fill="none" stroke="#cc0000" d="M451.37,-1150.79C438,-1072.65 402.63,-841.23 441,-778.92 444.9,-772.58 450.03,-767.13 455.86,-762.44"/>
<polygon fill="#cc0000" stroke="#cc0000" points="458.06,-765.16 464.17,-756.51 454,-759.46 458.06,-765.16"/>
</g>
<!-- webappBaseTest -->
<g id="node29" class="node">
<title>webappBaseTest</title>
<ellipse fill="white" stroke="blue" cx="579" cy="-629.31" rx="100.32" ry="26.74"/>
<text text-anchor="middle" x="579" y="-633.11" font-family="Times,serif" font-size="14.00">webapp&#45;base&#45;test</text>
<text text-anchor="middle" x="579" y="-618.11" font-family="Times,serif" font-size="14.00">(JVM &amp; JS)</text>
</g>
<!-- webappServerLogic&#45;&gt;webappBaseTest -->
<g id="edge24" class="edge">
<title>webappServerLogic&#45;&gt;webappBaseTest</title>
<path fill="none" stroke="#111111" stroke-dasharray="5,2" d="M436.76,-1151.15C418.23,-1123.92 393,-1078.83 393,-1035.27 393,-1035.27 393,-1035.27 393,-733.05 393,-686.3 438.59,-660.66 484.62,-646.68"/>
<polygon fill="#111111" stroke="#111111" points="485.78,-649.99 494.44,-643.87 483.86,-643.26 485.78,-649.99"/>
<text text-anchor="middle" x="407" y="-873.46" font-family="Times,serif" font-size="14.00">test</text>
</g>
<!-- webappClientWwApi -->
<g id="node19" class="node">
<title>webappClientWwApi</title>
<ellipse fill="#ffffff" stroke="black" cx="993" cy="-1034.27" rx="120.83" ry="26.74"/>
<text text-anchor="middle" x="993" y="-1038.07" font-family="Times,serif" font-size="14.00">webapp&#45;client&#45;ww&#45;api</text>
<text text-anchor="middle" x="993" y="-1023.07" font-family="Times,serif" font-size="14.00">(JS)</text>
</g>
<!-- webappClientWwApi&#45;&gt;webappBaseMember -->
<g id="edge34" class="edge">
<title>webappClientWwApi&#45;&gt;webappBaseMember</title>
<path fill="none" stroke="#cc0000" d="M973.2,-1007.35C959.98,-987.44 945,-958.68 945,-930.53 945,-930.53 945,-930.53 945,-778.92 945,-634.32 804.97,-508.08 731.63,-451.89"/>
<polygon fill="#cc0000" stroke="#cc0000" points="733.55,-448.95 723.46,-445.7 729.33,-454.53 733.55,-448.95"/>
</g>
<!-- webappClientLoaders -->
<g id="node20" class="node">
<title>webappClientLoaders</title>
<ellipse fill="#ffffff" stroke="black" cx="764" cy="-824.79" rx="122.16" ry="26.74"/>
<text text-anchor="middle" x="764" y="-828.59" font-family="Times,serif" font-size="14.00">webapp&#45;client&#45;loaders</text>
<text text-anchor="middle" x="764" y="-813.59" font-family="Times,serif" font-size="14.00">(JS)</text>
</g>
<!-- webappClientLoaders&#45;&gt;webappBaseMember -->
<g id="edge29" class="edge">
<title>webappClientLoaders&#45;&gt;webappBaseMember</title>
<path fill="none" stroke="#cc0000" d="M750.23,-797.77C742.34,-780.48 734,-757.01 734,-735.05 734,-735.05 734,-735.05 734,-523.57 734,-499.28 723.15,-474.35 711.99,-455.13"/>
<polygon fill="#cc0000" stroke="#cc0000" points="714.9,-453.18 706.71,-446.46 708.92,-456.82 714.9,-453.18"/>
</g>
<!-- webappSsrShared -->
<g id="node21" class="node">
<title>webappSsrShared</title>
<ellipse fill="#ffffff" stroke="black" cx="554" cy="-824.79" rx="69.09" ry="26.74"/>
<text text-anchor="middle" x="554" y="-828.59" font-family="Times,serif" font-size="14.00">webapp&#45;ssr</text>
<text text-anchor="middle" x="554" y="-813.59" font-family="Times,serif" font-size="14.00">(JVM &amp; JS)</text>
</g>
<!-- webappSsrShared&#45;&gt;webappBaseMember -->
<g id="edge40" class="edge">
<title>webappSsrShared&#45;&gt;webappBaseMember</title>
<path fill="none" stroke="#cc0000" d="M601.15,-804.93C643.15,-786.62 698,-758.25 698,-735.05 698,-735.05 698,-735.05 698,-523.57 698,-501.39 695.66,-476.65 693.25,-457"/>
<polygon fill="#cc0000" stroke="#cc0000" points="696.7,-456.41 691.95,-446.94 689.76,-457.31 696.7,-456.41"/>
</g>
<!-- webappSsrShared&#45;&gt;webappClientPublic -->
<g id="edge41" class="edge">
<title>webappSsrShared&#45;&gt;webappClientPublic</title>
<path fill="none" stroke="#cc0000" d="M546.34,-797.65C543.88,-789.25 541.11,-779.8 538.49,-770.84"/>
<polygon fill="#cc0000" stroke="#cc0000" points="541.78,-769.62 535.61,-761.01 535.06,-771.59 541.78,-769.62"/>
</g>
<!-- webappSsrJvm&#45;&gt;webappSsrShared -->
<g id="edge42" class="edge">
<title>webappSsrJvm&#45;&gt;webappSsrShared</title>
<path fill="none" stroke="#cc0000" d="M549.05,-1007.3C544.44,-992.57 539.32,-973.68 537,-956.4 533.82,-932.73 534.41,-926.4 537,-902.66 538.49,-889.05 541.42,-874.31 544.43,-861.42"/>
<polygon fill="#cc0000" stroke="#cc0000" points="547.87,-862.08 546.84,-851.53 541.07,-860.42 547.87,-862.08"/>
</g>
<!-- webappSsrJs -->
<g id="node23" class="node">
<title>webappSsrJs</title>
<ellipse fill="#ffffff" stroke="black" cx="615" cy="-929.53" rx="69.09" ry="26.74"/>
<text text-anchor="middle" x="615" y="-933.33" font-family="Times,serif" font-size="14.00">webapp&#45;ssr</text>
<text text-anchor="middle" x="615" y="-918.33" font-family="Times,serif" font-size="14.00">(JS)</text>
</g>
<!-- webappSsrJvm&#45;&gt;webappSsrJs -->
<g id="edge45" class="edge">
<title>webappSsrJvm&#45;&gt;webappSsrJs</title>
<path fill="none" stroke="#111111" stroke-dasharray="5,2" d="M572.09,-1007.87C579.28,-994.91 588.14,-978.95 595.93,-964.9"/>
<polygon fill="#111111" stroke="#111111" points="599.08,-966.43 600.87,-955.99 592.96,-963.04 599.08,-966.43"/>
<text text-anchor="middle" x="598" y="-978.2" font-family="Times,serif" font-size="14.00">JS</text>
</g>
<!-- webappSsrJs&#45;&gt;webappClientLoaders -->
<g id="edge44" class="edge">
<title>webappSsrJs&#45;&gt;webappClientLoaders</title>
<path fill="none" stroke="#cc0000" d="M647.16,-905.38C662.48,-894.44 681.11,-881.26 698,-869.66 704.46,-865.22 711.31,-860.59 718.06,-856.07"/>
<polygon fill="#cc0000" stroke="#cc0000" points="720.15,-858.88 726.52,-850.42 716.26,-853.06 720.15,-858.88"/>
</g>
<!-- webappSsrJs&#45;&gt;webappSsrShared -->
<g id="edge43" class="edge">
<title>webappSsrJs&#45;&gt;webappSsrShared</title>
<path fill="none" stroke="#cc0000" d="M599.92,-903.13C592.22,-890.17 582.75,-874.21 574.4,-860.16"/>
<polygon fill="#cc0000" stroke="#cc0000" points="577.23,-858.06 569.12,-851.25 571.21,-861.64 577.23,-858.06"/>
</g>
<!-- webappClientPublic&#45;&gt;webappBase -->
<g id="edge32" class="edge">
<title>webappClientPublic&#45;&gt;webappBase</title>
<path fill="none" stroke="#cc0000" d="M459.91,-712.18C423.47,-696.34 386,-670.32 386,-630.31 386,-630.31 386,-630.31 386,-418.83 386,-395.13 395,-370.16 404.25,-350.77"/>
<polygon fill="#cc0000" stroke="#cc0000" points="407.42,-352.24 408.76,-341.73 401.16,-349.11 407.42,-352.24"/>
</g>
<!-- webappClientPublic&#45;&gt;webappBaseTest -->
<g id="edge33" class="edge">
<title>webappClientPublic&#45;&gt;webappBaseTest</title>
<path fill="none" stroke="#111111" stroke-dasharray="5,2" d="M540.87,-707.13C547.15,-694.47 554.8,-679.06 561.59,-665.37"/>
<polygon fill="#111111" stroke="#111111" points="564.82,-666.74 566.13,-656.23 558.55,-663.63 564.82,-666.74"/>
<text text-anchor="middle" x="571" y="-677.98" font-family="Times,serif" font-size="14.00">test</text>
</g>
<!-- webappClientHome -->
<g id="node25" class="node">
<title>webappClientHome</title>
<ellipse fill="#00ccff" stroke="black" cx="822" cy="-1106.01" rx="113.27" ry="26.74"/>
<text text-anchor="middle" x="822" y="-1109.81" font-family="Times,serif" font-size="14.00">webapp&#45;client&#45;home</text>
<text text-anchor="middle" x="822" y="-1094.81" font-family="Times,serif" font-size="14.00">(JS)</text>
</g>
<!-- webappClientHome&#45;&gt;webappClientLoaders -->
<g id="edge30" class="edge">
<title>webappClientHome&#45;&gt;webappClientLoaders</title>
<path fill="none" stroke="#cc0000" d="M827.49,-1078.85C838.19,-1025.16 859.08,-904.66 839,-869.66 835.97,-864.38 832.03,-859.67 827.55,-855.49"/>
<polygon fill="#cc0000" stroke="#cc0000" points="829.5,-852.57 819.55,-848.94 825.07,-857.98 829.5,-852.57"/>
</g>
<!-- webappClientHome&#45;&gt;webappBaseTest -->
<g id="edge31" class="edge">
<title>webappClientHome&#45;&gt;webappBaseTest</title>
<path fill="none" stroke="#111111" stroke-dasharray="5,2" d="M823.07,-1078.87C824,-1059.19 825.59,-1031.56 828,-1007.4 834.12,-945.91 808.4,-917.92 847,-869.66 861.23,-851.87 882.02,-870.39 895,-851.66 908.6,-832.03 907.19,-818.46 895,-797.92 846.07,-715.52 741.3,-671.56 665.79,-649.63"/>
<polygon fill="#111111" stroke="#111111" points="666.38,-646.16 655.81,-646.81 664.48,-652.9 666.38,-646.16"/>
<text text-anchor="middle" x="861" y="-873.46" font-family="Times,serif" font-size="14.00">test</text>
</g>
<!-- webappClientWw -->
<g id="node26" class="node">
<title>webappClientWw</title>
<ellipse fill="#00ccff" stroke="black" cx="1011" cy="-1177.75" rx="102.56" ry="26.74"/>
<text text-anchor="middle" x="1011" y="-1181.55" font-family="Times,serif" font-size="14.00">webapp&#45;client&#45;ww</text>
<text text-anchor="middle" x="1011" y="-1166.55" font-family="Times,serif" font-size="14.00">(JS)</text>
</g>
<!-- webappClientWw&#45;&gt;webappClientWwApi -->
<g id="edge35" class="edge">
<title>webappClientWw&#45;&gt;webappClientWwApi</title>
<path fill="none" stroke="#cc0000" d="M1007.7,-1150.8C1004.87,-1128.6 1000.78,-1096.41 997.63,-1071.64"/>
<polygon fill="#cc0000" stroke="#cc0000" points="1001.08,-1071.01 996.34,-1061.54 994.13,-1071.9 1001.08,-1071.01"/>
</g>
<!-- webappClientWw&#45;&gt;webappBaseTest -->
<g id="edge36" class="edge">
<title>webappClientWw&#45;&gt;webappBaseTest</title>
<path fill="none" stroke="#111111" stroke-dasharray="5,2" d="M997.64,-1150.75C984.82,-1128.4 963.37,-1097.02 936,-1079.14 908.02,-1060.86 883.61,-1087.45 863,-1061.14 848.27,-1042.34 859.86,-1031.08 863,-1007.4 875.47,-913.27 933.03,-888.64 905,-797.92 890.58,-751.25 881.26,-737.54 843,-707.18 797.16,-670.8 734.68,-651.63 682.01,-641.54"/>
<polygon fill="#111111" stroke="#111111" points="682.42,-638.06 671.95,-639.7 681.16,-644.94 682.42,-638.06"/>
<text text-anchor="middle" x="924" y="-873.46" font-family="Times,serif" font-size="14.00">test</text>
</g>
<!-- webappClientProject -->
<g id="node27" class="node">
<title>webappClientProject</title>
<ellipse fill="#00ccff" stroke="black" cx="749" cy="-1177.75" rx="120.83" ry="26.74"/>
<text text-anchor="middle" x="749" y="-1181.55" font-family="Times,serif" font-size="14.00">webapp&#45;client&#45;project</text>
<text text-anchor="middle" x="749" y="-1166.55" font-family="Times,serif" font-size="14.00">(JS)</text>
</g>
<!-- webappClientProject&#45;&gt;webappClientWwApi -->
<g id="edge37" class="edge">
<title>webappClientProject&#45;&gt;webappClientWwApi</title>
<path fill="none" stroke="#cc0000" d="M839.94,-1159.94C886.5,-1150.69 935.25,-1139.72 944,-1132.88 963.73,-1117.46 976.15,-1091.97 983.54,-1070.9"/>
<polygon fill="#cc0000" stroke="#cc0000" points="986.91,-1071.88 986.69,-1061.28 980.25,-1069.7 986.91,-1071.88"/>
</g>
<!-- webappClientProject&#45;&gt;webappClientLoaders -->
<g id="edge38" class="edge">
<title>webappClientProject&#45;&gt;webappClientLoaders</title>
<path fill="none" stroke="#cc0000" d="M719.76,-1151.68C714.96,-1146.03 710.68,-1139.67 708,-1132.88 699.23,-1110.66 705.41,-1102.88 708,-1079.14 716.61,-1000.34 739.84,-910.15 753.53,-861.48"/>
<polygon fill="#cc0000" stroke="#cc0000" points="756.93,-862.31 756.3,-851.74 750.2,-860.4 756.93,-862.31"/>
</g>
<!-- webappClientProject&#45;&gt;webappBaseTest -->
<g id="edge39" class="edge">
<title>webappClientProject&#45;&gt;webappBaseTest</title>
<path fill="none" stroke="#111111" stroke-dasharray="5,2" d="M651.19,-1161.85C591,-1147.12 518.29,-1118.09 480,-1061.14 463.68,-1036.87 457.06,-820.21 476,-797.92 527.61,-737.17 601.39,-829.67 653,-768.92 670.77,-748.01 663.26,-732.63 653,-707.18 646.05,-689.95 633.19,-674.42 620.11,-661.9"/>
<polygon fill="#111111" stroke="#111111" points="622.17,-659.04 612.43,-654.89 617.45,-664.21 622.17,-659.04"/>
<text text-anchor="middle" x="479" y="-873.46" font-family="Times,serif" font-size="14.00">test</text>
</g>
<!-- webappServer -->
<g id="node28" class="node">
<title>webappServer</title>
<ellipse fill="#00ccff" stroke="black" cx="646" cy="-1268.49" rx="79.09" ry="18"/>
<text text-anchor="middle" x="646" y="-1264.79" font-family="Times,serif" font-size="14.00">webapp&#45;server</text>
</g>
<!-- webappServer&#45;&gt;taskmanApi -->
<g id="edge46" class="edge">
<title>webappServer&#45;&gt;taskmanApi</title>
<path fill="none" stroke="#cc0000" d="M722.57,-1263.78C881.81,-1255.02 1234,-1229.89 1234,-1178.75 1234,-1178.75 1234,-1178.75 1234,-628.31 1234,-619.31 1336.28,-571.77 1396.35,-544.62"/>
<polygon fill="#cc0000" stroke="#cc0000" points="1397.93,-547.75 1405.61,-540.44 1395.05,-541.36 1397.93,-547.75"/>
</g>
<!-- webappServer&#45;&gt;webappServerLogic -->
<g id="edge47" class="edge">
<title>webappServer&#45;&gt;webappServerLogic</title>
<path fill="none" stroke="#cc0000" d="M612.9,-1252.03C586,-1239.47 547.37,-1221.43 515.17,-1206.39"/>
<polygon fill="#cc0000" stroke="#cc0000" points="516.38,-1203.09 505.84,-1202.03 513.42,-1209.43 516.38,-1203.09"/>
</g>
<!-- webappServer&#45;&gt;webappClientPublic -->
<g id="edge48" class="edge">
<title>webappServer&#45;&gt;webappClientPublic</title>
<path fill="none" stroke="#cc0000" stroke-dasharray="5,2" d="M634.02,-1250.61C628.4,-1242.53 621.71,-1232.68 616,-1223.62 610.8,-1215.37 609.57,-1213.24 605,-1204.62 592.57,-1181.18 600.27,-1166.74 579,-1150.88 538.93,-1121.02 501.67,-1169.82 468,-1132.88 442.92,-1105.37 443.88,-830.98 461,-797.92 466.96,-786.41 475.89,-775.87 485.3,-766.85"/>
<polygon fill="#cc0000" stroke="#cc0000" points="487.85,-769.26 492.91,-759.94 483.15,-764.07 487.85,-769.26"/>
</g>
<!-- webappServer&#45;&gt;webappClientHome -->
<g id="edge49" class="edge">
<title>webappServer&#45;&gt;webappClientHome</title>
<path fill="none" stroke="#cc0000" stroke-dasharray="5,2" d="M634.06,-1250.46C618.4,-1225.82 595.51,-1179.99 619,-1150.88 631.24,-1135.72 669.33,-1125.54 709.26,-1118.84"/>
<polygon fill="#cc0000" stroke="#cc0000" points="709.84,-1122.29 719.16,-1117.25 708.74,-1115.38 709.84,-1122.29"/>
</g>
<!-- webappServer&#45;&gt;webappClientWw -->
<g id="edge51" class="edge">
<title>webappServer&#45;&gt;webappClientWw</title>
<path fill="none" stroke="#cc0000" stroke-dasharray="5,2" d="M697.91,-1254.87C757.78,-1240.32 857.02,-1216.19 927.72,-1199"/>
<polygon fill="#cc0000" stroke="#cc0000" points="928.61,-1202.38 937.5,-1196.62 926.96,-1195.58 928.61,-1202.38"/>
</g>
<!-- webappServer&#45;&gt;webappClientProject -->
<g id="edge50" class="edge">
<title>webappServer&#45;&gt;webappClientProject</title>
<path fill="none" stroke="#cc0000" stroke-dasharray="5,2" d="M665.37,-1250.8C678.38,-1239.6 695.93,-1224.48 711.59,-1210.98"/>
<polygon fill="#cc0000" stroke="#cc0000" points="714.29,-1213.28 719.58,-1204.1 709.72,-1207.98 714.29,-1213.28"/>
</g>
<!-- webappBaseTest&#45;&gt;baseTest -->
<g id="edge26" class="edge">
<title>webappBaseTest&#45;&gt;baseTest</title>
<path fill="none" stroke="#111111" d="M677.67,-623.77C924.87,-612.11 1553.86,-580.53 1594,-559.44 1637.38,-536.65 1669.4,-488.45 1687.38,-455.35"/>
<polygon fill="#111111" stroke="#111111" points="1690.51,-456.93 1692.08,-446.45 1684.32,-453.66 1690.51,-456.93"/>
</g>
<!-- webappBaseTest&#45;&gt;webappBaseMember -->
<g id="edge27" class="edge">
<title>webappBaseTest&#45;&gt;webappBaseMember</title>
<path fill="none" stroke="#111111" d="M622.26,-604.78C639.22,-593.33 657.18,-578.01 668,-559.44 686.21,-528.2 690.01,-486.47 690,-456.99"/>
<polygon fill="#111111" stroke="#111111" points="693.5,-456.67 689.84,-446.72 686.5,-456.77 693.5,-456.67"/>
</g>
<!-- webappBaseTest&#45;&gt;webappSampleData -->
<g id="edge28" class="edge">
<title>webappBaseTest&#45;&gt;webappSampleData</title>
<path fill="none" stroke="#111111" d="M570.93,-602.39C567.06,-589.97 562.37,-574.91 558.17,-561.42"/>
<polygon fill="#111111" stroke="#111111" points="561.39,-559.99 555.07,-551.49 554.7,-562.08 561.39,-559.99"/>
<text text-anchor="middle" x="580" y="-573.24" font-family="Times,serif" font-size="14.00">JVM</text>
</g>
<!-- webapp -->
<g id="node30" class="node">
<title>webapp</title>
<ellipse fill="#ffff80" stroke="blue" cx="885" cy="-1359.23" rx="70.92" ry="26.74"/>
<text text-anchor="middle" x="885" y="-1363.03" font-family="Times,serif" font-size="14.00">[aggregate]</text>
<text text-anchor="middle" x="885" y="-1348.03" font-family="Times,serif" font-size="14.00">webapp</text>
</g>
<!-- webapp&#45;&gt;webappClientHome -->
<g id="edge62" class="edge">
<title>webapp&#45;&gt;webappClientHome</title>
<path fill="none" stroke="#aaaaaa" stroke-dasharray="5,2" d="M890.99,-1332.26C899.04,-1291.2 909.12,-1209.9 879,-1150.88 876.74,-1146.46 873.81,-1142.35 870.47,-1138.56"/>
<polygon fill="#aaaaaa" stroke="#aaaaaa" points="863.11,-1131.25 873.38,-1135.11 866.66,-1134.78 870.2,-1138.3 870.2,-1138.3 870.2,-1138.3 866.66,-1134.78 867.03,-1141.49 863.11,-1131.25 863.11,-1131.25"/>
</g>
<!-- webapp&#45;&gt;webappClientWw -->
<g id="edge64" class="edge">
<title>webapp&#45;&gt;webappClientWw</title>
<path fill="none" stroke="#aaaaaa" stroke-dasharray="5,2" d="M902.79,-1332.9C924.86,-1301.45 962.59,-1247.71 987.16,-1212.71"/>
<polygon fill="#aaaaaa" stroke="#aaaaaa" points="993.1,-1204.25 991.04,-1215.02 990.23,-1208.34 987.36,-1212.43 987.36,-1212.43 987.36,-1212.43 990.23,-1208.34 983.67,-1209.85 993.1,-1204.25 993.1,-1204.25"/>
</g>
<!-- webapp&#45;&gt;webappClientProject -->
<g id="edge61" class="edge">
<title>webapp&#45;&gt;webappClientProject</title>
<path fill="none" stroke="#aaaaaa" stroke-dasharray="5,2" d="M866.09,-1333.28C842.24,-1301.8 801.13,-1247.55 774.51,-1212.42"/>
<polygon fill="#aaaaaa" stroke="#aaaaaa" points="768.41,-1204.37 778.03,-1209.62 771.43,-1208.35 774.45,-1212.34 774.45,-1212.34 774.45,-1212.34 771.43,-1208.35 770.86,-1215.05 768.41,-1204.37 768.41,-1204.37"/>
</g>
<!-- webapp&#45;&gt;webappServer -->
<g id="edge63" class="edge">
<title>webapp&#45;&gt;webappServer</title>
<path fill="none" stroke="#aaaaaa" stroke-dasharray="5,2" d="M835.48,-1339.84C794.34,-1324.57 736.12,-1302.95 695.1,-1287.72"/>
<polygon fill="#aaaaaa" stroke="#aaaaaa" points="685.58,-1284.19 696.52,-1283.45 690.27,-1285.93 694.96,-1287.67 694.96,-1287.67 694.96,-1287.67 690.27,-1285.93 693.39,-1291.89 685.58,-1284.19 685.58,-1284.19"/>
</g>
<!-- benchmark -->
<g id="node31" class="node">
<title>benchmark</title>
<ellipse fill="#ffffdd" stroke="black" cx="247" cy="-1449.97" rx="70.92" ry="26.74"/>
<text text-anchor="middle" x="247" y="-1453.77" font-family="Times,serif" font-size="14.00">[aggregate]</text>
<text text-anchor="middle" x="247" y="-1438.77" font-family="Times,serif" font-size="14.00">benchmark</text>
</g>
<!-- benchmarkJvm -->
<g id="node32" class="node">
<title>benchmarkJvm</title>
<ellipse fill="#ffcccc" stroke="black" cx="96" cy="-1359.23" rx="67.76" ry="26.74"/>
<text text-anchor="middle" x="96" y="-1363.03" font-family="Times,serif" font-size="14.00">benchmark</text>
<text text-anchor="middle" x="96" y="-1348.03" font-family="Times,serif" font-size="14.00">JVM</text>
</g>
<!-- benchmark&#45;&gt;benchmarkJvm -->
<g id="edge69" class="edge">
<title>benchmark&#45;&gt;benchmarkJvm</title>
<path fill="none" stroke="#aaaaaa" stroke-dasharray="5,2" d="M209.67,-1427.04C189.1,-1414.95 163.4,-1399.84 141.64,-1387.05"/>
<polygon fill="#aaaaaa" stroke="#aaaaaa" points="132.9,-1381.92 143.8,-1383.1 137.21,-1384.45 141.52,-1386.98 141.52,-1386.98 141.52,-1386.98 137.21,-1384.45 139.24,-1390.86 132.9,-1381.92 132.9,-1381.92"/>
</g>
<!-- benchmarkJs -->
<g id="node33" class="node">
<title>benchmarkJs</title>
<ellipse fill="#ffcccc" stroke="black" cx="250" cy="-1359.23" rx="67.76" ry="26.74"/>
<text text-anchor="middle" x="250" y="-1363.03" font-family="Times,serif" font-size="14.00">benchmark</text>
<text text-anchor="middle" x="250" y="-1348.03" font-family="Times,serif" font-size="14.00">JS</text>
</g>
<!-- benchmark&#45;&gt;benchmarkJs -->
<g id="edge70" class="edge">
<title>benchmark&#45;&gt;benchmarkJs</title>
<path fill="none" stroke="#aaaaaa" stroke-dasharray="5,2" d="M247.88,-1422.83C248.16,-1414.52 248.48,-1405.19 248.78,-1396.31"/>
<polygon fill="#aaaaaa" stroke="#aaaaaa" points="249.12,-1386.19 253.28,-1396.34 248.95,-1391.19 248.78,-1396.18 248.78,-1396.18 248.78,-1396.18 248.95,-1391.19 244.29,-1396.03 249.12,-1386.19 249.12,-1386.19"/>
</g>
<!-- benchmarkJvm&#45;&gt;webappServer -->
<g id="edge56" class="edge">
<title>benchmarkJvm&#45;&gt;webappServer</title>
<path fill="none" stroke="#cc0000" d="M144.47,-1340.38C153.85,-1337.37 163.66,-1334.53 173,-1332.36 307.11,-1301.22 466.44,-1284.02 561.72,-1275.78"/>
<polygon fill="#cc0000" stroke="#cc0000" points="562.21,-1279.25 571.88,-1274.91 561.62,-1272.28 562.21,-1279.25"/>
</g>
<!-- benchmarkShared -->
<g id="node34" class="node">
<title>benchmarkShared</title>
<ellipse fill="#ffcccc" stroke="black" cx="250" cy="-1268.49" rx="67.76" ry="26.74"/>
<text text-anchor="middle" x="250" y="-1272.29" font-family="Times,serif" font-size="14.00">benchmark</text>
<text text-anchor="middle" x="250" y="-1257.29" font-family="Times,serif" font-size="14.00">(shared)</text>
</g>
<!-- benchmarkJvm&#45;&gt;benchmarkShared -->
<g id="edge54" class="edge">
<title>benchmarkJvm&#45;&gt;benchmarkShared</title>
<path fill="none" stroke="#cc0000" d="M133.28,-1336.75C154.5,-1324.52 181.26,-1309.1 203.8,-1296.11"/>
<polygon fill="#cc0000" stroke="#cc0000" points="205.61,-1299.11 212.53,-1291.08 202.12,-1293.04 205.61,-1299.11"/>
</g>
<!-- benchmarkJs&#45;&gt;webappClientProject -->
<g id="edge57" class="edge">
<title>benchmarkJs&#45;&gt;webappClientProject</title>
<path fill="none" stroke="#cc0000" d="M294.08,-1338.7C353.37,-1312.81 462.43,-1266.58 558,-1233.62 591.99,-1221.9 629.96,-1210.63 663.03,-1201.38"/>
<polygon fill="#cc0000" stroke="#cc0000" points="663.98,-1204.75 672.68,-1198.71 662.1,-1198.01 663.98,-1204.75"/>
</g>
<!-- benchmarkJs&#45;&gt;benchmarkShared -->
<g id="edge55" class="edge">
<title>benchmarkJs&#45;&gt;benchmarkShared</title>
<path fill="none" stroke="#cc0000" d="M250,-1332.09C250,-1323.78 250,-1314.45 250,-1305.57"/>
<polygon fill="#cc0000" stroke="#cc0000" points="253.5,-1305.45 250,-1295.45 246.5,-1305.45 253.5,-1305.45"/>
</g>
<!-- benchmarkShared&#45;&gt;webappSampleData -->
<g id="edge52" class="edge">
<title>benchmarkShared&#45;&gt;webappSampleData</title>
<path fill="none" stroke="#cc0000" d="M253.13,-1241.52C255,-1223.85 257,-1199.92 257,-1178.75 257,-1178.75 257,-1178.75 257,-628.31 257,-587.31 361.28,-558.54 444.77,-542.07"/>
<polygon fill="#cc0000" stroke="#cc0000" points="445.69,-545.46 454.84,-540.13 444.36,-538.59 445.69,-545.46"/>
</g>
<!-- benchmarkShared&#45;&gt;webappBaseTest -->
<g id="edge53" class="edge">
<title>benchmarkShared&#45;&gt;webappBaseTest</title>
<path fill="none" stroke="#cc0000" d="M276.62,-1243.41C291.87,-1226.92 308,-1203.6 308,-1178.75 308,-1178.75 308,-1178.75 308,-733.05 308,-693.79 408.73,-664.21 487.36,-647.1"/>
<polygon fill="#cc0000" stroke="#cc0000" points="488.27,-650.49 497.32,-644.98 486.81,-643.64 488.27,-650.49"/>
</g>
<!-- utils -->
<g id="node35" class="node">
<title>utils</title>
<ellipse fill="#ffffdd" stroke="black" cx="93" cy="-1449.97" rx="31.4" ry="18"/>
<text text-anchor="middle" x="93" y="-1446.27" font-family="Times,serif" font-size="14.00">utils</text>
</g>
<!-- utils&#45;&gt;webappBase -->
<g id="edge58" class="edge">
<title>utils&#45;&gt;webappBase</title>
<path fill="none" stroke="#cc0000" d="M68.57,-1438.5C41.01,-1424.85 0,-1398.17 0,-1360.23 0,-1360.23 0,-1360.23 0,-418.83 0,-350.23 212.32,-327.27 336.47,-319.71"/>
<polygon fill="#cc0000" stroke="#cc0000" points="336.95,-323.19 346.72,-319.11 336.54,-316.2 336.95,-323.19"/>
</g>
<!-- root -->
<g id="node36" class="node">
<title>root</title>
<ellipse fill="#cccccc" stroke="black" cx="885" cy="-1540.71" rx="70.92" ry="26.74"/>
<text text-anchor="middle" x="885" y="-1544.51" font-family="Times,serif" font-size="14.00">[aggregate]</text>
<text text-anchor="middle" x="885" y="-1529.51" font-family="Times,serif" font-size="14.00">root</text>
</g>
<!-- root&#45;&gt;base -->
<g id="edge71" class="edge">
<title>root&#45;&gt;base</title>
<path fill="none" stroke="#aaaaaa" stroke-dasharray="5,2" d="M955.81,-1539.72C1160.26,-1538.8 1737,-1529.28 1737,-1450.97 1737,-1450.97 1737,-1450.97 1737,-628.31 1737,-590.05 1772.09,-563.82 1805.8,-547.44"/>
<polygon fill="#aaaaaa" stroke="#aaaaaa" points="1815.25,-543.08 1808.05,-551.35 1810.71,-545.17 1806.17,-547.27 1806.17,-547.27 1806.17,-547.27 1810.71,-545.17 1804.28,-543.18 1815.25,-543.08 1815.25,-543.08"/>
</g>
<!-- root&#45;&gt;taskman -->
<g id="edge73" class="edge">
<title>root&#45;&gt;taskman</title>
<path fill="none" stroke="#aaaaaa" stroke-dasharray="5,2" d="M955.74,-1539.03C1074.71,-1535.95 1302,-1520.92 1302,-1450.97 1302,-1450.97 1302,-1450.97 1302,-823.79 1302,-804.96 1308.9,-785.36 1316.58,-769.38"/>
<polygon fill="#aaaaaa" stroke="#aaaaaa" points="1321.14,-760.42 1320.61,-771.37 1318.87,-764.88 1316.6,-769.33 1316.6,-769.33 1316.6,-769.33 1318.87,-764.88 1312.59,-767.29 1321.14,-760.42 1321.14,-760.42"/>
</g>
<!-- root&#45;&gt;webapp -->
<g id="edge72" class="edge">
<title>root&#45;&gt;webapp</title>
<path fill="none" stroke="#aaaaaa" stroke-dasharray="5,2" d="M885,-1513.61C885,-1482.78 885,-1431.28 885,-1396.56"/>
<polygon fill="#aaaaaa" stroke="#aaaaaa" points="885,-1386.36 889.5,-1396.36 885,-1391.36 885,-1396.36 885,-1396.36 885,-1396.36 885,-1391.36 880.5,-1396.36 885,-1386.36 885,-1386.36"/>
</g>
<!-- root&#45;&gt;benchmark -->
<g id="edge74" class="edge">
<title>root&#45;&gt;benchmark</title>
<path fill="none" stroke="#aaaaaa" stroke-dasharray="5,2" d="M819.42,-1530.59C700.23,-1514.01 448.74,-1479.03 322.56,-1461.48"/>
<polygon fill="#aaaaaa" stroke="#aaaaaa" points="312.59,-1460.09 323.11,-1457.02 317.54,-1460.78 322.49,-1461.47 322.49,-1461.47 322.49,-1461.47 317.54,-1460.78 321.87,-1465.93 312.59,-1460.09 312.59,-1460.09"/>
</g>
<!-- root&#45;&gt;utils -->
<g id="edge75" class="edge">
<title>root&#45;&gt;utils</title>
<path fill="none" stroke="#aaaaaa" stroke-dasharray="5,2" d="M814.63,-1537.48C658.65,-1532.03 288.12,-1516.12 167,-1484.84 152.03,-1480.98 136.33,-1474.22 123.27,-1467.76"/>
<polygon fill="#aaaaaa" stroke="#aaaaaa" points="114.27,-1463.15 125.22,-1463.71 118.72,-1465.43 123.17,-1467.71 123.17,-1467.71 123.17,-1467.71 118.72,-1465.43 121.12,-1471.72 114.27,-1463.15 114.27,-1463.15"/>
</g>
</g>
</svg>
