<?xml version="1.0" encoding="UTF-8" standalone="no"?>
<!DOCTYPE svg PUBLIC "-//W3C//DTD SVG 1.1//EN"
 "http://www.w3.org/Graphics/SVG/1.1/DTD/svg11.dtd">
<!-- Generated by graphviz version 2.38.0 (20140413.2041)
 -->
<!-- Title: G Pages: 1 -->
<svg width="2194pt" height="1273pt"
 viewBox="0.00 0.00 2194.00 1273.36" xmlns="http://www.w3.org/2000/svg" xmlns:xlink="http://www.w3.org/1999/xlink">
<g id="graph0" class="graph" transform="scale(1 1) rotate(0) translate(4 1269.36)">
<title>G</title>
<polygon fill="white" stroke="none" points="-4,4 -4,-1269.36 2190,-1269.36 2190,4 -4,4"/>
<g id="clust1" class="cluster"><title>cluster_base</title>
<polygon fill="#f4fff4" stroke="black" points="1866,-804.661 1866,-1257.36 2090,-1257.36 2090,-804.661 1866,-804.661"/>
</g>
<g id="clust2" class="cluster"><title>cluster_t</title>
<polygon fill="#eeeeff" stroke="black" points="426,-171.48 426,-1077.88 1858,-1077.88 1858,-171.48 426,-171.48"/>
</g>
<g id="clust3" class="cluster"><title>cluster_ts</title>
<polygon fill="white" stroke="black" points="434,-270.22 434,-565.311 930,-565.311 930,-270.22 434,-270.22"/>
</g>
<g id="clust4" class="cluster"><title>cluster_ta</title>
<polygon fill="white" stroke="black" points="1632,-360.96 1632,-670.051 1850,-670.051 1850,-360.96 1632,-360.96"/>
</g>
<g id="clust5" class="cluster"><title>cluster_w</title>
<polygon fill="white" stroke="black" points="938,-179.48 938,-1069.88 1624,-1069.88 1624,-179.48 938,-179.48"/>
</g>
<g id="clust6" class="cluster"><title>cluster_supp</title>
<polygon fill="#fff2f2" stroke="black" points="58,-82.7401 58,-339.96 418,-339.96 418,-82.7401 58,-82.7401"/>
</g>
<!-- base -->
<g id="node1" class="node"><title>base</title>
<ellipse fill="#cccccc" stroke="black" cx="1945" cy="-839.531" rx="70.922" ry="26.7407"/>
<text text-anchor="middle" x="1945" y="-843.331" font-family="Times,serif" font-size="14.00">[aggregate]</text>
<text text-anchor="middle" x="1945" y="-828.331" font-family="Times,serif" font-size="14.00">base</text>
</g>
<!-- baseMacro -->
<g id="node2" class="node"><title>baseMacro</title>
<ellipse fill="#bbffbb" stroke="black" cx="1953" cy="-1222.49" rx="73.5782" ry="26.7407"/>
<text text-anchor="middle" x="1953" y="-1226.29" font-family="Times,serif" font-size="14.00">base&#45;macro</text>
<text text-anchor="middle" x="1953" y="-1211.29" font-family="Times,serif" font-size="14.00">(Scala &amp; JS)</text>
</g>
<!-- base&#45;&gt;baseMacro -->
<g id="edge65" class="edge"><title>base&#45;&gt;baseMacro</title>
<path fill="none" stroke="#aaaaaa" stroke-dasharray="5,2" d="M1912.87,-863.511C1894.47,-879.552 1875,-902.781 1875,-929.271 1875,-929.271 1875,-929.271 1875,-1132.75 1875,-1156.59 1891.07,-1177.07 1908.62,-1192.33"/>
<polygon fill="#aaaaaa" stroke="#aaaaaa" points="1916.74,-1198.97 1906.15,-1196.12 1912.87,-1195.8 1909,-1192.64 1909,-1192.64 1909,-1192.64 1912.87,-1195.8 1911.85,-1189.15 1916.74,-1198.97 1916.74,-1198.97"/>
</g>
<!-- baseUtil -->
<g id="node3" class="node"><title>baseUtil</title>
<ellipse fill="#bbffbb" stroke="black" cx="1968" cy="-1131.75" rx="73.5782" ry="26.7407"/>
<text text-anchor="middle" x="1968" y="-1135.55" font-family="Times,serif" font-size="14.00">base&#45;util</text>
<text text-anchor="middle" x="1968" y="-1120.55" font-family="Times,serif" font-size="14.00">(Scala &amp; JS)</text>
</g>
<!-- base&#45;&gt;baseUtil -->
<g id="edge62" class="edge"><title>base&#45;&gt;baseUtil</title>
<path fill="none" stroke="#aaaaaa" stroke-dasharray="5,2" d="M1924.48,-865.521C1916.78,-876.455 1908.94,-889.862 1905,-903.401 1898.32,-926.333 1900.86,-933.618 1905,-957.141 1913.78,-1007.08 1935.75,-1061.57 1951.27,-1095.93"/>
<polygon fill="#aaaaaa" stroke="#aaaaaa" points="1955.46,-1105.07 1947.2,-1097.85 1953.37,-1100.52 1951.29,-1095.97 1951.29,-1095.97 1951.29,-1095.97 1953.37,-1100.52 1955.38,-1094.1 1955.46,-1105.07 1955.46,-1105.07"/>
</g>
<!-- baseDb -->
<g id="node4" class="node"><title>baseDb</title>
<ellipse fill="#bbffbb" stroke="black" cx="2031" cy="-1035.01" rx="50.8235" ry="26.7407"/>
<text text-anchor="middle" x="2031" y="-1038.81" font-family="Times,serif" font-size="14.00">base&#45;db</text>
<text text-anchor="middle" x="2031" y="-1023.81" font-family="Times,serif" font-size="14.00">(JVM)</text>
</g>
<!-- base&#45;&gt;baseDb -->
<g id="edge63" class="edge"><title>base&#45;&gt;baseDb</title>
<path fill="none" stroke="#aaaaaa" stroke-dasharray="5,2" d="M2002.7,-855.214C2027.9,-864.698 2055.25,-879.818 2071,-903.401 2092.44,-935.514 2091,-954.56 2076,-990.141 2073.72,-995.551 2070.41,-1000.63 2066.6,-1005.27"/>
<polygon fill="#aaaaaa" stroke="#aaaaaa" points="2059.82,-1012.65 2063.27,-1002.24 2063.2,-1008.97 2066.59,-1005.28 2066.59,-1005.28 2066.59,-1005.28 2063.2,-1008.97 2069.9,-1008.33 2059.82,-1012.65 2059.82,-1012.65"/>
</g>
<!-- baseTest -->
<g id="node5" class="node"><title>baseTest</title>
<ellipse fill="white" stroke="darkgreen" cx="1988" cy="-930.271" rx="73.5782" ry="26.7407"/>
<text text-anchor="middle" x="1988" y="-934.071" font-family="Times,serif" font-size="14.00">base&#45;test</text>
<text text-anchor="middle" x="1988" y="-919.071" font-family="Times,serif" font-size="14.00">(Scala &amp; JS)</text>
</g>
<!-- base&#45;&gt;baseTest -->
<g id="edge64" class="edge"><title>base&#45;&gt;baseTest</title>
<path fill="none" stroke="#aaaaaa" stroke-dasharray="5,2" d="M1957.44,-866.198C1961.72,-875.028 1966.58,-885.068 1971.15,-894.5"/>
<polygon fill="#aaaaaa" stroke="#aaaaaa" points="1975.59,-903.662 1967.18,-896.625 1973.41,-899.162 1971.23,-894.662 1971.23,-894.662 1971.23,-894.662 1973.41,-899.162 1975.28,-892.7 1975.59,-903.662 1975.59,-903.662"/>
</g>
<!-- baseUtil&#45;&gt;baseMacro -->
<g id="edge1" class="edge"><title>baseUtil&#45;&gt;baseMacro</title>
<path fill="none" stroke="#cc0000" d="M1963.58,-1158.9C1962.18,-1167.2 1960.6,-1176.54 1959.1,-1185.41"/>
<polygon fill="#cc0000" stroke="#cc0000" points="1955.6,-1185.09 1957.39,-1195.53 1962.51,-1186.26 1955.6,-1185.09"/>
</g>
<!-- baseDb&#45;&gt;baseUtil -->
<g id="edge2" class="edge"><title>baseDb&#45;&gt;baseUtil</title>
<path fill="none" stroke="#cc0000" d="M2014.45,-1060.9C2007.11,-1071.93 1998.37,-1085.08 1990.46,-1096.97"/>
<polygon fill="#cc0000" stroke="#cc0000" points="1987.5,-1095.1 1984.88,-1105.37 1993.33,-1098.98 1987.5,-1095.1"/>
</g>
<!-- baseTest&#45;&gt;baseUtil -->
<g id="edge3" class="edge"><title>baseTest&#45;&gt;baseUtil</title>
<path fill="none" stroke="#111111" d="M1981,-957.03C1977.3,-971.857 1973.1,-990.91 1971,-1008.14 1967.48,-1037.05 1966.87,-1070.06 1967.06,-1094.55"/>
<polygon fill="#111111" stroke="#111111" points="1963.56,-1094.86 1967.19,-1104.81 1970.56,-1094.77 1963.56,-1094.86"/>
</g>
<!-- baseTest&#45;&gt;baseDb -->
<g id="edge4" class="edge"><title>baseTest&#45;&gt;baseDb</title>
<path fill="none" stroke="#111111" stroke-dasharray="5,2" d="M1998.39,-957.112C2002.57,-967.409 2007.47,-979.356 2012,-990.141 2013.25,-993.125 2014.57,-996.218 2015.89,-999.318"/>
<polygon fill="#111111" stroke="#111111" points="2012.69,-1000.73 2019.86,-1008.53 2019.12,-997.964 2012.69,-1000.73"/>
<text text-anchor="middle" x="2044" y="-978.941" font-family="Times,serif" font-size="14.00">provided</text>
</g>
<!-- taskmanDb -->
<g id="node6" class="node"><title>taskmanDb</title>
<ellipse fill="#aaaaff" stroke="black" cx="800" cy="-539.311" rx="122.379" ry="18"/>
<text text-anchor="middle" x="800" y="-535.611" font-family="Times,serif" font-size="14.00">taskman&#45;server&#45;schema</text>
</g>
<!-- taskmanDb&#45;&gt;baseDb -->
<g id="edge5" class="edge"><title>taskmanDb&#45;&gt;baseDb</title>
<path fill="none" stroke="#cc0000" d="M863.059,-554.789C885.348,-559.293 910.673,-563.719 934,-566.181 984.839,-571.546 1808.31,-561.241 1854,-584.181 2010.27,-662.648 2037.48,-734.838 2084,-903.401 2094.26,-940.565 2099.77,-955.428 2083,-990.141 2080,-996.358 2075.65,-1002.02 2070.74,-1007.06"/>
<polygon fill="#cc0000" stroke="#cc0000" points="2068.2,-1004.64 2063.22,-1013.99 2072.94,-1009.79 2068.2,-1004.64"/>
</g>
<!-- taskmanServerImpl -->
<g id="node7" class="node"><title>taskmanServerImpl</title>
<ellipse fill="#aaaaff" stroke="black" cx="677" cy="-395.831" rx="106.681" ry="18"/>
<text text-anchor="middle" x="677" y="-392.131" font-family="Times,serif" font-size="14.00">taskman&#45;server&#45;impl</text>
</g>
<!-- taskmanServerImpl&#45;&gt;taskmanDb -->
<g id="edge16" class="edge"><title>taskmanServerImpl&#45;&gt;taskmanDb</title>
<path fill="none" stroke="#cc0000" d="M691.837,-413.896C713.446,-438.753 753.702,-485.057 778.542,-513.629"/>
<polygon fill="#cc0000" stroke="#cc0000" points="775.908,-515.934 785.111,-521.184 781.191,-511.341 775.908,-515.934"/>
</g>
<!-- taskmanServerLogic -->
<g id="node8" class="node"><title>taskmanServerLogic</title>
<ellipse fill="#aaaaff" stroke="black" cx="551" cy="-539.311" rx="108.581" ry="18"/>
<text text-anchor="middle" x="551" y="-535.611" font-family="Times,serif" font-size="14.00">taskman&#45;server&#45;logic</text>
</g>
<!-- taskmanServerImpl&#45;&gt;taskmanServerLogic -->
<g id="edge14" class="edge"><title>taskmanServerImpl&#45;&gt;taskmanServerLogic</title>
<path fill="none" stroke="#cc0000" d="M661.801,-413.896C639.665,-438.753 598.427,-485.057 572.982,-513.629"/>
<polygon fill="#cc0000" stroke="#cc0000" points="570.289,-511.389 566.252,-521.184 575.517,-516.044 570.289,-511.389"/>
</g>
<!-- taskmanApi -->
<g id="node10" class="node"><title>taskmanApi</title>
<ellipse fill="#cccccc" stroke="black" cx="1714" cy="-395.831" rx="73.5782" ry="26.7407"/>
<text text-anchor="middle" x="1714" y="-399.631" font-family="Times,serif" font-size="14.00">[aggregate]</text>
<text text-anchor="middle" x="1714" y="-384.631" font-family="Times,serif" font-size="14.00">taskman&#45;api</text>
</g>
<!-- taskmanServerImpl&#45;&gt;taskmanApi -->
<g id="edge15" class="edge"><title>taskmanServerImpl&#45;&gt;taskmanApi</title>
<path fill="none" stroke="#cc0000" d="M742.194,-381.542C795.803,-370.56 873.913,-356.31 943,-350.46 1017.84,-344.123 1545.75,-333.866 1619,-350.46 1635.24,-354.139 1651.95,-360.944 1666.74,-368.185"/>
<polygon fill="#cc0000" stroke="#cc0000" points="1665.18,-371.318 1675.68,-372.726 1668.35,-365.077 1665.18,-371.318"/>
</g>
<!-- taskmanApiLogic -->
<g id="node12" class="node"><title>taskmanApiLogic</title>
<ellipse fill="#cceeff" stroke="black" cx="1733" cy="-644.051" rx="92.8835" ry="18"/>
<text text-anchor="middle" x="1733" y="-640.351" font-family="Times,serif" font-size="14.00">taskman&#45;api&#45;logic</text>
</g>
<!-- taskmanServerLogic&#45;&gt;taskmanApiLogic -->
<g id="edge13" class="edge"><title>taskmanServerLogic&#45;&gt;taskmanApiLogic</title>
<path fill="none" stroke="#cc0000" d="M610.215,-554.409C628.947,-558.568 649.776,-562.884 669,-566.181 785.979,-586.244 815.645,-590.298 934,-599.181 1241.68,-622.273 1322.21,-576.035 1628,-617.181 1643.04,-619.205 1659.06,-622.53 1673.93,-626.134"/>
<polygon fill="#cc0000" stroke="#cc0000" points="1673.46,-629.625 1684.01,-628.66 1675.16,-622.835 1673.46,-629.625"/>
</g>
<!-- taskmanServer -->
<g id="node9" class="node"><title>taskmanServer</title>
<ellipse fill="#cccccc" stroke="black" cx="677" cy="-305.09" rx="90.5193" ry="26.7407"/>
<text text-anchor="middle" x="677" y="-308.89" font-family="Times,serif" font-size="14.00">[aggregate]</text>
<text text-anchor="middle" x="677" y="-293.89" font-family="Times,serif" font-size="14.00">taskman&#45;server</text>
</g>
<!-- taskmanServer&#45;&gt;taskmanDb -->
<g id="edge55" class="edge"><title>taskmanServer&#45;&gt;taskmanDb</title>
<path fill="none" stroke="#aaaaaa" stroke-dasharray="5,2" d="M743.994,-323.346C762.941,-331.582 781.511,-343.585 793,-360.96 823.086,-406.462 814.91,-473.84 807.002,-511.081"/>
<polygon fill="#aaaaaa" stroke="#aaaaaa" points="804.705,-521.178 802.535,-510.429 805.814,-516.303 806.923,-511.427 806.923,-511.427 806.923,-511.427 805.814,-516.303 811.311,-512.425 804.705,-521.178 804.705,-521.178"/>
</g>
<!-- taskmanServer&#45;&gt;taskmanServerImpl -->
<g id="edge17" class="edge"><title>taskmanServer&#45;&gt;taskmanServerImpl</title>
<path fill="none" stroke="#cc0000" d="M670.784,-332.235C670.093,-343.393 670.073,-356.413 670.724,-367.679"/>
<polygon fill="#cc0000" stroke="#cc0000" points="667.25,-368.144 671.554,-377.826 674.227,-367.573 667.25,-368.144"/>
</g>
<!-- taskmanServer&#45;&gt;taskmanServerImpl -->
<g id="edge54" class="edge"><title>taskmanServer&#45;&gt;taskmanServerImpl</title>
<path fill="none" stroke="#aaaaaa" stroke-dasharray="5,2" d="M683.216,-332.235C683.907,-343.393 683.927,-356.413 683.276,-367.679"/>
<polygon fill="#aaaaaa" stroke="#aaaaaa" points="682.446,-377.826 678.777,-367.492 682.854,-372.842 683.262,-367.859 683.262,-367.859 683.262,-367.859 682.854,-372.842 687.747,-368.226 682.446,-377.826 682.446,-377.826"/>
</g>
<!-- taskmanServer&#45;&gt;taskmanServerLogic -->
<g id="edge53" class="edge"><title>taskmanServer&#45;&gt;taskmanServerLogic</title>
<path fill="none" stroke="#aaaaaa" stroke-dasharray="5,2" d="M610.486,-323.332C591.444,-331.578 572.697,-343.59 561,-360.96 530.507,-406.243 537.404,-473.705 544.562,-511.018"/>
<polygon fill="#aaaaaa" stroke="#aaaaaa" points="546.653,-521.137 540.222,-512.255 545.641,-516.24 544.629,-511.344 544.629,-511.344 544.629,-511.344 545.641,-516.24 549.036,-510.433 546.653,-521.137 546.653,-521.137"/>
</g>
<!-- taskmanApiImpl -->
<g id="node11" class="node"><title>taskmanApiImpl</title>
<ellipse fill="#cceeff" stroke="black" cx="1751" cy="-539.311" rx="90.9839" ry="18"/>
<text text-anchor="middle" x="1751" y="-535.611" font-family="Times,serif" font-size="14.00">taskman&#45;api&#45;impl</text>
</g>
<!-- taskmanApi&#45;&gt;taskmanApiImpl -->
<g id="edge12" class="edge"><title>taskmanApi&#45;&gt;taskmanApiImpl</title>
<path fill="none" stroke="#cc0000" d="M1715.42,-422.78C1720.17,-447.881 1730.05,-485.763 1738.48,-511.237"/>
<polygon fill="#cc0000" stroke="#cc0000" points="1735.28,-512.693 1741.86,-520.993 1741.89,-510.399 1735.28,-512.693"/>
</g>
<!-- taskmanApi&#45;&gt;taskmanApiImpl -->
<g id="edge52" class="edge"><title>taskmanApi&#45;&gt;taskmanApiImpl</title>
<path fill="none" stroke="#aaaaaa" stroke-dasharray="5,2" d="M1726.04,-422.452C1734.4,-447.396 1744.33,-485.186 1749.27,-510.766"/>
<polygon fill="#aaaaaa" stroke="#aaaaaa" points="1751.07,-520.908 1744.89,-511.846 1750.2,-515.985 1749.32,-511.061 1749.32,-511.061 1749.32,-511.061 1750.2,-515.985 1753.76,-510.277 1751.07,-520.908 1751.07,-520.908"/>
</g>
<!-- taskmanApi&#45;&gt;taskmanApiLogic -->
<g id="edge51" class="edge"><title>taskmanApi&#45;&gt;taskmanApiLogic</title>
<path fill="none" stroke="#aaaaaa" stroke-dasharray="5,2" d="M1692.52,-421.835C1666.63,-455.167 1629.18,-515.808 1651,-566.181 1660.6,-588.338 1680.08,-607.037 1697.64,-620.442"/>
<polygon fill="#aaaaaa" stroke="#aaaaaa" points="1706.06,-626.59 1695.33,-624.326 1702.02,-623.641 1697.99,-620.692 1697.99,-620.692 1697.99,-620.692 1702.02,-623.641 1700.64,-617.058 1706.06,-626.59 1706.06,-626.59"/>
</g>
<!-- taskmanApiImpl&#45;&gt;baseDb -->
<g id="edge8" class="edge"><title>taskmanApiImpl&#45;&gt;baseDb</title>
<path fill="none" stroke="#cc0000" d="M1834.78,-546.517C1916.07,-553.455 2033.1,-566.136 2075,-584.181 2113.28,-600.666 2148,-601.371 2148,-643.051 2148,-643.051 2148,-643.051 2148,-931.271 2148,-959.526 2143.44,-969.633 2124,-990.141 2113.12,-1001.62 2098.63,-1010.41 2084.34,-1016.99"/>
<polygon fill="#cc0000" stroke="#cc0000" points="2082.81,-1013.84 2075.01,-1021.01 2085.58,-1020.27 2082.81,-1013.84"/>
</g>
<!-- taskmanApiImpl&#45;&gt;baseTest -->
<g id="edge11" class="edge"><title>taskmanApiImpl&#45;&gt;baseTest</title>
<path fill="none" stroke="#111111" stroke-dasharray="5,2" d="M1838.46,-544.397C1915.04,-549.504 2019.2,-560.631 2053,-584.181 2077.43,-601.206 2085,-613.271 2085,-643.051 2085,-643.051 2085,-643.051 2085,-840.531 2085,-867.651 2064.1,-888.713 2041.71,-903.498"/>
<polygon fill="#111111" stroke="#111111" points="2039.74,-900.603 2033.09,-908.857 2043.43,-906.548 2039.74,-900.603"/>
<text text-anchor="middle" x="2099" y="-731.091" font-family="Times,serif" font-size="14.00">test</text>
</g>
<!-- taskmanApiImpl&#45;&gt;taskmanDb -->
<g id="edge10" class="edge"><title>taskmanApiImpl&#45;&gt;taskmanDb</title>
<path fill="none" stroke="#111111" stroke-dasharray="5,2" d="M1698.97,-524.488C1682.17,-520.109 1663.4,-515.637 1646,-512.441 1646,-512.441 934,-512.441 934,-512.441 916.222,-515.372 897.201,-518.929 879.238,-522.482"/>
<polygon fill="#111111" stroke="#111111" points="878.502,-519.06 869.382,-524.451 879.874,-525.924 878.502,-519.06"/>
<text text-anchor="middle" x="1267" y="-463.871" font-family="Times,serif" font-size="14.00">test</text>
</g>
<!-- taskmanApiImpl&#45;&gt;taskmanApiLogic -->
<g id="edge7" class="edge"><title>taskmanApiImpl&#45;&gt;taskmanApiLogic</title>
<path fill="none" stroke="#cc0000" d="M1759.94,-557.261C1765.01,-569.134 1769.53,-585.297 1765,-599.181 1762.84,-605.805 1759.26,-612.261 1755.26,-618.093"/>
<polygon fill="#cc0000" stroke="#cc0000" points="1752.42,-616.042 1749.22,-626.14 1758.02,-620.247 1752.42,-616.042"/>
</g>
<!-- taskmanApiImpl&#45;&gt;taskmanApiLogic -->
<g id="edge9" class="edge"><title>taskmanApiImpl&#45;&gt;taskmanApiLogic</title>
<path fill="none" stroke="#111111" stroke-dasharray="5,2" d="M1729.88,-556.844C1722.07,-564.263 1714.13,-573.708 1710,-584.181 1705.75,-594.965 1708.92,-606.876 1714.12,-617.145"/>
<polygon fill="#111111" stroke="#111111" points="1711.24,-619.162 1719.3,-626.036 1717.29,-615.635 1711.24,-619.162"/>
<text text-anchor="middle" x="1735.5" y="-587.981" font-family="Times,serif" font-size="14.00">test&#45;lib</text>
</g>
<!-- taskmanApiLogic&#45;&gt;baseUtil -->
<g id="edge6" class="edge"><title>taskmanApiLogic&#45;&gt;baseUtil</title>
<path fill="none" stroke="#cc0000" d="M1683.73,-659.352C1666.27,-663.84 1646.4,-668.302 1628,-670.921 1543.94,-682.883 101,-648.886 101,-733.791 101,-733.791 101,-733.791 101,-1036.01 101,-1126.57 1520.6,-1131.23 1884.05,-1130.94"/>
<polygon fill="#cc0000" stroke="#cc0000" points="1884.24,-1134.44 1894.24,-1130.93 1884.23,-1127.44 1884.24,-1134.44"/>
</g>
<!-- webapp -->
<g id="node13" class="node"><title>webapp</title>
<ellipse fill="#ffff80" stroke="black" cx="1195" cy="-214.35" rx="70.922" ry="26.7407"/>
<text text-anchor="middle" x="1195" y="-218.15" font-family="Times,serif" font-size="14.00">[aggregate]</text>
<text text-anchor="middle" x="1195" y="-203.15" font-family="Times,serif" font-size="14.00">webapp</text>
</g>
<!-- webappClientHome -->
<g id="node18" class="node"><title>webappClientHome</title>
<ellipse fill="#99ccee" stroke="black" cx="1400" cy="-467.571" rx="113.689" ry="26.7407"/>
<text text-anchor="middle" x="1400" y="-471.371" font-family="Times,serif" font-size="14.00">webapp&#45;client&#45;home</text>
<text text-anchor="middle" x="1400" y="-456.371" font-family="Times,serif" font-size="14.00">(JS)</text>
</g>
<!-- webapp&#45;&gt;webappClientHome -->
<g id="edge59" class="edge"><title>webapp&#45;&gt;webappClientHome</title>
<path fill="none" stroke="#aaaaaa" stroke-dasharray="5,2" d="M1265.57,-217.615C1305.6,-222.848 1353.13,-236.47 1381,-270.22 1418.17,-315.234 1414.26,-387.348 1407.51,-430.522"/>
<polygon fill="#aaaaaa" stroke="#aaaaaa" points="1405.8,-440.579 1403.03,-429.967 1406.63,-435.65 1407.47,-430.72 1407.47,-430.72 1407.47,-430.72 1406.63,-435.65 1411.91,-431.474 1405.8,-440.579 1405.8,-440.579"/>
</g>
<!-- webappClientWw -->
<g id="node20" class="node"><title>webappClientWw</title>
<ellipse fill="#99ccee" stroke="black" cx="1076" cy="-467.571" rx="103.476" ry="26.7407"/>
<text text-anchor="middle" x="1076" y="-471.371" font-family="Times,serif" font-size="14.00">webapp&#45;client&#45;ww</text>
<text text-anchor="middle" x="1076" y="-456.371" font-family="Times,serif" font-size="14.00">(JS)</text>
</g>
<!-- webapp&#45;&gt;webappClientWw -->
<g id="edge61" class="edge"><title>webapp&#45;&gt;webappClientWw</title>
<path fill="none" stroke="#aaaaaa" stroke-dasharray="5,2" d="M1182.71,-241.289C1161.23,-286.632 1116.85,-380.336 1092.64,-431.446"/>
<polygon fill="#aaaaaa" stroke="#aaaaaa" points="1088.22,-440.773 1088.43,-429.809 1090.36,-436.254 1092.5,-431.736 1092.5,-431.736 1092.5,-431.736 1090.36,-436.254 1096.57,-433.662 1088.22,-440.773 1088.22,-440.773"/>
</g>
<!-- webappClientProject -->
<g id="node21" class="node"><title>webappClientProject</title>
<ellipse fill="#99ccee" stroke="black" cx="1326" cy="-539.311" rx="122.159" ry="26.7407"/>
<text text-anchor="middle" x="1326" y="-543.111" font-family="Times,serif" font-size="14.00">webapp&#45;client&#45;project</text>
<text text-anchor="middle" x="1326" y="-528.111" font-family="Times,serif" font-size="14.00">(JS)</text>
</g>
<!-- webapp&#45;&gt;webappClientProject -->
<g id="edge58" class="edge"><title>webapp&#45;&gt;webappClientProject</title>
<path fill="none" stroke="#aaaaaa" stroke-dasharray="5,2" d="M1191.08,-241.229C1184.5,-294.604 1177.18,-418.279 1236,-494.441 1240.78,-500.631 1246.66,-506.001 1253.11,-510.647"/>
<polygon fill="#aaaaaa" stroke="#aaaaaa" points="1261.54,-516.153 1250.7,-514.452 1257.35,-513.419 1253.17,-510.684 1253.17,-510.684 1253.17,-510.684 1257.35,-513.419 1255.63,-506.917 1261.54,-516.153 1261.54,-516.153"/>
</g>
<!-- webappServer -->
<g id="node23" class="node"><title>webappServer</title>
<ellipse fill="#99ccee" stroke="black" cx="1293" cy="-305.09" rx="79.0865" ry="18"/>
<text text-anchor="middle" x="1293" y="-301.39" font-family="Times,serif" font-size="14.00">webapp&#45;server</text>
</g>
<!-- webapp&#45;&gt;webappServer -->
<g id="edge60" class="edge"><title>webapp&#45;&gt;webappServer</title>
<path fill="none" stroke="#aaaaaa" stroke-dasharray="5,2" d="M1221.52,-239.365C1235.68,-252.184 1253.03,-267.898 1267.09,-280.632"/>
<polygon fill="#aaaaaa" stroke="#aaaaaa" points="1274.53,-287.363 1264.09,-283.987 1270.82,-284.007 1267.11,-280.651 1267.11,-280.651 1267.11,-280.651 1270.82,-284.007 1270.14,-277.315 1274.53,-287.363 1274.53,-287.363"/>
</g>
<!-- webappMacro -->
<g id="node14" class="node"><title>webappMacro</title>
<ellipse fill="#99ccee" stroke="black" cx="1491" cy="-1035.01" rx="86.0347" ry="26.7407"/>
<text text-anchor="middle" x="1491" y="-1038.81" font-family="Times,serif" font-size="14.00">webapp&#45;macro</text>
<text text-anchor="middle" x="1491" y="-1023.81" font-family="Times,serif" font-size="14.00">(Scala &amp; JS)</text>
</g>
<!-- webappMacro&#45;&gt;baseUtil -->
<g id="edge18" class="edge"><title>webappMacro&#45;&gt;baseUtil</title>
<path fill="none" stroke="#cc0000" d="M1562.41,-1050.19C1651.84,-1067.96 1804.26,-1098.23 1894.61,-1116.17"/>
<polygon fill="#cc0000" stroke="#cc0000" points="1894.01,-1119.62 1904.5,-1118.14 1895.38,-1112.76 1894.01,-1119.62"/>
</g>
<!-- webappBase -->
<g id="node15" class="node"><title>webappBase</title>
<ellipse fill="#99ccee" stroke="black" cx="1377" cy="-930.271" rx="77.5641" ry="26.7407"/>
<text text-anchor="middle" x="1377" y="-934.071" font-family="Times,serif" font-size="14.00">webapp&#45;base</text>
<text text-anchor="middle" x="1377" y="-919.071" font-family="Times,serif" font-size="14.00">(Scala &amp; JS)</text>
</g>
<!-- webappBase&#45;&gt;webappMacro -->
<g id="edge19" class="edge"><title>webappBase&#45;&gt;webappMacro</title>
<path fill="none" stroke="#cc0000" d="M1404.02,-955.619C1419.66,-969.719 1439.52,-987.615 1456.31,-1002.75"/>
<polygon fill="#cc0000" stroke="#cc0000" points="1454.01,-1005.39 1463.78,-1009.48 1458.7,-1000.19 1454.01,-1005.39"/>
</g>
<!-- webappServerLogic -->
<g id="node16" class="node"><title>webappServerLogic</title>
<ellipse fill="#99ccee" stroke="black" cx="1178" cy="-734.791" rx="113.689" ry="26.7407"/>
<text text-anchor="middle" x="1178" y="-738.591" font-family="Times,serif" font-size="14.00">webapp&#45;server&#45;logic</text>
<text text-anchor="middle" x="1178" y="-723.591" font-family="Times,serif" font-size="14.00">(Scala &amp; JS)</text>
</g>
<!-- webappServerLogic&#45;&gt;webappBase -->
<g id="edge20" class="edge"><title>webappServerLogic&#45;&gt;webappBase</title>
<path fill="none" stroke="#cc0000" d="M1204.02,-761.085C1239.97,-796.04 1304.84,-859.113 1344.11,-897.294"/>
<polygon fill="#cc0000" stroke="#cc0000" points="1342,-900.121 1351.61,-904.583 1346.88,-895.102 1342,-900.121"/>
</g>
<!-- webappBaseTest -->
<g id="node24" class="node"><title>webappBaseTest</title>
<ellipse fill="white" stroke="blue" cx="1496" cy="-839.531" rx="100.318" ry="26.7407"/>
<text text-anchor="middle" x="1496" y="-843.331" font-family="Times,serif" font-size="14.00">webapp&#45;base&#45;test</text>
<text text-anchor="middle" x="1496" y="-828.331" font-family="Times,serif" font-size="14.00">(Scala &amp; JS)</text>
</g>
<!-- webappServerLogic&#45;&gt;webappBaseTest -->
<g id="edge21" class="edge"><title>webappServerLogic&#45;&gt;webappBaseTest</title>
<path fill="none" stroke="#111111" stroke-dasharray="5,2" d="M1243.5,-756.954C1296.07,-773.939 1369.79,-797.756 1424.01,-815.273"/>
<polygon fill="#111111" stroke="#111111" points="1422.96,-818.613 1433.56,-818.357 1425.12,-811.952 1422.96,-818.613"/>
<text text-anchor="middle" x="1371" y="-783.461" font-family="Times,serif" font-size="14.00">test</text>
</g>
<!-- webappClientBase -->
<g id="node17" class="node"><title>webappClientBase</title>
<ellipse fill="#99ccee" stroke="black" cx="1419" cy="-734.791" rx="109.703" ry="26.7407"/>
<text text-anchor="middle" x="1419" y="-738.591" font-family="Times,serif" font-size="14.00">webapp&#45;client&#45;base</text>
<text text-anchor="middle" x="1419" y="-723.591" font-family="Times,serif" font-size="14.00">(JS)</text>
</g>
<!-- webappClientBase&#45;&gt;webappBase -->
<g id="edge24" class="edge"><title>webappClientBase&#45;&gt;webappBase</title>
<path fill="none" stroke="#cc0000" d="M1392.75,-761.305C1388.4,-766.921 1384.5,-773.151 1382,-779.661 1367.84,-816.493 1368.72,-862.264 1371.78,-893.413"/>
<polygon fill="#cc0000" stroke="#cc0000" points="1368.3,-893.828 1372.88,-903.383 1375.26,-893.058 1368.3,-893.828"/>
</g>
<!-- webappClientBase&#45;&gt;webappBaseTest -->
<g id="edge25" class="edge"><title>webappClientBase&#45;&gt;webappBaseTest</title>
<path fill="none" stroke="#111111" stroke-dasharray="5,2" d="M1440.66,-761.501C1445.47,-767.398 1450.48,-773.69 1455,-779.661 1461.02,-787.622 1467.3,-796.369 1473.07,-804.63"/>
<polygon fill="#111111" stroke="#111111" points="1470.3,-806.782 1478.87,-813.009 1476.06,-802.795 1470.3,-806.782"/>
<text text-anchor="middle" x="1480" y="-783.461" font-family="Times,serif" font-size="14.00">test</text>
</g>
<!-- webappClientHome&#45;&gt;webappClientBase -->
<g id="edge28" class="edge"><title>webappClientHome&#45;&gt;webappClientBase</title>
<path fill="none" stroke="#cc0000" d="M1467.72,-489.326C1478.78,-495.283 1489.16,-502.856 1497,-512.441 1527.24,-549.405 1515.63,-569.726 1521,-617.181 1523.68,-640.914 1532.64,-650.067 1521,-670.921 1512.77,-685.661 1499.51,-697.374 1485.23,-706.498"/>
<polygon fill="#cc0000" stroke="#cc0000" points="1483.05,-703.724 1476.24,-711.848 1486.63,-709.739 1483.05,-703.724"/>
</g>
<!-- webappClientBaseTest -->
<g id="node25" class="node"><title>webappClientBaseTest</title>
<ellipse fill="white" stroke="blue" cx="1380" cy="-644.051" rx="132.458" ry="26.7407"/>
<text text-anchor="middle" x="1380" y="-647.851" font-family="Times,serif" font-size="14.00">webapp&#45;client&#45;base&#45;test</text>
<text text-anchor="middle" x="1380" y="-632.851" font-family="Times,serif" font-size="14.00">(JS)</text>
</g>
<!-- webappClientHome&#45;&gt;webappClientBaseTest -->
<g id="edge29" class="edge"><title>webappClientHome&#45;&gt;webappClientBaseTest</title>
<path fill="none" stroke="#111111" stroke-dasharray="5,2" d="M1441.29,-492.724C1447.64,-498.352 1453.31,-504.934 1457,-512.441 1467.55,-533.87 1466.15,-544.118 1457,-566.181 1449.86,-583.392 1436.79,-598.752 1423.42,-611.133"/>
<polygon fill="#111111" stroke="#111111" points="1420.74,-608.83 1415.56,-618.07 1425.37,-614.08 1420.74,-608.83"/>
<text text-anchor="middle" x="1479" y="-535.611" font-family="Times,serif" font-size="14.00">test</text>
</g>
<!-- webappClientWwApi -->
<g id="node19" class="node"><title>webappClientWwApi</title>
<ellipse fill="#99ccee" stroke="black" cx="1068" cy="-644.051" rx="121.745" ry="26.7407"/>
<text text-anchor="middle" x="1068" y="-647.851" font-family="Times,serif" font-size="14.00">webapp&#45;client&#45;ww&#45;api</text>
<text text-anchor="middle" x="1068" y="-632.851" font-family="Times,serif" font-size="14.00">(JS)</text>
</g>
<!-- webappClientWwApi&#45;&gt;webappBase -->
<g id="edge30" class="edge"><title>webappClientWwApi&#45;&gt;webappBase</title>
<path fill="none" stroke="#cc0000" d="M1056.51,-671.074C1047.35,-696.066 1038.54,-734.003 1055,-761.661 1107.39,-849.695 1223.07,-893.509 1300.54,-913.766"/>
<polygon fill="#cc0000" stroke="#cc0000" points="1299.71,-917.166 1310.27,-916.237 1301.44,-910.381 1299.71,-917.166"/>
</g>
<!-- webappClientWw&#45;&gt;webappClientWwApi -->
<g id="edge31" class="edge"><title>webappClientWw&#45;&gt;webappClientWwApi</title>
<path fill="none" stroke="#cc0000" d="M1074.8,-494.692C1073.44,-524.459 1071.2,-573.303 1069.66,-606.758"/>
<polygon fill="#cc0000" stroke="#cc0000" points="1066.15,-606.886 1069.19,-617.036 1073.15,-607.207 1066.15,-606.886"/>
</g>
<!-- webappClientWw&#45;&gt;webappClientBaseTest -->
<g id="edge32" class="edge"><title>webappClientWw&#45;&gt;webappClientBaseTest</title>
<path fill="none" stroke="#111111" stroke-dasharray="5,2" d="M1094.3,-494.205C1111.04,-516.008 1137.61,-546.782 1167,-566.181 1203.37,-590.188 1248.19,-607.818 1287.31,-620.091"/>
<polygon fill="#111111" stroke="#111111" points="1286.54,-623.516 1297.12,-623.097 1288.59,-616.822 1286.54,-623.516"/>
<text text-anchor="middle" x="1181" y="-535.611" font-family="Times,serif" font-size="14.00">test</text>
</g>
<!-- webappClientProject&#45;&gt;webappClientBase -->
<g id="edge33" class="edge"><title>webappClientProject&#45;&gt;webappClientBase</title>
<path fill="none" stroke="#cc0000" d="M1285.48,-564.674C1267.7,-577.779 1248.69,-595.683 1239,-617.181 1229.18,-638.955 1225.17,-651.446 1239,-670.921 1250.55,-687.191 1291.14,-702.08 1330.86,-713.28"/>
<polygon fill="#cc0000" stroke="#cc0000" points="1330.08,-716.696 1340.65,-715.974 1331.94,-709.947 1330.08,-716.696"/>
</g>
<!-- webappClientProject&#45;&gt;webappClientWwApi -->
<g id="edge34" class="edge"><title>webappClientProject&#45;&gt;webappClientWwApi</title>
<path fill="none" stroke="#cc0000" d="M1268.74,-563.112C1229.08,-578.908 1176.14,-599.987 1134.59,-616.534"/>
<polygon fill="#cc0000" stroke="#cc0000" points="1133.09,-613.362 1125.1,-620.313 1135.68,-619.865 1133.09,-613.362"/>
</g>
<!-- webappClientProject&#45;&gt;webappClientBaseTest -->
<g id="edge35" class="edge"><title>webappClientProject&#45;&gt;webappClientBaseTest</title>
<path fill="none" stroke="#111111" stroke-dasharray="5,2" d="M1339.63,-566.236C1346.28,-578.891 1354.38,-594.301 1361.57,-607.988"/>
<polygon fill="#111111" stroke="#111111" points="1358.63,-609.91 1366.38,-617.133 1364.82,-606.653 1358.63,-609.91"/>
<text text-anchor="middle" x="1371" y="-587.981" font-family="Times,serif" font-size="14.00">test</text>
</g>
<!-- webappGen -->
<g id="node22" class="node"><title>webappGen</title>
<ellipse fill="#99ccee" stroke="black" cx="1539" cy="-395.831" rx="73.5782" ry="26.7407"/>
<text text-anchor="middle" x="1539" y="-399.631" font-family="Times,serif" font-size="14.00">webapp&#45;gen</text>
<text text-anchor="middle" x="1539" y="-384.631" font-family="Times,serif" font-size="14.00">(Scala &amp; JS)</text>
</g>
<!-- webappGen&#45;&gt;webappBase -->
<g id="edge36" class="edge"><title>webappGen&#45;&gt;webappBase</title>
<path fill="none" stroke="#cc0000" d="M1562.22,-421.778C1584.57,-448.484 1615,-493.142 1615,-538.311 1615,-538.311 1615,-538.311 1615,-840.531 1615,-852.858 1614.14,-858.13 1605,-866.401 1566.57,-901.179 1510.6,-916.946 1463.73,-923.994"/>
<polygon fill="#cc0000" stroke="#cc0000" points="1462.99,-920.563 1453.57,-925.409 1463.96,-927.496 1462.99,-920.563"/>
</g>
<!-- webappGen&#45;&gt;webappClientProject -->
<g id="edge37" class="edge"><title>webappGen&#45;&gt;webappClientProject</title>
<path fill="none" stroke="#111111" stroke-dasharray="5,2" d="M1535.67,-423.103C1531.91,-448.509 1525,-484.572 1515,-494.441 1508.05,-501.3 1468.62,-510.946 1427.56,-519.447"/>
<polygon fill="#111111" stroke="#111111" points="1426.77,-516.037 1417.67,-521.467 1428.17,-522.895 1426.77,-516.037"/>
<text text-anchor="middle" x="1545.5" y="-463.871" font-family="Times,serif" font-size="14.00">run</text>
</g>
<!-- webappGen&#45;&gt;webappBaseTest -->
<g id="edge38" class="edge"><title>webappGen&#45;&gt;webappBaseTest</title>
<path fill="none" stroke="#111111" stroke-dasharray="5,2" d="M1554.75,-422.529C1557.65,-428.32 1560.29,-434.571 1562,-440.701 1573.68,-482.565 1568,-494.847 1568,-538.311 1568,-538.311 1568,-538.311 1568,-735.791 1568,-762.663 1551.28,-787.496 1533.95,-806.015"/>
<polygon fill="#111111" stroke="#111111" points="1531.05,-803.969 1526.53,-813.552 1536.04,-808.879 1531.05,-803.969"/>
<text text-anchor="middle" x="1582" y="-640.351" font-family="Times,serif" font-size="14.00">test</text>
</g>
<!-- webappServer&#45;&gt;baseDb -->
<g id="edge42" class="edge"><title>webappServer:e&#45;&gt;baseDb</title>
<path fill="none" stroke="#cc0000" d="M1374,-305.09C1419.39,-305.09 2186,-349.445 2186,-394.831 2186,-394.831 2186,-394.831 2186,-931.271 2186,-980.195 2131.69,-1007.2 2087.36,-1021.09"/>
<polygon fill="#cc0000" stroke="#cc0000" points="2086.09,-1017.82 2077.51,-1024.02 2088.09,-1024.53 2086.09,-1017.82"/>
</g>
<!-- webappServer&#45;&gt;taskmanApi -->
<g id="edge39" class="edge"><title>webappServer&#45;&gt;taskmanApi</title>
<path fill="none" stroke="#cc0000" d="M1324.57,-321.624C1339.76,-328.403 1358.44,-335.752 1376,-339.96 1430.65,-353.061 1573.27,-348.195 1628,-360.96 1638.53,-363.416 1649.47,-366.926 1659.88,-370.764"/>
<polygon fill="#cc0000" stroke="#cc0000" points="1658.68,-374.05 1669.27,-374.36 1661.18,-367.513 1658.68,-374.05"/>
</g>
<!-- webappServer&#45;&gt;webappServerLogic -->
<g id="edge40" class="edge"><title>webappServer&#45;&gt;webappServerLogic</title>
<path fill="none" stroke="#cc0000" d="M1273.46,-322.665C1262.31,-332.866 1248.67,-346.687 1239,-360.96 1217.29,-393.002 1214.29,-403.391 1204,-440.701 1189.13,-494.599 1192.81,-510.311 1195,-566.181 1195.89,-588.9 1198.11,-594.462 1199,-617.181 1199.93,-641.047 1202.83,-647.346 1199,-670.921 1197.52,-679.999 1194.92,-689.536 1192.04,-698.362"/>
<polygon fill="#cc0000" stroke="#cc0000" points="1188.68,-697.366 1188.72,-707.961 1195.3,-699.657 1188.68,-697.366"/>
</g>
<!-- webappServer&#45;&gt;webappClientHome -->
<g id="edge43" class="edge"><title>webappServer&#45;&gt;webappClientHome</title>
<path fill="none" stroke="#cc0000" stroke-dasharray="5,2" d="M1304.25,-322.961C1321.49,-348.817 1354.8,-398.773 1377.22,-432.401"/>
<polygon fill="#cc0000" stroke="#cc0000" points="1374.49,-434.618 1382.95,-440.997 1380.31,-430.735 1374.49,-434.618"/>
</g>
<!-- webappServer&#45;&gt;webappClientWw -->
<g id="edge45" class="edge"><title>webappServer&#45;&gt;webappClientWw</title>
<path fill="none" stroke="#cc0000" stroke-dasharray="5,2" d="M1270.59,-322.66C1234.51,-349.348 1162.96,-402.264 1117.4,-435.957"/>
<polygon fill="#cc0000" stroke="#cc0000" points="1115.16,-433.254 1109.2,-442.014 1119.33,-438.882 1115.16,-433.254"/>
</g>
<!-- webappServer&#45;&gt;webappClientProject -->
<g id="edge44" class="edge"><title>webappServer&#45;&gt;webappClientProject</title>
<path fill="none" stroke="#cc0000" stroke-dasharray="5,2" d="M1281.79,-323.152C1260.6,-357.726 1219.61,-437.593 1252,-494.441 1254.98,-499.678 1258.87,-504.355 1263.29,-508.517"/>
<polygon fill="#cc0000" stroke="#cc0000" points="1261.24,-511.367 1271.18,-515.044 1265.71,-505.973 1261.24,-511.367"/>
</g>
<!-- webappServer&#45;&gt;webappGen -->
<g id="edge41" class="edge"><title>webappServer&#45;&gt;webappGen</title>
<path fill="none" stroke="#cc0000" d="M1328.76,-321.256C1343.33,-327.286 1360.39,-334.155 1376,-339.96 1408.45,-352.03 1444.94,-364.422 1475.16,-374.369"/>
<polygon fill="#cc0000" stroke="#cc0000" points="1474.15,-377.72 1484.74,-377.51 1476.33,-371.068 1474.15,-377.72"/>
</g>
<!-- webappBaseTest&#45;&gt;baseTest -->
<g id="edge22" class="edge"><title>webappBaseTest&#45;&gt;baseTest</title>
<path fill="none" stroke="#111111" d="M1577.52,-855.234C1670.83,-872.065 1822.42,-899.405 1912.94,-915.732"/>
<polygon fill="#111111" stroke="#111111" points="1912.39,-919.19 1922.85,-917.521 1913.63,-912.301 1912.39,-919.19"/>
</g>
<!-- webappBaseTest&#45;&gt;webappBase -->
<g id="edge23" class="edge"><title>webappBaseTest&#45;&gt;webappBase</title>
<path fill="none" stroke="#111111" d="M1463.17,-865.015C1448.89,-875.663 1432.03,-888.238 1417.02,-899.428"/>
<polygon fill="#111111" stroke="#111111" points="1414.83,-896.697 1408.9,-905.48 1419.01,-902.308 1414.83,-896.697"/>
</g>
<!-- webappClientBaseTest&#45;&gt;webappClientBase -->
<g id="edge26" class="edge"><title>webappClientBaseTest&#45;&gt;webappClientBase</title>
<path fill="none" stroke="#111111" d="M1391.49,-671.196C1395.26,-679.771 1399.51,-689.446 1403.53,-698.58"/>
<polygon fill="#111111" stroke="#111111" points="1400.36,-700.086 1407.59,-707.833 1406.77,-697.27 1400.36,-700.086"/>
</g>
<!-- webappClientBaseTest&#45;&gt;webappBaseTest -->
<g id="edge27" class="edge"><title>webappClientBaseTest&#45;&gt;webappBaseTest</title>
<path fill="none" stroke="#111111" d="M1475.57,-662.806C1499.92,-672.113 1523.33,-686.299 1538,-707.921 1557.91,-737.269 1540.45,-776.658 1522.36,-804.482"/>
<polygon fill="#111111" stroke="#111111" points="1519.24,-802.845 1516.51,-813.082 1525.03,-806.782 1519.24,-802.845"/>
</g>
<!-- taskman -->
<g id="node26" class="node"><title>taskman</title>
<ellipse fill="#ffff80" stroke="black" cx="677" cy="-214.35" rx="70.922" ry="26.7407"/>
<text text-anchor="middle" x="677" y="-218.15" font-family="Times,serif" font-size="14.00">[aggregate]</text>
<text text-anchor="middle" x="677" y="-203.15" font-family="Times,serif" font-size="14.00">taskman</text>
</g>
<!-- taskman&#45;&gt;taskmanServer -->
<g id="edge57" class="edge"><title>taskman&#45;&gt;taskmanServer</title>
<path fill="none" stroke="#aaaaaa" stroke-dasharray="5,2" d="M677,-241.495C677,-249.8 677,-259.136 677,-268.012"/>
<polygon fill="#aaaaaa" stroke="#aaaaaa" points="677,-278.132 672.5,-268.132 677,-273.132 677,-268.132 677,-268.132 677,-268.132 677,-273.132 681.5,-268.132 677,-278.132 677,-278.132"/>
</g>
<!-- taskman&#45;&gt;taskmanApi -->
<g id="edge56" class="edge"><title>taskman&#45;&gt;taskmanApi</title>
<path fill="none" stroke="#aaaaaa" stroke-dasharray="5,2" d="M744.007,-223.18C795.814,-228.971 869.365,-236.621 934,-241.22 1010.98,-246.699 1560.43,-232.932 1628,-270.22 1663.2,-289.644 1687.04,-330.338 1700.52,-359.952"/>
<polygon fill="#aaaaaa" stroke="#aaaaaa" points="1704.54,-369.137 1696.41,-361.778 1702.54,-364.556 1700.53,-359.975 1700.53,-359.975 1700.53,-359.975 1702.54,-364.556 1704.66,-358.172 1704.54,-369.137 1704.54,-369.137"/>
</g>
<!-- benchmark -->
<g id="node27" class="node"><title>benchmark</title>
<ellipse fill="#ffffdd" stroke="black" cx="304" cy="-117.61" rx="70.922" ry="26.7407"/>
<text text-anchor="middle" x="304" y="-121.41" font-family="Times,serif" font-size="14.00">[aggregate]</text>
<text text-anchor="middle" x="304" y="-106.41" font-family="Times,serif" font-size="14.00">benchmark</text>
</g>
<!-- benchmarkJvm -->
<g id="node28" class="node"><title>benchmarkJvm</title>
<ellipse fill="#ffcccc" stroke="black" cx="152" cy="-214.35" rx="86.3847" ry="18"/>
<text text-anchor="middle" x="152" y="-210.65" font-family="Times,serif" font-size="14.00">benchmark JVM</text>
</g>
<!-- benchmark&#45;&gt;benchmarkJvm -->
<g id="edge66" class="edge"><title>benchmark&#45;&gt;benchmarkJvm</title>
<path fill="none" stroke="#aaaaaa" stroke-dasharray="5,2" d="M268.363,-140.823C243.824,-156.117 211.376,-176.342 186.98,-191.548"/>
<polygon fill="#aaaaaa" stroke="#aaaaaa" points="178.385,-196.904 184.492,-187.796 182.629,-194.26 186.872,-191.615 186.872,-191.615 186.872,-191.615 182.629,-194.26 189.252,-195.434 178.385,-196.904 178.385,-196.904"/>
</g>
<!-- benchmarkJs -->
<g id="node29" class="node"><title>benchmarkJs</title>
<ellipse fill="#ffcccc" stroke="black" cx="333" cy="-214.35" rx="76.8869" ry="18"/>
<text text-anchor="middle" x="333" y="-210.65" font-family="Times,serif" font-size="14.00">benchmark JS</text>
</g>
<!-- benchmark&#45;&gt;benchmarkJs -->
<g id="edge67" class="edge"><title>benchmark&#45;&gt;benchmarkJs</title>
<path fill="none" stroke="#aaaaaa" stroke-dasharray="5,2" d="M311.924,-144.498C315.894,-157.467 320.698,-173.162 324.717,-186.29"/>
<polygon fill="#aaaaaa" stroke="#aaaaaa" points="327.74,-196.166 320.51,-187.921 326.276,-191.385 324.813,-186.604 324.813,-186.604 324.813,-186.604 326.276,-191.385 329.116,-185.287 327.74,-196.166 327.74,-196.166"/>
</g>
<!-- benchmarkJvm&#45;&gt;webappServer -->
<g id="edge48" class="edge"><title>benchmarkJvm&#45;&gt;webappServer</title>
<path fill="none" stroke="#cc0000" d="M197.488,-229.753C213.042,-234.136 230.643,-238.508 247,-241.22 548.487,-291.221 628.945,-251.89 934,-270.22 1030.54,-276.021 1141.3,-287.155 1213.96,-295.073"/>
<polygon fill="#cc0000" stroke="#cc0000" points="1213.63,-298.558 1223.95,-296.168 1214.39,-291.6 1213.63,-298.558"/>
</g>
<!-- benchmarkShared -->
<g id="node30" class="node"><title>benchmarkShared</title>
<ellipse fill="#ffcccc" stroke="black" cx="235" cy="-305.09" rx="69.0935" ry="26.7407"/>
<text text-anchor="middle" x="235" y="-308.89" font-family="Times,serif" font-size="14.00">benchmark</text>
<text text-anchor="middle" x="235" y="-293.89" font-family="Times,serif" font-size="14.00">base</text>
</g>
<!-- benchmarkJvm&#45;&gt;benchmarkShared -->
<g id="edge46" class="edge"><title>benchmarkJvm&#45;&gt;benchmarkShared</title>
<path fill="none" stroke="#cc0000" d="M168.003,-232.46C178.478,-243.659 192.491,-258.641 204.993,-272.008"/>
<polygon fill="#cc0000" stroke="#cc0000" points="202.754,-274.738 212.141,-279.651 207.867,-269.957 202.754,-274.738"/>
</g>
<!-- benchmarkJs&#45;&gt;webappClientProject -->
<g id="edge49" class="edge"><title>benchmarkJs&#45;&gt;webappClientProject</title>
<path fill="none" stroke="#cc0000" d="M335.439,-232.492C342.194,-273.051 365.132,-375.067 430,-422.701 568.676,-524.533 1028.6,-488.654 1199,-512.441 1209.75,-513.941 1220.96,-515.795 1232.07,-517.815"/>
<polygon fill="#cc0000" stroke="#cc0000" points="1231.76,-521.317 1242.23,-519.712 1233.04,-514.436 1231.76,-521.317"/>
</g>
<!-- benchmarkJs&#45;&gt;benchmarkShared -->
<g id="edge47" class="edge"><title>benchmarkJs&#45;&gt;benchmarkShared</title>
<path fill="none" stroke="#cc0000" d="M314.567,-232.042C301.819,-243.585 284.475,-259.291 269.233,-273.092"/>
<polygon fill="#cc0000" stroke="#cc0000" points="266.553,-270.797 261.49,-280.103 271.252,-275.986 266.553,-270.797"/>
</g>
<!-- utils -->
<g id="node31" class="node"><title>utils</title>
<ellipse fill="#ffffdd" stroke="black" cx="155" cy="-117.61" rx="31.3957" ry="18"/>
<text text-anchor="middle" x="155" y="-113.91" font-family="Times,serif" font-size="14.00">utils</text>
</g>
<!-- utils&#45;&gt;webappBase -->
<g id="edge50" class="edge"><title>utils&#45;&gt;webappBase</title>
<path fill="none" stroke="#cc0000" d="M128.158,-126.999C93.6154,-139.664 38,-167.219 38,-213.35 38,-213.35 38,-213.35 38,-592.681 38,-672.229 35.2725,-711.485 97,-761.661 280.416,-910.755 1030.57,-927.946 1289.01,-929.379"/>
<polygon fill="#cc0000" stroke="#cc0000" points="1289.09,-932.879 1299.1,-929.428 1289.12,-925.879 1289.09,-932.879"/>
</g>
<!-- root -->
<g id="node32" class="node"><title>root</title>
<ellipse fill="#cccccc" stroke="black" cx="304" cy="-26.8701" rx="70.922" ry="26.7407"/>
<text text-anchor="middle" x="304" y="-30.6701" font-family="Times,serif" font-size="14.00">[aggregate]</text>
<text text-anchor="middle" x="304" y="-15.6701" font-family="Times,serif" font-size="14.00">root</text>
</g>
<!-- root&#45;&gt;base -->
<g id="edge68" class="edge"><title>root&#45;&gt;base</title>
<path fill="none" stroke="#aaaaaa" stroke-dasharray="5,2" d="M235.776,-34.0207C146.147,-44.0235 0,-67.815 0,-116.61 0,-116.61 0,-116.61 0,-468.571 0,-903.64 504.198,-694.162 934,-761.661 1086.41,-785.596 1474.57,-763.527 1628,-779.661 1714.13,-788.719 1811.94,-808.332 1875.86,-822.433"/>
<polygon fill="#aaaaaa" stroke="#aaaaaa" points="1885.82,-824.646 1875.08,-826.869 1880.93,-823.561 1876.05,-822.477 1876.05,-822.477 1876.05,-822.477 1880.93,-823.561 1877.03,-818.084 1885.82,-824.646 1885.82,-824.646"/>
</g>
<!-- root&#45;&gt;webapp -->
<g id="edge69" class="edge"><title>root&#45;&gt;webapp</title>
<path fill="none" stroke="#aaaaaa" stroke-dasharray="5,2" d="M373.412,-32.2497C516.729,-42.9724 854.195,-76.9499 1120,-171.48 1130.54,-175.229 1141.35,-180.378 1151.36,-185.783"/>
<polygon fill="#aaaaaa" stroke="#aaaaaa" points="1160.29,-190.786 1149.37,-189.828 1155.93,-188.344 1151.57,-185.901 1151.57,-185.901 1151.57,-185.901 1155.93,-188.344 1153.77,-181.974 1160.29,-190.786 1160.29,-190.786"/>
</g>
<!-- root&#45;&gt;taskman -->
<g id="edge70" class="edge"><title>root&#45;&gt;taskman</title>
<path fill="none" stroke="#aaaaaa" stroke-dasharray="5,2" d="M348.177,-47.9286C370.417,-58.1493 397.74,-70.8922 422,-82.7401 494.099,-117.952 576.587,-160.649 627.742,-187.416"/>
<polygon fill="#aaaaaa" stroke="#aaaaaa" points="636.609,-192.06 625.662,-191.406 632.179,-189.74 627.75,-187.42 627.75,-187.42 627.75,-187.42 632.179,-189.74 629.838,-183.434 636.609,-192.06 636.609,-192.06"/>
</g>
<!-- root&#45;&gt;benchmark -->
<g id="edge71" class="edge"><title>root&#45;&gt;benchmark</title>
<path fill="none" stroke="#aaaaaa" stroke-dasharray="5,2" d="M304,-54.0151C304,-62.3197 304,-71.6554 304,-80.5319"/>
<polygon fill="#aaaaaa" stroke="#aaaaaa" points="304,-90.652 299.5,-80.652 304,-85.652 304,-80.652 304,-80.652 304,-80.652 304,-85.652 308.5,-80.6521 304,-90.652 304,-90.652"/>
</g>
<!-- root&#45;&gt;utils -->
<g id="edge72" class="edge"><title>root&#45;&gt;utils</title>
<path fill="none" stroke="#aaaaaa" stroke-dasharray="5,2" d="M266.785,-50.034C241.522,-65.0804 208.55,-84.717 184.975,-98.7579"/>
<polygon fill="#aaaaaa" stroke="#aaaaaa" points="176.123,-104.03 182.412,-95.0465 180.419,-101.471 184.715,-98.9128 184.715,-98.9128 184.715,-98.9128 180.419,-101.471 187.018,-102.779 176.123,-104.03 176.123,-104.03"/>
</g>
</g>
</svg>
