<?xml version="1.0" encoding="UTF-8" standalone="no"?>
<!DOCTYPE svg PUBLIC "-//W3C//DTD SVG 1.1//EN"
 "http://www.w3.org/Graphics/SVG/1.1/DTD/svg11.dtd">
<!-- Generated by graphviz version 2.40.1 (20161225.0304)
 -->
<!-- Title: G Pages: 1 -->
<svg width="2008pt" height="2142pt"
 viewBox="0.00 0.00 2008.00 2141.80" xmlns="http://www.w3.org/2000/svg" xmlns:xlink="http://www.w3.org/1999/xlink">
<g id="graph0" class="graph" transform="scale(1 1) rotate(0) translate(4 2137.8023)">
<title>G</title>
<polygon fill="#ffffff" stroke="transparent" points="-4,4 -4,-2137.8023 2004,-2137.8023 2004,4 -4,4"/>
<g id="clust3" class="cluster">
<title>cluster_taskman</title>
<polygon fill="#eeeeff" stroke="#000000" points="1310,-967.9209 1310,-1534.4916 1774,-1534.4916 1774,-967.9209 1310,-967.9209"/>
</g>
<g id="clust4" class="cluster">
<title>cluster_webapp</title>
<polygon fill="#eeeeff" stroke="#000000" points="520,-173.4802 520,-1906.3221 1302,-1906.3221 1302,-173.4802 520,-173.4802"/>
</g>
<g id="clust1" class="cluster">
<title>cluster_base</title>
<polygon fill="#f4fff4" stroke="#000000" points="1782,-1187.4012 1782,-2125.8023 1992,-2125.8023 1992,-1187.4012 1782,-1187.4012"/>
</g>
<g id="clust5" class="cluster">
<title>cluster_supp</title>
<polygon fill="#fff2f2" stroke="#000000" points="20,-82.7401 20,-479.9605 380,-479.9605 380,-82.7401 20,-82.7401"/>
</g>
<!-- baseMacro -->
<g id="node1" class="node">
<title>baseMacro</title>
<ellipse fill="#bbffbb" stroke="#000000" cx="1874" cy="-2090.9322" rx="70.0071" ry="26.7407"/>
<text text-anchor="middle" x="1874" y="-2094.7322" font-family="Times,serif" font-size="14.00" fill="#000000">base&#45;macro</text>
<text text-anchor="middle" x="1874" y="-2079.7322" font-family="Times,serif" font-size="14.00" fill="#000000">(JVM &amp; JS)</text>
</g>
<!-- baseUtil -->
<g id="node2" class="node">
<title>baseUtil</title>
<ellipse fill="#bbffbb" stroke="#000000" cx="1865" cy="-1962.1921" rx="67.3507" ry="26.7407"/>
<text text-anchor="middle" x="1865" y="-1965.9921" font-family="Times,serif" font-size="14.00" fill="#000000">base&#45;util</text>
<text text-anchor="middle" x="1865" y="-1950.9921" font-family="Times,serif" font-size="14.00" fill="#000000">(JVM &amp; JS)</text>
</g>
<!-- baseUtil&#45;&gt;baseMacro -->
<g id="edge1" class="edge">
<title>baseUtil&#45;&gt;baseMacro</title>
<path fill="none" stroke="#cc0000" d="M1866.8867,-1989.1803C1868.2007,-2007.9767 1869.9697,-2033.281 1871.4148,-2053.9527"/>
<polygon fill="#cc0000" stroke="#cc0000" points="1867.9268,-2054.2481 1872.1158,-2063.9796 1874.9098,-2053.7599 1867.9268,-2054.2481"/>
</g>
<!-- baseDb -->
<g id="node3" class="node">
<title>baseDb</title>
<ellipse fill="#bbffbb" stroke="#000000" cx="1883" cy="-1599.2317" rx="50.8235" ry="26.7407"/>
<text text-anchor="middle" x="1883" y="-1603.0317" font-family="Times,serif" font-size="14.00" fill="#000000">base&#45;db</text>
<text text-anchor="middle" x="1883" y="-1588.0317" font-family="Times,serif" font-size="14.00" fill="#000000">(JVM)</text>
</g>
<!-- baseOps -->
<g id="node4" class="node">
<title>baseOps</title>
<ellipse fill="#bbffbb" stroke="#000000" cx="1888" cy="-1780.7119" rx="55.7232" ry="26.7407"/>
<text text-anchor="middle" x="1888" y="-1784.5119" font-family="Times,serif" font-size="14.00" fill="#000000">base&#45;ops</text>
<text text-anchor="middle" x="1888" y="-1769.5119" font-family="Times,serif" font-size="14.00" fill="#000000">(JVM)</text>
</g>
<!-- baseDb&#45;&gt;baseOps -->
<g id="edge3" class="edge">
<title>baseDb&#45;&gt;baseOps</title>
<path fill="none" stroke="#cc0000" d="M1883.7486,-1626.4011C1884.6053,-1657.496 1886.0134,-1708.606 1886.9724,-1743.4145"/>
<polygon fill="#cc0000" stroke="#cc0000" points="1883.4803,-1743.7538 1887.2545,-1753.6535 1890.4777,-1743.5609 1883.4803,-1743.7538"/>
</g>
<!-- baseOps&#45;&gt;baseUtil -->
<g id="edge2" class="edge">
<title>baseOps&#45;&gt;baseUtil</title>
<path fill="none" stroke="#cc0000" d="M1884.5567,-1807.8813C1880.6158,-1838.9762 1874.1384,-1890.0862 1869.7269,-1924.8947"/>
<polygon fill="#cc0000" stroke="#cc0000" points="1866.2144,-1924.773 1868.4293,-1935.1338 1873.1589,-1925.6532 1866.2144,-1924.773"/>
</g>
<!-- baseTest -->
<g id="node5" class="node">
<title>baseTest</title>
<ellipse fill="#ffffff" stroke="#006400" cx="1857" cy="-1417.7514" rx="67.3507" ry="26.7407"/>
<text text-anchor="middle" x="1857" y="-1421.5514" font-family="Times,serif" font-size="14.00" fill="#000000">base&#45;test</text>
<text text-anchor="middle" x="1857" y="-1406.5514" font-family="Times,serif" font-size="14.00" fill="#000000">(JVM &amp; JS)</text>
</g>
<!-- baseTest&#45;&gt;baseUtil -->
<g id="edge4" class="edge">
<title>baseTest&#45;&gt;baseUtil</title>
<path fill="none" stroke="#111111" d="M1848.307,-1444.6606C1835.4841,-1486.8111 1813,-1571.1863 1813,-1644.6017 1813,-1644.6017 1813,-1644.6017 1813,-1871.452 1813,-1892.3254 1823.4863,-1912.7504 1835.0409,-1928.9204"/>
<polygon fill="#111111" stroke="#111111" points="1832.3055,-1931.1059 1841.1307,-1936.9682 1837.8875,-1926.882 1832.3055,-1931.1059"/>
</g>
<!-- baseTest&#45;&gt;baseDb -->
<g id="edge5" class="edge">
<title>baseTest&#45;&gt;baseDb</title>
<path fill="none" stroke="#111111" stroke-dasharray="5,2" d="M1860.8925,-1444.9209C1865.3473,-1476.0157 1872.6696,-1527.1257 1877.6565,-1561.9342"/>
<polygon fill="#111111" stroke="#111111" points="1874.2406,-1562.7708 1879.1234,-1572.1733 1881.1698,-1561.778 1874.2406,-1562.7708"/>
<text text-anchor="middle" x="1905" y="-1504.7916" font-family="Times,serif" font-size="14.00" fill="#000000">provided</text>
</g>
<!-- base -->
<g id="node6" class="node">
<title>base</title>
<ellipse fill="#ffffdd" stroke="#006400" cx="1913" cy="-1222.2712" rx="70.922" ry="26.7407"/>
<text text-anchor="middle" x="1913" y="-1226.0712" font-family="Times,serif" font-size="14.00" fill="#000000">[aggregate]</text>
<text text-anchor="middle" x="1913" y="-1211.0712" font-family="Times,serif" font-size="14.00" fill="#000000">base</text>
</g>
<!-- base&#45;&gt;baseMacro -->
<g id="edge64" class="edge">
<title>base&#45;&gt;baseMacro</title>
<path fill="none" stroke="#aaaaaa" stroke-dasharray="5,2" d="M1945.5409,-1246.2884C1963.8209,-1262.7384 1983,-1286.3503 1983,-1313.0113 1983,-1313.0113 1983,-1313.0113 1983,-2026.5622 1983,-2049.1522 1965.4272,-2063.9792 1944.3933,-2073.6352"/>
<polygon fill="#aaaaaa" stroke="#aaaaaa" points="1934.8737,-2077.5906 1942.3816,-2069.598 1939.491,-2075.6721 1944.1083,-2073.7536 1944.1083,-2073.7536 1944.1083,-2073.7536 1939.491,-2075.6721 1945.835,-2077.9091 1934.8737,-2077.5906 1934.8737,-2077.5906"/>
</g>
<!-- base&#45;&gt;baseUtil -->
<g id="edge61" class="edge">
<title>base&#45;&gt;baseUtil</title>
<path fill="none" stroke="#aaaaaa" stroke-dasharray="5,2" d="M1936.2435,-1248.0318C1949.3007,-1265.1772 1963,-1288.909 1963,-1313.0113 1963,-1313.0113 1963,-1313.0113 1963,-1871.452 1963,-1899.5375 1941.0612,-1921.3596 1917.944,-1936.5579"/>
<polygon fill="#aaaaaa" stroke="#aaaaaa" points="1909.4122,-1941.8569 1915.5328,-1932.7581 1913.6597,-1939.2188 1917.9071,-1936.5808 1917.9071,-1936.5808 1917.9071,-1936.5808 1913.6597,-1939.2188 1920.2814,-1940.4034 1909.4122,-1941.8569 1909.4122,-1941.8569"/>
</g>
<!-- base&#45;&gt;baseDb -->
<g id="edge62" class="edge">
<title>base&#45;&gt;baseDb</title>
<path fill="none" stroke="#aaaaaa" stroke-dasharray="5,2" d="M1926.7708,-1248.9109C1934.6573,-1266.6029 1943,-1290.6119 1943,-1313.0113 1943,-1313.0113 1943,-1313.0113 1943,-1508.4916 1943,-1520.6388 1943.2557,-1524.4102 1938,-1535.3616 1932.3548,-1547.1247 1923.9699,-1558.4419 1915.4386,-1568.1967"/>
<polygon fill="#aaaaaa" stroke="#aaaaaa" points="1908.6148,-1575.6636 1912.039,-1565.246 1911.9878,-1571.9727 1915.3608,-1568.2818 1915.3608,-1568.2818 1915.3608,-1568.2818 1911.9878,-1571.9727 1918.6827,-1571.3175 1908.6148,-1575.6636 1908.6148,-1575.6636"/>
</g>
<!-- base&#45;&gt;baseTest -->
<g id="edge63" class="edge">
<title>base&#45;&gt;baseTest</title>
<path fill="none" stroke="#aaaaaa" stroke-dasharray="5,2" d="M1905.3309,-1249.042C1895.5141,-1283.3094 1878.4636,-1342.828 1867.4613,-1381.2338"/>
<polygon fill="#aaaaaa" stroke="#aaaaaa" points="1864.6662,-1390.991 1863.0942,-1380.1384 1866.0432,-1386.1843 1867.4202,-1381.3777 1867.4202,-1381.3777 1867.4202,-1381.3777 1866.0432,-1386.1843 1871.7462,-1382.617 1864.6662,-1390.991 1864.6662,-1390.991"/>
</g>
<!-- taskmanDb -->
<g id="node7" class="node">
<title>taskmanDb</title>
<ellipse fill="#ffffff" stroke="#000000" cx="1644" cy="-1508.4916" rx="122.3786" ry="18"/>
<text text-anchor="middle" x="1644" y="-1504.7916" font-family="Times,serif" font-size="14.00" fill="#000000">taskman&#45;server&#45;schema</text>
</g>
<!-- taskmanDb&#45;&gt;baseDb -->
<g id="edge6" class="edge">
<title>taskmanDb&#45;&gt;baseDb</title>
<path fill="none" stroke="#cc0000" d="M1688.3939,-1525.3464C1729.1822,-1540.8323 1789.6025,-1563.7718 1832.2789,-1579.9746"/>
<polygon fill="#cc0000" stroke="#cc0000" points="1831.05,-1583.2517 1841.6412,-1583.5291 1833.5346,-1576.7075 1831.05,-1583.2517"/>
</g>
<!-- taskmanServerLogic -->
<g id="node8" class="node">
<title>taskmanServerLogic</title>
<ellipse fill="#ffffff" stroke="#000000" cx="1427" cy="-1313.0113" rx="108.5808" ry="18"/>
<text text-anchor="middle" x="1427" y="-1309.3113" font-family="Times,serif" font-size="14.00" fill="#000000">taskman&#45;server&#45;logic</text>
</g>
<!-- taskmanApiLogic -->
<g id="node10" class="node">
<title>taskmanApiLogic</title>
<ellipse fill="#ffffff" stroke="#000000" cx="1411" cy="-1508.4916" rx="92.8835" ry="18"/>
<text text-anchor="middle" x="1411" y="-1504.7916" font-family="Times,serif" font-size="14.00" fill="#000000">taskman&#45;api&#45;logic</text>
</g>
<!-- taskmanServerLogic&#45;&gt;taskmanApiLogic -->
<g id="edge13" class="edge">
<title>taskmanServerLogic&#45;&gt;taskmanApiLogic</title>
<path fill="none" stroke="#cc0000" d="M1425.5234,-1331.0513C1422.7325,-1365.1494 1416.664,-1439.291 1413.3225,-1480.1167"/>
<polygon fill="#cc0000" stroke="#cc0000" points="1409.8238,-1479.9588 1412.4963,-1490.211 1416.8004,-1480.5299 1409.8238,-1479.9588"/>
</g>
<!-- taskmanApi -->
<g id="node9" class="node">
<title>taskmanApi</title>
<ellipse fill="#ffffff" stroke="#000000" cx="1621" cy="-1313.0113" rx="67.6881" ry="18"/>
<text text-anchor="middle" x="1621" y="-1309.3113" font-family="Times,serif" font-size="14.00" fill="#000000">taskman&#45;api</text>
</g>
<!-- taskmanApi&#45;&gt;baseDb -->
<g id="edge9" class="edge">
<title>taskmanApi&#45;&gt;baseDb</title>
<path fill="none" stroke="#cc0000" d="M1637.3893,-1330.9157C1680.5965,-1378.1172 1798.0789,-1506.4601 1853.4176,-1566.9145"/>
<polygon fill="#cc0000" stroke="#cc0000" points="1851.1494,-1569.6202 1860.4832,-1574.6333 1856.3128,-1564.8938 1851.1494,-1569.6202"/>
</g>
<!-- taskmanApi&#45;&gt;baseTest -->
<g id="edge12" class="edge">
<title>taskmanApi&#45;&gt;baseTest</title>
<path fill="none" stroke="#111111" stroke-dasharray="5,2" d="M1679.9082,-1322.0281C1728.2874,-1330.2765 1792.2492,-1343.375 1814,-1357.8814 1823.537,-1364.2419 1831.6647,-1373.4817 1838.2016,-1382.8069"/>
<polygon fill="#111111" stroke="#111111" points="1835.3569,-1384.8522 1843.7524,-1391.3148 1841.2194,-1381.0272 1835.3569,-1384.8522"/>
<text text-anchor="middle" x="1844" y="-1361.6814" font-family="Times,serif" font-size="14.00" fill="#000000">test</text>
</g>
<!-- taskmanApi&#45;&gt;taskmanDb -->
<g id="edge11" class="edge">
<title>taskmanApi&#45;&gt;taskmanDb</title>
<path fill="none" stroke="#111111" stroke-dasharray="5,2" d="M1623.1226,-1331.0513C1627.1345,-1365.1494 1635.8579,-1439.291 1640.6614,-1480.1167"/>
<polygon fill="#111111" stroke="#111111" points="1637.2045,-1480.6886 1641.8491,-1490.211 1644.1565,-1479.8705 1637.2045,-1480.6886"/>
<text text-anchor="middle" x="1651" y="-1414.0514" font-family="Times,serif" font-size="14.00" fill="#000000">test</text>
</g>
<!-- taskmanApi&#45;&gt;taskmanApiLogic -->
<g id="edge8" class="edge">
<title>taskmanApi&#45;&gt;taskmanApiLogic</title>
<path fill="none" stroke="#cc0000" d="M1616.218,-1331.1379C1608.0312,-1358.9567 1588.8501,-1412.3378 1555,-1444.6215 1532.8704,-1465.7271 1502.6003,-1480.5806 1475.5227,-1490.6172"/>
<polygon fill="#cc0000" stroke="#cc0000" points="1474.3464,-1487.3207 1466.0968,-1493.9687 1476.6915,-1493.9162 1474.3464,-1487.3207"/>
</g>
<!-- taskmanApi&#45;&gt;taskmanApiLogic -->
<g id="edge10" class="edge">
<title>taskmanApi&#45;&gt;taskmanApiLogic</title>
<path fill="none" stroke="#111111" stroke-dasharray="5,2" d="M1589.8219,-1329.0481C1564.0566,-1343.2026 1527.392,-1365.4951 1500,-1390.8814 1470.3942,-1418.3194 1443.5021,-1456.5622 1427.2077,-1481.8987"/>
<polygon fill="#111111" stroke="#111111" points="1424.088,-1480.2835 1421.6987,-1490.6054 1430.0033,-1484.0264 1424.088,-1480.2835"/>
<text text-anchor="middle" x="1525.5" y="-1414.0514" font-family="Times,serif" font-size="14.00" fill="#000000">test&#45;lib</text>
</g>
<!-- taskmanApiLogic&#45;&gt;baseUtil -->
<g id="edge7" class="edge">
<title>taskmanApiLogic&#45;&gt;baseUtil</title>
<path fill="none" stroke="#cc0000" d="M1468.2522,-1522.8679C1505.0464,-1535.9306 1546,-1559.4135 1546,-1599.2317 1546,-1599.2317 1546,-1599.2317 1546,-1871.452 1546,-1921.729 1694.4506,-1945.6376 1788.8133,-1955.7566"/>
<polygon fill="#cc0000" stroke="#cc0000" points="1788.594,-1959.2526 1798.903,-1956.8084 1789.3198,-1952.2903 1788.594,-1959.2526"/>
</g>
<!-- taskmanServer -->
<g id="node11" class="node">
<title>taskmanServer</title>
<ellipse fill="#00ccff" stroke="#000000" cx="1599" cy="-1131.5311" rx="83.3857" ry="18"/>
<text text-anchor="middle" x="1599" y="-1127.8311" font-family="Times,serif" font-size="14.00" fill="#000000">taskman&#45;server</text>
</g>
<!-- taskmanServer&#45;&gt;taskmanDb -->
<g id="edge16" class="edge">
<title>taskmanServer&#45;&gt;taskmanDb</title>
<path fill="none" stroke="#cc0000" d="M1615.3396,-1149.3098C1639.014,-1176.411 1681.7926,-1230.7741 1698,-1286.1413 1718.4395,-1355.9661 1681.9944,-1439.688 1659.5962,-1481.6839"/>
<polygon fill="#cc0000" stroke="#cc0000" points="1656.5171,-1480.0198 1654.786,-1490.4723 1662.6575,-1483.3807 1656.5171,-1480.0198"/>
</g>
<!-- taskmanServer&#45;&gt;taskmanServerLogic -->
<g id="edge14" class="edge">
<title>taskmanServer&#45;&gt;taskmanServerLogic</title>
<path fill="none" stroke="#cc0000" d="M1582.1947,-1149.2626C1551.4959,-1181.6535 1486.265,-1250.4798 1450.9354,-1287.7567"/>
<polygon fill="#cc0000" stroke="#cc0000" points="1448.2121,-1285.5421 1443.8735,-1295.2078 1453.2928,-1290.3573 1448.2121,-1285.5421"/>
</g>
<!-- taskmanServer&#45;&gt;taskmanApi -->
<g id="edge15" class="edge">
<title>taskmanServer&#45;&gt;taskmanApi</title>
<path fill="none" stroke="#cc0000" d="M1601.1899,-1149.5956C1605.028,-1181.2564 1612.9957,-1246.9834 1617.5706,-1284.7219"/>
<polygon fill="#cc0000" stroke="#cc0000" points="1614.1409,-1285.5138 1618.819,-1295.0199 1621.09,-1284.6713 1614.1409,-1285.5138"/>
</g>
<!-- taskman -->
<g id="node12" class="node">
<title>taskman</title>
<ellipse fill="#ffff80" stroke="#000000" cx="1599" cy="-1002.791" rx="70.922" ry="26.7407"/>
<text text-anchor="middle" x="1599" y="-1006.591" font-family="Times,serif" font-size="14.00" fill="#000000">[aggregate]</text>
<text text-anchor="middle" x="1599" y="-991.591" font-family="Times,serif" font-size="14.00" fill="#000000">taskman</text>
</g>
<!-- taskman&#45;&gt;taskmanApi -->
<g id="edge55" class="edge">
<title>taskman&#45;&gt;taskmanApi</title>
<path fill="none" stroke="#aaaaaa" stroke-dasharray="5,2" d="M1657.7428,-1017.947C1680.4167,-1027.6449 1701,-1043.0803 1701,-1067.161 1701,-1067.161 1701,-1067.161 1701,-1222.2712 1701,-1250.6383 1678.7295,-1274.3318 1657.6892,-1290.3865"/>
<polygon fill="#aaaaaa" stroke="#aaaaaa" points="1649.4303,-1296.3692 1654.8888,-1286.8584 1653.4795,-1293.436 1657.5287,-1290.5027 1657.5287,-1290.5027 1657.5287,-1290.5027 1653.4795,-1293.436 1660.1686,-1294.147 1649.4303,-1296.3692 1649.4303,-1296.3692"/>
</g>
<!-- taskman&#45;&gt;taskmanServer -->
<g id="edge56" class="edge">
<title>taskman&#45;&gt;taskmanServer</title>
<path fill="none" stroke="#aaaaaa" stroke-dasharray="5,2" d="M1599,-1029.7791C1599,-1051.3227 1599,-1081.4153 1599,-1103.2833"/>
<polygon fill="#aaaaaa" stroke="#aaaaaa" points="1599,-1113.2843 1594.5001,-1103.2843 1599,-1108.2843 1599.0001,-1103.2843 1599.0001,-1103.2843 1599.0001,-1103.2843 1599,-1108.2843 1603.5001,-1103.2844 1599,-1113.2843 1599,-1113.2843"/>
</g>
<!-- webappMacro -->
<g id="node13" class="node">
<title>webappMacro</title>
<ellipse fill="#ffffff" stroke="#000000" cx="911" cy="-1871.452" rx="86.0347" ry="26.7407"/>
<text text-anchor="middle" x="911" y="-1875.252" font-family="Times,serif" font-size="14.00" fill="#000000">webapp&#45;macro</text>
<text text-anchor="middle" x="911" y="-1860.252" font-family="Times,serif" font-size="14.00" fill="#000000">(JVM &amp; JS)</text>
</g>
<!-- webappMacro&#45;&gt;baseUtil -->
<g id="edge17" class="edge">
<title>webappMacro&#45;&gt;baseUtil</title>
<path fill="none" stroke="#cc0000" d="M993.5773,-1879.3064C1176.4251,-1896.698 1613.1887,-1938.241 1789.3855,-1955"/>
<polygon fill="#cc0000" stroke="#cc0000" points="1789.3144,-1958.509 1799.6009,-1955.9717 1789.9773,-1951.5404 1789.3144,-1958.509"/>
</g>
<!-- webappBase -->
<g id="node14" class="node">
<title>webappBase</title>
<ellipse fill="#ffffff" stroke="#000000" cx="610" cy="-1689.9718" rx="77.5641" ry="26.7407"/>
<text text-anchor="middle" x="610" y="-1693.7718" font-family="Times,serif" font-size="14.00" fill="#000000">webapp&#45;base</text>
<text text-anchor="middle" x="610" y="-1678.7718" font-family="Times,serif" font-size="14.00" fill="#000000">(JVM &amp; JS)</text>
</g>
<!-- webappBase&#45;&gt;webappMacro -->
<g id="edge18" class="edge">
<title>webappBase&#45;&gt;webappMacro</title>
<path fill="none" stroke="#cc0000" d="M648.7343,-1713.3256C703.255,-1746.1975 802.6068,-1806.0991 862.1359,-1841.9906"/>
<polygon fill="#cc0000" stroke="#cc0000" points="860.6062,-1845.1553 870.9773,-1847.3213 864.2206,-1839.1606 860.6062,-1845.1553"/>
</g>
<!-- webappBaseMember -->
<g id="node15" class="node">
<title>webappBaseMember</title>
<ellipse fill="#ffffff" stroke="#000000" cx="811" cy="-1508.4916" rx="122.1592" ry="26.7407"/>
<text text-anchor="middle" x="811" y="-1512.2916" font-family="Times,serif" font-size="14.00" fill="#000000">webapp&#45;base&#45;member</text>
<text text-anchor="middle" x="811" y="-1497.2916" font-family="Times,serif" font-size="14.00" fill="#000000">(JVM &amp; JS)</text>
</g>
<!-- webappBaseMember&#45;&gt;webappBase -->
<g id="edge24" class="edge">
<title>webappBaseMember&#45;&gt;webappBase</title>
<path fill="none" stroke="#cc0000" d="M781.7729,-1534.8803C745.6381,-1567.5059 684.1768,-1622.9985 645.4041,-1658.0059"/>
<polygon fill="#cc0000" stroke="#cc0000" points="643.0431,-1655.422 637.9664,-1664.7213 647.7342,-1660.6176 643.0431,-1655.422"/>
</g>
<!-- webappServerLogic -->
<g id="node16" class="node">
<title>webappServerLogic</title>
<ellipse fill="#ffffff" stroke="#000000" cx="662" cy="-535.8305" rx="113.6886" ry="26.7407"/>
<text text-anchor="middle" x="662" y="-539.6305" font-family="Times,serif" font-size="14.00" fill="#000000">webapp&#45;server&#45;logic</text>
<text text-anchor="middle" x="662" y="-524.6305" font-family="Times,serif" font-size="14.00" fill="#000000">(JVM &amp; JS)</text>
</g>
<!-- webappServerLogic&#45;&gt;taskmanApiLogic -->
<g id="edge20" class="edge">
<title>webappServerLogic&#45;&gt;taskmanApiLogic</title>
<path fill="none" stroke="#cc0000" d="M587.1984,-556.2112C572.2282,-562.4909 557.3327,-570.523 545,-580.7006 515.8253,-604.777 500,-615.1142 500,-652.9407 500,-652.9407 500,-652.9407 500,-1417.7514 500,-1507.5877 1217.3809,-1466.8831 1306,-1481.6215 1320.3273,-1484.0043 1335.5604,-1487.393 1349.8506,-1490.9643"/>
<polygon fill="#cc0000" stroke="#cc0000" points="1349.0146,-1494.3631 1359.5705,-1493.4559 1350.7528,-1487.5823 1349.0146,-1494.3631"/>
</g>
<!-- webappServerLogic&#45;&gt;webappBaseMember -->
<g id="edge19" class="edge">
<title>webappServerLogic&#45;&gt;webappBaseMember</title>
<path fill="none" stroke="#cc0000" d="M596.5767,-557.826C585.8443,-563.8447 575.7244,-571.3664 568,-580.7006 546.8342,-606.2771 549,-619.742 549,-652.9407 549,-652.9407 549,-652.9407 549,-1048.161 549,-1086.2657 529,-1093.4265 529,-1131.5311 529,-1131.5311 529,-1131.5311 529,-1365.3814 529,-1442.777 614.512,-1478.3301 691.3587,-1494.6542"/>
<polygon fill="#cc0000" stroke="#cc0000" points="690.6675,-1498.0852 701.164,-1496.645 692.0603,-1491.2252 690.6675,-1498.0852"/>
</g>
<!-- webappSsrJvm -->
<g id="node19" class="node">
<title>webappSsrJvm</title>
<ellipse fill="#ffffff" stroke="#000000" cx="662" cy="-717.3107" rx="69.0935" ry="26.7407"/>
<text text-anchor="middle" x="662" y="-721.1107" font-family="Times,serif" font-size="14.00" fill="#000000">webapp&#45;ssr</text>
<text text-anchor="middle" x="662" y="-706.1107" font-family="Times,serif" font-size="14.00" fill="#000000">(JVM)</text>
</g>
<!-- webappServerLogic&#45;&gt;webappSsrJvm -->
<g id="edge22" class="edge">
<title>webappServerLogic&#45;&gt;webappSsrJvm</title>
<path fill="none" stroke="#cc0000" d="M662,-562.9999C662,-594.0948 662,-645.2048 662,-680.0133"/>
<polygon fill="#cc0000" stroke="#cc0000" points="658.5001,-680.2524 662,-690.2524 665.5001,-680.2524 658.5001,-680.2524"/>
</g>
<!-- webappClientPublic -->
<g id="node21" class="node">
<title>webappClientPublic</title>
<ellipse fill="#00ccff" stroke="#000000" cx="665" cy="-1131.5311" rx="117.2596" ry="26.7407"/>
<text text-anchor="middle" x="665" y="-1135.3311" font-family="Times,serif" font-size="14.00" fill="#000000">webapp&#45;client&#45;public</text>
<text text-anchor="middle" x="665" y="-1120.3311" font-family="Times,serif" font-size="14.00" fill="#000000">(JVM &amp; JS)</text>
</g>
<!-- webappServerLogic&#45;&gt;webappClientPublic -->
<g id="edge21" class="edge">
<title>webappServerLogic&#45;&gt;webappClientPublic</title>
<path fill="none" stroke="#cc0000" d="M624.9767,-561.3376C599.042,-582.4992 569,-615.1649 569,-652.9407 569,-652.9407 569,-652.9407 569,-1067.161 569,-1082.5519 577.6173,-1094.4985 589.6884,-1103.6831"/>
<polygon fill="#cc0000" stroke="#cc0000" points="587.8152,-1106.6413 598.0637,-1109.3283 591.7277,-1100.8368 587.8152,-1106.6413"/>
</g>
<!-- webappBaseTest -->
<g id="node26" class="node">
<title>webappBaseTest</title>
<ellipse fill="#ffffff" stroke="#0000ff" cx="940" cy="-1313.0113" rx="100.3184" ry="26.7407"/>
<text text-anchor="middle" x="940" y="-1316.8113" font-family="Times,serif" font-size="14.00" fill="#000000">webapp&#45;base&#45;test</text>
<text text-anchor="middle" x="940" y="-1301.8113" font-family="Times,serif" font-size="14.00" fill="#000000">(JVM &amp; JS)</text>
</g>
<!-- webappServerLogic&#45;&gt;webappBaseTest -->
<g id="edge23" class="edge">
<title>webappServerLogic&#45;&gt;webappBaseTest</title>
<path fill="none" stroke="#111111" stroke-dasharray="5,2" d="M703.5971,-560.8596C732.1834,-581.5465 765,-613.8151 765,-652.9407 765,-652.9407 765,-652.9407 765,-905.4209 765,-960.8173 729.2902,-980.592 755,-1029.661 761.5228,-1042.1103 769.6246,-1039.4069 781,-1047.661 792.2955,-1055.8572 797.9084,-1055.2904 806,-1066.661 830.8725,-1101.6125 819.5868,-1118.7671 836,-1158.4012 853.2996,-1200.1758 857.0497,-1211.4335 882,-1249.1413 888.9092,-1259.5833 897.4906,-1270.0162 905.9153,-1279.3325"/>
<polygon fill="#111111" stroke="#111111" points="903.546,-1281.9245 912.9151,-1286.8712 908.6757,-1277.1615 903.546,-1281.9245"/>
<text text-anchor="middle" x="778" y="-927.7209" font-family="Times,serif" font-size="14.00" fill="#000000">test</text>
</g>
<!-- webappClientWwApi -->
<g id="node17" class="node">
<title>webappClientWwApi</title>
<ellipse fill="#ffffff" stroke="#000000" cx="1072" cy="-1131.5311" rx="121.7449" ry="26.7407"/>
<text text-anchor="middle" x="1072" y="-1135.3311" font-family="Times,serif" font-size="14.00" fill="#000000">webapp&#45;client&#45;ww&#45;api</text>
<text text-anchor="middle" x="1072" y="-1120.3311" font-family="Times,serif" font-size="14.00" fill="#000000">(JS)</text>
</g>
<!-- webappClientWwApi&#45;&gt;webappBaseMember -->
<g id="edge31" class="edge">
<title>webappClientWwApi&#45;&gt;webappBaseMember</title>
<path fill="none" stroke="#cc0000" d="M1075.6993,-1158.6954C1080.0252,-1200.6859 1082.7923,-1282.495 1049,-1339.8814 1009.996,-1406.1184 933.5652,-1453.0876 877.8074,-1480.3498"/>
<polygon fill="#cc0000" stroke="#cc0000" points="876.2001,-1477.2389 868.6975,-1484.7196 879.2276,-1483.5504 876.2001,-1477.2389"/>
</g>
<!-- webappSsrShared -->
<g id="node18" class="node">
<title>webappSsrShared</title>
<ellipse fill="#ffffff" stroke="#000000" cx="657" cy="-1002.791" rx="69.0935" ry="26.7407"/>
<text text-anchor="middle" x="657" y="-1006.591" font-family="Times,serif" font-size="14.00" fill="#000000">webapp&#45;ssr</text>
<text text-anchor="middle" x="657" y="-991.591" font-family="Times,serif" font-size="14.00" fill="#000000">(JVM &amp; JS)</text>
</g>
<!-- webappSsrShared&#45;&gt;webappBaseMember -->
<g id="edge36" class="edge">
<title>webappSsrShared&#45;&gt;webappBaseMember</title>
<path fill="none" stroke="#cc0000" d="M708.9873,-1020.8779C750.2344,-1036.0132 801,-1056.7551 801,-1067.161 801,-1067.161 801,-1067.161 801,-1417.7514 801,-1435.4328 802.8991,-1454.9362 805.0422,-1471.3157"/>
<polygon fill="#cc0000" stroke="#cc0000" points="801.625,-1472.1546 806.4681,-1481.5777 808.5584,-1471.1911 801.625,-1472.1546"/>
</g>
<!-- webappSsrShared&#45;&gt;webappClientPublic -->
<g id="edge37" class="edge">
<title>webappSsrShared&#45;&gt;webappClientPublic</title>
<path fill="none" stroke="#cc0000" d="M658.6771,-1029.7791C659.8451,-1048.5756 661.4175,-1073.8799 662.7021,-1094.5515"/>
<polygon fill="#cc0000" stroke="#cc0000" points="659.2116,-1094.8148 663.3251,-1104.5785 666.1981,-1094.3806 659.2116,-1094.8148"/>
</g>
<!-- webappSsrJvm&#45;&gt;webappSsrShared -->
<g id="edge38" class="edge">
<title>webappSsrJvm&#45;&gt;webappSsrShared</title>
<path fill="none" stroke="#cc0000" d="M620.8065,-739.2434C604.2481,-751.2537 589,-767.9435 589,-788.6808 589,-788.6808 589,-788.6808 589,-931.4209 589,-948.0031 598.7408,-962.2567 610.8489,-973.5691"/>
<polygon fill="#cc0000" stroke="#cc0000" points="608.7548,-976.3837 618.628,-980.2271 613.3065,-971.0656 608.7548,-976.3837"/>
</g>
<!-- webappSsrJs -->
<g id="node20" class="node">
<title>webappSsrJs</title>
<ellipse fill="#ffffff" stroke="#000000" cx="677" cy="-860.0509" rx="69.0935" ry="26.7407"/>
<text text-anchor="middle" x="677" y="-863.8509" font-family="Times,serif" font-size="14.00" fill="#000000">webapp&#45;ssr</text>
<text text-anchor="middle" x="677" y="-848.8509" font-family="Times,serif" font-size="14.00" fill="#000000">(JS)</text>
</g>
<!-- webappSsrJvm&#45;&gt;webappSsrJs -->
<g id="edge42" class="edge">
<title>webappSsrJvm&#45;&gt;webappSsrJs</title>
<path fill="none" stroke="#111111" stroke-dasharray="5,2" d="M664.8214,-744.1591C667.1531,-766.3475 670.4893,-798.0948 673.0805,-822.7526"/>
<polygon fill="#111111" stroke="#111111" points="669.6142,-823.2582 674.1403,-832.8376 676.5759,-822.5266 669.6142,-823.2582"/>
<text text-anchor="middle" x="679" y="-784.9808" font-family="Times,serif" font-size="14.00" fill="#000000">JS</text>
</g>
<!-- webappSsrJs&#45;&gt;webappSsrShared -->
<g id="edge39" class="edge">
<title>webappSsrJs&#45;&gt;webappSsrShared</title>
<path fill="none" stroke="#cc0000" d="M673.2382,-886.8992C670.1292,-909.0876 665.681,-940.8349 662.226,-965.4927"/>
<polygon fill="#cc0000" stroke="#cc0000" points="658.7345,-965.1888 660.813,-975.5777 665.6668,-966.1602 658.7345,-965.1888"/>
</g>
<!-- webappClientHome -->
<g id="node22" class="node">
<title>webappClientHome</title>
<ellipse fill="#00ccff" stroke="#000000" cx="878" cy="-1002.791" rx="113.6886" ry="26.7407"/>
<text text-anchor="middle" x="878" y="-1006.591" font-family="Times,serif" font-size="14.00" fill="#000000">webapp&#45;client&#45;home</text>
<text text-anchor="middle" x="878" y="-991.591" font-family="Times,serif" font-size="14.00" fill="#000000">(JS)</text>
</g>
<!-- webappSsrJs&#45;&gt;webappClientHome -->
<g id="edge40" class="edge">
<title>webappSsrJs&#45;&gt;webappClientHome</title>
<path fill="none" stroke="#cc0000" d="M687.3027,-886.8315C694.9572,-903.6973 706.8671,-924.8615 723,-938.9209 742.8549,-956.2239 768.0394,-969.2747 792.3051,-978.9175"/>
<polygon fill="#cc0000" stroke="#cc0000" points="791.3145,-982.2855 801.9053,-982.5794 793.8093,-975.7452 791.3145,-982.2855"/>
</g>
<!-- webappClientProject -->
<g id="node24" class="node">
<title>webappClientProject</title>
<ellipse fill="#00ccff" stroke="#000000" cx="1152" cy="-1002.791" rx="122.1592" ry="26.7407"/>
<text text-anchor="middle" x="1152" y="-1006.591" font-family="Times,serif" font-size="14.00" fill="#000000">webapp&#45;client&#45;project</text>
<text text-anchor="middle" x="1152" y="-991.591" font-family="Times,serif" font-size="14.00" fill="#000000">(JS)</text>
</g>
<!-- webappSsrJs&#45;&gt;webappClientProject -->
<g id="edge41" class="edge">
<title>webappSsrJs&#45;&gt;webappClientProject</title>
<path fill="none" stroke="#cc0000" d="M691.8093,-886.6701C703.3055,-904.6127 720.9799,-927.0916 743,-938.9209 844.6496,-993.5279 887.2637,-948.4627 1001,-967.9209 1020.7376,-971.2977 1041.7615,-975.6583 1061.6555,-980.1453"/>
<polygon fill="#cc0000" stroke="#cc0000" points="1061.1018,-983.6089 1071.6304,-982.4262 1062.6622,-976.785 1061.1018,-983.6089"/>
</g>
<!-- webappClientPublic&#45;&gt;webappBase -->
<g id="edge29" class="edge">
<title>webappClientPublic&#45;&gt;webappBase</title>
<path fill="none" stroke="#cc0000" d="M602.9249,-1154.449C575.345,-1169.0073 549,-1191.0777 549,-1222.2712 549,-1222.2712 549,-1222.2712 549,-1599.2317 549,-1620.9278 561.1596,-1641.3384 574.6209,-1657.2865"/>
<polygon fill="#cc0000" stroke="#cc0000" points="572.0123,-1659.6201 581.2862,-1664.7432 577.2313,-1654.955 572.0123,-1659.6201"/>
</g>
<!-- webappClientPublic&#45;&gt;webappBaseTest -->
<g id="edge30" class="edge">
<title>webappClientPublic&#45;&gt;webappBaseTest</title>
<path fill="none" stroke="#111111" stroke-dasharray="5,2" d="M688.6939,-1157.9473C712.2712,-1183.28 750.285,-1221.6328 788,-1249.1413 802.3002,-1259.5715 806.9246,-1260.7342 823,-1268.1413 837.8898,-1275.0021 854.152,-1281.7118 869.6883,-1287.7649"/>
<polygon fill="#111111" stroke="#111111" points="868.6594,-1291.1192 879.2493,-1291.4445 871.1737,-1284.5863 868.6594,-1291.1192"/>
<text text-anchor="middle" x="802" y="-1218.5712" font-family="Times,serif" font-size="14.00" fill="#000000">test</text>
</g>
<!-- webappClientHome&#45;&gt;webappBaseMember -->
<g id="edge27" class="edge">
<title>webappClientHome&#45;&gt;webappBaseMember</title>
<path fill="none" stroke="#cc0000" d="M854.7774,-1029.1192C847.3436,-1040.1132 841,-1053.4977 841,-1067.161 841,-1067.161 841,-1067.161 841,-1176.9012 841,-1225.6553 835.4061,-1237.5866 831,-1286.1413 825.082,-1351.3575 818.264,-1427.3409 814.3118,-1471.4728"/>
<polygon fill="#cc0000" stroke="#cc0000" points="810.8242,-1471.1784 813.4184,-1481.4507 817.7963,-1471.8026 810.8242,-1471.1784"/>
</g>
<!-- webappClientHome&#45;&gt;webappBaseTest -->
<g id="edge28" class="edge">
<title>webappClientHome&#45;&gt;webappBaseTest</title>
<path fill="none" stroke="#111111" stroke-dasharray="5,2" d="M883.4946,-1029.923C885.3684,-1041.3661 887,-1054.8614 887,-1067.161 887,-1067.161 887,-1067.161 887,-1222.2712 887,-1242.7784 897.2183,-1262.7712 908.6814,-1278.7476"/>
<polygon fill="#111111" stroke="#111111" points="905.9028,-1280.876 914.7418,-1286.7175 911.4749,-1276.6389 905.9028,-1280.876"/>
<text text-anchor="middle" x="901" y="-1127.8311" font-family="Times,serif" font-size="14.00" fill="#000000">test</text>
</g>
<!-- webappClientWw -->
<g id="node23" class="node">
<title>webappClientWw</title>
<ellipse fill="#00ccff" stroke="#000000" cx="1107" cy="-607.5706" rx="103.4757" ry="26.7407"/>
<text text-anchor="middle" x="1107" y="-611.3706" font-family="Times,serif" font-size="14.00" fill="#000000">webapp&#45;client&#45;ww</text>
<text text-anchor="middle" x="1107" y="-596.3706" font-family="Times,serif" font-size="14.00" fill="#000000">(JS)</text>
</g>
<!-- webappClientWw&#45;&gt;webappClientWwApi -->
<g id="edge32" class="edge">
<title>webappClientWw&#45;&gt;webappClientWwApi</title>
<path fill="none" stroke="#cc0000" d="M1047.1419,-629.5078C1031.0425,-639.4398 1018,-653.2529 1018,-671.9407 1018,-671.9407 1018,-671.9407 1018,-905.4209 1018,-960.6548 1007.6482,-976.0652 1021,-1029.661 1026.7933,-1052.9161 1038.5283,-1076.9795 1049.2824,-1095.876"/>
<polygon fill="#cc0000" stroke="#cc0000" points="1046.3811,-1097.848 1054.4525,-1104.7112 1052.4227,-1094.3126 1046.3811,-1097.848"/>
</g>
<!-- webappClientWw&#45;&gt;webappBaseTest -->
<g id="edge33" class="edge">
<title>webappClientWw&#45;&gt;webappBaseTest</title>
<path fill="none" stroke="#111111" stroke-dasharray="5,2" d="M1147.6631,-632.5533C1159.3494,-642.9442 1169,-656.2694 1169,-671.9407 1169,-671.9407 1169,-671.9407 1169,-905.4209 1169,-949.0976 1280.7631,-964.7307 1283,-967.9209 1319.3969,-1019.8292 1278.4383,-1202.9642 1235,-1249.1413 1209.1527,-1276.6183 1119.0678,-1293.3911 1045.1773,-1302.8088"/>
<polygon fill="#111111" stroke="#111111" points="1044.3593,-1299.3835 1034.8669,-1304.0893 1045.2221,-1306.3301 1044.3593,-1299.3835"/>
<text text-anchor="middle" x="1210" y="-927.7209" font-family="Times,serif" font-size="14.00" fill="#000000">test</text>
</g>
<!-- webappClientProject&#45;&gt;webappClientWwApi -->
<g id="edge34" class="edge">
<title>webappClientProject&#45;&gt;webappClientWwApi</title>
<path fill="none" stroke="#cc0000" d="M1135.4239,-1029.466C1123.4102,-1048.7991 1107.0439,-1075.1367 1093.9459,-1096.2146"/>
<polygon fill="#cc0000" stroke="#cc0000" points="1090.8601,-1094.5492 1088.5548,-1104.8902 1096.8057,-1098.2439 1090.8601,-1094.5492"/>
</g>
<!-- webappClientProject&#45;&gt;webappBaseTest -->
<g id="edge35" class="edge">
<title>webappClientProject&#45;&gt;webappBaseTest</title>
<path fill="none" stroke="#111111" stroke-dasharray="5,2" d="M1205.3203,-1027.0418C1219.0313,-1037.04 1230,-1050.3059 1230,-1067.161 1230,-1067.161 1230,-1067.161 1230,-1222.2712 1230,-1262.7627 1125.7226,-1287.321 1042.2272,-1300.4949"/>
<polygon fill="#111111" stroke="#111111" points="1041.5072,-1297.0644 1032.1563,-1302.0454 1042.5724,-1303.9829 1041.5072,-1297.0644"/>
<text text-anchor="middle" x="1244" y="-1127.8311" font-family="Times,serif" font-size="14.00" fill="#000000">test</text>
</g>
<!-- webappServer -->
<g id="node25" class="node">
<title>webappServer</title>
<ellipse fill="#00ccff" stroke="#000000" cx="812" cy="-363.2203" rx="79.0865" ry="18"/>
<text text-anchor="middle" x="812" y="-359.5203" font-family="Times,serif" font-size="14.00" fill="#000000">webapp&#45;server</text>
</g>
<!-- webappServer&#45;&gt;taskmanApi -->
<g id="edge43" class="edge">
<title>webappServer&#45;&gt;taskmanApi</title>
<path fill="none" stroke="#cc0000" d="M885.9434,-369.7274C1009.6133,-381.6172 1245,-408.9894 1245,-445.0904 1245,-445.0904 1245,-445.0904 1245,-905.4209 1245,-941.2732 1278.8466,-936.4385 1296,-967.9209 1313.9359,-1000.8395 1322,-1010.6733 1322,-1048.161 1322,-1048.161 1322,-1048.161 1322,-1222.2712 1322,-1325.3674 1446.7989,-1254.7507 1545,-1286.1413 1553.5231,-1288.8657 1562.5295,-1291.9054 1571.2462,-1294.9329"/>
<polygon fill="#cc0000" stroke="#cc0000" points="1570.3285,-1298.32 1580.9233,-1298.3283 1572.6461,-1291.7148 1570.3285,-1298.32"/>
</g>
<!-- webappServer&#45;&gt;webappServerLogic -->
<g id="edge44" class="edge">
<title>webappServer&#45;&gt;webappServerLogic</title>
<path fill="none" stroke="#cc0000" d="M796.5123,-381.0425C771.8775,-409.3907 723.3348,-465.2504 691.7985,-501.5404"/>
<polygon fill="#cc0000" stroke="#cc0000" points="688.8703,-499.5741 684.9527,-509.418 694.154,-504.1657 688.8703,-499.5741"/>
</g>
<!-- webappServer&#45;&gt;webappClientPublic -->
<g id="edge46" class="edge">
<title>webappServer&#45;&gt;webappClientPublic</title>
<path fill="none" stroke="#cc0000" stroke-dasharray="5,2" d="M756.3,-376.1053C692.2242,-394.1073 589.3895,-433.4277 539,-508.9605 514.5531,-545.6059 529,-563.5191 529,-607.5706 529,-607.5706 529,-607.5706 529,-1048.161 529,-1076.1551 550.2035,-1095.0402 575.866,-1107.6452"/>
<polygon fill="#cc0000" stroke="#cc0000" points="574.5499,-1110.8916 585.1016,-1111.8465 577.4484,-1104.5199 574.5499,-1110.8916"/>
</g>
<!-- webappServer&#45;&gt;webappClientHome -->
<g id="edge47" class="edge">
<title>webappServer&#45;&gt;webappClientHome</title>
<path fill="none" stroke="#cc0000" stroke-dasharray="5,2" d="M812,-381.4298C812,-398.0208 812,-423.2015 812,-445.0904 812,-445.0904 812,-445.0904 812,-931.4209 812,-946.3673 819.8988,-959.5139 830.2314,-970.3172"/>
<polygon fill="#cc0000" stroke="#cc0000" points="828.0447,-973.0674 837.7063,-977.4153 832.8649,-967.9913 828.0447,-973.0674"/>
</g>
<!-- webappServer&#45;&gt;webappClientWw -->
<g id="edge49" class="edge">
<title>webappServer&#45;&gt;webappClientWw</title>
<path fill="none" stroke="#cc0000" stroke-dasharray="5,2" d="M881.127,-372.0397C921.0745,-378.2276 966.5885,-387.4861 983,-399.2203 1042.9388,-442.0767 1078.8848,-523.7405 1095.6247,-571.102"/>
<polygon fill="#cc0000" stroke="#cc0000" points="1092.3491,-572.3401 1098.907,-580.6614 1098.9698,-570.0668 1092.3491,-572.3401"/>
</g>
<!-- webappServer&#45;&gt;webappClientProject -->
<g id="edge48" class="edge">
<title>webappServer&#45;&gt;webappClientProject</title>
<path fill="none" stroke="#cc0000" stroke-dasharray="5,2" d="M861.8055,-377.4153C910.7018,-392.8714 978,-418.9013 978,-445.0904 978,-445.0904 978,-445.0904 978,-905.4209 978,-944.274 1011.4466,-967.7749 1049.0117,-981.917"/>
<polygon fill="#cc0000" stroke="#cc0000" points="1048.0382,-985.285 1058.633,-985.3144 1050.369,-978.6844 1048.0382,-985.285"/>
</g>
<!-- webappSsr -->
<g id="node34" class="node">
<title>webappSsr</title>
<ellipse fill="#d3d3d3" stroke="#000000" cx="450" cy="-445.0904" rx="62.2891" ry="18"/>
<text text-anchor="middle" x="450" y="-441.3904" font-family="Times,serif" font-size="14.00" fill="#000000">webappSsr</text>
</g>
<!-- webappServer&#45;&gt;webappSsr -->
<g id="edge45" class="edge">
<title>webappServer&#45;&gt;webappSsr</title>
<path fill="none" stroke="#cc0000" d="M736.7937,-369.1307C665.4465,-375.3783 563.7035,-386.1321 526,-399.2203 510.1158,-404.7344 493.9668,-413.8797 480.6639,-422.5598"/>
<polygon fill="#cc0000" stroke="#cc0000" points="478.7004,-419.6623 472.3643,-428.1538 482.6128,-425.467 478.7004,-419.6623"/>
</g>
<!-- webappBaseTest&#45;&gt;baseTest -->
<g id="edge25" class="edge">
<title>webappBaseTest&#45;&gt;baseTest</title>
<path fill="none" stroke="#111111" d="M1036.3318,-1320.6793C1241.1425,-1337.1684 1706.999,-1375.7291 1778,-1390.8814 1784.6633,-1392.3034 1791.5447,-1394.1098 1798.3391,-1396.1114"/>
<polygon fill="#111111" stroke="#111111" points="1797.6082,-1399.5489 1808.196,-1399.1616 1799.6776,-1392.8618 1797.6082,-1399.5489"/>
</g>
<!-- webappBaseTest&#45;&gt;webappBaseMember -->
<g id="edge26" class="edge">
<title>webappBaseTest&#45;&gt;webappBaseMember</title>
<path fill="none" stroke="#111111" d="M922.3336,-1339.7821C899.5276,-1374.3412 859.7732,-1434.583 834.4544,-1472.9499"/>
<polygon fill="#111111" stroke="#111111" points="831.2463,-1471.4569 828.6596,-1481.7311 837.0888,-1475.3125 831.2463,-1471.4569"/>
</g>
<!-- webapp -->
<g id="node27" class="node">
<title>webapp</title>
<ellipse fill="#ffff80" stroke="#0000ff" cx="1090" cy="-208.3503" rx="70.922" ry="26.7407"/>
<text text-anchor="middle" x="1090" y="-212.1503" font-family="Times,serif" font-size="14.00" fill="#000000">[aggregate]</text>
<text text-anchor="middle" x="1090" y="-197.1503" font-family="Times,serif" font-size="14.00" fill="#000000">webapp</text>
</g>
<!-- webapp&#45;&gt;webappClientHome -->
<g id="edge58" class="edge">
<title>webapp&#45;&gt;webappClientHome</title>
<path fill="none" stroke="#aaaaaa" stroke-dasharray="5,2" d="M1080.5009,-235.0159C1056.9951,-303.466 998,-491.3574 998,-652.9407 998,-652.9407 998,-652.9407 998,-931.4209 998,-952.8616 983.6739,-968.0063 964.9216,-978.6462"/>
<polygon fill="#aaaaaa" stroke="#aaaaaa" points="956.0298,-983.2242 962.8607,-974.6458 960.4752,-980.9355 964.9206,-978.6467 964.9206,-978.6467 964.9206,-978.6467 960.4752,-980.9355 966.9805,-982.6475 956.0298,-983.2242 956.0298,-983.2242"/>
</g>
<!-- webapp&#45;&gt;webappClientWw -->
<g id="edge60" class="edge">
<title>webapp&#45;&gt;webappClientWw</title>
<path fill="none" stroke="#aaaaaa" stroke-dasharray="5,2" d="M1094.9414,-235.1674C1097.4608,-251.1043 1100,-271.7486 1100,-290.2203 1100,-290.2203 1100,-290.2203 1100,-490.4605 1100,-517.3079 1101.8558,-547.5559 1103.6563,-570.5849"/>
<polygon fill="#aaaaaa" stroke="#aaaaaa" points="1104.4728,-580.6196 1099.1766,-571.0176 1104.0673,-575.6361 1103.6617,-570.6526 1103.6617,-570.6526 1103.6617,-570.6526 1104.0673,-575.6361 1108.1469,-570.2876 1104.4728,-580.6196 1104.4728,-580.6196"/>
</g>
<!-- webapp&#45;&gt;webappClientProject -->
<g id="edge57" class="edge">
<title>webapp&#45;&gt;webappClientProject</title>
<path fill="none" stroke="#aaaaaa" stroke-dasharray="5,2" d="M1149.6791,-222.9941C1182.2462,-234.9381 1216,-255.6548 1216,-290.2203 1216,-290.2203 1216,-290.2203 1216,-931.4209 1216,-946.1603 1208.3405,-959.2431 1198.3211,-970.0515"/>
<polygon fill="#aaaaaa" stroke="#aaaaaa" points="1191.0727,-977.1633 1195.0591,-966.9476 1194.6417,-973.6615 1198.2107,-970.1598 1198.2107,-970.1598 1198.2107,-970.1598 1194.6417,-973.6615 1201.3623,-973.3719 1191.0727,-977.1633 1191.0727,-977.1633"/>
</g>
<!-- webapp&#45;&gt;webappServer -->
<g id="edge59" class="edge">
<title>webapp&#45;&gt;webappServer</title>
<path fill="none" stroke="#aaaaaa" stroke-dasharray="5,2" d="M1049.8733,-230.7043C996.8222,-260.2584 903.9311,-312.0068 851.2984,-341.3277"/>
<polygon fill="#aaaaaa" stroke="#aaaaaa" points="842.2707,-346.3569 848.8166,-337.5591 846.6387,-343.9236 851.0066,-341.4902 851.0066,-341.4902 851.0066,-341.4902 846.6387,-343.9236 853.1967,-345.4214 842.2707,-346.3569 842.2707,-346.3569"/>
</g>
<!-- benchmark -->
<g id="node28" class="node">
<title>benchmark</title>
<ellipse fill="#ffffdd" stroke="#000000" cx="295" cy="-117.6102" rx="70.922" ry="26.7407"/>
<text text-anchor="middle" x="295" y="-121.4102" font-family="Times,serif" font-size="14.00" fill="#000000">[aggregate]</text>
<text text-anchor="middle" x="295" y="-106.4102" font-family="Times,serif" font-size="14.00" fill="#000000">benchmark</text>
</g>
<!-- benchmarkJvm -->
<g id="node29" class="node">
<title>benchmarkJvm</title>
<ellipse fill="#ffcccc" stroke="#000000" cx="114" cy="-290.2203" rx="86.3847" ry="18"/>
<text text-anchor="middle" x="114" y="-286.5203" font-family="Times,serif" font-size="14.00" fill="#000000">benchmark JVM</text>
</g>
<!-- benchmark&#45;&gt;benchmarkJvm -->
<g id="edge65" class="edge">
<title>benchmark&#45;&gt;benchmarkJvm</title>
<path fill="none" stroke="#aaaaaa" stroke-dasharray="5,2" d="M268.681,-142.7092C234.2253,-175.5678 174.1974,-232.8133 139.9336,-265.4889"/>
<polygon fill="#aaaaaa" stroke="#aaaaaa" points="132.6237,-272.4599 136.7549,-262.3019 136.2421,-269.0092 139.8606,-265.5585 139.8606,-265.5585 139.8606,-265.5585 136.2421,-269.0092 142.9662,-268.8151 132.6237,-272.4599 132.6237,-272.4599"/>
</g>
<!-- benchmarkJs -->
<g id="node30" class="node">
<title>benchmarkJs</title>
<ellipse fill="#ffcccc" stroke="#000000" cx="295" cy="-290.2203" rx="76.8869" ry="18"/>
<text text-anchor="middle" x="295" y="-286.5203" font-family="Times,serif" font-size="14.00" fill="#000000">benchmark JS</text>
</g>
<!-- benchmark&#45;&gt;benchmarkJs -->
<g id="edge66" class="edge">
<title>benchmark&#45;&gt;benchmarkJs</title>
<path fill="none" stroke="#aaaaaa" stroke-dasharray="5,2" d="M295,-144.5805C295,-176.4407 295,-229.2101 295,-261.7218"/>
<polygon fill="#aaaaaa" stroke="#aaaaaa" points="295,-271.9114 290.5001,-261.9114 295,-266.9114 295.0001,-261.9114 295.0001,-261.9114 295.0001,-261.9114 295,-266.9114 299.5001,-261.9115 295,-271.9114 295,-271.9114"/>
</g>
<!-- benchmarkJvm&#45;&gt;webappServer -->
<g id="edge52" class="edge">
<title>benchmarkJvm&#45;&gt;webappServer</title>
<path fill="none" stroke="#cc0000" d="M175.9465,-302.8479C186.9272,-304.8316 198.2773,-306.7191 209,-308.2203 391.8436,-333.8204 607.6224,-350.1814 725.0852,-357.9311"/>
<polygon fill="#cc0000" stroke="#cc0000" points="724.8947,-361.426 735.102,-358.5867 725.352,-354.4409 724.8947,-361.426"/>
</g>
<!-- benchmarkShared -->
<g id="node31" class="node">
<title>benchmarkShared</title>
<ellipse fill="#ffcccc" stroke="#000000" cx="205" cy="-445.0904" rx="69.0935" ry="26.7407"/>
<text text-anchor="middle" x="205" y="-448.8904" font-family="Times,serif" font-size="14.00" fill="#000000">benchmark</text>
<text text-anchor="middle" x="205" y="-433.8904" font-family="Times,serif" font-size="14.00" fill="#000000">base</text>
</g>
<!-- benchmarkJvm&#45;&gt;benchmarkShared -->
<g id="edge50" class="edge">
<title>benchmarkJvm&#45;&gt;benchmarkShared</title>
<path fill="none" stroke="#cc0000" d="M124.617,-308.289C139.2108,-333.1258 165.7702,-378.3265 184.3521,-409.9504"/>
<polygon fill="#cc0000" stroke="#cc0000" points="181.5188,-412.0373 189.6025,-418.8859 187.554,-408.491 181.5188,-412.0373"/>
</g>
<!-- benchmarkJs&#45;&gt;webappClientProject -->
<g id="edge53" class="edge">
<title>benchmarkJs&#45;&gt;webappClientProject</title>
<path fill="none" stroke="#cc0000" d="M370.4309,-293.7733C585.9407,-304.6051 1193.1541,-340.1228 1259,-399.2203 1290.2053,-427.2275 1283,-448.5299 1283,-490.4605 1283,-490.4605 1283,-490.4605 1283,-931.4209 1283,-953.5436 1268.4156,-968.8489 1248.9793,-979.4234"/>
<polygon fill="#cc0000" stroke="#cc0000" points="1247.1778,-976.4087 1239.7426,-983.9565 1250.2618,-982.6927 1247.1778,-976.4087"/>
</g>
<!-- benchmarkJs&#45;&gt;benchmarkShared -->
<g id="edge51" class="edge">
<title>benchmarkJs&#45;&gt;benchmarkShared</title>
<path fill="none" stroke="#cc0000" d="M284.4997,-308.289C270.1084,-333.0532 243.9522,-378.0623 225.5824,-409.6727"/>
<polygon fill="#cc0000" stroke="#cc0000" points="222.3873,-408.2049 220.3888,-418.6096 228.4395,-411.7221 222.3873,-408.2049"/>
</g>
<!-- utils -->
<g id="node32" class="node">
<title>utils</title>
<ellipse fill="#ffffdd" stroke="#000000" cx="117" cy="-117.6102" rx="31.3957" ry="18"/>
<text text-anchor="middle" x="117" y="-113.9102" font-family="Times,serif" font-size="14.00" fill="#000000">utils</text>
</g>
<!-- utils&#45;&gt;webappBase -->
<g id="edge54" class="edge">
<title>utils&#45;&gt;webappBase</title>
<path fill="none" stroke="#cc0000" d="M88.9756,-125.7059C54.3622,-137.6287 0,-163.4943 0,-208.3503 0,-208.3503 0,-208.3503 0,-1599.2317 0,-1651.4317 353.9899,-1676.7592 522.6437,-1685.8639"/>
<polygon fill="#cc0000" stroke="#cc0000" points="522.5711,-1689.3649 532.7431,-1686.4017 522.9434,-1682.3748 522.5711,-1689.3649"/>
</g>
<!-- root -->
<g id="node33" class="node">
<title>root</title>
<ellipse fill="#cccccc" stroke="#000000" cx="1090" cy="-26.8701" rx="70.922" ry="26.7407"/>
<text text-anchor="middle" x="1090" y="-30.6701" font-family="Times,serif" font-size="14.00" fill="#000000">[aggregate]</text>
<text text-anchor="middle" x="1090" y="-15.6701" font-family="Times,serif" font-size="14.00" fill="#000000">root</text>
</g>
<!-- root&#45;&gt;base -->
<g id="edge67" class="edge">
<title>root&#45;&gt;base</title>
<path fill="none" stroke="#aaaaaa" stroke-dasharray="5,2" d="M1160.6617,-27.9442C1349.5654,-31.7484 1852,-48.3741 1852,-117.6102 1852,-117.6102 1852,-117.6102 1852,-1131.5311 1852,-1153.3904 1864.3431,-1173.9447 1877.9248,-1189.9449"/>
<polygon fill="#aaaaaa" stroke="#aaaaaa" points="1884.643,-1197.4195 1874.6114,-1192.9903 1881.3006,-1193.7008 1877.9582,-1189.9821 1877.9582,-1189.9821 1877.9582,-1189.9821 1881.3006,-1193.7008 1881.305,-1186.974 1884.643,-1197.4195 1884.643,-1197.4195"/>
</g>
<!-- root&#45;&gt;taskman -->
<g id="edge69" class="edge">
<title>root&#45;&gt;taskman</title>
<path fill="none" stroke="#aaaaaa" stroke-dasharray="5,2" d="M1160.3988,-29.4474C1270.0027,-35.4031 1469,-54.8572 1469,-117.6102 1469,-117.6102 1469,-117.6102 1469,-931.4209 1469,-961.03 1495.2337,-978.4394 1524.1317,-988.6348"/>
<polygon fill="#aaaaaa" stroke="#aaaaaa" points="1534,-991.8231 1523.1008,-993.0308 1529.2421,-990.2859 1524.4843,-988.7487 1524.4843,-988.7487 1524.4843,-988.7487 1529.2421,-990.2859 1525.8678,-984.4666 1534,-991.8231 1534,-991.8231"/>
</g>
<!-- root&#45;&gt;webapp -->
<g id="edge68" class="edge">
<title>root&#45;&gt;webapp</title>
<path fill="none" stroke="#aaaaaa" stroke-dasharray="5,2" d="M1090,-54.0395C1090,-85.1344 1090,-136.2443 1090,-171.0528"/>
<polygon fill="#aaaaaa" stroke="#aaaaaa" points="1090,-181.2919 1085.5001,-171.2919 1090,-176.2919 1090.0001,-171.2919 1090.0001,-171.2919 1090.0001,-171.2919 1090,-176.2919 1094.5001,-171.292 1090,-181.2919 1090,-181.2919"/>
</g>
<!-- root&#45;&gt;benchmark -->
<g id="edge70" class="edge">
<title>root&#45;&gt;benchmark</title>
<path fill="none" stroke="#aaaaaa" stroke-dasharray="5,2" d="M1022.2187,-34.6065C875.3397,-51.3711 528.4273,-90.9671 372.8575,-108.7236"/>
<polygon fill="#aaaaaa" stroke="#aaaaaa" points="362.8913,-109.8612 372.3164,-104.2561 367.859,-109.2941 372.8267,-108.7271 372.8267,-108.7271 372.8267,-108.7271 367.859,-109.2941 373.3371,-113.198 362.8913,-109.8612 362.8913,-109.8612"/>
</g>
<!-- root&#45;&gt;utils -->
<g id="edge71" class="edge">
<title>root&#45;&gt;utils</title>
<path fill="none" stroke="#aaaaaa" stroke-dasharray="5,2" d="M1019.1698,-28.8569C839.2767,-34.3095 368.1996,-51.2372 215,-82.7401 193.2588,-87.2108 169.804,-95.4266 151.2926,-102.7608"/>
<polygon fill="#aaaaaa" stroke="#aaaaaa" points="141.8296,-106.6028 149.4022,-98.6715 146.4623,-104.7219 151.095,-102.8409 151.095,-102.8409 151.095,-102.8409 146.4623,-104.7219 152.7879,-107.0104 141.8296,-106.6028 141.8296,-106.6028"/>
</g>
</g>
</svg>
