<?xml version="1.0" encoding="UTF-8" standalone="no"?>
<!DOCTYPE svg PUBLIC "-//W3C//DTD SVG 1.1//EN"
 "http://www.w3.org/Graphics/SVG/1.1/DTD/svg11.dtd">
<!-- Generated by graphviz version 2.38.0 (20140413.2041)
 -->
<!-- Title: G Pages: 1 -->
<svg width="1612pt" height="1171pt"
 viewBox="0.00 0.00 1612.00 1170.62" xmlns="http://www.w3.org/2000/svg" xmlns:xlink="http://www.w3.org/1999/xlink">
<g id="graph0" class="graph" transform="scale(1 1) rotate(0) translate(4 1166.62)">
<title>G</title>
<polygon fill="white" stroke="none" points="-4,4 -4,-1166.62 1608,-1166.62 1608,4 -4,4"/>
<g id="clust3" class="cluster"><title>cluster_taskman</title>
<polygon fill="#eeeeff" stroke="black" points="226,-354.96 226,-768.791 690,-768.791 690,-354.96 226,-354.96"/>
</g>
<g id="clust4" class="cluster"><title>cluster_webapp</title>
<polygon fill="#eeeeff" stroke="black" points="698,-173.48 698,-973.141 1546,-973.141 1546,-173.48 698,-173.48"/>
</g>
<g id="clust1" class="cluster"><title>cluster_base</title>
<polygon fill="#f4fff4" stroke="black" points="8,-603.181 8,-1154.62 218,-1154.62 218,-603.181 8,-603.181"/>
</g>
<g id="clust5" class="cluster"><title>cluster_supp</title>
<polygon fill="#fff2f2" stroke="black" points="330,-82.7401 330,-333.96 690,-333.96 690,-82.7401 330,-82.7401"/>
</g>
<!-- baseMacro -->
<g id="node1" class="node"><title>baseMacro</title>
<ellipse fill="#bbffbb" stroke="black" cx="98" cy="-1119.75" rx="70.0071" ry="26.7407"/>
<text text-anchor="middle" x="98" y="-1123.55" font-family="Times,serif" font-size="14.00">base&#45;macro</text>
<text text-anchor="middle" x="98" y="-1108.55" font-family="Times,serif" font-size="14.00">(JVM &amp; JS)</text>
</g>
<!-- baseUtil -->
<g id="node2" class="node"><title>baseUtil</title>
<ellipse fill="#bbffbb" stroke="black" cx="135" cy="-1029.01" rx="67.3507" ry="26.7407"/>
<text text-anchor="middle" x="135" y="-1032.81" font-family="Times,serif" font-size="14.00">base&#45;util</text>
<text text-anchor="middle" x="135" y="-1017.81" font-family="Times,serif" font-size="14.00">(JVM &amp; JS)</text>
</g>
<!-- baseUtil&#45;&gt;baseMacro -->
<g id="edge1" class="edge"><title>baseUtil&#45;&gt;baseMacro</title>
<path fill="none" stroke="#cc0000" d="M124.298,-1055.68C120.655,-1064.42 116.518,-1074.34 112.621,-1083.68"/>
<polygon fill="#cc0000" stroke="#cc0000" points="109.296,-1082.57 108.678,-1093.14 115.757,-1085.26 109.296,-1082.57"/>
</g>
<!-- baseDb -->
<g id="node3" class="node"><title>baseDb</title>
<ellipse fill="#bbffbb" stroke="black" cx="112" cy="-847.531" rx="50.8235" ry="26.7407"/>
<text text-anchor="middle" x="112" y="-851.331" font-family="Times,serif" font-size="14.00">base&#45;db</text>
<text text-anchor="middle" x="112" y="-836.331" font-family="Times,serif" font-size="14.00">(JVM)</text>
</g>
<!-- baseOps -->
<g id="node4" class="node"><title>baseOps</title>
<ellipse fill="#bbffbb" stroke="black" cx="112" cy="-938.271" rx="55.7232" ry="26.7407"/>
<text text-anchor="middle" x="112" y="-942.071" font-family="Times,serif" font-size="14.00">base&#45;ops</text>
<text text-anchor="middle" x="112" y="-927.071" font-family="Times,serif" font-size="14.00">(JVM)</text>
</g>
<!-- baseDb&#45;&gt;baseOps -->
<g id="edge3" class="edge"><title>baseDb&#45;&gt;baseOps</title>
<path fill="none" stroke="#cc0000" d="M112,-874.676C112,-882.981 112,-892.316 112,-901.193"/>
<polygon fill="#cc0000" stroke="#cc0000" points="108.5,-901.313 112,-911.313 115.5,-901.313 108.5,-901.313"/>
</g>
<!-- baseOps&#45;&gt;baseUtil -->
<g id="edge2" class="edge"><title>baseOps&#45;&gt;baseUtil</title>
<path fill="none" stroke="#cc0000" d="M118.776,-965.416C120.952,-973.811 123.401,-983.26 125.724,-992.222"/>
<polygon fill="#cc0000" stroke="#cc0000" points="122.375,-993.251 128.272,-1002.05 129.151,-991.495 122.375,-993.251"/>
</g>
<!-- baseTest -->
<g id="node5" class="node"><title>baseTest</title>
<ellipse fill="white" stroke="darkgreen" cx="143" cy="-742.791" rx="67.3507" ry="26.7407"/>
<text text-anchor="middle" x="143" y="-746.591" font-family="Times,serif" font-size="14.00">base&#45;test</text>
<text text-anchor="middle" x="143" y="-731.591" font-family="Times,serif" font-size="14.00">(JVM &amp; JS)</text>
</g>
<!-- baseTest&#45;&gt;baseUtil -->
<g id="edge4" class="edge"><title>baseTest&#45;&gt;baseUtil</title>
<path fill="none" stroke="#111111" d="M169.647,-767.62C174.692,-773.614 179.247,-780.422 182,-787.661 189.063,-806.238 253.882,-756.705 177,-973.141 174.233,-980.931 169.913,-988.502 165.076,-995.409"/>
<polygon fill="#111111" stroke="#111111" points="161.994,-993.681 158.751,-1003.77 167.576,-997.905 161.994,-993.681"/>
</g>
<!-- baseTest&#45;&gt;baseDb -->
<g id="edge5" class="edge"><title>baseTest&#45;&gt;baseDb</title>
<path fill="none" stroke="#111111" stroke-dasharray="5,2" d="M126.314,-768.946C123.059,-774.872 120.031,-781.316 118,-787.661 115.696,-794.859 114.221,-802.781 113.288,-810.417"/>
<polygon fill="#111111" stroke="#111111" points="109.787,-810.271 112.326,-820.557 116.755,-810.933 109.787,-810.271"/>
<text text-anchor="middle" x="150" y="-791.461" font-family="Times,serif" font-size="14.00">provided</text>
</g>
<!-- base -->
<g id="node6" class="node"><title>base</title>
<ellipse fill="#ffffdd" stroke="darkgreen" cx="87" cy="-638.051" rx="70.922" ry="26.7407"/>
<text text-anchor="middle" x="87" y="-641.851" font-family="Times,serif" font-size="14.00">[aggregate]</text>
<text text-anchor="middle" x="87" y="-626.851" font-family="Times,serif" font-size="14.00">base</text>
</g>
<!-- base&#45;&gt;baseMacro -->
<g id="edge59" class="edge"><title>base&#45;&gt;baseMacro</title>
<path fill="none" stroke="#aaaaaa" stroke-dasharray="5,2" d="M58.5283,-662.992C39.1484,-682.088 17,-710.711 17,-741.791 17,-741.791 17,-741.791 17,-1030.01 17,-1054.65 34.246,-1075.45 52.8225,-1090.7"/>
<polygon fill="#aaaaaa" stroke="#aaaaaa" points="60.819,-1096.89 50.1572,-1094.33 56.8657,-1093.83 52.9124,-1090.77 52.9124,-1090.77 52.9124,-1090.77 56.8657,-1093.83 55.6677,-1087.21 60.819,-1096.89 60.819,-1096.89"/>
</g>
<!-- base&#45;&gt;baseUtil -->
<g id="edge56" class="edge"><title>base&#45;&gt;baseUtil</title>
<path fill="none" stroke="#aaaaaa" stroke-dasharray="5,2" d="M66.9512,-664.024C53.0408,-683.887 37,-713.027 37,-741.791 37,-741.791 37,-741.791 37,-939.271 37,-954.967 37.499,-960.648 47,-973.141 56.2092,-985.251 68.9267,-995.345 81.833,-1003.43"/>
<polygon fill="#aaaaaa" stroke="#aaaaaa" points="90.7575,-1008.71 79.8596,-1007.49 86.4542,-1006.17 82.1509,-1003.62 82.1509,-1003.62 82.1509,-1003.62 86.4542,-1006.17 84.4423,-999.749 90.7575,-1008.71 90.7575,-1008.71"/>
</g>
<!-- base&#45;&gt;baseDb -->
<g id="edge57" class="edge"><title>base&#45;&gt;baseDb</title>
<path fill="none" stroke="#aaaaaa" stroke-dasharray="5,2" d="M76.7881,-664.934C67.7363,-691.546 57.3337,-734.016 67,-769.661 71.2092,-785.183 79.4252,-800.78 87.6978,-813.829"/>
<polygon fill="#aaaaaa" stroke="#aaaaaa" points="93.3854,-822.424 84.1141,-816.568 90.6261,-818.254 87.8668,-814.085 87.8668,-814.085 87.8668,-814.085 90.6261,-818.254 91.6195,-811.601 93.3854,-822.424 93.3854,-822.424"/>
</g>
<!-- base&#45;&gt;baseTest -->
<g id="edge58" class="edge"><title>base&#45;&gt;baseTest</title>
<path fill="none" stroke="#aaaaaa" stroke-dasharray="5,2" d="M100.843,-664.447C107.91,-677.413 116.61,-693.376 124.268,-707.425"/>
<polygon fill="#aaaaaa" stroke="#aaaaaa" points="129.122,-716.331 120.385,-709.704 126.729,-711.94 124.337,-707.55 124.337,-707.55 124.337,-707.55 126.729,-711.94 128.288,-705.397 129.122,-716.331 129.122,-716.331"/>
</g>
<!-- taskmanDb -->
<g id="node7" class="node"><title>taskmanDb</title>
<ellipse fill="#ffffff" stroke="black" cx="356" cy="-742.791" rx="122.379" ry="18"/>
<text text-anchor="middle" x="356" y="-739.091" font-family="Times,serif" font-size="14.00">taskman&#45;server&#45;schema</text>
</g>
<!-- taskmanDb&#45;&gt;baseDb -->
<g id="edge6" class="edge"><title>taskmanDb&#45;&gt;baseDb</title>
<path fill="none" stroke="#cc0000" d="M317.607,-759.957C275.132,-777.842 206.606,-806.696 160.465,-826.124"/>
<polygon fill="#cc0000" stroke="#cc0000" points="158.834,-823.013 150.976,-830.12 161.551,-829.465 158.834,-823.013"/>
</g>
<!-- taskmanServerLogic -->
<g id="node8" class="node"><title>taskmanServerLogic</title>
<ellipse fill="#ffffff" stroke="black" cx="572" cy="-638.051" rx="108.581" ry="18"/>
<text text-anchor="middle" x="572" y="-634.351" font-family="Times,serif" font-size="14.00">taskman&#45;server&#45;logic</text>
</g>
<!-- taskmanApiLogic -->
<g id="node10" class="node"><title>taskmanApiLogic</title>
<ellipse fill="#ffffff" stroke="black" cx="589" cy="-742.791" rx="92.8835" ry="18"/>
<text text-anchor="middle" x="589" y="-739.091" font-family="Times,serif" font-size="14.00">taskman&#45;api&#45;logic</text>
</g>
<!-- taskmanServerLogic&#45;&gt;taskmanApiLogic -->
<g id="edge13" class="edge"><title>taskmanServerLogic&#45;&gt;taskmanApiLogic</title>
<path fill="none" stroke="#cc0000" d="M574.884,-656.479C577.513,-672.368 581.439,-696.098 584.484,-714.5"/>
<polygon fill="#cc0000" stroke="#cc0000" points="581.073,-715.325 586.159,-724.62 587.979,-714.183 581.073,-715.325"/>
</g>
<!-- taskmanApi -->
<g id="node9" class="node"><title>taskmanApi</title>
<ellipse fill="#ffffff" stroke="black" cx="356" cy="-638.051" rx="67.6881" ry="18"/>
<text text-anchor="middle" x="356" y="-634.351" font-family="Times,serif" font-size="14.00">taskman&#45;api</text>
</g>
<!-- taskmanApi&#45;&gt;baseDb -->
<g id="edge9" class="edge"><title>taskmanApi&#45;&gt;baseDb</title>
<path fill="none" stroke="#cc0000" d="M303.409,-649.445C224.097,-665.645 81.5362,-697.013 67,-715.921 44.6122,-745.042 65.1186,-786.067 85.2081,-814.33"/>
<polygon fill="#cc0000" stroke="#cc0000" points="82.6167,-816.711 91.3814,-822.664 88.2416,-812.545 82.6167,-816.711"/>
</g>
<!-- taskmanApi&#45;&gt;baseTest -->
<g id="edge12" class="edge"><title>taskmanApi&#45;&gt;baseTest</title>
<path fill="none" stroke="#111111" stroke-dasharray="5,2" d="M324.571,-654.211C290.216,-670.782 234.656,-697.581 194.032,-717.176"/>
<polygon fill="#111111" stroke="#111111" points="192.314,-714.118 184.828,-721.615 195.355,-720.423 192.314,-714.118"/>
<text text-anchor="middle" x="277" y="-686.721" font-family="Times,serif" font-size="14.00">test</text>
</g>
<!-- taskmanApi&#45;&gt;taskmanDb -->
<g id="edge11" class="edge"><title>taskmanApi&#45;&gt;taskmanDb</title>
<path fill="none" stroke="#111111" stroke-dasharray="5,2" d="M356,-656.479C356,-672.368 356,-696.098 356,-714.5"/>
<polygon fill="#111111" stroke="#111111" points="352.5,-714.62 356,-724.62 359.5,-714.62 352.5,-714.62"/>
<text text-anchor="middle" x="370" y="-686.721" font-family="Times,serif" font-size="14.00">test</text>
</g>
<!-- taskmanApi&#45;&gt;taskmanApiLogic -->
<g id="edge8" class="edge"><title>taskmanApi&#45;&gt;taskmanApiLogic</title>
<path fill="none" stroke="#cc0000" d="M389.383,-653.771C430.03,-671.694 498.844,-702.037 544.105,-721.995"/>
<polygon fill="#cc0000" stroke="#cc0000" points="542.824,-725.255 553.386,-726.087 545.649,-718.85 542.824,-725.255"/>
</g>
<!-- taskmanApi&#45;&gt;taskmanApiLogic -->
<g id="edge10" class="edge"><title>taskmanApi&#45;&gt;taskmanApiLogic</title>
<path fill="none" stroke="#111111" stroke-dasharray="5,2" d="M397.519,-652.34C421.39,-660.386 451.754,-671.313 478,-682.921 503.198,-694.065 530.552,-708.544 551.801,-720.353"/>
<polygon fill="#111111" stroke="#111111" points="550.372,-723.565 560.806,-725.401 553.795,-717.458 550.372,-723.565"/>
<text text-anchor="middle" x="535.5" y="-686.721" font-family="Times,serif" font-size="14.00">test&#45;lib</text>
</g>
<!-- taskmanApiLogic&#45;&gt;baseUtil -->
<g id="edge7" class="edge"><title>taskmanApiLogic&#45;&gt;baseUtil</title>
<path fill="none" stroke="#cc0000" d="M562.96,-760.093C488.215,-806.886 272.378,-942.007 178.961,-1000.49"/>
<polygon fill="#cc0000" stroke="#cc0000" points="176.93,-997.632 170.311,-1005.91 180.645,-1003.57 176.93,-997.632"/>
</g>
<!-- taskmanServer -->
<g id="node11" class="node"><title>taskmanServer</title>
<ellipse fill="#00ccff" stroke="black" cx="443" cy="-533.311" rx="83.3857" ry="18"/>
<text text-anchor="middle" x="443" y="-529.611" font-family="Times,serif" font-size="14.00">taskman&#45;server</text>
</g>
<!-- taskmanServer&#45;&gt;taskmanDb -->
<g id="edge16" class="edge"><title>taskmanServer&#45;&gt;taskmanDb</title>
<path fill="none" stroke="#cc0000" d="M445.314,-551.317C448.058,-577.169 450.304,-627.322 433,-664.921 423.159,-686.303 404.655,-705.082 388.253,-718.727"/>
<polygon fill="#cc0000" stroke="#cc0000" points="386.035,-716.019 380.417,-725.001 390.41,-721.483 386.035,-716.019"/>
</g>
<!-- taskmanServer&#45;&gt;taskmanServerLogic -->
<g id="edge14" class="edge"><title>taskmanServer&#45;&gt;taskmanServerLogic</title>
<path fill="none" stroke="#cc0000" d="M463.726,-550.818C485.133,-567.867 518.719,-594.616 542.808,-613.801"/>
<polygon fill="#cc0000" stroke="#cc0000" points="540.894,-616.751 550.897,-620.244 545.255,-611.276 540.894,-616.751"/>
</g>
<!-- taskmanServer&#45;&gt;taskmanApi -->
<g id="edge15" class="edge"><title>taskmanServer&#45;&gt;taskmanApi</title>
<path fill="none" stroke="#cc0000" d="M428.634,-551.276C414.445,-568.033 392.601,-593.827 376.573,-612.756"/>
<polygon fill="#cc0000" stroke="#cc0000" points="373.89,-610.508 370.099,-620.401 379.232,-615.031 373.89,-610.508"/>
</g>
<!-- taskman -->
<g id="node12" class="node"><title>taskman</title>
<ellipse fill="#ffff80" stroke="black" cx="341" cy="-389.831" rx="70.922" ry="26.7407"/>
<text text-anchor="middle" x="341" y="-393.631" font-family="Times,serif" font-size="14.00">[aggregate]</text>
<text text-anchor="middle" x="341" y="-378.631" font-family="Times,serif" font-size="14.00">taskman</text>
</g>
<!-- taskman&#45;&gt;taskmanApi -->
<g id="edge50" class="edge"><title>taskman&#45;&gt;taskmanApi</title>
<path fill="none" stroke="#aaaaaa" stroke-dasharray="5,2" d="M342.493,-416.944C344.407,-450.209 347.854,-509.473 351,-560.181 352.016,-576.561 353.207,-594.902 354.172,-609.559"/>
<polygon fill="#aaaaaa" stroke="#aaaaaa" points="354.859,-619.955 349.709,-610.274 354.529,-614.966 354.199,-609.977 354.199,-609.977 354.199,-609.977 354.529,-614.966 358.69,-609.68 354.859,-619.955 354.859,-619.955"/>
</g>
<!-- taskman&#45;&gt;taskmanServer -->
<g id="edge51" class="edge"><title>taskman&#45;&gt;taskmanServer</title>
<path fill="none" stroke="#aaaaaa" stroke-dasharray="5,2" d="M359.236,-416.124C377.769,-441.832 406.314,-481.425 424.826,-507.102"/>
<polygon fill="#aaaaaa" stroke="#aaaaaa" points="430.69,-515.236 421.192,-509.756 427.766,-511.18 424.842,-507.124 424.842,-507.124 424.842,-507.124 427.766,-511.18 428.492,-504.493 430.69,-515.236 430.69,-515.236"/>
</g>
<!-- webappMacro -->
<g id="node13" class="node"><title>webappMacro</title>
<ellipse fill="#ffffff" stroke="black" cx="944" cy="-938.271" rx="86.0347" ry="26.7407"/>
<text text-anchor="middle" x="944" y="-942.071" font-family="Times,serif" font-size="14.00">webapp&#45;macro</text>
<text text-anchor="middle" x="944" y="-927.071" font-family="Times,serif" font-size="14.00">(JVM &amp; JS)</text>
</g>
<!-- webappMacro&#45;&gt;baseUtil -->
<g id="edge17" class="edge"><title>webappMacro&#45;&gt;baseUtil</title>
<path fill="none" stroke="#cc0000" d="M863.472,-948.104C706.417,-965.332 361.314,-1003.19 209.343,-1019.86"/>
<polygon fill="#cc0000" stroke="#cc0000" points="208.737,-1016.4 199.178,-1020.97 209.5,-1023.36 208.737,-1016.4"/>
</g>
<!-- webappBase -->
<g id="node14" class="node"><title>webappBase</title>
<ellipse fill="#ffffff" stroke="black" cx="1401" cy="-847.531" rx="77.5641" ry="26.7407"/>
<text text-anchor="middle" x="1401" y="-851.331" font-family="Times,serif" font-size="14.00">webapp&#45;base</text>
<text text-anchor="middle" x="1401" y="-836.331" font-family="Times,serif" font-size="14.00">(JVM &amp; JS)</text>
</g>
<!-- webappBase&#45;&gt;webappMacro -->
<g id="edge18" class="edge"><title>webappBase&#45;&gt;webappMacro</title>
<path fill="none" stroke="#cc0000" d="M1334.06,-861.53C1252.3,-877.406 1114.03,-904.255 1025.98,-921.353"/>
<polygon fill="#cc0000" stroke="#cc0000" points="1025.17,-917.943 1016.02,-923.286 1026.51,-924.815 1025.17,-917.943"/>
</g>
<!-- webappBaseMember -->
<g id="node15" class="node"><title>webappBaseMember</title>
<ellipse fill="#ffffff" stroke="black" cx="1222" cy="-742.791" rx="122.159" ry="26.7407"/>
<text text-anchor="middle" x="1222" y="-746.591" font-family="Times,serif" font-size="14.00">webapp&#45;base&#45;member</text>
<text text-anchor="middle" x="1222" y="-731.591" font-family="Times,serif" font-size="14.00">(JVM &amp; JS)</text>
</g>
<!-- webappBaseMember&#45;&gt;webappBase -->
<g id="edge23" class="edge"><title>webappBaseMember&#45;&gt;webappBase</title>
<path fill="none" stroke="#cc0000" d="M1264.42,-768.139C1291.1,-783.453 1325.58,-803.245 1353.23,-819.111"/>
<polygon fill="#cc0000" stroke="#cc0000" points="1351.53,-822.171 1361.94,-824.113 1355.01,-816.1 1351.53,-822.171"/>
</g>
<!-- webappServerLogic -->
<g id="node16" class="node"><title>webappServerLogic</title>
<ellipse fill="#ffffff" stroke="black" cx="1424" cy="-389.831" rx="113.689" ry="26.7407"/>
<text text-anchor="middle" x="1424" y="-393.631" font-family="Times,serif" font-size="14.00">webapp&#45;server&#45;logic</text>
<text text-anchor="middle" x="1424" y="-378.631" font-family="Times,serif" font-size="14.00">(JVM &amp; JS)</text>
</g>
<!-- webappServerLogic&#45;&gt;taskmanApiLogic -->
<g id="edge20" class="edge"><title>webappServerLogic&#45;&gt;taskmanApiLogic</title>
<path fill="none" stroke="#cc0000" d="M1508.91,-407.883C1521.94,-414.203 1533.77,-422.856 1542,-434.701 1582.2,-492.537 1586.2,-538.34 1542,-593.181 1476.18,-674.848 779.097,-701.326 694,-715.921 679.567,-718.396 664.181,-721.765 649.763,-725.253"/>
<polygon fill="#cc0000" stroke="#cc0000" points="648.828,-721.879 639.96,-727.677 650.508,-728.674 648.828,-721.879"/>
</g>
<!-- webappServerLogic&#45;&gt;webappBase -->
<g id="edge19" class="edge"><title>webappServerLogic&#45;&gt;webappBase</title>
<path fill="none" stroke="#cc0000" d="M1461,-415.321C1493.96,-440.391 1537,-482.643 1537,-532.311 1537,-532.311 1537,-532.311 1537,-743.791 1537,-782.635 1501.24,-808.657 1466.4,-824.793"/>
<polygon fill="#cc0000" stroke="#cc0000" points="1464.84,-821.651 1457.1,-828.884 1467.66,-828.058 1464.84,-821.651"/>
</g>
<!-- webappClientPublic -->
<g id="node19" class="node"><title>webappClientPublic</title>
<ellipse fill="#00ccff" stroke="black" cx="1401" cy="-533.311" rx="117.26" ry="26.7407"/>
<text text-anchor="middle" x="1401" y="-537.111" font-family="Times,serif" font-size="14.00">webapp&#45;client&#45;public</text>
<text text-anchor="middle" x="1401" y="-522.111" font-family="Times,serif" font-size="14.00">(JVM &amp; JS)</text>
</g>
<!-- webappServerLogic&#45;&gt;webappClientPublic -->
<g id="edge21" class="edge"><title>webappServerLogic&#45;&gt;webappClientPublic</title>
<path fill="none" stroke="#cc0000" d="M1419.78,-416.78C1416.17,-438.977 1410.94,-471.169 1406.91,-495.937"/>
<polygon fill="#cc0000" stroke="#cc0000" points="1403.42,-495.614 1405.27,-506.046 1410.33,-496.738 1403.42,-495.614"/>
</g>
<!-- webappBaseTest -->
<g id="node24" class="node"><title>webappBaseTest</title>
<ellipse fill="white" stroke="blue" cx="1103" cy="-638.051" rx="100.318" ry="26.7407"/>
<text text-anchor="middle" x="1103" y="-641.851" font-family="Times,serif" font-size="14.00">webapp&#45;base&#45;test</text>
<text text-anchor="middle" x="1103" y="-626.851" font-family="Times,serif" font-size="14.00">(JVM &amp; JS)</text>
</g>
<!-- webappServerLogic&#45;&gt;webappBaseTest -->
<g id="edge22" class="edge"><title>webappServerLogic&#45;&gt;webappBaseTest</title>
<path fill="none" stroke="#111111" stroke-dasharray="5,2" d="M1312.03,-394.949C1243.14,-399.897 1163.48,-410.78 1139,-434.701 1127.25,-446.179 1113.78,-545.831 1107.14,-600.877"/>
<polygon fill="#111111" stroke="#111111" points="1103.65,-600.585 1105.94,-610.928 1110.6,-601.412 1103.65,-600.585"/>
<text text-anchor="middle" x="1135" y="-529.611" font-family="Times,serif" font-size="14.00">test</text>
</g>
<!-- webappClientWwApi -->
<g id="node17" class="node"><title>webappClientWwApi</title>
<ellipse fill="#ffffff" stroke="black" cx="863" cy="-638.051" rx="121.745" ry="26.7407"/>
<text text-anchor="middle" x="863" y="-641.851" font-family="Times,serif" font-size="14.00">webapp&#45;client&#45;ww&#45;api</text>
<text text-anchor="middle" x="863" y="-626.851" font-family="Times,serif" font-size="14.00">(JS)</text>
</g>
<!-- webappClientWwApi&#45;&gt;webappBaseMember -->
<g id="edge30" class="edge"><title>webappClientWwApi&#45;&gt;webappBaseMember</title>
<path fill="none" stroke="#cc0000" d="M935.217,-659.718C994.399,-676.655 1078.16,-700.625 1139.88,-718.29"/>
<polygon fill="#cc0000" stroke="#cc0000" points="1139.01,-721.682 1149.59,-721.069 1140.94,-714.952 1139.01,-721.682"/>
</g>
<!-- webappGen -->
<g id="node18" class="node"><title>webappGen</title>
<ellipse fill="#ffffff" stroke="black" cx="1068" cy="-389.831" rx="72.6644" ry="26.7407"/>
<text text-anchor="middle" x="1068" y="-393.631" font-family="Times,serif" font-size="14.00">webapp&#45;gen</text>
<text text-anchor="middle" x="1068" y="-378.631" font-family="Times,serif" font-size="14.00">(JVM &amp; JS)</text>
</g>
<!-- webappGen&#45;&gt;webappBaseMember -->
<g id="edge35" class="edge"><title>webappGen&#45;&gt;webappBaseMember</title>
<path fill="none" stroke="#cc0000" d="M1081.99,-416.265C1093.9,-436.813 1112.2,-465.918 1132,-488.441 1140.12,-497.672 1145.02,-497.09 1153,-506.441 1171.19,-527.761 1165.94,-540.607 1186,-560.181 1197.4,-571.307 1208.84,-564.497 1217,-578.181 1229.38,-598.939 1227.51,-664.335 1224.87,-705.892"/>
<polygon fill="#cc0000" stroke="#cc0000" points="1221.38,-705.687 1224.19,-715.901 1228.36,-706.162 1221.38,-705.687"/>
</g>
<!-- webappClientProject -->
<g id="node22" class="node"><title>webappClientProject</title>
<ellipse fill="#00ccff" stroke="black" cx="912" cy="-533.311" rx="122.159" ry="26.7407"/>
<text text-anchor="middle" x="912" y="-537.111" font-family="Times,serif" font-size="14.00">webapp&#45;client&#45;project</text>
<text text-anchor="middle" x="912" y="-522.111" font-family="Times,serif" font-size="14.00">(JS)</text>
</g>
<!-- webappGen&#45;&gt;webappClientProject -->
<g id="edge36" class="edge"><title>webappGen&#45;&gt;webappClientProject</title>
<path fill="none" stroke="#111111" stroke-dasharray="5,2" d="M1047.03,-415.908C1029.2,-436.513 1002.36,-465.878 976,-488.441 970.774,-492.914 965.087,-497.348 959.33,-501.58"/>
<polygon fill="#111111" stroke="#111111" points="956.987,-498.953 950.892,-507.618 961.061,-504.646 956.987,-498.953"/>
<text text-anchor="middle" x="1043.5" y="-457.871" font-family="Times,serif" font-size="14.00">run</text>
</g>
<!-- webappGen&#45;&gt;webappBaseTest -->
<g id="edge37" class="edge"><title>webappGen&#45;&gt;webappBaseTest</title>
<path fill="none" stroke="#111111" stroke-dasharray="5,2" d="M1069.26,-416.808C1071.15,-450.181 1075.44,-509.812 1084,-560.181 1086.29,-573.655 1089.67,-588.258 1092.94,-601.08"/>
<polygon fill="#111111" stroke="#111111" points="1089.6,-602.141 1095.52,-610.926 1096.37,-600.365 1089.6,-602.141"/>
<text text-anchor="middle" x="1098" y="-529.611" font-family="Times,serif" font-size="14.00">test</text>
</g>
<!-- webappClientPublic&#45;&gt;webappBase -->
<g id="edge28" class="edge"><title>webappClientPublic&#45;&gt;webappBase</title>
<path fill="none" stroke="#cc0000" d="M1401,-560.393C1401,-615.95 1401,-746.088 1401,-809.918"/>
<polygon fill="#cc0000" stroke="#cc0000" points="1397.5,-810.303 1401,-820.303 1404.5,-810.303 1397.5,-810.303"/>
</g>
<!-- webappClientPublic&#45;&gt;webappBaseTest -->
<g id="edge29" class="edge"><title>webappClientPublic&#45;&gt;webappBaseTest</title>
<path fill="none" stroke="#111111" stroke-dasharray="5,2" d="M1337.8,-556.099C1289.35,-572.804 1222.54,-595.839 1172.57,-613.067"/>
<polygon fill="#111111" stroke="#111111" points="1171.12,-609.863 1162.81,-616.432 1173.4,-616.481 1171.12,-609.863"/>
<text text-anchor="middle" x="1284" y="-581.981" font-family="Times,serif" font-size="14.00">test</text>
</g>
<!-- webappClientHome -->
<g id="node20" class="node"><title>webappClientHome</title>
<ellipse fill="#00ccff" stroke="black" cx="1254" cy="-461.571" rx="113.689" ry="26.7407"/>
<text text-anchor="middle" x="1254" y="-465.371" font-family="Times,serif" font-size="14.00">webapp&#45;client&#45;home</text>
<text text-anchor="middle" x="1254" y="-450.371" font-family="Times,serif" font-size="14.00">(JS)</text>
</g>
<!-- webappClientHome&#45;&gt;webappBaseMember -->
<g id="edge26" class="edge"><title>webappClientHome&#45;&gt;webappBaseMember</title>
<path fill="none" stroke="#cc0000" d="M1252.97,-488.718C1252.05,-508.401 1250.47,-536.028 1248,-560.181 1242.83,-610.794 1233.99,-668.951 1228.07,-705.533"/>
<polygon fill="#cc0000" stroke="#cc0000" points="1224.57,-705.274 1226.41,-715.707 1231.48,-706.402 1224.57,-705.274"/>
</g>
<!-- webappClientHome&#45;&gt;webappBaseTest -->
<g id="edge27" class="edge"><title>webappClientHome&#45;&gt;webappBaseTest</title>
<path fill="none" stroke="#111111" stroke-dasharray="5,2" d="M1232.04,-487.942C1205.54,-518.567 1160.9,-570.149 1131.69,-603.897"/>
<polygon fill="#111111" stroke="#111111" points="1128.88,-601.797 1124.98,-611.649 1134.17,-606.378 1128.88,-601.797"/>
<text text-anchor="middle" x="1230" y="-529.611" font-family="Times,serif" font-size="14.00">test</text>
</g>
<!-- webappClientWw -->
<g id="node21" class="node"><title>webappClientWw</title>
<ellipse fill="#00ccff" stroke="black" cx="831" cy="-461.571" rx="103.476" ry="26.7407"/>
<text text-anchor="middle" x="831" y="-465.371" font-family="Times,serif" font-size="14.00">webapp&#45;client&#45;ww</text>
<text text-anchor="middle" x="831" y="-450.371" font-family="Times,serif" font-size="14.00">(JS)</text>
</g>
<!-- webappClientWw&#45;&gt;webappClientWwApi -->
<g id="edge31" class="edge"><title>webappClientWw&#45;&gt;webappClientWwApi</title>
<path fill="none" stroke="#cc0000" d="M754.374,-479.791C741.596,-486.09 729.936,-494.693 722,-506.441 708.631,-526.233 716.373,-536.969 722,-560.181 725.887,-576.215 726.57,-582.332 739,-593.181 748.665,-601.617 760.06,-608.463 771.96,-614.01"/>
<polygon fill="#cc0000" stroke="#cc0000" points="770.572,-617.223 781.138,-618.004 773.365,-610.805 770.572,-617.223"/>
</g>
<!-- webappClientWw&#45;&gt;webappBaseTest -->
<g id="edge32" class="edge"><title>webappClientWw&#45;&gt;webappBaseTest</title>
<path fill="none" stroke="#111111" stroke-dasharray="5,2" d="M774.825,-484.306C766.103,-490.168 758.255,-497.455 753,-506.441 740.942,-527.058 737.666,-541.869 753,-560.181 787.926,-601.89 941.144,-590.307 994,-603.181 1006.5,-606.226 1019.68,-609.907 1032.38,-613.703"/>
<polygon fill="#111111" stroke="#111111" points="1031.39,-617.062 1041.98,-616.621 1033.43,-610.365 1031.39,-617.062"/>
<text text-anchor="middle" x="767" y="-529.611" font-family="Times,serif" font-size="14.00">test</text>
</g>
<!-- webappClientProject&#45;&gt;webappClientWwApi -->
<g id="edge33" class="edge"><title>webappClientProject&#45;&gt;webappClientWwApi</title>
<path fill="none" stroke="#cc0000" d="M899.635,-560.236C893.6,-572.891 886.25,-588.301 879.722,-601.988"/>
<polygon fill="#cc0000" stroke="#cc0000" points="876.507,-600.601 875.361,-611.133 882.825,-603.614 876.507,-600.601"/>
</g>
<!-- webappClientProject&#45;&gt;webappBaseTest -->
<g id="edge34" class="edge"><title>webappClientProject&#45;&gt;webappBaseTest</title>
<path fill="none" stroke="#111111" stroke-dasharray="5,2" d="M956.781,-558.399C984.86,-573.502 1021.18,-593.039 1050.6,-608.862"/>
<polygon fill="#111111" stroke="#111111" points="1049.02,-611.99 1059.49,-613.645 1052.34,-605.825 1049.02,-611.99"/>
<text text-anchor="middle" x="1033" y="-581.981" font-family="Times,serif" font-size="14.00">test</text>
</g>
<!-- webappServer -->
<g id="node23" class="node"><title>webappServer</title>
<ellipse fill="#00ccff" stroke="black" cx="1058" cy="-299.09" rx="79.0865" ry="18"/>
<text text-anchor="middle" x="1058" y="-295.39" font-family="Times,serif" font-size="14.00">webapp&#45;server</text>
</g>
<!-- webappServer&#45;&gt;taskmanApi -->
<g id="edge38" class="edge"><title>webappServer&#45;&gt;taskmanApi</title>
<path fill="none" stroke="#cc0000" d="M1005.37,-312.707C967.606,-322.456 915.864,-337.254 872,-354.96 800.893,-383.663 784.791,-395.31 719,-434.701 634.074,-485.548 621.768,-512.546 535,-560.181 492.137,-583.713 440.595,-605.183 403.849,-619.415"/>
<polygon fill="#cc0000" stroke="#cc0000" points="402.451,-616.202 394.369,-623.053 404.959,-622.737 402.451,-616.202"/>
</g>
<!-- webappServer&#45;&gt;webappServerLogic -->
<g id="edge39" class="edge"><title>webappServer&#45;&gt;webappServerLogic</title>
<path fill="none" stroke="#cc0000" d="M1123.25,-309.326C1171.42,-316.817 1238.34,-328.639 1296,-343.96 1316.05,-349.289 1337.47,-356.265 1356.93,-363.123"/>
<polygon fill="#cc0000" stroke="#cc0000" points="1356.01,-366.514 1366.61,-366.581 1358.37,-359.921 1356.01,-366.514"/>
</g>
<!-- webappServer&#45;&gt;webappGen -->
<g id="edge40" class="edge"><title>webappServer&#45;&gt;webappGen</title>
<path fill="none" stroke="#cc0000" d="M1059.93,-317.2C1061.06,-327.273 1062.54,-340.407 1063.93,-352.673"/>
<polygon fill="#cc0000" stroke="#cc0000" points="1060.46,-353.14 1065.05,-362.686 1067.41,-352.356 1060.46,-353.14"/>
</g>
<!-- webappServer&#45;&gt;webappClientPublic -->
<g id="edge41" class="edge"><title>webappServer&#45;&gt;webappClientPublic</title>
<path fill="none" stroke="#cc0000" stroke-dasharray="5,2" d="M1096.31,-314.879C1122.69,-325.365 1158.36,-340.153 1189,-354.96 1240.18,-379.696 1248.24,-395.55 1301,-416.701 1330.02,-428.334 1346.26,-413.245 1369,-434.701 1385.87,-450.615 1393.85,-475.546 1397.63,-496.228"/>
<polygon fill="#cc0000" stroke="#cc0000" points="1394.2,-496.945 1399.21,-506.282 1401.12,-495.861 1394.2,-496.945"/>
</g>
<!-- webappServer&#45;&gt;webappClientHome -->
<g id="edge42" class="edge"><title>webappServer&#45;&gt;webappClientHome</title>
<path fill="none" stroke="#cc0000" stroke-dasharray="5,2" d="M1088.68,-315.803C1107.19,-325.904 1130.84,-339.919 1150,-354.96 1177.7,-376.704 1205.51,-405.384 1225.39,-427.369"/>
<polygon fill="#cc0000" stroke="#cc0000" points="1222.81,-429.726 1232.08,-434.844 1228.02,-425.058 1222.81,-429.726"/>
</g>
<!-- webappServer&#45;&gt;webappClientWw -->
<g id="edge44" class="edge"><title>webappServer&#45;&gt;webappClientWw</title>
<path fill="none" stroke="#cc0000" stroke-dasharray="5,2" d="M1020.97,-315.028C1003.68,-322.674 983.184,-332.734 966,-343.96 928.243,-368.628 889.757,-402.965 863.59,-427.988"/>
<polygon fill="#cc0000" stroke="#cc0000" points="860.978,-425.645 856.214,-435.108 865.839,-430.682 860.978,-425.645"/>
</g>
<!-- webappServer&#45;&gt;webappClientProject -->
<g id="edge43" class="edge"><title>webappServer&#45;&gt;webappClientProject</title>
<path fill="none" stroke="#cc0000" stroke-dasharray="5,2" d="M1029.11,-315.999C1014.27,-325.522 997.035,-338.898 986,-354.96 951.004,-405.903 975.476,-433.587 947,-488.441 945.283,-491.748 943.298,-495.047 941.162,-498.265"/>
<polygon fill="#cc0000" stroke="#cc0000" points="938.21,-496.378 935.242,-506.549 943.905,-500.448 938.21,-496.378"/>
</g>
<!-- webappBaseTest&#45;&gt;baseTest -->
<g id="edge24" class="edge"><title>webappBaseTest&#45;&gt;baseTest</title>
<path fill="none" stroke="#111111" d="M1032.32,-657.166C1019.62,-660.038 1006.46,-662.766 994,-664.921 861.826,-687.786 827.772,-688.025 694,-697.921 484.642,-713.408 428.64,-678.897 222,-715.921 214.968,-717.181 207.702,-718.921 200.555,-720.908"/>
<polygon fill="#111111" stroke="#111111" points="199.519,-717.564 190.916,-723.749 201.498,-724.279 199.519,-717.564"/>
</g>
<!-- webappBaseTest&#45;&gt;webappBaseMember -->
<g id="edge25" class="edge"><title>webappBaseTest&#45;&gt;webappBaseMember</title>
<path fill="none" stroke="#111111" d="M1131.81,-663.921C1147.79,-677.723 1167.85,-695.04 1184.99,-709.836"/>
<polygon fill="#111111" stroke="#111111" points="1182.78,-712.55 1192.63,-716.436 1187.35,-707.251 1182.78,-712.55"/>
</g>
<!-- webapp -->
<g id="node25" class="node"><title>webapp</title>
<ellipse fill="#ffff80" stroke="blue" cx="1058" cy="-208.35" rx="70.922" ry="26.7407"/>
<text text-anchor="middle" x="1058" y="-212.15" font-family="Times,serif" font-size="14.00">[aggregate]</text>
<text text-anchor="middle" x="1058" y="-197.15" font-family="Times,serif" font-size="14.00">webapp</text>
</g>
<!-- webapp&#45;&gt;webappClientHome -->
<g id="edge53" class="edge"><title>webapp&#45;&gt;webappClientHome</title>
<path fill="none" stroke="#aaaaaa" stroke-dasharray="5,2" d="M1095.93,-231.273C1112.62,-242.146 1131.64,-256.349 1146,-272.22 1188.29,-318.954 1221.41,-384.995 1239.3,-425.182"/>
<polygon fill="#aaaaaa" stroke="#aaaaaa" points="1243.41,-434.57 1235.28,-427.215 1241.4,-429.99 1239.4,-425.41 1239.4,-425.41 1239.4,-425.41 1241.4,-429.99 1243.52,-423.605 1243.41,-434.57 1243.41,-434.57"/>
</g>
<!-- webapp&#45;&gt;webappClientWw -->
<g id="edge55" class="edge"><title>webapp&#45;&gt;webappClientWw</title>
<path fill="none" stroke="#aaaaaa" stroke-dasharray="5,2" d="M998.018,-222.612C977.169,-229.313 954.619,-239.116 937,-253.22 881.719,-297.473 852.464,-378.232 839.499,-424.83"/>
<polygon fill="#aaaaaa" stroke="#aaaaaa" points="836.904,-434.507 835.147,-423.683 838.199,-429.678 839.494,-424.848 839.494,-424.848 839.494,-424.848 838.199,-429.678 843.84,-426.014 836.904,-434.507 836.904,-434.507"/>
</g>
<!-- webapp&#45;&gt;webappClientProject -->
<g id="edge52" class="edge"><title>webapp&#45;&gt;webappClientProject</title>
<path fill="none" stroke="#aaaaaa" stroke-dasharray="5,2" d="M1015.79,-229.92C998.904,-240.285 980.911,-254.463 970,-272.22 944.555,-313.633 952.967,-442.533 937,-488.441 935.935,-491.504 934.655,-494.599 933.245,-497.651"/>
<polygon fill="#aaaaaa" stroke="#aaaaaa" points="928.71,-506.609 929.212,-495.654 930.968,-502.148 933.227,-497.687 933.227,-497.687 933.227,-497.687 930.968,-502.148 937.242,-499.72 928.71,-506.609 928.71,-506.609"/>
</g>
<!-- webapp&#45;&gt;webappServer -->
<g id="edge54" class="edge"><title>webapp&#45;&gt;webappServer</title>
<path fill="none" stroke="#aaaaaa" stroke-dasharray="5,2" d="M1058,-235.495C1058,-246.653 1058,-259.673 1058,-270.939"/>
<polygon fill="#aaaaaa" stroke="#aaaaaa" points="1058,-281.085 1053.5,-271.085 1058,-276.085 1058,-271.085 1058,-271.085 1058,-271.085 1058,-276.085 1062.5,-271.085 1058,-281.085 1058,-281.085"/>
</g>
<!-- benchmark -->
<g id="node26" class="node"><title>benchmark</title>
<ellipse fill="#ffffdd" stroke="black" cx="485" cy="-117.61" rx="70.922" ry="26.7407"/>
<text text-anchor="middle" x="485" y="-121.41" font-family="Times,serif" font-size="14.00">[aggregate]</text>
<text text-anchor="middle" x="485" y="-106.41" font-family="Times,serif" font-size="14.00">benchmark</text>
</g>
<!-- benchmarkJvm -->
<g id="node27" class="node"><title>benchmarkJvm</title>
<ellipse fill="#ffcccc" stroke="black" cx="596" cy="-208.35" rx="86.3847" ry="18"/>
<text text-anchor="middle" x="596" y="-204.65" font-family="Times,serif" font-size="14.00">benchmark JVM</text>
</g>
<!-- benchmark&#45;&gt;benchmarkJvm -->
<g id="edge60" class="edge"><title>benchmark&#45;&gt;benchmarkJvm</title>
<path fill="none" stroke="#aaaaaa" stroke-dasharray="5,2" d="M514.455,-142.158C530.753,-155.188 550.927,-171.317 567.132,-184.271"/>
<polygon fill="#aaaaaa" stroke="#aaaaaa" points="575.202,-190.723 564.581,-187.994 571.297,-187.601 567.391,-184.479 567.391,-184.479 567.391,-184.479 571.297,-187.601 570.201,-180.964 575.202,-190.723 575.202,-190.723"/>
</g>
<!-- benchmarkJs -->
<g id="node28" class="node"><title>benchmarkJs</title>
<ellipse fill="#ffcccc" stroke="black" cx="415" cy="-208.35" rx="76.8869" ry="18"/>
<text text-anchor="middle" x="415" y="-204.65" font-family="Times,serif" font-size="14.00">benchmark JS</text>
</g>
<!-- benchmark&#45;&gt;benchmarkJs -->
<g id="edge61" class="edge"><title>benchmark&#45;&gt;benchmarkJs</title>
<path fill="none" stroke="#aaaaaa" stroke-dasharray="5,2" d="M465.128,-143.802C455.538,-155.959 444.073,-170.495 434.528,-182.594"/>
<polygon fill="#aaaaaa" stroke="#aaaaaa" points="428.275,-190.522 430.935,-179.884 431.371,-186.596 434.468,-182.671 434.468,-182.671 434.468,-182.671 431.371,-186.596 438.001,-185.458 428.275,-190.522 428.275,-190.522"/>
</g>
<!-- benchmarkJvm&#45;&gt;webappServer -->
<g id="edge47" class="edge"><title>benchmarkJvm&#45;&gt;webappServer</title>
<path fill="none" stroke="#cc0000" d="M645.15,-223.221C660.705,-227.369 678.01,-231.736 694,-235.22 793.342,-256.869 909.247,-275.816 983.098,-287.105"/>
<polygon fill="#cc0000" stroke="#cc0000" points="982.821,-290.603 993.233,-288.647 983.873,-283.683 982.821,-290.603"/>
</g>
<!-- benchmarkShared -->
<g id="node29" class="node"><title>benchmarkShared</title>
<ellipse fill="#ffcccc" stroke="black" cx="498" cy="-299.09" rx="69.0935" ry="26.7407"/>
<text text-anchor="middle" x="498" y="-302.89" font-family="Times,serif" font-size="14.00">benchmark</text>
<text text-anchor="middle" x="498" y="-287.89" font-family="Times,serif" font-size="14.00">base</text>
</g>
<!-- benchmarkJvm&#45;&gt;benchmarkShared -->
<g id="edge45" class="edge"><title>benchmarkJvm&#45;&gt;benchmarkShared</title>
<path fill="none" stroke="#cc0000" d="M577.567,-226.042C564.819,-237.585 547.475,-253.291 532.233,-267.092"/>
<polygon fill="#cc0000" stroke="#cc0000" points="529.553,-264.797 524.49,-274.103 534.252,-269.986 529.553,-264.797"/>
</g>
<!-- benchmarkJs&#45;&gt;webappClientProject -->
<g id="edge48" class="edge"><title>benchmarkJs&#45;&gt;webappClientProject</title>
<path fill="none" stroke="#cc0000" d="M458.615,-223.203C491.733,-234.471 537.913,-251.812 576,-272.22 632.458,-302.473 657.977,-301.998 694,-354.96 728.309,-405.404 682.784,-445.382 726,-488.441 729.605,-492.033 772.496,-502.262 816.179,-511.94"/>
<polygon fill="#cc0000" stroke="#cc0000" points="815.569,-515.389 826.088,-514.123 817.075,-508.553 815.569,-515.389"/>
</g>
<!-- benchmarkJs&#45;&gt;benchmarkShared -->
<g id="edge46" class="edge"><title>benchmarkJs&#45;&gt;benchmarkShared</title>
<path fill="none" stroke="#cc0000" d="M430.612,-226.042C441.151,-237.31 455.399,-252.544 468.08,-266.101"/>
<polygon fill="#cc0000" stroke="#cc0000" points="465.543,-268.512 474.93,-273.425 470.655,-263.731 465.543,-268.512"/>
</g>
<!-- utils -->
<g id="node30" class="node"><title>utils</title>
<ellipse fill="#ffffdd" stroke="black" cx="628" cy="-117.61" rx="31.3957" ry="18"/>
<text text-anchor="middle" x="628" y="-113.91" font-family="Times,serif" font-size="14.00">utils</text>
</g>
<!-- utils&#45;&gt;webappBase -->
<g id="edge49" class="edge"><title>utils&#45;&gt;webappBase</title>
<path fill="none" stroke="#cc0000" d="M659.094,-119.769C825.574,-126.175 1604,-158.726 1604,-207.35 1604,-207.35 1604,-207.35 1604,-743.791 1604,-800.244 1540.73,-825.685 1484.83,-837.146"/>
<polygon fill="#cc0000" stroke="#cc0000" points="1484.02,-833.739 1474.86,-839.063 1485.34,-840.613 1484.02,-833.739"/>
</g>
<!-- root -->
<g id="node31" class="node"><title>root</title>
<ellipse fill="#cccccc" stroke="black" cx="485" cy="-26.8701" rx="70.922" ry="26.7407"/>
<text text-anchor="middle" x="485" y="-30.6701" font-family="Times,serif" font-size="14.00">[aggregate]</text>
<text text-anchor="middle" x="485" y="-15.6701" font-family="Times,serif" font-size="14.00">root</text>
</g>
<!-- root&#45;&gt;base -->
<g id="edge62" class="edge"><title>root&#45;&gt;base</title>
<path fill="none" stroke="#aaaaaa" stroke-dasharray="5,2" d="M415.582,-32.1253C316.93,-40.1075 148,-61.7808 148,-116.61 148,-116.61 148,-116.61 148,-534.311 148,-560.629 133.017,-586.096 117.902,-605.091"/>
<polygon fill="#aaaaaa" stroke="#aaaaaa" points="111.46,-612.819 114.406,-602.257 114.661,-608.979 117.863,-605.138 117.863,-605.138 117.863,-605.138 114.661,-608.979 121.319,-608.02 111.46,-612.819 111.46,-612.819"/>
</g>
<!-- root&#45;&gt;taskman -->
<g id="edge64" class="edge"><title>root&#45;&gt;taskman</title>
<path fill="none" stroke="#aaaaaa" stroke-dasharray="5,2" d="M417.591,-35.0544C368.293,-44.4859 310,-66.2793 310,-116.61 310,-116.61 310,-116.61 310,-300.09 310,-318.47 316,-337.853 322.721,-353.8"/>
<polygon fill="#aaaaaa" stroke="#aaaaaa" points="326.951,-363.245 318.757,-355.958 324.907,-358.682 322.863,-354.118 322.863,-354.118 322.863,-354.118 324.907,-358.682 326.97,-352.279 326.951,-363.245 326.951,-363.245"/>
</g>
<!-- root&#45;&gt;webapp -->
<g id="edge63" class="edge"><title>root&#45;&gt;webapp</title>
<path fill="none" stroke="#aaaaaa" stroke-dasharray="5,2" d="M543.879,-42.1058C585.93,-52.5699 643.723,-67.5566 694,-82.7401 802.4,-115.476 926.855,-159.501 998.566,-185.507"/>
<polygon fill="#aaaaaa" stroke="#aaaaaa" points="1008.33,-189.054 997.392,-189.868 1003.63,-187.346 998.929,-185.639 998.929,-185.639 998.929,-185.639 1003.63,-187.346 1000.47,-181.409 1008.33,-189.054 1008.33,-189.054"/>
</g>
<!-- root&#45;&gt;benchmark -->
<g id="edge65" class="edge"><title>root&#45;&gt;benchmark</title>
<path fill="none" stroke="#aaaaaa" stroke-dasharray="5,2" d="M485,-54.0151C485,-62.3197 485,-71.6554 485,-80.5319"/>
<polygon fill="#aaaaaa" stroke="#aaaaaa" points="485,-90.652 480.5,-80.652 485,-85.652 485,-80.652 485,-80.652 485,-80.652 485,-85.652 489.5,-80.6521 485,-90.652 485,-90.652"/>
</g>
<!-- root&#45;&gt;utils -->
<g id="edge66" class="edge"><title>root&#45;&gt;utils</title>
<path fill="none" stroke="#aaaaaa" stroke-dasharray="5,2" d="M521.085,-50.2629C545.083,-65.1549 576.201,-84.4658 598.672,-98.4102"/>
<polygon fill="#aaaaaa" stroke="#aaaaaa" points="607.426,-103.843 596.556,-102.393 603.178,-101.206 598.929,-98.5699 598.929,-98.5699 598.929,-98.5699 603.178,-101.206 601.302,-94.7463 607.426,-103.843 607.426,-103.843"/>
</g>
</g>
</svg>
