<?xml version="1.0" encoding="UTF-8" standalone="no"?>
<!DOCTYPE svg PUBLIC "-//W3C//DTD SVG 1.1//EN"
 "http://www.w3.org/Graphics/SVG/1.1/DTD/svg11.dtd">
<!-- Generated by graphviz version 2.40.1 (20161225.0304)
 -->
<!-- Title: G Pages: 1 -->
<svg width="530pt" height="299pt"
 viewBox="0.00 0.00 529.76 299.48" xmlns="http://www.w3.org/2000/svg" xmlns:xlink="http://www.w3.org/1999/xlink">
<g id="graph0" class="graph" transform="scale(1 1) rotate(0) translate(4 295.4802)">
<title>G</title>
<polygon fill="#ffffff" stroke="transparent" points="-4,4 -4,-295.4802 525.7608,-295.4802 525.7608,4 -4,4"/>
<!-- START -->
<g id="node1" class="node">
<title>START</title>
<ellipse fill="#000000" stroke="#000000" cx="90.878" cy="-182.7401" rx="11" ry="11"/>
<text text-anchor="middle" x="90.878" y="-182.4401" font-family="Times,serif" font-size="1.00" fill="#000000">START</text>
</g>
<!-- ud -->
<g id="node2" class="node">
<title>ud</title>
<ellipse fill="#87ceeb" stroke="#000000" cx="87.878" cy="-100.8701" rx="55.7232" ry="26.7407"/>
<text text-anchor="middle" x="87.878" y="-104.6701" font-family="Times,serif" font-size="14.00" fill="#000000">Unsaved</text>
<text text-anchor="middle" x="87.878" y="-89.6701" font-family="Times,serif" font-size="14.00" fill="#000000">Dirty</text>
</g>
<!-- START&#45;&gt;ud -->
<g id="edge1" class="edge">
<title>START&#45;&gt;ud</title>
<path fill="none" stroke="#000000" stroke-width="2" d="M90.4735,-171.6988C90.1536,-162.9694 89.6876,-150.2523 89.2384,-137.9948"/>
<polygon fill="#000000" stroke="#000000" stroke-width="2" points="92.7326,-137.7694 88.8687,-127.9043 85.7373,-138.0258 92.7326,-137.7694"/>
</g>
<!-- sc -->
<g id="node3" class="node">
<title>sc</title>
<ellipse fill="#87ceeb" stroke="#000000" cx="272.878" cy="-100.8701" rx="42.3529" ry="26.7407"/>
<text text-anchor="middle" x="272.878" y="-104.6701" font-family="Times,serif" font-size="14.00" fill="#000000">Saved</text>
<text text-anchor="middle" x="272.878" y="-89.6701" font-family="Times,serif" font-size="14.00" fill="#000000">Clean</text>
</g>
<!-- START&#45;&gt;sc -->
<g id="edge2" class="edge">
<title>START&#45;&gt;sc</title>
<path fill="none" stroke="#000000" stroke-width="2" d="M100.9224,-178.2218C124.8241,-167.47 186.2615,-139.8332 228.8262,-120.6861"/>
<polygon fill="#000000" stroke="#000000" stroke-width="2" points="230.4516,-123.7929 238.1355,-116.4985 227.5798,-117.409 230.4516,-123.7929"/>
</g>
<!-- create -->
<g id="node5" class="node">
<title>create</title>
<polygon fill="#ffff00" stroke="#000000" points="218.878,-38 124.878,-38 124.878,0 218.878,0 218.878,-38"/>
<text text-anchor="middle" x="171.878" y="-22.8" font-family="Times,serif" font-size="14.00" fill="#000000">create</text>
<text text-anchor="middle" x="171.878" y="-7.8" font-family="Times,serif" font-size="14.00" fill="#000000">(save as…)</text>
</g>
<!-- ud&#45;&gt;create -->
<g id="edge3" class="edge">
<title>ud&#45;&gt;create</title>
<path fill="none" stroke="#2288cc" d="M112.6265,-76.7491C122.8294,-66.805 134.6763,-55.2585 145.0833,-45.1154"/>
<polygon fill="#2288cc" stroke="#2288cc" points="147.6442,-47.5068 152.3626,-38.0206 142.7584,-42.4939 147.6442,-47.5068"/>
</g>
<!-- list_activate -->
<g id="node7" class="node">
<title>list_activate</title>
<polygon fill="#ffff00" stroke="#000000" points="310.878,-38 236.878,-38 236.878,0 310.878,0 310.878,-38"/>
<text text-anchor="middle" x="273.878" y="-22.8" font-family="Times,serif" font-size="14.00" fill="#000000">list &amp;</text>
<text text-anchor="middle" x="273.878" y="-7.8" font-family="Times,serif" font-size="14.00" fill="#000000">activate</text>
</g>
<!-- ud&#45;&gt;list_activate -->
<g id="edge10" class="edge">
<title>ud&#45;&gt;list_activate</title>
<path fill="none" stroke="#2288cc" d="M129.1575,-82.7004C158.2262,-69.9055 197.1798,-52.7596 227.3506,-39.4796"/>
<polygon fill="#2288cc" stroke="#2288cc" points="229.0715,-42.5462 236.8141,-35.3141 226.2514,-36.1394 229.0715,-42.5462"/>
</g>
<!-- sc&#45;&gt;create -->
<g id="edge5" class="edge">
<title>sc&#45;&gt;create</title>
<path fill="none" stroke="#2288cc" d="M243.1025,-81.468C228.6258,-70.5584 211.4839,-56.7962 197.5815,-44.9677"/>
<polygon fill="#2288cc" stroke="#2288cc" points="199.6717,-42.1482 189.815,-38.2628 195.0973,-47.4469 199.6717,-42.1482"/>
</g>
<!-- sc&#45;&gt;list_activate -->
<g id="edge11" class="edge">
<title>sc&#45;&gt;list_activate</title>
<path fill="none" stroke="#2288cc" d="M266.8263,-74.0627C266.4767,-65.7997 266.5483,-56.6613 267.0218,-48.243"/>
<polygon fill="#2288cc" stroke="#2288cc" points="270.5257,-48.3325 267.8349,-38.0851 263.548,-47.7739 270.5257,-48.3325"/>
</g>
<!-- delete -->
<g id="node8" class="node">
<title>delete</title>
<polygon fill="#ffff00" stroke="#000000" points="106.378,-37 45.378,-37 45.378,-1 106.378,-1 106.378,-37"/>
<text text-anchor="middle" x="75.878" y="-15.3" font-family="Times,serif" font-size="14.00" fill="#000000">delete</text>
</g>
<!-- sc&#45;&gt;delete -->
<g id="edge7" class="edge">
<title>sc&#45;&gt;delete</title>
<path fill="none" stroke="#2288cc" d="M236.4435,-87.0244C206.4505,-75.4611 162.6684,-58.2045 116.1384,-38.001"/>
<polygon fill="#2288cc" stroke="#2288cc" points="117.364,-34.7171 106.7991,-33.9219 114.5622,-41.1319 117.364,-34.7171"/>
</g>
<!-- sd -->
<g id="node4" class="node">
<title>sd</title>
<ellipse fill="#87ceeb" stroke="#000000" cx="231.878" cy="-264.6102" rx="42.3529" ry="26.7407"/>
<text text-anchor="middle" x="231.878" y="-268.4102" font-family="Times,serif" font-size="14.00" fill="#000000">Saved</text>
<text text-anchor="middle" x="231.878" y="-253.4102" font-family="Times,serif" font-size="14.00" fill="#000000">Dirty</text>
</g>
<!-- sd&#45;&gt;sc -->
<g id="edge15" class="edge">
<title>sd&#45;&gt;sc</title>
<path fill="none" stroke="#000000" d="M284.1378,-259.4029C352.0069,-251.4367 464.7865,-233.6803 489.878,-201.7401 537.221,-141.4752 403.6622,-115.6864 325.3271,-105.9798"/>
<polygon fill="#000000" stroke="#000000" points="283.5974,-255.9418 274.0587,-260.5529 284.391,-262.8966 283.5974,-255.9418"/>
<polygon fill="#000000" stroke="#000000" points="325.4743,-102.4727 315.1311,-104.7679 324.6481,-109.4238 325.4743,-102.4727"/>
</g>
<!-- sd&#45;&gt;create -->
<g id="edge4" class="edge">
<title>sd&#45;&gt;create</title>
<path fill="none" stroke="#2288cc" d="M198.0604,-248.0223C180.5189,-237.4291 160.7427,-221.8842 150.878,-201.7401 144.2841,-188.275 158.6655,-96.2253 166.7965,-48.1335"/>
<polygon fill="#2288cc" stroke="#2288cc" points="170.2887,-48.4758 168.5223,-38.0293 163.3886,-47.2973 170.2887,-48.4758"/>
</g>
<!-- sd&#45;&gt;list_activate -->
<g id="edge12" class="edge">
<title>sd&#45;&gt;list_activate</title>
<path fill="none" stroke="#2288cc" d="M274.1344,-261.2768C344.0838,-254.7851 479.1062,-237.803 507.878,-201.7401 569.9545,-123.9331 405.2374,-59.5308 320.5528,-32.5818"/>
<polygon fill="#2288cc" stroke="#2288cc" points="321.4781,-29.204 310.8892,-29.5584 319.3879,-35.8847 321.4781,-29.204"/>
</g>
<!-- sd&#45;&gt;delete -->
<g id="edge8" class="edge">
<title>sd&#45;&gt;delete:w</title>
<path fill="none" stroke="#2288cc" d="M191.2584,-256.1795C156.3631,-247.3166 106.2335,-230.5553 70.878,-201.7401 10.1439,-152.2409 -33.126,-30.6021 34.5784,-19.7735"/>
<polygon fill="#2288cc" stroke="#2288cc" points="35.1683,-23.2391 44.878,-19 34.644,-16.2588 35.1683,-23.2391"/>
</g>
<!-- revert -->
<g id="node10" class="node">
<title>revert</title>
<polygon fill="#ffff00" stroke="#000000" points="221.378,-200.7401 160.378,-200.7401 160.378,-164.7401 221.378,-164.7401 221.378,-200.7401"/>
<text text-anchor="middle" x="190.878" y="-179.0401" font-family="Times,serif" font-size="14.00" fill="#000000">revert</text>
</g>
<!-- sd&#45;&gt;revert -->
<g id="edge17" class="edge">
<title>sd&#45;&gt;revert</title>
<path fill="none" stroke="#2288cc" d="M218.9054,-238.706C214.3434,-229.5965 209.204,-219.3339 204.5837,-210.1079"/>
<polygon fill="#2288cc" stroke="#2288cc" points="207.6101,-208.3348 200.0027,-200.9606 201.3511,-211.4693 207.6101,-208.3348"/>
</g>
<!-- update -->
<g id="node11" class="node">
<title>update</title>
<polygon fill="#ffff00" stroke="#000000" points="305.878,-200.7401 239.878,-200.7401 239.878,-164.7401 305.878,-164.7401 305.878,-200.7401"/>
<text text-anchor="middle" x="272.878" y="-179.0401" font-family="Times,serif" font-size="14.00" fill="#000000">update</text>
</g>
<!-- sd&#45;&gt;update -->
<g id="edge18" class="edge">
<title>sd&#45;&gt;update</title>
<path fill="none" stroke="#2288cc" d="M244.8507,-238.706C249.4127,-229.5965 254.5521,-219.3339 259.1724,-210.1079"/>
<polygon fill="#2288cc" stroke="#2288cc" points="262.405,-211.4693 263.7534,-200.9606 256.146,-208.3348 262.405,-211.4693"/>
</g>
<!-- create&#45;&gt;sc -->
<g id="edge6" class="edge">
<title>create&#45;&gt;sc</title>
<path fill="none" stroke="#000000" d="M201.4601,-38.2563C214.4902,-48.0689 229.7079,-60.2175 242.7864,-71.1947"/>
<polygon fill="#000000" stroke="#000000" points="240.7278,-74.0384 250.6145,-77.8468 245.2607,-68.7042 240.7278,-74.0384"/>
</g>
<!-- make_default -->
<g id="node6" class="node">
<title>make_default</title>
<polygon fill="#ffff00" stroke="#000000" points="391.378,-201.7401 324.378,-201.7401 324.378,-163.7401 391.378,-163.7401 391.378,-201.7401"/>
<text text-anchor="middle" x="357.878" y="-186.5401" font-family="Times,serif" font-size="14.00" fill="#000000">make</text>
<text text-anchor="middle" x="357.878" y="-171.5401" font-family="Times,serif" font-size="14.00" fill="#000000">default</text>
</g>
<!-- make_default&#45;&gt;sc -->
<g id="edge14" class="edge">
<title>make_default&#45;&gt;sc</title>
<path fill="none" stroke="#2288cc" stroke-dasharray="5,2" d="M330.4453,-156.3176C319.502,-145.7772 307.0276,-133.7621 296.4953,-123.6177"/>
<polygon fill="#2288cc" stroke="#2288cc" points="328.1037,-158.9217 337.7342,-163.3381 332.9598,-153.8799 328.1037,-158.9217"/>
</g>
<!-- list_activate&#45;&gt;sc -->
<g id="edge13" class="edge">
<title>list_activate&#45;&gt;sc</title>
<path fill="none" stroke="#000000" d="M279.455,-38.0851C280.0943,-45.7781 280.2868,-54.9275 280.0533,-63.829"/>
<polygon fill="#000000" stroke="#000000" points="276.5458,-63.9131 279.5847,-74.0627 283.5385,-64.2333 276.5458,-63.9131"/>
</g>
<!-- delete&#45;&gt;ud -->
<g id="edge9" class="edge">
<title>delete&#45;&gt;ud</title>
<path fill="none" stroke="#000000" d="M78.5273,-37.0744C79.6956,-45.0451 81.1133,-54.7178 82.488,-64.0962"/>
<polygon fill="#000000" stroke="#000000" points="79.0355,-64.6761 83.9488,-74.0627 85.9615,-63.6608 79.0355,-64.6761"/>
</g>
<!-- rename -->
<g id="node9" class="node">
<title>rename</title>
<polygon fill="#ffff00" stroke="#000000" points="480.378,-200.7401 409.378,-200.7401 409.378,-164.7401 480.378,-164.7401 480.378,-200.7401"/>
<text text-anchor="middle" x="444.878" y="-179.0401" font-family="Times,serif" font-size="14.00" fill="#000000">rename</text>
</g>
<!-- rename&#45;&gt;sc -->
<g id="edge16" class="edge">
<title>rename&#45;&gt;sc</title>
<path fill="none" stroke="#2288cc" stroke-dasharray="5,2" d="M400.1096,-161.4308C371.0236,-147.5862 333.6946,-129.818 307.0059,-117.1145"/>
<polygon fill="#2288cc" stroke="#2288cc" points="398.7059,-164.6389 409.2395,-165.7766 401.7145,-158.3184 398.7059,-164.6389"/>
</g>
<!-- revert&#45;&gt;sc -->
<g id="edge19" class="edge">
<title>revert&#45;&gt;sc</title>
<path fill="none" stroke="#000000" d="M209.0765,-164.5705C218.985,-154.6777 231.4987,-142.1839 242.8135,-130.8869"/>
<polygon fill="#000000" stroke="#000000" points="245.4327,-133.2178 250.0365,-123.6754 240.4869,-128.2641 245.4327,-133.2178"/>
</g>
<!-- update&#45;&gt;sc -->
<g id="edge20" class="edge">
<title>update&#45;&gt;sc</title>
<path fill="none" stroke="#000000" d="M272.878,-164.5705C272.878,-156.7667 272.878,-147.3443 272.878,-138.1677"/>
<polygon fill="#000000" stroke="#000000" points="276.3781,-138.0107 272.878,-128.0108 269.3781,-138.0108 276.3781,-138.0107"/>
</g>
</g>
</svg>
