<?xml version="1.0" encoding="UTF-8" standalone="no"?>
<!DOCTYPE svg PUBLIC "-//W3C//DTD SVG 1.1//EN"
 "http://www.w3.org/Graphics/SVG/1.1/DTD/svg11.dtd">
<!-- Generated by graphviz version 2.38.0 (20140413.2041)
 -->
<!-- Title: G Pages: 1 -->
<svg width="1302pt" height="584pt"
 viewBox="0.00 0.00 1302.04 584.48" xmlns="http://www.w3.org/2000/svg" xmlns:xlink="http://www.w3.org/1999/xlink">
<g id="graph0" class="graph" transform="scale(1 1) rotate(0) translate(4 580.48)">
<title>G</title>
<polygon fill="white" stroke="none" points="-4,4 -4,-580.48 1298.04,-580.48 1298.04,4 -4,4"/>
<text text-anchor="middle" x="647.022" y="-561.28" font-family="Times,serif" font-size="14.00">ShipReq System Diagram</text>
<text text-anchor="middle" x="647.022" y="-546.28" font-family="Times,serif" font-size="14.00">(arrows denote a component&#39;s knowledge of another)</text>
<g id="clust1" class="cluster"><title>cluster_gandi</title>
<polygon fill="#ccddcc" stroke="black" points="94.0444,-437.74 94.0444,-530.48 278.044,-530.48 278.044,-437.74 94.0444,-437.74"/>
<text text-anchor="middle" x="186.044" y="-515.28" font-family="Times,serif" font-size="14.00">gandi.net</text>
</g>
<g id="clust2" class="cluster"><title>cluster_gcp</title>
<polygon fill="#ccddcc" stroke="black" points="57.0444,-8 57.0444,-418.74 302.044,-418.74 302.044,-8 57.0444,-8"/>
<text text-anchor="middle" x="179.544" y="-403.54" font-family="Times,serif" font-size="14.00">Google Cloud Platform</text>
</g>
<g id="clust3" class="cluster"><title>cluster_gke</title>
<polygon fill="#aabbaa" stroke="black" points="65.0444,-127.74 65.0444,-310.74 294.044,-310.74 294.044,-127.74 65.0444,-127.74"/>
<text text-anchor="middle" x="179.544" y="-295.54" font-family="Times,serif" font-size="14.00">GKE Cluster</text>
</g>
<g id="clust4" class="cluster"><title>cluster_gsuite</title>
<polygon fill="#ccddcc" stroke="black" points="310.044,-8 310.044,-202.74 715.044,-202.74 715.044,-8 310.044,-8"/>
<text text-anchor="middle" x="512.544" y="-187.54" font-family="Times,serif" font-size="14.00">G&#45;Suite</text>
</g>
<g id="clust6" class="cluster"><title>cluster_mc</title>
<polygon fill="#ccddcc" stroke="black" points="830.044,-127.74 830.044,-202.74 1038.04,-202.74 1038.04,-127.74 830.044,-127.74"/>
<text text-anchor="middle" x="934.044" y="-187.54" font-family="Times,serif" font-size="14.00">MailChimp</text>
</g>
<g id="clust7" class="cluster"><title>cluster_fd</title>
<polygon fill="#ccddcc" stroke="black" points="1078.04,-15.8701 1078.04,-202.74 1286.04,-202.74 1286.04,-15.8701 1078.04,-15.8701"/>
<text text-anchor="middle" x="1182.04" y="-187.54" font-family="Times,serif" font-size="14.00">Freshdesk</text>
</g>
<!-- staff_mail -->
<g id="node1" class="node"><title>staff_mail</title>
<polygon fill="#aabbff" stroke="black" points="1070.04,-61.8701 1067.04,-65.8701 1046.04,-65.8701 1043.04,-61.8701 948.044,-61.8701 948.044,-23.8701 1070.04,-23.8701 1070.04,-61.8701"/>
<text text-anchor="middle" x="1009.04" y="-46.6701" font-family="Times,serif" font-size="14.00">Staff&#39;s</text>
<text text-anchor="middle" x="1009.04" y="-31.6701" font-family="Times,serif" font-size="14.00">personal email</text>
</g>
<!-- gandi_dns -->
<g id="node2" class="node"><title>gandi_dns</title>
<ellipse fill="#55cc55" stroke="black" cx="186.044" cy="-472.61" rx="84.2917" ry="26.7407"/>
<text text-anchor="middle" x="186.044" y="-476.41" font-family="Times,serif" font-size="14.00">shipreq.com</text>
<text text-anchor="middle" x="186.044" y="-461.41" font-family="Times,serif" font-size="14.00">Name Servers</text>
</g>
<!-- cloud_dns -->
<g id="node3" class="node"><title>cloud_dns</title>
<ellipse fill="#55cc55" stroke="black" cx="186.044" cy="-369.74" rx="63.0888" ry="18"/>
<text text-anchor="middle" x="186.044" y="-366.04" font-family="Times,serif" font-size="14.00">Cloud DNS</text>
</g>
<!-- gandi_dns&#45;&gt;cloud_dns -->
<g id="edge8" class="edge"><title>gandi_dns&#45;&gt;cloud_dns</title>
<path fill="none" stroke="black" d="M186.044,-445.634C186.044,-430.978 186.044,-412.688 186.044,-397.851"/>
<polygon fill="black" stroke="black" points="186.044,-387.759 190.545,-397.759 186.044,-392.759 186.045,-397.759 186.045,-397.759 186.045,-397.759 186.044,-392.759 181.545,-397.759 186.044,-387.759 186.044,-387.759"/>
</g>
<!-- cloud_dns&#45;&gt;cloud_dns -->
<g id="edge3" class="edge"><title>cloud_dns:w&#45;&gt;cloud_dns:w</title>
<path fill="none" stroke="black" d="M115.805,-376.685C110.417,-379.11 105,-376.795 105,-369.74 105,-359.24 117,-359.24 123.044,-369.74"/>
<polygon fill="black" stroke="black" points="123.044,-369.74 118.943,-379.91 119.436,-373.201 115.828,-376.663 115.828,-376.663 115.828,-376.663 119.436,-373.201 112.713,-373.415 123.044,-369.74 123.044,-369.74"/>
<text text-anchor="middle" x="52.5" y="-366.04" font-family="Times,serif" font-size="14.00">CNAME:www </text>
</g>
<!-- webapp -->
<g id="node5" class="node"><title>webapp</title>
<ellipse fill="hotpink" stroke="black" cx="120.044" cy="-261.74" rx="46.5926" ry="18"/>
<text text-anchor="middle" x="120.044" y="-258.04" font-family="Times,serif" font-size="14.00">webapp</text>
</g>
<!-- cloud_dns&#45;&gt;webapp -->
<g id="edge2" class="edge"><title>cloud_dns&#45;&gt;webapp</title>
<path fill="none" stroke="black" d="M175.44,-351.709C164.745,-334.532 148.107,-307.81 135.855,-288.132"/>
<polygon fill="black" stroke="black" points="130.405,-279.379 139.51,-285.49 133.047,-283.624 135.69,-287.868 135.69,-287.868 135.69,-287.868 133.047,-283.624 131.87,-290.247 130.405,-279.379 130.405,-279.379"/>
<text text-anchor="middle" x="189.544" y="-322.54" font-family="Times,serif" font-size="14.00">A:&lt;ip&gt;</text>
</g>
<!-- gsuite_mail -->
<g id="node8" class="node"><title>gsuite_mail</title>
<ellipse fill="#55cc55" stroke="black" cx="356.044" cy="-42.8701" rx="38.1938" ry="18"/>
<text text-anchor="middle" x="356.044" y="-39.1701" font-family="Times,serif" font-size="14.00">GMail</text>
</g>
<!-- cloud_dns&#45;&gt;gsuite_mail -->
<g id="edge1" class="edge"><title>cloud_dns&#45;&gt;gsuite_mail</title>
<path fill="none" stroke="black" d="M248.267,-366.507C427.86,-358.631 940.733,-325.586 1042.04,-202.74 1063.25,-177.024 1061.82,-154.575 1042.04,-127.74 1006.44,-79.4168 972.226,-97.7759 913.044,-87.7401 801.237,-68.7802 512.363,-99.9038 403.044,-69.7401 397.292,-68.153 391.476,-65.7402 385.988,-63.0143"/>
<polygon fill="black" stroke="black" points="377.13,-58.2218 388.067,-59.0228 381.528,-60.6012 385.925,-62.9806 385.925,-62.9806 385.925,-62.9806 381.528,-60.6012 383.784,-66.9384 377.13,-58.2218 377.13,-58.2218"/>
<text text-anchor="middle" x="1045.54" y="-214.54" font-family="Times,serif" font-size="14.00">MX</text>
</g>
<!-- cloud_sql -->
<g id="node4" class="node"><title>cloud_sql</title>
<ellipse fill="#55cc55" stroke="black" cx="173.044" cy="-42.8701" rx="67.3507" ry="26.7407"/>
<text text-anchor="middle" x="173.044" y="-46.6701" font-family="Times,serif" font-size="14.00">Cloud SQL</text>
<text text-anchor="middle" x="173.044" y="-31.6701" font-family="Times,serif" font-size="14.00">Postgres</text>
</g>
<!-- cloudsqlproxy -->
<g id="node7" class="node"><title>cloudsqlproxy</title>
<ellipse fill="#55cc55" stroke="black" cx="173.044" cy="-153.74" rx="79.0865" ry="18"/>
<text text-anchor="middle" x="173.044" y="-150.04" font-family="Times,serif" font-size="14.00">cloudsql&#45;proxy</text>
</g>
<!-- webapp&#45;&gt;cloudsqlproxy -->
<g id="edge20" class="edge"><title>webapp&#45;&gt;cloudsqlproxy</title>
<path fill="none" stroke="hotpink" stroke-width="2" d="M128.56,-243.709C137.059,-226.71 150.232,-200.364 160.041,-180.747"/>
<polygon fill="hotpink" stroke="hotpink" stroke-width="2" points="164.55,-171.729 164.103,-182.685 162.761,-176.424 160.525,-180.896 160.078,-180.673 159.631,-180.449 161.867,-175.977 156.053,-178.66 164.55,-171.729 164.55,-171.729"/>
</g>
<!-- gsuite_route -->
<g id="node9" class="node"><title>gsuite_route</title>
<ellipse fill="#55cc55" stroke="black" cx="464.044" cy="-42.8701" rx="51.7379" ry="26.7407"/>
<text text-anchor="middle" x="464.044" y="-46.6701" font-family="Times,serif" font-size="14.00">Mail</text>
<text text-anchor="middle" x="464.044" y="-31.6701" font-family="Times,serif" font-size="14.00">Routing</text>
</g>
<!-- webapp&#45;&gt;gsuite_route -->
<g id="edge21" class="edge"><title>webapp&#45;&gt;gsuite_route</title>
<path fill="none" stroke="hotpink" stroke-width="2" d="M153.816,-249.208C160.774,-247.142 168.098,-245.189 175.044,-243.74 255.162,-227.026 486.49,-263.747 541.044,-202.74 563.264,-177.893 553.14,-158.801 541.044,-127.74 532.661,-106.213 515.883,-86.8604 500.123,-72.1843"/>
<polygon fill="hotpink" stroke="hotpink" stroke-width="2" points="492.509,-65.3662 502.961,-68.685 496.568,-68.3293 500.292,-71.6648 499.959,-72.0373 499.625,-72.4098 495.901,-69.0742 496.957,-75.3896 492.509,-65.3662 492.509,-65.3662"/>
<text text-anchor="middle" x="614.044" y="-150.04" font-family="Times,serif" font-size="14.00">mailto:contact@</text>
</g>
<!-- taskman -->
<g id="node6" class="node"><title>taskman</title>
<ellipse fill="#ff9900" stroke="black" cx="235.044" cy="-261.74" rx="50.8918" ry="18"/>
<text text-anchor="middle" x="235.044" y="-258.04" font-family="Times,serif" font-size="14.00">taskman</text>
</g>
<!-- taskman&#45;&gt;cloudsqlproxy -->
<g id="edge15" class="edge"><title>taskman&#45;&gt;cloudsqlproxy</title>
<path fill="none" stroke="#ff9900" stroke-width="2" d="M225.083,-243.709C215.095,-226.633 199.59,-200.124 188.1,-180.48"/>
<polygon fill="#ff9900" stroke="#ff9900" stroke-width="2" points="182.981,-171.729 191.914,-178.088 185.937,-175.792 188.462,-180.108 188.03,-180.36 187.598,-180.613 185.074,-176.297 184.146,-182.632 182.981,-171.729 182.981,-171.729"/>
</g>
<!-- gsuite_smtp -->
<g id="node10" class="node"><title>gsuite_smtp</title>
<ellipse fill="#55cc55" stroke="black" cx="357.044" cy="-153.74" rx="38.9931" ry="18"/>
<text text-anchor="middle" x="357.044" y="-150.04" font-family="Times,serif" font-size="14.00">SMTP</text>
</g>
<!-- taskman&#45;&gt;gsuite_smtp -->
<g id="edge18" class="edge"><title>taskman&#45;&gt;gsuite_smtp</title>
<path fill="none" stroke="#ff9900" stroke-width="2" d="M253.309,-244.871C274.121,-226.789 308.269,-197.118 331.662,-176.794"/>
<polygon fill="#ff9900" stroke="#ff9900" stroke-width="2" points="339.448,-170.029 334.851,-179.984 336.002,-173.686 332.227,-176.965 331.899,-176.587 331.571,-176.21 335.346,-172.931 328.948,-173.191 339.448,-170.029 339.448,-170.029"/>
</g>
<!-- gsuite_groups -->
<g id="node12" class="node"><title>gsuite_groups</title>
<polygon fill="#c0c8e0" stroke="black" points="706.544,-69.3701 703.544,-73.3701 682.544,-73.3701 679.544,-69.3701 533.544,-69.3701 533.544,-16.3701 706.544,-16.3701 706.544,-69.3701"/>
<text text-anchor="end" x="698.544" y="-54.1701" font-family="Times,serif" font-size="14.00">archive@shipreq.com</text>
<text text-anchor="end" x="698.544" y="-39.1701" font-family="Times,serif" font-size="14.00">news@shipreq.com</text>
<text text-anchor="end" x="698.544" y="-24.1701" font-family="Times,serif" font-size="14.00">notice@shipreq.com</text>
</g>
<!-- taskman&#45;&gt;gsuite_groups -->
<g id="edge17" class="edge"><title>taskman&#45;&gt;gsuite_groups</title>
<path fill="none" stroke="#ff9900" stroke-width="2" d="M284.752,-257.856C394.825,-250.962 651.46,-231.901 677.044,-202.74 708.444,-166.952 677.027,-112.598 649.881,-77.6594"/>
<polygon fill="#ff9900" stroke="#ff9900" stroke-width="2" points="643.469,-69.6505 653.232,-74.6446 646.985,-73.2413 650.11,-77.1445 649.719,-77.457 649.329,-77.7695 646.204,-73.8663 646.206,-80.2694 643.469,-69.6505 643.469,-69.6505"/>
<text text-anchor="middle" x="740.044" y="-150.04" font-family="Times,serif" font-size="14.00">bcc:archive@</text>
</g>
<!-- mc_api -->
<g id="node13" class="node"><title>mc_api</title>
<ellipse fill="#55cc55" stroke="black" cx="1002.04" cy="-153.74" rx="27.8951" ry="18"/>
<text text-anchor="middle" x="1002.04" y="-150.04" font-family="Times,serif" font-size="14.00">API</text>
</g>
<!-- taskman&#45;&gt;mc_api -->
<g id="edge19" class="edge"><title>taskman&#45;&gt;mc_api</title>
<path fill="none" stroke="#ff9900" stroke-width="2" d="M285.451,-259.145C440.896,-253.894 905.934,-235.579 965.044,-202.74 974.564,-197.451 982.434,-188.593 988.432,-179.916"/>
<polygon fill="#ff9900" stroke="#ff9900" stroke-width="2" points="993.798,-171.439 992.252,-182.295 991.547,-175.931 988.872,-180.156 988.45,-179.888 988.027,-179.621 990.702,-175.396 984.648,-177.482 993.798,-171.439 993.798,-171.439"/>
</g>
<!-- fd_api -->
<g id="node17" class="node"><title>fd_api</title>
<ellipse fill="#55cc55" stroke="black" cx="1114.04" cy="-153.74" rx="27.8951" ry="18"/>
<text text-anchor="middle" x="1114.04" y="-150.04" font-family="Times,serif" font-size="14.00">API</text>
</g>
<!-- taskman&#45;&gt;fd_api -->
<g id="edge16" class="edge"><title>taskman&#45;&gt;fd_api</title>
<path fill="none" stroke="#ff9900" stroke-width="2" d="M285.907,-260.309C399.128,-258.871 680.397,-252.645 914.044,-225.74 971.465,-219.128 988.43,-224.335 1042.04,-202.74 1059.08,-195.88 1076.26,-184.628 1089.56,-174.743"/>
<polygon fill="#ff9900" stroke="#ff9900" stroke-width="2" points="1097.71,-168.504 1092.51,-178.158 1094.04,-171.942 1090.07,-174.983 1089.77,-174.586 1089.46,-174.189 1093.43,-171.148 1087.03,-171.014 1097.71,-168.504 1097.71,-168.504"/>
</g>
<!-- cloudsqlproxy&#45;&gt;cloud_sql -->
<g id="edge4" class="edge"><title>cloudsqlproxy&#45;&gt;cloud_sql</title>
<path fill="none" stroke="black" d="M173.044,-135.729C173.044,-120.894 173.044,-98.8713 173.044,-80.108"/>
<polygon fill="black" stroke="black" points="173.044,-70.0857 177.545,-80.0856 173.044,-75.0857 173.045,-80.0857 173.045,-80.0857 173.045,-80.0857 173.044,-75.0857 168.545,-80.0857 173.044,-70.0857 173.044,-70.0857"/>
</g>
<!-- fd_mail -->
<g id="node15" class="node"><title>fd_mail</title>
<polygon fill="#aabbff" stroke="black" points="1273.04,-61.8701 1270.04,-65.8701 1249.04,-65.8701 1246.04,-61.8701 1093.04,-61.8701 1093.04,-23.8701 1273.04,-23.8701 1273.04,-61.8701"/>
<text text-anchor="middle" x="1183.04" y="-46.6701" font-family="Times,serif" font-size="14.00">shipreqcomcontact@</text>
<text text-anchor="middle" x="1183.04" y="-31.6701" font-family="Times,serif" font-size="14.00">shipreq.freshdesk.com</text>
</g>
<!-- gsuite_route&#45;&gt;fd_mail -->
<g id="edge9" class="edge"><title>gsuite_route&#45;&gt;fd_mail</title>
<path fill="none" stroke="black" d="M486.094,-67.3169C498.546,-79.2671 515.173,-92.4119 533.044,-98.7401 645.534,-138.572 953.842,-125.898 1070.04,-98.7401 1096.52,-92.5518 1123.92,-79.2094 1145.1,-67.1152"/>
<polygon fill="black" stroke="black" points="1153.78,-62.0329 1147.42,-70.9697 1149.47,-64.5597 1145.15,-67.0866 1145.15,-67.0866 1145.15,-67.0866 1149.47,-64.5597 1142.88,-63.2036 1153.78,-62.0329 1153.78,-62.0329"/>
</g>
<!-- gsuite_smtp&#45;&gt;gsuite_mail -->
<g id="edge10" class="edge"><title>gsuite_smtp&#45;&gt;gsuite_mail</title>
<path fill="none" stroke="black" d="M356.888,-135.729C356.73,-118.493 356.482,-91.5558 356.296,-71.2997"/>
<polygon fill="black" stroke="black" points="356.203,-61.1208 360.795,-71.079 356.249,-66.1206 356.295,-71.1204 356.295,-71.1204 356.295,-71.1204 356.249,-66.1206 351.795,-71.1618 356.203,-61.1208 356.203,-61.1208"/>
</g>
<!-- gsuite_web -->
<g id="node11" class="node"><title>gsuite_web</title>
<polygon fill="burlywood" stroke="black" points="532.044,-171.74 426.044,-171.74 426.044,-175.74 414.044,-175.74 414.044,-135.74 532.044,-135.74 532.044,-171.74"/>
<polyline fill="none" stroke="black" points="414.044,-171.74 426.044,-171.74 "/>
<text text-anchor="middle" x="473.044" y="-150.04" font-family="Times,serif" font-size="14.00">Web interface</text>
</g>
<!-- gsuite_web&#45;&gt;gsuite_mail -->
<g id="edge11" class="edge"><title>gsuite_web&#45;&gt;gsuite_mail</title>
<path fill="none" stroke="black" d="M454.763,-135.729C434.641,-117.005 402.215,-86.832 380.056,-66.2131"/>
<polygon fill="black" stroke="black" points="372.683,-59.3529 383.07,-62.8706 376.344,-62.7589 380.004,-66.165 380.004,-66.165 380.004,-66.165 376.344,-62.7589 376.939,-69.4594 372.683,-59.3529 372.683,-59.3529"/>
</g>
<!-- gsuite_web&#45;&gt;gsuite_route -->
<g id="edge13" class="edge"><title>gsuite_web&#45;&gt;gsuite_route</title>
<path fill="none" stroke="black" d="M471.638,-135.729C470.412,-120.894 468.591,-98.8713 467.04,-80.108"/>
<polygon fill="black" stroke="black" points="466.212,-70.0857 471.52,-79.6809 466.624,-75.0687 467.036,-80.0517 467.036,-80.0517 467.036,-80.0517 466.624,-75.0687 462.551,-80.4225 466.212,-70.0857 466.212,-70.0857"/>
</g>
<!-- gsuite_web&#45;&gt;gsuite_groups -->
<g id="edge12" class="edge"><title>gsuite_web&#45;&gt;gsuite_groups</title>
<path fill="none" stroke="black" d="M496.013,-135.729C517.654,-119.702 550.622,-95.2855 577.13,-75.6533"/>
<polygon fill="black" stroke="black" points="585.487,-69.464 580.129,-79.0319 581.469,-72.4399 577.45,-75.4157 577.45,-75.4157 577.45,-75.4157 581.469,-72.4399 574.772,-71.7994 585.487,-69.464 585.487,-69.464"/>
</g>
<!-- mc_web -->
<g id="node14" class="node"><title>mc_web</title>
<polygon fill="burlywood" stroke="black" points="956.044,-171.74 850.044,-171.74 850.044,-175.74 838.044,-175.74 838.044,-135.74 956.044,-135.74 956.044,-171.74"/>
<polyline fill="none" stroke="black" points="838.044,-171.74 850.044,-171.74 "/>
<text text-anchor="middle" x="897.044" y="-150.04" font-family="Times,serif" font-size="14.00">Web interface</text>
</g>
<!-- mc_web&#45;&gt;gsuite_groups -->
<g id="edge14" class="edge"><title>mc_web&#45;&gt;gsuite_groups</title>
<path fill="none" stroke="black" stroke-dasharray="5,2" d="M855.447,-135.652C822.997,-122.393 776.753,-103.653 736.044,-87.7401 723.82,-82.9614 710.839,-77.971 698.156,-73.1406"/>
<polygon fill="black" stroke="black" points="688.533,-69.4841 699.479,-68.8294 693.207,-71.2601 697.881,-73.036 697.881,-73.036 697.881,-73.036 693.207,-71.2601 696.283,-77.2426 688.533,-69.4841 688.533,-69.4841"/>
<text text-anchor="start" x="812.044" y="-106.54" font-family="Times,serif" font-size="14.00">from:notice@</text>
<text text-anchor="start" x="812.044" y="-91.5401" font-family="Times,serif" font-size="14.00">from:news@</text>
</g>
<!-- fd_web -->
<g id="node16" class="node"><title>fd_web</title>
<polygon fill="burlywood" stroke="black" points="1278.04,-171.74 1172.04,-171.74 1172.04,-175.74 1160.04,-175.74 1160.04,-135.74 1278.04,-135.74 1278.04,-171.74"/>
<polyline fill="none" stroke="black" points="1160.04,-171.74 1172.04,-171.74 "/>
<text text-anchor="middle" x="1219.04" y="-150.04" font-family="Times,serif" font-size="14.00">Web interface</text>
</g>
<!-- fd_web&#45;&gt;staff_mail -->
<g id="edge7" class="edge"><title>fd_web&#45;&gt;staff_mail</title>
<path fill="none" stroke="black" d="M1215.83,-135.5C1212.07,-120.454 1204.32,-99.275 1189.04,-87.7401 1147.76,-56.5627 1123.94,-83.3905 1074.04,-69.7401 1069.45,-68.4843 1064.75,-67.0067 1060.06,-65.4047"/>
<polygon fill="black" stroke="black" points="1050.53,-61.9729 1061.47,-61.1276 1055.24,-63.6671 1059.94,-65.3614 1059.94,-65.3614 1059.94,-65.3614 1055.24,-63.6671 1058.42,-69.5952 1050.53,-61.9729 1050.53,-61.9729"/>
</g>
<!-- fd_web&#45;&gt;gsuite_groups -->
<g id="edge6" class="edge"><title>fd_web&#45;&gt;gsuite_groups</title>
<path fill="none" stroke="black" d="M1176.65,-135.696C1168.26,-132.738 1159.45,-129.918 1151.04,-127.74 1123.18,-120.516 1111.12,-133.532 1087.04,-117.74 1073.85,-109.083 1081.48,-96.0152 1068.04,-87.7401 1053.29,-78.6577 844.033,-61.1091 716.8,-51.1805"/>
<polygon fill="black" stroke="black" points="706.65,-50.391 716.968,-46.6801 711.634,-50.7787 716.619,-51.1665 716.619,-51.1665 716.619,-51.1665 711.634,-50.7787 716.27,-55.653 706.65,-50.391 706.65,-50.391"/>
<text text-anchor="middle" x="1136.04" y="-99.0401" font-family="Times,serif" font-size="14.00">bcc:archive@</text>
</g>
<!-- fd_web&#45;&gt;fd_mail -->
<g id="edge5" class="edge"><title>fd_web&#45;&gt;fd_mail</title>
<path fill="none" stroke="black" d="M1220.17,-135.661C1220.49,-122.241 1219.65,-103.285 1214.04,-87.7401 1211.94,-81.8948 1208.83,-76.1207 1205.38,-70.7765"/>
<polygon fill="black" stroke="black" points="1199.37,-62.252 1208.81,-67.8357 1202.25,-66.3396 1205.13,-70.4272 1205.13,-70.4272 1205.13,-70.4272 1202.25,-66.3396 1201.45,-73.0188 1199.37,-62.252 1199.37,-62.252"/>
</g>
</g>
</svg>
