<?xml version="1.0" encoding="UTF-8" standalone="no"?>
<!DOCTYPE svg PUBLIC "-//W3C//DTD SVG 1.1//EN"
 "http://www.w3.org/Graphics/SVG/1.1/DTD/svg11.dtd">
<!-- Generated by graphviz version 2.38.0 (20140413.2041)
 -->
<!-- Title: G Pages: 1 -->
<svg width="1045pt" height="1194pt"
 viewBox="0.00 0.00 1044.93 1194.00" xmlns="http://www.w3.org/2000/svg" xmlns:xlink="http://www.w3.org/1999/xlink">
<g id="graph0" class="graph" transform="scale(1 1) rotate(0) translate(4 1190)">
<title>G</title>
<polygon fill="white" stroke="none" points="-4,4 -4,-1190 1040.93,-1190 1040.93,4 -4,4"/>
<text text-anchor="middle" x="518.467" y="-1170.8" font-family="Times,serif" font-size="14.00">ShipReq System Diagram: Emails &amp; Comms</text>
<text text-anchor="middle" x="518.467" y="-1155.8" font-family="Times,serif" font-size="14.00">(arrows denote flow of data from one component to another)</text>
<text text-anchor="middle" x="518.467" y="-1140.8" font-family="Times,serif" font-size="14.00">(ignores which component instigates the data transfer)</text>
<text text-anchor="middle" x="518.467" y="-1125.8" font-family="Times,serif" font-size="14.00">(red = comm from user, blue = comm to user)</text>
<g id="clust1" class="cluster"><title>cluster_staff</title>
<polygon fill="#e6ffe6" stroke="black" points="494.935,-8 494.935,-308 636.935,-308 636.935,-8 494.935,-8"/>
<text text-anchor="middle" x="565.935" y="-292.8" font-family="Times,serif" font-size="14.00">Staff</text>
</g>
<g id="clust2" class="cluster"><title>cluster_usr</title>
<polygon fill="#eeeeaa" stroke="black" points="323.935,-808 323.935,-1110 449.935,-1110 449.935,-808 323.935,-808"/>
<text text-anchor="middle" x="386.935" y="-1094.8" font-family="Times,serif" font-size="14.00">Userland</text>
</g>
<g id="clust3" class="cluster"><title>cluster_gsuite</title>
<polygon fill="#ebebeb" stroke="black" points="238.935,-455 238.935,-771 610.935,-771 610.935,-455 238.935,-455"/>
<text text-anchor="middle" x="424.935" y="-755.8" font-family="Times,serif" font-size="14.00">G&#45;Suite</text>
</g>
<g id="clust4" class="cluster"><title>cluster_gcp</title>
<polygon fill="#ebebeb" stroke="black" points="849.935,-576.5 849.935,-884 1028.93,-884 1028.93,-576.5 849.935,-576.5"/>
<text text-anchor="middle" x="939.435" y="-868.8" font-family="Times,serif" font-size="14.00">Google Cloud Platform</text>
</g>
<g id="clust5" class="cluster"><title>cluster_mc</title>
<polygon fill="#ebebeb" stroke="black" points="22.9347,-455 22.9347,-530 230.935,-530 230.935,-455 22.9347,-455"/>
<text text-anchor="middle" x="126.935" y="-514.8" font-family="Times,serif" font-size="14.00">MailChimp</text>
</g>
<g id="clust6" class="cluster"><title>cluster_fd</title>
<polygon fill="#ebebeb" stroke="black" points="618.935,-345 618.935,-531 888.935,-531 888.935,-345 618.935,-345"/>
<text text-anchor="middle" x="753.935" y="-515.8" font-family="Times,serif" font-size="14.00">Freshdesk</text>
</g>
<!-- staff_web -->
<g id="node1" class="node"><title>staff_web</title>
<polygon fill="burlywood" stroke="black" points="628.935,-166 514.935,-166 514.935,-170 502.935,-170 502.935,-128 628.935,-128 628.935,-166"/>
<polyline fill="none" stroke="black" points="502.935,-166 514.935,-166 "/>
<text text-anchor="middle" x="565.935" y="-150.8" font-family="Times,serif" font-size="14.00">Staff member&#39;s</text>
<text text-anchor="middle" x="565.935" y="-135.8" font-family="Times,serif" font-size="14.00">web browser</text>
</g>
<!-- staff -->
<g id="node3" class="node"><title>staff</title>
<polygon fill="#aabbff" stroke="black" points="567.435,-41.5 568.935,-43 568.935,-46 567.435,-47.5 564.435,-47.5 562.935,-46 562.935,-43 564.435,-41.5 567.435,-41.5"/>
<polyline fill="none" stroke="black" points="565.935,-41.5 565.935,-35.5 "/>
<polyline fill="none" stroke="black" points="538.935,-35.5 592.935,-35.5 "/>
<text text-anchor="middle" x="565.935" y="-23.8" font-family="Times,serif" font-size="14.00">Staff</text>
</g>
<!-- staff_web&#45;&gt;staff -->
<g id="edge14" class="edge"><title>staff_web&#45;&gt;staff</title>
<path fill="none" stroke="red" d="M555.602,-127.918C552.067,-110.927 551.491,-85.214 553.875,-65.3817"/>
<polygon fill="red" stroke="red" points="555.447,-55.3432 558.345,-65.919 554.673,-60.283 553.9,-65.2228 553.9,-65.2228 553.9,-65.2228 554.673,-60.283 549.454,-64.5265 555.447,-55.3432 555.447,-55.3432"/>
</g>
<!-- staff_web&#45;&gt;staff -->
<g id="edge26" class="edge"><title>staff_web&#45;&gt;staff</title>
<path fill="none" stroke="#000099" d="M565.935,-117.724C565.935,-98.1046 565.935,-72.5109 565.935,-55.3432"/>
<polygon fill="#000099" stroke="#000099" points="565.935,-127.918 561.435,-117.918 565.935,-122.918 565.935,-117.918 565.935,-117.918 565.935,-117.918 565.935,-122.918 570.435,-117.918 565.935,-127.918 565.935,-127.918"/>
</g>
<!-- staff_web&#45;&gt;staff -->
<g id="edge43" class="edge"><title>staff_web&#45;&gt;staff</title>
<path fill="none" stroke="#22bbdd" d="M576.267,-127.918C579.803,-110.927 580.379,-85.214 577.995,-65.3817"/>
<polygon fill="#22bbdd" stroke="#22bbdd" points="576.423,-55.3432 582.416,-64.5265 577.196,-60.283 577.97,-65.2228 577.97,-65.2228 577.97,-65.2228 577.196,-60.283 573.524,-65.919 576.423,-55.3432 576.423,-55.3432"/>
</g>
<!-- staff_mail -->
<g id="node2" class="node"><title>staff_mail</title>
<polygon fill="#aabbff" stroke="black" points="628.935,-277 625.935,-281 604.935,-281 601.935,-277 502.935,-277 502.935,-239 628.935,-239 628.935,-277"/>
<text text-anchor="middle" x="565.935" y="-261.8" font-family="Times,serif" font-size="14.00">Staff member&#39;s</text>
<text text-anchor="middle" x="565.935" y="-246.8" font-family="Times,serif" font-size="14.00">email address</text>
</g>
<!-- staff_mail&#45;&gt;staff_web -->
<g id="edge16" class="edge"><title>staff_mail&#45;&gt;staff_web</title>
<path fill="none" stroke="red" d="M560.718,-238.51C558.985,-221.495 558.721,-196.006 559.926,-176.408"/>
<polygon fill="red" stroke="red" points="560.746,-166.217 564.429,-176.546 560.345,-171.201 559.943,-176.185 559.943,-176.185 559.943,-176.185 560.345,-171.201 555.458,-175.824 560.746,-166.217 560.746,-166.217"/>
</g>
<!-- staff_mail&#45;&gt;staff_web -->
<g id="edge28" class="edge"><title>staff_mail&#45;&gt;staff_web</title>
<path fill="none" stroke="#000099" d="M571.963,-228.276C573.152,-208.616 572.872,-183.14 571.124,-166.217"/>
<polygon fill="#000099" stroke="#000099" points="571.152,-238.51 567.456,-228.185 571.547,-233.525 571.942,-228.541 571.942,-228.541 571.942,-228.541 571.547,-233.525 576.428,-228.897 571.152,-238.51 571.152,-238.51"/>
</g>
<!-- usr_web -->
<g id="node4" class="node"><title>usr_web</title>
<polygon fill="burlywood" stroke="black" points="441.435,-967 344.435,-967 344.435,-971 332.435,-971 332.435,-929 441.435,-929 441.435,-967"/>
<polyline fill="none" stroke="black" points="332.435,-967 344.435,-967 "/>
<text text-anchor="middle" x="386.935" y="-951.8" font-family="Times,serif" font-size="14.00">User&#39;s</text>
<text text-anchor="middle" x="386.935" y="-936.8" font-family="Times,serif" font-size="14.00">web browser</text>
</g>
<!-- usr_mail -->
<g id="node5" class="node"><title>usr_mail</title>
<polygon fill="#aabbff" stroke="black" points="417.935,-854 414.935,-858 393.935,-858 390.935,-854 355.935,-854 355.935,-816 417.935,-816 417.935,-854"/>
<text text-anchor="middle" x="386.935" y="-838.8" font-family="Times,serif" font-size="14.00">User&#39;s</text>
<text text-anchor="middle" x="386.935" y="-823.8" font-family="Times,serif" font-size="14.00">email</text>
</g>
<!-- usr_web&#45;&gt;usr_mail -->
<g id="edge7" class="edge"><title>usr_web&#45;&gt;usr_mail</title>
<path fill="none" stroke="red" d="M376.602,-928.671C373.007,-911.157 372.472,-884.504 374.997,-864.27"/>
<polygon fill="red" stroke="red" points="376.597,-854.357 379.446,-864.946 375.8,-859.293 375.004,-864.229 375.004,-864.229 375.004,-864.229 375.8,-859.293 370.561,-863.512 376.597,-854.357 376.597,-854.357"/>
</g>
<!-- usr_web&#45;&gt;usr_mail -->
<g id="edge22" class="edge"><title>usr_web&#45;&gt;usr_mail</title>
<path fill="none" stroke="#000099" d="M386.935,-918.483C386.935,-898.29 386.935,-871.799 386.935,-854.357"/>
<polygon fill="#000099" stroke="#000099" points="386.935,-928.671 382.435,-918.671 386.935,-923.671 386.935,-918.671 386.935,-918.671 386.935,-918.671 386.935,-923.671 391.435,-918.671 386.935,-928.671 386.935,-928.671"/>
</g>
<!-- usr_web&#45;&gt;usr_mail -->
<g id="edge37" class="edge"><title>usr_web&#45;&gt;usr_mail</title>
<path fill="none" stroke="#22bbdd" d="M398.868,-918.761C401.396,-898.534 400.864,-871.88 397.273,-854.357"/>
<polygon fill="#22bbdd" stroke="#22bbdd" points="397.267,-928.671 394.42,-918.081 398.065,-923.735 398.862,-918.799 398.862,-918.799 398.862,-918.799 398.065,-923.735 403.305,-919.516 397.267,-928.671 397.267,-928.671"/>
</g>
<!-- webapp -->
<g id="node13" class="node"><title>webapp</title>
<ellipse fill="#ffff99" stroke="black" cx="914.935" cy="-835" rx="46.5926" ry="18"/>
<text text-anchor="middle" x="914.935" y="-831.3" font-family="Times,serif" font-size="14.00">webapp</text>
</g>
<!-- usr_web&#45;&gt;webapp -->
<g id="edge2" class="edge"><title>usr_web&#45;&gt;webapp</title>
<path fill="none" stroke="red" d="M441.451,-935.539C544.26,-913.926 765.361,-867.444 864.746,-846.551"/>
<polygon fill="red" stroke="red" points="874.829,-844.431 865.969,-850.892 869.936,-845.46 865.043,-846.489 865.043,-846.489 865.043,-846.489 869.936,-845.46 864.117,-842.085 874.829,-844.431 874.829,-844.431"/>
</g>
<!-- fd_web -->
<g id="node18" class="node"><title>fd_web</title>
<polygon fill="burlywood" stroke="black" points="750.935,-389 644.935,-389 644.935,-393 632.935,-393 632.935,-353 750.935,-353 750.935,-389"/>
<polyline fill="none" stroke="black" points="632.935,-389 644.935,-389 "/>
<text text-anchor="middle" x="691.935" y="-367.3" font-family="Times,serif" font-size="14.00">Web interface</text>
</g>
<!-- usr_web&#45;&gt;fd_web -->
<g id="edge12" class="edge"><title>usr_web&#45;&gt;fd_web</title>
<path fill="none" stroke="red" d="M332.325,-942.66C226.309,-932.723 2.93474,-903.748 2.93474,-836 2.93474,-836 2.93474,-836 2.93474,-539 2.93474,-500.995 -8.80423,-480.979 18.9347,-455 62.4987,-414.2 459.38,-385.956 622.46,-375.978"/>
<polygon fill="red" stroke="red" points="632.857,-375.347 623.148,-380.445 627.866,-375.65 622.876,-375.953 622.876,-375.953 622.876,-375.953 627.866,-375.65 622.603,-371.461 632.857,-375.347 632.857,-375.347"/>
</g>
<!-- smtp -->
<g id="node7" class="node"><title>smtp</title>
<ellipse fill="#55cc55" stroke="black" cx="563.935" cy="-721" rx="38.9931" ry="18"/>
<text text-anchor="middle" x="563.935" y="-717.3" font-family="Times,serif" font-size="14.00">SMTP</text>
</g>
<!-- usr_mail&#45;&gt;smtp -->
<g id="edge38" class="edge"><title>usr_mail&#45;&gt;smtp</title>
<path fill="none" stroke="#22bbdd" d="M427.381,-818.479C453.848,-807.33 488.482,-790.807 515.935,-771 529.069,-761.524 541.795,-748.287 550.839,-737.96"/>
<polygon fill="#22bbdd" stroke="#22bbdd" points="418.027,-822.339 425.554,-814.364 422.649,-820.431 427.271,-818.524 427.271,-818.524 427.271,-818.524 422.649,-820.431 428.988,-822.683 418.027,-822.339 418.027,-822.339"/>
</g>
<!-- ea_contact -->
<g id="node8" class="node"><title>ea_contact</title>
<polygon fill="#c0c8e0" stroke="black" points="507.435,-740 504.435,-744 483.435,-744 480.435,-740 334.435,-740 334.435,-702 507.435,-702 507.435,-740"/>
<text text-anchor="middle" x="420.935" y="-724.8" font-family="Times,serif" font-size="14.00">contact@shipreq.com</text>
<text text-anchor="middle" x="420.935" y="-709.8" font-family="Times,serif" font-size="14.00">(Routing rule)</text>
</g>
<!-- usr_mail&#45;&gt;ea_contact -->
<g id="edge8" class="edge"><title>usr_mail&#45;&gt;ea_contact</title>
<path fill="none" stroke="red" d="M387.383,-815.505C391.004,-797.565 399.088,-770.12 406.647,-749.597"/>
<polygon fill="red" stroke="red" points="410.294,-740.15 410.89,-751.1 408.493,-744.815 406.692,-749.479 406.692,-749.479 406.692,-749.479 408.493,-744.815 402.494,-747.859 410.294,-740.15 410.294,-740.15"/>
</g>
<!-- usr_mail&#45;&gt;ea_contact -->
<g id="edge23" class="edge"><title>usr_mail&#45;&gt;ea_contact</title>
<path fill="none" stroke="#000099" d="M401.368,-806.007C408.934,-785.396 416.992,-757.968 420.556,-740.15"/>
<polygon fill="#000099" stroke="#000099" points="397.715,-815.505 397.105,-804.557 399.51,-810.839 401.305,-806.172 401.305,-806.172 401.305,-806.172 399.51,-810.839 405.505,-807.787 397.715,-815.505 397.715,-815.505"/>
</g>
<!-- ea_broadcast -->
<g id="node9" class="node"><title>ea_broadcast</title>
<polygon fill="#c0c8e0" stroke="black" points="410.935,-629 407.935,-633 386.935,-633 383.935,-629 246.935,-629 246.935,-576 410.935,-576 410.935,-629"/>
<text text-anchor="end" x="402.935" y="-613.8" font-family="Times,serif" font-size="14.00">news@shipreq.com</text>
<text text-anchor="end" x="402.935" y="-598.8" font-family="Times,serif" font-size="14.00">notice@shipreq.com</text>
<text text-anchor="middle" x="328.935" y="-583.8" font-family="Times,serif" font-size="14.00">(Group)</text>
</g>
<!-- usr_mail&#45;&gt;ea_broadcast -->
<g id="edge9" class="edge"><title>usr_mail&#45;&gt;ea_broadcast</title>
<path fill="none" stroke="red" d="M355.713,-817.679C340.35,-806.398 323.728,-790.029 315.935,-771 298.376,-728.125 304.215,-673.762 313.301,-638.803"/>
<polygon fill="red" stroke="red" points="316.068,-629.047 317.669,-639.895 314.704,-633.857 313.34,-638.668 313.34,-638.668 313.34,-638.668 314.704,-633.857 309.01,-637.44 316.068,-629.047 316.068,-629.047"/>
</g>
<!-- usr_mail&#45;&gt;ea_broadcast -->
<g id="edge29" class="edge"><title>usr_mail&#45;&gt;ea_broadcast</title>
<path fill="none" stroke="#000099" d="M361.551,-808.819C350.957,-798.478 339.878,-785.513 333.935,-771 314.643,-723.893 323.596,-662.917 328.318,-629.047"/>
<polygon fill="#000099" stroke="#000099" points="369.099,-815.869 358.719,-812.332 365.445,-812.456 361.791,-809.043 361.791,-809.043 361.791,-809.043 365.445,-812.456 364.863,-805.755 369.099,-815.869 369.099,-815.869"/>
</g>
<!-- usr -->
<g id="node6" class="node"><title>usr</title>
<polygon fill="#55cc55" stroke="black" points="388.435,-1065.5 389.935,-1067 389.935,-1070 388.435,-1071.5 385.435,-1071.5 383.935,-1070 383.935,-1067 385.435,-1065.5 388.435,-1065.5"/>
<polyline fill="none" stroke="black" points="386.935,-1065.5 386.935,-1059.5 "/>
<polyline fill="none" stroke="black" points="359.935,-1059.5 413.935,-1059.5 "/>
<text text-anchor="middle" x="386.935" y="-1047.8" font-family="Times,serif" font-size="14.00">User</text>
</g>
<!-- usr&#45;&gt;usr_web -->
<g id="edge1" class="edge"><title>usr&#45;&gt;usr_web</title>
<path fill="none" stroke="red" d="M376.501,-1039.92C373.02,-1022.75 372.503,-996.988 374.95,-977.265"/>
<polygon fill="red" stroke="red" points="376.557,-967.301 379.407,-977.89 375.761,-972.237 374.965,-977.173 374.965,-977.173 374.965,-977.173 375.761,-972.237 370.522,-976.457 376.557,-967.301 376.557,-967.301"/>
</g>
<!-- usr&#45;&gt;usr_web -->
<g id="edge21" class="edge"><title>usr&#45;&gt;usr_web</title>
<path fill="none" stroke="#000099" d="M386.935,-1029.92C386.935,-1010.13 386.935,-984.38 386.935,-967.301"/>
<polygon fill="#000099" stroke="#000099" points="386.935,-1039.92 382.435,-1029.92 386.935,-1034.92 386.935,-1029.92 386.935,-1029.92 386.935,-1029.92 386.935,-1034.92 391.435,-1029.92 386.935,-1039.92 386.935,-1039.92"/>
</g>
<!-- usr&#45;&gt;usr_web -->
<g id="edge36" class="edge"><title>usr&#45;&gt;usr_web</title>
<path fill="none" stroke="#22bbdd" d="M398.958,-1029.92C401.374,-1010.13 400.825,-984.38 397.313,-967.301"/>
<polygon fill="#22bbdd" stroke="#22bbdd" points="397.369,-1039.92 394.494,-1029.34 398.153,-1034.99 398.938,-1030.05 398.938,-1030.05 398.938,-1030.05 398.153,-1034.99 403.382,-1030.75 397.369,-1039.92 397.369,-1039.92"/>
</g>
<!-- ea_archive -->
<g id="node10" class="node"><title>ea_archive</title>
<polygon fill="#c0c8e0" stroke="black" points="602.435,-621.5 599.435,-625.5 578.435,-625.5 575.435,-621.5 429.435,-621.5 429.435,-583.5 602.435,-583.5 602.435,-621.5"/>
<text text-anchor="middle" x="515.935" y="-606.3" font-family="Times,serif" font-size="14.00">archive@shipreq.com</text>
<text text-anchor="middle" x="515.935" y="-591.3" font-family="Times,serif" font-size="14.00">(Group)</text>
</g>
<!-- smtp&#45;&gt;ea_archive -->
<g id="edge40" class="edge"><title>smtp&#45;&gt;ea_archive</title>
<path fill="none" stroke="#22bbdd" d="M556.852,-702.81C549.038,-683.844 536.355,-653.061 527.179,-630.79"/>
<polygon fill="#22bbdd" stroke="#22bbdd" points="523.362,-621.527 531.333,-629.059 525.267,-626.15 527.172,-630.773 527.172,-630.773 527.172,-630.773 525.267,-626.15 523.011,-632.488 523.362,-621.527 523.362,-621.527"/>
</g>
<!-- taskman -->
<g id="node14" class="node"><title>taskman</title>
<ellipse fill="#ffff99" stroke="black" cx="910.935" cy="-602.5" rx="50.8918" ry="18"/>
<text text-anchor="middle" x="910.935" y="-598.8" font-family="Times,serif" font-size="14.00">taskman</text>
</g>
<!-- smtp&#45;&gt;taskman -->
<g id="edge39" class="edge"><title>smtp&#45;&gt;taskman</title>
<path fill="none" stroke="#22bbdd" d="M613.236,-718.961C671.793,-715.891 770.967,-704.791 845.935,-666 867.347,-654.921 886.52,-634.554 898.399,-620.083"/>
<polygon fill="#22bbdd" stroke="#22bbdd" points="603.142,-719.431 612.921,-714.471 608.136,-719.199 613.131,-718.966 613.131,-718.966 613.131,-718.966 608.136,-719.199 613.34,-723.461 603.142,-719.431 603.142,-719.431"/>
</g>
<!-- ea_contact&#45;&gt;staff_mail -->
<g id="edge27" class="edge"><title>ea_contact&#45;&gt;staff_mail</title>
<path fill="none" stroke="#000099" stroke-dasharray="5,2" d="M514.308,-698.41C550.972,-684.872 589.374,-663.233 610.935,-629 629.902,-598.885 583.036,-347.276 569.479,-277.106"/>
<polygon fill="#000099" stroke="#000099" points="504.534,-701.848 512.474,-694.284 509.251,-700.189 513.968,-698.529 513.968,-698.529 513.968,-698.529 509.251,-700.189 515.461,-702.774 504.534,-701.848 504.534,-701.848"/>
</g>
<!-- ea_contact&#45;&gt;ea_archive -->
<g id="edge19" class="edge"><title>ea_contact&#45;&gt;ea_archive</title>
<path fill="none" stroke="red" d="M435.778,-701.797C451.604,-682.39 476.803,-651.488 494.72,-629.516"/>
<polygon fill="red" stroke="red" points="501.195,-621.575 498.363,-632.169 498.035,-625.45 494.876,-629.325 494.876,-629.325 494.876,-629.325 498.035,-625.45 491.388,-626.481 501.195,-621.575 501.195,-621.575"/>
</g>
<!-- fd_mail -->
<g id="node17" class="node"><title>fd_mail</title>
<polygon fill="#aabbff" stroke="black" points="806.935,-500 803.935,-504 782.935,-504 779.935,-500 626.935,-500 626.935,-462 806.935,-462 806.935,-500"/>
<text text-anchor="middle" x="716.935" y="-484.8" font-family="Times,serif" font-size="14.00">shipreqcomcontact@</text>
<text text-anchor="middle" x="716.935" y="-469.8" font-family="Times,serif" font-size="14.00">shipreq.freshdesk.com</text>
</g>
<!-- ea_contact&#45;&gt;fd_mail -->
<g id="edge10" class="edge"><title>ea_contact&#45;&gt;fd_mail</title>
<path fill="none" stroke="red" d="M507.651,-703.092C566.005,-691.037 634.194,-675.367 644.935,-666 691.568,-625.331 708.231,-550.622 714.006,-510.034"/>
<polygon fill="red" stroke="red" points="715.307,-500.019 718.481,-510.515 714.663,-504.977 714.019,-509.936 714.019,-509.936 714.019,-509.936 714.663,-504.977 709.556,-509.356 715.307,-500.019 715.307,-500.019"/>
</g>
<!-- ea_contact&#45;&gt;fd_web -->
<g id="edge24" class="edge"><title>ea_contact&#45;&gt;fd_web</title>
<path fill="none" stroke="#000099" d="M517.468,-701.201C571.541,-690.061 633.15,-676.179 658.935,-666 714.238,-644.167 860.342,-582.569 889.935,-531 906.746,-501.703 908.641,-483.125 889.935,-455 859.281,-408.913 797.566,-388.365 751.139,-379.235"/>
<polygon fill="#000099" stroke="#000099" points="507.469,-703.248 516.364,-696.834 512.368,-702.245 517.266,-701.242 517.266,-701.242 517.266,-701.242 512.368,-702.245 518.169,-705.651 507.469,-703.248 507.469,-703.248"/>
</g>
<!-- gsuite_web -->
<g id="node11" class="node"><title>gsuite_web</title>
<polygon fill="burlywood" stroke="black" points="515.935,-499 409.935,-499 409.935,-503 397.935,-503 397.935,-463 515.935,-463 515.935,-499"/>
<polyline fill="none" stroke="black" points="397.935,-499 409.935,-499 "/>
<text text-anchor="middle" x="456.935" y="-477.3" font-family="Times,serif" font-size="14.00">Web interface</text>
</g>
<!-- ea_broadcast&#45;&gt;gsuite_web -->
<g id="edge17" class="edge"><title>ea_broadcast&#45;&gt;gsuite_web</title>
<path fill="none" stroke="red" d="M350.737,-575.864C371.447,-555.129 402.531,-526.15 425.814,-505.895"/>
<polygon fill="red" stroke="red" points="433.694,-499.122 429.043,-509.053 429.902,-502.382 426.11,-505.641 426.11,-505.641 426.11,-505.641 429.902,-502.382 423.177,-502.228 433.694,-499.122 433.694,-499.122"/>
</g>
<!-- ea_broadcast&#45;&gt;gsuite_web -->
<g id="edge32" class="edge"><title>ea_broadcast&#45;&gt;gsuite_web</title>
<path fill="none" stroke="#000099" d="M369.725,-569.093C395.09,-546.524 425.979,-517.32 443.495,-499.122"/>
<polygon fill="#000099" stroke="#000099" points="362.051,-575.864 366.572,-565.874 365.8,-572.556 369.549,-569.248 369.549,-569.248 369.549,-569.248 365.8,-572.556 372.527,-572.622 362.051,-575.864 362.051,-575.864"/>
</g>
<!-- mc_web -->
<g id="node16" class="node"><title>mc_web</title>
<polygon fill="burlywood" stroke="black" points="148.935,-499 42.9347,-499 42.9347,-503 30.9347,-503 30.9347,-463 148.935,-463 148.935,-499"/>
<polyline fill="none" stroke="black" points="30.9347,-499 42.9347,-499 "/>
<text text-anchor="middle" x="89.9347" y="-477.3" font-family="Times,serif" font-size="14.00">Web interface</text>
</g>
<!-- ea_broadcast&#45;&gt;mc_web -->
<g id="edge30" class="edge"><title>ea_broadcast&#45;&gt;mc_web</title>
<path fill="none" stroke="#000099" stroke-dasharray="5,2" d="M246.851,-572.166C218.05,-560.708 185.919,-546.57 157.935,-531 141.277,-521.732 123.861,-509.118 110.825,-499.01"/>
<polygon fill="#000099" stroke="#000099" points="256.479,-575.948 245.527,-576.481 251.826,-574.12 247.172,-572.292 247.172,-572.292 247.172,-572.292 251.826,-574.12 248.817,-568.104 256.479,-575.948 256.479,-575.948"/>
</g>
<!-- ea_archive&#45;&gt;gsuite_web -->
<g id="edge20" class="edge"><title>ea_archive&#45;&gt;gsuite_web</title>
<path fill="none" stroke="red" d="M496.955,-583.351C483.086,-563.533 466.827,-531.595 458.713,-508.871"/>
<polygon fill="red" stroke="red" points="455.596,-499.155 462.936,-507.302 457.124,-503.916 458.651,-508.677 458.651,-508.677 458.651,-508.677 457.124,-503.916 454.366,-510.052 455.596,-499.155 455.596,-499.155"/>
</g>
<!-- ea_archive&#45;&gt;gsuite_web -->
<g id="edge41" class="edge"><title>ea_archive&#45;&gt;gsuite_web</title>
<path fill="none" stroke="#22bbdd" d="M516.993,-583.351C511.191,-563.176 495.461,-530.44 480.917,-507.652"/>
<polygon fill="#22bbdd" stroke="#22bbdd" points="475.213,-499.155 484.523,-504.95 478,-503.307 480.787,-507.458 480.787,-507.458 480.787,-507.458 478,-503.307 477.05,-509.966 475.213,-499.155 475.213,-499.155"/>
</g>
<!-- ea_archive&#45;&gt;fd_web -->
<g id="edge35" class="edge"><title>ea_archive&#45;&gt;fd_web</title>
<path fill="none" stroke="#000099" d="M533.128,-574.8C552.699,-544.9 586.091,-495.345 617.935,-455 636.593,-431.36 659.991,-405.71 675.423,-389.279"/>
<polygon fill="#000099" stroke="#000099" points="527.515,-583.416 529.203,-572.581 530.244,-579.227 532.973,-575.037 532.973,-575.037 532.973,-575.037 530.244,-579.227 536.744,-577.493 527.515,-583.416 527.515,-583.416"/>
</g>
<!-- gsuite_web&#45;&gt;staff_web -->
<g id="edge18" class="edge"><title>gsuite_web&#45;&gt;staff_web</title>
<path fill="none" stroke="red" d="M444.299,-462.791C438.935,-441.479 438.935,-404.062 438.935,-372 438.935,-372 438.935,-372 438.935,-257 438.935,-219.084 472.321,-189.75 505.19,-171.113"/>
<polygon fill="red" stroke="red" points="514.418,-166.141 507.749,-174.846 510.016,-168.513 505.614,-170.884 505.614,-170.884 505.614,-170.884 510.016,-168.513 503.48,-166.922 514.418,-166.141 514.418,-166.141"/>
</g>
<!-- gsuite_web&#45;&gt;staff_web -->
<g id="edge33" class="edge"><title>gsuite_web&#45;&gt;staff_web</title>
<path fill="none" stroke="#000099" d="M456.935,-452.606C456.935,-430.775 456.935,-399.428 456.935,-372 456.935,-372 456.935,-372 456.935,-257 456.935,-215.519 496.893,-184.31 528.423,-166.141"/>
<polygon fill="#000099" stroke="#000099" points="456.935,-462.791 452.435,-452.791 456.935,-457.791 456.935,-452.791 456.935,-452.791 456.935,-452.791 456.935,-457.791 461.435,-452.792 456.935,-462.791 456.935,-462.791"/>
</g>
<!-- gsuite_web&#45;&gt;staff_web -->
<g id="edge42" class="edge"><title>gsuite_web&#45;&gt;staff_web</title>
<path fill="none" stroke="#22bbdd" d="M469.57,-462.791C474.935,-441.479 474.935,-404.062 474.935,-372 474.935,-372 474.935,-372 474.935,-257 474.935,-219.57 507.47,-190.504 534.054,-171.835"/>
<polygon fill="#22bbdd" stroke="#22bbdd" points="542.428,-166.141 536.689,-175.485 538.293,-168.953 534.158,-171.764 534.158,-171.764 534.158,-171.764 538.293,-168.953 531.628,-168.043 542.428,-166.141 542.428,-166.141"/>
</g>
<!-- gsuite_web&#45;&gt;ea_archive -->
<g id="edge34" class="edge"><title>gsuite_web&#45;&gt;ea_archive</title>
<path fill="none" stroke="#000099" d="M469.9,-508.259C481.136,-531.019 497.101,-563.355 506.974,-583.351"/>
<polygon fill="#000099" stroke="#000099" points="465.405,-499.155 473.867,-506.13 467.618,-503.639 469.832,-508.122 469.832,-508.122 469.832,-508.122 467.618,-503.639 465.797,-510.114 465.405,-499.155 465.405,-499.155"/>
</g>
<!-- cloud_sql -->
<g id="node12" class="node"><title>cloud_sql</title>
<ellipse fill="#55cc55" stroke="black" cx="925.935" cy="-721" rx="67.6881" ry="18"/>
<text text-anchor="middle" x="925.935" y="-717.3" font-family="Times,serif" font-size="14.00">PostgreSQL</text>
</g>
<!-- cloud_sql&#45;&gt;taskman -->
<g id="edge4" class="edge"><title>cloud_sql&#45;&gt;taskman</title>
<path fill="none" stroke="red" d="M923.721,-702.81C921.284,-683.881 917.332,-653.183 914.465,-630.922"/>
<polygon fill="red" stroke="red" points="913.157,-620.761 918.897,-630.104 913.796,-625.72 914.434,-630.679 914.434,-630.679 914.434,-630.679 913.796,-625.72 909.971,-631.253 913.157,-620.761 913.157,-620.761"/>
</g>
<!-- webapp&#45;&gt;cloud_sql -->
<g id="edge3" class="edge"><title>webapp&#45;&gt;cloud_sql</title>
<path fill="none" stroke="red" d="M916.605,-816.99C918.374,-798.981 921.192,-770.293 923.268,-749.152"/>
<polygon fill="red" stroke="red" points="924.248,-739.17 927.749,-749.562 923.76,-744.147 923.271,-749.123 923.271,-749.123 923.271,-749.123 923.76,-744.147 918.792,-748.683 924.248,-739.17 924.248,-739.17"/>
</g>
<!-- fd_api -->
<g id="node19" class="node"><title>fd_api</title>
<ellipse fill="#55cc55" stroke="black" cx="852.935" cy="-481" rx="27.8951" ry="18"/>
<text text-anchor="middle" x="852.935" y="-477.3" font-family="Times,serif" font-size="14.00">API</text>
</g>
<!-- taskman&#45;&gt;fd_api -->
<g id="edge5" class="edge"><title>taskman&#45;&gt;fd_api</title>
<path fill="none" stroke="red" d="M902.748,-584.632C893.021,-564.591 876.691,-530.947 865.394,-507.67"/>
<polygon fill="red" stroke="red" points="860.894,-498.399 869.309,-505.43 863.077,-502.897 865.26,-507.395 865.26,-507.395 865.26,-507.395 863.077,-502.897 861.212,-509.36 860.894,-498.399 860.894,-498.399"/>
</g>
<!-- mc_api -->
<g id="node15" class="node"><title>mc_api</title>
<ellipse fill="#55cc55" stroke="black" cx="194.935" cy="-481" rx="27.8951" ry="18"/>
<text text-anchor="middle" x="194.935" y="-477.3" font-family="Times,serif" font-size="14.00">API</text>
</g>
<!-- mc_web&#45;&gt;staff_web -->
<g id="edge31" class="edge"><title>mc_web&#45;&gt;staff_web:w</title>
<path fill="none" stroke="#000099" d="M136.535,-458.521C182.821,-435.64 246.935,-399.061 246.935,-372 246.935,-372 246.935,-372 246.935,-257 246.935,-195.286 440.221,-147 501.935,-147"/>
<polygon fill="#000099" stroke="#000099" points="127.54,-462.908 134.556,-454.48 132.034,-460.716 136.528,-458.525 136.528,-458.525 136.528,-458.525 132.034,-460.716 138.501,-462.569 127.54,-462.908 127.54,-462.908"/>
</g>
<!-- fd_mail&#45;&gt;fd_web -->
<g id="edge11" class="edge"><title>fd_mail&#45;&gt;fd_web</title>
<path fill="none" stroke="red" d="M712.694,-461.679C708.726,-444.539 702.749,-418.718 698.226,-399.177"/>
<polygon fill="red" stroke="red" points="695.948,-389.337 702.587,-398.065 697.076,-394.208 698.203,-399.079 698.203,-399.079 698.203,-399.079 697.076,-394.208 693.819,-400.094 695.948,-389.337 695.948,-389.337"/>
</g>
<!-- fd_web&#45;&gt;staff_web -->
<g id="edge13" class="edge"><title>fd_web&#45;&gt;staff_web:e</title>
<path fill="none" stroke="red" d="M694.569,-352.872C701.383,-302.795 714.216,-159.434 639.949,-147.758"/>
<polygon fill="red" stroke="red" points="629.935,-147 640.246,-143.268 634.92,-147.377 639.906,-147.755 639.906,-147.755 639.906,-147.755 634.92,-147.377 639.567,-152.242 629.935,-147 629.935,-147"/>
</g>
<!-- fd_web&#45;&gt;staff_web -->
<g id="edge25" class="edge"><title>fd_web&#45;&gt;staff_web</title>
<path fill="none" stroke="#000099" d="M683.332,-343.129C674.056,-315.904 657.9,-273.061 637.935,-239 621.941,-211.713 598.484,-183.669 582.734,-166.059"/>
<polygon fill="#000099" stroke="#000099" points="686.544,-352.748 679.108,-344.688 684.96,-348.005 683.376,-343.262 683.376,-343.262 683.376,-343.262 684.96,-348.005 687.645,-341.837 686.544,-352.748 686.544,-352.748"/>
</g>
<!-- fd_web&#45;&gt;staff_mail -->
<g id="edge15" class="edge"><title>fd_web&#45;&gt;staff_mail</title>
<path fill="none" stroke="red" d="M672.523,-352.9C651.561,-334.432 617.969,-304.839 594.103,-283.815"/>
<polygon fill="red" stroke="red" points="586.414,-277.041 596.893,-280.275 590.166,-280.347 593.918,-283.652 593.918,-283.652 593.918,-283.652 590.166,-280.347 590.943,-287.028 586.414,-277.041 586.414,-277.041"/>
</g>
<!-- fd_api&#45;&gt;fd_web -->
<g id="edge6" class="edge"><title>fd_api&#45;&gt;fd_web</title>
<path fill="none" stroke="red" d="M834.123,-467.266C828.296,-463.328 821.853,-458.98 815.935,-455 785.553,-434.568 750.922,-411.397 725.995,-394.74"/>
<polygon fill="red" stroke="red" points="717.605,-389.135 728.42,-390.949 721.763,-391.913 725.92,-394.691 725.92,-394.691 725.92,-394.691 721.763,-391.913 723.42,-398.432 717.605,-389.135 717.605,-389.135"/>
</g>
</g>
</svg>
