<?xml version="1.0" encoding="UTF-8" standalone="no"?>
<!DOCTYPE svg PUBLIC "-//W3C//DTD SVG 1.1//EN"
 "http://www.w3.org/Graphics/SVG/1.1/DTD/svg11.dtd">
<!-- Generated by graphviz version 2.38.0 (20140413.2041)
 -->
<!-- Title: D Pages: 1 -->
<svg width="574pt" height="923pt"
 viewBox="0.00 0.00 574.25 922.71" xmlns="http://www.w3.org/2000/svg" xmlns:xlink="http://www.w3.org/1999/xlink">
<g id="graph0" class="graph" transform="scale(1 1) rotate(0) translate(4 918.715)">
<title>D</title>
<polygon fill="white" stroke="none" points="-4,4 -4,-918.715 570.246,-918.715 570.246,4 -4,4"/>
<!-- FieldSpec -->
<g id="node1" class="node"><title>FieldSpec</title>
<ellipse fill="none" stroke="black" cx="219.246" cy="-800.845" rx="57.0522" ry="26.7407"/>
<text text-anchor="middle" x="219.246" y="-804.645" font-family="Times,serif" font-size="14.00">FieldSpec</text>
<text text-anchor="middle" x="219.246" y="-789.645" font-family="Times,serif" font-size="14.00">[P,V,I,C,O]</text>
</g>
<!-- TableSpecBuilder -->
<g id="node2" class="node"><title>TableSpecBuilder</title>
<ellipse fill="none" stroke="black" cx="210.246" cy="-696.105" rx="84.2917" ry="26.7407"/>
<text text-anchor="middle" x="210.246" y="-699.905" font-family="Times,serif" font-size="14.00">TableSpecBuilderⁿ</text>
<text text-anchor="middle" x="210.246" y="-684.905" font-family="Times,serif" font-size="14.00">[P,U,V,Iₙ,Cₙ,Oₙ]</text>
</g>
<!-- FieldSpec&#45;&gt;TableSpecBuilder -->
<g id="edge1" class="edge"><title>FieldSpec&#45;&gt;TableSpecBuilder</title>
<path fill="none" stroke="black" d="M216.975,-773.919C215.899,-761.63 214.594,-746.741 213.422,-733.356"/>
<polygon fill="black" stroke="black" points="216.876,-732.678 212.517,-723.022 209.903,-733.289 216.876,-732.678"/>
<text text-anchor="middle" x="249.246" y="-744.775" font-family="Times,serif" font-size="14.00">U⁺ = ΣOₙ⁻</text>
<text text-anchor="middle" x="195.517" y="-726.822" font-family="Times,serif" font-size="14.00">1 &#160;&#160;&#160;&#160;&#160;&#160;</text>
<text text-anchor="middle" x="213.475" y="-762.719" font-family="Times,serif" font-size="14.00">n</text>
</g>
<!-- TableSpecBuilder&#45;&gt;TableSpecBuilder -->
<g id="edge14" class="edge"><title>TableSpecBuilder&#45;&gt;TableSpecBuilder</title>
<path fill="none" stroke="red" d="M291.166,-703.665C303.787,-702.535 312.392,-700.015 312.392,-696.105 312.392,-693.355 308.138,-691.293 301.225,-689.918"/>
<polygon fill="red" stroke="red" points="301.548,-686.43 291.166,-688.544 300.6,-693.365 301.548,-686.43"/>
<text text-anchor="middle" x="339.892" y="-692.405" font-family="Times,serif" font-size="14.00" fill="#550000"> U⁺ = arb</text>
</g>
<!-- TableSpecBuilder_B2 -->
<g id="node3" class="node"><title>TableSpecBuilder_B2</title>
<ellipse fill="none" stroke="black" cx="281.246" cy="-584.151" rx="138.686" ry="48.1667"/>
<text text-anchor="middle" x="281.246" y="-602.951" font-family="Times,serif" font-size="14.00">TableSpecBuilderⁿ.B2</text>
<text text-anchor="middle" x="281.246" y="-587.951" font-family="Times,serif" font-size="14.00">[P,U,V,Iₙ,Cₙ,Oₙ]</text>
<text text-anchor="middle" x="281.246" y="-572.951" font-family="Times,serif" font-size="14.00">[D]</text>
<text text-anchor="middle" x="281.246" y="-557.951" font-family="Times,serif" font-size="14.00">S = SavedAndUnsaved[D,P,ΣIₙ]</text>
</g>
<!-- TableSpecBuilder&#45;&gt;TableSpecBuilder_B2 -->
<g id="edge2" class="edge"><title>TableSpecBuilder&#45;&gt;TableSpecBuilder_B2</title>
<path fill="none" stroke="black" d="M226.713,-669.603C232.474,-660.682 239.184,-650.29 245.888,-639.909"/>
<polygon fill="black" stroke="black" points="249.011,-641.523 251.496,-631.224 243.131,-637.726 249.011,-641.523"/>
</g>
<!-- FieldSpecR -->
<g id="node4" class="node"><title>FieldSpecR</title>
<ellipse fill="none" stroke="black" cx="74.2462" cy="-458.198" rx="74.4932" ry="26.7407"/>
<text text-anchor="middle" x="74.2462" y="-461.998" font-family="Times,serif" font-size="14.00">FieldSpecR</text>
<text text-anchor="middle" x="74.2462" y="-446.998" font-family="Times,serif" font-size="14.00">[S,R,P,V,I,C,O]</text>
</g>
<!-- TableSpecBuilder_B2&#45;&gt;FieldSpecR -->
<g id="edge3" class="edge"><title>TableSpecBuilder_B2&#45;&gt;FieldSpecR</title>
<path fill="none" stroke="black" d="M212.893,-542.221C182.528,-524.038 147.582,-503.112 120.372,-486.818"/>
<polygon fill="black" stroke="black" points="121.836,-483.616 111.458,-481.481 118.239,-489.621 121.836,-483.616"/>
<text text-anchor="middle" x="220.746" y="-506.868" font-family="Times,serif" font-size="14.00">R⁺ = Option[D⁻]</text>
<text text-anchor="middle" x="103.958" y="-485.281" font-family="Times,serif" font-size="14.00">n &#160;</text>
<text text-anchor="middle" x="205.393" y="-531.021" font-family="Times,serif" font-size="14.00">1 &#160;</text>
</g>
<!-- RowSpec -->
<g id="node5" class="node"><title>RowSpec</title>
<ellipse fill="none" stroke="black" cx="281.246" cy="-458.198" rx="96.7474" ry="26.7407"/>
<text text-anchor="middle" x="281.246" y="-461.998" font-family="Times,serif" font-size="14.00">RowSpecⁿ</text>
<text text-anchor="middle" x="281.246" y="-446.998" font-family="Times,serif" font-size="14.00">[S,R,U,P,V,Iₙ,Cₙ,Oₙ]</text>
</g>
<!-- TableSpecBuilder_B2&#45;&gt;RowSpec -->
<g id="edge4" class="edge"><title>TableSpecBuilder_B2&#45;&gt;RowSpec</title>
<path fill="none" stroke="black" d="M281.246,-535.936C281.246,-522.467 281.246,-508.01 281.246,-495.316"/>
<polygon fill="black" stroke="black" points="284.746,-495.128 281.246,-485.128 277.746,-495.129 284.746,-495.128"/>
</g>
<!-- TableSpecB -->
<g id="node6" class="node"><title>TableSpecB</title>
<ellipse fill="none" stroke="black" cx="423.246" cy="-117.61" rx="75.8212" ry="26.7407"/>
<text text-anchor="middle" x="423.246" y="-121.41" font-family="Times,serif" font-size="14.00">TableSpecB</text>
<text text-anchor="middle" x="423.246" y="-106.41" font-family="Times,serif" font-size="14.00">[S,D,U,P,II,VV]</text>
</g>
<!-- TableSpecBuilder_B2&#45;&gt;TableSpecB -->
<g id="edge5" class="edge"><title>TableSpecBuilder_B2&#45;&gt;TableSpecB</title>
<path fill="none" stroke="black" d="M341.172,-540.599C358.745,-525.113 376.192,-506.167 387.246,-485.068 444.273,-376.223 435.959,-224.231 428.276,-155.25"/>
<polygon fill="black" stroke="black" points="431.704,-154.433 427.058,-144.911 424.752,-155.252 431.704,-154.433"/>
<text text-anchor="middle" x="459.746" y="-402.128" font-family="Times,serif" font-size="14.00">II⁺ = ΣIₙ⁻</text>
<text text-anchor="middle" x="459.746" y="-387.128" font-family="Times,serif" font-size="14.00">VV⁺ = (V⁻)ⁿ</text>
</g>
<!-- FieldSpecR&#45;&gt;RowSpec -->
<g id="edge6" class="edge"><title>FieldSpecR&#45;&gt;RowSpec</title>
<path fill="none" stroke="black" d="M148.637,-458.198C157.046,-458.198 165.454,-458.198 173.863,-458.198"/>
<polygon fill="black" stroke="black" points="174.12,-461.698 184.12,-458.198 174.12,-454.698 174.12,-461.698"/>
<text text-anchor="middle" x="180.62" y="-461.998" font-family="Times,serif" font-size="14.00">1</text>
<text text-anchor="middle" x="152.137" y="-461.998" font-family="Times,serif" font-size="14.00">n</text>
</g>
<!-- RowRenderer -->
<g id="node8" class="node"><title>RowRenderer</title>
<ellipse fill="none" stroke="black" cx="230.246" cy="-273.404" rx="165.426" ry="91.8478"/>
<text text-anchor="middle" x="230.246" y="-323.204" font-family="Times,serif" font-size="14.00">RowRenderer</text>
<text text-anchor="middle" x="230.246" y="-308.204" font-family="Times,serif" font-size="14.00">[S,U,P,II,VV]</text>
<text text-anchor="middle" x="230.246" y="-277.204" font-family="Times,serif" font-size="14.00">renderM: WeirdLens[M,S,S,II]</text>
<text text-anchor="middle" x="230.246" y="-262.204" font-family="Times,serif" font-size="14.00">⇒ (S ⇒ M[P])</text>
<text text-anchor="middle" x="230.246" y="-247.204" font-family="Times,serif" font-size="14.00">⇒ ((S,U) ⇒ IO[S])</text>
<text text-anchor="middle" x="230.246" y="-232.204" font-family="Times,serif" font-size="14.00">⇒ ComponentStateFocus[S] ⇒ M[VV]</text>
</g>
<!-- RowSpec&#45;&gt;RowRenderer -->
<g id="edge8" class="edge"><title>RowSpec&#45;&gt;RowRenderer</title>
<path fill="none" stroke="black" d="M274.047,-431.396C269.761,-416.034 264.018,-395.447 258.103,-374.249"/>
<polygon fill="black" stroke="black" points="261.437,-373.175 255.379,-364.483 254.695,-375.056 261.437,-373.175"/>
<text text-anchor="middle" x="306.746" y="-402.128" font-family="Times,serif" font-size="14.00">II⁺ = ΣIₙ⁻</text>
<text text-anchor="middle" x="306.746" y="-387.128" font-family="Times,serif" font-size="14.00">VV⁺ = (V⁻)ⁿ</text>
</g>
<!-- TableSpec -->
<g id="node7" class="node"><title>TableSpec</title>
<ellipse fill="none" stroke="black" cx="423.246" cy="-26.8701" rx="75.8212" ry="26.7407"/>
<text text-anchor="middle" x="423.246" y="-30.6701" font-family="Times,serif" font-size="14.00">TableSpec</text>
<text text-anchor="middle" x="423.246" y="-15.6701" font-family="Times,serif" font-size="14.00">[S,D,U,P,II,VV]</text>
</g>
<!-- TableSpecB&#45;&gt;TableSpec -->
<g id="edge7" class="edge"><title>TableSpecB&#45;&gt;TableSpec</title>
<path fill="none" stroke="black" d="M423.246,-90.4652C423.246,-82.1605 423.246,-72.8249 423.246,-63.9483"/>
<polygon fill="black" stroke="black" points="426.746,-63.8282 423.246,-53.8282 419.746,-63.8282 426.746,-63.8282"/>
</g>
<!-- RowRenderer&#45;&gt;TableSpecB -->
<g id="edge9" class="edge"><title>RowRenderer&#45;&gt;TableSpecB</title>
<path fill="none" stroke="black" d="M324.202,-197.534C345.787,-180.335 367.541,-162.999 385.142,-148.974"/>
<polygon fill="black" stroke="black" points="387.79,-151.339 393.43,-142.37 383.428,-145.865 387.79,-151.339"/>
</g>
<!-- Client -->
<g id="node9" class="node"><title>Client</title>
<ellipse fill="none" stroke="black" cx="355.246" cy="-896.715" rx="32.4942" ry="18"/>
<text text-anchor="middle" x="355.246" y="-893.015" font-family="Times,serif" font-size="14.00" fill="red">Client</text>
</g>
<!-- Client&#45;&gt;FieldSpec -->
<g id="edge10" class="edge"><title>Client&#45;&gt;FieldSpec</title>
<path fill="none" stroke="red" d="M324.065,-891.427C301.691,-886.982 271.958,-878.117 251.246,-860.715 243.578,-854.272 237.449,-845.505 232.69,-836.705"/>
<polygon fill="red" stroke="red" points="235.775,-835.047 228.22,-827.619 229.494,-838.137 235.775,-835.047"/>
<text text-anchor="middle" x="276.246" y="-849.515" font-family="Times,serif" font-size="14.00" fill="#550000">1. Create</text>
</g>
<!-- Client&#45;&gt;TableSpecBuilder -->
<g id="edge11" class="edge"><title>Client&#45;&gt;TableSpecBuilder</title>
<path fill="none" stroke="red" d="M349.227,-878.817C336.355,-843.344 305.739,-762.609 286.246,-740.975 280.529,-734.629 273.671,-728.959 266.446,-723.973"/>
<polygon fill="red" stroke="red" points="268.145,-720.904 257.843,-718.434 264.356,-726.79 268.145,-720.904"/>
<text text-anchor="middle" x="355.246" y="-804.645" font-family="Times,serif" font-size="14.00" fill="#550000">2. Create</text>
<text text-anchor="middle" x="355.246" y="-789.645" font-family="Times,serif" font-size="14.00" fill="#550000">3. dataId</text>
</g>
<!-- Client&#45;&gt;TableSpecBuilder_B2 -->
<g id="edge12" class="edge"><title>Client&#45;&gt;TableSpecBuilder_B2</title>
<path fill="none" stroke="red" d="M363.538,-879.166C369.8,-865.695 377.872,-845.985 381.246,-827.715 386.952,-796.814 379.574,-676.178 376.246,-669.235 370.058,-656.325 360.888,-644.55 350.648,-634.166"/>
<polygon fill="red" stroke="red" points="353.045,-631.615 343.413,-627.203 348.191,-636.659 353.045,-631.615"/>
<text text-anchor="middle" x="434.746" y="-744.775" font-family="Times,serif" font-size="14.00" fill="#550000">4. tableConstraints</text>
</g>
<!-- Client&#45;&gt;TableSpecB -->
<g id="edge13" class="edge"><title>Client&#45;&gt;TableSpecB</title>
<path fill="none" stroke="red" d="M386.462,-891.413C432.508,-883.112 513.246,-860.234 513.246,-801.845 513.246,-801.845 513.246,-801.845 513.246,-272.404 513.246,-225.121 481.165,-179.477 455.311,-150.369"/>
<polygon fill="red" stroke="red" points="457.884,-147.996 448.556,-142.972 452.715,-152.717 457.884,-147.996"/>
<text text-anchor="middle" x="539.746" y="-580.451" font-family="Times,serif" font-size="14.00" fill="#550000">5. saveFn</text>
</g>
</g>
</svg>
