<?xml version="1.0" encoding="UTF-8" standalone="no"?>
<!DOCTYPE svg PUBLIC "-//W3C//DTD SVG 1.1//EN"
 "http://www.w3.org/Graphics/SVG/1.1/DTD/svg11.dtd">
<!-- Generated by graphviz version 2.36.0 (20140111.2315)
 -->
<!-- Title: G Pages: 1 -->
<svg width="976pt" height="397pt"
 viewBox="0.00 0.00 976.00 396.52" xmlns="http://www.w3.org/2000/svg" xmlns:xlink="http://www.w3.org/1999/xlink">
<g id="graph0" class="graph" transform="scale(1 1) rotate(0) translate(4 392.518)">
<title>G</title>
<polygon fill="white" stroke="none" points="-4,4 -4,-392.518 972,-392.518 972,4 -4,4"/>
<text text-anchor="middle" x="484" y="-373.318" font-family="Times,serif" font-size="14.00">Taskman dist gets everything visible.</text>
<g id="clust1" class="cluster"><title>cluster_abs</title>
<polygon fill="#eeeeee" stroke="black" points="8,-117 8,-291 583,-291 583,-117 8,-117"/>
<text text-anchor="middle" x="295.5" y="-275.8" font-family="Times,serif" font-size="14.00" fill="#007000">Abstraction &amp; logic. 100% pure FP.</text>
</g>
<g id="clust2" class="cluster"><title>cluster_real</title>
<polygon fill="#eeeeee" stroke="black" points="57,-16 57,-109 563,-109 563,-16 57,-16"/>
<text text-anchor="middle" x="310" y="-93.8" font-family="Times,serif" font-size="14.00" fill="red">Real implementations. Wiring.</text>
</g>
<g id="clust3" class="cluster"><title>cluster_public</title>
<polygon fill="#cccccc" stroke="black" points="591,-8 591,-331 960,-331 960,-8 591,-8"/>
<text text-anchor="middle" x="775.5" y="-315.8" font-family="Times,serif" font-size="14.00">Webapp gets this.</text>
</g>
<g id="clust4" class="cluster"><title>cluster_api</title>
<polygon fill="#eeeeee" stroke="black" points="599,-117 599,-300 952,-300 952,-117 599,-117"/>
<text text-anchor="middle" x="775.5" y="-284.8" font-family="Times,serif" font-size="14.00" fill="#000080">API</text>
</g>
<g id="clust5" class="cluster"><title>cluster_realp</title>
<polygon fill="#eeeeee" stroke="black" points="668,-16 668,-109 892,-109 892,-16 668,-16"/>
<text text-anchor="middle" x="780" y="-93.8" font-family="Times,serif" font-size="14.00" fill="red">Real implementations for API</text>
</g>
<!-- dbv -->
<g id="node1" class="node"><title>dbv</title>
<ellipse fill="#bbffbb" stroke="black" cx="190" cy="-152" rx="63.459" ry="26.7407"/>
<text text-anchor="middle" x="190" y="-155.8" font-family="Times,serif" font-size="14.00">ShipReq</text>
<text text-anchor="middle" x="190" y="-140.8" font-family="Times,serif" font-size="14.00">data interface</text>
</g>
<!-- _dbv -->
<g id="node8" class="node"><title>_dbv</title>
<ellipse fill="#ffbbbb" stroke="black" cx="220" cy="-51" rx="44.3213" ry="26.7407"/>
<text text-anchor="middle" x="220" y="-54.8" font-family="Times,serif" font-size="14.00">ShipReq</text>
<text text-anchor="middle" x="220" y="-39.8" font-family="Times,serif" font-size="14.00">Views</text>
</g>
<!-- dbv&#45;&gt;_dbv -->
<g id="edge1" class="edge"><title>dbv&#45;&gt;_dbv</title>
<path fill="none" stroke="#222222" d="M197.804,-125.247C201.311,-113.674 205.505,-99.832 209.299,-87.3122"/>
<polygon fill="#222222" stroke="#222222" points="212.685,-88.209 212.235,-77.6237 205.986,-86.1789 212.685,-88.209"/>
</g>
<!-- smtp -->
<g id="node2" class="node"><title>smtp</title>
<ellipse fill="#bbffbb" stroke="black" cx="317" cy="-152" rx="44.8843" ry="26.7407"/>
<text text-anchor="middle" x="317" y="-155.8" font-family="Times,serif" font-size="14.00">SMTP</text>
<text text-anchor="middle" x="317" y="-140.8" font-family="Times,serif" font-size="14.00">interface</text>
</g>
<!-- _smtp -->
<g id="node9" class="node"><title>_smtp</title>
<ellipse fill="#ffbbbb" stroke="black" cx="317" cy="-51" rx="34.1708" ry="18"/>
<text text-anchor="middle" x="317" y="-47.3" font-family="Times,serif" font-size="14.00">SMTP</text>
</g>
<!-- smtp&#45;&gt;_smtp -->
<g id="edge3" class="edge"><title>smtp&#45;&gt;_smtp</title>
<path fill="none" stroke="#222222" d="M317,-124.989C317,-110.928 317,-93.5753 317,-79.318"/>
<polygon fill="#222222" stroke="#222222" points="320.5,-79.1244 317,-69.1244 313.5,-79.1244 320.5,-79.1244"/>
</g>
<!-- mc -->
<g id="node3" class="node"><title>mc</title>
<ellipse fill="#bbffbb" stroke="black" cx="437" cy="-152" rx="56.3526" ry="26.7407"/>
<text text-anchor="middle" x="437" y="-155.8" font-family="Times,serif" font-size="14.00">MailChimp</text>
<text text-anchor="middle" x="437" y="-140.8" font-family="Times,serif" font-size="14.00">interface</text>
</g>
<!-- _mc -->
<g id="node10" class="node"><title>_mc</title>
<ellipse fill="#ffbbbb" stroke="black" cx="426" cy="-51" rx="56.3526" ry="26.7407"/>
<text text-anchor="middle" x="426" y="-54.8" font-family="Times,serif" font-size="14.00">MailChimp</text>
<text text-anchor="middle" x="426" y="-39.8" font-family="Times,serif" font-size="14.00">API</text>
</g>
<!-- mc&#45;&gt;_mc -->
<g id="edge4" class="edge"><title>mc&#45;&gt;_mc</title>
<path fill="none" stroke="#222222" d="M434.11,-124.989C432.847,-113.621 431.345,-100.101 429.978,-87.8043"/>
<polygon fill="#222222" stroke="#222222" points="433.454,-87.3897 428.871,-77.8374 426.497,-88.1627 433.454,-87.3897"/>
</g>
<!-- crm -->
<g id="node4" class="node"><title>crm</title>
<ellipse fill="#bbffbb" stroke="black" cx="62" cy="-152" rx="45.4433" ry="26.7407"/>
<text text-anchor="middle" x="62" y="-155.8" font-family="Times,serif" font-size="14.00">Insightly</text>
<text text-anchor="middle" x="62" y="-140.8" font-family="Times,serif" font-size="14.00">interface</text>
</g>
<!-- _crm -->
<g id="node11" class="node"><title>_crm</title>
<ellipse fill="#ffbbbb" stroke="black" cx="111" cy="-51" rx="45.4433" ry="26.7407"/>
<text text-anchor="middle" x="111" y="-54.8" font-family="Times,serif" font-size="14.00">Insightly</text>
<text text-anchor="middle" x="111" y="-39.8" font-family="Times,serif" font-size="14.00">API</text>
</g>
<!-- crm&#45;&gt;_crm -->
<g id="edge5" class="edge"><title>crm&#45;&gt;_crm</title>
<path fill="none" stroke="#222222" d="M74.3648,-126.018C80.342,-113.942 87.6085,-99.2604 94.089,-86.1672"/>
<polygon fill="#222222" stroke="#222222" points="97.3401,-87.4888 98.6392,-76.9739 91.0664,-84.3836 97.3401,-87.4888"/>
</g>
<!-- actors -->
<g id="node5" class="node"><title>actors</title>
<ellipse fill="#bbffbb" stroke="black" cx="543" cy="-152" rx="31.2735" ry="18"/>
<text text-anchor="middle" x="543" y="-148.3" font-family="Times,serif" font-size="14.00">actors</text>
</g>
<!-- akka -->
<g id="node12" class="node"><title>akka</title>
<ellipse fill="#ffbbbb" stroke="black" cx="528" cy="-51" rx="26.949" ry="18"/>
<text text-anchor="middle" x="528" y="-47.3" font-family="Times,serif" font-size="14.00">akka</text>
</g>
<!-- actors&#45;&gt;akka -->
<g id="edge7" class="edge"><title>actors&#45;&gt;akka</title>
<path fill="none" stroke="#222222" d="M540.387,-133.756C538.107,-118.708 534.76,-96.6163 532.12,-79.1898"/>
<polygon fill="#222222" stroke="#222222" points="535.542,-78.4097 530.583,-69.0469 528.62,-79.4584 535.542,-78.4097"/>
</g>
<!-- bl -->
<g id="node6" class="node"><title>bl</title>
<ellipse fill="#bbffbb" stroke="black" cx="342" cy="-242" rx="61.6163" ry="18"/>
<text text-anchor="middle" x="342" y="-238.3" font-family="Times,serif" font-size="14.00">Business logic</text>
</g>
<!-- bl&#45;&gt;dbv -->
<g id="edge11" class="edge"><title>bl&#45;&gt;dbv</title>
<path fill="none" stroke="#222222" d="M315.524,-225.672C293.459,-212.897 261.529,-194.412 235.396,-179.282"/>
<polygon fill="#222222" stroke="#222222" points="236.828,-176.067 226.42,-174.085 233.32,-182.125 236.828,-176.067"/>
</g>
<!-- bl&#45;&gt;smtp -->
<g id="edge12" class="edge"><title>bl&#45;&gt;smtp</title>
<path fill="none" stroke="#222222" d="M337.18,-224.033C334.32,-213.966 330.584,-200.816 327.106,-188.572"/>
<polygon fill="#222222" stroke="#222222" points="330.368,-187.249 324.269,-178.586 323.635,-189.162 330.368,-187.249"/>
</g>
<!-- bl&#45;&gt;mc -->
<g id="edge13" class="edge"><title>bl&#45;&gt;mc</title>
<path fill="none" stroke="#222222" d="M359.869,-224.448C372.41,-212.831 389.539,-196.964 404.47,-183.133"/>
<polygon fill="#222222" stroke="#222222" points="407.084,-185.482 412.042,-176.119 402.327,-180.347 407.084,-185.482"/>
</g>
<!-- bl&#45;&gt;crm -->
<g id="edge14" class="edge"><title>bl&#45;&gt;crm</title>
<path fill="none" stroke="#222222" d="M294.714,-230.488C248.661,-219.665 177.022,-201.267 117,-179 113.101,-177.554 109.1,-175.937 105.121,-174.237"/>
<polygon fill="#222222" stroke="#222222" points="106.495,-171.017 95.9347,-170.159 103.655,-177.415 106.495,-171.017"/>
</g>
<!-- bl&#45;&gt;actors -->
<g id="edge15" class="edge"><title>bl&#45;&gt;actors</title>
<path fill="none" stroke="#222222" d="M381.39,-228.156C414.353,-216.841 462.241,-199.067 502,-179 506.176,-176.892 510.469,-174.476 514.631,-171.985"/>
<polygon fill="#222222" stroke="#222222" points="516.799,-174.758 523.438,-166.501 513.099,-168.816 516.799,-174.758"/>
</g>
<!-- tl -->
<g id="node7" class="node"><title>tl</title>
<ellipse fill="#bbffbb" stroke="black" cx="511" cy="-242" rx="63.5411" ry="18"/>
<text text-anchor="middle" x="511" y="-238.3" font-family="Times,serif" font-size="14.00">Taskman logic</text>
</g>
<!-- bl&#45;&gt;tl -->
<g id="edge16" class="edge"><title>bl&#45;&gt;tl</title>
<path fill="none" stroke="#222222" d="M403.395,-242C414.658,-242 425.922,-242 437.185,-242"/>
<polygon fill="#222222" stroke="#222222" points="437.53,-245.5 447.53,-242 437.53,-238.5 437.53,-245.5"/>
</g>
<!-- tl&#45;&gt;actors -->
<g id="edge8" class="edge"><title>tl&#45;&gt;actors</title>
<path fill="none" stroke="#222222" d="M517.17,-224.033C521.774,-211.372 528.151,-193.835 533.417,-179.354"/>
<polygon fill="#222222" stroke="#222222" points="536.721,-180.509 536.849,-169.915 530.142,-178.117 536.721,-180.509"/>
</g>
<!-- ser -->
<g id="node15" class="node"><title>ser</title>
<ellipse fill="#bbffbb" stroke="black" cx="699" cy="-152" rx="54.3924" ry="18"/>
<text text-anchor="middle" x="699" y="-148.3" font-family="Times,serif" font-size="14.00">Serialisation</text>
</g>
<!-- tl&#45;&gt;ser -->
<g id="edge10" class="edge"><title>tl&#45;&gt;ser</title>
<path fill="none" stroke="#222222" d="M542.467,-226.271C574.666,-211.199 624.781,-187.741 659.599,-171.443"/>
<polygon fill="#222222" stroke="#222222" points="661.413,-174.459 668.986,-167.049 658.445,-168.119 661.413,-174.459"/>
</g>
<!-- workq -->
<g id="node16" class="node"><title>workq</title>
<ellipse fill="#bbffbb" stroke="black" cx="833" cy="-152" rx="61.2774" ry="26.7407"/>
<text text-anchor="middle" x="833" y="-155.8" font-family="Times,serif" font-size="14.00">Work Queue</text>
<text text-anchor="middle" x="833" y="-140.8" font-family="Times,serif" font-size="14.00">interface</text>
</g>
<!-- tl&#45;&gt;workq -->
<g id="edge9" class="edge"><title>tl&#45;&gt;workq</title>
<path fill="none" stroke="#222222" d="M550.957,-227.846C564.826,-223.491 580.528,-218.792 595,-215 668.448,-195.756 689.065,-200.105 762,-179 767.359,-177.449 772.896,-175.697 778.403,-173.852"/>
<polygon fill="#222222" stroke="#222222" points="779.929,-177.028 788.24,-170.457 777.645,-170.411 779.929,-177.028"/>
</g>
<!-- bla -->
<g id="node13" class="node"><title>bla</title>
<ellipse fill="#bbbbff" stroke="black" cx="693" cy="-242" rx="85.3397" ry="26.7407"/>
<text text-anchor="middle" x="693" y="-245.8" font-family="Times,serif" font-size="14.00">Business logic API</text>
<text text-anchor="middle" x="693" y="-230.8" font-family="Times,serif" font-size="14.00">(event/job defns)</text>
</g>
<!-- bla&#45;&gt;bl -->
<g id="edge17" class="edge"><title>bla&#45;&gt;bl</title>
<path fill="none" stroke="#222222" d="M674.124,-268.63C653.811,-294.753 618.86,-332.931 578,-349 523.817,-370.308 500.685,-371.534 447,-349 408.19,-332.71 376.512,-294.301 358.443,-268.22"/>
<polygon fill="#222222" stroke="#222222" points="361.331,-266.243 352.846,-259.898 355.522,-270.149 361.331,-266.243"/>
</g>
<!-- tla -->
<g id="node14" class="node"><title>tla</title>
<ellipse fill="#bbbbff" stroke="black" cx="870" cy="-242" rx="73.3085" ry="26.7407"/>
<text text-anchor="middle" x="870" y="-245.8" font-family="Times,serif" font-size="14.00">Taskman</text>
<text text-anchor="middle" x="870" y="-230.8" font-family="Times,serif" font-size="14.00">submission API</text>
</g>
<!-- tla&#45;&gt;ser -->
<g id="edge18" class="edge"><title>tla&#45;&gt;ser</title>
<path fill="none" stroke="#222222" d="M828.606,-219.698C800.489,-205.228 763.608,-186.249 736.381,-172.237"/>
<polygon fill="#222222" stroke="#222222" points="737.677,-168.967 727.183,-167.504 734.473,-175.192 737.677,-168.967"/>
</g>
<!-- tla&#45;&gt;workq -->
<g id="edge19" class="edge"><title>tla&#45;&gt;workq</title>
<path fill="none" stroke="#222222" d="M859.099,-215.073C855.561,-206.659 851.574,-197.177 847.802,-188.204"/>
<polygon fill="#222222" stroke="#222222" points="850.926,-186.603 843.823,-178.742 844.473,-189.317 850.926,-186.603"/>
</g>
<!-- json4s -->
<g id="node18" class="node"><title>json4s</title>
<ellipse fill="#ffbbbb" stroke="black" cx="709" cy="-51" rx="33.2209" ry="18"/>
<text text-anchor="middle" x="709" y="-47.3" font-family="Times,serif" font-size="14.00">json4s</text>
</g>
<!-- ser&#45;&gt;json4s -->
<g id="edge6" class="edge"><title>ser&#45;&gt;json4s</title>
<path fill="none" stroke="#222222" d="M700.742,-133.756C702.262,-118.708 704.493,-96.6163 706.254,-79.1898"/>
<polygon fill="#222222" stroke="#222222" points="709.755,-79.348 707.278,-69.0469 702.791,-78.6445 709.755,-79.348"/>
</g>
<!-- _workq -->
<g id="node17" class="node"><title>_workq</title>
<ellipse fill="#ffbbbb" stroke="black" cx="822" cy="-51" rx="61.2774" ry="26.7407"/>
<text text-anchor="middle" x="822" y="-54.8" font-family="Times,serif" font-size="14.00">Work Queue</text>
<text text-anchor="middle" x="822" y="-39.8" font-family="Times,serif" font-size="14.00">DB objects</text>
</g>
<!-- workq&#45;&gt;_workq -->
<g id="edge2" class="edge"><title>workq&#45;&gt;_workq</title>
<path fill="none" stroke="#222222" d="M830.11,-124.989C828.869,-113.823 827.398,-100.581 826.051,-88.4619"/>
<polygon fill="#222222" stroke="#222222" points="829.492,-87.7334 824.909,-78.1811 822.535,-88.5065 829.492,-87.7334"/>
</g>
</g>
</svg>
