<?xml version="1.0" encoding="UTF-8" standalone="no"?>
<!DOCTYPE svg PUBLIC "-//W3C//DTD SVG 1.1//EN"
 "http://www.w3.org/Graphics/SVG/1.1/DTD/svg11.dtd">
<!-- Generated by graphviz version 2.36.0 (20140111.2315)
 -->
<!-- Title: G Pages: 1 -->
<svg width="976pt" height="478pt"
 viewBox="0.00 0.00 976.00 478.00" xmlns="http://www.w3.org/2000/svg" xmlns:xlink="http://www.w3.org/1999/xlink">
<g id="graph0" class="graph" transform="scale(1 1) rotate(0) translate(4 474)">
<title>G</title>
<polygon fill="white" stroke="none" points="-4,4 -4,-474 972,-474 972,4 -4,4"/>
<text text-anchor="middle" x="484" y="-454.8" font-family="Times,serif" font-size="14.00">Taskman dist gets everything visible.</text>
<text text-anchor="middle" x="484" y="-439.8" font-family="Times,serif" font-size="14.00">(A→B means B knows about A)</text>
<g id="clust1" class="cluster"><title>cluster_abs</title>
<polygon fill="#eeeeee" stroke="black" points="385,-117 385,-300 960,-300 960,-117 385,-117"/>
<text text-anchor="middle" x="672.5" y="-284.8" font-family="Times,serif" font-size="14.00" fill="#007000">Abstraction &amp; logic. 100% pure FP.</text>
</g>
<g id="clust2" class="cluster"><title>cluster_real</title>
<polygon fill="#eeeeee" stroke="black" points="394,-16 394,-109 900,-109 900,-16 394,-16"/>
<text text-anchor="middle" x="647" y="-93.8" font-family="Times,serif" font-size="14.00" fill="red">Real implementations. Wiring.</text>
</g>
<g id="clust3" class="cluster"><title>cluster_public</title>
<polygon fill="#cccccc" stroke="black" points="8,-8 8,-424 377,-424 377,-8 8,-8"/>
<text text-anchor="middle" x="192.5" y="-408.8" font-family="Times,serif" font-size="14.00">Webapp gets this.</text>
</g>
<g id="clust4" class="cluster"><title>cluster_api</title>
<polygon fill="#eeeeee" stroke="black" points="16,-117 16,-393 369,-393 369,-117 16,-117"/>
<text text-anchor="middle" x="192.5" y="-377.8" font-family="Times,serif" font-size="14.00" fill="#000080">API</text>
</g>
<g id="clust5" class="cluster"><title>cluster_realp</title>
<polygon fill="#eeeeee" stroke="black" points="134,-16 134,-109 358,-109 358,-16 134,-16"/>
<text text-anchor="middle" x="246" y="-93.8" font-family="Times,serif" font-size="14.00" fill="red">Real implementations for API</text>
</g>
<!-- dbv -->
<g id="node1" class="node"><title>dbv</title>
<ellipse fill="#bbffbb" stroke="black" cx="780" cy="-152" rx="63.459" ry="26.7407"/>
<text text-anchor="middle" x="780" y="-155.8" font-family="Times,serif" font-size="14.00">ShipReq</text>
<text text-anchor="middle" x="780" y="-140.8" font-family="Times,serif" font-size="14.00">data interface</text>
</g>
<!-- _dbv -->
<g id="node8" class="node"><title>_dbv</title>
<ellipse fill="#ffbbbb" stroke="black" cx="761" cy="-51" rx="44.3213" ry="26.7407"/>
<text text-anchor="middle" x="761" y="-54.8" font-family="Times,serif" font-size="14.00">ShipReq</text>
<text text-anchor="middle" x="761" y="-39.8" font-family="Times,serif" font-size="14.00">Views</text>
</g>
<!-- dbv&#45;&gt;_dbv -->
<g id="edge1" class="edge"><title>dbv&#45;&gt;_dbv</title>
<path fill="none" stroke="#222222" d="M775.008,-124.989C772.826,-113.621 770.231,-100.101 767.872,-87.8043"/>
<polygon fill="#222222" stroke="#222222" points="771.281,-86.9984 765.959,-77.8374 764.406,-88.3178 771.281,-86.9984"/>
</g>
<!-- smtp -->
<g id="node2" class="node"><title>smtp</title>
<ellipse fill="#bbffbb" stroke="black" cx="907" cy="-152" rx="44.8843" ry="26.7407"/>
<text text-anchor="middle" x="907" y="-155.8" font-family="Times,serif" font-size="14.00">SMTP</text>
<text text-anchor="middle" x="907" y="-140.8" font-family="Times,serif" font-size="14.00">interface</text>
</g>
<!-- _smtp -->
<g id="node9" class="node"><title>_smtp</title>
<ellipse fill="#ffbbbb" stroke="black" cx="858" cy="-51" rx="34.1708" ry="18"/>
<text text-anchor="middle" x="858" y="-47.3" font-family="Times,serif" font-size="14.00">SMTP</text>
</g>
<!-- smtp&#45;&gt;_smtp -->
<g id="edge3" class="edge"><title>smtp&#45;&gt;_smtp</title>
<path fill="none" stroke="#222222" d="M894.635,-126.018C887.333,-111.264 878.106,-92.6213 870.739,-77.7371"/>
<polygon fill="#222222" stroke="#222222" points="873.778,-75.9871 866.205,-68.5773 867.504,-79.0922 873.778,-75.9871"/>
</g>
<!-- mc -->
<g id="node3" class="node"><title>mc</title>
<ellipse fill="#bbffbb" stroke="black" cx="531" cy="-152" rx="56.3526" ry="26.7407"/>
<text text-anchor="middle" x="531" y="-155.8" font-family="Times,serif" font-size="14.00">MailChimp</text>
<text text-anchor="middle" x="531" y="-140.8" font-family="Times,serif" font-size="14.00">interface</text>
</g>
<!-- _mc -->
<g id="node10" class="node"><title>_mc</title>
<ellipse fill="#ffbbbb" stroke="black" cx="531" cy="-51" rx="56.3526" ry="26.7407"/>
<text text-anchor="middle" x="531" y="-54.8" font-family="Times,serif" font-size="14.00">MailChimp</text>
<text text-anchor="middle" x="531" y="-39.8" font-family="Times,serif" font-size="14.00">API</text>
</g>
<!-- mc&#45;&gt;_mc -->
<g id="edge4" class="edge"><title>mc&#45;&gt;_mc</title>
<path fill="none" stroke="#222222" d="M531,-124.989C531,-113.823 531,-100.581 531,-88.4619"/>
<polygon fill="#222222" stroke="#222222" points="534.5,-88.1811 531,-78.1811 527.5,-88.1811 534.5,-88.1811"/>
</g>
<!-- crm -->
<g id="node4" class="node"><title>crm</title>
<ellipse fill="#bbffbb" stroke="black" cx="652" cy="-152" rx="45.4433" ry="26.7407"/>
<text text-anchor="middle" x="652" y="-155.8" font-family="Times,serif" font-size="14.00">Insightly</text>
<text text-anchor="middle" x="652" y="-140.8" font-family="Times,serif" font-size="14.00">interface</text>
</g>
<!-- _crm -->
<g id="node11" class="node"><title>_crm</title>
<ellipse fill="#ffbbbb" stroke="black" cx="652" cy="-51" rx="45.4433" ry="26.7407"/>
<text text-anchor="middle" x="652" y="-54.8" font-family="Times,serif" font-size="14.00">Insightly</text>
<text text-anchor="middle" x="652" y="-39.8" font-family="Times,serif" font-size="14.00">API</text>
</g>
<!-- crm&#45;&gt;_crm -->
<g id="edge5" class="edge"><title>crm&#45;&gt;_crm</title>
<path fill="none" stroke="#222222" d="M652,-124.989C652,-113.823 652,-100.581 652,-88.4619"/>
<polygon fill="#222222" stroke="#222222" points="655.5,-88.1811 652,-78.1811 648.5,-88.1811 655.5,-88.1811"/>
</g>
<!-- actors -->
<g id="node5" class="node"><title>actors</title>
<ellipse fill="#bbffbb" stroke="black" cx="425" cy="-152" rx="31.2735" ry="18"/>
<text text-anchor="middle" x="425" y="-148.3" font-family="Times,serif" font-size="14.00">actors</text>
</g>
<!-- akka -->
<g id="node12" class="node"><title>akka</title>
<ellipse fill="#ffbbbb" stroke="black" cx="429" cy="-51" rx="26.949" ry="18"/>
<text text-anchor="middle" x="429" y="-47.3" font-family="Times,serif" font-size="14.00">akka</text>
</g>
<!-- actors&#45;&gt;akka -->
<g id="edge7" class="edge"><title>actors&#45;&gt;akka</title>
<path fill="none" stroke="#222222" d="M425.697,-133.756C426.305,-118.708 427.197,-96.6163 427.901,-79.1898"/>
<polygon fill="#222222" stroke="#222222" points="431.405,-79.1801 428.311,-69.0469 424.41,-78.8974 431.405,-79.1801"/>
</g>
<!-- bl -->
<g id="node6" class="node"><title>bl</title>
<ellipse fill="#bbffbb" stroke="black" cx="621" cy="-242" rx="61.6163" ry="18"/>
<text text-anchor="middle" x="621" y="-238.3" font-family="Times,serif" font-size="14.00">Business logic</text>
</g>
<!-- bl&#45;&gt;dbv -->
<g id="edge11" class="edge"><title>bl&#45;&gt;dbv</title>
<path fill="none" stroke="#222222" d="M657.317,-220.9C682.833,-206.778 716.87,-187.94 742.619,-173.689"/>
<polygon fill="#222222" stroke="#222222" points="655.388,-217.968 648.333,-225.872 658.777,-224.092 655.388,-217.968"/>
</g>
<!-- bl&#45;&gt;smtp -->
<g id="edge12" class="edge"><title>bl&#45;&gt;smtp</title>
<path fill="none" stroke="#222222" d="M678.872,-228.511C726.142,-217.589 794.321,-200.179 852,-179 859.039,-176.415 866.405,-173.264 873.374,-170.06"/>
<polygon fill="#222222" stroke="#222222" points="678.082,-225.101 669.114,-230.742 679.643,-231.925 678.082,-225.101"/>
</g>
<!-- bl&#45;&gt;mc -->
<g id="edge13" class="edge"><title>bl&#45;&gt;mc</title>
<path fill="none" stroke="#222222" d="M596.823,-217.36C583.854,-204.679 567.925,-189.104 554.985,-176.452"/>
<polygon fill="#222222" stroke="#222222" points="594.475,-219.959 604.072,-224.448 599.369,-214.954 594.475,-219.959"/>
</g>
<!-- bl&#45;&gt;crm -->
<g id="edge14" class="edge"><title>bl&#45;&gt;crm</title>
<path fill="none" stroke="#222222" d="M630.302,-214.594C634.32,-203.19 639.002,-189.897 642.987,-178.586"/>
<polygon fill="#222222" stroke="#222222" points="626.999,-213.438 626.977,-224.033 633.601,-215.764 626.999,-213.438"/>
</g>
<!-- bl&#45;&gt;actors -->
<g id="edge15" class="edge"><title>bl&#45;&gt;actors</title>
<path fill="none" stroke="#222222" d="M574.853,-223.818C536.366,-209.275 484.747,-189.214 465,-179 457.938,-175.347 450.547,-170.778 444.067,-166.493"/>
<polygon fill="#222222" stroke="#222222" points="573.736,-227.137 584.328,-227.387 576.204,-220.587 573.736,-227.137"/>
</g>
<!-- tl -->
<g id="node7" class="node"><title>tl</title>
<ellipse fill="#bbffbb" stroke="black" cx="467" cy="-242" rx="74.3697" ry="26.7407"/>
<text text-anchor="middle" x="467" y="-245.8" font-family="Times,serif" font-size="14.00">Taskman</text>
<text text-anchor="middle" x="467" y="-230.8" font-family="Times,serif" font-size="14.00">processing logic</text>
</g>
<!-- tl&#45;&gt;actors -->
<g id="edge8" class="edge"><title>tl&#45;&gt;actors</title>
<path fill="none" stroke="#222222" d="M450.191,-205.781C444.227,-193.286 437.794,-179.807 432.921,-169.597"/>
<polygon fill="#222222" stroke="#222222" points="447.16,-207.556 454.626,-215.073 453.477,-204.541 447.16,-207.556"/>
</g>
<!-- tl&#45;&gt;bl -->
<g id="edge16" class="edge"><title>tl&#45;&gt;bl</title>
<path fill="none" stroke="#222222" d="M541.293,-242C543.927,-242 546.56,-242 549.194,-242"/>
<polygon fill="#222222" stroke="#222222" points="549.352,-245.5 559.352,-242 549.352,-238.5 549.352,-245.5"/>
</g>
<!-- ser -->
<g id="node16" class="node"><title>ser</title>
<ellipse fill="#bbffbb" stroke="black" cx="165" cy="-152" rx="54.3924" ry="18"/>
<text text-anchor="middle" x="165" y="-148.3" font-family="Times,serif" font-size="14.00">Serialisation</text>
</g>
<!-- tl&#45;&gt;ser -->
<g id="edge10" class="edge"><title>tl&#45;&gt;ser</title>
<path fill="none" stroke="#222222" d="M399.73,-222.161C390.752,-219.715 381.66,-217.272 373,-215 308.773,-198.148 291.085,-199.722 228,-179 217.433,-175.529 206.132,-171.101 196.061,-166.888"/>
<polygon fill="#222222" stroke="#222222" points="398.83,-225.543 409.399,-224.808 400.679,-218.792 398.83,-225.543"/>
</g>
<!-- workq -->
<g id="node17" class="node"><title>workq</title>
<ellipse fill="#bbffbb" stroke="black" cx="299" cy="-152" rx="61.2774" ry="26.7407"/>
<text text-anchor="middle" x="299" y="-155.8" font-family="Times,serif" font-size="14.00">Work Queue</text>
<text text-anchor="middle" x="299" y="-140.8" font-family="Times,serif" font-size="14.00">interface</text>
</g>
<!-- tl&#45;&gt;workq -->
<g id="edge9" class="edge"><title>tl&#45;&gt;workq</title>
<path fill="none" stroke="#222222" d="M416.773,-214.691C391.325,-201.36 360.914,-185.431 337.37,-173.098"/>
<polygon fill="#222222" stroke="#222222" points="415.42,-217.933 425.903,-219.473 418.668,-211.732 415.42,-217.933"/>
</g>
<!-- bla -->
<g id="node13" class="node"><title>bla</title>
<ellipse fill="#bbbbff" stroke="black" cx="275" cy="-335" rx="85.3397" ry="26.7407"/>
<text text-anchor="middle" x="275" y="-338.8" font-family="Times,serif" font-size="14.00">Business logic API</text>
<text text-anchor="middle" x="275" y="-323.8" font-family="Times,serif" font-size="14.00">(event/job defns)</text>
</g>
<!-- bla&#45;&gt;bl -->
<g id="edge19" class="edge"><title>bla&#45;&gt;bl</title>
<path fill="none" stroke="#222222" d="M357.943,-328.744C425.986,-323.516 516.377,-314.205 550,-300 568.088,-292.358 585.339,-278.712 598.306,-266.688"/>
<polygon fill="#222222" stroke="#222222" points="601.019,-268.935 605.796,-259.479 596.164,-263.892 601.019,-268.935"/>
</g>
<!-- tla -->
<g id="node14" class="node"><title>tla</title>
<ellipse fill="#bbbbff" stroke="black" cx="98" cy="-335" rx="73.3085" ry="26.7407"/>
<text text-anchor="middle" x="98" y="-338.8" font-family="Times,serif" font-size="14.00">Taskman</text>
<text text-anchor="middle" x="98" y="-323.8" font-family="Times,serif" font-size="14.00">submission API</text>
</g>
<!-- tla&#45;&gt;bl -->
<g id="edge18" class="edge"><title>tla&#45;&gt;bl</title>
<path fill="none" stroke="#222222" d="M148.627,-315.477C158.882,-312.429 169.687,-309.71 180,-308 220.567,-301.273 511.359,-314.063 550,-300 568.874,-293.131 586.503,-279.039 599.474,-266.586"/>
<polygon fill="#222222" stroke="#222222" points="601.952,-269.057 606.546,-259.51 597.001,-264.108 601.952,-269.057"/>
</g>
<!-- tla&#45;&gt;bla -->
<g id="edge17" class="edge"><title>tla&#45;&gt;bla</title>
<path fill="none" stroke="#222222" d="M171.289,-335C173.948,-335 176.606,-335 179.265,-335"/>
<polygon fill="#222222" stroke="#222222" points="179.52,-338.5 189.52,-335 179.519,-331.5 179.52,-338.5"/>
</g>
<!-- tsl -->
<g id="node15" class="node"><title>tsl</title>
<ellipse fill="#bbffbb" stroke="black" cx="165" cy="-242" rx="77.112" ry="26.7407"/>
<text text-anchor="middle" x="165" y="-245.8" font-family="Times,serif" font-size="14.00">Taskman</text>
<text text-anchor="middle" x="165" y="-230.8" font-family="Times,serif" font-size="14.00">submission logic</text>
</g>
<!-- tla&#45;&gt;tsl -->
<g id="edge20" class="edge"><title>tla&#45;&gt;tsl</title>
<path fill="none" stroke="#222222" d="M116.663,-308.651C123.996,-298.692 132.517,-287.119 140.344,-276.488"/>
<polygon fill="#222222" stroke="#222222" points="143.326,-278.341 146.437,-268.213 137.689,-274.19 143.326,-278.341"/>
</g>
<!-- tsl&#45;&gt;ser -->
<g id="edge21" class="edge"><title>tsl&#45;&gt;ser</title>
<path fill="none" stroke="#222222" d="M165,-204.823C165,-192.818 165,-180.01 165,-170.13"/>
<polygon fill="#222222" stroke="#222222" points="161.5,-205.073 165,-215.073 168.5,-205.073 161.5,-205.073"/>
</g>
<!-- tsl&#45;&gt;workq -->
<g id="edge22" class="edge"><title>tsl&#45;&gt;workq</title>
<path fill="none" stroke="#222222" d="M208.798,-212.237C227.365,-200.044 248.645,-186.069 265.871,-174.756"/>
<polygon fill="#222222" stroke="#222222" points="206.644,-209.464 200.207,-217.879 210.487,-215.315 206.644,-209.464"/>
</g>
<!-- json4s -->
<g id="node19" class="node"><title>json4s</title>
<ellipse fill="#ffbbbb" stroke="black" cx="175" cy="-51" rx="33.2209" ry="18"/>
<text text-anchor="middle" x="175" y="-47.3" font-family="Times,serif" font-size="14.00">json4s</text>
</g>
<!-- ser&#45;&gt;json4s -->
<g id="edge6" class="edge"><title>ser&#45;&gt;json4s</title>
<path fill="none" stroke="#222222" d="M166.742,-133.756C168.262,-118.708 170.493,-96.6163 172.254,-79.1898"/>
<polygon fill="#222222" stroke="#222222" points="175.755,-79.348 173.278,-69.0469 168.791,-78.6445 175.755,-79.348"/>
</g>
<!-- _workq -->
<g id="node18" class="node"><title>_workq</title>
<ellipse fill="#ffbbbb" stroke="black" cx="288" cy="-51" rx="61.2774" ry="26.7407"/>
<text text-anchor="middle" x="288" y="-54.8" font-family="Times,serif" font-size="14.00">Work Queue</text>
<text text-anchor="middle" x="288" y="-39.8" font-family="Times,serif" font-size="14.00">DB objects</text>
</g>
<!-- workq&#45;&gt;_workq -->
<g id="edge2" class="edge"><title>workq&#45;&gt;_workq</title>
<path fill="none" stroke="#222222" d="M296.11,-124.989C294.869,-113.823 293.398,-100.581 292.051,-88.4619"/>
<polygon fill="#222222" stroke="#222222" points="295.492,-87.7334 290.909,-78.1811 288.535,-88.5065 295.492,-87.7334"/>
</g>
</g>
</svg>
