<?xml version="1.0" encoding="UTF-8" standalone="no"?>
<!DOCTYPE svg PUBLIC "-//W3C//DTD SVG 1.1//EN"
 "http://www.w3.org/Graphics/SVG/1.1/DTD/svg11.dtd">
<!-- Generated by graphviz version 2.38.0 (20140413.2041)
 -->
<!-- Title: G Pages: 1 -->
<svg width="679pt" height="765pt"
 viewBox="0.00 0.00 678.95 765.22" xmlns="http://www.w3.org/2000/svg" xmlns:xlink="http://www.w3.org/1999/xlink">
<g id="graph0" class="graph" transform="scale(1 1) rotate(0) translate(4 761.22)">
<title>G</title>
<polygon fill="white" stroke="none" points="-4,4 -4,-761.22 674.952,-761.22 674.952,4 -4,4"/>
<!-- UseCaseId -->
<g id="node1" class="node"><title>UseCaseId</title>
<ellipse fill="none" stroke="black" cx="236.723" cy="-435.74" rx="48.9926" ry="18"/>
<text text-anchor="middle" x="236.723" y="-432.04" font-family="Times,serif" font-size="14.00">UseCaseId</text>
</g>
<!-- ReqId -->
<g id="node2" class="node"><title>ReqId</title>
<ellipse fill="none" stroke="black" cx="277.723" cy="-291" rx="32.4942" ry="18"/>
<text text-anchor="middle" x="277.723" y="-287.3" font-family="Times,serif" font-size="14.00">ReqId</text>
</g>
<!-- UseCaseId&#45;&gt;ReqId -->
<g id="edge1" class="edge"><title>UseCaseId&#45;&gt;ReqId</title>
<path fill="none" stroke="red" stroke-dasharray="5,2" d="M241.587,-417.805C248.615,-393.339 261.679,-347.858 270.024,-318.804"/>
<polygon fill="none" stroke="red" points="273.468,-319.49 272.865,-308.913 266.74,-317.558 273.468,-319.49"/>
</g>
<!-- ReqOrSubReqId -->
<g id="node3" class="node"><title>ReqOrSubReqId</title>
<ellipse fill="none" stroke="black" cx="318.723" cy="-18" rx="69.5877" ry="18"/>
<text text-anchor="middle" x="318.723" y="-14.3" font-family="Times,serif" font-size="14.00">ReqOrSubReqId</text>
</g>
<!-- ReqId&#45;&gt;ReqOrSubReqId -->
<g id="edge2" class="edge"><title>ReqId&#45;&gt;ReqOrSubReqId</title>
<path fill="none" stroke="red" stroke-dasharray="5,2" d="M282.305,-273.081C286.716,-255.282 292.723,-226.384 292.723,-201 292.723,-201 292.723,-201 292.723,-90 292.723,-74.5185 298.241,-58.2325 304.193,-45.1691"/>
<polygon fill="none" stroke="red" points="307.49,-46.3945 308.745,-35.8742 301.203,-43.3158 307.49,-46.3945"/>
</g>
<!-- UseCaseStepId -->
<g id="node4" class="node"><title>UseCaseStepId</title>
<ellipse fill="none" stroke="black" cx="389.723" cy="-164" rx="64.189" ry="18"/>
<text text-anchor="middle" x="389.723" y="-160.3" font-family="Times,serif" font-size="14.00">UseCaseStepId</text>
</g>
<!-- SubReqId -->
<g id="node5" class="node"><title>SubReqId</title>
<ellipse fill="none" stroke="black" cx="372.723" cy="-91" rx="46.2923" ry="18"/>
<text text-anchor="middle" x="372.723" y="-87.3" font-family="Times,serif" font-size="14.00">SubReqId</text>
</g>
<!-- UseCaseStepId&#45;&gt;SubReqId -->
<g id="edge3" class="edge"><title>UseCaseStepId&#45;&gt;SubReqId</title>
<path fill="none" stroke="red" stroke-dasharray="5,2" d="M385.608,-145.813C383.666,-137.702 381.303,-127.836 379.134,-118.777"/>
<polygon fill="none" stroke="red" points="382.533,-117.939 376.8,-109.029 375.725,-119.569 382.533,-117.939"/>
</g>
<!-- SubReqId&#45;&gt;ReqOrSubReqId -->
<g id="edge4" class="edge"><title>SubReqId&#45;&gt;ReqOrSubReqId</title>
<path fill="none" stroke="red" stroke-dasharray="5,2" d="M360.198,-73.5327C353.548,-64.788 345.233,-53.8556 337.798,-44.0799"/>
<polygon fill="none" stroke="red" points="340.394,-41.7117 331.554,-35.871 334.822,-45.9493 340.394,-41.7117"/>
</g>
<!-- UseCase -->
<g id="node6" class="node"><title>UseCase</title>
<ellipse fill="none" stroke="black" cx="77.7229" cy="-522.74" rx="41.6928" ry="18"/>
<text text-anchor="middle" x="77.7229" y="-519.04" font-family="Times,serif" font-size="14.00">UseCase</text>
</g>
<!-- UseCase&#45;&gt;UseCaseId -->
<g id="edge5" class="edge"><title>UseCase&#45;&gt;UseCaseId</title>
<path fill="none" stroke="blue" d="M98.9493,-500.435C109.586,-490.664 123.085,-479.546 136.723,-471.74 155.72,-460.867 178.664,-452.54 197.78,-446.741"/>
<ellipse fill="blue" stroke="blue" cx="95.951" cy="-503.256" rx="4.00002" ry="4.00002"/>
</g>
<!-- UseCaseSteps -->
<g id="node7" class="node"><title>UseCaseSteps</title>
<ellipse fill="none" stroke="black" cx="98.7229" cy="-435.74" rx="60.3893" ry="18"/>
<text text-anchor="middle" x="98.7229" y="-432.04" font-family="Times,serif" font-size="14.00">UseCaseSteps</text>
</g>
<!-- UseCase&#45;&gt;UseCaseSteps -->
<g id="edge6" class="edge"><title>UseCase&#45;&gt;UseCaseSteps</title>
<path fill="none" stroke="blue" d="M54.3123,-499.875C47.8755,-491.213 43.8482,-481.103 48.7229,-471.74 53.0779,-463.376 60.4481,-456.597 68.2106,-451.312"/>
<ellipse fill="blue" stroke="blue" cx="57.0275" cy="-503.115" rx="4.00002" ry="4.00002"/>
<text text-anchor="middle" x="62.7229" y="-475.54" font-family="Times,serif" font-size="14.00">N+A</text>
</g>
<!-- UseCase&#45;&gt;UseCaseSteps -->
<g id="edge7" class="edge"><title>UseCase&#45;&gt;UseCaseSteps</title>
<path fill="none" stroke="blue" d="M83.975,-496.434C87.3643,-482.715 91.4638,-466.122 94.4795,-453.916"/>
<ellipse fill="blue" stroke="blue" cx="82.932" cy="-500.656" rx="4.00001" ry="4.00001"/>
<text text-anchor="middle" x="95.2229" y="-475.54" font-family="Times,serif" font-size="14.00">E</text>
</g>
<!-- UseCaseStepsTree -->
<g id="node8" class="node"><title>UseCaseStepsTree</title>
<ellipse fill="none" stroke="black" cx="111.723" cy="-353.87" rx="111.946" ry="26.7407"/>
<text text-anchor="middle" x="111.723" y="-357.67" font-family="Times,serif" font-size="14.00">UseCaseSteps.Tree</text>
<text text-anchor="middle" x="111.723" y="-342.67" font-family="Times,serif" font-size="14.00">VectorTree[UseCaseStep]</text>
</g>
<!-- UseCaseSteps&#45;&gt;UseCaseStepsTree -->
<g id="edge8" class="edge"><title>UseCaseSteps&#45;&gt;UseCaseStepsTree</title>
<path fill="none" stroke="blue" d="M102.837,-409.464C104.315,-400.382 105.985,-390.125 107.474,-380.974"/>
<ellipse fill="blue" stroke="blue" cx="102.186" cy="-413.461" rx="4.00001" ry="4.00001"/>
</g>
<!-- UseCaseStep -->
<g id="node9" class="node"><title>UseCaseStep</title>
<ellipse fill="none" stroke="black" cx="167.723" cy="-237" rx="57.3905" ry="18"/>
<text text-anchor="middle" x="167.723" y="-233.3" font-family="Times,serif" font-size="14.00">UseCaseStep</text>
</g>
<!-- UseCaseStepsTree&#45;&gt;UseCaseStep -->
<g id="edge9" class="edge"><title>UseCaseStepsTree&#45;&gt;UseCaseStep</title>
<path fill="none" stroke="blue" d="M127.812,-319.867C138.114,-298.736 151.059,-272.181 159.363,-255.149"/>
<ellipse fill="blue" stroke="blue" cx="126.043" cy="-323.495" rx="4.00002" ry="4.00002"/>
</g>
<!-- UseCaseStep&#45;&gt;UseCaseStepId -->
<g id="edge10" class="edge"><title>UseCaseStep&#45;&gt;UseCaseStepId</title>
<path fill="none" stroke="blue" d="M214.117,-221.162C253.928,-208.43 310.747,-190.258 348.867,-178.066"/>
<ellipse fill="blue" stroke="blue" cx="210.202" cy="-222.414" rx="4.00001" ry="4.00001"/>
</g>
<!-- UseCaseIMap -->
<g id="node10" class="node"><title>UseCaseIMap</title>
<ellipse fill="none" stroke="black" cx="131.723" cy="-657.35" rx="61.1893" ry="18"/>
<text text-anchor="middle" x="131.723" y="-653.65" font-family="Times,serif" font-size="14.00">UseCaseIMap</text>
</g>
<!-- UseCaseIMap&#45;&gt;UseCaseId -->
<g id="edge15" class="edge"><title>UseCaseIMap&#45;&gt;UseCaseId</title>
<path fill="none" stroke="blue" d="M133.192,-631.08C135.963,-599.641 143.924,-545.177 166.723,-504.74 178.705,-483.488 199.356,-464.629 215.132,-452.195"/>
<ellipse fill="blue" stroke="blue" cx="132.856" cy="-635.318" rx="4" ry="4"/>
</g>
<!-- UseCaseIMap&#45;&gt;UseCase -->
<g id="edge14" class="edge"><title>UseCaseIMap&#45;&gt;UseCase</title>
<path fill="none" stroke="blue" d="M121.634,-631.575C110.846,-605.082 94.0278,-563.781 84.6452,-540.74"/>
<ellipse fill="blue" stroke="blue" cx="123.265" cy="-635.581" rx="4.00001" ry="4.00001"/>
</g>
<!-- UseCasesStepIndex -->
<g id="node11" class="node"><title>UseCasesStepIndex</title>
<ellipse fill="none" stroke="black" cx="360.723" cy="-657.35" rx="149.813" ry="26.7407"/>
<text text-anchor="middle" x="360.723" y="-661.15" font-family="Times,serif" font-size="14.00">UseCases.StepIndex</text>
<text text-anchor="middle" x="360.723" y="-646.15" font-family="Times,serif" font-size="14.00">Map[UseCaseStepId, StepTreeKey]</text>
</g>
<!-- UseCasesStepIndex&#45;&gt;UseCaseStepId -->
<g id="edge16" class="edge"><title>UseCasesStepIndex&#45;&gt;UseCaseStepId</title>
<path fill="none" stroke="blue" d="M373.153,-622.513C381.778,-596.013 391.723,-558.023 391.723,-523.74 391.723,-523.74 391.723,-523.74 391.723,-236 391.723,-217.626 391.045,-196.589 390.479,-182.213"/>
<ellipse fill="blue" stroke="blue" cx="371.8" cy="-626.557" rx="4.00001" ry="4.00001"/>
</g>
<!-- StepTreeKey -->
<g id="node14" class="node"><title>StepTreeKey</title>
<ellipse fill="none" stroke="black" cx="269.723" cy="-522.74" rx="93.6835" ry="18"/>
<text text-anchor="middle" x="269.723" y="-519.04" font-family="Times,serif" font-size="14.00">UseCases.StepTreeKey</text>
</g>
<!-- UseCasesStepIndex&#45;&gt;StepTreeKey -->
<g id="edge17" class="edge"><title>UseCasesStepIndex&#45;&gt;StepTreeKey</title>
<path fill="none" stroke="blue" d="M338.299,-623.673C320.277,-597.411 295.686,-561.576 281.375,-540.721"/>
<ellipse fill="blue" stroke="blue" cx="340.698" cy="-627.169" rx="4.00002" ry="4.00002"/>
</g>
<!-- UseCasesStepFlow -->
<g id="node12" class="node"><title>UseCasesStepFlow</title>
<ellipse fill="none" stroke="black" cx="538.723" cy="-585.61" rx="132.458" ry="26.7407"/>
<text text-anchor="middle" x="538.723" y="-589.41" font-family="Times,serif" font-size="14.00">UseCases.StepFlow</text>
<text text-anchor="middle" x="538.723" y="-574.41" font-family="Times,serif" font-size="14.00">Digraph.BiDir[UseCaseStepId]</text>
</g>
<!-- UseCasesStepFlow&#45;&gt;UseCaseStepId -->
<g id="edge18" class="edge"><title>UseCasesStepFlow&#45;&gt;UseCaseStepId</title>
<path fill="none" stroke="blue" d="M511.485,-552.459C497.648,-532.881 483.723,-506.623 483.723,-480.24 483.723,-480.24 483.723,-480.24 483.723,-236 483.723,-207.47 455.811,-188.951 430.406,-178.003"/>
<ellipse fill="blue" stroke="blue" cx="513.986" cy="-555.869" rx="4.00002" ry="4.00002"/>
</g>
<!-- UseCases -->
<g id="node13" class="node"><title>UseCases</title>
<ellipse fill="none" stroke="black" cx="360.723" cy="-739.22" rx="44.6926" ry="18"/>
<text text-anchor="middle" x="360.723" y="-735.52" font-family="Times,serif" font-size="14.00">UseCases</text>
</g>
<!-- UseCases&#45;&gt;UseCaseIMap -->
<g id="edge11" class="edge"><title>UseCases&#45;&gt;UseCaseIMap</title>
<path fill="none" stroke="blue" d="M319.262,-724.475C287.115,-713.737 241.492,-698.319 201.723,-684.22 190.733,-680.324 178.818,-675.97 167.988,-671.961"/>
<ellipse fill="blue" stroke="blue" cx="323.338" cy="-725.835" rx="4.00001" ry="4.00001"/>
</g>
<!-- UseCases&#45;&gt;UseCasesStepIndex -->
<g id="edge12" class="edge"><title>UseCases&#45;&gt;UseCasesStepIndex</title>
<path fill="none" stroke="blue" d="M360.723,-712.666C360.723,-703.653 360.723,-693.512 360.723,-684.454"/>
<ellipse fill="blue" stroke="blue" cx="360.723" cy="-716.89" rx="4" ry="4"/>
</g>
<!-- UseCases&#45;&gt;UseCasesStepFlow -->
<g id="edge13" class="edge"><title>UseCases&#45;&gt;UseCasesStepFlow</title>
<path fill="none" stroke="blue" d="M412.697,-733.917C447.975,-728.191 492.917,-714.917 519.723,-684.22 536.87,-664.584 540.399,-634.152 540.41,-612.492"/>
<ellipse fill="blue" stroke="blue" cx="408.369" cy="-734.563" rx="4.00001" ry="4.00001"/>
</g>
<!-- StepTreeKey&#45;&gt;UseCaseId -->
<g id="edge19" class="edge"><title>StepTreeKey&#45;&gt;UseCaseId</title>
<path fill="none" stroke="blue" d="M260.028,-496.768C254.635,-482.877 248.066,-465.957 243.278,-453.625"/>
<ellipse fill="blue" stroke="blue" cx="261.597" cy="-500.81" rx="4.00001" ry="4.00001"/>
</g>
</g>
</svg>
