<?xml version="1.0" encoding="UTF-8" standalone="no"?>
<!DOCTYPE svg PUBLIC "-//W3C//DTD SVG 1.1//EN"
 "http://www.w3.org/Graphics/SVG/1.1/DTD/svg11.dtd">
<!-- Generated by graphviz version 2.38.0 (20140413.2041)
 -->
<!-- Title: G Pages: 1 -->
<svg width="598pt" height="825pt"
 viewBox="0.00 0.00 598.00 824.52" xmlns="http://www.w3.org/2000/svg" xmlns:xlink="http://www.w3.org/1999/xlink">
<g id="graph0" class="graph" transform="scale(0.381641 0.381641) rotate(0) translate(4 2156.47)">
<title>G</title>
<polygon fill="white" stroke="none" points="-4,4 -4,-2156.47 1562.92,-2156.47 1562.92,4 -4,4"/>
<!-- UseCaseId -->
<g id="node1" class="node"><title>UseCaseId</title>
<ellipse fill="#ffddff" stroke="black" cx="123.009" cy="-988" rx="79.3924" ry="22.7556"/>
<text text-anchor="middle" x="123.009" y="-982.4" font-family="Times,serif" font-size="22.00">UseCaseId</text>
</g>
<!-- ReqId -->
<g id="node2" class="node"><title>ReqId</title>
<ellipse fill="#ffddff" stroke="black" cx="347.009" cy="-583" rx="50.41" ry="22.7556"/>
<text text-anchor="middle" x="347.009" y="-577.4" font-family="Times,serif" font-size="22.00">ReqId</text>
</g>
<!-- UseCaseId&#45;&gt;ReqId -->
<g id="edge1" class="edge"><title>UseCaseId&#45;&gt;ReqId</title>
<path fill="none" stroke="red" stroke-dasharray="5,2" d="M134.894,-965.618C172.181,-898.536 286.935,-692.081 330.236,-614.176"/>
<polygon fill="none" stroke="red" points="333.354,-615.772 335.153,-605.331 327.235,-612.371 333.354,-615.772"/>
</g>
<!-- ReqOrSubReqId -->
<g id="node3" class="node"><title>ReqOrSubReqId</title>
<ellipse fill="#ffddff" stroke="black" cx="461.009" cy="-29" rx="116.845" ry="22.7556"/>
<text text-anchor="middle" x="461.009" y="-23.4" font-family="Times,serif" font-size="22.00">ReqOrSubReqId</text>
</g>
<!-- ReqId&#45;&gt;ReqOrSubReqId -->
<g id="edge2" class="edge"><title>ReqId&#45;&gt;ReqOrSubReqId</title>
<path fill="none" stroke="red" stroke-dasharray="5,2" d="M352.582,-560.305C364.422,-512.241 391.009,-393.008 391.009,-291.5 391.009,-291.5 391.009,-291.5 391.009,-133 391.009,-104.179 409.99,-77.4445 428.184,-58.4389"/>
<polygon fill="none" stroke="red" points="430.738,-60.8345 435.341,-51.292 425.792,-55.8811 430.738,-60.8345"/>
</g>
<!-- UseCaseStepId -->
<g id="node4" class="node"><title>UseCaseStepId</title>
<ellipse fill="#ffddff" stroke="black" cx="1034.01" cy="-239" rx="106.547" ry="22.7556"/>
<text text-anchor="middle" x="1034.01" y="-233.4" font-family="Times,serif" font-size="22.00">UseCaseStepId</text>
</g>
<!-- SubReqId -->
<g id="node5" class="node"><title>SubReqId</title>
<ellipse fill="#ffddff" stroke="black" cx="646.009" cy="-134" rx="74.9067" ry="22.7556"/>
<text text-anchor="middle" x="646.009" y="-128.4" font-family="Times,serif" font-size="22.00">SubReqId</text>
</g>
<!-- UseCaseStepId&#45;&gt;SubReqId -->
<g id="edge3" class="edge"><title>UseCaseStepId&#45;&gt;SubReqId</title>
<path fill="none" stroke="red" stroke-dasharray="5,2" d="M969.504,-220.876C897.677,-201.809 782.266,-171.171 710.461,-152.11"/>
<polygon fill="none" stroke="red" points="711.191,-148.682 700.628,-149.499 709.395,-155.448 711.191,-148.682"/>
</g>
<!-- SubReqId&#45;&gt;ReqOrSubReqId -->
<g id="edge4" class="edge"><title>SubReqId&#45;&gt;ReqOrSubReqId</title>
<path fill="none" stroke="red" stroke-dasharray="5,2" d="M611.646,-113.868C582.132,-97.4359 539.34,-73.6108 506.9,-55.55"/>
<polygon fill="none" stroke="red" points="508.484,-52.4262 498.045,-50.6197 505.079,-58.5422 508.484,-52.4262"/>
</g>
<!-- UseCase -->
<g id="node6" class="node"><title>UseCase</title>
<ellipse fill="none" stroke="black" cx="250.009" cy="-1402" rx="219.82" ry="131.544"/>
<text text-anchor="middle" x="250.009" y="-1475" font-family="Inconsolata" font-size="20.00">UseCase</text>
<text text-anchor="start" x="102.509" y="-1429" font-family="Inconsolata" font-size="20.00">id &#160;&#160;&#160;&#160;&#160;&#160;&#160;&#160;&#160;&#160;&#160;: UseCaseId</text>
<text text-anchor="start" x="102.509" y="-1407" font-family="Inconsolata" font-size="20.00">pos &#160;&#160;&#160;&#160;&#160;&#160;&#160;&#160;&#160;&#160;: ReqTypePos</text>
<text text-anchor="start" x="102.509" y="-1385" font-family="Inconsolata" font-size="20.00">title &#160;&#160;&#160;&#160;&#160;&#160;&#160;&#160;: OptionalText</text>
<text text-anchor="start" x="102.509" y="-1363" font-family="Inconsolata" font-size="20.00">stepsNA &#160;&#160;&#160;&#160;&#160;&#160;: UseCaseSteps</text>
<text text-anchor="start" x="102.509" y="-1341" font-family="Inconsolata" font-size="20.00">stepsE &#160;&#160;&#160;&#160;&#160;&#160;&#160;: UseCaseSteps</text>
<text text-anchor="start" x="102.509" y="-1319" font-family="Inconsolata" font-size="20.00">liveExplicitly: Live</text>
</g>
<!-- UseCase&#45;&gt;UseCaseId -->
<g id="edge5" class="edge"><title>UseCase&#45;&gt;UseCaseId</title>
<path fill="none" stroke="blue" d="M208.035,-1264.83C179.389,-1171.9 144.114,-1057.46 129.661,-1010.58"/>
<ellipse fill="blue" stroke="blue" cx="209.257" cy="-1268.79" rx="4.00001" ry="4.00001"/>
</g>
<!-- UseCaseSteps -->
<g id="node9" class="node"><title>UseCaseSteps</title>
<ellipse fill="none" stroke="black" cx="648.009" cy="-988" rx="427.599" ry="132.872"/>
<text text-anchor="middle" x="648.009" y="-1062" font-family="Inconsolata" font-size="20.00">UseCaseSteps</text>
<text text-anchor="start" x="353.509" y="-1016" font-family="Inconsolata" font-size="20.00">tree &#160;&#160;&#160;&#160;&#160;&#160;&#160;&#160;&#160;&#160;: UseCaseSteps.Tree</text>
<text text-anchor="start" x="353.509" y="-970" font-family="Inconsolata" font-size="20.00">stepLocs &#160;&#160;&#160;&#160;&#160;&#160;: BiMap[UseCaseStepId, Loc]</text>
<text text-anchor="start" x="353.509" y="-948" font-family="Inconsolata" font-size="20.00">partialLocs &#160;&#160;&#160;: BiMap[Loc, PartialLoc]</text>
<text text-anchor="start" x="353.509" y="-926" font-family="Inconsolata" font-size="20.00">stepPartialLocs: Iso[UseCaseStepId, PartialLoc]</text>
<text text-anchor="start" x="353.509" y="-904" font-family="Inconsolata" font-size="20.00">partialLocSteps: Intersection[PartialLoc, UseCaseStepId]</text>
</g>
<!-- UseCase&#45;&gt;UseCaseSteps -->
<g id="edge6" class="edge"><title>UseCase&#45;&gt;UseCaseSteps</title>
<path fill="none" stroke="blue" d="M320.865,-1269.33C339.733,-1239.71 361.486,-1209.52 385.009,-1184 409.567,-1157.35 438.204,-1131.89 467.364,-1108.66"/>
<ellipse fill="blue" stroke="blue" cx="318.517" cy="-1273.05" rx="4.00002" ry="4.00002"/>
<text text-anchor="middle" x="407.509" y="-1190.4" font-family="Times,serif" font-size="22.00">N+A</text>
</g>
<!-- UseCase&#45;&gt;UseCaseSteps -->
<g id="edge7" class="edge"><title>UseCase&#45;&gt;UseCaseSteps</title>
<path fill="none" stroke="blue" d="M365.334,-1281.62C415.663,-1229.52 474.722,-1168.38 525.807,-1115.5"/>
<ellipse fill="blue" stroke="blue" cx="362.334" cy="-1284.72" rx="4.00002" ry="4.00002"/>
<text text-anchor="middle" x="456.009" y="-1190.4" font-family="Times,serif" font-size="22.00">E</text>
</g>
<!-- UseCases -->
<g id="node7" class="node"><title>UseCases</title>
<ellipse fill="none" stroke="black" cx="997.009" cy="-2044" rx="226.963" ry="84.7059"/>
<text text-anchor="middle" x="997.009" y="-2084" font-family="Inconsolata" font-size="20.00">UseCases</text>
<text text-anchor="start" x="844.509" y="-2038" font-family="Inconsolata" font-size="20.00">imap &#160;&#160;&#160;&#160;: UseCaseIMap</text>
<text text-anchor="start" x="844.509" y="-2016" font-family="Inconsolata" font-size="20.00">stepIndex: UseCases.StepIndex</text>
<text text-anchor="start" x="844.509" y="-1994" font-family="Inconsolata" font-size="20.00">stepFlow : UseCases.StepFlow</text>
</g>
<!-- UseCaseIMap -->
<g id="node10" class="node"><title>UseCaseIMap</title>
<ellipse fill="none" stroke="black" cx="250.009" cy="-1821" rx="190.424" ry="53.9813"/>
<text text-anchor="middle" x="250.009" y="-1839" font-family="Inconsolata" font-size="20.00">UseCaseIMap</text>
<text text-anchor="middle" x="250.009" y="-1793" font-family="Inconsolata" font-size="20.00">IMap[UseCaseId, UseCase]</text>
</g>
<!-- UseCases&#45;&gt;UseCaseIMap -->
<g id="edge11" class="edge"><title>UseCases&#45;&gt;UseCaseIMap</title>
<path fill="none" stroke="blue" d="M812.001,-1988.27C677.587,-1948.5 499.033,-1895.67 379.604,-1860.34"/>
<ellipse fill="blue" stroke="blue" cx="816.145" cy="-1989.49" rx="4.00001" ry="4.00001"/>
</g>
<!-- UseCasesStepIndex -->
<g id="node12" class="node"><title>UseCasesStepIndex</title>
<ellipse fill="none" stroke="black" cx="997.009" cy="-1821" rx="241.661" ry="53.9813"/>
<text text-anchor="middle" x="997.009" y="-1839" font-family="Inconsolata" font-size="20.00">UseCases.StepIndex</text>
<text text-anchor="middle" x="997.009" y="-1793" font-family="Inconsolata" font-size="20.00">Map[UseCaseStepId, StepTreeKey]</text>
</g>
<!-- UseCases&#45;&gt;UseCasesStepIndex -->
<g id="edge12" class="edge"><title>UseCases&#45;&gt;UseCasesStepIndex</title>
<path fill="none" stroke="blue" d="M997.009,-1951.11C997.009,-1925.08 997.009,-1897.63 997.009,-1874.76"/>
<ellipse fill="blue" stroke="blue" cx="997.009" cy="-1955.13" rx="4" ry="4"/>
</g>
<!-- UseCasesStepFlow -->
<g id="node13" class="node"><title>UseCasesStepFlow</title>
<ellipse fill="none" stroke="black" cx="1339.01" cy="-1661" rx="219.82" ry="53.9813"/>
<text text-anchor="middle" x="1339.01" y="-1679" font-family="Inconsolata" font-size="20.00">UseCases.StepFlow</text>
<text text-anchor="middle" x="1339.01" y="-1633" font-family="Inconsolata" font-size="20.00">Digraph.BiDir[UseCaseStepId]</text>
</g>
<!-- UseCases&#45;&gt;UseCasesStepFlow -->
<g id="edge13" class="edge"><title>UseCases&#45;&gt;UseCasesStepFlow</title>
<path fill="none" stroke="blue" d="M1135.6,-1970.4C1175.76,-1944.36 1217.07,-1912.06 1248.01,-1874.74 1287.11,-1827.58 1311.92,-1761.11 1325.59,-1715.08"/>
<ellipse fill="blue" stroke="blue" cx="1132.02" cy="-1972.7" rx="4.00002" ry="4.00002"/>
</g>
<!-- UseCaseStep -->
<g id="node8" class="node"><title>UseCaseStep</title>
<ellipse fill="none" stroke="black" cx="849.009" cy="-423" rx="226.963" ry="84.7059"/>
<text text-anchor="middle" x="849.009" y="-463" font-family="Inconsolata" font-size="20.00">UseCaseStep</text>
<text text-anchor="start" x="696.509" y="-417" font-family="Inconsolata" font-size="20.00">id &#160;&#160;&#160;&#160;&#160;&#160;&#160;&#160;&#160;&#160;&#160;: UseCaseStepId</text>
<text text-anchor="start" x="696.509" y="-395" font-family="Inconsolata" font-size="20.00">title &#160;&#160;&#160;&#160;&#160;&#160;&#160;&#160;: OptionalText</text>
<text text-anchor="start" x="696.509" y="-373" font-family="Inconsolata" font-size="20.00">liveExplicitly: Live</text>
</g>
<!-- UseCaseStep&#45;&gt;UseCaseStepId -->
<g id="edge10" class="edge"><title>UseCaseStep&#45;&gt;UseCaseStepId</title>
<path fill="none" stroke="blue" d="M934.548,-337.849C963.323,-309.54 993.001,-280.343 1012.36,-261.298"/>
<ellipse fill="blue" stroke="blue" cx="931.66" cy="-340.69" rx="4.00002" ry="4.00002"/>
</g>
<!-- UseCaseSteps&#45;&gt;UseCaseStep -->
<g id="edge20" class="edge"><title>UseCaseSteps&#45;&gt;UseCaseStep</title>
<path fill="none" stroke="#555555" stroke-dasharray="5,2" d="M604.337,-855.752C590.168,-791.256 584.335,-713.744 612.009,-649.26 636.77,-591.565 684.373,-541.676 730.46,-503.618"/>
<polygon fill="#555555" stroke="#555555" points="732.886,-506.156 738.438,-497.133 728.471,-500.724 732.886,-506.156"/>
<text text-anchor="middle" x="651.509" y="-697.4" font-family="Times,serif" font-size="22.00" fill="#444444"> refers to</text>
</g>
<!-- UseCaseStepsTree -->
<g id="node11" class="node"><title>UseCaseStepsTree</title>
<ellipse fill="none" stroke="black" cx="882.009" cy="-703" rx="182.367" ry="53.9813"/>
<text text-anchor="middle" x="882.009" y="-721" font-family="Inconsolata" font-size="20.00">UseCaseSteps.Tree</text>
<text text-anchor="middle" x="882.009" y="-675" font-family="Inconsolata" font-size="20.00">VectorTree[UseCaseStep]</text>
</g>
<!-- UseCaseSteps&#45;&gt;UseCaseStepsTree -->
<g id="edge8" class="edge"><title>UseCaseSteps&#45;&gt;UseCaseStepsTree</title>
<path fill="none" stroke="blue" d="M759.045,-852.713C787.636,-818.136 816.703,-782.982 839.393,-755.54"/>
<ellipse fill="blue" stroke="blue" cx="756.262" cy="-856.079" rx="4.00002" ry="4.00002"/>
</g>
<!-- UseCaseIMap&#45;&gt;UseCaseId -->
<g id="edge15" class="edge"><title>UseCaseIMap&#45;&gt;UseCaseId</title>
<path fill="none" stroke="blue" d="M185.511,-1764.01C129.862,-1711.08 53.477,-1626.14 21.0094,-1533.52 -47.6388,-1337.7 71.87,-1085.19 111.147,-1010.63"/>
<ellipse fill="blue" stroke="blue" cx="188.598" cy="-1766.93" rx="4.00002" ry="4.00002"/>
</g>
<!-- UseCaseIMap&#45;&gt;UseCase -->
<g id="edge14" class="edge"><title>UseCaseIMap&#45;&gt;UseCase</title>
<path fill="none" stroke="blue" d="M250.009,-1759.09C250.009,-1700.17 250.009,-1608.96 250.009,-1533.61"/>
<ellipse fill="blue" stroke="blue" cx="250.009" cy="-1763.19" rx="4" ry="4"/>
</g>
<!-- UseCaseStepsTree&#45;&gt;UseCaseStep -->
<g id="edge9" class="edge"><title>UseCaseStepsTree&#45;&gt;UseCaseStep</title>
<path fill="none" stroke="blue" d="M874.759,-640.917C870.125,-601.881 864.053,-550.733 858.97,-507.908"/>
<ellipse fill="blue" stroke="blue" cx="875.253" cy="-645.084" rx="4.00001" ry="4.00001"/>
</g>
<!-- UseCasesStepIndex&#45;&gt;UseCaseStepId -->
<g id="edge16" class="edge"><title>UseCasesStepIndex&#45;&gt;UseCaseStepId</title>
<path fill="none" stroke="blue" d="M1022.57,-1759.94C1054.23,-1679.99 1104.01,-1533.51 1104.01,-1403 1104.01,-1403 1104.01,-1403 1104.01,-422 1104.01,-360.555 1068.82,-294.753 1048.34,-261.658"/>
<ellipse fill="blue" stroke="blue" cx="1021.05" cy="-1763.75" rx="4.00001" ry="4.00001"/>
</g>
<!-- StepTreeKey -->
<g id="node14" class="node"><title>StepTreeKey</title>
<ellipse fill="none" stroke="black" cx="782.009" cy="-1402" rx="294.313" ry="69.0935"/>
<text text-anchor="middle" x="782.009" y="-1431" font-family="Inconsolata" font-size="20.00">UseCases.StepTreeKey</text>
<text text-anchor="start" x="582.009" y="-1385" font-family="Inconsolata" font-size="20.00">useCaseId: UseCaseId</text>
<text text-anchor="start" x="582.009" y="-1363" font-family="Inconsolata" font-size="20.00">field &#160;&#160;&#160;: StaticField.UseCaseStepTree</text>
</g>
<!-- UseCasesStepIndex&#45;&gt;StepTreeKey -->
<g id="edge17" class="edge"><title>UseCasesStepIndex&#45;&gt;StepTreeKey</title>
<path fill="none" stroke="blue" d="M966.048,-1759.95C926.54,-1683.32 858.382,-1551.13 817.023,-1470.91"/>
<ellipse fill="blue" stroke="blue" cx="967.946" cy="-1763.63" rx="4.00002" ry="4.00002"/>
</g>
<!-- UseCasesStepFlow&#45;&gt;UseCaseStepId -->
<g id="edge18" class="edge"><title>UseCasesStepFlow&#45;&gt;UseCaseStepId</title>
<path fill="none" stroke="blue" d="M1317.57,-1599.61C1288.46,-1512.05 1240.01,-1344.21 1240.01,-1197 1240.01,-1197 1240.01,-1197 1240.01,-422 1240.01,-339.44 1145.93,-285.349 1084.93,-258.953"/>
<ellipse fill="blue" stroke="blue" cx="1318.88" cy="-1603.52" rx="4.00001" ry="4.00001"/>
</g>
<!-- StepTreeKey&#45;&gt;UseCaseId -->
<g id="edge19" class="edge"><title>StepTreeKey&#45;&gt;UseCaseId</title>
<path fill="none" stroke="blue" d="M697.123,-1329.85C636.461,-1282.3 551.02,-1221.76 467.009,-1184 360.128,-1135.96 306.917,-1188.26 211.009,-1120.94 171.01,-1092.86 144.173,-1040.29 131.475,-1010.69"/>
<ellipse fill="blue" stroke="blue" cx="700.512" cy="-1332.52" rx="4.00002" ry="4.00002"/>
</g>
<!-- StepTreeKey&#45;&gt;UseCaseSteps -->
<g id="edge21" class="edge"><title>StepTreeKey&#45;&gt;UseCaseSteps</title>
<path fill="none" stroke="#555555" stroke-dasharray="5,2" d="M759.732,-1332.5C741.856,-1277.54 716.163,-1198.55 693.922,-1130.16"/>
<polygon fill="#555555" stroke="#555555" points="697.229,-1129.02 690.808,-1120.59 690.572,-1131.18 697.229,-1129.02"/>
<text text-anchor="middle" x="759.509" y="-1190.4" font-family="Times,serif" font-size="22.00" fill="#444444"> refers to</text>
</g>
</g>
</svg>
