<?xml version="1.0" encoding="UTF-8" standalone="no"?>
<!DOCTYPE svg PUBLIC "-//W3C//DTD SVG 1.1//EN"
 "http://www.w3.org/Graphics/SVG/1.1/DTD/svg11.dtd">
<!-- Generated by graphviz version 2.38.0 (20140413.2041)
 -->
<!-- Title: G Pages: 1 -->
<svg width="1171pt" height="1176pt"
 viewBox="0.00 0.00 1170.89 1175.59" xmlns="http://www.w3.org/2000/svg" xmlns:xlink="http://www.w3.org/1999/xlink">
<g id="graph0" class="graph" transform="scale(1 1) rotate(0) translate(4 1171.59)">
<title>G</title>
<polygon fill="white" stroke="none" points="-4,4 -4,-1171.59 1166.89,-1171.59 1166.89,4 -4,4"/>
<!-- UseCaseId -->
<g id="node1" class="node"><title>UseCaseId</title>
<ellipse fill="#ffddff" stroke="black" cx="155.377" cy="-571.952" rx="48.9926" ry="18"/>
<text text-anchor="middle" x="155.377" y="-568.252" font-family="Times,serif" font-size="14.00">UseCaseId</text>
</g>
<!-- ReqId -->
<g id="node2" class="node"><title>ReqId</title>
<ellipse fill="#ffddff" stroke="black" cx="293.377" cy="-359.652" rx="32.4942" ry="18"/>
<text text-anchor="middle" x="293.377" y="-355.952" font-family="Times,serif" font-size="14.00">ReqId</text>
</g>
<!-- UseCaseId&#45;&gt;ReqId -->
<g id="edge1" class="edge"><title>UseCaseId&#45;&gt;ReqId</title>
<path fill="none" stroke="red" stroke-dasharray="5,2" d="M166.437,-554.098C190.74,-517.063 248.885,-428.455 277.256,-385.219"/>
<polygon fill="none" stroke="red" points="280.275,-386.998 282.835,-376.717 274.423,-383.157 280.275,-386.998"/>
</g>
<!-- ReqOrSubReqId -->
<g id="node3" class="node"><title>ReqOrSubReqId</title>
<ellipse fill="#ffddff" stroke="black" cx="371.377" cy="-18" rx="69.5877" ry="18"/>
<text text-anchor="middle" x="371.377" y="-14.3" font-family="Times,serif" font-size="14.00">ReqOrSubReqId</text>
</g>
<!-- ReqId&#45;&gt;ReqOrSubReqId -->
<g id="edge2" class="edge"><title>ReqId&#45;&gt;ReqOrSubReqId</title>
<path fill="none" stroke="red" stroke-dasharray="5,2" d="M298.204,-341.784C305.971,-313.113 320.377,-252.927 320.377,-201 320.377,-201 320.377,-201 320.377,-90 320.377,-71.9016 331.444,-55.2583 343.267,-42.6415"/>
<polygon fill="none" stroke="red" points="346.002,-44.8579 350.634,-35.3291 341.071,-39.8897 346.002,-44.8579"/>
</g>
<!-- UseCaseStepId -->
<g id="node4" class="node"><title>UseCaseStepId</title>
<ellipse fill="#ffddff" stroke="black" cx="772.377" cy="-164" rx="64.189" ry="18"/>
<text text-anchor="middle" x="772.377" y="-160.3" font-family="Times,serif" font-size="14.00">UseCaseStepId</text>
</g>
<!-- SubReqId -->
<g id="node5" class="node"><title>SubReqId</title>
<ellipse fill="#ffddff" stroke="black" cx="502.377" cy="-91" rx="46.2923" ry="18"/>
<text text-anchor="middle" x="502.377" y="-87.3" font-family="Times,serif" font-size="14.00">SubReqId</text>
</g>
<!-- UseCaseStepId&#45;&gt;SubReqId -->
<g id="edge3" class="edge"><title>UseCaseStepId&#45;&gt;SubReqId</title>
<path fill="none" stroke="red" stroke-dasharray="5,2" d="M727.185,-151.116C677.889,-138.153 599.353,-117.501 549.361,-104.355"/>
<polygon fill="none" stroke="red" points="550.015,-100.908 539.454,-101.75 548.235,-107.678 550.015,-100.908"/>
</g>
<!-- SubReqId&#45;&gt;ReqOrSubReqId -->
<g id="edge4" class="edge"><title>SubReqId&#45;&gt;ReqOrSubReqId</title>
<path fill="none" stroke="red" stroke-dasharray="5,2" d="M476.496,-75.9727C457.184,-65.5057 430.511,-51.0494 408.866,-39.3183"/>
<polygon fill="none" stroke="red" points="410.393,-36.165 399.934,-34.4771 407.058,-42.3192 410.393,-36.165"/>
</g>
<!-- UseCase -->
<g id="node6" class="node"><title>UseCase</title>
<ellipse fill="none" stroke="black" cx="192.377" cy="-774.273" rx="160.526" ry="79.8062"/>
<text text-anchor="middle" x="192.377" y="-817.173" font-family="monospace" font-size="12.00">UseCase</text>
<text text-anchor="start" x="86.8773" y="-790.173" font-family="monospace" font-size="12.00">id &#160;&#160;&#160;&#160;&#160;&#160;&#160;&#160;&#160;&#160;&#160;: UseCaseId</text>
<text text-anchor="start" x="86.8773" y="-777.173" font-family="monospace" font-size="12.00">pos &#160;&#160;&#160;&#160;&#160;&#160;&#160;&#160;&#160;&#160;: ReqTypePos</text>
<text text-anchor="start" x="86.8773" y="-764.173" font-family="monospace" font-size="12.00">title &#160;&#160;&#160;&#160;&#160;&#160;&#160;&#160;: OptionalText</text>
<text text-anchor="start" x="86.8773" y="-751.173" font-family="monospace" font-size="12.00">stepsNA &#160;&#160;&#160;&#160;&#160;&#160;: UseCaseSteps</text>
<text text-anchor="start" x="86.8773" y="-738.173" font-family="monospace" font-size="12.00">stepsE &#160;&#160;&#160;&#160;&#160;&#160;&#160;: UseCaseSteps</text>
<text text-anchor="start" x="86.8773" y="-725.173" font-family="monospace" font-size="12.00">liveExplicitly: Live</text>
</g>
<!-- UseCase&#45;&gt;UseCaseId -->
<g id="edge5" class="edge"><title>UseCase&#45;&gt;UseCaseId</title>
<path fill="none" stroke="blue" d="M176.355,-686.526C169.681,-650.39 162.568,-611.883 158.577,-590.276"/>
<ellipse fill="blue" stroke="blue" cx="177.134" cy="-690.742" rx="4.00001" ry="4.00001"/>
</g>
<!-- UseCaseSteps -->
<g id="node9" class="node"><title>UseCaseSteps</title>
<ellipse fill="none" stroke="black" cx="510.377" cy="-571.952" rx="287.585" ry="71.3357"/>
<text text-anchor="middle" x="510.377" y="-608.852" font-family="monospace" font-size="12.00">UseCaseSteps</text>
<text text-anchor="start" x="314.877" y="-581.852" font-family="monospace" font-size="12.00">tree &#160;&#160;&#160;&#160;&#160;&#160;&#160;&#160;&#160;&#160;: UseCaseSteps.Tree</text>
<text text-anchor="start" x="314.877" y="-554.852" font-family="monospace" font-size="12.00">stepLocs &#160;&#160;&#160;&#160;&#160;&#160;: BiMap[UseCaseStepId, Location]</text>
<text text-anchor="start" x="314.877" y="-541.852" font-family="monospace" font-size="12.00">partialLocs &#160;&#160;&#160;: BiMap[Location, PartialLocation]</text>
<text text-anchor="start" x="314.877" y="-528.852" font-family="monospace" font-size="12.00">stepPartialLocs: Iso[UseCaseStepId, PartialLocation]</text>
</g>
<!-- UseCase&#45;&gt;UseCaseSteps -->
<g id="edge6" class="edge"><title>UseCase&#45;&gt;UseCaseSteps</title>
<path fill="none" stroke="blue" d="M249.353,-692.51C259.772,-681.078 271.228,-670.223 283.377,-661.37 300.041,-649.227 318.589,-638.502 337.701,-629.096"/>
<ellipse fill="blue" stroke="blue" cx="246.658" cy="-695.542" rx="4.00002" ry="4.00002"/>
<text text-anchor="middle" x="297.377" y="-665.17" font-family="Times,serif" font-size="14.00">N+A</text>
</g>
<!-- UseCase&#45;&gt;UseCaseSteps -->
<g id="edge7" class="edge"><title>UseCase&#45;&gt;UseCaseSteps</title>
<path fill="none" stroke="blue" d="M298.144,-706.646C332.875,-684.768 371.437,-660.476 406.06,-638.666"/>
<ellipse fill="blue" stroke="blue" cx="294.636" cy="-708.856" rx="4.00002" ry="4.00002"/>
<text text-anchor="middle" x="375.877" y="-665.17" font-family="Times,serif" font-size="14.00">E</text>
</g>
<!-- UseCases -->
<g id="node7" class="node"><title>UseCases</title>
<ellipse fill="none" stroke="black" cx="744.377" cy="-1115.27" rx="165.426" ry="52.1524"/>
<text text-anchor="middle" x="744.377" y="-1138.67" font-family="monospace" font-size="12.00">UseCases</text>
<text text-anchor="start" x="635.377" y="-1111.67" font-family="monospace" font-size="12.00">imap &#160;&#160;&#160;&#160;: UseCaseIMap</text>
<text text-anchor="start" x="635.377" y="-1098.67" font-family="monospace" font-size="12.00">stepIndex: UseCases.StepIndex</text>
<text text-anchor="start" x="635.377" y="-1085.67" font-family="monospace" font-size="12.00">stepFlow : UseCases.StepFlow</text>
</g>
<!-- UseCaseIMap -->
<g id="node10" class="node"><title>UseCaseIMap</title>
<ellipse fill="none" stroke="black" cx="192.377" cy="-991.999" rx="139.1" ry="33.8824"/>
<text text-anchor="middle" x="192.377" y="-1002.4" font-family="monospace" font-size="12.00">UseCaseIMap</text>
<text text-anchor="middle" x="192.377" y="-975.399" font-family="monospace" font-size="12.00">IMap[UseCaseId, UseCase]</text>
</g>
<!-- UseCases&#45;&gt;UseCaseIMap -->
<g id="edge11" class="edge"><title>UseCases&#45;&gt;UseCaseIMap</title>
<path fill="none" stroke="blue" d="M601.64,-1082.91C505.305,-1061.75 380.468,-1034.32 294.127,-1015.35"/>
<ellipse fill="blue" stroke="blue" cx="605.789" cy="-1083.82" rx="4.00001" ry="4.00001"/>
</g>
<!-- UseCasesStepIndex -->
<g id="node12" class="node"><title>UseCasesStepIndex</title>
<ellipse fill="none" stroke="black" cx="744.377" cy="-991.999" rx="176.139" ry="33.8824"/>
<text text-anchor="middle" x="744.377" y="-1002.4" font-family="monospace" font-size="12.00">UseCases.StepIndex</text>
<text text-anchor="middle" x="744.377" y="-975.399" font-family="monospace" font-size="12.00">Map[UseCaseStepId, StepTreeKey]</text>
</g>
<!-- UseCases&#45;&gt;UseCasesStepIndex -->
<g id="edge12" class="edge"><title>UseCases&#45;&gt;UseCasesStepIndex</title>
<path fill="none" stroke="blue" d="M744.377,-1054.65C744.377,-1044.87 744.377,-1035.05 744.377,-1026.22"/>
<ellipse fill="blue" stroke="blue" cx="744.377" cy="-1058.84" rx="4" ry="4"/>
</g>
<!-- UseCasesStepFlow -->
<g id="node13" class="node"><title>UseCasesStepFlow</title>
<ellipse fill="none" stroke="black" cx="1002.38" cy="-906.117" rx="160.526" ry="33.8824"/>
<text text-anchor="middle" x="1002.38" y="-916.517" font-family="monospace" font-size="12.00">UseCases.StepFlow</text>
<text text-anchor="middle" x="1002.38" y="-889.517" font-family="monospace" font-size="12.00">Digraph.BiDir[UseCaseStepId]</text>
</g>
<!-- UseCases&#45;&gt;UseCasesStepFlow -->
<g id="edge13" class="edge"><title>UseCases&#45;&gt;UseCasesStepFlow</title>
<path fill="none" stroke="blue" d="M859.443,-1071.95C884.21,-1059.53 909.029,-1044.25 929.377,-1025.94 955.925,-1002.05 976.115,-966.247 988.46,-940.185"/>
<ellipse fill="blue" stroke="blue" cx="855.705" cy="-1073.78" rx="4.00002" ry="4.00002"/>
</g>
<!-- UseCaseStep -->
<g id="node8" class="node"><title>UseCaseStep</title>
<ellipse fill="none" stroke="black" cx="633.377" cy="-271.326" rx="165.426" ry="52.1524"/>
<text text-anchor="middle" x="633.377" y="-294.726" font-family="monospace" font-size="12.00">UseCaseStep</text>
<text text-anchor="start" x="524.377" y="-267.726" font-family="monospace" font-size="12.00">id &#160;&#160;&#160;&#160;&#160;&#160;&#160;&#160;&#160;&#160;&#160;: UseCaseStepId</text>
<text text-anchor="start" x="524.377" y="-254.726" font-family="monospace" font-size="12.00">title &#160;&#160;&#160;&#160;&#160;&#160;&#160;&#160;: OptionalText</text>
<text text-anchor="start" x="524.377" y="-241.726" font-family="monospace" font-size="12.00">liveExplicitly: Live</text>
</g>
<!-- UseCaseStep&#45;&gt;UseCaseStepId -->
<g id="edge10" class="edge"><title>UseCaseStep&#45;&gt;UseCaseStepId</title>
<path fill="none" stroke="blue" d="M702.845,-217.687C720.443,-204.353 738.044,-191.016 751.134,-181.097"/>
<ellipse fill="blue" stroke="blue" cx="699.558" cy="-220.178" rx="4.00002" ry="4.00002"/>
</g>
<!-- UseCaseSteps&#45;&gt;UseCaseStep -->
<g id="edge20" class="edge"><title>UseCaseSteps&#45;&gt;UseCaseStep</title>
<path fill="none" stroke="#555555" stroke-dasharray="5,2" d="M469.668,-501.057C455.874,-467.907 447.699,-428.47 464.377,-395.652 479.887,-365.134 506.884,-340.371 534.807,-321.262"/>
<polygon fill="#555555" stroke="#555555" points="537.084,-323.951 543.49,-315.513 533.22,-318.115 537.084,-323.951"/>
<text text-anchor="middle" x="488.877" y="-425.893" font-family="Times,serif" font-size="14.00" fill="#444444"> refers to</text>
</g>
<!-- UseCaseStepsTree -->
<g id="node11" class="node"><title>UseCaseStepsTree</title>
<ellipse fill="none" stroke="black" cx="656.377" cy="-429.593" rx="133.787" ry="33.8824"/>
<text text-anchor="middle" x="656.377" y="-439.993" font-family="monospace" font-size="12.00">UseCaseSteps.Tree</text>
<text text-anchor="middle" x="656.377" y="-412.993" font-family="monospace" font-size="12.00">VectorTree[UseCaseStep]</text>
</g>
<!-- UseCaseSteps&#45;&gt;UseCaseStepsTree -->
<g id="edge8" class="edge"><title>UseCaseSteps&#45;&gt;UseCaseStepsTree</title>
<path fill="none" stroke="blue" d="M587.434,-496.872C599.974,-484.817 612.354,-472.915 623.088,-462.596"/>
<ellipse fill="blue" stroke="blue" cx="584.55" cy="-499.645" rx="4.00002" ry="4.00002"/>
</g>
<!-- UseCaseIMap&#45;&gt;UseCaseId -->
<g id="edge15" class="edge"><title>UseCaseIMap&#45;&gt;UseCaseId</title>
<path fill="none" stroke="blue" d="M125.57,-956.932C87.7268,-933.641 43.787,-898.89 22.3773,-854.176 -8.29552,-790.115 -6.28815,-759.353 22.3773,-694.37 44.2074,-644.882 97.2712,-606.831 129.385,-587.359"/>
<ellipse fill="blue" stroke="blue" cx="129.133" cy="-959.082" rx="4.00002" ry="4.00002"/>
</g>
<!-- UseCaseIMap&#45;&gt;UseCase -->
<g id="edge14" class="edge"><title>UseCaseIMap&#45;&gt;UseCase</title>
<path fill="none" stroke="blue" d="M192.377,-949.698C192.377,-922.716 192.377,-886.611 192.377,-854.251"/>
<ellipse fill="blue" stroke="blue" cx="192.377" cy="-953.765" rx="4" ry="4"/>
</g>
<!-- UseCaseStepsTree&#45;&gt;UseCaseStep -->
<g id="edge9" class="edge"><title>UseCaseStepsTree&#45;&gt;UseCaseStep</title>
<path fill="none" stroke="blue" d="M650.311,-387.376C647.447,-367.917 643.999,-344.493 640.964,-323.872"/>
<ellipse fill="blue" stroke="blue" cx="650.917" cy="-391.495" rx="4.00001" ry="4.00001"/>
</g>
<!-- UseCasesStepIndex&#45;&gt;UseCaseStepId -->
<g id="edge16" class="edge"><title>UseCasesStepIndex&#45;&gt;UseCaseStepId</title>
<path fill="none" stroke="blue" d="M769.583,-951.082C793.683,-909.028 826.377,-840.04 826.377,-775.273 826.377,-775.273 826.377,-775.273 826.377,-270.326 826.377,-235.804 803.121,-201.232 787.133,-181.543"/>
<ellipse fill="blue" stroke="blue" cx="767.507" cy="-954.647" rx="4.00002" ry="4.00002"/>
</g>
<!-- StepTreeKey -->
<g id="node14" class="node"><title>StepTreeKey</title>
<ellipse fill="none" stroke="black" cx="584.377" cy="-774.273" rx="213.593" ry="43.2674"/>
<text text-anchor="middle" x="584.377" y="-791.173" font-family="monospace" font-size="12.00">UseCases.StepTreeKey</text>
<text text-anchor="start" x="441.377" y="-764.173" font-family="monospace" font-size="12.00">useCaseId: UseCaseId</text>
<text text-anchor="start" x="441.377" y="-751.173" font-family="monospace" font-size="12.00">field &#160;&#160;&#160;: StaticField.UseCaseStepTree</text>
</g>
<!-- UseCasesStepIndex&#45;&gt;StepTreeKey -->
<g id="edge17" class="edge"><title>UseCasesStepIndex&#45;&gt;StepTreeKey</title>
<path fill="none" stroke="blue" d="M714.98,-951.363C686.763,-913.318 644.297,-856.061 615.512,-817.251"/>
<ellipse fill="blue" stroke="blue" cx="717.694" cy="-955.022" rx="4.00002" ry="4.00002"/>
</g>
<!-- UseCasesStepFlow&#45;&gt;UseCaseStepId -->
<g id="edge18" class="edge"><title>UseCasesStepFlow&#45;&gt;UseCaseStepId</title>
<path fill="none" stroke="blue" d="M982.88,-864.735C962.476,-818.692 933.377,-740.627 933.377,-669.87 933.377,-669.87 933.377,-669.87 933.377,-270.326 933.377,-216.55 869.698,-188.755 822.436,-175.532"/>
<ellipse fill="blue" stroke="blue" cx="984.56" cy="-868.472" rx="4.00002" ry="4.00002"/>
</g>
<!-- StepTreeKey&#45;&gt;UseCaseId -->
<g id="edge19" class="edge"><title>StepTreeKey&#45;&gt;UseCaseId</title>
<path fill="none" stroke="blue" d="M519.552,-728.1C481.838,-704.158 432.393,-676.618 384.377,-661.37 311.542,-638.239 280.685,-679.56 213.377,-643.37 190.918,-631.294 173.768,-606.555 164.132,-589.858"/>
<ellipse fill="blue" stroke="blue" cx="523.087" cy="-730.366" rx="4.00002" ry="4.00002"/>
</g>
<!-- StepTreeKey&#45;&gt;UseCaseSteps -->
<g id="edge21" class="edge"><title>StepTreeKey&#45;&gt;UseCaseSteps</title>
<path fill="none" stroke="#555555" stroke-dasharray="5,2" d="M568.684,-730.79C560.333,-708.184 549.786,-679.633 539.966,-653.048"/>
<polygon fill="#555555" stroke="#555555" points="543.134,-651.525 536.386,-643.357 536.568,-653.951 543.134,-651.525"/>
<text text-anchor="middle" x="571.877" y="-665.17" font-family="Times,serif" font-size="14.00" fill="#444444"> refers to</text>
</g>
</g>
</svg>
