<?xml version="1.0" encoding="UTF-8" standalone="no"?>
<!DOCTYPE svg PUBLIC "-//W3C//DTD SVG 1.1//EN"
 "http://www.w3.org/Graphics/SVG/1.1/DTD/svg11.dtd">
<!-- Generated by graphviz version 2.38.0 (20140413.2041)
 -->
<!-- Title: G Pages: 1 -->
<svg width="512pt" height="243pt"
 viewBox="0.00 0.00 512.44 243.00" xmlns="http://www.w3.org/2000/svg" xmlns:xlink="http://www.w3.org/1999/xlink">
<g id="graph0" class="graph" transform="scale(1 1) rotate(0) translate(4 239)">
<title>G</title>
<polygon fill="white" stroke="none" points="-4,4 -4,-239 508.439,-239 508.439,4 -4,4"/>
<text text-anchor="middle" x="252.219" y="-219.8" font-family="Times,serif" font-size="14.00">A→B = B depends on A</text>
<g id="clust2" class="cluster"><title>cluster_reqs</title>
<polygon fill="#ffeeee" stroke="black" points="39.1459,-8 39.1459,-60 336.146,-60 336.146,-8 39.1459,-8"/>
</g>
<!-- ReqTypes -->
<g id="node1" class="node"><title>ReqTypes</title>
<ellipse fill="#ccccff" stroke="black" cx="46.1459" cy="-178" rx="46.2923" ry="18"/>
<text text-anchor="middle" x="46.1459" y="-174.3" font-family="Times,serif" font-size="14.00">ReqTypes</text>
</g>
<!-- Fields -->
<g id="node4" class="node"><title>Fields</title>
<ellipse fill="#ccccff" stroke="black" cx="83.1459" cy="-106" rx="32.4942" ry="18"/>
<text text-anchor="middle" x="83.1459" y="-102.3" font-family="Times,serif" font-size="14.00">Fields</text>
</g>
<!-- ReqTypes&#45;&gt;Fields -->
<g id="edge2" class="edge"><title>ReqTypes&#45;&gt;Fields</title>
<path fill="none" stroke="black" d="M55.1026,-160.055C59.4201,-151.887 64.6926,-141.912 69.4959,-132.824"/>
<polygon fill="black" stroke="black" points="72.6929,-134.266 74.2717,-123.789 66.5043,-130.994 72.6929,-134.266"/>
</g>
<!-- GenericReq -->
<g id="node6" class="node"><title>GenericReq</title>
<ellipse fill="#ffaaaa" stroke="black" cx="100.146" cy="-34" rx="52.7911" ry="18"/>
<text text-anchor="middle" x="100.146" y="-30.3" font-family="Times,serif" font-size="14.00">GenericReq</text>
</g>
<!-- ReqTypes&#45;&gt;GenericReq -->
<g id="edge12" class="edge"><title>ReqTypes&#45;&gt;GenericReq</title>
<path fill="none" stroke="black" d="M41.003,-159.771C36.4332,-141.208 31.9139,-111.211 42.1459,-88 47.5729,-75.6893 57.4278,-64.9973 67.493,-56.5041"/>
<polygon fill="black" stroke="black" points="69.8386,-59.1119 75.5295,-50.1753 65.5077,-53.6125 69.8386,-59.1119"/>
</g>
<!-- UserDefIncompletionTypes -->
<g id="node2" class="node"><title>UserDefIncompletionTypes</title>
<ellipse fill="#ccccff" stroke="black" cx="318.146" cy="-106" rx="109.381" ry="18"/>
<text text-anchor="middle" x="318.146" y="-102.3" font-family="Times,serif" font-size="14.00">UserDefIncompletionTypes</text>
</g>
<!-- UseCase -->
<g id="node5" class="node"><title>UseCase</title>
<ellipse fill="#ffaaaa" stroke="black" cx="212.146" cy="-34" rx="41.6928" ry="18"/>
<text text-anchor="middle" x="212.146" y="-30.3" font-family="Times,serif" font-size="14.00">UseCase</text>
</g>
<!-- UserDefIncompletionTypes&#45;&gt;UseCase -->
<g id="edge7" class="edge"><title>UserDefIncompletionTypes&#45;&gt;UseCase</title>
<path fill="none" stroke="black" d="M293.025,-88.411C277.942,-78.4501 258.647,-65.7081 242.686,-55.1679"/>
<polygon fill="black" stroke="black" points="244.483,-52.1605 234.21,-49.5705 240.626,-58.0018 244.483,-52.1605"/>
</g>
<!-- UserDefIncompletionTypes&#45;&gt;GenericReq -->
<g id="edge8" class="edge"><title>UserDefIncompletionTypes&#45;&gt;GenericReq</title>
<path fill="none" stroke="black" d="M262.095,-90.541C231.93,-82.3578 194.228,-71.4813 161.146,-60 154.608,-57.7309 147.755,-55.1389 141.101,-52.5032"/>
<polygon fill="black" stroke="black" points="142.137,-49.1468 131.554,-48.6427 139.512,-55.6363 142.137,-49.1468"/>
</g>
<!-- SHR -->
<g id="node7" class="node"><title>SHR</title>
<ellipse fill="#ffaaaa" stroke="black" cx="300.146" cy="-34" rx="27.8951" ry="18"/>
<text text-anchor="middle" x="300.146" y="-30.3" font-family="Times,serif" font-size="14.00">SHR</text>
</g>
<!-- UserDefIncompletionTypes&#45;&gt;SHR -->
<g id="edge9" class="edge"><title>UserDefIncompletionTypes&#45;&gt;SHR</title>
<path fill="none" stroke="black" d="M313.696,-87.6966C311.691,-79.8979 309.277,-70.5085 307.045,-61.8292"/>
<polygon fill="black" stroke="black" points="310.424,-60.9176 304.544,-52.1043 303.645,-62.6609 310.424,-60.9176"/>
</g>
<!-- LooseIncompletion -->
<g id="node8" class="node"><title>LooseIncompletion</title>
<ellipse fill="#ffffcc" stroke="black" cx="425.146" cy="-34" rx="79.0865" ry="18"/>
<text text-anchor="middle" x="425.146" y="-30.3" font-family="Times,serif" font-size="14.00">LooseIncompletion</text>
</g>
<!-- UserDefIncompletionTypes&#45;&gt;LooseIncompletion -->
<g id="edge3" class="edge"><title>UserDefIncompletionTypes&#45;&gt;LooseIncompletion</title>
<path fill="none" stroke="black" d="M343.503,-88.411C357.865,-79.0155 376.009,-67.1456 391.543,-56.9831"/>
<polygon fill="black" stroke="black" points="393.887,-59.632 400.34,-51.2285 390.055,-53.7742 393.887,-59.632"/>
</g>
<!-- Groupings -->
<g id="node3" class="node"><title>Groupings</title>
<ellipse fill="#ccccff" stroke="black" cx="162.146" cy="-178" rx="48.1917" ry="18"/>
<text text-anchor="middle" x="162.146" y="-174.3" font-family="Times,serif" font-size="14.00">Groupings</text>
</g>
<!-- Groupings&#45;&gt;Fields -->
<g id="edge1" class="edge"><title>Groupings&#45;&gt;Fields</title>
<path fill="none" stroke="black" d="M144.22,-161.116C133.345,-151.48 119.324,-139.056 107.459,-128.543"/>
<polygon fill="black" stroke="black" points="109.46,-125.64 99.6543,-121.628 104.818,-130.879 109.46,-125.64"/>
</g>
<!-- Groupings&#45;&gt;UseCase -->
<g id="edge4" class="edge"><title>Groupings&#45;&gt;UseCase</title>
<path fill="none" stroke="black" d="M168.177,-159.871C176.774,-135.457 192.63,-90.4258 202.767,-61.6351"/>
<polygon fill="black" stroke="black" points="206.073,-62.7841 206.093,-52.1893 199.471,-60.4592 206.073,-62.7841"/>
</g>
<!-- Groupings&#45;&gt;GenericReq -->
<g id="edge5" class="edge"><title>Groupings&#45;&gt;GenericReq</title>
<path fill="none" stroke="black" d="M154.97,-159.891C147.41,-141.936 135.104,-112.914 124.146,-88 120.305,-79.2669 116.031,-69.7632 112.167,-61.2464"/>
<polygon fill="black" stroke="black" points="115.351,-59.7947 108.023,-52.1436 108.981,-62.6951 115.351,-59.7947"/>
</g>
<!-- Groupings&#45;&gt;SHR -->
<g id="edge6" class="edge"><title>Groupings&#45;&gt;SHR</title>
<path fill="none" stroke="black" d="M209.687,-174.853C280.389,-170.551 407.97,-158.149 436.146,-124 446.329,-111.659 445.798,-100.761 436.146,-88 408.561,-51.5315 378.615,-79.2661 337.146,-60 333.455,-58.2851 329.721,-56.2222 326.119,-54.0261"/>
<polygon fill="black" stroke="black" points="327.815,-50.954 317.529,-48.4151 323.987,-56.8144 327.815,-50.954"/>
</g>
<!-- Fields&#45;&gt;UseCase -->
<g id="edge10" class="edge"><title>Fields&#45;&gt;UseCase</title>
<path fill="none" stroke="black" d="M105.616,-92.8069C125.665,-81.9278 155.309,-65.8417 178.24,-53.3988"/>
<polygon fill="black" stroke="black" points="180.172,-56.3321 187.293,-48.4863 176.834,-50.1795 180.172,-56.3321"/>
</g>
<!-- Fields&#45;&gt;GenericReq -->
<g id="edge11" class="edge"><title>Fields&#45;&gt;GenericReq</title>
<path fill="none" stroke="black" d="M87.2611,-88.055C89.154,-80.2609 91.4463,-70.8219 93.5696,-62.0789"/>
<polygon fill="black" stroke="black" points="96.9916,-62.8189 95.9505,-52.2753 90.1893,-61.1668 96.9916,-62.8189"/>
</g>
</g>
</svg>
