<svg xmlns="http://www.w3.org/2000/svg" width="316.32" height="319.326"><ellipse cx="149.95" cy="150.05" rx="158.16" ry="159.663" fill="#fff" transform="translate(8.21 9.613)"/><path d="M165.562 198.477l19.482-21.431-19.482 11.856-35.005-25.534 35.005 35.109" fill="#a8edff" fill-rule="evenodd"/><path d="M122.075 202.067l2.08 22.713-56.515 20.377 2.222-24.262 52.213-18.828m-5.889-64.347l2.078 22.71-44.332 15.987 2.221-24.261 40.033-14.435M81.68 91.767h30.3l.395 4.316-32.152 11.594 1.457-15.91m15.15-13.82H81.68c0-8.457 6.782-15.313 15.15-15.313 8.366 0 15.148 6.856 15.148 15.313H96.83m67.358-67.175c0 18.929 10.396 41.967 23.895 66.898h92.786c-25.243-38.405-67.596-64.922-116.681-66.898zm36.315 89.183c44.2 77.712 97.568 166.93-36.315 208.494 78.62-3.167 141.392-68.587 141.392-148.838a148.09 148.09 0 0 0-8.51-49.44l-96.567-10.216z" fill="#005db3" fill-rule="evenodd"/><g fill="#002d51" fill-rule="evenodd"><path d="M119.13 169.893l2.079 22.713-50.42 18.181 2.218-24.261 46.123-16.633m-5.89-64.347l2.08 22.71-38.242 13.791 2.221-24.262 33.94-12.24M74.386 88.196h44.889v-7.143H74.386v7.143z"/><path d="M158.203 10.649c1.187 0 2.38.012 3.555.042-48.372 6.976-130.74 36.566-130.74 148.92 0 48.092 25.947 73.75 64.514 85.305l30.25-10.864-.116-9.443 17.933-12.29 18.159 12.389.164 29.52h-.164v54.308c-1.175.03-2.368.042-3.555.042-81.383 0-147.364-66.696-147.364-148.967 0-82.278 65.981-148.962 147.364-148.962"/><path d="M119.707 84.523l174.613 18.492c-2.638-6.393-5.73-12.555-9.197-18.492H119.707z"/></g></svg>