<?xml version="1.0" encoding="UTF-8" standalone="no"?>
<!DOCTYPE svg PUBLIC "-//W3C//DTD SVG 1.1//EN"
 "http://www.w3.org/Graphics/SVG/1.1/DTD/svg11.dtd">
<!-- Generated by graphviz version 2.36.0 (20140111.2315)
 -->
<!-- Title: G Pages: 1 -->
<svg width="1094pt" height="867pt"
 viewBox="0.00 0.00 1094.00 867.00" xmlns="http://www.w3.org/2000/svg" xmlns:xlink="http://www.w3.org/1999/xlink">
<g id="graph0" class="graph" transform="scale(1 1) rotate(0) translate(4 863)">
<title>G</title>
<polygon fill="white" stroke="none" points="-4,4 -4,-863 1090,-863 1090,4 -4,4"/>
<text text-anchor="middle" x="543" y="-843.8" font-family="Times,serif" font-size="14.00">ShipReq System Diagram</text>
<text text-anchor="middle" x="543" y="-828.8" font-family="Times,serif" font-size="14.00">(arrows denote a component&#39;s knowledge of another)</text>
<g id="clust1" class="cluster"><title>cluster_gandi</title>
<polygon fill="#ccddcc" stroke="black" points="441,-157 441,-382 745,-382 745,-157 441,-157"/>
<text text-anchor="middle" x="593" y="-366.8" font-family="Times,serif" font-size="14.00">gandi.net</text>
</g>
<g id="clust2" class="cluster"><title>cluster_aws</title>
<polygon fill="#ccddcc" stroke="black" points="8,-307 8,-813 243,-813 243,-307 8,-307"/>
<text text-anchor="middle" x="125.5" y="-797.8" font-family="Times,serif" font-size="14.00">Amazon Web Services</text>
</g>
<g id="clust4" class="cluster"><title>cluster_mc</title>
<polygon fill="#ccddcc" stroke="black" points="251,-307 251,-382 433,-382 433,-307 251,-307"/>
<text text-anchor="middle" x="342" y="-366.8" font-family="Times,serif" font-size="14.00">MailChimp</text>
</g>
<g id="clust5" class="cluster"><title>cluster_fd</title>
<polygon fill="#ccddcc" stroke="black" points="808,-158 808,-233 1000,-233 1000,-158 808,-158"/>
<text text-anchor="middle" x="904" y="-217.8" font-family="Times,serif" font-size="14.00">Freshdesk</text>
</g>
<g id="clust6" class="cluster"><title>cluster_crm</title>
<polygon fill="#ccddcc" stroke="black" points="294,-8 294,-83 486,-83 486,-8 294,-8"/>
<text text-anchor="middle" x="390" y="-67.8" font-family="Times,serif" font-size="14.00">Insightly</text>
</g>
<!-- gmail -->
<g id="node1" class="node"><title>gmail</title>
<polygon fill="#aabbff" stroke="black" points="1086,-203 1083,-207 1062,-207 1059,-203 1010,-203 1010,-165 1086,-165 1086,-203"/>
<text text-anchor="middle" x="1048" y="-187.8" font-family="Times,serif" font-size="14.00">shipreq@</text>
<text text-anchor="middle" x="1048" y="-172.8" font-family="Times,serif" font-size="14.00">gmail.com</text>
</g>
<!-- gandi_dns -->
<g id="node2" class="node"><title>gandi_dns</title>
<ellipse fill="#55cc55" stroke="black" cx="702" cy="-333" rx="28.3955" ry="18"/>
<text text-anchor="middle" x="702" y="-329.3" font-family="Times,serif" font-size="14.00">DNS</text>
</g>
<!-- aws_r53 -->
<g id="node7" class="node"><title>aws_r53</title>
<ellipse fill="#55cc55" stroke="black" cx="113" cy="-764" rx="42.3456" ry="18"/>
<text text-anchor="middle" x="113" y="-760.3" font-family="Times,serif" font-size="14.00">Route 53</text>
</g>
<!-- gandi_dns&#45;&gt;aws_r53 -->
<g id="edge1" class="edge"><title>gandi_dns&#45;&gt;aws_r53</title>
<path fill="none" stroke="black" d="M692.708,-350.02C684.898,-365.013 675,-388.296 675,-410 675,-701 675,-701 675,-701 675,-751.935 305.575,-761.032 165.759,-762.652"/>
<polygon fill="black" stroke="black" points="165.664,-759.152 155.703,-762.76 165.74,-766.152 165.664,-759.152"/>
<text text-anchor="middle" x="717.5" y="-568.3" font-family="Times,serif" font-size="14.00">Delegates DNS</text>
</g>
<!-- gandi_mx -->
<g id="node3" class="node"><title>gandi_mx</title>
<ellipse fill="#55cc55" stroke="black" cx="611" cy="-333" rx="44.2946" ry="18"/>
<text text-anchor="middle" x="611" y="-329.3" font-family="Times,serif" font-size="14.00">Mail fwd</text>
</g>
<!-- gandi_mx&#45;&gt;gmail -->
<g id="edge19" class="edge"><title>gandi_mx&#45;&gt;gmail</title>
<path fill="none" stroke="black" d="M635.891,-317.94C644.532,-313.694 654.453,-309.499 664,-307 724.347,-291.203 742.151,-305.127 804,-297 850.668,-290.868 863.173,-291.353 908,-277 952.699,-262.688 966.056,-260.625 1004,-233 1012.64,-226.712 1020.89,-218.526 1027.87,-210.699"/>
<polygon fill="black" stroke="black" points="1030.55,-212.951 1034.39,-203.077 1025.23,-208.4 1030.55,-212.951"/>
<text text-anchor="middle" x="967.5" y="-265.3" font-family="Times,serif" font-size="14.00">Fwd</text>
</g>
<!-- ea_contact -->
<g id="node4" class="node"><title>ea_contact</title>
<polygon fill="#aabbff" stroke="black" points="736.5,-203 733.5,-207 712.5,-207 709.5,-203 653.5,-203 653.5,-165 736.5,-165 736.5,-203"/>
<text text-anchor="middle" x="695" y="-187.8" font-family="Times,serif" font-size="14.00">contact@</text>
<text text-anchor="middle" x="695" y="-172.8" font-family="Times,serif" font-size="14.00">shipreq.com</text>
</g>
<!-- gandi_mx&#45;&gt;ea_contact -->
<g id="edge16" class="edge"><title>gandi_mx&#45;&gt;ea_contact</title>
<path fill="none" stroke="black" d="M620.636,-315.137C635.086,-289.85 662.504,-241.868 679.707,-211.763"/>
<polygon fill="black" stroke="black" points="682.769,-213.458 684.692,-203.039 676.692,-209.985 682.769,-213.458"/>
<text text-anchor="middle" x="666" y="-265.3" font-family="Times,serif" font-size="14.00">Catch</text>
</g>
<!-- ea_news -->
<g id="node5" class="node"><title>ea_news</title>
<polygon fill="#aabbff" stroke="black" points="634.5,-203 631.5,-207 610.5,-207 607.5,-203 551.5,-203 551.5,-165 634.5,-165 634.5,-203"/>
<text text-anchor="middle" x="593" y="-187.8" font-family="Times,serif" font-size="14.00">news@</text>
<text text-anchor="middle" x="593" y="-172.8" font-family="Times,serif" font-size="14.00">shipreq.com</text>
</g>
<!-- gandi_mx&#45;&gt;ea_news -->
<g id="edge17" class="edge"><title>gandi_mx&#45;&gt;ea_news</title>
<path fill="none" stroke="black" d="M608.9,-314.85C605.86,-290.027 600.197,-243.775 596.514,-213.701"/>
<polygon fill="black" stroke="black" points="599.945,-212.923 595.256,-203.422 592.997,-213.774 599.945,-212.923"/>
<text text-anchor="middle" x="620" y="-265.3" font-family="Times,serif" font-size="14.00">Catch</text>
</g>
<!-- ea_notice -->
<g id="node6" class="node"><title>ea_notice</title>
<polygon fill="#aabbff" stroke="black" points="532.5,-203 529.5,-207 508.5,-207 505.5,-203 449.5,-203 449.5,-165 532.5,-165 532.5,-203"/>
<text text-anchor="middle" x="491" y="-187.8" font-family="Times,serif" font-size="14.00">notice@</text>
<text text-anchor="middle" x="491" y="-172.8" font-family="Times,serif" font-size="14.00">shipreq.com</text>
</g>
<!-- gandi_mx&#45;&gt;ea_notice -->
<g id="edge18" class="edge"><title>gandi_mx&#45;&gt;ea_notice</title>
<path fill="none" stroke="black" d="M597.603,-315.641C588.65,-304.706 576.613,-289.996 566,-277 547.914,-254.855 527.401,-229.689 512.405,-211.282"/>
<polygon fill="black" stroke="black" points="514.961,-208.878 505.932,-203.336 509.534,-213.3 514.961,-208.878"/>
<text text-anchor="middle" x="582" y="-265.3" font-family="Times,serif" font-size="14.00">Catch</text>
</g>
<!-- fd_mail -->
<g id="node15" class="node"><title>fd_mail</title>
<polygon fill="#aabbff" stroke="black" points="991.25,-202 988.25,-206 967.25,-206 964.25,-202 928.75,-202 928.75,-166 991.25,-166 991.25,-202"/>
<text text-anchor="middle" x="960" y="-180.3" font-family="Times,serif" font-size="14.00">Mailbox</text>
</g>
<!-- gandi_mx&#45;&gt;fd_mail -->
<g id="edge20" class="edge"><title>gandi_mx&#45;&gt;fd_mail</title>
<path fill="none" stroke="black" d="M635.905,-317.994C644.547,-313.752 654.466,-309.546 664,-307 716.99,-292.85 734.086,-311.433 787,-297 849.901,-279.843 867.401,-272.854 919,-233 927.369,-226.536 935.253,-218.126 941.83,-210.156"/>
<polygon fill="black" stroke="black" points="944.732,-212.128 948.175,-202.108 939.235,-207.794 944.732,-212.128"/>
<text text-anchor="middle" x="891.5" y="-265.3" font-family="Times,serif" font-size="14.00">Fwd</text>
</g>
<!-- crm_mail -->
<g id="node17" class="node"><title>crm_mail</title>
<polygon fill="#aabbff" stroke="black" points="477.25,-52 474.25,-56 453.25,-56 450.25,-52 414.75,-52 414.75,-16 477.25,-16 477.25,-52"/>
<text text-anchor="middle" x="446" y="-30.3" font-family="Times,serif" font-size="14.00">Mailbox</text>
</g>
<!-- gandi_mx&#45;&gt;crm_mail -->
<g id="edge21" class="edge"><title>gandi_mx&#45;&gt;crm_mail</title>
<path fill="none" stroke="black" d="M637.973,-318.553C646.238,-314.63 655.416,-310.468 664,-307 711.434,-287.834 773,-321.159 773,-270 773,-270 773,-270 773,-118 773,-59.747 575.577,-41.9095 487.529,-36.851"/>
<polygon fill="black" stroke="black" points="487.53,-33.3459 477.354,-36.2956 487.148,-40.3355 487.53,-33.3459"/>
<text text-anchor="middle" x="785.5" y="-180.3" font-family="Times,serif" font-size="14.00">Fwd</text>
</g>
<!-- aws_r53&#45;&gt;gandi_mx -->
<g id="edge15" class="edge"><title>aws_r53&#45;&gt;gandi_mx</title>
<path fill="none" stroke="black" d="M155.194,-761.154C261.7,-755.933 533,-738.913 533,-701 533,-701 533,-701 533,-410 533,-384.966 553.866,-365.497 574.013,-352.534"/>
<polygon fill="black" stroke="black" points="576.085,-355.371 582.84,-347.209 572.47,-349.377 576.085,-355.371"/>
<text text-anchor="middle" x="560" y="-568.3" font-family="Times,serif" font-size="14.00">DNS:MX</text>
</g>
<!-- aws_r53&#45;&gt;aws_r53 -->
<g id="edge2" class="edge"><title>aws_r53&#45;&gt;aws_r53</title>
<path fill="none" stroke="black" d="M162.82,-769.851C168.966,-768.809 173,-766.858 173,-764 173,-759.746 164.064,-757.503 152.527,-757.27"/>
<polygon fill="black" stroke="black" points="162.193,-766.392 152.527,-770.73 162.789,-773.367 162.193,-766.392"/>
<text text-anchor="middle" x="203.5" y="-760.3" font-family="Times,serif" font-size="14.00">DNS:www</text>
</g>
<!-- aws_ec2 -->
<g id="node8" class="node"><title>aws_ec2</title>
<ellipse fill="#55cc55" stroke="black" cx="113" cy="-636" rx="27" ry="18"/>
<text text-anchor="middle" x="113" y="-632.3" font-family="Times,serif" font-size="14.00">EC2</text>
</g>
<!-- aws_r53&#45;&gt;aws_ec2 -->
<g id="edge3" class="edge"><title>aws_r53&#45;&gt;aws_ec2</title>
<path fill="none" stroke="black" d="M113,-745.744C113,-724.726 113,-688.969 113,-664.225"/>
<polygon fill="black" stroke="black" points="116.5,-664.047 113,-654.047 109.5,-664.047 116.5,-664.047"/>
<text text-anchor="middle" x="146.5" y="-696.3" font-family="Times,serif" font-size="14.00">DNS:APEX</text>
</g>
<!-- wb -->
<g id="node11" class="node"><title>wb</title>
<ellipse fill="pink" stroke="black" cx="197" cy="-488" rx="38.0212" ry="18"/>
<text text-anchor="middle" x="197" y="-484.3" font-family="Times,serif" font-size="14.00">webapp</text>
</g>
<!-- aws_ec2&#45;&gt;wb -->
<g id="edge4" class="edge"><title>aws_ec2&#45;&gt;wb</title>
<path fill="none" stroke="black" stroke-dasharray="1,5" d="M126.365,-611.771C143.388,-582.182 172.394,-531.767 187.39,-505.704"/>
<ellipse fill="black" stroke="black" cx="124.305" cy="-615.35" rx="4.00002" ry="4.00002"/>
</g>
<!-- mc2crm -->
<g id="node12" class="node"><title>mc2crm</title>
<ellipse fill="pink" stroke="black" cx="78" cy="-488" rx="62.3385" ry="37.4533"/>
<text text-anchor="middle" x="78" y="-499.3" font-family="Times,serif" font-size="14.00">Custom tool:</text>
<text text-anchor="middle" x="78" y="-484.3" font-family="Times,serif" font-size="14.00">MailChimp</text>
<text text-anchor="middle" x="78" y="-469.3" font-family="Times,serif" font-size="14.00">to Insightly</text>
</g>
<!-- aws_ec2&#45;&gt;mc2crm -->
<g id="edge7" class="edge"><title>aws_ec2&#45;&gt;mc2crm</title>
<path fill="none" stroke="black" stroke-dasharray="1,5" d="M106.99,-609.931C101.392,-586.576 92.9812,-551.493 86.6589,-525.12"/>
<ellipse fill="black" stroke="black" cx="107.984" cy="-614.076" rx="4.00001" ry="4.00001"/>
</g>
<!-- aws_rds -->
<g id="node9" class="node"><title>aws_rds</title>
<ellipse fill="#55cc55" stroke="black" cx="207" cy="-333" rx="27.4223" ry="18"/>
<text text-anchor="middle" x="207" y="-329.3" font-family="Times,serif" font-size="14.00">RDS</text>
</g>
<!-- aws_ses -->
<g id="node10" class="node"><title>aws_ses</title>
<ellipse fill="#55cc55" stroke="black" cx="134" cy="-333" rx="27" ry="18"/>
<text text-anchor="middle" x="134" y="-329.3" font-family="Times,serif" font-size="14.00">SES</text>
</g>
<!-- wb&#45;&gt;ea_contact -->
<g id="edge22" class="edge"><title>wb&#45;&gt;ea_contact</title>
<path fill="none" stroke="black" stroke-dasharray="5,2" d="M234.535,-484.505C309.152,-478.513 469,-460.066 469,-412 469,-412 469,-412 469,-268 469,-228.559 607.871,-250.931 643,-233 654.003,-227.384 664.384,-218.775 672.935,-210.39"/>
<polygon fill="black" stroke="black" points="675.497,-212.775 679.948,-203.16 670.473,-207.901 675.497,-212.775"/>
</g>
<!-- wb&#45;&gt;aws_rds -->
<g id="edge6" class="edge"><title>wb&#45;&gt;aws_rds</title>
<path fill="none" stroke="black" d="M198.128,-469.746C199.846,-443.461 203.135,-393.13 205.19,-361.688"/>
<polygon fill="black" stroke="black" points="208.701,-361.632 205.861,-351.425 201.716,-361.176 208.701,-361.632"/>
</g>
<!-- wb&#45;&gt;aws_ses -->
<g id="edge5" class="edge"><title>wb&#45;&gt;aws_ses</title>
<path fill="none" stroke="black" d="M190.017,-470.042C179.032,-443.364 157.636,-391.403 144.701,-359.988"/>
<polygon fill="black" stroke="black" points="147.867,-358.483 140.823,-350.569 141.394,-361.149 147.867,-358.483"/>
</g>
<!-- mc_api -->
<g id="node13" class="node"><title>mc_api</title>
<ellipse fill="#55cc55" stroke="black" cx="398" cy="-333" rx="27" ry="18"/>
<text text-anchor="middle" x="398" y="-329.3" font-family="Times,serif" font-size="14.00">API</text>
</g>
<!-- wb&#45;&gt;mc_api -->
<g id="edge12" class="edge"><title>wb&#45;&gt;mc_api</title>
<path fill="none" stroke="black" d="M222.423,-474.543C256.607,-457.006 318.153,-422.603 362,-382 369.521,-375.035 376.579,-366.332 382.42,-358.257"/>
<polygon fill="black" stroke="black" points="385.425,-360.065 388.243,-349.852 379.671,-356.079 385.425,-360.065"/>
<text text-anchor="middle" x="270.423" y="-463.343" font-family="Times,serif" font-size="14.00">Push contact data</text>
</g>
<!-- wb&#45;&gt;crm_mail -->
<g id="edge23" class="edge"><title>wb&#45;&gt;crm_mail</title>
<path fill="none" stroke="black" stroke-dasharray="5,2" d="M178.813,-471.88C170.044,-464.879 159.229,-456.658 149,-450 119.332,-430.688 79,-447.4 79,-412 79,-412 79,-412 79,-118 79,-45.1392 340.556,-116.995 405,-83 414.887,-77.7842 423.405,-69.1047 430.074,-60.5495"/>
<polygon fill="black" stroke="black" points="433.106,-62.3289 436.109,-52.1688 427.425,-58.2381 433.106,-62.3289"/>
<text text-anchor="middle" x="164.813" y="-460.68" font-family="Times,serif" font-size="14.00">BCC</text>
</g>
<!-- mc2crm&#45;&gt;aws_rds -->
<g id="edge9" class="edge"><title>mc2crm&#45;&gt;aws_rds</title>
<path fill="none" stroke="black" d="M107.129,-454.819C125.496,-434.268 149.529,-406.9 170,-382 176.379,-374.241 183.146,-365.593 189.125,-357.799"/>
<polygon fill="black" stroke="black" points="191.973,-359.835 195.247,-349.759 186.404,-355.595 191.973,-359.835"/>
</g>
<!-- mc2crm&#45;&gt;aws_ses -->
<g id="edge8" class="edge"><title>mc2crm&#45;&gt;aws_ses</title>
<path fill="none" stroke="black" d="M91.1295,-451.128C101.301,-423.337 115.162,-385.468 124.336,-360.404"/>
<polygon fill="black" stroke="black" points="127.688,-361.427 127.839,-350.833 121.115,-359.021 127.688,-361.427"/>
</g>
<!-- mc2crm&#45;&gt;mc_api -->
<g id="edge10" class="edge"><title>mc2crm&#45;&gt;mc_api</title>
<path fill="none" stroke="black" d="M123.56,-462.167C132.222,-457.853 141.3,-453.602 150,-450 172.856,-440.537 341.85,-396.35 362,-382 370.564,-375.901 377.972,-367.149 383.803,-358.785"/>
<polygon fill="black" stroke="black" points="386.779,-360.628 389.292,-350.336 380.909,-356.815 386.779,-360.628"/>
</g>
<!-- mc2crm&#45;&gt;crm_mail -->
<g id="edge11" class="edge"><title>mc2crm&#45;&gt;crm_mail</title>
<path fill="none" stroke="black" stroke-dasharray="5,2" d="M53.3205,-453.193C46.5334,-440.847 41,-426.374 41,-412 41,-412 41,-412 41,-118 41,-89.9683 70.7336,-97.5055 98,-91 131.191,-83.0809 374.2,-97.6875 405,-83 415.345,-78.0667 424.08,-69.1538 430.794,-60.336"/>
<polygon fill="black" stroke="black" points="433.731,-62.2433 436.599,-52.0439 427.997,-58.2291 433.731,-62.2433"/>
</g>
<!-- mc_web -->
<g id="node14" class="node"><title>mc_web</title>
<polygon fill="#55cc55" stroke="black" points="353,-351 271,-351 271,-355 259,-355 259,-315 353,-315 353,-351"/>
<polyline fill="none" stroke="black" points="259,-351 271,-351 "/>
<text text-anchor="middle" x="306" y="-329.3" font-family="Times,serif" font-size="14.00">Web interface</text>
</g>
<!-- mc_web&#45;&gt;ea_news -->
<g id="edge13" class="edge"><title>mc_web&#45;&gt;ea_news</title>
<path fill="none" stroke="black" stroke-dasharray="5,2" d="M330.753,-314.974C365.964,-291.092 429.109,-249.595 455,-241 491.432,-228.906 505.935,-248.621 541,-233 552.458,-227.896 563.047,-219.229 571.638,-210.652"/>
<polygon fill="black" stroke="black" points="574.325,-212.904 578.645,-203.23 569.235,-208.099 574.325,-212.904"/>
</g>
<!-- mc_web&#45;&gt;ea_notice -->
<g id="edge14" class="edge"><title>mc_web&#45;&gt;ea_notice</title>
<path fill="none" stroke="black" stroke-dasharray="5,2" d="M320.239,-314.88C336.891,-295.504 365.898,-263.693 395,-241 410.663,-228.786 429.251,-217.341 445.88,-208.02"/>
<polygon fill="black" stroke="black" points="447.809,-210.954 454.886,-203.069 444.437,-204.82 447.809,-210.954"/>
</g>
<!-- fd_web -->
<g id="node16" class="node"><title>fd_web</title>
<polygon fill="#55cc55" stroke="black" points="910,-202 828,-202 828,-206 816,-206 816,-166 910,-166 910,-202"/>
<polyline fill="none" stroke="black" points="816,-202 828,-202 "/>
<text text-anchor="middle" x="863" y="-180.3" font-family="Times,serif" font-size="14.00">Web interface</text>
</g>
<!-- fd_web&#45;&gt;crm_mail -->
<g id="edge24" class="edge"><title>fd_web&#45;&gt;crm_mail</title>
<path fill="none" stroke="black" stroke-dasharray="5,2" d="M854.013,-165.89C841.858,-144.594 818.076,-108.857 787,-91 736.533,-61.9998 566.664,-44.7894 487.39,-38.1571"/>
<polygon fill="black" stroke="black" points="487.532,-34.6571 477.28,-37.3276 486.96,-41.6336 487.532,-34.6571"/>
<text text-anchor="middle" x="856.5" y="-115.3" font-family="Times,serif" font-size="14.00">Auto&#45;BCC</text>
</g>
<!-- crm_web -->
<g id="node18" class="node"><title>crm_web</title>
<polygon fill="#55cc55" stroke="black" points="396,-52 314,-52 314,-56 302,-56 302,-16 396,-16 396,-52"/>
<polyline fill="none" stroke="black" points="302,-52 314,-52 "/>
<text text-anchor="middle" x="349" y="-30.3" font-family="Times,serif" font-size="14.00">Web interface</text>
</g>
</g>
</svg>
