<?xml version="1.0" encoding="UTF-8" standalone="no"?>
<!DOCTYPE svg PUBLIC "-//W3C//DTD SVG 1.1//EN"
 "http://www.w3.org/Graphics/SVG/1.1/DTD/svg11.dtd">
<!-- Generated by graphviz version 2.36.0 (20140111.2315)
 -->
<!-- Title: G Pages: 1 -->
<svg width="828pt" height="645pt"
 viewBox="0.00 0.00 828.16 645.00" xmlns="http://www.w3.org/2000/svg" xmlns:xlink="http://www.w3.org/1999/xlink">
<g id="graph0" class="graph" transform="scale(1 1) rotate(0) translate(4 641)">
<title>G</title>
<polygon fill="white" stroke="none" points="-4,4 -4,-641 824.161,-641 824.161,4 -4,4"/>
<text text-anchor="middle" x="410.08" y="-621.8" font-family="Times,serif" font-size="14.00">ShipReq System Diagram</text>
<text text-anchor="middle" x="410.08" y="-606.8" font-family="Times,serif" font-size="14.00">(arrows denote flow of data from one component to another)</text>
<text text-anchor="middle" x="410.08" y="-591.8" font-family="Times,serif" font-size="14.00">(ignores which component instigates the data transfer)</text>
<text text-anchor="middle" x="410.08" y="-576.8" font-family="Times,serif" font-size="14.00">(red = email from user, blue = email to user)</text>
<g id="clust1" class="cluster"><title>cluster_usr</title>
<polygon fill="#eeeeaa" stroke="black" points="563.896,-163 563.896,-314 665.896,-314 665.896,-163 563.896,-163"/>
<text text-anchor="middle" x="614.896" y="-298.8" font-family="Times,serif" font-size="14.00">Userland</text>
</g>
<g id="clust2" class="cluster"><title>cluster_gandi</title>
<polygon fill="#e8e8e8" stroke="black" points="183.896,-237 183.896,-406 487.896,-406 487.896,-237 183.896,-237"/>
<text text-anchor="middle" x="335.896" y="-390.8" font-family="Times,serif" font-size="14.00">gandi.net</text>
</g>
<g id="clust3" class="cluster"><title>cluster_aws</title>
<polygon fill="#e8e8e8" stroke="black" points="530.896,-322 530.896,-561 673.896,-561 673.896,-322 530.896,-322"/>
<text text-anchor="middle" x="602.396" y="-545.8" font-family="Times,serif" font-size="14.00">Amazon Web Services</text>
</g>
<g id="clust5" class="cluster"><title>cluster_mc</title>
<polygon fill="#e8e8e8" stroke="black" points="673.896,-164 673.896,-313 783.896,-313 783.896,-164 673.896,-164"/>
<text text-anchor="middle" x="728.896" y="-297.8" font-family="Times,serif" font-size="14.00">MailChimp</text>
</g>
<g id="clust6" class="cluster"><title>cluster_fd</title>
<polygon fill="#e8e8e8" stroke="black" points="35.8959,-164 35.8959,-313 145.896,-313 145.896,-164 35.8959,-164"/>
<text text-anchor="middle" x="90.8959" y="-297.8" font-family="Times,serif" font-size="14.00">Freshdesk</text>
</g>
<g id="clust7" class="cluster"><title>cluster_crm</title>
<polygon fill="#e8e8e8" stroke="black" points="276.896,-8 276.896,-155 428.896,-155 428.896,-8 276.896,-8"/>
<text text-anchor="middle" x="352.896" y="-139.8" font-family="Times,serif" font-size="14.00">Insightly</text>
</g>
<!-- gmail -->
<g id="node1" class="node"><title>gmail</title>
<polygon fill="#aabbff" stroke="black" points="273.896,-458 270.896,-462 249.896,-462 246.896,-458 197.896,-458 197.896,-420 273.896,-420 273.896,-458"/>
<text text-anchor="middle" x="235.896" y="-442.8" font-family="Times,serif" font-size="14.00">shipreq@</text>
<text text-anchor="middle" x="235.896" y="-427.8" font-family="Times,serif" font-size="14.00">gmail.com</text>
</g>
<!-- gandi_mx -->
<g id="node4" class="node"><title>gandi_mx</title>
<ellipse fill="#55cc55" stroke="black" cx="235.896" cy="-357" rx="44.2946" ry="18"/>
<text text-anchor="middle" x="235.896" y="-353.3" font-family="Times,serif" font-size="14.00">Mail fwd</text>
</g>
<!-- gmail&#45;&gt;gandi_mx -->
<g id="edge14" class="edge"><title>gmail&#45;&gt;gandi_mx</title>
<path fill="none" stroke="red" d="M235.896,-409.796C235.896,-398.279 235.896,-385.329 235.896,-375.259"/>
<polygon fill="red" stroke="red" points="232.396,-409.847 235.896,-419.847 239.396,-409.847 232.396,-409.847"/>
</g>
<!-- usr_web -->
<g id="node2" class="node"><title>usr_web</title>
<polygon fill="#ccaa66" stroke="black" points="657.896,-209 583.896,-209 583.896,-213 571.896,-213 571.896,-171 657.896,-171 657.896,-209"/>
<polyline fill="none" stroke="black" points="571.896,-209 583.896,-209 "/>
<text text-anchor="middle" x="614.896" y="-193.8" font-family="Times,serif" font-size="14.00">User&#39;s</text>
<text text-anchor="middle" x="614.896" y="-178.8" font-family="Times,serif" font-size="14.00">web browser</text>
</g>
<!-- wb -->
<g id="node9" class="node"><title>wb</title>
<ellipse fill="pink" stroke="black" cx="589.896" cy="-512" rx="38.0212" ry="18"/>
<text text-anchor="middle" x="589.896" y="-508.3" font-family="Times,serif" font-size="14.00">webapp</text>
</g>
<!-- usr_web&#45;&gt;wb -->
<g id="edge19" class="edge"><title>usr_web&#45;&gt;wb</title>
<path fill="none" stroke="red" d="M571.55,-192.359C466.65,-196.093 205.802,-208.209 179.896,-237 147.581,-272.912 166.4,-436.386 188.896,-458 238.375,-505.54 445.991,-511.384 541.475,-511.487"/>
<polygon fill="red" stroke="red" points="541.73,-514.987 551.727,-511.477 541.723,-507.987 541.73,-514.987"/>
</g>
<!-- usr_mail -->
<g id="node3" class="node"><title>usr_mail</title>
<polygon fill="#ccaaaa" stroke="black" points="634.896,-283 631.896,-287 610.896,-287 607.896,-283 580.896,-283 580.896,-245 634.896,-245 634.896,-283"/>
<text text-anchor="middle" x="607.896" y="-267.8" font-family="Times,serif" font-size="14.00">User&#39;s</text>
<text text-anchor="middle" x="607.896" y="-252.8" font-family="Times,serif" font-size="14.00">email</text>
</g>
<!-- usr_mail&#45;&gt;usr_web -->
<g id="edge18" class="edge"><title>usr_mail&#45;&gt;usr_web</title>
<path fill="none" stroke="red" d="M604.044,-234.573C604.562,-226.108 605.655,-217.059 607.13,-209.413"/>
<polygon fill="red" stroke="red" points="600.538,-234.723 603.71,-244.831 607.534,-234.951 600.538,-234.723"/>
</g>
<!-- usr_mail&#45;&gt;usr_web -->
<g id="edge27" class="edge"><title>usr_mail&#45;&gt;usr_web</title>
<path fill="none" stroke="#000099" d="M615.615,-244.831C617.114,-237.131 618.225,-227.974 618.748,-219.417"/>
<polygon fill="#000099" stroke="#000099" points="622.247,-219.524 619.082,-209.413 615.25,-219.291 622.247,-219.524"/>
</g>
<!-- ea_contact -->
<g id="node5" class="node"><title>ea_contact</title>
<polygon fill="#aabbff" stroke="black" points="479.396,-283 476.396,-287 455.396,-287 452.396,-283 396.396,-283 396.396,-245 479.396,-245 479.396,-283"/>
<text text-anchor="middle" x="437.896" y="-267.8" font-family="Times,serif" font-size="14.00">contact@</text>
<text text-anchor="middle" x="437.896" y="-252.8" font-family="Times,serif" font-size="14.00">shipreq.com</text>
</g>
<!-- usr_mail&#45;&gt;ea_contact -->
<g id="edge8" class="edge"><title>usr_mail&#45;&gt;ea_contact</title>
<path fill="none" stroke="red" d="M580.791,-264C550.427,-264 520.062,-264 489.697,-264"/>
<polygon fill="red" stroke="red" points="489.4,-260.5 479.4,-264 489.4,-267.5 489.4,-260.5"/>
</g>
<!-- gandi_mx&#45;&gt;ea_contact -->
<g id="edge9" class="edge"><title>gandi_mx&#45;&gt;ea_contact</title>
<path fill="none" stroke="red" d="M286.704,-348.101C316.925,-341.901 355.224,-331.332 385.896,-314 399.935,-306.067 413.125,-293.555 422.708,-283.16"/>
<polygon fill="red" stroke="red" points="285.93,-344.686 276.788,-350.04 287.273,-351.556 285.93,-344.686"/>
</g>
<!-- ea_news -->
<g id="node6" class="node"><title>ea_news</title>
<polygon fill="#aabbff" stroke="black" points="275.396,-283 272.396,-287 251.396,-287 248.396,-283 192.396,-283 192.396,-245 275.396,-245 275.396,-283"/>
<text text-anchor="middle" x="233.896" y="-267.8" font-family="Times,serif" font-size="14.00">news@</text>
<text text-anchor="middle" x="233.896" y="-252.8" font-family="Times,serif" font-size="14.00">shipreq.com</text>
</g>
<!-- gandi_mx&#45;&gt;ea_news -->
<g id="edge10" class="edge"><title>gandi_mx&#45;&gt;ea_news</title>
<path fill="none" stroke="red" d="M235.299,-328.827C234.975,-314.119 234.585,-296.342 234.298,-283.289"/>
<polygon fill="red" stroke="red" points="231.801,-328.963 235.52,-338.884 238.799,-328.809 231.801,-328.963"/>
</g>
<!-- ea_notice -->
<g id="node7" class="node"><title>ea_notice</title>
<polygon fill="#aabbff" stroke="black" points="377.396,-283 374.396,-287 353.396,-287 350.396,-283 294.396,-283 294.396,-245 377.396,-245 377.396,-283"/>
<text text-anchor="middle" x="335.896" y="-267.8" font-family="Times,serif" font-size="14.00">notice@</text>
<text text-anchor="middle" x="335.896" y="-252.8" font-family="Times,serif" font-size="14.00">shipreq.com</text>
</g>
<!-- gandi_mx&#45;&gt;ea_notice -->
<g id="edge11" class="edge"><title>gandi_mx&#45;&gt;ea_notice</title>
<path fill="none" stroke="red" d="M262.255,-333.245C269.329,-327.054 276.943,-320.313 283.896,-314 294.916,-303.993 307.03,-292.601 316.792,-283.321"/>
<polygon fill="red" stroke="red" points="259.51,-330.994 254.27,-340.202 264.109,-336.271 259.51,-330.994"/>
</g>
<!-- fd_mail -->
<g id="node13" class="node"><title>fd_mail</title>
<polygon fill="#aabbff" stroke="black" points="128.146,-282 125.146,-286 104.146,-286 101.146,-282 65.6459,-282 65.6459,-246 128.146,-246 128.146,-282"/>
<text text-anchor="middle" x="96.8959" y="-260.3" font-family="Times,serif" font-size="14.00">Mailbox</text>
</g>
<!-- gandi_mx&#45;&gt;fd_mail -->
<g id="edge12" class="edge"><title>gandi_mx&#45;&gt;fd_mail</title>
<path fill="none" stroke="red" d="M213.563,-341.379C191.458,-326.908 157.301,-304.546 131.647,-287.751"/>
<polygon fill="red" stroke="red" points="133.245,-284.614 122.962,-282.065 129.411,-290.47 133.245,-284.614"/>
</g>
<!-- crm_mail -->
<g id="node15" class="node"><title>crm_mail</title>
<polygon fill="#aabbff" stroke="black" points="348.146,-124 345.146,-128 324.146,-128 321.146,-124 285.646,-124 285.646,-88 348.146,-88 348.146,-124"/>
<text text-anchor="middle" x="316.896" y="-102.3" font-family="Times,serif" font-size="14.00">Mailbox</text>
</g>
<!-- gandi_mx&#45;&gt;crm_mail -->
<g id="edge13" class="edge"><title>gandi_mx&#45;&gt;crm_mail</title>
<path fill="none" stroke="red" d="M192.631,-353.339C138.872,-349.024 51.7716,-338.385 31.8959,-314 -10.505,-261.98 -10.7394,-214.828 31.8959,-163 62.2764,-126.069 204.087,-113.122 275.532,-108.892"/>
<polygon fill="red" stroke="red" points="275.753,-112.385 285.541,-108.33 275.36,-105.397 275.753,-112.385"/>
</g>
<!-- aws_rds -->
<g id="node8" class="node"><title>aws_rds</title>
<ellipse fill="#55cc55" stroke="black" cx="595.896" cy="-439" rx="27.4223" ry="18"/>
<text text-anchor="middle" x="595.896" y="-435.3" font-family="Times,serif" font-size="14.00">RDS</text>
</g>
<!-- worker -->
<g id="node10" class="node"><title>worker</title>
<ellipse fill="pink" stroke="black" cx="602.896" cy="-357" rx="62.3993" ry="26.7407"/>
<text text-anchor="middle" x="602.896" y="-360.8" font-family="Times,serif" font-size="14.00">Backend task</text>
<text text-anchor="middle" x="602.896" y="-345.8" font-family="Times,serif" font-size="14.00">processor</text>
</g>
<!-- aws_rds&#45;&gt;worker -->
<g id="edge21" class="edge"><title>aws_rds&#45;&gt;worker</title>
<path fill="none" stroke="red" d="M591.744,-421.034C591.57,-413.085 592.066,-403.295 593.044,-393.821"/>
<polygon fill="red" stroke="red" points="596.534,-394.12 594.286,-383.767 589.587,-393.262 596.534,-394.12"/>
</g>
<!-- wb&#45;&gt;usr_web -->
<g id="edge7" class="edge"><title>wb&#45;&gt;usr_web</title>
<path fill="none" stroke="black" d="M574.886,-485.755C569.748,-477.005 564.009,-467.106 558.896,-458 546.045,-435.112 537.313,-431.452 530.896,-406 521.769,-369.799 522.577,-358.395 530.896,-322 540.242,-281.112 548.194,-271.604 571.896,-237 576.674,-230.024 582.49,-223.065 588.28,-216.749"/>
<polygon fill="black" stroke="black" points="571.876,-487.542 579.971,-494.378 577.906,-483.986 571.876,-487.542"/>
<polygon fill="black" stroke="black" points="591.164,-218.796 595.522,-209.139 586.092,-213.971 591.164,-218.796"/>
</g>
<!-- wb&#45;&gt;aws_rds -->
<g id="edge1" class="edge"><title>wb&#45;&gt;aws_rds</title>
<path fill="none" stroke="black" d="M585.62,-483.598C585.869,-478.035 586.373,-472.192 587.083,-466.655"/>
<polygon fill="black" stroke="black" points="582.117,-483.763 585.47,-493.813 589.117,-483.865 582.117,-483.763"/>
<polygon fill="black" stroke="black" points="590.578,-466.965 588.689,-456.54 583.664,-465.867 590.578,-466.965"/>
</g>
<!-- wb&#45;&gt;aws_rds -->
<g id="edge20" class="edge"><title>wb&#45;&gt;aws_rds</title>
<path fill="none" stroke="red" d="M597.158,-494.174C598.698,-486.157 599.775,-476.364 600.175,-467.32"/>
<polygon fill="red" stroke="red" points="603.677,-467.248 600.322,-457.198 596.677,-467.147 603.677,-467.248"/>
</g>
<!-- worker&#45;&gt;usr_mail -->
<g id="edge23" class="edge"><title>worker&#45;&gt;usr_mail</title>
<path fill="none" stroke="#000099" d="M604.342,-329.679C604.969,-318.265 605.705,-304.881 606.343,-293.258"/>
<polygon fill="#000099" stroke="#000099" points="609.843,-293.363 606.897,-283.186 602.853,-292.979 609.843,-293.363"/>
</g>
<!-- worker&#45;&gt;ea_contact -->
<g id="edge15" class="edge"><title>worker&#45;&gt;ea_contact</title>
<path fill="none" stroke="red" d="M565.455,-335.351C539.939,-321.278 506.127,-302.631 479.726,-288.07"/>
<polygon fill="red" stroke="red" points="481.17,-284.869 470.723,-283.104 477.789,-290.999 481.17,-284.869"/>
</g>
<!-- worker&#45;&gt;aws_rds -->
<g id="edge2" class="edge"><title>worker&#45;&gt;aws_rds</title>
<path fill="none" stroke="black" d="M606.454,-394.167C606.032,-399.936 605.413,-405.812 604.638,-411.309"/>
<polygon fill="black" stroke="black" points="609.958,-394.175 606.989,-384.005 602.968,-393.807 609.958,-394.175"/>
<polygon fill="black" stroke="black" points="601.144,-410.982 602.939,-421.424 608.047,-412.142 601.144,-410.982"/>
</g>
<!-- mc_api -->
<g id="node11" class="node"><title>mc_api</title>
<ellipse fill="#55cc55" stroke="black" cx="718.896" cy="-264" rx="27" ry="18"/>
<text text-anchor="middle" x="718.896" y="-260.3" font-family="Times,serif" font-size="14.00">API</text>
</g>
<!-- worker&#45;&gt;mc_api -->
<g id="edge3" class="edge"><title>worker&#45;&gt;mc_api</title>
<path fill="none" stroke="black" d="M633.45,-333.445C642.541,-327.511 652.306,-320.843 660.896,-314 672.033,-305.128 683.346,-293.985 693.181,-284.568"/>
<polygon fill="black" stroke="black" points="695.844,-286.868 700.72,-277.463 691.043,-281.775 695.844,-286.868"/>
</g>
<!-- worker&#45;&gt;mc_api -->
<g id="edge29" class="edge"><title>worker&#45;&gt;mc_api</title>
<path fill="none" stroke="#000099" d="M653.795,-331.643C662.482,-326.176 671.165,-320.159 678.896,-314 691.129,-304.255 703.573,-291.772 711.682,-281.844"/>
<polygon fill="#000099" stroke="#000099" points="651.863,-328.722 645.142,-336.912 655.503,-334.701 651.863,-328.722"/>
</g>
<!-- worker&#45;&gt;crm_mail -->
<g id="edge24" class="edge"><title>worker&#45;&gt;crm_mail</title>
<path fill="none" stroke="#000099" d="M578.027,-332.319C572.006,-326.42 565.649,-320.05 559.896,-314 528.432,-280.915 526.867,-266.352 491.896,-237 438.416,-192.112 411.004,-200.328 357.896,-155 350.06,-148.312 342.451,-140.064 335.958,-132.303"/>
<polygon fill="#000099" stroke="#000099" points="338.398,-129.753 329.393,-124.17 332.951,-134.15 338.398,-129.753"/>
</g>
<!-- crm_api -->
<g id="node17" class="node"><title>crm_api</title>
<ellipse fill="#55cc55" stroke="black" cx="393.896" cy="-106" rx="27" ry="18"/>
<text text-anchor="middle" x="393.896" y="-102.3" font-family="Times,serif" font-size="14.00">API</text>
</g>
<!-- worker&#45;&gt;crm_api -->
<g id="edge4" class="edge"><title>worker&#45;&gt;crm_api</title>
<path fill="none" stroke="black" d="M663.856,-350.289C711.618,-344.405 772.484,-333.304 787.896,-314 829.769,-261.555 831.885,-213.684 787.896,-163 741.876,-109.977 520.598,-105.848 431.341,-106.399"/>
<polygon fill="black" stroke="black" points="431.101,-102.901 421.131,-106.486 431.161,-109.9 431.101,-102.901"/>
</g>
<!-- mc_web -->
<g id="node12" class="node"><title>mc_web</title>
<polygon fill="#55cc55" stroke="black" points="775.896,-208 693.896,-208 693.896,-212 681.896,-212 681.896,-172 775.896,-172 775.896,-208"/>
<polyline fill="none" stroke="black" points="681.896,-208 693.896,-208 "/>
<text text-anchor="middle" x="728.896" y="-186.3" font-family="Times,serif" font-size="14.00">Web interface</text>
</g>
<!-- mc_api&#45;&gt;mc_web -->
<g id="edge6" class="edge"><title>mc_api&#45;&gt;mc_web</title>
<path fill="none" stroke="black" d="M715.426,-245.937C715.695,-237.719 716.847,-227.66 718.513,-218.406"/>
<polygon fill="black" stroke="black" points="721.976,-218.945 720.594,-208.441 715.124,-217.514 721.976,-218.945"/>
</g>
<!-- mc_api&#45;&gt;mc_web -->
<g id="edge30" class="edge"><title>mc_api&#45;&gt;mc_web</title>
<path fill="none" stroke="#000099" d="M729.059,-236.791C730.846,-227.2 732.089,-216.605 732.367,-208.025"/>
<polygon fill="#000099" stroke="#000099" points="725.617,-236.148 726.926,-246.662 732.459,-237.627 725.617,-236.148"/>
</g>
<!-- mc_web&#45;&gt;usr_mail -->
<g id="edge22" class="edge"><title>mc_web&#45;&gt;usr_mail</title>
<path fill="none" stroke="#000099" d="M700.145,-208.108C683.351,-218.101 662.002,-230.805 644.073,-241.473"/>
<polygon fill="#000099" stroke="#000099" points="641.855,-238.72 635.051,-246.842 645.434,-244.736 641.855,-238.72"/>
</g>
<!-- fd_web -->
<g id="node14" class="node"><title>fd_web</title>
<polygon fill="#55cc55" stroke="black" points="137.896,-208 55.8959,-208 55.8959,-212 43.8959,-212 43.8959,-172 137.896,-172 137.896,-208"/>
<polyline fill="none" stroke="black" points="43.8959,-208 55.8959,-208 "/>
<text text-anchor="middle" x="90.8959" y="-186.3" font-family="Times,serif" font-size="14.00">Web interface</text>
</g>
<!-- fd_mail&#45;&gt;fd_web -->
<g id="edge16" class="edge"><title>fd_mail&#45;&gt;fd_web</title>
<path fill="none" stroke="red" d="M95.474,-245.937C94.7965,-237.807 93.9689,-227.876 93.2046,-218.705"/>
<polygon fill="red" stroke="red" points="96.6677,-218.115 92.3493,-208.441 89.6919,-218.697 96.6677,-218.115"/>
</g>
<!-- fd_web&#45;&gt;usr_mail -->
<g id="edge26" class="edge"><title>fd_web&#45;&gt;usr_mail</title>
<path fill="none" stroke="#000099" d="M138.043,-194.773C213.225,-201.155 364.76,-215.522 491.896,-237 518.544,-241.502 548.28,-248.201 570.974,-253.671"/>
<polygon fill="#000099" stroke="#000099" points="570.324,-257.115 580.869,-256.086 571.984,-250.315 570.324,-257.115"/>
</g>
<!-- fd_web&#45;&gt;crm_mail -->
<g id="edge25" class="edge"><title>fd_web&#45;&gt;crm_mail</title>
<path fill="none" stroke="#000099" d="M137.998,-171.91C178.784,-157.112 237.175,-135.925 276.024,-121.829"/>
<polygon fill="#000099" stroke="#000099" points="277.251,-125.108 285.458,-118.407 274.863,-118.527 277.251,-125.108"/>
</g>
<!-- crm_web -->
<g id="node16" class="node"><title>crm_web</title>
<polygon fill="#55cc55" stroke="black" points="378.896,-52 296.896,-52 296.896,-56 284.896,-56 284.896,-16 378.896,-16 378.896,-52"/>
<polyline fill="none" stroke="black" points="284.896,-52 296.896,-52 "/>
<text text-anchor="middle" x="331.896" y="-30.3" font-family="Times,serif" font-size="14.00">Web interface</text>
</g>
<!-- crm_mail&#45;&gt;crm_web -->
<g id="edge17" class="edge"><title>crm_mail&#45;&gt;crm_web</title>
<path fill="none" stroke="red" d="M314.688,-87.6966C315.555,-79.8979 317.344,-70.5085 319.563,-61.8292"/>
<polygon fill="red" stroke="red" points="322.96,-62.6808 322.336,-52.1043 316.228,-60.7614 322.96,-62.6808"/>
</g>
<!-- crm_mail&#45;&gt;crm_web -->
<g id="edge28" class="edge"><title>crm_mail&#45;&gt;crm_web</title>
<path fill="none" stroke="#000099" d="M326.519,-87.6966C328.968,-79.9827 331.181,-70.7125 332.681,-62.1124"/>
<polygon fill="#000099" stroke="#000099" points="336.161,-62.5018 334.126,-52.1043 329.233,-61.5018 336.161,-62.5018"/>
</g>
<!-- crm_api&#45;&gt;crm_web -->
<g id="edge5" class="edge"><title>crm_api&#45;&gt;crm_web</title>
<path fill="none" stroke="black" d="M380.747,-90.1548C372.873,-81.2642 362.667,-69.7416 353.622,-59.529"/>
<polygon fill="black" stroke="black" points="356.239,-57.2053 346.988,-52.04 350.999,-61.8465 356.239,-57.2053"/>
</g>
</g>
</svg>
