<?xml version="1.0" encoding="UTF-8" standalone="no"?>
<!DOCTYPE svg PUBLIC "-//W3C//DTD SVG 1.1//EN"
 "http://www.w3.org/Graphics/SVG/1.1/DTD/svg11.dtd">
<!-- Generated by graphviz version 2.36.0 (20140111.2315)
 -->
<!-- Title: G Pages: 1 -->
<svg width="896pt" height="550pt"
 viewBox="0.00 0.00 896.00 550.00" xmlns="http://www.w3.org/2000/svg" xmlns:xlink="http://www.w3.org/1999/xlink">
<g id="graph0" class="graph" transform="scale(1 1) rotate(0) translate(4 546)">
<title>G</title>
<polygon fill="white" stroke="none" points="-4,4 -4,-546 892,-546 892,4 -4,4"/>
<text text-anchor="middle" x="444" y="-526.8" font-family="Times,serif" font-size="14.00">ShipReq System Diagram</text>
<text text-anchor="middle" x="444" y="-511.8" font-family="Times,serif" font-size="14.00">(arrows denote flow of data from one component to another)</text>
<text text-anchor="middle" x="444" y="-496.8" font-family="Times,serif" font-size="14.00">(ignores which component instigates the data transfer)</text>
<text text-anchor="middle" x="444" y="-481.8" font-family="Times,serif" font-size="14.00">(red = email from user, blue = email to user)</text>
<g id="clust1" class="cluster"><title>cluster_usr</title>
<polygon fill="#eeeeaa" stroke="black" points="582,-8 582,-235 684,-235 684,-8 582,-8"/>
<text text-anchor="middle" x="633" y="-219.8" font-family="Times,serif" font-size="14.00">Userland</text>
</g>
<g id="clust2" class="cluster"><title>cluster_gandi</title>
<polygon fill="#e8e8e8" stroke="black" points="8,-84 8,-235 414,-235 414,-84 8,-84"/>
<text text-anchor="middle" x="211" y="-219.8" font-family="Times,serif" font-size="14.00">gandi.net</text>
</g>
<g id="clust3" class="cluster"><title>cluster_aws</title>
<polygon fill="#e8e8e8" stroke="black" points="533,-245 533,-466 676,-466 676,-245 533,-245"/>
<text text-anchor="middle" x="604.5" y="-450.8" font-family="Times,serif" font-size="14.00">Amazon Web Services</text>
</g>
<g id="clust5" class="cluster"><title>cluster_mc</title>
<polygon fill="#e8e8e8" stroke="black" points="728,-8 728,-234 838,-234 838,-8 728,-8"/>
<text text-anchor="middle" x="783" y="-218.8" font-family="Times,serif" font-size="14.00">MailChimp</text>
</g>
<g id="clust6" class="cluster"><title>cluster_fd</title>
<polygon fill="#e8e8e8" stroke="black" points="422,-8 422,-234 574,-234 574,-8 422,-8"/>
<text text-anchor="middle" x="498" y="-218.8" font-family="Times,serif" font-size="14.00">Freshdesk</text>
</g>
<g id="clust7" class="cluster"><title>cluster_crm</title>
<polygon fill="#e8e8e8" stroke="black" points="728,-243 728,-466 880,-466 880,-243 728,-243"/>
<text text-anchor="middle" x="804" y="-450.8" font-family="Times,serif" font-size="14.00">Insightly</text>
</g>
<!-- gmail -->
<g id="node1" class="node"><title>gmail</title>
<polygon fill="#aabbff" stroke="black" points="408,-55 405,-59 384,-59 381,-55 332,-55 332,-17 408,-17 408,-55"/>
<text text-anchor="middle" x="370" y="-39.8" font-family="Times,serif" font-size="14.00">shipreq@</text>
<text text-anchor="middle" x="370" y="-24.8" font-family="Times,serif" font-size="14.00">gmail.com</text>
</g>
<!-- usr_web -->
<g id="node2" class="node"><title>usr_web</title>
<polygon fill="#ccaa66" stroke="black" points="676,-130 602,-130 602,-134 590,-134 590,-92 676,-92 676,-130"/>
<polyline fill="none" stroke="black" points="590,-130 602,-130 "/>
<text text-anchor="middle" x="633" y="-114.8" font-family="Times,serif" font-size="14.00">User&#39;s</text>
<text text-anchor="middle" x="633" y="-99.8" font-family="Times,serif" font-size="14.00">web browser</text>
</g>
<!-- usr -->
<g id="node4" class="node"><title>usr</title>
<polygon fill="#ccaa66" stroke="black" points="634.5,-42 636,-43.5 636,-46.5 634.5,-48 631.5,-48 630,-46.5 630,-43.5 631.5,-42 634.5,-42"/>
<polyline fill="none" stroke="black" points="633,-42 633,-36 "/>
<polyline fill="none" stroke="black" points="606,-36 660,-36 "/>
<text text-anchor="middle" x="633" y="-24.3" font-family="Times,serif" font-size="14.00">User</text>
</g>
<!-- usr_web&#45;&gt;usr -->
<g id="edge21" class="edge"><title>usr_web&#45;&gt;usr</title>
<path fill="none" stroke="red" d="M626.405,-81.7387C626.07,-72.9716 626.278,-63.5353 627.031,-55.5995"/>
<polygon fill="red" stroke="red" points="627.084,-91.9551 621.931,-82.2756 626.753,-86.9661 626.421,-81.9771 626.421,-81.9771 626.421,-81.9771 626.753,-86.9661 630.911,-81.6786 627.084,-91.9551 627.084,-91.9551"/>
</g>
<!-- usr_web&#45;&gt;usr -->
<g id="edge36" class="edge"><title>usr_web&#45;&gt;usr</title>
<path fill="none" stroke="#000099" d="M638.916,-91.9551C639.702,-84.0042 639.933,-74.4679 639.607,-65.588"/>
<polygon fill="#000099" stroke="#000099" points="638.969,-55.5995 644.097,-65.2925 639.288,-60.5894 639.607,-65.5792 639.607,-65.5792 639.607,-65.5792 639.288,-60.5894 635.116,-65.8659 638.969,-55.5995 638.969,-55.5995"/>
</g>
<!-- wb -->
<g id="node11" class="node"><title>wb</title>
<ellipse fill="pink" stroke="black" cx="604" cy="-417" rx="38.0212" ry="18"/>
<text text-anchor="middle" x="604" y="-413.3" font-family="Times,serif" font-size="14.00">webapp</text>
</g>
<!-- usr_web&#45;&gt;wb -->
<g id="edge22" class="edge"><title>usr_web&#45;&gt;wb</title>
<path fill="none" stroke="red" d="M641.515,-130.041C645.898,-140.326 650.778,-153.601 653,-166 668.481,-252.37 673.169,-281.765 640,-363 635.9,-373.041 629.702,-383.121 623.597,-391.754"/>
<polygon fill="red" stroke="red" points="617.606,-399.85 619.937,-389.135 620.58,-395.831 623.554,-391.812 623.554,-391.812 623.554,-391.812 620.58,-395.831 627.172,-394.489 617.606,-399.85 617.606,-399.85"/>
</g>
<!-- usr_mail -->
<g id="node3" class="node"><title>usr_mail</title>
<polygon fill="#ccaaaa" stroke="black" points="644,-204 641,-208 620,-208 617,-204 590,-204 590,-166 644,-166 644,-204"/>
<text text-anchor="middle" x="617" y="-188.8" font-family="Times,serif" font-size="14.00">User&#39;s</text>
<text text-anchor="middle" x="617" y="-173.8" font-family="Times,serif" font-size="14.00">email</text>
</g>
<!-- usr_mail&#45;&gt;usr_web -->
<g id="edge20" class="edge"><title>usr_mail&#45;&gt;usr_web</title>
<path fill="none" stroke="red" d="M616.649,-155.854C618.228,-147.31 620.475,-138.144 622.932,-130.413"/>
<polygon fill="red" stroke="red" points="615.085,-165.831 612.189,-155.255 615.86,-160.892 616.634,-155.952 616.634,-155.952 616.634,-155.952 615.86,-160.892 621.08,-156.649 615.085,-165.831 615.085,-165.831"/>
</g>
<!-- usr_mail&#45;&gt;usr_web -->
<g id="edge35" class="edge"><title>usr_mail&#45;&gt;usr_web</title>
<path fill="none" stroke="#000099" d="M626.99,-165.831C629.451,-158.131 631.707,-148.974 633.3,-140.417"/>
<polygon fill="#000099" stroke="#000099" points="634.884,-130.413 637.765,-140.994 634.102,-135.352 633.32,-140.29 633.32,-140.29 633.32,-140.29 634.102,-135.352 628.876,-139.586 634.884,-130.413 634.884,-130.413"/>
</g>
<!-- ea_contact -->
<g id="node5" class="node"><title>ea_contact</title>
<polygon fill="#a8aab8" stroke="black" points="405.5,-130 402.5,-134 381.5,-134 378.5,-130 322.5,-130 322.5,-92 405.5,-92 405.5,-130"/>
<text text-anchor="middle" x="364" y="-114.8" font-family="Times,serif" font-size="14.00">contact@</text>
<text text-anchor="middle" x="364" y="-99.8" font-family="Times,serif" font-size="14.00">shipreq.com</text>
</g>
<!-- usr_mail&#45;&gt;ea_contact -->
<g id="edge19" class="edge"><title>usr_mail&#45;&gt;ea_contact</title>
<path fill="none" stroke="red" d="M589.597,-170.48C585.754,-168.841 581.814,-167.293 578,-166 508.97,-142.597 488.218,-149.549 418,-130 417.125,-129.756 416.244,-129.507 415.357,-129.253"/>
<polygon fill="red" stroke="red" points="405.734,-126.372 416.605,-124.929 410.524,-127.806 415.314,-129.24 415.314,-129.24 415.314,-129.24 410.524,-127.806 414.023,-133.551 405.734,-126.372 405.734,-126.372"/>
</g>
<!-- ea_contact&#45;&gt;gmail -->
<g id="edge11" class="edge"><title>ea_contact&#45;&gt;gmail</title>
<path fill="none" stroke="red" d="M365.483,-91.9551C366.147,-83.8828 366.944,-74.1764 367.684,-65.1817"/>
<polygon fill="red" stroke="red" points="368.513,-55.0904 372.179,-65.4254 368.103,-60.0736 367.694,-65.0568 367.694,-65.0568 367.694,-65.0568 368.103,-60.0736 363.209,-64.6881 368.513,-55.0904 368.513,-55.0904"/>
</g>
<!-- fd_mail -->
<g id="node16" class="node"><title>fd_mail</title>
<polygon fill="#aabbff" stroke="black" points="493.25,-203 490.25,-207 469.25,-207 466.25,-203 430.75,-203 430.75,-167 493.25,-167 493.25,-203"/>
<text text-anchor="middle" x="462" y="-181.3" font-family="Times,serif" font-size="14.00">Mailbox</text>
</g>
<!-- ea_contact&#45;&gt;fd_mail -->
<g id="edge10" class="edge"><title>ea_contact&#45;&gt;fd_mail</title>
<path fill="none" stroke="red" d="M388.771,-130.199C401.486,-139.541 417.109,-151.019 430.654,-160.971"/>
<polygon fill="red" stroke="red" points="438.775,-166.937 428.052,-164.643 434.746,-163.977 430.717,-161.016 430.717,-161.016 430.717,-161.016 434.746,-163.977 433.381,-157.39 438.775,-166.937 438.775,-166.937"/>
</g>
<!-- ea_news -->
<g id="node6" class="node"><title>ea_news</title>
<polygon fill="#a8aab8" stroke="black" points="405.5,-204 402.5,-208 381.5,-208 378.5,-204 322.5,-204 322.5,-166 405.5,-166 405.5,-204"/>
<text text-anchor="middle" x="364" y="-188.8" font-family="Times,serif" font-size="14.00">news@</text>
<text text-anchor="middle" x="364" y="-173.8" font-family="Times,serif" font-size="14.00">shipreq.com</text>
</g>
<!-- ea_news&#45;&gt;ea_contact -->
<g id="edge13" class="edge"><title>ea_news&#45;&gt;ea_contact</title>
<path fill="none" stroke="red" d="M364,-165.831C364,-158.131 364,-148.974 364,-140.417"/>
<polygon fill="red" stroke="red" points="364,-130.413 368.5,-140.413 364,-135.413 364,-140.413 364,-140.413 364,-140.413 364,-135.413 359.5,-140.413 364,-130.413 364,-130.413"/>
</g>
<!-- ea_notice -->
<g id="node7" class="node"><title>ea_notice</title>
<polygon fill="#a8aab8" stroke="black" points="303.5,-204 300.5,-208 279.5,-208 276.5,-204 220.5,-204 220.5,-166 303.5,-166 303.5,-204"/>
<text text-anchor="middle" x="262" y="-188.8" font-family="Times,serif" font-size="14.00">notice@</text>
<text text-anchor="middle" x="262" y="-173.8" font-family="Times,serif" font-size="14.00">shipreq.com</text>
</g>
<!-- ea_notice&#45;&gt;ea_contact -->
<g id="edge14" class="edge"><title>ea_notice&#45;&gt;ea_contact</title>
<path fill="none" stroke="red" d="M287.739,-165.831C300.544,-156.793 316.191,-145.748 329.972,-136.02"/>
<polygon fill="red" stroke="red" points="338.269,-130.163 332.695,-139.606 334.184,-133.046 330.1,-135.93 330.1,-135.93 330.1,-135.93 334.184,-133.046 327.505,-132.253 338.269,-130.163 338.269,-130.163"/>
</g>
<!-- ea_support -->
<g id="node8" class="node"><title>ea_support</title>
<polygon fill="#a8aab8" stroke="black" points="201.5,-204 198.5,-208 177.5,-208 174.5,-204 118.5,-204 118.5,-166 201.5,-166 201.5,-204"/>
<text text-anchor="middle" x="160" y="-188.8" font-family="Times,serif" font-size="14.00">support@</text>
<text text-anchor="middle" x="160" y="-173.8" font-family="Times,serif" font-size="14.00">shipreq.com</text>
</g>
<!-- ea_support&#45;&gt;ea_contact -->
<g id="edge15" class="edge"><title>ea_support&#45;&gt;ea_contact</title>
<path fill="none" stroke="red" d="M201.775,-169.256C233.815,-157.947 278.209,-142.279 312.457,-130.192"/>
<polygon fill="red" stroke="red" points="322.281,-126.724 314.349,-134.296 317.566,-128.388 312.851,-130.053 312.851,-130.053 312.851,-130.053 317.566,-128.388 311.354,-125.809 322.281,-126.724 322.281,-126.724"/>
</g>
<!-- ea_noreply -->
<g id="node9" class="node"><title>ea_noreply</title>
<polygon fill="#a8aab8" stroke="black" points="99.5,-204 96.5,-208 75.5,-208 72.5,-204 16.5,-204 16.5,-166 99.5,-166 99.5,-204"/>
<text text-anchor="middle" x="58" y="-188.8" font-family="Times,serif" font-size="14.00">no&#45;reply@</text>
<text text-anchor="middle" x="58" y="-173.8" font-family="Times,serif" font-size="14.00">shipreq.com</text>
</g>
<!-- ea_noreply&#45;&gt;ea_contact -->
<g id="edge12" class="edge"><title>ea_noreply&#45;&gt;ea_contact</title>
<path fill="none" stroke="red" d="M99.6066,-168.817C102.77,-167.816 105.927,-166.864 109,-166 178.431,-146.486 260.245,-130.34 312.114,-120.932"/>
<polygon fill="red" stroke="red" points="322.076,-119.141 313.03,-125.339 317.155,-120.025 312.233,-120.91 312.233,-120.91 312.233,-120.91 317.155,-120.025 311.437,-116.481 322.076,-119.141 322.076,-119.141"/>
</g>
<!-- aws_rds -->
<g id="node10" class="node"><title>aws_rds</title>
<ellipse fill="#55cc55" stroke="black" cx="604" cy="-345" rx="27.4223" ry="18"/>
<text text-anchor="middle" x="604" y="-341.3" font-family="Times,serif" font-size="14.00">RDS</text>
</g>
<!-- taskman -->
<g id="node12" class="node"><title>taskman</title>
<ellipse fill="pink" stroke="black" cx="604" cy="-271" rx="39.9464" ry="18"/>
<text text-anchor="middle" x="604" y="-267.3" font-family="Times,serif" font-size="14.00">taskman</text>
</g>
<!-- aws_rds&#45;&gt;taskman -->
<g id="edge24" class="edge"><title>aws_rds&#45;&gt;taskman</title>
<path fill="none" stroke="red" d="M592.643,-328.377C590.564,-319.598 589.998,-308.408 590.944,-298.316"/>
<polygon fill="red" stroke="red" points="592.477,-288.342 595.405,-298.91 591.717,-293.284 590.958,-298.226 590.958,-298.226 590.958,-298.226 591.717,-293.284 586.51,-297.542 592.477,-288.342 592.477,-288.342"/>
</g>
<!-- aws_rds&#45;&gt;taskman -->
<g id="edge38" class="edge"><title>aws_rds&#45;&gt;taskman</title>
<path fill="none" stroke="#000099" d="M615.357,-328.377C617.436,-319.598 618.002,-308.408 617.056,-298.316"/>
<polygon fill="#000099" stroke="#000099" points="615.523,-288.342 621.49,-297.542 616.283,-293.284 617.042,-298.226 617.042,-298.226 617.042,-298.226 616.283,-293.284 612.595,-298.91 615.523,-288.342 615.523,-288.342"/>
</g>
<!-- wb&#45;&gt;usr_web -->
<g id="edge7" class="edge"><title>wb&#45;&gt;usr_web</title>
<path fill="none" stroke="black" d="M642.947,-400.953C659.331,-392.452 676.719,-380.05 686,-363 727.861,-286.1 719.128,-247.046 686,-166 681.541,-155.091 673.697,-145.195 665.39,-136.943"/>
<polygon fill="black" stroke="black" points="633.486,-405.512 640.54,-397.117 637.99,-403.341 642.494,-401.171 642.494,-401.171 642.494,-401.171 637.99,-403.341 644.448,-405.225 633.486,-405.512 633.486,-405.512"/>
<polygon fill="black" stroke="black" points="658.043,-130.13 668.435,-133.63 661.709,-133.53 665.375,-136.93 665.375,-136.93 665.375,-136.93 661.709,-133.53 662.316,-140.23 658.043,-130.13 658.043,-130.13"/>
</g>
<!-- wb&#45;&gt;aws_rds -->
<g id="edge6" class="edge"><title>wb&#45;&gt;aws_rds</title>
<path fill="none" stroke="black" d="M590.874,-389.658C590.355,-383.765 590.376,-377.522 590.937,-371.658"/>
<polygon fill="black" stroke="black" points="592.398,-399.765 586.457,-390.548 591.653,-394.821 590.907,-389.876 590.907,-389.876 590.907,-389.876 591.653,-394.821 595.357,-389.205 592.398,-399.765 592.398,-399.765"/>
<polygon fill="black" stroke="black" points="592.529,-361.666 595.399,-372.249 591.742,-366.603 590.955,-371.541 590.955,-371.541 590.955,-371.541 591.742,-366.603 586.511,-370.833 592.529,-361.666 592.529,-361.666"/>
</g>
<!-- wb&#45;&gt;aws_rds -->
<g id="edge23" class="edge"><title>wb&#45;&gt;aws_rds</title>
<path fill="none" stroke="red" d="M604,-398.697C604,-390.983 604,-381.712 604,-373.112"/>
<polygon fill="red" stroke="red" points="604,-363.104 608.5,-373.104 604,-368.104 604,-373.104 604,-373.104 604,-373.104 604,-368.104 599.5,-373.104 604,-363.104 604,-363.104"/>
</g>
<!-- wb&#45;&gt;aws_rds -->
<g id="edge37" class="edge"><title>wb&#45;&gt;aws_rds</title>
<path fill="none" stroke="#000099" d="M615.602,-399.765C617.472,-391.431 617.96,-381.082 617.067,-371.695"/>
<polygon fill="#000099" stroke="#000099" points="615.471,-361.666 621.486,-370.834 616.257,-366.604 617.042,-371.542 617.042,-371.542 617.042,-371.542 616.257,-366.604 612.598,-372.249 615.471,-361.666 615.471,-361.666"/>
</g>
<!-- taskman&#45;&gt;usr_mail -->
<g id="edge34" class="edge"><title>taskman&#45;&gt;usr_mail</title>
<path fill="none" stroke="#000099" d="M606.631,-253.001C608.346,-241.915 610.628,-227.175 612.613,-214.344"/>
<polygon fill="#000099" stroke="#000099" points="614.193,-204.136 617.111,-214.707 613.428,-209.077 612.664,-214.019 612.664,-214.019 612.664,-214.019 613.428,-209.077 608.217,-213.33 614.193,-204.136 614.193,-204.136"/>
</g>
<!-- taskman&#45;&gt;aws_rds -->
<g id="edge4" class="edge"><title>taskman&#45;&gt;aws_rds</title>
<path fill="none" stroke="black" d="M604,-299.686C604,-305.274 604,-311.145 604,-316.719"/>
<polygon fill="black" stroke="black" points="604,-289.441 608.5,-299.441 604,-294.441 604,-299.441 604,-299.441 604,-299.441 604,-294.441 599.5,-299.441 604,-289.441 604,-289.441"/>
<polygon fill="black" stroke="black" points="604,-326.937 599.5,-316.937 604,-321.937 604,-316.937 604,-316.937 604,-316.937 604,-321.937 608.5,-316.937 604,-326.937 604,-326.937"/>
</g>
<!-- mc_api -->
<g id="node13" class="node"><title>mc_api</title>
<ellipse fill="#55cc55" stroke="black" cx="774" cy="-185" rx="27" ry="18"/>
<text text-anchor="middle" x="774" y="-181.3" font-family="Times,serif" font-size="14.00">API</text>
</g>
<!-- taskman&#45;&gt;mc_api -->
<g id="edge5" class="edge"><title>taskman&#45;&gt;mc_api</title>
<path fill="none" stroke="black" d="M629.735,-256.966C644.407,-250.745 662.833,-242.937 679,-235 700.642,-224.376 724.392,-210.68 742.921,-200.47"/>
<polygon fill="black" stroke="black" points="751.83,-195.625 745.195,-204.356 747.438,-198.014 743.045,-200.402 743.045,-200.402 743.045,-200.402 747.438,-198.014 740.895,-196.449 751.83,-195.625 751.83,-195.625"/>
</g>
<!-- taskman&#45;&gt;mc_api -->
<g id="edge32" class="edge"><title>taskman&#45;&gt;mc_api</title>
<path fill="none" stroke="#000099" d="M646.735,-256.74C662.851,-250.557 681.028,-242.841 697,-235 718.904,-224.247 742.969,-210.347 758.522,-200.1"/>
<polygon fill="#000099" stroke="#000099" points="637.004,-260.38 644.794,-252.662 641.687,-258.628 646.371,-256.876 646.371,-256.876 646.371,-256.876 641.687,-258.628 647.947,-261.091 637.004,-260.38 637.004,-260.38"/>
</g>
<!-- fd_api -->
<g id="node18" class="node"><title>fd_api</title>
<ellipse fill="#55cc55" stroke="black" cx="539" cy="-185" rx="27" ry="18"/>
<text text-anchor="middle" x="539" y="-181.3" font-family="Times,serif" font-size="14.00">API</text>
</g>
<!-- taskman&#45;&gt;fd_api -->
<g id="edge18" class="edge"><title>taskman&#45;&gt;fd_api</title>
<path fill="none" stroke="red" d="M591.467,-253.804C581.752,-241.249 568.151,-223.672 557.231,-209.56"/>
<polygon fill="red" stroke="red" points="550.837,-201.297 560.516,-206.452 553.897,-205.251 556.957,-209.206 556.957,-209.206 556.957,-209.206 553.897,-205.251 553.398,-211.96 550.837,-201.297 550.837,-201.297"/>
</g>
<!-- mc_web -->
<g id="node14" class="node"><title>mc_web</title>
<polygon fill="#55cc55" stroke="black" points="830,-129 748,-129 748,-133 736,-133 736,-93 830,-93 830,-129"/>
<polyline fill="none" stroke="black" points="736,-129 748,-129 "/>
<text text-anchor="middle" x="783" y="-107.3" font-family="Times,serif" font-size="14.00">Web interface</text>
</g>
<!-- mc_api&#45;&gt;mc_web -->
<g id="edge3" class="edge"><title>mc_api&#45;&gt;mc_web</title>
<path fill="none" stroke="black" d="M770.293,-166.937C770.448,-158.719 771.46,-148.66 772.998,-139.406"/>
<polygon fill="black" stroke="black" points="774.94,-129.441 777.444,-140.117 773.984,-134.348 773.027,-139.256 773.027,-139.256 773.027,-139.256 773.984,-134.348 768.61,-138.395 774.94,-129.441 774.94,-129.441"/>
</g>
<!-- mc_api&#45;&gt;mc_web -->
<g id="edge33" class="edge"><title>mc_api&#45;&gt;mc_web</title>
<path fill="none" stroke="#000099" d="M783.799,-157.791C785.453,-148.2 786.548,-137.605 786.708,-129.025"/>
<polygon fill="#000099" stroke="#000099" points="781.803,-167.662 779.374,-156.969 782.794,-162.761 783.785,-157.86 783.785,-157.86 783.785,-157.86 782.794,-162.761 788.196,-158.752 781.803,-167.662 781.803,-167.662"/>
</g>
<!-- mc_web&#45;&gt;usr_mail -->
<g id="edge31" class="edge"><title>mc_web&#45;&gt;usr_mail</title>
<path fill="none" stroke="#000099" d="M743.567,-129.104C716.218,-140.966 680.063,-156.647 653.4,-168.212"/>
<polygon fill="#000099" stroke="#000099" points="644.04,-172.272 651.424,-164.164 648.627,-170.282 653.214,-168.292 653.214,-168.292 653.214,-168.292 648.627,-170.282 655.005,-172.421 644.04,-172.272 644.04,-172.272"/>
</g>
<!-- mc_staff -->
<g id="node15" class="node"><title>mc_staff</title>
<polygon fill="#aabbff" stroke="black" points="784.5,-42 786,-43.5 786,-46.5 784.5,-48 781.5,-48 780,-46.5 780,-43.5 781.5,-42 784.5,-42"/>
<polyline fill="none" stroke="black" points="783,-42 783,-36 "/>
<polyline fill="none" stroke="black" points="756,-36 810,-36 "/>
<text text-anchor="middle" x="783" y="-24.3" font-family="Times,serif" font-size="14.00">Staff</text>
</g>
<!-- mc_web&#45;&gt;mc_staff -->
<g id="edge30" class="edge"><title>mc_web&#45;&gt;mc_staff</title>
<path fill="none" stroke="#000099" d="M783,-82.6603C783,-73.6771 783,-63.9025 783,-55.7104"/>
<polygon fill="#000099" stroke="#000099" points="783,-92.7 778.5,-82.7 783,-87.7 783,-82.7 783,-82.7 783,-82.7 783,-87.7 787.5,-82.7001 783,-92.7 783,-92.7"/>
</g>
<!-- fd_web -->
<g id="node17" class="node"><title>fd_web</title>
<polygon fill="#55cc55" stroke="black" points="545,-129 463,-129 463,-133 451,-133 451,-93 545,-93 545,-129"/>
<polyline fill="none" stroke="black" points="451,-129 463,-129 "/>
<text text-anchor="middle" x="498" y="-107.3" font-family="Times,serif" font-size="14.00">Web interface</text>
</g>
<!-- fd_mail&#45;&gt;fd_web -->
<g id="edge16" class="edge"><title>fd_mail&#45;&gt;fd_web</title>
<path fill="none" stroke="red" d="M470.531,-166.937C474.773,-158.454 479.995,-148.009 484.744,-138.513"/>
<polygon fill="red" stroke="red" points="489.28,-129.441 488.832,-140.397 487.044,-133.913 484.807,-138.385 484.807,-138.385 484.807,-138.385 487.044,-133.913 480.783,-136.372 489.28,-129.441 489.28,-129.441"/>
</g>
<!-- fd_web&#45;&gt;gmail -->
<g id="edge29" class="edge"><title>fd_web&#45;&gt;gmail</title>
<path fill="none" stroke="#000099" d="M467.99,-92.8847C450.844,-83.1065 429.114,-70.7135 410.476,-60.084"/>
<polygon fill="#000099" stroke="#000099" points="401.608,-55.0266 412.524,-56.0718 405.952,-57.5037 410.295,-59.9808 410.295,-59.9808 410.295,-59.9808 405.952,-57.5037 408.066,-63.8898 401.608,-55.0266 401.608,-55.0266"/>
</g>
<!-- fd_web&#45;&gt;usr_mail -->
<g id="edge28" class="edge"><title>fd_web&#45;&gt;usr_mail</title>
<path fill="none" stroke="#000099" d="M526.138,-129.025C542.583,-138.975 563.504,-151.633 581.125,-162.294"/>
<polygon fill="#000099" stroke="#000099" points="589.997,-167.662 579.112,-166.336 585.719,-165.074 581.441,-162.485 581.441,-162.485 581.441,-162.485 585.719,-165.074 583.771,-158.635 589.997,-167.662 589.997,-167.662"/>
</g>
<!-- fd_staff -->
<g id="node19" class="node"><title>fd_staff</title>
<polygon fill="#aabbff" stroke="black" points="499.5,-42 501,-43.5 501,-46.5 499.5,-48 496.5,-48 495,-46.5 495,-43.5 496.5,-42 499.5,-42"/>
<polyline fill="none" stroke="black" points="498,-42 498,-36 "/>
<polyline fill="none" stroke="black" points="471,-36 525,-36 "/>
<text text-anchor="middle" x="498" y="-24.3" font-family="Times,serif" font-size="14.00">Staff</text>
</g>
<!-- fd_web&#45;&gt;fd_staff -->
<g id="edge17" class="edge"><title>fd_web&#45;&gt;fd_staff</title>
<path fill="none" stroke="red" d="M492.16,-92.7C491.323,-84.6997 491.063,-74.979 491.381,-65.9119"/>
<polygon fill="red" stroke="red" points="492.02,-55.7104 495.886,-65.9721 491.708,-60.7007 491.395,-65.6909 491.395,-65.6909 491.395,-65.6909 491.708,-60.7007 486.904,-65.4097 492.02,-55.7104 492.02,-55.7104"/>
</g>
<!-- fd_web&#45;&gt;fd_staff -->
<g id="edge27" class="edge"><title>fd_web&#45;&gt;fd_staff</title>
<path fill="none" stroke="#000099" d="M504.557,-82.6603C504.943,-73.6771 504.75,-63.9025 503.98,-55.7104"/>
<polygon fill="#000099" stroke="#000099" points="503.84,-92.7 500.064,-82.4046 504.196,-87.7127 504.553,-82.7255 504.553,-82.7255 504.553,-82.7255 504.196,-87.7127 509.041,-83.0463 503.84,-92.7 503.84,-92.7"/>
</g>
<!-- fd_api&#45;&gt;fd_web -->
<g id="edge2" class="edge"><title>fd_api&#45;&gt;fd_web</title>
<path fill="none" stroke="black" d="M529.901,-168.021C524.879,-159.203 518.52,-148.035 512.803,-137.995"/>
<polygon fill="black" stroke="black" points="507.79,-129.191 516.648,-135.655 510.264,-133.536 512.738,-137.881 512.738,-137.881 512.738,-137.881 510.264,-133.536 508.828,-140.108 507.79,-129.191 507.79,-129.191"/>
</g>
<!-- crm_mail -->
<g id="node20" class="node"><title>crm_mail</title>
<polygon fill="#aabbff" stroke="black" points="871.25,-435 868.25,-439 847.25,-439 844.25,-435 808.75,-435 808.75,-399 871.25,-399 871.25,-435"/>
<text text-anchor="middle" x="840" y="-413.3" font-family="Times,serif" font-size="14.00">Mailbox</text>
</g>
<!-- crm_web -->
<g id="node21" class="node"><title>crm_web</title>
<polygon fill="#55cc55" stroke="black" points="872,-363 790,-363 790,-367 778,-367 778,-327 872,-327 872,-363"/>
<polyline fill="none" stroke="black" points="778,-363 790,-363 "/>
<text text-anchor="middle" x="825" y="-341.3" font-family="Times,serif" font-size="14.00">Web interface</text>
</g>
<!-- crm_mail&#45;&gt;crm_web -->
<g id="edge8" class="edge"><title>crm_mail&#45;&gt;crm_web</title>
<path fill="none" stroke="red" d="M830.376,-398.697C827.928,-390.983 825.715,-381.712 824.215,-373.112"/>
<polygon fill="red" stroke="red" points="822.77,-363.104 828.652,-372.359 823.484,-368.053 824.199,-373.002 824.199,-373.002 824.199,-373.002 823.484,-368.053 819.745,-373.645 822.77,-363.104 822.77,-363.104"/>
</g>
<!-- crm_mail&#45;&gt;crm_web -->
<g id="edge25" class="edge"><title>crm_mail&#45;&gt;crm_web</title>
<path fill="none" stroke="#000099" d="M842.208,-398.697C841.341,-390.898 839.552,-381.509 837.333,-372.829"/>
<polygon fill="#000099" stroke="#000099" points="834.56,-363.104 841.63,-371.487 835.931,-367.913 837.302,-372.721 837.302,-372.721 837.302,-372.721 835.931,-367.913 832.975,-373.955 834.56,-363.104 834.56,-363.104"/>
</g>
<!-- crm_staff -->
<g id="node23" class="node"><title>crm_staff</title>
<polygon fill="#aabbff" stroke="black" points="826.5,-277 828,-278.5 828,-281.5 826.5,-283 823.5,-283 822,-281.5 822,-278.5 823.5,-277 826.5,-277"/>
<polyline fill="none" stroke="black" points="825,-277 825,-271 "/>
<polyline fill="none" stroke="black" points="798,-271 852,-271 "/>
<text text-anchor="middle" x="825" y="-259.3" font-family="Times,serif" font-size="14.00">Staff</text>
</g>
<!-- crm_web&#45;&gt;crm_staff -->
<g id="edge9" class="edge"><title>crm_web&#45;&gt;crm_staff</title>
<path fill="none" stroke="red" d="M819.16,-326.937C818.329,-319.106 818.067,-309.604 818.374,-300.719"/>
<polygon fill="red" stroke="red" points="818.996,-290.71 822.867,-300.97 818.686,-295.701 818.376,-300.691 818.376,-300.691 818.376,-300.691 818.686,-295.701 813.885,-300.412 818.996,-290.71 818.996,-290.71"/>
</g>
<!-- crm_web&#45;&gt;crm_staff -->
<g id="edge26" class="edge"><title>crm_web&#45;&gt;crm_staff</title>
<path fill="none" stroke="#000099" d="M830.84,-326.937C831.671,-319.106 831.933,-309.604 831.626,-300.719"/>
<polygon fill="#000099" stroke="#000099" points="831.004,-290.71 836.115,-300.412 831.314,-295.701 831.624,-300.691 831.624,-300.691 831.624,-300.691 831.314,-295.701 827.133,-300.97 831.004,-290.71 831.004,-290.71"/>
</g>
<!-- crm_api -->
<g id="node22" class="node"><title>crm_api</title>
<ellipse fill="#55cc55" stroke="black" cx="763" cy="-417" rx="27" ry="18"/>
<text text-anchor="middle" x="763" y="-413.3" font-family="Times,serif" font-size="14.00">API</text>
</g>
<!-- crm_api&#45;&gt;crm_web -->
<g id="edge1" class="edge"><title>crm_api&#45;&gt;crm_web</title>
<path fill="none" stroke="black" d="M776.149,-401.155C784.023,-392.264 794.229,-380.742 803.274,-370.529"/>
<polygon fill="black" stroke="black" points="809.907,-363.04 806.646,-373.51 806.592,-366.783 803.277,-370.526 803.277,-370.526 803.277,-370.526 806.592,-366.783 799.908,-367.542 809.907,-363.04 809.907,-363.04"/>
</g>
</g>
</svg>
