<?xml version="1.0" encoding="UTF-8" standalone="no"?>
<!DOCTYPE svg PUBLIC "-//W3C//DTD SVG 1.1//EN"
 "http://www.w3.org/Graphics/SVG/1.1/DTD/svg11.dtd">
<!-- Generated by graphviz version 2.36.0 (20140111.2315)
 -->
<!-- Title: G Pages: 1 -->
<svg width="794pt" height="550pt"
 viewBox="0.00 0.00 794.00 550.00" xmlns="http://www.w3.org/2000/svg" xmlns:xlink="http://www.w3.org/1999/xlink">
<g id="graph0" class="graph" transform="scale(1 1) rotate(0) translate(4 546)">
<title>G</title>
<polygon fill="white" stroke="none" points="-4,4 -4,-546 790,-546 790,4 -4,4"/>
<text text-anchor="middle" x="393" y="-526.8" font-family="Times,serif" font-size="14.00">ShipReq System Diagram</text>
<text text-anchor="middle" x="393" y="-511.8" font-family="Times,serif" font-size="14.00">(arrows denote flow of data from one component to another)</text>
<text text-anchor="middle" x="393" y="-496.8" font-family="Times,serif" font-size="14.00">(ignores which component instigates the data transfer)</text>
<text text-anchor="middle" x="393" y="-481.8" font-family="Times,serif" font-size="14.00">(red = email from user, blue = email to user)</text>
<g id="clust1" class="cluster"><title>cluster_usr</title>
<polygon fill="#eeeeaa" stroke="black" points="480,-8 480,-235 582,-235 582,-8 480,-8"/>
<text text-anchor="middle" x="531" y="-219.8" font-family="Times,serif" font-size="14.00">Userland</text>
</g>
<g id="clust2" class="cluster"><title>cluster_gandi</title>
<polygon fill="#e8e8e8" stroke="black" points="8,-84 8,-235 312,-235 312,-84 8,-84"/>
<text text-anchor="middle" x="160" y="-219.8" font-family="Times,serif" font-size="14.00">gandi.net</text>
</g>
<g id="clust3" class="cluster"><title>cluster_aws</title>
<polygon fill="#e8e8e8" stroke="black" points="431,-245 431,-466 574,-466 574,-245 431,-245"/>
<text text-anchor="middle" x="502.5" y="-450.8" font-family="Times,serif" font-size="14.00">Amazon Web Services</text>
</g>
<g id="clust5" class="cluster"><title>cluster_mc</title>
<polygon fill="#e8e8e8" stroke="black" points="626,-8 626,-234 736,-234 736,-8 626,-8"/>
<text text-anchor="middle" x="681" y="-218.8" font-family="Times,serif" font-size="14.00">MailChimp</text>
</g>
<g id="clust6" class="cluster"><title>cluster_fd</title>
<polygon fill="#e8e8e8" stroke="black" points="320,-8 320,-234 472,-234 472,-8 320,-8"/>
<text text-anchor="middle" x="396" y="-218.8" font-family="Times,serif" font-size="14.00">Freshdesk</text>
</g>
<g id="clust7" class="cluster"><title>cluster_crm</title>
<polygon fill="#e8e8e8" stroke="black" points="626,-243 626,-466 778,-466 778,-243 626,-243"/>
<text text-anchor="middle" x="702" y="-450.8" font-family="Times,serif" font-size="14.00">Insightly</text>
</g>
<!-- gmail -->
<g id="node1" class="node"><title>gmail</title>
<polygon fill="#aabbff" stroke="black" points="306,-55 303,-59 282,-59 279,-55 230,-55 230,-17 306,-17 306,-55"/>
<text text-anchor="middle" x="268" y="-39.8" font-family="Times,serif" font-size="14.00">shipreq@</text>
<text text-anchor="middle" x="268" y="-24.8" font-family="Times,serif" font-size="14.00">gmail.com</text>
</g>
<!-- usr_web -->
<g id="node2" class="node"><title>usr_web</title>
<polygon fill="#ccaa66" stroke="black" points="574,-130 500,-130 500,-134 488,-134 488,-92 574,-92 574,-130"/>
<polyline fill="none" stroke="black" points="488,-130 500,-130 "/>
<text text-anchor="middle" x="531" y="-114.8" font-family="Times,serif" font-size="14.00">User&#39;s</text>
<text text-anchor="middle" x="531" y="-99.8" font-family="Times,serif" font-size="14.00">web browser</text>
</g>
<!-- usr -->
<g id="node4" class="node"><title>usr</title>
<polygon fill="#ccaa66" stroke="black" points="532.5,-42 534,-43.5 534,-46.5 532.5,-48 529.5,-48 528,-46.5 528,-43.5 529.5,-42 532.5,-42"/>
<polyline fill="none" stroke="black" points="531,-42 531,-36 "/>
<polyline fill="none" stroke="black" points="504,-36 558,-36 "/>
<text text-anchor="middle" x="531" y="-24.3" font-family="Times,serif" font-size="14.00">User</text>
</g>
<!-- usr_web&#45;&gt;usr -->
<g id="edge20" class="edge"><title>usr_web&#45;&gt;usr</title>
<path fill="none" stroke="red" d="M524.405,-81.7387C524.07,-72.9716 524.278,-63.5353 525.031,-55.5995"/>
<polygon fill="red" stroke="red" points="525.084,-91.9551 519.931,-82.2756 524.753,-86.9661 524.421,-81.9771 524.421,-81.9771 524.421,-81.9771 524.753,-86.9661 528.911,-81.6786 525.084,-91.9551 525.084,-91.9551"/>
</g>
<!-- usr_web&#45;&gt;usr -->
<g id="edge35" class="edge"><title>usr_web&#45;&gt;usr</title>
<path fill="none" stroke="#000099" d="M536.916,-91.9551C537.702,-84.0042 537.933,-74.4679 537.607,-65.588"/>
<polygon fill="#000099" stroke="#000099" points="536.969,-55.5995 542.097,-65.2925 537.288,-60.5894 537.607,-65.5792 537.607,-65.5792 537.607,-65.5792 537.288,-60.5894 533.116,-65.8659 536.969,-55.5995 536.969,-55.5995"/>
</g>
<!-- wb -->
<g id="node10" class="node"><title>wb</title>
<ellipse fill="pink" stroke="black" cx="502" cy="-417" rx="38.0212" ry="18"/>
<text text-anchor="middle" x="502" y="-413.3" font-family="Times,serif" font-size="14.00">webapp</text>
</g>
<!-- usr_web&#45;&gt;wb -->
<g id="edge21" class="edge"><title>usr_web&#45;&gt;wb</title>
<path fill="none" stroke="red" d="M539.515,-130.041C543.898,-140.326 548.778,-153.601 551,-166 566.481,-252.37 571.169,-281.765 538,-363 533.9,-373.041 527.702,-383.121 521.597,-391.754"/>
<polygon fill="red" stroke="red" points="515.606,-399.85 517.937,-389.135 518.58,-395.831 521.554,-391.812 521.554,-391.812 521.554,-391.812 518.58,-395.831 525.172,-394.489 515.606,-399.85 515.606,-399.85"/>
</g>
<!-- usr_mail -->
<g id="node3" class="node"><title>usr_mail</title>
<polygon fill="#ccaaaa" stroke="black" points="542,-204 539,-208 518,-208 515,-204 488,-204 488,-166 542,-166 542,-204"/>
<text text-anchor="middle" x="515" y="-188.8" font-family="Times,serif" font-size="14.00">User&#39;s</text>
<text text-anchor="middle" x="515" y="-173.8" font-family="Times,serif" font-size="14.00">email</text>
</g>
<!-- usr_mail&#45;&gt;usr_web -->
<g id="edge19" class="edge"><title>usr_mail&#45;&gt;usr_web</title>
<path fill="none" stroke="red" d="M514.649,-155.854C516.228,-147.31 518.475,-138.144 520.932,-130.413"/>
<polygon fill="red" stroke="red" points="513.085,-165.831 510.189,-155.255 513.86,-160.892 514.634,-155.952 514.634,-155.952 514.634,-155.952 513.86,-160.892 519.08,-156.649 513.085,-165.831 513.085,-165.831"/>
</g>
<!-- usr_mail&#45;&gt;usr_web -->
<g id="edge34" class="edge"><title>usr_mail&#45;&gt;usr_web</title>
<path fill="none" stroke="#000099" d="M524.99,-165.831C527.451,-158.131 529.707,-148.974 531.3,-140.417"/>
<polygon fill="#000099" stroke="#000099" points="532.884,-130.413 535.765,-140.994 532.102,-135.352 531.32,-140.29 531.32,-140.29 531.32,-140.29 532.102,-135.352 526.876,-139.586 532.884,-130.413 532.884,-130.413"/>
</g>
<!-- ea_contact -->
<g id="node5" class="node"><title>ea_contact</title>
<polygon fill="#a8aab8" stroke="black" points="303.5,-130 300.5,-134 279.5,-134 276.5,-130 220.5,-130 220.5,-92 303.5,-92 303.5,-130"/>
<text text-anchor="middle" x="262" y="-114.8" font-family="Times,serif" font-size="14.00">contact@</text>
<text text-anchor="middle" x="262" y="-99.8" font-family="Times,serif" font-size="14.00">shipreq.com</text>
</g>
<!-- usr_mail&#45;&gt;ea_contact -->
<g id="edge18" class="edge"><title>usr_mail&#45;&gt;ea_contact</title>
<path fill="none" stroke="red" d="M487.597,-170.48C483.754,-168.841 479.814,-167.293 476,-166 406.97,-142.597 386.218,-149.549 316,-130 315.125,-129.756 314.244,-129.507 313.357,-129.253"/>
<polygon fill="red" stroke="red" points="303.734,-126.372 314.605,-124.929 308.524,-127.806 313.314,-129.24 313.314,-129.24 313.314,-129.24 308.524,-127.806 312.023,-133.551 303.734,-126.372 303.734,-126.372"/>
</g>
<!-- ea_contact&#45;&gt;gmail -->
<g id="edge11" class="edge"><title>ea_contact&#45;&gt;gmail</title>
<path fill="none" stroke="red" d="M263.483,-91.9551C264.147,-83.8828 264.944,-74.1764 265.684,-65.1817"/>
<polygon fill="red" stroke="red" points="266.513,-55.0904 270.179,-65.4254 266.103,-60.0736 265.694,-65.0568 265.694,-65.0568 265.694,-65.0568 266.103,-60.0736 261.209,-64.6881 266.513,-55.0904 266.513,-55.0904"/>
</g>
<!-- fd_mail -->
<g id="node15" class="node"><title>fd_mail</title>
<polygon fill="#aabbff" stroke="black" points="391.25,-203 388.25,-207 367.25,-207 364.25,-203 328.75,-203 328.75,-167 391.25,-167 391.25,-203"/>
<text text-anchor="middle" x="360" y="-181.3" font-family="Times,serif" font-size="14.00">Mailbox</text>
</g>
<!-- ea_contact&#45;&gt;fd_mail -->
<g id="edge10" class="edge"><title>ea_contact&#45;&gt;fd_mail</title>
<path fill="none" stroke="red" d="M286.771,-130.199C299.486,-139.541 315.109,-151.019 328.654,-160.971"/>
<polygon fill="red" stroke="red" points="336.775,-166.937 326.052,-164.643 332.746,-163.977 328.717,-161.016 328.717,-161.016 328.717,-161.016 332.746,-163.977 331.381,-157.39 336.775,-166.937 336.775,-166.937"/>
</g>
<!-- ea_news -->
<g id="node6" class="node"><title>ea_news</title>
<polygon fill="#a8aab8" stroke="black" points="303.5,-204 300.5,-208 279.5,-208 276.5,-204 220.5,-204 220.5,-166 303.5,-166 303.5,-204"/>
<text text-anchor="middle" x="262" y="-188.8" font-family="Times,serif" font-size="14.00">news@</text>
<text text-anchor="middle" x="262" y="-173.8" font-family="Times,serif" font-size="14.00">shipreq.com</text>
</g>
<!-- ea_news&#45;&gt;ea_contact -->
<g id="edge12" class="edge"><title>ea_news&#45;&gt;ea_contact</title>
<path fill="none" stroke="red" d="M262,-165.831C262,-158.131 262,-148.974 262,-140.417"/>
<polygon fill="red" stroke="red" points="262,-130.413 266.5,-140.413 262,-135.413 262,-140.413 262,-140.413 262,-140.413 262,-135.413 257.5,-140.413 262,-130.413 262,-130.413"/>
</g>
<!-- ea_notice -->
<g id="node7" class="node"><title>ea_notice</title>
<polygon fill="#a8aab8" stroke="black" points="201.5,-204 198.5,-208 177.5,-208 174.5,-204 118.5,-204 118.5,-166 201.5,-166 201.5,-204"/>
<text text-anchor="middle" x="160" y="-188.8" font-family="Times,serif" font-size="14.00">notice@</text>
<text text-anchor="middle" x="160" y="-173.8" font-family="Times,serif" font-size="14.00">shipreq.com</text>
</g>
<!-- ea_notice&#45;&gt;ea_contact -->
<g id="edge13" class="edge"><title>ea_notice&#45;&gt;ea_contact</title>
<path fill="none" stroke="red" d="M185.739,-165.831C198.544,-156.793 214.191,-145.748 227.972,-136.02"/>
<polygon fill="red" stroke="red" points="236.269,-130.163 230.695,-139.606 232.184,-133.046 228.1,-135.93 228.1,-135.93 228.1,-135.93 232.184,-133.046 225.505,-132.253 236.269,-130.163 236.269,-130.163"/>
</g>
<!-- ea_support -->
<g id="node8" class="node"><title>ea_support</title>
<polygon fill="#a8aab8" stroke="black" points="99.5,-204 96.5,-208 75.5,-208 72.5,-204 16.5,-204 16.5,-166 99.5,-166 99.5,-204"/>
<text text-anchor="middle" x="58" y="-188.8" font-family="Times,serif" font-size="14.00">support@</text>
<text text-anchor="middle" x="58" y="-173.8" font-family="Times,serif" font-size="14.00">shipreq.com</text>
</g>
<!-- ea_support&#45;&gt;ea_contact -->
<g id="edge14" class="edge"><title>ea_support&#45;&gt;ea_contact</title>
<path fill="none" stroke="red" d="M99.7747,-169.256C131.815,-157.947 176.209,-142.279 210.457,-130.192"/>
<polygon fill="red" stroke="red" points="220.281,-126.724 212.349,-134.296 215.566,-128.388 210.851,-130.053 210.851,-130.053 210.851,-130.053 215.566,-128.388 209.354,-125.809 220.281,-126.724 220.281,-126.724"/>
</g>
<!-- aws_rds -->
<g id="node9" class="node"><title>aws_rds</title>
<ellipse fill="#55cc55" stroke="black" cx="502" cy="-345" rx="27.4223" ry="18"/>
<text text-anchor="middle" x="502" y="-341.3" font-family="Times,serif" font-size="14.00">RDS</text>
</g>
<!-- taskman -->
<g id="node11" class="node"><title>taskman</title>
<ellipse fill="pink" stroke="black" cx="502" cy="-271" rx="39.9464" ry="18"/>
<text text-anchor="middle" x="502" y="-267.3" font-family="Times,serif" font-size="14.00">taskman</text>
</g>
<!-- aws_rds&#45;&gt;taskman -->
<g id="edge23" class="edge"><title>aws_rds&#45;&gt;taskman</title>
<path fill="none" stroke="red" d="M490.643,-328.377C488.564,-319.598 487.998,-308.408 488.944,-298.316"/>
<polygon fill="red" stroke="red" points="490.477,-288.342 493.405,-298.91 489.717,-293.284 488.958,-298.226 488.958,-298.226 488.958,-298.226 489.717,-293.284 484.51,-297.542 490.477,-288.342 490.477,-288.342"/>
</g>
<!-- aws_rds&#45;&gt;taskman -->
<g id="edge37" class="edge"><title>aws_rds&#45;&gt;taskman</title>
<path fill="none" stroke="#000099" d="M513.357,-328.377C515.436,-319.598 516.002,-308.408 515.056,-298.316"/>
<polygon fill="#000099" stroke="#000099" points="513.523,-288.342 519.49,-297.542 514.283,-293.284 515.042,-298.226 515.042,-298.226 515.042,-298.226 514.283,-293.284 510.595,-298.91 513.523,-288.342 513.523,-288.342"/>
</g>
<!-- wb&#45;&gt;usr_web -->
<g id="edge7" class="edge"><title>wb&#45;&gt;usr_web</title>
<path fill="none" stroke="black" d="M540.947,-400.953C557.331,-392.452 574.719,-380.05 584,-363 625.861,-286.1 617.128,-247.046 584,-166 579.541,-155.091 571.697,-145.195 563.39,-136.943"/>
<polygon fill="black" stroke="black" points="531.486,-405.512 538.54,-397.117 535.99,-403.341 540.494,-401.171 540.494,-401.171 540.494,-401.171 535.99,-403.341 542.448,-405.225 531.486,-405.512 531.486,-405.512"/>
<polygon fill="black" stroke="black" points="556.043,-130.13 566.435,-133.63 559.709,-133.53 563.375,-136.93 563.375,-136.93 563.375,-136.93 559.709,-133.53 560.316,-140.23 556.043,-130.13 556.043,-130.13"/>
</g>
<!-- wb&#45;&gt;aws_rds -->
<g id="edge6" class="edge"><title>wb&#45;&gt;aws_rds</title>
<path fill="none" stroke="black" d="M488.874,-389.658C488.355,-383.765 488.376,-377.522 488.937,-371.658"/>
<polygon fill="black" stroke="black" points="490.398,-399.765 484.457,-390.548 489.653,-394.821 488.907,-389.876 488.907,-389.876 488.907,-389.876 489.653,-394.821 493.357,-389.205 490.398,-399.765 490.398,-399.765"/>
<polygon fill="black" stroke="black" points="490.529,-361.666 493.399,-372.249 489.742,-366.603 488.955,-371.541 488.955,-371.541 488.955,-371.541 489.742,-366.603 484.511,-370.833 490.529,-361.666 490.529,-361.666"/>
</g>
<!-- wb&#45;&gt;aws_rds -->
<g id="edge22" class="edge"><title>wb&#45;&gt;aws_rds</title>
<path fill="none" stroke="red" d="M502,-398.697C502,-390.983 502,-381.712 502,-373.112"/>
<polygon fill="red" stroke="red" points="502,-363.104 506.5,-373.104 502,-368.104 502,-373.104 502,-373.104 502,-373.104 502,-368.104 497.5,-373.104 502,-363.104 502,-363.104"/>
</g>
<!-- wb&#45;&gt;aws_rds -->
<g id="edge36" class="edge"><title>wb&#45;&gt;aws_rds</title>
<path fill="none" stroke="#000099" d="M513.602,-399.765C515.472,-391.431 515.96,-381.082 515.067,-371.695"/>
<polygon fill="#000099" stroke="#000099" points="513.471,-361.666 519.486,-370.834 514.257,-366.604 515.042,-371.542 515.042,-371.542 515.042,-371.542 514.257,-366.604 510.598,-372.249 513.471,-361.666 513.471,-361.666"/>
</g>
<!-- taskman&#45;&gt;usr_mail -->
<g id="edge33" class="edge"><title>taskman&#45;&gt;usr_mail</title>
<path fill="none" stroke="#000099" d="M504.631,-253.001C506.346,-241.915 508.628,-227.175 510.613,-214.344"/>
<polygon fill="#000099" stroke="#000099" points="512.193,-204.136 515.111,-214.707 511.428,-209.077 510.664,-214.019 510.664,-214.019 510.664,-214.019 511.428,-209.077 506.217,-213.33 512.193,-204.136 512.193,-204.136"/>
</g>
<!-- taskman&#45;&gt;aws_rds -->
<g id="edge4" class="edge"><title>taskman&#45;&gt;aws_rds</title>
<path fill="none" stroke="black" d="M502,-299.686C502,-305.274 502,-311.145 502,-316.719"/>
<polygon fill="black" stroke="black" points="502,-289.441 506.5,-299.441 502,-294.441 502,-299.441 502,-299.441 502,-299.441 502,-294.441 497.5,-299.441 502,-289.441 502,-289.441"/>
<polygon fill="black" stroke="black" points="502,-326.937 497.5,-316.937 502,-321.937 502,-316.937 502,-316.937 502,-316.937 502,-321.937 506.5,-316.937 502,-326.937 502,-326.937"/>
</g>
<!-- mc_api -->
<g id="node12" class="node"><title>mc_api</title>
<ellipse fill="#55cc55" stroke="black" cx="672" cy="-185" rx="27" ry="18"/>
<text text-anchor="middle" x="672" y="-181.3" font-family="Times,serif" font-size="14.00">API</text>
</g>
<!-- taskman&#45;&gt;mc_api -->
<g id="edge5" class="edge"><title>taskman&#45;&gt;mc_api</title>
<path fill="none" stroke="black" d="M527.735,-256.966C542.407,-250.745 560.833,-242.937 577,-235 598.642,-224.376 622.392,-210.68 640.921,-200.47"/>
<polygon fill="black" stroke="black" points="649.83,-195.625 643.195,-204.356 645.438,-198.014 641.045,-200.402 641.045,-200.402 641.045,-200.402 645.438,-198.014 638.895,-196.449 649.83,-195.625 649.83,-195.625"/>
</g>
<!-- taskman&#45;&gt;mc_api -->
<g id="edge31" class="edge"><title>taskman&#45;&gt;mc_api</title>
<path fill="none" stroke="#000099" d="M544.735,-256.74C560.851,-250.557 579.028,-242.841 595,-235 616.904,-224.247 640.969,-210.347 656.522,-200.1"/>
<polygon fill="#000099" stroke="#000099" points="535.004,-260.38 542.794,-252.662 539.687,-258.628 544.371,-256.876 544.371,-256.876 544.371,-256.876 539.687,-258.628 545.947,-261.091 535.004,-260.38 535.004,-260.38"/>
</g>
<!-- fd_api -->
<g id="node17" class="node"><title>fd_api</title>
<ellipse fill="#55cc55" stroke="black" cx="437" cy="-185" rx="27" ry="18"/>
<text text-anchor="middle" x="437" y="-181.3" font-family="Times,serif" font-size="14.00">API</text>
</g>
<!-- taskman&#45;&gt;fd_api -->
<g id="edge17" class="edge"><title>taskman&#45;&gt;fd_api</title>
<path fill="none" stroke="red" d="M489.467,-253.804C479.752,-241.249 466.151,-223.672 455.231,-209.56"/>
<polygon fill="red" stroke="red" points="448.837,-201.297 458.516,-206.452 451.897,-205.251 454.957,-209.206 454.957,-209.206 454.957,-209.206 451.897,-205.251 451.398,-211.96 448.837,-201.297 448.837,-201.297"/>
</g>
<!-- mc_web -->
<g id="node13" class="node"><title>mc_web</title>
<polygon fill="#55cc55" stroke="black" points="728,-129 646,-129 646,-133 634,-133 634,-93 728,-93 728,-129"/>
<polyline fill="none" stroke="black" points="634,-129 646,-129 "/>
<text text-anchor="middle" x="681" y="-107.3" font-family="Times,serif" font-size="14.00">Web interface</text>
</g>
<!-- mc_api&#45;&gt;mc_web -->
<g id="edge3" class="edge"><title>mc_api&#45;&gt;mc_web</title>
<path fill="none" stroke="black" d="M668.293,-166.937C668.448,-158.719 669.46,-148.66 670.998,-139.406"/>
<polygon fill="black" stroke="black" points="672.94,-129.441 675.444,-140.117 671.984,-134.348 671.027,-139.256 671.027,-139.256 671.027,-139.256 671.984,-134.348 666.61,-138.395 672.94,-129.441 672.94,-129.441"/>
</g>
<!-- mc_api&#45;&gt;mc_web -->
<g id="edge32" class="edge"><title>mc_api&#45;&gt;mc_web</title>
<path fill="none" stroke="#000099" d="M681.799,-157.791C683.453,-148.2 684.548,-137.605 684.708,-129.025"/>
<polygon fill="#000099" stroke="#000099" points="679.803,-167.662 677.374,-156.969 680.794,-162.761 681.785,-157.86 681.785,-157.86 681.785,-157.86 680.794,-162.761 686.196,-158.752 679.803,-167.662 679.803,-167.662"/>
</g>
<!-- mc_web&#45;&gt;usr_mail -->
<g id="edge30" class="edge"><title>mc_web&#45;&gt;usr_mail</title>
<path fill="none" stroke="#000099" d="M641.567,-129.104C614.218,-140.966 578.063,-156.647 551.4,-168.212"/>
<polygon fill="#000099" stroke="#000099" points="542.04,-172.272 549.424,-164.164 546.627,-170.282 551.214,-168.292 551.214,-168.292 551.214,-168.292 546.627,-170.282 553.005,-172.421 542.04,-172.272 542.04,-172.272"/>
</g>
<!-- mc_staff -->
<g id="node14" class="node"><title>mc_staff</title>
<polygon fill="#aabbff" stroke="black" points="682.5,-42 684,-43.5 684,-46.5 682.5,-48 679.5,-48 678,-46.5 678,-43.5 679.5,-42 682.5,-42"/>
<polyline fill="none" stroke="black" points="681,-42 681,-36 "/>
<polyline fill="none" stroke="black" points="654,-36 708,-36 "/>
<text text-anchor="middle" x="681" y="-24.3" font-family="Times,serif" font-size="14.00">Staff</text>
</g>
<!-- mc_web&#45;&gt;mc_staff -->
<g id="edge29" class="edge"><title>mc_web&#45;&gt;mc_staff</title>
<path fill="none" stroke="#000099" d="M681,-82.6603C681,-73.6771 681,-63.9025 681,-55.7104"/>
<polygon fill="#000099" stroke="#000099" points="681,-92.7 676.5,-82.7 681,-87.7 681,-82.7 681,-82.7 681,-82.7 681,-87.7 685.5,-82.7001 681,-92.7 681,-92.7"/>
</g>
<!-- fd_web -->
<g id="node16" class="node"><title>fd_web</title>
<polygon fill="#55cc55" stroke="black" points="443,-129 361,-129 361,-133 349,-133 349,-93 443,-93 443,-129"/>
<polyline fill="none" stroke="black" points="349,-129 361,-129 "/>
<text text-anchor="middle" x="396" y="-107.3" font-family="Times,serif" font-size="14.00">Web interface</text>
</g>
<!-- fd_mail&#45;&gt;fd_web -->
<g id="edge15" class="edge"><title>fd_mail&#45;&gt;fd_web</title>
<path fill="none" stroke="red" d="M368.531,-166.937C372.773,-158.454 377.995,-148.009 382.744,-138.513"/>
<polygon fill="red" stroke="red" points="387.28,-129.441 386.832,-140.397 385.044,-133.913 382.807,-138.385 382.807,-138.385 382.807,-138.385 385.044,-133.913 378.783,-136.372 387.28,-129.441 387.28,-129.441"/>
</g>
<!-- fd_web&#45;&gt;gmail -->
<g id="edge28" class="edge"><title>fd_web&#45;&gt;gmail</title>
<path fill="none" stroke="#000099" d="M365.99,-92.8847C348.844,-83.1065 327.114,-70.7135 308.476,-60.084"/>
<polygon fill="#000099" stroke="#000099" points="299.608,-55.0266 310.524,-56.0718 303.952,-57.5037 308.295,-59.9808 308.295,-59.9808 308.295,-59.9808 303.952,-57.5037 306.066,-63.8898 299.608,-55.0266 299.608,-55.0266"/>
</g>
<!-- fd_web&#45;&gt;usr_mail -->
<g id="edge27" class="edge"><title>fd_web&#45;&gt;usr_mail</title>
<path fill="none" stroke="#000099" d="M424.138,-129.025C440.583,-138.975 461.504,-151.633 479.125,-162.294"/>
<polygon fill="#000099" stroke="#000099" points="487.997,-167.662 477.112,-166.336 483.719,-165.074 479.441,-162.485 479.441,-162.485 479.441,-162.485 483.719,-165.074 481.771,-158.635 487.997,-167.662 487.997,-167.662"/>
</g>
<!-- fd_staff -->
<g id="node18" class="node"><title>fd_staff</title>
<polygon fill="#aabbff" stroke="black" points="397.5,-42 399,-43.5 399,-46.5 397.5,-48 394.5,-48 393,-46.5 393,-43.5 394.5,-42 397.5,-42"/>
<polyline fill="none" stroke="black" points="396,-42 396,-36 "/>
<polyline fill="none" stroke="black" points="369,-36 423,-36 "/>
<text text-anchor="middle" x="396" y="-24.3" font-family="Times,serif" font-size="14.00">Staff</text>
</g>
<!-- fd_web&#45;&gt;fd_staff -->
<g id="edge16" class="edge"><title>fd_web&#45;&gt;fd_staff</title>
<path fill="none" stroke="red" d="M390.16,-92.7C389.323,-84.6997 389.063,-74.979 389.381,-65.9119"/>
<polygon fill="red" stroke="red" points="390.02,-55.7104 393.886,-65.9721 389.708,-60.7007 389.395,-65.6909 389.395,-65.6909 389.395,-65.6909 389.708,-60.7007 384.904,-65.4097 390.02,-55.7104 390.02,-55.7104"/>
</g>
<!-- fd_web&#45;&gt;fd_staff -->
<g id="edge26" class="edge"><title>fd_web&#45;&gt;fd_staff</title>
<path fill="none" stroke="#000099" d="M402.557,-82.6603C402.943,-73.6771 402.75,-63.9025 401.98,-55.7104"/>
<polygon fill="#000099" stroke="#000099" points="401.84,-92.7 398.064,-82.4046 402.196,-87.7127 402.553,-82.7255 402.553,-82.7255 402.553,-82.7255 402.196,-87.7127 407.041,-83.0463 401.84,-92.7 401.84,-92.7"/>
</g>
<!-- fd_api&#45;&gt;fd_web -->
<g id="edge2" class="edge"><title>fd_api&#45;&gt;fd_web</title>
<path fill="none" stroke="black" d="M427.901,-168.021C422.879,-159.203 416.52,-148.035 410.803,-137.995"/>
<polygon fill="black" stroke="black" points="405.79,-129.191 414.648,-135.655 408.264,-133.536 410.738,-137.881 410.738,-137.881 410.738,-137.881 408.264,-133.536 406.828,-140.108 405.79,-129.191 405.79,-129.191"/>
</g>
<!-- crm_mail -->
<g id="node19" class="node"><title>crm_mail</title>
<polygon fill="#aabbff" stroke="black" points="769.25,-435 766.25,-439 745.25,-439 742.25,-435 706.75,-435 706.75,-399 769.25,-399 769.25,-435"/>
<text text-anchor="middle" x="738" y="-413.3" font-family="Times,serif" font-size="14.00">Mailbox</text>
</g>
<!-- crm_web -->
<g id="node20" class="node"><title>crm_web</title>
<polygon fill="#55cc55" stroke="black" points="770,-363 688,-363 688,-367 676,-367 676,-327 770,-327 770,-363"/>
<polyline fill="none" stroke="black" points="676,-363 688,-363 "/>
<text text-anchor="middle" x="723" y="-341.3" font-family="Times,serif" font-size="14.00">Web interface</text>
</g>
<!-- crm_mail&#45;&gt;crm_web -->
<g id="edge8" class="edge"><title>crm_mail&#45;&gt;crm_web</title>
<path fill="none" stroke="red" d="M728.376,-398.697C725.928,-390.983 723.715,-381.712 722.215,-373.112"/>
<polygon fill="red" stroke="red" points="720.77,-363.104 726.652,-372.359 721.484,-368.053 722.199,-373.002 722.199,-373.002 722.199,-373.002 721.484,-368.053 717.745,-373.645 720.77,-363.104 720.77,-363.104"/>
</g>
<!-- crm_mail&#45;&gt;crm_web -->
<g id="edge24" class="edge"><title>crm_mail&#45;&gt;crm_web</title>
<path fill="none" stroke="#000099" d="M740.208,-398.697C739.341,-390.898 737.552,-381.509 735.333,-372.829"/>
<polygon fill="#000099" stroke="#000099" points="732.56,-363.104 739.63,-371.487 733.931,-367.913 735.302,-372.721 735.302,-372.721 735.302,-372.721 733.931,-367.913 730.975,-373.955 732.56,-363.104 732.56,-363.104"/>
</g>
<!-- crm_staff -->
<g id="node22" class="node"><title>crm_staff</title>
<polygon fill="#aabbff" stroke="black" points="724.5,-277 726,-278.5 726,-281.5 724.5,-283 721.5,-283 720,-281.5 720,-278.5 721.5,-277 724.5,-277"/>
<polyline fill="none" stroke="black" points="723,-277 723,-271 "/>
<polyline fill="none" stroke="black" points="696,-271 750,-271 "/>
<text text-anchor="middle" x="723" y="-259.3" font-family="Times,serif" font-size="14.00">Staff</text>
</g>
<!-- crm_web&#45;&gt;crm_staff -->
<g id="edge9" class="edge"><title>crm_web&#45;&gt;crm_staff</title>
<path fill="none" stroke="red" d="M717.16,-326.937C716.329,-319.106 716.067,-309.604 716.374,-300.719"/>
<polygon fill="red" stroke="red" points="716.996,-290.71 720.867,-300.97 716.686,-295.701 716.376,-300.691 716.376,-300.691 716.376,-300.691 716.686,-295.701 711.885,-300.412 716.996,-290.71 716.996,-290.71"/>
</g>
<!-- crm_web&#45;&gt;crm_staff -->
<g id="edge25" class="edge"><title>crm_web&#45;&gt;crm_staff</title>
<path fill="none" stroke="#000099" d="M728.84,-326.937C729.671,-319.106 729.933,-309.604 729.626,-300.719"/>
<polygon fill="#000099" stroke="#000099" points="729.004,-290.71 734.115,-300.412 729.314,-295.701 729.624,-300.691 729.624,-300.691 729.624,-300.691 729.314,-295.701 725.133,-300.97 729.004,-290.71 729.004,-290.71"/>
</g>
<!-- crm_api -->
<g id="node21" class="node"><title>crm_api</title>
<ellipse fill="#55cc55" stroke="black" cx="661" cy="-417" rx="27" ry="18"/>
<text text-anchor="middle" x="661" y="-413.3" font-family="Times,serif" font-size="14.00">API</text>
</g>
<!-- crm_api&#45;&gt;crm_web -->
<g id="edge1" class="edge"><title>crm_api&#45;&gt;crm_web</title>
<path fill="none" stroke="black" d="M674.149,-401.155C682.023,-392.264 692.229,-380.742 701.274,-370.529"/>
<polygon fill="black" stroke="black" points="707.907,-363.04 704.646,-373.51 704.592,-366.783 701.277,-370.526 701.277,-370.526 701.277,-370.526 704.592,-366.783 697.908,-367.542 707.907,-363.04 707.907,-363.04"/>
</g>
</g>
</svg>
