<?xml version="1.0" encoding="UTF-8" standalone="no"?>
<!DOCTYPE svg PUBLIC "-//W3C//DTD SVG 1.1//EN"
 "http://www.w3.org/Graphics/SVG/1.1/DTD/svg11.dtd">
<!-- Generated by graphviz version 2.43.20190912.0211 (20190912.0211)
 -->
<!-- Title: %3 Pages: 1 -->
<svg width="684pt" height="942pt"
 viewBox="0.00 0.00 684.00 942.03" xmlns="http://www.w3.org/2000/svg" xmlns:xlink="http://www.w3.org/1999/xlink">
<g id="graph0" class="graph" transform="scale(1 1) rotate(0) translate(4 938.03)">
<title>%3</title>
<polygon fill="white" stroke="transparent" points="-4,4 -4,-938.03 680,-938.03 680,4 -4,4"/>
<g id="clust1" class="cluster">
<title>cluster_AWS</title>
<polygon fill="#eeffdd" stroke="black" points="8,-8 8,-871.03 668,-871.03 668,-8 8,-8"/>
<text text-anchor="middle" x="338" y="-855.83" font-family="Times,serif" font-size="14.00">AWS</text>
</g>
<g id="clust2" class="cluster">
<title>cluster_VPC</title>
<polygon fill="white" stroke="black" points="16,-103.74 16,-778.29 660,-778.29 660,-103.74 16,-103.74"/>
<text text-anchor="middle" x="338" y="-763.09" font-family="Times,serif" font-size="14.00">VPC</text>
</g>
<g id="clust3" class="cluster">
<title>cluster_public</title>
<polygon fill="#999999" stroke="black" points="258,-633.34 258,-747.29 647,-747.29 647,-633.34 258,-633.34"/>
<text text-anchor="middle" x="452.5" y="-732.09" font-family="Times,serif" font-size="14.00">Public subnet</text>
</g>
<g id="clust4" class="cluster">
<title>cluster_private</title>
<polygon fill="#dddddd" stroke="black" points="24,-111.74 24,-614.34 652,-614.34 652,-111.74 24,-111.74"/>
<text text-anchor="middle" x="338" y="-599.14" font-family="Times,serif" font-size="14.00">Private subnet</text>
</g>
<g id="clust5" class="cluster">
<title>cluster_ecs2_app</title>
<polygon fill="#ffeeee" stroke="black" points="149,-454.96 149,-547.7 524,-547.7 524,-454.96 149,-454.96"/>
<text text-anchor="middle" x="336.5" y="-532.5" font-family="Times,serif" font-size="14.00">App ECS Cluster / AGS / EC2s</text>
</g>
<g id="clust6" class="cluster">
<title>cluster_rds</title>
<path fill="#ffee44" stroke="black" d="M308,-352.09C308,-352.09 620,-352.09 620,-352.09 626,-352.09 632,-358.09 632,-364.09 632,-364.09 632,-415.09 632,-415.09 632,-421.09 626,-427.09 620,-427.09 620,-427.09 308,-427.09 308,-427.09 302,-427.09 296,-421.09 296,-415.09 296,-415.09 296,-364.09 296,-364.09 296,-358.09 302,-352.09 308,-352.09"/>
<text text-anchor="middle" x="464" y="-411.89" font-family="Times,serif" font-size="14.00">RDS</text>
</g>
<g id="clust7" class="cluster">
<title>cluster_ecs2_ops</title>
<polygon fill="#ffeeee" stroke="black" points="166,-119.74 166,-324.22 410,-324.22 410,-119.74 166,-119.74"/>
<text text-anchor="middle" x="288" y="-309.02" font-family="Times,serif" font-size="14.00">Ops ECS Cluster / ASG / EC2s</text>
</g>
<!-- internet -->
<g id="node1" class="node">
<title>internet</title>
<ellipse fill="#aa1111" stroke="black" cx="468" cy="-916.03" rx="48.99" ry="18"/>
<text text-anchor="middle" x="468" y="-912.33" font-family="Times,serif" font-size="14.00" fill="white">Internet</text>
</g>
<!-- dns_shipreq -->
<g id="node2" class="node">
<title>dns_shipreq</title>
<ellipse fill="#ffee44" stroke="black" cx="322" cy="-813.16" rx="73.58" ry="26.74"/>
<text text-anchor="middle" x="322" y="-816.96" font-family="Times,serif" font-size="14.00">DNS:</text>
<text text-anchor="middle" x="322" y="-801.96" font-family="Times,serif" font-size="14.00">shipreq.com</text>
</g>
<!-- internet&#45;&gt;dns_shipreq -->
<g id="edge2" class="edge">
<title>internet&#45;&gt;dns_shipreq</title>
<path fill="none" stroke="red" d="M446.14,-899.93C424.46,-884.96 390.7,-861.62 363.85,-843.08"/>
<polygon fill="red" stroke="red" points="365.61,-840.04 355.4,-837.24 361.63,-845.8 365.61,-840.04"/>
</g>
<!-- eip_bastion -->
<g id="node4" class="node">
<title>eip_bastion</title>
<ellipse fill="#ffee44" stroke="black" cx="468" cy="-813.16" rx="50.41" ry="26.74"/>
<text text-anchor="middle" x="468" y="-816.96" font-family="Times,serif" font-size="14.00">EIP:</text>
<text text-anchor="middle" x="468" y="-801.96" font-family="Times,serif" font-size="14.00">Bastion</text>
</g>
<!-- internet&#45;&gt;eip_bastion -->
<g id="edge4" class="edge">
<title>internet&#45;&gt;eip_bastion</title>
<path fill="none" stroke="red" d="M468,-897.92C468,-884.92 468,-866.57 468,-850.36"/>
<polygon fill="red" stroke="red" points="471.5,-850.09 468,-840.09 464.5,-850.09 471.5,-850.09"/>
</g>
<!-- nat -->
<g id="node7" class="node">
<title>nat</title>
<ellipse fill="#ffee44" stroke="black" cx="603" cy="-678.82" rx="36.12" ry="26.74"/>
<text text-anchor="middle" x="603" y="-682.62" font-family="Times,serif" font-size="14.00">EC2:</text>
<text text-anchor="middle" x="603" y="-667.62" font-family="Times,serif" font-size="14.00">NAT</text>
</g>
<!-- internet&#45;&gt;nat -->
<g id="edge8" class="edge">
<title>internet&#45;&gt;nat</title>
<path fill="none" stroke="blue" d="M516.86,-901.23C532.72,-894.5 549.03,-884.79 560,-871.03 598.81,-822.34 604.11,-745.55 603.97,-705.72"/>
<polygon fill="blue" stroke="blue" points="515.14,-898.14 507.09,-905.04 517.68,-904.66 515.14,-898.14"/>
</g>
<!-- elb_webapp -->
<g id="node6" class="node">
<title>elb_webapp</title>
<ellipse fill="#ffee44" stroke="black" cx="318" cy="-678.82" rx="51.74" ry="26.74"/>
<text text-anchor="middle" x="318" y="-682.62" font-family="Times,serif" font-size="14.00">ALB:</text>
<text text-anchor="middle" x="318" y="-667.62" font-family="Times,serif" font-size="14.00">Webapp</text>
</g>
<!-- dns_shipreq&#45;&gt;elb_webapp -->
<g id="edge3" class="edge">
<title>dns_shipreq&#45;&gt;elb_webapp</title>
<path fill="none" stroke="red" d="M321.21,-786.02C320.6,-765.99 319.76,-738.12 319.09,-715.96"/>
<polygon fill="red" stroke="red" points="322.59,-715.8 318.79,-705.91 315.59,-716.01 322.59,-715.8"/>
</g>
<!-- ebs_prometheus -->
<g id="node3" class="node">
<title>ebs_prometheus</title>
<ellipse fill="#ffee44" stroke="black" cx="329" cy="-42.87" rx="72.66" ry="26.74"/>
<text text-anchor="middle" x="329" y="-46.67" font-family="Times,serif" font-size="14.00">EBS:</text>
<text text-anchor="middle" x="329" y="-31.67" font-family="Times,serif" font-size="14.00">Prometheus</text>
</g>
<!-- bastion -->
<g id="node8" class="node">
<title>bastion</title>
<ellipse fill="#ffee44" stroke="red" cx="468" cy="-678.82" rx="80.72" ry="37.45"/>
<text text-anchor="middle" x="468" y="-690.12" font-family="Times,serif" font-size="14.00">EC2:</text>
<text text-anchor="middle" x="468" y="-675.12" font-family="Times,serif" font-size="14.00">Bastion &amp;</text>
<text text-anchor="middle" x="468" y="-660.12" font-family="Times,serif" font-size="14.00">devops portal</text>
</g>
<!-- eip_bastion&#45;&gt;bastion -->
<g id="edge5" class="edge">
<title>eip_bastion&#45;&gt;bastion</title>
<path fill="none" stroke="red" d="M468,-786.02C468,-769.08 468,-746.54 468,-726.59"/>
<polygon fill="red" stroke="red" points="471.5,-726.43 468,-716.43 464.5,-726.43 471.5,-726.43"/>
</g>
<!-- internal_dns -->
<g id="node5" class="node">
<title>internal_dns</title>
<ellipse fill="#ffee44" stroke="black" cx="139" cy="-678.82" rx="104.8" ry="37.45"/>
<text text-anchor="middle" x="139" y="-690.12" font-family="Times,serif" font-size="14.00">Private DNS:</text>
<text text-anchor="middle" x="139" y="-675.12" font-family="Times,serif" font-size="14.00">&lt;env&gt;.sd.internal</text>
<text text-anchor="middle" x="139" y="-660.12" font-family="Times,serif" font-size="14.00">&lt;env&gt;.internal</text>
</g>
<!-- docker_webapp -->
<g id="node13" class="node">
<title>docker_webapp</title>
<ellipse fill="#ffee44" stroke="black" cx="464" cy="-489.83" rx="51.74" ry="26.74"/>
<text text-anchor="middle" x="464" y="-493.63" font-family="Times,serif" font-size="14.00">Docker:</text>
<text text-anchor="middle" x="464" y="-478.63" font-family="Times,serif" font-size="14.00">Webapp</text>
</g>
<!-- elb_webapp&#45;&gt;docker_webapp -->
<g id="edge6" class="edge">
<title>elb_webapp&#45;&gt;docker_webapp</title>
<path fill="none" stroke="red" d="M332.84,-652.86C345.93,-631.46 365.99,-600.16 386,-574.7 400.57,-556.16 418.38,-536.8 433.3,-521.35"/>
<polygon fill="red" stroke="red" points="435.89,-523.71 440.37,-514.11 430.88,-518.82 435.89,-523.71"/>
</g>
<!-- subnet_private -->
<g id="node9" class="node">
<title>subnet_private</title>
<ellipse fill="blue" stroke="black" cx="468" cy="-579.02" rx="4.32" ry="4.32"/>
</g>
<!-- nat&#45;&gt;subnet_private -->
<g id="edge9" class="edge">
<title>nat&#45;&gt;subnet_private</title>
<path fill="none" stroke="blue" d="M575.59,-648.65C569.99,-643.3 563.98,-637.95 558,-633.34 526.94,-609.38 484.22,-587.89 471.63,-581.76"/>
<polygon fill="blue" stroke="blue" points="573.34,-651.35 582.92,-655.87 578.26,-646.36 573.34,-651.35"/>
</g>
<!-- bastion&#45;&gt;subnet_private -->
<g id="edge7" class="edge">
<title>bastion&#45;&gt;subnet_private</title>
<path fill="none" stroke="red" d="M468,-641.12C468,-624.55 468,-605.98 468,-593.71"/>
<polygon fill="red" stroke="red" points="471.5,-593.55 468,-583.55 464.5,-593.55 471.5,-593.55"/>
</g>
<!-- subnet_private&#45;&gt;docker_webapp -->
<!-- redis -->
<g id="node10" class="node">
<title>redis</title>
<ellipse fill="#ffee44" stroke="black" cx="249" cy="-378.09" rx="36.29" ry="18"/>
<text text-anchor="middle" x="249" y="-374.39" font-family="Times,serif" font-size="14.00">Redis</text>
</g>
<!-- es -->
<g id="node11" class="node">
<title>es</title>
<ellipse fill="#ffee44" stroke="black" cx="113" cy="-378.09" rx="81.13" ry="26.74"/>
<text text-anchor="middle" x="113" y="-381.89" font-family="Times,serif" font-size="14.00">ElasticSearch</text>
<text text-anchor="middle" x="113" y="-366.89" font-family="Times,serif" font-size="14.00">&amp; Kibana</text>
</g>
<!-- docker_filebeatO -->
<g id="node18" class="node">
<title>docker_filebeatO</title>
<ellipse fill="#ffee44" stroke="black" cx="227" cy="-266.35" rx="53.07" ry="26.74"/>
<text text-anchor="middle" x="227" y="-270.15" font-family="Times,serif" font-size="14.00">Docker:</text>
<text text-anchor="middle" x="227" y="-255.15" font-family="Times,serif" font-size="14.00">Filebeat</text>
</g>
<!-- es&#45;&gt;docker_filebeatO -->
<g id="edge11" class="edge">
<title>es&#45;&gt;docker_filebeatO</title>
<path fill="none" stroke="green" d="M146.12,-345.21C164.34,-327.67 186.53,-306.3 203.06,-290.4"/>
<polygon fill="green" stroke="green" points="143.36,-343.01 138.58,-352.46 148.22,-348.05 143.36,-343.01"/>
</g>
<!-- docker_filebeatA -->
<g id="node12" class="node">
<title>docker_filebeatA</title>
<ellipse fill="#ffee44" stroke="black" cx="210" cy="-489.83" rx="53.07" ry="26.74"/>
<text text-anchor="middle" x="210" y="-493.63" font-family="Times,serif" font-size="14.00">Docker:</text>
<text text-anchor="middle" x="210" y="-478.63" font-family="Times,serif" font-size="14.00">Filebeat</text>
</g>
<!-- docker_filebeatA&#45;&gt;es -->
<g id="edge10" class="edge">
<title>docker_filebeatA&#45;&gt;es</title>
<path fill="none" stroke="green" d="M188.95,-465.02C175.13,-449.38 156.88,-428.73 141.73,-411.6"/>
<polygon fill="green" stroke="green" points="144.26,-409.17 135.02,-404 139.02,-413.81 144.26,-409.17"/>
</g>
<!-- docker_webapp&#45;&gt;redis -->
<g id="edge16" class="edge">
<title>docker_webapp&#45;&gt;redis</title>
<path fill="none" stroke="green" d="M431.78,-468.54C423,-463.6 413.34,-458.68 404,-454.96 356.34,-435.99 335.94,-453.56 292,-427.09 282.12,-421.14 273.23,-412.2 266.13,-403.65"/>
<polygon fill="green" stroke="green" points="268.81,-401.39 259.89,-395.67 263.29,-405.7 268.81,-401.39"/>
</g>
<!-- rds_shipreq -->
<g id="node15" class="node">
<title>rds_shipreq</title>
<ellipse fill="#fff8f0" stroke="black" cx="578" cy="-378.09" rx="46.29" ry="18"/>
<text text-anchor="middle" x="578" y="-374.39" font-family="Times,serif" font-size="14.00">shipreq</text>
</g>
<!-- docker_webapp&#45;&gt;rds_shipreq -->
<g id="edge17" class="edge">
<title>docker_webapp&#45;&gt;rds_shipreq</title>
<path fill="none" stroke="green" d="M487.9,-465.83C507.38,-447.07 534.76,-420.72 554.21,-401.99"/>
<polygon fill="green" stroke="green" points="556.72,-404.43 561.5,-394.97 551.87,-399.39 556.72,-404.43"/>
</g>
<!-- rds_taskman -->
<g id="node16" class="node">
<title>rds_taskman</title>
<ellipse fill="#fff8f0" stroke="black" cx="464" cy="-378.09" rx="50.09" ry="18"/>
<text text-anchor="middle" x="464" y="-374.39" font-family="Times,serif" font-size="14.00">taskman</text>
</g>
<!-- docker_webapp&#45;&gt;rds_taskman -->
<g id="edge18" class="edge">
<title>docker_webapp&#45;&gt;rds_taskman</title>
<path fill="none" stroke="green" d="M464,-462.82C464,-445.82 464,-423.64 464,-406.38"/>
<polygon fill="green" stroke="green" points="467.5,-406.36 464,-396.36 460.5,-406.36 467.5,-406.36"/>
</g>
<!-- docker_prometheus -->
<g id="node19" class="node">
<title>docker_prometheus</title>
<ellipse fill="#ffee44" stroke="black" cx="329" cy="-154.61" rx="72.66" ry="26.74"/>
<text text-anchor="middle" x="329" y="-158.41" font-family="Times,serif" font-size="14.00">Docker:</text>
<text text-anchor="middle" x="329" y="-143.41" font-family="Times,serif" font-size="14.00">Prometheus</text>
</g>
<!-- docker_webapp&#45;&gt;docker_prometheus -->
<g id="edge14" class="edge">
<title>docker_webapp&#45;&gt;docker_prometheus</title>
<path fill="none" stroke="green" d="M525.31,-484.16C563.96,-477.67 611.11,-462.46 636,-427.09 655.4,-399.51 652.22,-380.78 636,-351.22 582.43,-253.56 457.1,-197.66 384.22,-172.3"/>
<polygon fill="green" stroke="green" points="524.54,-480.74 515.18,-485.7 525.59,-487.66 524.54,-480.74"/>
</g>
<!-- docker_taskman -->
<g id="node14" class="node">
<title>docker_taskman</title>
<ellipse fill="#ffee44" stroke="black" cx="338" cy="-489.83" rx="56.64" ry="26.74"/>
<text text-anchor="middle" x="338" y="-493.63" font-family="Times,serif" font-size="14.00">Docker:</text>
<text text-anchor="middle" x="338" y="-478.63" font-family="Times,serif" font-size="14.00">Taskman</text>
</g>
<!-- docker_taskman&#45;&gt;redis -->
<g id="edge19" class="edge">
<title>docker_taskman&#45;&gt;redis</title>
<path fill="none" stroke="green" d="M318.25,-464.48C303.42,-446.19 283.2,-421.26 268.45,-403.07"/>
<polygon fill="green" stroke="green" points="271.1,-400.79 262.09,-395.23 265.67,-405.2 271.1,-400.79"/>
</g>
<!-- docker_taskman&#45;&gt;rds_taskman -->
<g id="edge20" class="edge">
<title>docker_taskman&#45;&gt;rds_taskman</title>
<path fill="none" stroke="green" d="M364.41,-465.83C386.04,-446.99 416.47,-420.48 437.99,-401.74"/>
<polygon fill="green" stroke="green" points="440.52,-404.18 445.76,-394.97 435.92,-398.9 440.52,-404.18"/>
</g>
<!-- rds_grafana -->
<g id="node17" class="node">
<title>rds_grafana</title>
<ellipse fill="#fff8f0" stroke="black" cx="350" cy="-378.09" rx="46.29" ry="18"/>
<text text-anchor="middle" x="350" y="-374.39" font-family="Times,serif" font-size="14.00">grafana</text>
</g>
<!-- docker_grafana -->
<g id="node20" class="node">
<title>docker_grafana</title>
<ellipse fill="#ffee44" stroke="black" cx="350" cy="-266.35" rx="52.15" ry="26.74"/>
<text text-anchor="middle" x="350" y="-270.15" font-family="Times,serif" font-size="14.00">Docker:</text>
<text text-anchor="middle" x="350" y="-255.15" font-family="Times,serif" font-size="14.00">Grafana</text>
</g>
<!-- rds_grafana&#45;&gt;docker_grafana -->
<g id="edge13" class="edge">
<title>rds_grafana&#45;&gt;docker_grafana</title>
<path fill="none" stroke="green" d="M350,-349.92C350,-332.64 350,-310.4 350,-293.36"/>
<polygon fill="green" stroke="green" points="346.5,-349.94 350,-359.94 353.5,-349.94 346.5,-349.94"/>
</g>
<!-- docker_prometheus&#45;&gt;ebs_prometheus -->
<g id="edge12" class="edge">
<title>docker_prometheus&#45;&gt;ebs_prometheus</title>
<path fill="none" stroke="green" d="M329,-127.6C329,-113.49 329,-95.82 329,-80.36"/>
<polygon fill="green" stroke="green" points="332.5,-80.07 329,-70.07 325.5,-80.07 332.5,-80.07"/>
</g>
<!-- docker_grafana&#45;&gt;docker_prometheus -->
<g id="edge15" class="edge">
<title>docker_grafana&#45;&gt;docker_prometheus</title>
<path fill="none" stroke="green" d="M345.02,-239.34C342.28,-224.99 338.83,-206.96 335.83,-191.31"/>
<polygon fill="green" stroke="green" points="339.26,-190.59 333.94,-181.43 332.38,-191.91 339.26,-190.59"/>
</g>
</g>
</svg>
