<?xml version="1.0" encoding="UTF-8" standalone="no"?>
<!DOCTYPE svg PUBLIC "-//W3C//DTD SVG 1.1//EN"
 "http://www.w3.org/Graphics/SVG/1.1/DTD/svg11.dtd">
<!-- Generated by graphviz version 2.43.20190912.0211 (20190912.0211)
 -->
<!-- Title: %3 Pages: 1 -->
<svg width="1156pt" height="1070pt"
 viewBox="0.00 0.00 1155.81 1069.65" xmlns="http://www.w3.org/2000/svg" xmlns:xlink="http://www.w3.org/1999/xlink">
<g id="graph0" class="graph" transform="scale(1 1) rotate(0) translate(4 1065.65)">
<title>%3</title>
<polygon fill="white" stroke="transparent" points="-4,4 -4,-1065.65 1151.81,-1065.65 1151.81,4 -4,4"/>
<g id="clust1" class="cluster">
<title>cluster_AWS</title>
<polygon fill="#eeffee" stroke="black" points="9.81,-8 9.81,-948.65 1139.81,-948.65 1139.81,-8 9.81,-8"/>
<text text-anchor="middle" x="574.81" y="-933.45" font-family="Times,serif" font-size="14.00">AWS</text>
</g>
<g id="clust2" class="cluster">
<title>cluster_VPC</title>
<polygon fill="white" stroke="black" points="17.81,-145.74 17.81,-848.91 1019.81,-848.91 1019.81,-145.74 17.81,-145.74"/>
<text text-anchor="middle" x="518.81" y="-833.71" font-family="Times,serif" font-size="14.00">VPC</text>
</g>
<g id="clust3" class="cluster">
<title>cluster_public</title>
<polygon fill="#999999" stroke="black" points="286.81,-664.96 286.81,-817.91 738.81,-817.91 738.81,-664.96 286.81,-664.96"/>
<text text-anchor="middle" x="512.81" y="-802.71" font-family="Times,serif" font-size="14.00">Public subnet</text>
</g>
<g id="clust4" class="cluster">
<title>cluster_sg_bastion</title>
<polygon fill="white" stroke="black" points="526.81,-672.96 526.81,-786.91 730.81,-786.91 730.81,-672.96 526.81,-672.96"/>
<text text-anchor="middle" x="628.81" y="-771.71" font-family="Times,serif" font-size="14.00">SG: Bastion</text>
</g>
<g id="clust5" class="cluster">
<title>cluster_private_app</title>
<polygon fill="#cccccc" stroke="black" points="47.81,-332.35 47.81,-656.96 491.81,-656.96 491.81,-332.35 47.81,-332.35"/>
<text text-anchor="middle" x="269.81" y="-641.76" font-family="Times,serif" font-size="14.00">Private app subnet</text>
</g>
<g id="clust6" class="cluster">
<title>cluster_sg_rds</title>
<polygon fill="white" stroke="black" points="145.81,-340.35 145.81,-415.35 250.81,-415.35 250.81,-340.35 145.81,-340.35"/>
<text text-anchor="middle" x="198.31" y="-400.15" font-family="Times,serif" font-size="14.00">SG: RDS</text>
</g>
<g id="clust7" class="cluster">
<title>cluster_sg_redis</title>
<polygon fill="white" stroke="black" points="303.81,-340.35 303.81,-415.35 418.81,-415.35 418.81,-340.35 303.81,-340.35"/>
<text text-anchor="middle" x="361.31" y="-400.15" font-family="Times,serif" font-size="14.00">SG: Redis</text>
</g>
<g id="clust8" class="cluster">
<title>cluster_sg_app</title>
<polygon fill="white" stroke="black" points="55.81,-494.22 55.81,-625.96 464.81,-625.96 464.81,-494.22 55.81,-494.22"/>
<text text-anchor="middle" x="260.31" y="-610.76" font-family="Times,serif" font-size="14.00">SG: App</text>
</g>
<g id="clust9" class="cluster">
<title>cluster_ecs2_app</title>
<polygon fill="#ffeeee" stroke="black" points="63.81,-502.22 63.81,-594.96 438.81,-594.96 438.81,-502.22 63.81,-502.22"/>
<text text-anchor="middle" x="251.31" y="-579.76" font-family="Times,serif" font-size="14.00">App ECS Cluster / AGS / EC2s</text>
</g>
<g id="clust10" class="cluster">
<title>cluster_private_ops</title>
<polygon fill="#cccccc" stroke="black" points="499.81,-153.74 499.81,-486.22 1011.81,-486.22 1011.81,-153.74 499.81,-153.74"/>
<text text-anchor="middle" x="755.81" y="-471.02" font-family="Times,serif" font-size="14.00">Private ops subnet</text>
</g>
<g id="clust11" class="cluster">
<title>cluster_sg_es</title>
<polygon fill="white" stroke="black" points="526.81,-331.48 526.81,-424.22 731.81,-424.22 731.81,-331.48 526.81,-331.48"/>
<text text-anchor="middle" x="629.31" y="-409.02" font-family="Times,serif" font-size="14.00">SG: ES</text>
</g>
<g id="clust12" class="cluster">
<title>cluster_sg_ops</title>
<polygon fill="white" stroke="black" points="739.81,-161.74 739.81,-455.22 1003.81,-455.22 1003.81,-161.74 739.81,-161.74"/>
<text text-anchor="middle" x="871.81" y="-440.02" font-family="Times,serif" font-size="14.00">SG: Ops</text>
</g>
<g id="clust13" class="cluster">
<title>cluster_ecs2_ops</title>
<polygon fill="#ffeeee" stroke="black" points="763.81,-169.74 763.81,-424.22 995.81,-424.22 995.81,-169.74 763.81,-169.74"/>
<text text-anchor="middle" x="879.81" y="-409.02" font-family="Times,serif" font-size="14.00">Ops ECS Cluster / ASG / EC2s</text>
</g>
<!-- internet -->
<g id="node1" class="node">
<title>internet</title>
<ellipse fill="#ffee44" stroke="black" cx="488.81" cy="-1043.65" rx="48.99" ry="18"/>
<text text-anchor="middle" x="488.81" y="-1039.95" font-family="Times,serif" font-size="14.00">Internet</text>
</g>
<!-- dns_shipreq -->
<g id="node2" class="node">
<title>dns_shipreq</title>
<ellipse fill="#ffee44" stroke="black" cx="346.81" cy="-890.78" rx="73.58" ry="26.74"/>
<text text-anchor="middle" x="346.81" y="-894.58" font-family="Times,serif" font-size="14.00">DNS:</text>
<text text-anchor="middle" x="346.81" y="-879.58" font-family="Times,serif" font-size="14.00">shipreq.com</text>
</g>
<!-- internet&#45;&gt;dns_shipreq -->
<g id="edge1" class="edge">
<title>internet&#45;&gt;dns_shipreq</title>
<path fill="none" stroke="red" d="M473.61,-1026.51C450.73,-1002.19 406.94,-955.67 377.3,-924.18"/>
<polygon fill="red" stroke="red" points="379.5,-921.41 370.09,-916.52 374.4,-926.2 379.5,-921.41"/>
</g>
<!-- eip_bastion -->
<g id="node5" class="node">
<title>eip_bastion</title>
<ellipse fill="#ffee44" stroke="black" cx="488.81" cy="-890.78" rx="50.41" ry="26.74"/>
<text text-anchor="middle" x="488.81" y="-894.58" font-family="Times,serif" font-size="14.00">EIP:</text>
<text text-anchor="middle" x="488.81" y="-879.58" font-family="Times,serif" font-size="14.00">Bastion</text>
</g>
<!-- internet&#45;&gt;eip_bastion -->
<g id="edge4" class="edge">
<title>internet&#45;&gt;eip_bastion</title>
<path fill="none" stroke="red" d="M488.81,-1025.64C488.81,-1002.13 488.81,-959.12 488.81,-928.19"/>
<polygon fill="red" stroke="red" points="492.31,-927.81 488.81,-917.81 485.31,-927.81 492.31,-927.81"/>
</g>
<!-- nat -->
<g id="node8" class="node">
<title>nat</title>
<ellipse fill="#ffee44" stroke="black" cx="452.81" cy="-718.44" rx="36.54" ry="26.74"/>
<text text-anchor="middle" x="452.81" y="-722.24" font-family="Times,serif" font-size="14.00">ASG:</text>
<text text-anchor="middle" x="452.81" y="-707.24" font-family="Times,serif" font-size="14.00">NAT</text>
</g>
<!-- internet&#45;&gt;nat -->
<g id="edge3" class="edge">
<title>internet&#45;&gt;nat</title>
<path fill="none" stroke="red" d="M510.52,-1018.87C541.09,-982.39 589.25,-911.85 552.81,-863.91 537.74,-844.08 517.03,-865.9 498.81,-848.91 469.58,-821.67 458.91,-774.65 455.02,-745.39"/>
<polygon fill="red" stroke="red" points="507.79,-1016.67 503.93,-1026.53 513.1,-1021.23 507.79,-1016.67"/>
</g>
<!-- elb_webapp -->
<g id="node7" class="node">
<title>elb_webapp</title>
<ellipse fill="#ffee44" stroke="black" cx="346.81" cy="-718.44" rx="51.74" ry="26.74"/>
<text text-anchor="middle" x="346.81" y="-722.24" font-family="Times,serif" font-size="14.00">ELB:</text>
<text text-anchor="middle" x="346.81" y="-707.24" font-family="Times,serif" font-size="14.00">Webapp</text>
</g>
<!-- dns_shipreq&#45;&gt;elb_webapp -->
<g id="edge2" class="edge">
<title>dns_shipreq&#45;&gt;elb_webapp</title>
<path fill="none" stroke="red" d="M346.81,-863.91C346.81,-835.02 346.81,-788.06 346.81,-755.56"/>
<polygon fill="red" stroke="red" points="350.31,-755.55 346.81,-745.55 343.31,-755.55 350.31,-755.55"/>
</g>
<!-- ebs_prometheus -->
<g id="node3" class="node">
<title>ebs_prometheus</title>
<ellipse fill="#ffee44" stroke="black" cx="844.81" cy="-42.87" rx="72.66" ry="26.74"/>
<text text-anchor="middle" x="844.81" y="-46.67" font-family="Times,serif" font-size="14.00">EBS:</text>
<text text-anchor="middle" x="844.81" y="-31.67" font-family="Times,serif" font-size="14.00">Prometheus</text>
</g>
<!-- ebs_grafana -->
<g id="node4" class="node">
<title>ebs_grafana</title>
<ellipse fill="#ffee44" stroke="black" cx="1079.81" cy="-204.61" rx="52.15" ry="26.74"/>
<text text-anchor="middle" x="1079.81" y="-208.41" font-family="Times,serif" font-size="14.00">EBS:</text>
<text text-anchor="middle" x="1079.81" y="-193.41" font-family="Times,serif" font-size="14.00">Grafana</text>
</g>
<!-- bastion -->
<g id="node10" class="node">
<title>bastion</title>
<ellipse fill="#ffee44" stroke="black" cx="641.81" cy="-718.44" rx="80.72" ry="37.45"/>
<text text-anchor="middle" x="641.81" y="-729.74" font-family="Times,serif" font-size="14.00">EC2:</text>
<text text-anchor="middle" x="641.81" y="-714.74" font-family="Times,serif" font-size="14.00">Bastion &amp;</text>
<text text-anchor="middle" x="641.81" y="-699.74" font-family="Times,serif" font-size="14.00">devops portal</text>
</g>
<!-- eip_bastion&#45;&gt;bastion -->
<g id="edge5" class="edge">
<title>eip_bastion&#45;&gt;bastion</title>
<path fill="none" stroke="red" d="M522.97,-871.02C532.86,-864.72 543.29,-857.17 551.81,-848.91 577.69,-823.85 600.75,-790.33 617.05,-763.68"/>
<polygon fill="red" stroke="red" points="620.16,-765.3 622.31,-754.92 614.16,-761.69 620.16,-765.3"/>
</g>
<!-- subnet_public -->
<g id="node6" class="node">
<title>subnet_public</title>
<ellipse fill="blue" stroke="black" cx="511.81" cy="-718.44" rx="4.32" ry="4.32"/>
</g>
<!-- subnet_private_app -->
<g id="node11" class="node">
<title>subnet_private_app</title>
<ellipse fill="blue" stroke="black" cx="479.81" cy="-537.09" rx="4.32" ry="4.32"/>
</g>
<!-- subnet_public&#45;&gt;subnet_private_app -->
<g id="edge11" class="edge">
<title>subnet_public&#45;&gt;subnet_private_app</title>
<path fill="none" stroke="blue" d="M509.43,-704.12C503.51,-670.92 488.14,-584.79 482.2,-551.5"/>
<polygon fill="blue" stroke="blue" points="506,-704.78 511.2,-714.01 512.89,-703.56 506,-704.78"/>
<polygon fill="blue" stroke="blue" points="485.63,-550.78 480.43,-541.55 478.74,-552.01 485.63,-550.78"/>
</g>
<!-- subnet_private_ops -->
<g id="node20" class="node">
<title>subnet_private_ops</title>
<ellipse fill="blue" stroke="black" cx="511.81" cy="-366.35" rx="4.32" ry="4.32"/>
</g>
<!-- subnet_public&#45;&gt;subnet_private_ops -->
<g id="edge12" class="edge">
<title>subnet_public&#45;&gt;subnet_private_ops</title>
<path fill="none" stroke="blue" d="M511.81,-713.97C511.81,-682.22 511.81,-441.51 511.81,-381.08"/>
<polygon fill="blue" stroke="blue" points="515.31,-380.84 511.81,-370.84 508.31,-380.84 515.31,-380.84"/>
</g>
<!-- docker_webapp -->
<g id="node18" class="node">
<title>docker_webapp</title>
<ellipse fill="#ffee44" stroke="black" cx="254.81" cy="-537.09" rx="51.74" ry="26.74"/>
<text text-anchor="middle" x="254.81" y="-540.89" font-family="Times,serif" font-size="14.00">Docker:</text>
<text text-anchor="middle" x="254.81" y="-525.89" font-family="Times,serif" font-size="14.00">Webapp</text>
</g>
<!-- elb_webapp&#45;&gt;docker_webapp -->
<g id="edge9" class="edge">
<title>elb_webapp&#45;&gt;docker_webapp</title>
<path fill="none" stroke="red" d="M333.82,-692.12C317.73,-660.74 290.23,-607.15 272.29,-572.18"/>
<polygon fill="red" stroke="red" points="275.41,-570.58 267.73,-563.28 269.18,-573.77 275.41,-570.58"/>
</g>
<!-- nat&#45;&gt;subnet_private_app -->
<g id="edge10" class="edge">
<title>nat&#45;&gt;subnet_private_app</title>
<path fill="none" stroke="red" d="M463.16,-682.32C465.29,-674.06 467.34,-665.25 468.81,-656.96 476.84,-611.66 479.21,-555.53 479.7,-541.43"/>
<polygon fill="red" stroke="red" points="459.76,-681.48 460.53,-692.05 466.52,-683.3 459.76,-681.48"/>
</g>
<!-- sg_bastion -->
<g id="node9" class="node">
<title>sg_bastion</title>
<ellipse fill="blue" stroke="black" cx="538.81" cy="-718.44" rx="4.32" ry="4.32"/>
</g>
<!-- sg_rds -->
<g id="node12" class="node">
<title>sg_rds</title>
<ellipse fill="blue" stroke="black" cx="238.81" cy="-366.35" rx="4.32" ry="4.32"/>
</g>
<!-- sg_bastion&#45;&gt;sg_rds -->
<g id="edge18" class="edge">
<title>sg_bastion&#45;&gt;sg_rds</title>
<path fill="none" stroke="blue" d="M539.59,-713.92C541.5,-704.33 545.25,-677.57 530.81,-664.96 510.18,-646.94 57.02,-676.49 37.81,-656.96 -12.92,-605.4 -12.23,-546.45 37.81,-494.22 52.2,-479.2 209.57,-500.37 224.81,-486.22 253.99,-459.13 247.33,-405.99 242.14,-380.98"/>
<polygon fill="blue" stroke="blue" points="245.48,-379.92 239.81,-370.97 238.66,-381.51 245.48,-379.92"/>
</g>
<!-- sg_redis -->
<g id="node14" class="node">
<title>sg_redis</title>
<ellipse fill="blue" stroke="black" cx="406.81" cy="-366.35" rx="4.32" ry="4.32"/>
</g>
<!-- sg_bastion&#45;&gt;sg_redis -->
<g id="edge19" class="edge">
<title>sg_bastion&#45;&gt;sg_redis</title>
<path fill="none" stroke="blue" d="M539.59,-713.92C541.5,-704.33 545.24,-677.57 530.81,-664.96 511.1,-647.74 78.16,-675.62 59.81,-656.96 34.46,-631.17 34.55,-520.1 59.81,-494.22 72.74,-480.98 379.13,-498.68 392.81,-486.22 422.25,-459.41 415.46,-406.13 410.18,-381.03"/>
<polygon fill="blue" stroke="blue" points="413.52,-379.92 407.82,-370.99 406.7,-381.52 413.52,-379.92"/>
</g>
<!-- sg_app -->
<g id="node16" class="node">
<title>sg_app</title>
<ellipse fill="blue" stroke="black" cx="452.81" cy="-537.09" rx="4.32" ry="4.32"/>
</g>
<!-- sg_bastion&#45;&gt;sg_app -->
<g id="edge17" class="edge">
<title>sg_bastion&#45;&gt;sg_app</title>
<path fill="none" stroke="blue" d="M539.53,-714C541.27,-704.59 544.62,-678.26 530.81,-664.96 508.26,-643.24 482.43,-679.61 460.81,-656.96 446.69,-642.17 449.61,-579.32 451.67,-551.47"/>
<polygon fill="blue" stroke="blue" points="455.16,-551.69 452.49,-541.43 448.19,-551.11 455.16,-551.69"/>
</g>
<!-- sg_es -->
<g id="node21" class="node">
<title>sg_es</title>
<ellipse fill="blue" stroke="black" cx="538.81" cy="-366.35" rx="4.32" ry="4.32"/>
</g>
<!-- sg_bastion&#45;&gt;sg_es -->
<g id="edge20" class="edge">
<title>sg_bastion&#45;&gt;sg_es</title>
<path fill="none" stroke="blue" d="M538.81,-713.97C538.81,-682.22 538.81,-441.51 538.81,-381.08"/>
<polygon fill="blue" stroke="blue" points="542.31,-380.84 538.81,-370.84 535.31,-380.84 542.31,-380.84"/>
</g>
<!-- es -->
<g id="node22" class="node">
<title>es</title>
<ellipse fill="#ffee44" stroke="black" cx="642.81" cy="-366.35" rx="81.13" ry="26.74"/>
<text text-anchor="middle" x="642.81" y="-370.15" font-family="Times,serif" font-size="14.00">ElasticSearch</text>
<text text-anchor="middle" x="642.81" y="-355.15" font-family="Times,serif" font-size="14.00">&amp; Kibana</text>
</g>
<!-- bastion&#45;&gt;es -->
<g id="edge6" class="edge">
<title>bastion&#45;&gt;es</title>
<path fill="none" stroke="red" d="M641.91,-680.63C642.11,-613.14 642.51,-470.38 642.71,-403.43"/>
<polygon fill="red" stroke="red" points="646.21,-403.37 642.73,-393.36 639.21,-403.35 646.21,-403.37"/>
</g>
<!-- docker_prometheus -->
<g id="node24" class="node">
<title>docker_prometheus</title>
<ellipse fill="#ffee44" stroke="black" cx="844.81" cy="-204.61" rx="72.66" ry="26.74"/>
<text text-anchor="middle" x="844.81" y="-208.41" font-family="Times,serif" font-size="14.00">Docker:</text>
<text text-anchor="middle" x="844.81" y="-193.41" font-family="Times,serif" font-size="14.00">Prometheus</text>
</g>
<!-- bastion&#45;&gt;docker_prometheus -->
<g id="edge7" class="edge">
<title>bastion&#45;&gt;docker_prometheus</title>
<path fill="none" stroke="red" d="M692.3,-688.99C752.72,-651.59 850.42,-579.53 887.81,-486.22 921.36,-402.49 884.96,-295.07 861.48,-240.62"/>
<polygon fill="red" stroke="red" points="864.65,-239.13 857.41,-231.4 858.25,-241.96 864.65,-239.13"/>
</g>
<!-- docker_grafana -->
<g id="node25" class="node">
<title>docker_grafana</title>
<ellipse fill="#ffee44" stroke="black" cx="826.81" cy="-366.35" rx="52.15" ry="26.74"/>
<text text-anchor="middle" x="826.81" y="-370.15" font-family="Times,serif" font-size="14.00">Docker:</text>
<text text-anchor="middle" x="826.81" y="-355.15" font-family="Times,serif" font-size="14.00">Grafana</text>
</g>
<!-- bastion&#45;&gt;docker_grafana -->
<g id="edge8" class="edge">
<title>bastion&#45;&gt;docker_grafana</title>
<path fill="none" stroke="red" d="M662.46,-682.2C688.6,-637.21 734.58,-556.75 770.81,-486.22 785.19,-458.22 800.34,-425.87 811.25,-401.99"/>
<polygon fill="red" stroke="red" points="814.55,-403.19 815.5,-392.64 808.18,-400.29 814.55,-403.19"/>
</g>
<!-- subnet_private_app&#45;&gt;subnet_private_ops -->
<g id="edge13" class="edge">
<title>subnet_private_app&#45;&gt;subnet_private_ops</title>
<path fill="none" stroke="blue" d="M482.36,-522.64C488.36,-491.01 503.3,-412.2 509.28,-380.69"/>
<polygon fill="blue" stroke="blue" points="478.9,-522.09 480.48,-532.57 485.78,-523.39 478.9,-522.09"/>
<polygon fill="blue" stroke="blue" points="512.72,-381.33 511.14,-370.86 505.84,-380.03 512.72,-381.33"/>
</g>
<!-- rds -->
<g id="node13" class="node">
<title>rds</title>
<ellipse fill="#ffee44" stroke="black" cx="184.81" cy="-366.35" rx="31.4" ry="18"/>
<text text-anchor="middle" x="184.81" y="-362.65" font-family="Times,serif" font-size="14.00">RDS</text>
</g>
<!-- redis -->
<g id="node15" class="node">
<title>redis</title>
<ellipse fill="#ffee44" stroke="black" cx="347.81" cy="-366.35" rx="36.29" ry="18"/>
<text text-anchor="middle" x="347.81" y="-362.65" font-family="Times,serif" font-size="14.00">Redis</text>
</g>
<!-- sg_app&#45;&gt;sg_rds -->
<g id="edge14" class="edge">
<title>sg_app&#45;&gt;sg_rds</title>
<path fill="none" stroke="blue" d="M453.23,-532.33C453.93,-523.97 454.28,-503.81 442.81,-494.22 418.39,-473.81 326.5,-503.56 299.81,-486.22 262.21,-461.78 246.61,-406.46 241.23,-380.84"/>
<polygon fill="blue" stroke="blue" points="244.6,-379.87 239.31,-370.69 237.73,-381.16 244.6,-379.87"/>
</g>
<!-- sg_app&#45;&gt;sg_redis -->
<g id="edge15" class="edge">
<title>sg_app&#45;&gt;sg_redis</title>
<path fill="none" stroke="blue" d="M452.03,-532.6C450.41,-525.41 446.51,-508.39 442.81,-494.22 431.92,-452.53 417.59,-403.58 410.76,-380.57"/>
<polygon fill="blue" stroke="blue" points="414.08,-379.45 407.87,-370.87 407.37,-381.45 414.08,-379.45"/>
</g>
<!-- sg_app&#45;&gt;sg_es -->
<g id="edge16" class="edge">
<title>sg_app&#45;&gt;sg_es</title>
<path fill="none" stroke="blue" d="M452.23,-532.4C451.18,-524.18 449.96,-504.29 460.81,-494.22 483.77,-472.92 509.19,-508.87 530.81,-486.22 558.18,-457.55 549.05,-405.2 542.74,-380.68"/>
<polygon fill="blue" stroke="blue" points="546.06,-379.56 539.96,-370.89 539.32,-381.46 546.06,-379.56"/>
</g>
<!-- docker_filebeat -->
<g id="node17" class="node">
<title>docker_filebeat</title>
<ellipse fill="#ffee44" stroke="black" cx="377.81" cy="-537.09" rx="53.07" ry="26.74"/>
<text text-anchor="middle" x="377.81" y="-540.89" font-family="Times,serif" font-size="14.00">Docker:</text>
<text text-anchor="middle" x="377.81" y="-525.89" font-family="Times,serif" font-size="14.00">Filebeat</text>
</g>
<!-- docker_filebeat&#45;&gt;es -->
<g id="edge22" class="edge">
<title>docker_filebeat&#45;&gt;es</title>
<path fill="none" stroke="green" d="M402.67,-513.1C412.06,-505.75 423.28,-498.44 434.81,-494.22 459.28,-485.26 528.85,-498.55 551.81,-486.22 586.16,-467.77 611.51,-430.11 626.6,-402.1"/>
<polygon fill="green" stroke="green" points="629.82,-403.5 631.33,-393.02 623.61,-400.27 629.82,-403.5"/>
</g>
<!-- docker_webapp&#45;&gt;docker_prometheus -->
<g id="edge25" class="edge">
<title>docker_webapp&#45;&gt;docker_prometheus</title>
<path fill="none" stroke="green" d="M289.07,-508C297.38,-502.52 306.55,-497.48 315.81,-494.22 338.3,-486.31 403.16,-499.73 422.81,-486.22 485.47,-443.14 439.56,-382.65 495.81,-331.48 575.5,-259 700.03,-227.5 776.79,-214.37"/>
<polygon fill="green" stroke="green" points="286.95,-505.21 280.76,-513.8 290.96,-510.95 286.95,-505.21"/>
</g>
<!-- docker_taskman -->
<g id="node19" class="node">
<title>docker_taskman</title>
<ellipse fill="#ffee44" stroke="black" cx="128.81" cy="-537.09" rx="56.64" ry="26.74"/>
<text text-anchor="middle" x="128.81" y="-540.89" font-family="Times,serif" font-size="14.00">Docker:</text>
<text text-anchor="middle" x="128.81" y="-525.89" font-family="Times,serif" font-size="14.00">Taskman</text>
</g>
<!-- sg_ops -->
<g id="node23" class="node">
<title>sg_ops</title>
<ellipse fill="blue" stroke="black" cx="751.81" cy="-366.35" rx="4.32" ry="4.32"/>
</g>
<!-- sg_ops&#45;&gt;sg_app -->
<g id="edge21" class="edge">
<title>sg_ops&#45;&gt;sg_app</title>
<path fill="none" stroke="blue" d="M752.75,-370.99C756.72,-387.41 770.47,-455.01 735.81,-486.22 713.09,-506.67 484.08,-474.4 460.81,-494.22 452.89,-500.97 451.25,-512.94 451.39,-522.35"/>
<polygon fill="blue" stroke="blue" points="447.9,-522.64 452.17,-532.33 454.88,-522.09 447.9,-522.64"/>
</g>
<!-- docker_prometheus&#45;&gt;ebs_prometheus -->
<g id="edge23" class="edge">
<title>docker_prometheus&#45;&gt;ebs_prometheus</title>
<path fill="none" stroke="green" d="M844.81,-177.59C844.81,-151.13 844.81,-109.92 844.81,-80.24"/>
<polygon fill="green" stroke="green" points="848.31,-79.88 844.81,-69.88 841.31,-79.88 848.31,-79.88"/>
</g>
<!-- docker_grafana&#45;&gt;ebs_grafana -->
<g id="edge24" class="edge">
<title>docker_grafana&#45;&gt;ebs_grafana</title>
<path fill="none" stroke="green" d="M859.11,-344.96C904.98,-316 988.97,-262.97 1039.06,-231.34"/>
<polygon fill="green" stroke="green" points="1041.11,-234.18 1047.7,-225.88 1037.38,-228.26 1041.11,-234.18"/>
</g>
<!-- docker_grafana&#45;&gt;docker_prometheus -->
<g id="edge26" class="edge">
<title>docker_grafana&#45;&gt;docker_prometheus</title>
<path fill="none" stroke="green" d="M829.74,-339.33C832.74,-312.76 837.41,-271.3 840.75,-241.59"/>
<polygon fill="green" stroke="green" points="844.24,-241.95 841.88,-231.62 837.28,-241.16 844.24,-241.95"/>
</g>
</g>
</svg>
