<?xml version="1.0" encoding="UTF-8" standalone="no"?>
<!DOCTYPE svg PUBLIC "-//W3C//DTD SVG 1.1//EN"
 "http://www.w3.org/Graphics/SVG/1.1/DTD/svg11.dtd">
<!-- Generated by graphviz version 2.43.20190912.0211 (20190912.0211)
 -->
<!-- Title: %3 Pages: 1 -->
<svg width="1070pt" height="1047pt"
 viewBox="0.00 0.00 1070.00 1047.28" xmlns="http://www.w3.org/2000/svg" xmlns:xlink="http://www.w3.org/1999/xlink">
<g id="graph0" class="graph" transform="scale(1 1) rotate(0) translate(4 1043.28)">
<title>%3</title>
<polygon fill="white" stroke="transparent" points="-4,4 -4,-1043.28 1066,-1043.28 1066,4 -4,4"/>
<g id="clust1" class="cluster">
<title>cluster_AWS</title>
<polygon fill="#eeffdd" stroke="black" points="8,-8 8,-976.28 1054,-976.28 1054,-8 8,-8"/>
<text text-anchor="middle" x="531" y="-961.08" font-family="Times,serif" font-size="14.00">AWS</text>
</g>
<g id="clust2" class="cluster">
<title>cluster_VPC</title>
<polygon fill="white" stroke="black" points="16,-124.95 16,-883.54 936,-883.54 936,-124.95 16,-124.95"/>
<text text-anchor="middle" x="476" y="-868.34" font-family="Times,serif" font-size="14.00">VPC</text>
</g>
<g id="clust3" class="cluster">
<title>cluster_public</title>
<polygon fill="#999999" stroke="black" points="242,-720.8 242,-852.54 784,-852.54 784,-720.8 242,-720.8"/>
<text text-anchor="middle" x="513" y="-837.34" font-family="Times,serif" font-size="14.00">Public subnet</text>
</g>
<g id="clust4" class="cluster">
<title>cluster_bastion</title>
<path fill="#ffee44" stroke="red" d="M262,-728.8C262,-728.8 560,-728.8 560,-728.8 566,-728.8 572,-734.8 572,-740.8 572,-740.8 572,-809.54 572,-809.54 572,-815.54 566,-821.54 560,-821.54 560,-821.54 262,-821.54 262,-821.54 256,-821.54 250,-815.54 250,-809.54 250,-809.54 250,-740.8 250,-740.8 250,-734.8 256,-728.8 262,-728.8"/>
<text text-anchor="middle" x="411" y="-806.34" font-family="Times,serif" font-size="14.00">EC2: Bastion</text>
</g>
<g id="clust5" class="cluster">
<title>cluster_private</title>
<polygon fill="#dddddd" stroke="black" points="24,-132.95 24,-699.19 928,-699.19 928,-132.95 24,-132.95"/>
<text text-anchor="middle" x="476" y="-683.99" font-family="Times,serif" font-size="14.00">Private subnet</text>
</g>
<g id="clust6" class="cluster">
<title>cluster_ecs2_app</title>
<polygon fill="#ffeeee" stroke="black" points="232,-539.81 232,-632.55 920,-632.55 920,-539.81 232,-539.81"/>
<text text-anchor="middle" x="576" y="-617.35" font-family="Times,serif" font-size="14.00">App ECS Cluster / AGS / EC2s</text>
</g>
<g id="clust7" class="cluster">
<title>cluster_rds</title>
<path fill="#b0e2ff" stroke="black" d="M351,-415.73C351,-415.73 545,-415.73 545,-415.73 551,-415.73 557,-421.73 557,-427.73 557,-427.73 557,-478.73 557,-478.73 557,-484.73 551,-490.73 545,-490.73 545,-490.73 351,-490.73 351,-490.73 345,-490.73 339,-484.73 339,-478.73 339,-478.73 339,-427.73 339,-427.73 339,-421.73 345,-415.73 351,-415.73"/>
<text text-anchor="middle" x="448" y="-475.53" font-family="Times,serif" font-size="14.00">RDS</text>
</g>
<g id="clust8" class="cluster">
<title>cluster_ecs2_ops</title>
<polygon fill="#ffeeee" stroke="black" points="64,-140.95 64,-366.65 848,-366.65 848,-140.95 64,-140.95"/>
<text text-anchor="middle" x="456" y="-351.45" font-family="Times,serif" font-size="14.00">Ops ECS Cluster / ASG / EC2s</text>
</g>
<!-- internet -->
<g id="node1" class="node">
<title>internet</title>
<ellipse fill="#aa1111" stroke="black" cx="624" cy="-1021.28" rx="48.99" ry="18"/>
<text text-anchor="middle" x="624" y="-1017.58" font-family="Times,serif" font-size="14.00" fill="white">Internet</text>
</g>
<!-- dns_shipreq -->
<g id="node2" class="node">
<title>dns_shipreq</title>
<ellipse fill="#ffee44" stroke="black" cx="573" cy="-918.41" rx="73.58" ry="26.74"/>
<text text-anchor="middle" x="573" y="-922.21" font-family="Times,serif" font-size="14.00">DNS:</text>
<text text-anchor="middle" x="573" y="-907.21" font-family="Times,serif" font-size="14.00">shipreq.com</text>
</g>
<!-- internet&#45;&gt;dns_shipreq -->
<g id="edge2" class="edge">
<title>internet&#45;&gt;dns_shipreq</title>
<path fill="none" stroke="red" d="M615.35,-1003.17C608.6,-989.82 599.01,-970.85 590.66,-954.33"/>
<polygon fill="red" stroke="red" points="593.55,-952.29 585.91,-944.95 587.3,-955.45 593.55,-952.29"/>
</g>
<!-- eip_bastion -->
<g id="node5" class="node">
<title>eip_bastion</title>
<ellipse fill="#ffee44" stroke="black" cx="395" cy="-918.41" rx="50.41" ry="26.74"/>
<text text-anchor="middle" x="395" y="-922.21" font-family="Times,serif" font-size="14.00">EIP:</text>
<text text-anchor="middle" x="395" y="-907.21" font-family="Times,serif" font-size="14.00">Bastion</text>
</g>
<!-- internet&#45;&gt;eip_bastion -->
<g id="edge4" class="edge">
<title>internet&#45;&gt;eip_bastion</title>
<path fill="none" stroke="red" d="M585.6,-1010.14C558.34,-1002.34 521.18,-990.52 490,-976.28 470.79,-967.51 450.58,-955.79 433.75,-945.28"/>
<polygon fill="red" stroke="red" points="435.61,-942.31 425.29,-939.91 431.86,-948.22 435.61,-942.31"/>
</g>
<!-- nat -->
<g id="node9" class="node">
<title>nat</title>
<ellipse fill="#ffee44" stroke="black" cx="740" cy="-763.67" rx="36.12" ry="26.74"/>
<text text-anchor="middle" x="740" y="-767.47" font-family="Times,serif" font-size="14.00">EC2:</text>
<text text-anchor="middle" x="740" y="-752.47" font-family="Times,serif" font-size="14.00">NAT</text>
</g>
<!-- internet&#45;&gt;nat -->
<g id="edge13" class="edge">
<title>internet&#45;&gt;nat</title>
<path fill="none" stroke="blue" d="M658.36,-1000.01C667.14,-993.42 675.83,-985.4 682,-976.28 721.59,-917.75 734.26,-832.93 738.23,-790.66"/>
<polygon fill="blue" stroke="blue" points="656.16,-997.28 649.99,-1005.9 660.19,-1003.01 656.16,-997.28"/>
</g>
<!-- bastion_out -->
<g id="node11" class="node">
<title>bastion_out</title>
<ellipse fill="blue" stroke="black" cx="560" cy="-763.67" rx="4.32" ry="4.32"/>
</g>
<!-- internet&#45;&gt;bastion_out -->
<g id="edge14" class="edge">
<title>internet&#45;&gt;bastion_out</title>
<path fill="none" stroke="blue" d="M649.11,-996.42C653.97,-990.36 658.37,-983.5 661,-976.28 673.9,-940.9 686.46,-919.29 661,-891.54 646.98,-876.26 582.53,-898.34 568,-883.54 535.54,-850.48 553.76,-784.26 558.82,-768.23"/>
<polygon fill="blue" stroke="blue" points="646.29,-994.32 642.32,-1004.15 651.55,-998.95 646.29,-994.32"/>
</g>
<!-- elb_webapp -->
<g id="node8" class="node">
<title>elb_webapp</title>
<ellipse fill="#ffee44" stroke="red" cx="634" cy="-763.67" rx="51.74" ry="26.74"/>
<text text-anchor="middle" x="634" y="-767.47" font-family="Times,serif" font-size="14.00">ALB:</text>
<text text-anchor="middle" x="634" y="-752.47" font-family="Times,serif" font-size="14.00">Webapp</text>
</g>
<!-- dns_shipreq&#45;&gt;elb_webapp -->
<g id="edge3" class="edge">
<title>dns_shipreq&#45;&gt;elb_webapp</title>
<path fill="none" stroke="red" d="M583.35,-891.5C593.44,-866.22 608.87,-827.6 620.04,-799.61"/>
<polygon fill="red" stroke="red" points="623.35,-800.78 623.81,-790.2 616.85,-798.19 623.35,-800.78"/>
</g>
<!-- ebs_prometheus_tech -->
<g id="node3" class="node">
<title>ebs_prometheus_tech</title>
<ellipse fill="#b0e2ff" stroke="black" cx="767" cy="-53.48" rx="72.66" ry="37.45"/>
<text text-anchor="middle" x="767" y="-64.78" font-family="Times,serif" font-size="14.00">EBS:</text>
<text text-anchor="middle" x="767" y="-49.78" font-family="Times,serif" font-size="14.00">Prometheus</text>
<text text-anchor="middle" x="767" y="-34.78" font-family="Times,serif" font-size="14.00">(tech)</text>
</g>
<!-- ebs_prometheus_busi -->
<g id="node4" class="node">
<title>ebs_prometheus_busi</title>
<ellipse fill="#b0e2ff" stroke="black" cx="300" cy="-53.48" rx="72.66" ry="37.45"/>
<text text-anchor="middle" x="300" y="-64.78" font-family="Times,serif" font-size="14.00">EBS:</text>
<text text-anchor="middle" x="300" y="-49.78" font-family="Times,serif" font-size="14.00">Prometheus</text>
<text text-anchor="middle" x="300" y="-34.78" font-family="Times,serif" font-size="14.00">(business)</text>
</g>
<!-- bastion -->
<g id="node10" class="node">
<title>bastion</title>
<ellipse fill="red" stroke="black" cx="386" cy="-763.67" rx="4.32" ry="4.32"/>
</g>
<!-- eip_bastion&#45;&gt;bastion -->
<g id="edge5" class="edge">
<title>eip_bastion&#45;&gt;bastion</title>
<path fill="none" stroke="red" d="M393.47,-891.5C391.55,-858.88 388.32,-804.03 386.82,-778.51"/>
<polygon fill="red" stroke="red" points="390.3,-778.11 386.22,-768.33 383.31,-778.52 390.3,-778.11"/>
</g>
<!-- s3_webapp -->
<g id="node6" class="node">
<title>s3_webapp</title>
<ellipse fill="#ffee44" stroke="black" cx="995" cy="-441.73" rx="50.82" ry="48.17"/>
<text text-anchor="middle" x="995" y="-460.53" font-family="Times,serif" font-size="14.00">S3:</text>
<text text-anchor="middle" x="995" y="-445.53" font-family="Times,serif" font-size="14.00">webapp</text>
<text text-anchor="middle" x="995" y="-430.53" font-family="Times,serif" font-size="14.00">config</text>
<text text-anchor="middle" x="995" y="-415.53" font-family="Times,serif" font-size="14.00">&amp; ssl</text>
</g>
<!-- internal_dns -->
<g id="node7" class="node">
<title>internal_dns</title>
<ellipse fill="#ffee44" stroke="black" cx="129" cy="-763.67" rx="104.8" ry="37.45"/>
<text text-anchor="middle" x="129" y="-774.97" font-family="Times,serif" font-size="14.00">Private DNS:</text>
<text text-anchor="middle" x="129" y="-759.97" font-family="Times,serif" font-size="14.00">&lt;env&gt;.sd.internal</text>
<text text-anchor="middle" x="129" y="-744.97" font-family="Times,serif" font-size="14.00">&lt;env&gt;.internal</text>
</g>
<!-- docker_webapp -->
<g id="node21" class="node">
<title>docker_webapp</title>
<ellipse fill="#ffee44" stroke="red" cx="547" cy="-574.68" rx="51.74" ry="26.74"/>
<text text-anchor="middle" x="547" y="-578.48" font-family="Times,serif" font-size="14.00">Docker:</text>
<text text-anchor="middle" x="547" y="-563.48" font-family="Times,serif" font-size="14.00">Webapp</text>
</g>
<!-- elb_webapp&#45;&gt;docker_webapp -->
<g id="edge6" class="edge">
<title>elb_webapp&#45;&gt;docker_webapp</title>
<path fill="none" stroke="red" d="M637.71,-736.52C639.62,-714.95 639.68,-684.03 629,-659.55 626.06,-652.8 600.26,-626.9 578.38,-605.65"/>
<polygon fill="red" stroke="red" points="580.76,-603.09 571.14,-598.66 575.9,-608.12 580.76,-603.09"/>
</g>
<!-- subnet_private_out -->
<g id="node15" class="node">
<title>subnet_private_out</title>
<ellipse fill="blue" stroke="black" cx="611" cy="-663.87" rx="4.32" ry="4.32"/>
</g>
<!-- nat&#45;&gt;subnet_private_out -->
<g id="edge15" class="edge">
<title>nat&#45;&gt;subnet_private_out</title>
<path fill="none" stroke="blue" d="M711.2,-734.6C705.94,-729.84 700.4,-725.07 695,-720.8 665.3,-697.35 625.92,-673.66 614.34,-666.83"/>
<polygon fill="blue" stroke="blue" points="708.94,-737.27 718.66,-741.49 713.69,-732.13 708.94,-737.27"/>
</g>
<!-- subnet_private_in -->
<g id="node14" class="node">
<title>subnet_private_in</title>
<ellipse fill="red" stroke="black" cx="221" cy="-663.87" rx="4.32" ry="4.32"/>
</g>
<!-- bastion&#45;&gt;subnet_private_in -->
<g id="edge7" class="edge">
<title>bastion&#45;&gt;subnet_private_in</title>
<path fill="none" stroke="red" d="M385.91,-759.12C385.52,-751.18 383.48,-731.84 373,-720.8 334.88,-680.66 265.49,-669.18 235.48,-666.02"/>
<polygon fill="red" stroke="red" points="235.77,-662.53 225.5,-665.14 235.15,-669.51 235.77,-662.53"/>
</g>
<!-- docker_portal -->
<g id="node12" class="node">
<title>docker_portal</title>
<ellipse fill="#fff8f0" stroke="black" cx="473" cy="-763.67" rx="65.11" ry="26.74"/>
<text text-anchor="middle" x="473" y="-767.47" font-family="Times,serif" font-size="14.00">Docker:</text>
<text text-anchor="middle" x="473" y="-752.47" font-family="Times,serif" font-size="14.00">Ops Portal</text>
</g>
<!-- docker_portal&#45;&gt;subnet_private_in -->
<g id="edge8" class="edge">
<title>docker_portal&#45;&gt;subnet_private_in</title>
<path fill="none" stroke="red" stroke-dasharray="5,2" d="M438.02,-740.88C425.94,-733.9 412.13,-726.5 399,-720.8 339.98,-695.17 265.39,-675.64 234.92,-668.18"/>
<polygon fill="red" stroke="red" points="235.53,-664.73 224.99,-665.8 233.9,-671.53 235.53,-664.73"/>
</g>
<!-- docker_filebeatB -->
<g id="node13" class="node">
<title>docker_filebeatB</title>
<ellipse fill="#eecc99" stroke="black" cx="311" cy="-763.67" rx="53.07" ry="26.74"/>
<text text-anchor="middle" x="311" y="-767.47" font-family="Times,serif" font-size="14.00">Docker:</text>
<text text-anchor="middle" x="311" y="-752.47" font-family="Times,serif" font-size="14.00">Filebeat</text>
</g>
<!-- es -->
<g id="node17" class="node">
<title>es</title>
<ellipse fill="#ffee44" stroke="red" cx="153" cy="-441.73" rx="81.13" ry="26.74"/>
<text text-anchor="middle" x="153" y="-445.53" font-family="Times,serif" font-size="14.00">ElasticSearch</text>
<text text-anchor="middle" x="153" y="-430.53" font-family="Times,serif" font-size="14.00">&amp; Kibana</text>
</g>
<!-- docker_filebeatB&#45;&gt;es -->
<g id="edge26" class="edge">
<title>docker_filebeatB&#45;&gt;es</title>
<path fill="none" stroke="#888888" stroke-dasharray="5,2" d="M283.33,-740.68C274.24,-733.91 263.92,-726.7 254,-720.8 234.58,-709.26 223.53,-715.59 208,-699.19 150.78,-638.79 147.22,-533.95 149.87,-478.89"/>
<polygon fill="#888888" stroke="#888888" points="153.37,-479.07 150.45,-468.89 146.38,-478.67 153.37,-479.07"/>
</g>
<!-- subnet_private_in&#45;&gt;es -->
<g id="edge9" class="edge">
<title>subnet_private_in&#45;&gt;es</title>
<path fill="none" stroke="red" stroke-dasharray="5,2" d="M219.93,-659.42C213.66,-639.13 181.35,-534.51 164.02,-478.4"/>
<polygon fill="red" stroke="red" points="167.26,-477.04 160.97,-468.52 160.57,-479.11 167.26,-477.04"/>
</g>
<!-- docker_filebeatA -->
<g id="node18" class="node">
<title>docker_filebeatA</title>
<ellipse fill="#eecc99" stroke="black" cx="293" cy="-574.68" rx="53.07" ry="26.74"/>
<text text-anchor="middle" x="293" y="-578.48" font-family="Times,serif" font-size="14.00">Docker:</text>
<text text-anchor="middle" x="293" y="-563.48" font-family="Times,serif" font-size="14.00">Filebeat</text>
</g>
<!-- subnet_private_in&#45;&gt;docker_filebeatA -->
<!-- docker_prometheus_tech -->
<g id="node29" class="node">
<title>docker_prometheus_tech</title>
<ellipse fill="#ffee44" stroke="red" cx="767" cy="-186.43" rx="72.66" ry="37.45"/>
<text text-anchor="middle" x="767" y="-197.73" font-family="Times,serif" font-size="14.00">Docker:</text>
<text text-anchor="middle" x="767" y="-182.73" font-family="Times,serif" font-size="14.00">Prometheus</text>
<text text-anchor="middle" x="767" y="-167.73" font-family="Times,serif" font-size="14.00">(tech)</text>
</g>
<!-- subnet_private_in&#45;&gt;docker_prometheus_tech -->
<g id="edge11" class="edge">
<title>subnet_private_in&#45;&gt;docker_prometheus_tech</title>
<path fill="none" stroke="red" stroke-dasharray="5,2" d="M217.69,-660.79C197.87,-648.1 94.87,-578.85 63,-490.73 55.11,-468.91 47.72,-299.37 63,-281.91 83.38,-258.61 505.04,-213.72 685.84,-195.46"/>
<polygon fill="red" stroke="red" points="686.23,-198.93 695.83,-194.45 685.53,-191.97 686.23,-198.93"/>
</g>
<!-- docker_prometheus_busi -->
<g id="node30" class="node">
<title>docker_prometheus_busi</title>
<ellipse fill="#ffee44" stroke="red" cx="300" cy="-186.43" rx="72.66" ry="37.45"/>
<text text-anchor="middle" x="300" y="-197.73" font-family="Times,serif" font-size="14.00">Docker:</text>
<text text-anchor="middle" x="300" y="-182.73" font-family="Times,serif" font-size="14.00">Prometheus</text>
<text text-anchor="middle" x="300" y="-167.73" font-family="Times,serif" font-size="14.00">(business)</text>
</g>
<!-- subnet_private_in&#45;&gt;docker_prometheus_busi -->
<g id="edge12" class="edge">
<title>subnet_private_in&#45;&gt;docker_prometheus_busi</title>
<path fill="none" stroke="red" stroke-dasharray="5,2" d="M216.73,-662.74C193.43,-661.91 81.83,-656.72 60,-632.55 27.43,-596.49 35.17,-300.43 48,-281.91 86.05,-227 160.21,-203.95 218.27,-194.31"/>
<polygon fill="red" stroke="red" points="218.83,-197.76 228.17,-192.76 217.75,-190.85 218.83,-197.76"/>
</g>
<!-- docker_grafana -->
<g id="node31" class="node">
<title>docker_grafana</title>
<ellipse fill="#ffee44" stroke="red" cx="474" cy="-308.78" rx="52.15" ry="26.74"/>
<text text-anchor="middle" x="474" y="-312.58" font-family="Times,serif" font-size="14.00">Docker:</text>
<text text-anchor="middle" x="474" y="-297.58" font-family="Times,serif" font-size="14.00">Grafana</text>
</g>
<!-- subnet_private_in&#45;&gt;docker_grafana -->
<g id="edge10" class="edge">
<title>subnet_private_in&#45;&gt;docker_grafana</title>
<path fill="none" stroke="red" stroke-dasharray="5,2" d="M220.49,-659.3C218.48,-644.23 211.96,-584.53 228,-539.81 255.18,-464.03 270.24,-441.47 335,-393.65 364.51,-371.85 381.57,-385.56 413,-366.65 424.65,-359.64 435.96,-350.12 445.61,-340.87"/>
<polygon fill="red" stroke="red" points="448.34,-343.1 452.97,-333.57 443.41,-338.13 448.34,-343.1"/>
</g>
<!-- redis -->
<g id="node16" class="node">
<title>redis</title>
<ellipse fill="#ffee44" stroke="black" cx="820" cy="-441.73" rx="39.7" ry="38.78"/>
<text text-anchor="middle" x="820" y="-438.03" font-family="Times,serif" font-size="14.00">Redis</text>
</g>
<!-- docker_filebeatO -->
<g id="node25" class="node">
<title>docker_filebeatO</title>
<ellipse fill="#eecc99" stroke="black" cx="125" cy="-308.78" rx="53.07" ry="26.74"/>
<text text-anchor="middle" x="125" y="-312.58" font-family="Times,serif" font-size="14.00">Docker:</text>
<text text-anchor="middle" x="125" y="-297.58" font-family="Times,serif" font-size="14.00">Filebeat</text>
</g>
<!-- es&#45;&gt;docker_filebeatO -->
<g id="edge27" class="edge">
<title>es&#45;&gt;docker_filebeatO</title>
<path fill="none" stroke="#888888" stroke-dasharray="5,2" d="M145.34,-404.91C140.65,-382.97 134.76,-355.4 130.52,-335.6"/>
<polygon fill="#888888" stroke="#888888" points="141.95,-405.81 147.47,-414.86 148.8,-404.35 141.95,-405.81"/>
</g>
<!-- docker_filebeatA&#45;&gt;es -->
<g id="edge25" class="edge">
<title>docker_filebeatA&#45;&gt;es</title>
<path fill="none" stroke="#888888" stroke-dasharray="5,2" d="M268.29,-550.57C245.67,-529.41 211.99,-497.91 186.86,-474.41"/>
<polygon fill="#888888" stroke="#888888" points="189.06,-471.66 179.36,-467.39 184.27,-476.78 189.06,-471.66"/>
</g>
<!-- docker_nodeexpA -->
<g id="node19" class="node">
<title>docker_nodeexpA</title>
<ellipse fill="#eecc99" stroke="black" cx="700" cy="-574.68" rx="83.38" ry="26.74"/>
<text text-anchor="middle" x="700" y="-578.48" font-family="Times,serif" font-size="14.00">Docker:</text>
<text text-anchor="middle" x="700" y="-563.48" font-family="Times,serif" font-size="14.00">NodeExporter</text>
</g>
<!-- docker_nodeexpA&#45;&gt;docker_prometheus_tech -->
<g id="edge30" class="edge">
<title>docker_nodeexpA&#45;&gt;docker_prometheus_tech</title>
<path fill="none" stroke="#888888" stroke-dasharray="5,2" d="M761.73,-549.72C812.31,-529.47 876.72,-502 884,-490.73 909.18,-451.75 904.01,-323.78 884,-281.91 870.1,-252.81 842.38,-229.8 817.41,-213.78"/>
<polygon fill="#888888" stroke="#888888" points="760.13,-546.59 752.14,-553.54 762.72,-553.09 760.13,-546.59"/>
</g>
<!-- docker_cadvisorA -->
<g id="node20" class="node">
<title>docker_cadvisorA</title>
<ellipse fill="#eecc99" stroke="black" cx="857" cy="-574.68" rx="55.31" ry="26.74"/>
<text text-anchor="middle" x="857" y="-578.48" font-family="Times,serif" font-size="14.00">Docker:</text>
<text text-anchor="middle" x="857" y="-563.48" font-family="Times,serif" font-size="14.00">cAdvisor</text>
</g>
<!-- docker_cadvisorA&#45;&gt;docker_prometheus_tech -->
<g id="edge32" class="edge">
<title>docker_cadvisorA&#45;&gt;docker_prometheus_tech</title>
<path fill="none" stroke="#888888" stroke-dasharray="5,2" d="M877.73,-539.56C885.39,-525.05 893.14,-507.61 897,-490.73 917.68,-400.25 939.13,-364.6 897,-281.91 881.04,-250.58 849.3,-227.21 821.18,-211.54"/>
<polygon fill="#888888" stroke="#888888" points="874.5,-538.18 872.75,-548.63 880.63,-541.55 874.5,-538.18"/>
</g>
<!-- docker_webapp&#45;&gt;s3_webapp -->
<g id="edge19" class="edge">
<title>docker_webapp&#45;&gt;s3_webapp</title>
<path fill="none" stroke="green" d="M578.99,-553.33C588.08,-548.27 598.18,-543.3 608,-539.81 725.4,-498.1 764.69,-526.6 884,-490.73 902.92,-485.04 922.92,-477.05 940.66,-469.22"/>
<polygon fill="green" stroke="green" points="942.57,-472.2 950.26,-464.9 939.7,-465.81 942.57,-472.2"/>
</g>
<!-- docker_webapp&#45;&gt;redis -->
<g id="edge17" class="edge">
<title>docker_webapp&#45;&gt;redis</title>
<path fill="none" stroke="green" d="M579.94,-553.78C588.86,-548.84 598.64,-543.81 608,-539.81 675.61,-510.91 701.97,-526.88 766,-490.73 772.61,-487 779.11,-482.35 785.18,-477.43"/>
<polygon fill="green" stroke="green" points="787.84,-479.76 793.17,-470.6 783.3,-474.44 787.84,-479.76"/>
</g>
<!-- rds_shipreq -->
<g id="node23" class="node">
<title>rds_shipreq</title>
<ellipse fill="#fff8f0" stroke="black" cx="393" cy="-441.73" rx="46.29" ry="18"/>
<text text-anchor="middle" x="393" y="-438.03" font-family="Times,serif" font-size="14.00">shipreq</text>
</g>
<!-- docker_webapp&#45;&gt;rds_shipreq -->
<g id="edge18" class="edge">
<title>docker_webapp&#45;&gt;rds_shipreq</title>
<path fill="none" stroke="green" d="M520.41,-551.65C500.4,-535.01 472.37,-511.57 448,-490.73 438.32,-482.45 427.75,-473.27 418.5,-465.17"/>
<polygon fill="green" stroke="green" points="420.58,-462.34 410.76,-458.39 415.97,-467.61 420.58,-462.34"/>
</g>
<!-- docker_webapp&#45;&gt;docker_prometheus_tech -->
<g id="edge28" class="edge">
<title>docker_webapp&#45;&gt;docker_prometheus_tech</title>
<path fill="none" stroke="#888888" stroke-dasharray="5,2" d="M588.23,-548.46C594.69,-545.2 601.41,-542.18 608,-539.81 721.15,-499.19 797.09,-583.13 874,-490.73 888.86,-472.88 873.98,-302.88 864,-281.91 851.78,-256.22 829.45,-233.71 809.28,-217.11"/>
<polygon fill="#888888" stroke="#888888" points="586.19,-545.59 579,-553.37 589.47,-551.77 586.19,-545.59"/>
</g>
<!-- docker_taskman -->
<g id="node22" class="node">
<title>docker_taskman</title>
<ellipse fill="#ffee44" stroke="black" cx="421" cy="-574.68" rx="56.64" ry="26.74"/>
<text text-anchor="middle" x="421" y="-578.48" font-family="Times,serif" font-size="14.00">Docker:</text>
<text text-anchor="middle" x="421" y="-563.48" font-family="Times,serif" font-size="14.00">Taskman</text>
</g>
<!-- docker_taskman&#45;&gt;rds_shipreq -->
<g id="edge20" class="edge">
<title>docker_taskman&#45;&gt;rds_shipreq</title>
<path fill="none" stroke="green" d="M415.47,-547.81C410.65,-525.29 403.7,-492.75 398.8,-469.87"/>
<polygon fill="green" stroke="green" points="402.16,-468.84 396.65,-459.8 395.32,-470.31 402.16,-468.84"/>
</g>
<!-- docker_taskman&#45;&gt;docker_prometheus_tech -->
<g id="edge29" class="edge">
<title>docker_taskman&#45;&gt;docker_prometheus_tech</title>
<path fill="none" stroke="#888888" stroke-dasharray="5,2" d="M463.98,-548.27C528.16,-511.02 653.57,-440.88 766,-393.65 801.76,-378.62 826.2,-398.03 849,-366.65 871.13,-336.17 862.18,-317.19 849,-281.91 839.96,-257.69 821.6,-235.58 804.55,-218.84"/>
<polygon fill="#888888" stroke="#888888" points="462.21,-545.25 455.33,-553.31 465.74,-551.3 462.21,-545.25"/>
</g>
<!-- docker_db_metrics -->
<g id="node28" class="node">
<title>docker_db_metrics</title>
<ellipse fill="#ffee44" stroke="black" cx="300" cy="-308.78" rx="103.89" ry="26.74"/>
<text text-anchor="middle" x="300" y="-312.58" font-family="Times,serif" font-size="14.00">Docker:</text>
<text text-anchor="middle" x="300" y="-297.58" font-family="Times,serif" font-size="14.00">postgres_exporter</text>
</g>
<!-- rds_shipreq&#45;&gt;docker_db_metrics -->
<g id="edge34" class="edge">
<title>rds_shipreq&#45;&gt;docker_db_metrics</title>
<path fill="none" stroke="#888888" stroke-dasharray="5,2" d="M375.39,-415.94C359.09,-392.99 334.95,-358.99 318.41,-335.69"/>
<polygon fill="#888888" stroke="#888888" points="372.58,-418.02 381.22,-424.14 378.28,-413.96 372.58,-418.02"/>
</g>
<!-- rds_grafana -->
<g id="node24" class="node">
<title>rds_grafana</title>
<ellipse fill="#fff8f0" stroke="black" cx="503" cy="-441.73" rx="46.29" ry="18"/>
<text text-anchor="middle" x="503" y="-438.03" font-family="Times,serif" font-size="14.00">grafana</text>
</g>
<!-- rds_grafana&#45;&gt;docker_grafana -->
<g id="edge16" class="edge">
<title>rds_grafana&#45;&gt;docker_grafana</title>
<path fill="none" stroke="green" d="M496.99,-413.58C491.94,-390.8 484.78,-358.45 479.8,-335.95"/>
<polygon fill="green" stroke="green" points="493.63,-414.6 499.21,-423.61 500.46,-413.09 493.63,-414.6"/>
</g>
<!-- docker_nodeexpO -->
<g id="node26" class="node">
<title>docker_nodeexpO</title>
<ellipse fill="#eecc99" stroke="black" cx="628" cy="-308.78" rx="83.38" ry="26.74"/>
<text text-anchor="middle" x="628" y="-312.58" font-family="Times,serif" font-size="14.00">Docker:</text>
<text text-anchor="middle" x="628" y="-297.58" font-family="Times,serif" font-size="14.00">NodeExporter</text>
</g>
<!-- docker_nodeexpO&#45;&gt;docker_prometheus_tech -->
<g id="edge31" class="edge">
<title>docker_nodeexpO&#45;&gt;docker_prometheus_tech</title>
<path fill="none" stroke="#888888" stroke-dasharray="5,2" d="M663.7,-276.86C684.19,-259.13 709.84,-236.92 730.46,-219.06"/>
<polygon fill="#888888" stroke="#888888" points="661.4,-274.23 656.13,-283.42 665.98,-279.52 661.4,-274.23"/>
</g>
<!-- docker_cadvisorO -->
<g id="node27" class="node">
<title>docker_cadvisorO</title>
<ellipse fill="#eecc99" stroke="black" cx="785" cy="-308.78" rx="55.31" ry="26.74"/>
<text text-anchor="middle" x="785" y="-312.58" font-family="Times,serif" font-size="14.00">Docker:</text>
<text text-anchor="middle" x="785" y="-297.58" font-family="Times,serif" font-size="14.00">cAdvisor</text>
</g>
<!-- docker_cadvisorO&#45;&gt;docker_prometheus_tech -->
<g id="edge33" class="edge">
<title>docker_cadvisorO&#45;&gt;docker_prometheus_tech</title>
<path fill="none" stroke="#888888" stroke-dasharray="5,2" d="M779.64,-271.97C777.39,-256.89 774.76,-239.35 772.49,-224.16"/>
<polygon fill="#888888" stroke="#888888" points="776.2,-272.59 781.14,-281.96 783.12,-271.55 776.2,-272.59"/>
</g>
<!-- docker_db_metrics&#45;&gt;docker_prometheus_busi -->
<g id="edge35" class="edge">
<title>docker_db_metrics&#45;&gt;docker_prometheus_busi</title>
<path fill="none" stroke="#888888" stroke-dasharray="5,2" d="M300,-271.24C300,-256.26 300,-238.97 300,-223.99"/>
<polygon fill="#888888" stroke="#888888" points="296.5,-271.66 300,-281.66 303.5,-271.66 296.5,-271.66"/>
</g>
<!-- docker_prometheus_tech&#45;&gt;ebs_prometheus_tech -->
<g id="edge21" class="edge">
<title>docker_prometheus_tech&#45;&gt;ebs_prometheus_tech</title>
<path fill="none" stroke="green" d="M767,-148.95C767,-134.18 767,-116.93 767,-101.25"/>
<polygon fill="green" stroke="green" points="770.5,-101.21 767,-91.21 763.5,-101.21 770.5,-101.21"/>
</g>
<!-- docker_prometheus_busi&#45;&gt;ebs_prometheus_busi -->
<g id="edge22" class="edge">
<title>docker_prometheus_busi&#45;&gt;ebs_prometheus_busi</title>
<path fill="none" stroke="green" d="M300,-148.95C300,-134.18 300,-116.93 300,-101.25"/>
<polygon fill="green" stroke="green" points="303.5,-101.21 300,-91.21 296.5,-101.21 303.5,-101.21"/>
</g>
<!-- docker_grafana&#45;&gt;docker_prometheus_tech -->
<g id="edge23" class="edge">
<title>docker_grafana&#45;&gt;docker_prometheus_tech</title>
<path fill="none" stroke="green" d="M513.67,-291.17C521.09,-288.08 528.78,-284.89 536,-281.91 591.64,-258.92 654.92,-233.06 701.16,-214.21"/>
<polygon fill="green" stroke="green" points="702.53,-217.44 710.47,-210.42 699.89,-210.95 702.53,-217.44"/>
</g>
<!-- docker_grafana&#45;&gt;docker_prometheus_busi -->
<g id="edge24" class="edge">
<title>docker_grafana&#45;&gt;docker_prometheus_busi</title>
<path fill="none" stroke="green" d="M443.69,-286.81C418.15,-269.15 381.06,-243.49 350.96,-222.68"/>
<polygon fill="green" stroke="green" points="352.89,-219.75 342.67,-216.94 348.9,-225.51 352.89,-219.75"/>
</g>
</g>
</svg>
