<?xml version="1.0" encoding="UTF-8" standalone="no"?>
<!DOCTYPE svg PUBLIC "-//W3C//DTD SVG 1.1//EN"
 "http://www.w3.org/Graphics/SVG/1.1/DTD/svg11.dtd">
<!-- Generated by graphviz version 2.43.20190912.0211 (20190912.0211)
 -->
<!-- Title: %3 Pages: 1 -->
<svg width="824pt" height="1048pt"
 viewBox="0.00 0.00 823.73 1048.10" xmlns="http://www.w3.org/2000/svg" xmlns:xlink="http://www.w3.org/1999/xlink">
<g id="graph0" class="graph" transform="scale(1 1) rotate(0) translate(4 1044.1)">
<title>%3</title>
<polygon fill="white" stroke="transparent" points="-4,4 -4,-1044.1 819.73,-1044.1 819.73,4 -4,4"/>
<g id="clust1" class="cluster">
<title>cluster_AWS</title>
<polygon fill="#eeffdd" stroke="black" points="8,-8 8,-977.1 789,-977.1 789,-8 8,-8"/>
<text text-anchor="middle" x="398.5" y="-961.9" font-family="Times,serif" font-size="14.00">AWS</text>
</g>
<g id="clust2" class="cluster">
<title>cluster_VPC</title>
<polygon fill="white" stroke="black" points="16,-124.95 16,-884.36 781,-884.36 781,-124.95 16,-124.95"/>
<text text-anchor="middle" x="398.5" y="-869.16" font-family="Times,serif" font-size="14.00">VPC</text>
</g>
<g id="clust3" class="cluster">
<title>cluster_public</title>
<polygon fill="#999999" stroke="black" points="305,-718.19 305,-853.36 773,-853.36 773,-718.19 305,-718.19"/>
<text text-anchor="middle" x="539" y="-838.16" font-family="Times,serif" font-size="14.00">Public subnet</text>
</g>
<g id="clust4" class="cluster">
<title>cluster_private</title>
<polygon fill="#dddddd" stroke="black" points="24,-132.95 24,-699.19 773,-699.19 773,-132.95 24,-132.95"/>
<text text-anchor="middle" x="398.5" y="-683.99" font-family="Times,serif" font-size="14.00">Private subnet</text>
</g>
<g id="clust5" class="cluster">
<title>cluster_ecs2_app</title>
<polygon fill="#ffeeee" stroke="black" points="32,-539.81 32,-632.55 591,-632.55 591,-539.81 32,-539.81"/>
<text text-anchor="middle" x="311.5" y="-617.35" font-family="Times,serif" font-size="14.00">App ECS Cluster / AGS / EC2s</text>
</g>
<g id="clust6" class="cluster">
<title>cluster_rds</title>
<path fill="#b0e2ff" stroke="black" d="M118,-436.94C118,-436.94 430,-436.94 430,-436.94 436,-436.94 442,-442.94 442,-448.94 442,-448.94 442,-499.94 442,-499.94 442,-505.94 436,-511.94 430,-511.94 430,-511.94 118,-511.94 118,-511.94 112,-511.94 106,-505.94 106,-499.94 106,-499.94 106,-448.94 106,-448.94 106,-442.94 112,-436.94 118,-436.94"/>
<text text-anchor="middle" x="274" y="-496.74" font-family="Times,serif" font-size="14.00">RDS</text>
</g>
<g id="clust7" class="cluster">
<title>cluster_ecs2_ops</title>
<polygon fill="#ffeeee" stroke="black" points="84,-140.95 84,-409.07 733,-409.07 733,-140.95 84,-140.95"/>
<text text-anchor="middle" x="408.5" y="-393.87" font-family="Times,serif" font-size="14.00">Ops ECS Cluster / ASG / EC2s</text>
</g>
<!-- internet -->
<g id="node1" class="node">
<title>internet</title>
<ellipse fill="#aa1111" stroke="black" cx="555" cy="-1022.1" rx="48.99" ry="18"/>
<text text-anchor="middle" x="555" y="-1018.4" font-family="Times,serif" font-size="14.00" fill="white">Internet</text>
</g>
<!-- dns_shipreq -->
<g id="node2" class="node">
<title>dns_shipreq</title>
<ellipse fill="#ffee44" stroke="black" cx="389" cy="-919.23" rx="73.58" ry="26.74"/>
<text text-anchor="middle" x="389" y="-923.03" font-family="Times,serif" font-size="14.00">DNS:</text>
<text text-anchor="middle" x="389" y="-908.03" font-family="Times,serif" font-size="14.00">shipreq.com</text>
</g>
<!-- internet&#45;&gt;dns_shipreq -->
<g id="edge2" class="edge">
<title>internet&#45;&gt;dns_shipreq</title>
<path fill="none" stroke="red" d="M530.86,-1006.43C505.74,-991.17 465.78,-966.89 434.67,-947.98"/>
<polygon fill="red" stroke="red" points="436.1,-944.76 425.74,-942.55 432.47,-950.74 436.1,-944.76"/>
</g>
<!-- eip_bastion -->
<g id="node5" class="node">
<title>eip_bastion</title>
<ellipse fill="#ffee44" stroke="black" cx="555" cy="-919.23" rx="50.41" ry="26.74"/>
<text text-anchor="middle" x="555" y="-923.03" font-family="Times,serif" font-size="14.00">EIP:</text>
<text text-anchor="middle" x="555" y="-908.03" font-family="Times,serif" font-size="14.00">Bastion</text>
</g>
<!-- internet&#45;&gt;eip_bastion -->
<g id="edge4" class="edge">
<title>internet&#45;&gt;eip_bastion</title>
<path fill="none" stroke="red" d="M555,-1003.99C555,-990.99 555,-972.64 555,-956.42"/>
<polygon fill="red" stroke="red" points="558.5,-956.16 555,-946.16 551.5,-956.16 558.5,-956.16"/>
</g>
<!-- nat -->
<g id="node8" class="node">
<title>nat</title>
<ellipse fill="#ffee44" stroke="black" cx="729" cy="-774.28" rx="36.12" ry="26.74"/>
<text text-anchor="middle" x="729" y="-778.08" font-family="Times,serif" font-size="14.00">EC2:</text>
<text text-anchor="middle" x="729" y="-763.08" font-family="Times,serif" font-size="14.00">NAT</text>
</g>
<!-- internet&#45;&gt;nat -->
<g id="edge12" class="edge">
<title>internet&#45;&gt;nat</title>
<path fill="none" stroke="blue" d="M607.95,-1010.8C628.84,-1004.3 651.49,-993.84 667,-977.1 713.21,-927.22 725.01,-843.66 728,-801.42"/>
<polygon fill="blue" stroke="blue" points="606.84,-1007.47 598.2,-1013.6 608.77,-1014.2 606.84,-1007.47"/>
</g>
<!-- elb_webapp -->
<g id="node7" class="node">
<title>elb_webapp</title>
<ellipse fill="#ffee44" stroke="black" cx="365" cy="-774.28" rx="51.74" ry="26.74"/>
<text text-anchor="middle" x="365" y="-778.08" font-family="Times,serif" font-size="14.00">ALB:</text>
<text text-anchor="middle" x="365" y="-763.08" font-family="Times,serif" font-size="14.00">Webapp</text>
</g>
<!-- dns_shipreq&#45;&gt;elb_webapp -->
<g id="edge3" class="edge">
<title>dns_shipreq&#45;&gt;elb_webapp</title>
<path fill="none" stroke="red" d="M384.65,-892.34C380.85,-869.71 375.3,-836.62 371.06,-811.39"/>
<polygon fill="red" stroke="red" points="374.5,-810.74 369.39,-801.45 367.6,-811.9 374.5,-810.74"/>
</g>
<!-- ebs_prometheus_tech -->
<g id="node3" class="node">
<title>ebs_prometheus_tech</title>
<ellipse fill="#b0e2ff" stroke="black" cx="170" cy="-53.48" rx="72.66" ry="37.45"/>
<text text-anchor="middle" x="170" y="-64.78" font-family="Times,serif" font-size="14.00">EBS:</text>
<text text-anchor="middle" x="170" y="-49.78" font-family="Times,serif" font-size="14.00">Prometheus</text>
<text text-anchor="middle" x="170" y="-34.78" font-family="Times,serif" font-size="14.00">(tech)</text>
</g>
<!-- ebs_prometheus_busi -->
<g id="node4" class="node">
<title>ebs_prometheus_busi</title>
<ellipse fill="#b0e2ff" stroke="black" cx="549" cy="-53.48" rx="72.66" ry="37.45"/>
<text text-anchor="middle" x="549" y="-64.78" font-family="Times,serif" font-size="14.00">EBS:</text>
<text text-anchor="middle" x="549" y="-49.78" font-family="Times,serif" font-size="14.00">Prometheus</text>
<text text-anchor="middle" x="549" y="-34.78" font-family="Times,serif" font-size="14.00">(business)</text>
</g>
<!-- bastion -->
<g id="node9" class="node">
<title>bastion</title>
<ellipse fill="#ffee44" stroke="red" cx="555" cy="-774.28" rx="120.42" ry="48.17"/>
<text text-anchor="middle" x="555" y="-793.08" font-family="Times,serif" font-size="14.00">EC2:</text>
<text text-anchor="middle" x="555" y="-778.08" font-family="Times,serif" font-size="14.00">Bastion</text>
<text text-anchor="middle" x="555" y="-763.08" font-family="Times,serif" font-size="14.00">devops reverse&#45;proxy</text>
<text text-anchor="middle" x="555" y="-748.08" font-family="Times,serif" font-size="14.00">devops portal</text>
</g>
<!-- eip_bastion&#45;&gt;bastion -->
<g id="edge5" class="edge">
<title>eip_bastion&#45;&gt;bastion</title>
<path fill="none" stroke="red" d="M555,-892.34C555,-875.61 555,-853.16 555,-832.39"/>
<polygon fill="red" stroke="red" points="558.5,-832.36 555,-822.36 551.5,-832.36 558.5,-832.36"/>
</g>
<!-- internal_dns -->
<g id="node6" class="node">
<title>internal_dns</title>
<ellipse fill="#ffee44" stroke="black" cx="160" cy="-774.28" rx="104.8" ry="37.45"/>
<text text-anchor="middle" x="160" y="-785.58" font-family="Times,serif" font-size="14.00">Private DNS:</text>
<text text-anchor="middle" x="160" y="-770.58" font-family="Times,serif" font-size="14.00">&lt;env&gt;.sd.internal</text>
<text text-anchor="middle" x="160" y="-755.58" font-family="Times,serif" font-size="14.00">&lt;env&gt;.internal</text>
</g>
<!-- docker_webapp -->
<g id="node15" class="node">
<title>docker_webapp</title>
<ellipse fill="#ffee44" stroke="black" cx="407" cy="-574.68" rx="51.74" ry="26.74"/>
<text text-anchor="middle" x="407" y="-578.48" font-family="Times,serif" font-size="14.00">Docker:</text>
<text text-anchor="middle" x="407" y="-563.48" font-family="Times,serif" font-size="14.00">Webapp</text>
</g>
<!-- elb_webapp&#45;&gt;docker_webapp -->
<g id="edge6" class="edge">
<title>elb_webapp&#45;&gt;docker_webapp</title>
<path fill="none" stroke="red" d="M370.49,-747.44C377.88,-712.68 391.06,-650.69 399.4,-611.46"/>
<polygon fill="red" stroke="red" points="402.85,-612.03 401.51,-601.52 396.01,-610.58 402.85,-612.03"/>
</g>
<!-- subnet_private -->
<g id="node10" class="node">
<title>subnet_private</title>
<ellipse fill="blue" stroke="black" cx="644" cy="-663.87" rx="4.32" ry="4.32"/>
</g>
<!-- nat&#45;&gt;subnet_private -->
<g id="edge13" class="edge">
<title>nat&#45;&gt;subnet_private</title>
<path fill="none" stroke="blue" d="M705.06,-742.74C683.77,-715.59 654.74,-678.56 646.35,-667.88"/>
<polygon fill="blue" stroke="blue" points="702.46,-745.11 711.39,-750.82 707.97,-740.79 702.46,-745.11"/>
</g>
<!-- bastion&#45;&gt;subnet_private -->
<g id="edge7" class="edge">
<title>bastion&#45;&gt;subnet_private</title>
<path fill="none" stroke="red" d="M591.97,-728.25C607.95,-708.78 625.26,-687.7 635.34,-675.42"/>
<polygon fill="red" stroke="red" points="638.07,-677.61 641.71,-667.66 632.66,-673.17 638.07,-677.61"/>
</g>
<!-- es -->
<g id="node12" class="node">
<title>es</title>
<ellipse fill="#ffee44" stroke="black" cx="644" cy="-462.94" rx="81.13" ry="26.74"/>
<text text-anchor="middle" x="644" y="-466.74" font-family="Times,serif" font-size="14.00">ElasticSearch</text>
<text text-anchor="middle" x="644" y="-451.74" font-family="Times,serif" font-size="14.00">&amp; Kibana</text>
</g>
<!-- subnet_private&#45;&gt;es -->
<g id="edge8" class="edge">
<title>subnet_private&#45;&gt;es</title>
<path fill="none" stroke="red" stroke-dasharray="5,2" d="M644,-659.42C644,-640.83 644,-551.57 644,-500.33"/>
<polygon fill="red" stroke="red" points="647.5,-500.01 644,-490.01 640.5,-500.01 647.5,-500.01"/>
</g>
<!-- subnet_private&#45;&gt;docker_webapp -->
<!-- docker_prometheus_tech -->
<g id="node23" class="node">
<title>docker_prometheus_tech</title>
<ellipse fill="#ffee44" stroke="black" cx="170" cy="-186.43" rx="72.66" ry="37.45"/>
<text text-anchor="middle" x="170" y="-197.73" font-family="Times,serif" font-size="14.00">Docker:</text>
<text text-anchor="middle" x="170" y="-182.73" font-family="Times,serif" font-size="14.00">Prometheus</text>
<text text-anchor="middle" x="170" y="-167.73" font-family="Times,serif" font-size="14.00">(tech)</text>
</g>
<!-- subnet_private&#45;&gt;docker_prometheus_tech -->
<g id="edge10" class="edge">
<title>subnet_private&#45;&gt;docker_prometheus_tech</title>
<path fill="none" stroke="red" stroke-dasharray="5,2" d="M646.66,-659.88C659.57,-645.15 715.69,-578.41 734,-511.94 740.79,-487.3 750.51,-301.42 734,-281.91 718.44,-263.53 402.44,-218.73 250.39,-198.12"/>
<polygon fill="red" stroke="red" points="250.55,-194.61 240.17,-196.74 249.61,-201.55 250.55,-194.61"/>
</g>
<!-- docker_prometheus_busi -->
<g id="node24" class="node">
<title>docker_prometheus_busi</title>
<ellipse fill="#ffee44" stroke="black" cx="549" cy="-186.43" rx="72.66" ry="37.45"/>
<text text-anchor="middle" x="549" y="-197.73" font-family="Times,serif" font-size="14.00">Docker:</text>
<text text-anchor="middle" x="549" y="-182.73" font-family="Times,serif" font-size="14.00">Prometheus</text>
<text text-anchor="middle" x="549" y="-167.73" font-family="Times,serif" font-size="14.00">(business)</text>
</g>
<!-- subnet_private&#45;&gt;docker_prometheus_busi -->
<g id="edge11" class="edge">
<title>subnet_private&#45;&gt;docker_prometheus_busi</title>
<path fill="none" stroke="red" stroke-dasharray="5,2" d="M648.61,-663.25C665.48,-664.35 724.14,-665.61 749,-632.55 842.67,-508 832.41,-413.55 749,-281.91 722.25,-239.69 671,-215.98 627.08,-202.87"/>
<polygon fill="red" stroke="red" points="627.83,-199.44 617.26,-200.07 625.92,-206.17 627.83,-199.44"/>
</g>
<!-- docker_grafana -->
<g id="node25" class="node">
<title>docker_grafana</title>
<ellipse fill="#ffee44" stroke="black" cx="549" cy="-329.99" rx="52.15" ry="26.74"/>
<text text-anchor="middle" x="549" y="-333.79" font-family="Times,serif" font-size="14.00">Docker:</text>
<text text-anchor="middle" x="549" y="-318.79" font-family="Times,serif" font-size="14.00">Grafana</text>
</g>
<!-- subnet_private&#45;&gt;docker_grafana -->
<g id="edge9" class="edge">
<title>subnet_private&#45;&gt;docker_grafana</title>
<path fill="none" stroke="red" stroke-dasharray="5,2" d="M643.41,-659.47C640.58,-644.07 627.24,-579.98 595,-539.81 581.21,-522.63 564.58,-531.27 554,-511.94 529.32,-466.83 534.14,-405.47 540.84,-367.05"/>
<polygon fill="red" stroke="red" points="544.35,-367.33 542.76,-356.86 537.47,-366.04 544.35,-367.33"/>
</g>
<!-- redis -->
<g id="node11" class="node">
<title>redis</title>
<ellipse fill="#ffee44" stroke="black" cx="489" cy="-462.94" rx="36.29" ry="18"/>
<text text-anchor="middle" x="489" y="-459.24" font-family="Times,serif" font-size="14.00">Redis</text>
</g>
<!-- docker_filebeatO -->
<g id="node20" class="node">
<title>docker_filebeatO</title>
<ellipse fill="#eecc99" stroke="black" cx="672" cy="-329.99" rx="53.07" ry="26.74"/>
<text text-anchor="middle" x="672" y="-333.79" font-family="Times,serif" font-size="14.00">Docker:</text>
<text text-anchor="middle" x="672" y="-318.79" font-family="Times,serif" font-size="14.00">Filebeat</text>
</g>
<!-- es&#45;&gt;docker_filebeatO -->
<g id="edge24" class="edge">
<title>es&#45;&gt;docker_filebeatO</title>
<path fill="none" stroke="#999999" stroke-dasharray="5,2" d="M651.66,-426.12C656.35,-404.19 662.24,-376.61 666.48,-356.81"/>
<polygon fill="#999999" stroke="#999999" points="648.2,-425.56 649.53,-436.07 655.05,-427.02 648.2,-425.56"/>
</g>
<!-- docker_filebeatA -->
<g id="node13" class="node">
<title>docker_filebeatA</title>
<ellipse fill="#eecc99" stroke="black" cx="530" cy="-574.68" rx="53.07" ry="26.74"/>
<text text-anchor="middle" x="530" y="-578.48" font-family="Times,serif" font-size="14.00">Docker:</text>
<text text-anchor="middle" x="530" y="-563.48" font-family="Times,serif" font-size="14.00">Filebeat</text>
</g>
<!-- docker_filebeatA&#45;&gt;es -->
<g id="edge23" class="edge">
<title>docker_filebeatA&#45;&gt;es</title>
<path fill="none" stroke="#999999" stroke-dasharray="5,2" d="M553.9,-550.68C570.35,-534.84 592.44,-513.58 610.62,-496.07"/>
<polygon fill="#999999" stroke="#999999" points="613.37,-498.28 618.15,-488.83 608.52,-493.24 613.37,-498.28"/>
</g>
<!-- docker_nodeexpA -->
<g id="node14" class="node">
<title>docker_nodeexpA</title>
<ellipse fill="#eecc99" stroke="black" cx="123" cy="-574.68" rx="83.38" ry="26.74"/>
<text text-anchor="middle" x="123" y="-578.48" font-family="Times,serif" font-size="14.00">Docker:</text>
<text text-anchor="middle" x="123" y="-563.48" font-family="Times,serif" font-size="14.00">NodeExporter</text>
</g>
<!-- docker_nodeexpA&#45;&gt;docker_prometheus_tech -->
<g id="edge27" class="edge">
<title>docker_nodeexpA&#45;&gt;docker_prometheus_tech</title>
<path fill="none" stroke="#999999" stroke-dasharray="5,2" d="M74.99,-544.77C64.13,-535.72 54.02,-524.71 48,-511.94 4.36,-419.49 2.98,-373.7 48,-281.91 62.68,-251.96 91.94,-228.8 118.12,-212.9"/>
<polygon fill="#999999" stroke="#999999" points="72.96,-547.62 83,-551.01 77.26,-542.1 72.96,-547.62"/>
</g>
<!-- docker_webapp&#45;&gt;redis -->
<g id="edge15" class="edge">
<title>docker_webapp&#45;&gt;redis</title>
<path fill="none" stroke="green" d="M425.2,-549.33C438.74,-531.2 457.15,-506.57 470.72,-488.41"/>
<polygon fill="green" stroke="green" points="473.76,-490.19 476.94,-480.08 468.15,-486 473.76,-490.19"/>
</g>
<!-- rds_shipreq -->
<g id="node17" class="node">
<title>rds_shipreq</title>
<ellipse fill="#fff8f0" stroke="black" cx="278" cy="-462.94" rx="46.29" ry="18"/>
<text text-anchor="middle" x="278" y="-459.24" font-family="Times,serif" font-size="14.00">shipreq</text>
</g>
<!-- docker_webapp&#45;&gt;rds_shipreq -->
<g id="edge16" class="edge">
<title>docker_webapp&#45;&gt;rds_shipreq</title>
<path fill="none" stroke="green" d="M380.16,-551.54C366.06,-539.84 348.53,-525.19 333,-511.94 323.31,-503.67 312.74,-494.49 303.49,-486.4"/>
<polygon fill="green" stroke="green" points="305.57,-483.57 295.75,-479.61 300.96,-488.83 305.57,-483.57"/>
</g>
<!-- rds_taskman -->
<g id="node18" class="node">
<title>rds_taskman</title>
<ellipse fill="#fff8f0" stroke="black" cx="164" cy="-462.94" rx="50.09" ry="18"/>
<text text-anchor="middle" x="164" y="-459.24" font-family="Times,serif" font-size="14.00">taskman</text>
</g>
<!-- docker_webapp&#45;&gt;rds_taskman -->
<g id="edge17" class="edge">
<title>docker_webapp&#45;&gt;rds_taskman</title>
<path fill="none" stroke="green" d="M375.15,-553.43C366.29,-548.43 356.49,-543.47 347,-539.81 294.29,-519.52 273.81,-536.62 223,-511.94 210.07,-505.66 197.46,-496.04 187.24,-487.06"/>
<polygon fill="green" stroke="green" points="189.34,-484.23 179.6,-480.06 184.62,-489.4 189.34,-484.23"/>
</g>
<!-- docker_webapp&#45;&gt;docker_prometheus_tech -->
<g id="edge25" class="edge">
<title>docker_webapp&#45;&gt;docker_prometheus_tech</title>
<path fill="none" stroke="#999999" stroke-dasharray="5,2" d="M366.84,-548.16C360.39,-544.91 353.65,-541.97 347,-539.81 294.88,-522.91 142.07,-549.32 102,-511.94 64.49,-476.95 64.35,-329.69 83,-281.91 92.73,-256.98 112.45,-234.66 130.66,-217.99"/>
<polygon fill="#999999" stroke="#999999" points="365.56,-551.44 376.02,-553.09 368.87,-545.27 365.56,-551.44"/>
</g>
<!-- docker_taskman -->
<g id="node16" class="node">
<title>docker_taskman</title>
<ellipse fill="#ffee44" stroke="black" cx="281" cy="-574.68" rx="56.64" ry="26.74"/>
<text text-anchor="middle" x="281" y="-578.48" font-family="Times,serif" font-size="14.00">Docker:</text>
<text text-anchor="middle" x="281" y="-563.48" font-family="Times,serif" font-size="14.00">Taskman</text>
</g>
<!-- docker_taskman&#45;&gt;rds_taskman -->
<g id="edge18" class="edge">
<title>docker_taskman&#45;&gt;rds_taskman</title>
<path fill="none" stroke="green" d="M256.19,-550.41C236.29,-531.75 208.51,-505.69 188.65,-487.06"/>
<polygon fill="green" stroke="green" points="190.89,-484.37 181.2,-480.08 186.1,-489.47 190.89,-484.37"/>
</g>
<!-- docker_taskman&#45;&gt;docker_prometheus_tech -->
<g id="edge26" class="edge">
<title>docker_taskman&#45;&gt;docker_prometheus_tech</title>
<path fill="none" stroke="#999999" stroke-dasharray="5,2" d="M237.2,-549.02C229.93,-545.57 222.37,-542.34 215,-539.81 152.11,-518.22 110.42,-563.16 68,-511.94 35.39,-472.57 47.54,-328.75 68,-281.91 79.74,-255.03 103.31,-232.39 124.84,-216.01"/>
<polygon fill="#999999" stroke="#999999" points="235.68,-552.17 246.2,-553.47 238.79,-545.9 235.68,-552.17"/>
</g>
<!-- docker_db_metrics -->
<g id="node22" class="node">
<title>docker_db_metrics</title>
<ellipse fill="#eecc99" stroke="black" cx="378" cy="-329.99" rx="101.23" ry="48.17"/>
<text text-anchor="middle" x="378" y="-348.79" font-family="Times,serif" font-size="14.00">?</text>
<text text-anchor="middle" x="378" y="-333.79" font-family="Times,serif" font-size="14.00">DB metrics to</text>
<text text-anchor="middle" x="378" y="-318.79" font-family="Times,serif" font-size="14.00">materialised view</text>
<text text-anchor="middle" x="378" y="-303.79" font-family="Times,serif" font-size="14.00">?</text>
</g>
<!-- rds_shipreq&#45;&gt;docker_db_metrics -->
<g id="edge29" class="edge">
<title>rds_shipreq&#45;&gt;docker_db_metrics</title>
<path fill="none" stroke="#999999" stroke-dasharray="5,2" d="M296.75,-437.38C310.03,-420.01 328.2,-396.21 343.99,-375.53"/>
<polygon fill="#999999" stroke="#999999" points="293.95,-435.29 290.67,-445.36 299.52,-439.53 293.95,-435.29"/>
</g>
<!-- rds_taskman&#45;&gt;docker_db_metrics -->
<g id="edge30" class="edge">
<title>rds_taskman&#45;&gt;docker_db_metrics</title>
<path fill="none" stroke="#999999" stroke-dasharray="5,2" d="M202.69,-443.67C222.31,-434.01 246.3,-421.58 267,-409.07 286.26,-397.43 306.59,-383.61 324.52,-370.86"/>
<polygon fill="#999999" stroke="#999999" points="200.9,-440.65 193.44,-448.18 203.97,-446.94 200.9,-440.65"/>
</g>
<!-- rds_grafana -->
<g id="node19" class="node">
<title>rds_grafana</title>
<ellipse fill="#fff8f0" stroke="black" cx="388" cy="-462.94" rx="46.29" ry="18"/>
<text text-anchor="middle" x="388" y="-459.24" font-family="Times,serif" font-size="14.00">grafana</text>
</g>
<!-- rds_grafana&#45;&gt;docker_grafana -->
<g id="edge14" class="edge">
<title>rds_grafana&#45;&gt;docker_grafana</title>
<path fill="none" stroke="green" d="M423.76,-443.48C451.31,-429.19 485.18,-411.44 488,-409.07 506.2,-393.83 522.51,-372.34 533.67,-355.75"/>
<polygon fill="green" stroke="green" points="421.98,-440.46 414.72,-448.17 425.2,-446.68 421.98,-440.46"/>
</g>
<!-- docker_nodeexpO -->
<g id="node21" class="node">
<title>docker_nodeexpO</title>
<ellipse fill="#eecc99" stroke="black" cx="175" cy="-329.99" rx="83.38" ry="26.74"/>
<text text-anchor="middle" x="175" y="-333.79" font-family="Times,serif" font-size="14.00">Docker:</text>
<text text-anchor="middle" x="175" y="-318.79" font-family="Times,serif" font-size="14.00">NodeExporter</text>
</g>
<!-- docker_nodeexpO&#45;&gt;docker_prometheus_tech -->
<g id="edge28" class="edge">
<title>docker_nodeexpO&#45;&gt;docker_prometheus_tech</title>
<path fill="none" stroke="#999999" stroke-dasharray="5,2" d="M173.72,-292.87C172.98,-271.81 172.04,-245.32 171.3,-224.16"/>
<polygon fill="#999999" stroke="#999999" points="170.23,-293.16 174.08,-303.03 177.23,-292.91 170.23,-293.16"/>
</g>
<!-- docker_db_metrics&#45;&gt;docker_prometheus_busi -->
<g id="edge31" class="edge">
<title>docker_db_metrics&#45;&gt;docker_prometheus_busi</title>
<path fill="none" stroke="#999999" stroke-dasharray="5,2" d="M435.44,-281.44C460.46,-260.73 489.08,-237.03 511.33,-218.61"/>
<polygon fill="#999999" stroke="#999999" points="432.93,-278.97 427.46,-288.04 437.4,-284.36 432.93,-278.97"/>
</g>
<!-- docker_prometheus_tech&#45;&gt;ebs_prometheus_tech -->
<g id="edge19" class="edge">
<title>docker_prometheus_tech&#45;&gt;ebs_prometheus_tech</title>
<path fill="none" stroke="green" d="M170,-148.95C170,-134.18 170,-116.93 170,-101.25"/>
<polygon fill="green" stroke="green" points="173.5,-101.21 170,-91.21 166.5,-101.21 173.5,-101.21"/>
</g>
<!-- docker_prometheus_busi&#45;&gt;ebs_prometheus_busi -->
<g id="edge20" class="edge">
<title>docker_prometheus_busi&#45;&gt;ebs_prometheus_busi</title>
<path fill="none" stroke="green" d="M549,-148.95C549,-134.18 549,-116.93 549,-101.25"/>
<polygon fill="green" stroke="green" points="552.5,-101.21 549,-91.21 545.5,-101.21 552.5,-101.21"/>
</g>
<!-- docker_grafana&#45;&gt;docker_prometheus_tech -->
<g id="edge21" class="edge">
<title>docker_grafana&#45;&gt;docker_prometheus_tech</title>
<path fill="none" stroke="green" d="M524.01,-306.33C513.49,-297.72 500.74,-288.43 488,-281.91 410.83,-242.41 314.47,-216.7 248.17,-202.21"/>
<polygon fill="green" stroke="green" points="248.71,-198.75 238.2,-200.07 247.24,-205.59 248.71,-198.75"/>
</g>
<!-- docker_grafana&#45;&gt;docker_prometheus_busi -->
<g id="edge22" class="edge">
<title>docker_grafana&#45;&gt;docker_prometheus_busi</title>
<path fill="none" stroke="green" d="M549,-303.03C549,-283.85 549,-257.23 549,-234.36"/>
<polygon fill="green" stroke="green" points="552.5,-234.16 549,-224.16 545.5,-234.16 552.5,-234.16"/>
</g>
</g>
</svg>
