<?xml version="1.0" encoding="UTF-8" standalone="no"?>
<!DOCTYPE svg PUBLIC "-//W3C//DTD SVG 1.1//EN"
 "http://www.w3.org/Graphics/SVG/1.1/DTD/svg11.dtd">
<!-- Generated by graphviz version 14.1.1 (20251213.1925)
 -->
<!-- Pages: 1 -->
<svg width="1223pt" height="1066pt"
 viewBox="0.00 0.00 1223.00 1066.00" xmlns="http://www.w3.org/2000/svg" xmlns:xlink="http://www.w3.org/1999/xlink">
<g id="graph0" class="graph" transform="scale(1 1) rotate(0) translate(4 1062.28)">
<polygon fill="white" stroke="none" points="-4,4 -4,-1062.28 1219,-1062.28 1219,4 -4,4"/>
<g id="clust1" class="cluster">
<title>cluster_AWS</title>
<polygon fill="#eeffdd" stroke="black" points="8,-8 8,-996.78 1207,-996.78 1207,-8 8,-8"/>
<text xml:space="preserve" text-anchor="middle" x="607.5" y="-979.48" font-family="Times,serif" font-size="14.00">AWS</text>
</g>
<g id="clust3" class="cluster">
<title>cluster_VPC</title>
<polygon fill="white" stroke="black" points="236,-131.32 236,-898.29 1199,-898.29 1199,-131.32 236,-131.32"/>
<text xml:space="preserve" text-anchor="middle" x="717.5" y="-880.99" font-family="Times,serif" font-size="14.00">VPC</text>
</g>
<g id="clust4" class="cluster">
<title>cluster_public</title>
<polygon fill="#999999" stroke="black" points="244,-726.81 244,-865.79 1023,-865.79 1023,-726.81 244,-726.81"/>
<text xml:space="preserve" text-anchor="middle" x="633.5" y="-848.49" font-family="Times,serif" font-size="14.00">Public subnet</text>
</g>
<g id="clust5" class="cluster">
<title>cluster_bastion</title>
<path fill="#ffee44" stroke="red" d="M360,-734.81C360,-734.81 611,-734.81 611,-734.81 617,-734.81 623,-740.81 623,-746.81 623,-746.81 623,-821.29 623,-821.29 623,-827.29 617,-833.29 611,-833.29 611,-833.29 360,-833.29 360,-833.29 354,-833.29 348,-827.29 348,-821.29 348,-821.29 348,-746.81 348,-746.81 348,-740.81 354,-734.81 360,-734.81"/>
<text xml:space="preserve" text-anchor="middle" x="485.5" y="-815.99" font-family="Times,serif" font-size="14.00">EC2: Bastion</text>
</g>
<g id="clust6" class="cluster">
<title>cluster_nat</title>
<path fill="#ffee44" stroke="red" d="M643,-734.81C643,-734.81 1003,-734.81 1003,-734.81 1009,-734.81 1015,-740.81 1015,-746.81 1015,-746.81 1015,-821.29 1015,-821.29 1015,-827.29 1009,-833.29 1003,-833.29 1003,-833.29 643,-833.29 643,-833.29 637,-833.29 631,-827.29 631,-821.29 631,-821.29 631,-746.81 631,-746.81 631,-740.81 637,-734.81 643,-734.81"/>
<text xml:space="preserve" text-anchor="middle" x="823" y="-815.99" font-family="Times,serif" font-size="14.00">EC2: NAT</text>
</g>
<g id="clust8" class="cluster">
<title>cluster_private</title>
<polygon fill="#dddddd" stroke="black" points="244,-139.32 244,-705.64 1138,-705.64 1138,-139.32 244,-139.32"/>
<text xml:space="preserve" text-anchor="middle" x="691" y="-688.34" font-family="Times,serif" font-size="14.00">Private subnet</text>
</g>
<g id="clust9" class="cluster">
<title>cluster_app</title>
<polygon fill="#ffeeee" stroke="black" points="252,-540.52 252,-639 824,-639 824,-540.52 252,-540.52"/>
<text xml:space="preserve" text-anchor="middle" x="538" y="-621.7" font-family="Times,serif" font-size="14.00">App ECS Cluster / AGS / EC2s</text>
</g>
<g id="clust10" class="cluster">
<title>cluster_rds</title>
<path fill="#b0e2ff" stroke="black" d="M654,-424.57C654,-424.57 818,-424.57 818,-424.57 824,-424.57 830,-430.57 830,-436.57 830,-436.57 830,-489.07 830,-489.07 830,-495.07 824,-501.07 818,-501.07 818,-501.07 654,-501.07 654,-501.07 648,-501.07 642,-495.07 642,-489.07 642,-489.07 642,-436.57 642,-436.57 642,-430.57 648,-424.57 654,-424.57"/>
<text xml:space="preserve" text-anchor="middle" x="736" y="-483.77" font-family="Times,serif" font-size="14.00">RDS</text>
</g>
<g id="clust11" class="cluster">
<title>cluster_ops</title>
<polygon fill="#ffeeee" stroke="black" points="324,-147.32 324,-385.12 1098,-385.12 1098,-147.32 324,-147.32"/>
<text xml:space="preserve" text-anchor="middle" x="711" y="-367.82" font-family="Times,serif" font-size="14.00">Ops ECS Cluster / ASG / EC2s</text>
</g>
<!-- internet -->
<g id="node1" class="node">
<title>internet</title>
<ellipse fill="#aa1111" stroke="black" cx="509" cy="-1040.28" rx="39.58" ry="18"/>
<text xml:space="preserve" text-anchor="middle" x="509" y="-1035.23" font-family="Times,serif" font-size="14.00" fill="white">Internet</text>
</g>
<!-- dns_shipreq -->
<g id="node2" class="node">
<title>dns_shipreq</title>
<ellipse fill="#ffee44" stroke="black" cx="267" cy="-935.28" rx="59.04" ry="28.99"/>
<text xml:space="preserve" text-anchor="middle" x="267" y="-938.48" font-family="Times,serif" font-size="14.00">DNS:</text>
<text xml:space="preserve" text-anchor="middle" x="267" y="-921.98" font-family="Times,serif" font-size="14.00">shipreq.com</text>
</g>
<!-- internet&#45;&gt;dns_shipreq -->
<g id="edge2" class="edge">
<title>internet&#45;&gt;dns_shipreq</title>
<path fill="none" stroke="red" d="M472.44,-1033.05C440,-1026.66 391.87,-1015.05 353,-996.78 336.47,-989 319.72,-978.06 305.45,-967.62"/>
<polygon fill="red" stroke="red" points="307.76,-964.98 297.67,-961.78 303.56,-970.58 307.76,-964.98"/>
</g>
<!-- dns_cdn -->
<g id="node3" class="node">
<title>dns_cdn</title>
<ellipse fill="#ffee44" stroke="black" cx="103" cy="-935.28" rx="87.15" ry="28.99"/>
<text xml:space="preserve" text-anchor="middle" x="103" y="-938.48" font-family="Times,serif" font-size="14.00">DNS:</text>
<text xml:space="preserve" text-anchor="middle" x="103" y="-921.98" font-family="Times,serif" font-size="14.00">&lt;cdn&gt;.shipreq.com</text>
</g>
<!-- internet&#45;&gt;dns_cdn -->
<g id="edge6" class="edge">
<title>internet&#45;&gt;dns_cdn</title>
<path fill="none" stroke="red" d="M469.06,-1039.15C408.75,-1037.78 291.64,-1030.52 199,-996.78 180.28,-989.96 161.36,-979.08 145.33,-968.42"/>
<polygon fill="red" stroke="red" points="147.73,-965.82 137.5,-963.06 143.77,-971.6 147.73,-965.82"/>
</g>
<!-- eip_bastion -->
<g id="node9" class="node">
<title>eip_bastion</title>
<ellipse fill="#ffee44" stroke="black" cx="509" cy="-935.28" rx="40.48" ry="28.99"/>
<text xml:space="preserve" text-anchor="middle" x="509" y="-938.48" font-family="Times,serif" font-size="14.00">EIP:</text>
<text xml:space="preserve" text-anchor="middle" x="509" y="-921.98" font-family="Times,serif" font-size="14.00">Bastion</text>
</g>
<!-- internet&#45;&gt;eip_bastion -->
<g id="edge4" class="edge">
<title>internet&#45;&gt;eip_bastion</title>
<path fill="none" stroke="red" d="M509,-1021.8C509,-1009.24 509,-991.79 509,-975.93"/>
<polygon fill="red" stroke="red" points="512.5,-976.26 509,-966.26 505.5,-976.26 512.5,-976.26"/>
</g>
<!-- bastion_out -->
<g id="node13" class="node">
<title>bastion_out</title>
<ellipse fill="blue" stroke="black" cx="387" cy="-771.8" rx="4.32" ry="4.32"/>
</g>
<!-- internet&#45;&gt;bastion_out -->
<g id="edge17" class="edge">
<title>internet&#45;&gt;bastion_out</title>
<path fill="none" stroke="blue" d="M543.62,-1019.57C551.41,-1013.35 558.66,-1005.72 563,-996.78 580.56,-960.6 590.73,-935.42 563,-906.29 550.5,-893.16 413.16,-910.76 400,-898.29 364.06,-864.25 381.45,-792.51 386.01,-776.17"/>
<polygon fill="blue" stroke="blue" points="541.67,-1016.66 535.59,-1025.33 545.76,-1022.34 541.67,-1016.66"/>
</g>
<!-- docker_nat -->
<g id="node17" class="node">
<title>docker_nat</title>
<ellipse fill="#fff8f0" stroke="black" cx="681" cy="-771.8" rx="42.07" ry="28.99"/>
<text xml:space="preserve" text-anchor="middle" x="681" y="-775" font-family="Times,serif" font-size="14.00">Docker:</text>
<text xml:space="preserve" text-anchor="middle" x="681" y="-758.5" font-family="Times,serif" font-size="14.00">NAT</text>
</g>
<!-- internet&#45;&gt;docker_nat -->
<g id="edge16" class="edge">
<title>internet&#45;&gt;docker_nat</title>
<path fill="none" stroke="blue" d="M549.4,-1023.36C562.39,-1016.69 575.99,-1007.87 586,-996.78 638.61,-938.43 664.92,-846.64 675.38,-800.8"/>
<polygon fill="blue" stroke="blue" points="548.06,-1020.12 540.56,-1027.59 551.09,-1026.43 548.06,-1020.12"/>
</g>
<!-- acm_ssl -->
<g id="node4" class="node">
<title>acm_ssl</title>
<ellipse fill="#ffee44" stroke="black" cx="406" cy="-935.28" rx="44.19" ry="28.99"/>
<text xml:space="preserve" text-anchor="middle" x="406" y="-938.48" font-family="Times,serif" font-size="14.00">ACM:</text>
<text xml:space="preserve" text-anchor="middle" x="406" y="-921.98" font-family="Times,serif" font-size="14.00">SSL cert</text>
</g>
<!-- dns_shipreq&#45;&gt;acm_ssl -->
<g id="edge21" class="edge">
<title>dns_shipreq&#45;&gt;acm_ssl</title>
<path fill="none" stroke="green" d="M326.46,-935.28C334.41,-935.28 342.37,-935.28 350.32,-935.28"/>
<polygon fill="green" stroke="green" points="350.05,-938.78 360.05,-935.28 350.05,-931.78 350.05,-938.78"/>
</g>
<!-- alb_webapp -->
<g id="node11" class="node">
<title>alb_webapp</title>
<ellipse fill="#ffee44" stroke="red" cx="295" cy="-771.8" rx="43.13" ry="28.99"/>
<text xml:space="preserve" text-anchor="middle" x="295" y="-775" font-family="Times,serif" font-size="14.00">ALB:</text>
<text xml:space="preserve" text-anchor="middle" x="295" y="-758.5" font-family="Times,serif" font-size="14.00">Webapp</text>
</g>
<!-- dns_shipreq&#45;&gt;alb_webapp -->
<g id="edge3" class="edge">
<title>dns_shipreq&#45;&gt;alb_webapp</title>
<path fill="none" stroke="red" d="M271.88,-906.16C276.4,-880.07 283.17,-841.01 288.22,-811.89"/>
<polygon fill="red" stroke="red" points="291.61,-812.82 289.87,-802.37 284.72,-811.62 291.61,-812.82"/>
</g>
<!-- cdn -->
<g id="node5" class="node">
<title>cdn</title>
<ellipse fill="#ffee44" stroke="black" cx="198" cy="-771.8" rx="30.37" ry="18"/>
<text xml:space="preserve" text-anchor="middle" x="198" y="-766.75" font-family="Times,serif" font-size="14.00">CDN</text>
</g>
<!-- dns_cdn&#45;&gt;cdn -->
<g id="edge7" class="edge">
<title>dns_cdn&#45;&gt;cdn</title>
<path fill="none" stroke="red" d="M147.45,-910.13C151.74,-906.56 155.71,-902.62 159,-898.29 180.9,-869.51 190.63,-828.25 194.87,-801"/>
<polygon fill="red" stroke="red" points="198.29,-801.8 196.2,-791.41 191.36,-800.84 198.29,-801.8"/>
</g>
<!-- acm_cdn -->
<g id="node6" class="node">
<title>acm_cdn</title>
<ellipse fill="#ffee44" stroke="black" cx="83" cy="-771.8" rx="67" ry="28.99"/>
<text xml:space="preserve" text-anchor="middle" x="83" y="-775" font-family="Times,serif" font-size="14.00">ACM:</text>
<text xml:space="preserve" text-anchor="middle" x="83" y="-758.5" font-family="Times,serif" font-size="14.00">SSL CDN cert</text>
</g>
<!-- dns_cdn&#45;&gt;acm_cdn -->
<g id="edge20" class="edge">
<title>dns_cdn&#45;&gt;acm_cdn</title>
<path fill="none" stroke="green" d="M99.52,-906.16C96.31,-880.27 91.52,-841.59 87.92,-812.55"/>
<polygon fill="green" stroke="green" points="91.4,-812.15 86.7,-802.65 84.45,-813.01 91.4,-812.15"/>
</g>
<!-- acm_ssl&#45;&gt;alb_webapp -->
<g id="edge22" class="edge">
<title>acm_ssl&#45;&gt;alb_webapp</title>
<path fill="none" stroke="green" d="M360.04,-912.49C354.14,-908.36 348.57,-903.63 344,-898.29 319.8,-870.06 306.76,-828.49 300.35,-801.04"/>
<polygon fill="green" stroke="green" points="357.91,-915.28 368.23,-917.69 361.66,-909.37 357.91,-915.28"/>
</g>
<!-- cdn&#45;&gt;dns_shipreq -->
<g id="edge8" class="edge">
<title>cdn&#45;&gt;dns_shipreq</title>
<path fill="none" stroke="red" d="M201.93,-790.15C207.53,-813.24 219.06,-855.22 240.48,-897.83"/>
<polygon fill="red" stroke="red" points="237.25,-899.19 244.97,-906.44 243.46,-895.96 237.25,-899.19"/>
</g>
<!-- ebs_prometheus_tech -->
<g id="node7" class="node">
<title>ebs_prometheus_tech</title>
<ellipse fill="#b0e2ff" stroke="black" cx="465" cy="-56.66" rx="56.92" ry="40.66"/>
<text xml:space="preserve" text-anchor="middle" x="465" y="-68.11" font-family="Times,serif" font-size="14.00">EBS:</text>
<text xml:space="preserve" text-anchor="middle" x="465" y="-51.61" font-family="Times,serif" font-size="14.00">Prometheus</text>
<text xml:space="preserve" text-anchor="middle" x="465" y="-35.11" font-family="Times,serif" font-size="14.00">(tech)</text>
</g>
<!-- ebs_prometheus_busi -->
<g id="node8" class="node">
<title>ebs_prometheus_busi</title>
<ellipse fill="#b0e2ff" stroke="black" cx="946" cy="-56.66" rx="56.92" ry="40.66"/>
<text xml:space="preserve" text-anchor="middle" x="946" y="-68.11" font-family="Times,serif" font-size="14.00">EBS:</text>
<text xml:space="preserve" text-anchor="middle" x="946" y="-51.61" font-family="Times,serif" font-size="14.00">Prometheus</text>
<text xml:space="preserve" text-anchor="middle" x="946" y="-35.11" font-family="Times,serif" font-size="14.00">(business)</text>
</g>
<!-- bastion -->
<g id="node12" class="node">
<title>bastion</title>
<ellipse fill="red" stroke="black" cx="360" cy="-771.8" rx="4.32" ry="4.32"/>
</g>
<!-- eip_bastion&#45;&gt;bastion -->
<g id="edge5" class="edge">
<title>eip_bastion&#45;&gt;bastion</title>
<path fill="none" stroke="red" d="M479.51,-915.14C472.98,-911.66 465.93,-908.45 459,-906.29 440.89,-900.65 387.53,-911.59 374,-898.29 358.68,-883.24 358.61,-817.7 359.42,-787.79"/>
<polygon fill="red" stroke="red" points="362.91,-788.23 359.76,-778.11 355.91,-787.98 362.91,-788.23"/>
</g>
<!-- internal_dns -->
<g id="node10" class="node">
<title>internal_dns</title>
<ellipse fill="#ffee44" stroke="black" cx="1111" cy="-771.8" rx="79.73" ry="40.66"/>
<text xml:space="preserve" text-anchor="middle" x="1111" y="-783.25" font-family="Times,serif" font-size="14.00">Private DNS:</text>
<text xml:space="preserve" text-anchor="middle" x="1111" y="-766.75" font-family="Times,serif" font-size="14.00">&lt;env&gt;.sd.internal</text>
<text xml:space="preserve" text-anchor="middle" x="1111" y="-750.25" font-family="Times,serif" font-size="14.00">&lt;env&gt;.internal</text>
</g>
<!-- docker_webapp -->
<g id="node27" class="node">
<title>docker_webapp</title>
<ellipse fill="#ffee44" stroke="red" cx="559" cy="-577.51" rx="43.13" ry="28.99"/>
<text xml:space="preserve" text-anchor="middle" x="559" y="-580.71" font-family="Times,serif" font-size="14.00">Docker:</text>
<text xml:space="preserve" text-anchor="middle" x="559" y="-564.21" font-family="Times,serif" font-size="14.00">Webapp</text>
</g>
<!-- alb_webapp&#45;&gt;docker_webapp -->
<g id="edge9" class="edge">
<title>alb_webapp&#45;&gt;docker_webapp</title>
<path fill="none" stroke="red" d="M319.7,-747.62C327.33,-740.74 335.87,-733.3 344,-726.81 381.45,-696.91 389.32,-686.29 432,-664.5 463.36,-648.5 477.83,-658.71 507,-639 517.26,-632.07 526.7,-622.6 534.64,-613.21"/>
<polygon fill="red" stroke="red" points="537.29,-615.49 540.82,-605.5 531.83,-611.11 537.29,-615.49"/>
</g>
<!-- subnet_private_in -->
<g id="node20" class="node">
<title>subnet_private_in</title>
<ellipse fill="red" stroke="black" cx="818" cy="-668.82" rx="4.32" ry="4.32"/>
</g>
<!-- bastion&#45;&gt;subnet_private_in -->
<g id="edge10" class="edge">
<title>bastion&#45;&gt;subnet_private_in</title>
<path fill="none" stroke="red" d="M359.95,-767.14C360.04,-758.58 361.57,-737.18 374,-726.81 407.64,-698.75 726.43,-675.91 802,-670.86"/>
<polygon fill="red" stroke="red" points="802.17,-674.36 811.92,-670.21 801.72,-667.38 802.17,-674.36"/>
</g>
<!-- docker_portal -->
<g id="node14" class="node">
<title>docker_portal</title>
<ellipse fill="#fff8f0" stroke="black" cx="461" cy="-771.8" rx="52.15" ry="28.99"/>
<text xml:space="preserve" text-anchor="middle" x="461" y="-775" font-family="Times,serif" font-size="14.00">Docker:</text>
<text xml:space="preserve" text-anchor="middle" x="461" y="-758.5" font-family="Times,serif" font-size="14.00">Ops Portal</text>
</g>
<!-- docker_portal&#45;&gt;subnet_private_in -->
<g id="edge11" class="edge">
<title>docker_portal&#45;&gt;subnet_private_in</title>
<path fill="none" stroke="red" stroke-dasharray="5,2" d="M488.6,-747.01C498.56,-739.52 510.25,-731.88 522,-726.81 622.8,-683.3 757.18,-672.83 802.41,-670.47"/>
<polygon fill="red" stroke="red" points="802.28,-673.98 812.11,-670.03 801.96,-666.99 802.28,-673.98"/>
</g>
<!-- docker_filebeatB -->
<g id="node15" class="node">
<title>docker_filebeatB</title>
<ellipse fill="#eecc99" stroke="black" cx="573" cy="-771.8" rx="42.07" ry="28.99"/>
<text xml:space="preserve" text-anchor="middle" x="573" y="-775" font-family="Times,serif" font-size="14.00">Docker:</text>
<text xml:space="preserve" text-anchor="middle" x="573" y="-758.5" font-family="Times,serif" font-size="14.00">filebeat</text>
</g>
<!-- es -->
<g id="node23" class="node">
<title>es</title>
<ellipse fill="#b0e2ff" stroke="red" cx="972" cy="-450.57" rx="63.29" ry="28.99"/>
<text xml:space="preserve" text-anchor="middle" x="972" y="-453.77" font-family="Times,serif" font-size="14.00">ElasticSearch</text>
<text xml:space="preserve" text-anchor="middle" x="972" y="-437.27" font-family="Times,serif" font-size="14.00">&amp; Kibana</text>
</g>
<!-- docker_filebeatB&#45;&gt;es -->
<g id="edge33" class="edge">
<title>docker_filebeatB&#45;&gt;es</title>
<path fill="none" stroke="#888888" stroke-dasharray="5,2" d="M595.98,-747.03C604.9,-739.25 615.69,-731.43 627,-726.81 722.45,-687.85 768.73,-757.22 858,-705.64 934.53,-661.42 959.89,-550.79 968.14,-491.15"/>
<polygon fill="#888888" stroke="#888888" points="971.58,-491.8 969.38,-481.44 964.64,-490.91 971.58,-491.8"/>
</g>
<!-- nat_in -->
<g id="node16" class="node">
<title>nat_in</title>
<ellipse fill="blue" stroke="black" cx="745" cy="-771.8" rx="4.32" ry="4.32"/>
</g>
<!-- subnet_private_out -->
<g id="node21" class="node">
<title>subnet_private_out</title>
<ellipse fill="blue" stroke="black" cx="845" cy="-668.82" rx="4.32" ry="4.32"/>
</g>
<!-- nat_in&#45;&gt;subnet_private_out -->
<g id="edge18" class="edge">
<title>nat_in&#45;&gt;subnet_private_out</title>
<path fill="none" stroke="blue" d="M745.88,-755.56C747.21,-746.1 750.41,-734.36 758,-726.81 781.95,-702.98 806.06,-728.43 831,-705.64 840.66,-696.82 843.74,-680.51 844.65,-673.35"/>
<polygon fill="blue" stroke="blue" points="742.39,-755.27 745.09,-765.51 749.37,-755.82 742.39,-755.27"/>
</g>
<!-- docker_nat&#45;&gt;nat_in -->
<g id="edge19" class="edge">
<title>docker_nat&#45;&gt;nat_in</title>
<path fill="none" stroke="blue" d="M734.79,-771.8C736.62,-771.8 738.46,-771.8 740.3,-771.8"/>
<polygon fill="blue" stroke="blue" points="735.01,-768.3 725.01,-771.8 735.01,-775.3 735.01,-768.3"/>
</g>
<!-- docker_squid_exporter -->
<g id="node19" class="node">
<title>docker_squid_exporter</title>
<ellipse fill="#eecc99" stroke="black" cx="836" cy="-771.8" rx="68.59" ry="28.99"/>
<text xml:space="preserve" text-anchor="middle" x="836" y="-775" font-family="Times,serif" font-size="14.00">Docker:</text>
<text xml:space="preserve" text-anchor="middle" x="836" y="-758.5" font-family="Times,serif" font-size="14.00">squid_exporter</text>
</g>
<!-- docker_nat&#45;&gt;docker_squid_exporter -->
<g id="edge31" class="edge">
<title>docker_nat&#45;&gt;docker_squid_exporter</title>
<path fill="none" stroke="#888888" stroke-dasharray="5,2" d="M683.88,-812.21C688.97,-847.47 702.92,-894.21 741,-902.29 790.89,-912.88 817.86,-842.46 829.28,-800.86"/>
<polygon fill="#888888" stroke="#888888" points="687.41,-812.23 682.71,-802.74 680.47,-813.09 687.41,-812.23"/>
</g>
<!-- docker_filebeatN -->
<g id="node18" class="node">
<title>docker_filebeatN</title>
<ellipse fill="#eecc99" stroke="black" cx="965" cy="-771.8" rx="42.07" ry="28.99"/>
<text xml:space="preserve" text-anchor="middle" x="965" y="-775" font-family="Times,serif" font-size="14.00">Docker:</text>
<text xml:space="preserve" text-anchor="middle" x="965" y="-758.5" font-family="Times,serif" font-size="14.00">filebeat</text>
</g>
<!-- docker_prometheus_tech -->
<g id="node36" class="node">
<title>docker_prometheus_tech</title>
<ellipse fill="#ffee44" stroke="red" cx="465" cy="-195.98" rx="56.92" ry="40.66"/>
<text xml:space="preserve" text-anchor="middle" x="465" y="-207.43" font-family="Times,serif" font-size="14.00">Docker:</text>
<text xml:space="preserve" text-anchor="middle" x="465" y="-190.93" font-family="Times,serif" font-size="14.00">Prometheus</text>
<text xml:space="preserve" text-anchor="middle" x="465" y="-174.43" font-family="Times,serif" font-size="14.00">(tech)</text>
</g>
<!-- docker_squid_exporter&#45;&gt;docker_prometheus_tech -->
<g id="edge35" class="edge">
<title>docker_squid_exporter&#45;&gt;docker_prometheus_tech</title>
<path fill="none" stroke="#888888" stroke-dasharray="5,2" d="M881.46,-740.97C891.79,-735.4 902.98,-730.26 914,-726.81 962.57,-711.62 1103.98,-739.46 1142,-705.64 1185.16,-667.25 1169,-636.27 1169,-578.51 1169,-578.51 1169,-578.51 1169,-449.57 1169,-379.67 1192.14,-343.33 1142,-294.63 1097.59,-251.51 676.44,-213.85 521.69,-201.36"/>
<polygon fill="#888888" stroke="#888888" points="879.75,-737.92 872.77,-745.9 883.2,-744.02 879.75,-737.92"/>
</g>
<!-- subnet_private_in&#45;&gt;es -->
<g id="edge12" class="edge">
<title>subnet_private_in&#45;&gt;es</title>
<path fill="none" stroke="red" stroke-dasharray="5,2" d="M822.03,-666.31C831.05,-662.76 853.19,-653.11 867,-639 909.67,-595.43 940.67,-531.05 957.49,-490.22"/>
<polygon fill="red" stroke="red" points="960.71,-491.61 961.2,-481.03 954.22,-489 960.71,-491.61"/>
</g>
<!-- docker_filebeatA -->
<g id="node24" class="node">
<title>docker_filebeatA</title>
<ellipse fill="#eecc99" stroke="black" cx="774" cy="-577.51" rx="42.07" ry="28.99"/>
<text xml:space="preserve" text-anchor="middle" x="774" y="-580.71" font-family="Times,serif" font-size="14.00">Docker:</text>
<text xml:space="preserve" text-anchor="middle" x="774" y="-564.21" font-family="Times,serif" font-size="14.00">filebeat</text>
</g>
<!-- subnet_private_in&#45;&gt;docker_filebeatA -->
<!-- subnet_private_in&#45;&gt;docker_prometheus_tech -->
<g id="edge14" class="edge">
<title>subnet_private_in&#45;&gt;docker_prometheus_tech</title>
<path fill="none" stroke="red" stroke-dasharray="5,2" d="M822.2,-666.71C837.52,-662.6 890.22,-648.08 905,-639 1026.01,-564.69 1067.81,-523.66 1099,-385.12 1107.83,-345.88 1125.18,-325.16 1099,-294.63 1062.39,-251.96 689.01,-215.84 532.96,-202.49"/>
<polygon fill="red" stroke="red" points="533.43,-199.02 523.17,-201.66 532.84,-205.99 533.43,-199.02"/>
</g>
<!-- docker_prometheus_busi -->
<g id="node37" class="node">
<title>docker_prometheus_busi</title>
<ellipse fill="#ffee44" stroke="red" cx="946" cy="-195.98" rx="56.92" ry="40.66"/>
<text xml:space="preserve" text-anchor="middle" x="946" y="-207.43" font-family="Times,serif" font-size="14.00">Docker:</text>
<text xml:space="preserve" text-anchor="middle" x="946" y="-190.93" font-family="Times,serif" font-size="14.00">Prometheus</text>
<text xml:space="preserve" text-anchor="middle" x="946" y="-174.43" font-family="Times,serif" font-size="14.00">(business)</text>
</g>
<!-- subnet_private_in&#45;&gt;docker_prometheus_busi -->
<g id="edge15" class="edge">
<title>subnet_private_in&#45;&gt;docker_prometheus_busi</title>
<path fill="none" stroke="red" stroke-dasharray="5,2" d="M822.13,-666.68C824.91,-665.95 828.65,-665.05 832,-664.5 863.05,-659.44 1092.78,-662.23 1114,-639 1165.62,-582.51 1152.17,-360.96 1114,-294.63 1091.55,-255.61 1046.85,-230.73 1009.2,-215.86"/>
<polygon fill="red" stroke="red" points="1010.8,-212.72 1000.21,-212.46 1008.32,-219.27 1010.8,-212.72"/>
</g>
<!-- docker_grafana -->
<g id="node38" class="node">
<title>docker_grafana</title>
<ellipse fill="#ffee44" stroke="red" cx="946" cy="-323.63" rx="42.07" ry="28.99"/>
<text xml:space="preserve" text-anchor="middle" x="946" y="-326.83" font-family="Times,serif" font-size="14.00">Docker:</text>
<text xml:space="preserve" text-anchor="middle" x="946" y="-310.33" font-family="Times,serif" font-size="14.00">Grafana</text>
</g>
<!-- subnet_private_in&#45;&gt;docker_grafana -->
<g id="edge13" class="edge">
<title>subnet_private_in&#45;&gt;docker_grafana</title>
<path fill="none" stroke="red" stroke-dasharray="5,2" d="M819.2,-664.46C821.11,-659.1 824.94,-648.25 828,-639 861.45,-537.97 858.72,-508.72 900,-410.62 907.1,-393.75 916.4,-375.8 924.78,-360.69"/>
<polygon fill="red" stroke="red" points="927.79,-362.48 929.65,-352.05 921.69,-359.04 927.79,-362.48"/>
</g>
<!-- redis -->
<g id="node22" class="node">
<title>redis</title>
<ellipse fill="#ffee44" stroke="black" cx="325" cy="-450.57" rx="33.06" ry="39.95"/>
<text xml:space="preserve" text-anchor="middle" x="325" y="-445.52" font-family="Times,serif" font-size="14.00">Redis</text>
</g>
<!-- docker_filebeatO -->
<g id="node31" class="node">
<title>docker_filebeatO</title>
<ellipse fill="#eecc99" stroke="black" cx="1048" cy="-323.63" rx="42.07" ry="28.99"/>
<text xml:space="preserve" text-anchor="middle" x="1048" y="-326.83" font-family="Times,serif" font-size="14.00">Docker:</text>
<text xml:space="preserve" text-anchor="middle" x="1048" y="-310.33" font-family="Times,serif" font-size="14.00">filebeat</text>
</g>
<!-- es&#45;&gt;docker_filebeatO -->
<g id="edge34" class="edge">
<title>es&#45;&gt;docker_filebeatO</title>
<path fill="none" stroke="#888888" stroke-dasharray="5,2" d="M994.56,-412.48C1006.65,-392.6 1021.26,-368.59 1032.14,-350.7"/>
<polygon fill="#888888" stroke="#888888" points="991.67,-410.49 989.47,-420.86 997.65,-414.13 991.67,-410.49"/>
</g>
<!-- docker_filebeatA&#45;&gt;es -->
<g id="edge32" class="edge">
<title>docker_filebeatA&#45;&gt;es</title>
<path fill="none" stroke="#888888" stroke-dasharray="5,2" d="M800.3,-554.95C806.63,-550.04 813.46,-544.96 820,-540.52 852.95,-518.14 891.73,-495.5 921.87,-478.66"/>
<polygon fill="#888888" stroke="#888888" points="923.37,-481.83 930.41,-473.92 919.97,-475.71 923.37,-481.83"/>
</g>
<!-- docker_nodeexpA -->
<g id="node25" class="node">
<title>docker_nodeexpA</title>
<ellipse fill="#eecc99" stroke="black" cx="326" cy="-577.51" rx="66.47" ry="28.99"/>
<text xml:space="preserve" text-anchor="middle" x="326" y="-580.71" font-family="Times,serif" font-size="14.00">Docker:</text>
<text xml:space="preserve" text-anchor="middle" x="326" y="-564.21" font-family="Times,serif" font-size="14.00">node_exporter</text>
</g>
<!-- docker_nodeexpA&#45;&gt;docker_prometheus_tech -->
<g id="edge38" class="edge">
<title>docker_nodeexpA&#45;&gt;docker_prometheus_tech</title>
<path fill="none" stroke="#888888" stroke-dasharray="5,2" d="M289.4,-542.9C278.79,-530.86 268.57,-516.43 263,-501.07 231.71,-414.78 218.69,-371.41 269,-294.63 300.78,-246.14 364.25,-220.77 410.38,-208.18"/>
<polygon fill="#888888" stroke="#888888" points="286.73,-545.17 296.1,-550.11 291.86,-540.4 286.73,-545.17"/>
</g>
<!-- docker_cadvisorA -->
<g id="node26" class="node">
<title>docker_cadvisorA</title>
<ellipse fill="#eecc99" stroke="black" cx="454" cy="-577.51" rx="43.66" ry="28.99"/>
<text xml:space="preserve" text-anchor="middle" x="454" y="-580.71" font-family="Times,serif" font-size="14.00">Docker:</text>
<text xml:space="preserve" text-anchor="middle" x="454" y="-564.21" font-family="Times,serif" font-size="14.00">cadvisor</text>
</g>
<!-- docker_cadvisorA&#45;&gt;docker_prometheus_tech -->
<g id="edge40" class="edge">
<title>docker_cadvisorA&#45;&gt;docker_prometheus_tech</title>
<path fill="none" stroke="#888888" stroke-dasharray="5,2" d="M416.34,-549.05C411.31,-545.95 406.12,-543.01 401,-540.52 349.39,-515.37 311.83,-547.45 278,-501.07 254.31,-468.59 276.27,-450.78 278,-410.62 280.22,-358.93 259.81,-338.02 288,-294.63 316.21,-251.23 370.67,-225.42 411.77,-211.34"/>
<polygon fill="#888888" stroke="#888888" points="414.18,-551.82 424.48,-554.32 417.99,-545.95 414.18,-551.82"/>
</g>
<!-- docker_webapp&#45;&gt;redis -->
<g id="edge24" class="edge">
<title>docker_webapp&#45;&gt;redis</title>
<path fill="none" stroke="green" d="M531.4,-554.98C523.79,-549.73 515.32,-544.49 507,-540.52 450.57,-513.62 425.36,-533.62 372,-501.07 366.09,-497.46 360.43,-492.93 355.22,-488.07"/>
<polygon fill="green" stroke="green" points="358.03,-485.93 348.48,-481.34 353.08,-490.88 358.03,-485.93"/>
</g>
<!-- rds_shipreq -->
<g id="node29" class="node">
<title>rds_shipreq</title>
<ellipse fill="#fff8f0" stroke="black" cx="688" cy="-450.57" rx="38.04" ry="18"/>
<text xml:space="preserve" text-anchor="middle" x="688" y="-445.52" font-family="Times,serif" font-size="14.00">shipreq</text>
</g>
<!-- docker_webapp&#45;&gt;rds_shipreq -->
<g id="edge25" class="edge">
<title>docker_webapp&#45;&gt;rds_shipreq</title>
<path fill="none" stroke="green" d="M583.26,-553.01C606.3,-530.7 640.75,-497.34 663.77,-475.03"/>
<polygon fill="green" stroke="green" points="666.16,-477.6 670.9,-468.13 661.29,-472.57 666.16,-477.6"/>
</g>
<!-- docker_webapp&#45;&gt;docker_prometheus_tech -->
<g id="edge36" class="edge">
<title>docker_webapp&#45;&gt;docker_prometheus_tech</title>
<path fill="none" stroke="#888888" stroke-dasharray="5,2" d="M521.49,-548.78C516.73,-545.8 511.83,-542.96 507,-540.52 458.77,-516.15 427.99,-541.37 392,-501.07 364.58,-470.36 398.67,-441.98 372,-410.62 352.17,-387.29 325.18,-410.46 308,-385.12 285.43,-351.83 288.47,-329.79 308,-294.63 330.3,-254.51 376.67,-228.74 413.27,-213.81"/>
<polygon fill="#888888" stroke="#888888" points="519.46,-551.64 529.73,-554.22 523.31,-545.79 519.46,-551.64"/>
</g>
<!-- docker_taskman -->
<g id="node28" class="node">
<title>docker_taskman</title>
<ellipse fill="#ffee44" stroke="black" cx="667" cy="-577.51" rx="46.85" ry="28.99"/>
<text xml:space="preserve" text-anchor="middle" x="667" y="-580.71" font-family="Times,serif" font-size="14.00">Docker:</text>
<text xml:space="preserve" text-anchor="middle" x="667" y="-564.21" font-family="Times,serif" font-size="14.00">Taskman</text>
</g>
<!-- docker_taskman&#45;&gt;rds_shipreq -->
<g id="edge26" class="edge">
<title>docker_taskman&#45;&gt;rds_shipreq</title>
<path fill="none" stroke="green" d="M671.71,-548.47C675.15,-528.02 679.79,-500.42 683.24,-479.9"/>
<polygon fill="green" stroke="green" points="686.66,-480.68 684.86,-470.24 679.75,-479.52 686.66,-480.68"/>
</g>
<!-- docker_taskman&#45;&gt;docker_prometheus_tech -->
<g id="edge37" class="edge">
<title>docker_taskman&#45;&gt;docker_prometheus_tech</title>
<path fill="none" stroke="#888888" stroke-dasharray="5,2" d="M625.77,-549.71C620.82,-546.58 615.81,-543.46 611,-540.52 512.79,-480.53 490.51,-460.92 387,-410.62 359.46,-397.23 340.18,-410.46 323,-385.12 300.43,-351.83 304.28,-330.23 323,-294.63 342.36,-257.83 382.56,-232.2 415.26,-216.46"/>
<polygon fill="#888888" stroke="#888888" points="623.58,-552.47 633.9,-554.89 627.34,-546.57 623.58,-552.47"/>
</g>
<!-- docker_db_metrics -->
<g id="node35" class="node">
<title>docker_db_metrics</title>
<ellipse fill="#ffee44" stroke="black" cx="806" cy="-323.63" rx="79.73" ry="28.99"/>
<text xml:space="preserve" text-anchor="middle" x="806" y="-326.83" font-family="Times,serif" font-size="14.00">Docker:</text>
<text xml:space="preserve" text-anchor="middle" x="806" y="-310.33" font-family="Times,serif" font-size="14.00">postgres_exporter</text>
</g>
<!-- rds_shipreq&#45;&gt;docker_db_metrics -->
<g id="edge43" class="edge">
<title>rds_shipreq&#45;&gt;docker_db_metrics</title>
<path fill="none" stroke="#888888" stroke-dasharray="5,2" d="M710.68,-425.55C730.78,-404.28 760.07,-373.26 780.87,-351.23"/>
<polygon fill="#888888" stroke="#888888" points="708.31,-422.97 703.98,-432.64 713.39,-427.78 708.31,-422.97"/>
</g>
<!-- rds_grafana -->
<g id="node30" class="node">
<title>rds_grafana</title>
<ellipse fill="#fff8f0" stroke="black" cx="783" cy="-450.57" rx="38.56" ry="18"/>
<text xml:space="preserve" text-anchor="middle" x="783" y="-445.52" font-family="Times,serif" font-size="14.00">grafana</text>
</g>
<!-- rds_grafana&#45;&gt;docker_grafana -->
<g id="edge23" class="edge">
<title>rds_grafana&#45;&gt;docker_grafana</title>
<path fill="none" stroke="green" d="M806.11,-425.7C812.22,-420.25 819.06,-414.83 826,-410.62 853.96,-393.67 868.24,-403.9 895,-385.12 908.15,-375.88 919.94,-362.45 928.85,-350.59"/>
<polygon fill="green" stroke="green" points="803.74,-423.13 798.86,-432.54 808.54,-428.22 803.74,-423.13"/>
</g>
<!-- docker_nodeexpO -->
<g id="node32" class="node">
<title>docker_nodeexpO</title>
<ellipse fill="#eecc99" stroke="black" cx="537" cy="-323.63" rx="66.47" ry="28.99"/>
<text xml:space="preserve" text-anchor="middle" x="537" y="-326.83" font-family="Times,serif" font-size="14.00">Docker:</text>
<text xml:space="preserve" text-anchor="middle" x="537" y="-310.33" font-family="Times,serif" font-size="14.00">node_exporter</text>
</g>
<!-- docker_nodeexpO&#45;&gt;docker_prometheus_tech -->
<g id="edge39" class="edge">
<title>docker_nodeexpO&#45;&gt;docker_prometheus_tech</title>
<path fill="none" stroke="#888888" stroke-dasharray="5,2" d="M515.65,-285.36C506.36,-269.15 495.5,-250.21 486.23,-234.02"/>
<polygon fill="#888888" stroke="#888888" points="512.44,-286.8 520.45,-293.74 518.51,-283.32 512.44,-286.8"/>
</g>
<!-- docker_cadvisorO -->
<g id="node33" class="node">
<title>docker_cadvisorO</title>
<ellipse fill="#eecc99" stroke="black" cx="665" cy="-323.63" rx="43.66" ry="28.99"/>
<text xml:space="preserve" text-anchor="middle" x="665" y="-326.83" font-family="Times,serif" font-size="14.00">Docker:</text>
<text xml:space="preserve" text-anchor="middle" x="665" y="-310.33" font-family="Times,serif" font-size="14.00">cadvisor</text>
</g>
<!-- docker_cadvisorO&#45;&gt;docker_prometheus_tech -->
<g id="edge41" class="edge">
<title>docker_cadvisorO&#45;&gt;docker_prometheus_tech</title>
<path fill="none" stroke="#888888" stroke-dasharray="5,2" d="M624.1,-296.93C590,-275.51 541.61,-245.11 507.17,-223.47"/>
<polygon fill="#888888" stroke="#888888" points="622.14,-299.83 632.47,-302.19 625.86,-293.9 622.14,-299.83"/>
</g>
<!-- docker_ecs_exporter -->
<g id="node34" class="node">
<title>docker_ecs_exporter</title>
<ellipse fill="#eecc99" stroke="black" cx="392" cy="-323.63" rx="60.1" ry="28.99"/>
<text xml:space="preserve" text-anchor="middle" x="392" y="-326.83" font-family="Times,serif" font-size="14.00">Docker:</text>
<text xml:space="preserve" text-anchor="middle" x="392" y="-310.33" font-family="Times,serif" font-size="14.00">ecs_exporter</text>
</g>
<!-- docker_ecs_exporter&#45;&gt;docker_prometheus_tech -->
<g id="edge42" class="edge">
<title>docker_ecs_exporter&#45;&gt;docker_prometheus_tech</title>
<path fill="none" stroke="#888888" stroke-dasharray="5,2" d="M413.52,-285.59C423.02,-269.23 434.17,-250.05 443.65,-233.72"/>
<polygon fill="#888888" stroke="#888888" points="410.6,-283.65 408.6,-294.05 416.65,-287.16 410.6,-283.65"/>
</g>
<!-- docker_db_metrics&#45;&gt;docker_prometheus_busi -->
<g id="edge44" class="edge">
<title>docker_db_metrics&#45;&gt;docker_prometheus_busi</title>
<path fill="none" stroke="#888888" stroke-dasharray="5,2" d="M843.69,-288.8C864.63,-270 890.51,-246.78 911,-228.39"/>
<polygon fill="#888888" stroke="#888888" points="841.58,-285.99 836.47,-295.27 846.25,-291.2 841.58,-285.99"/>
</g>
<!-- docker_prometheus_tech&#45;&gt;ebs_prometheus_tech -->
<g id="edge27" class="edge">
<title>docker_prometheus_tech&#45;&gt;ebs_prometheus_tech</title>
<path fill="none" stroke="green" d="M465,-154.89C465,-140.51 465,-124.09 465,-108.89"/>
<polygon fill="green" stroke="green" points="468.5,-109.07 465,-99.07 461.5,-109.07 468.5,-109.07"/>
</g>
<!-- docker_prometheus_busi&#45;&gt;ebs_prometheus_busi -->
<g id="edge28" class="edge">
<title>docker_prometheus_busi&#45;&gt;ebs_prometheus_busi</title>
<path fill="none" stroke="green" d="M946,-154.89C946,-140.51 946,-124.09 946,-108.89"/>
<polygon fill="green" stroke="green" points="949.5,-109.07 946,-99.07 942.5,-109.07 949.5,-109.07"/>
</g>
<!-- docker_grafana&#45;&gt;docker_prometheus_tech -->
<g id="edge29" class="edge">
<title>docker_grafana&#45;&gt;docker_prometheus_tech</title>
<path fill="none" stroke="green" d="M914.82,-303.74C908.42,-300.37 901.61,-297.14 895,-294.63 771.19,-247.66 618.36,-219.58 532.27,-206.3"/>
<polygon fill="green" stroke="green" points="532.99,-202.87 522.58,-204.83 531.94,-209.79 532.99,-202.87"/>
</g>
<!-- docker_grafana&#45;&gt;docker_prometheus_busi -->
<g id="edge30" class="edge">
<title>docker_grafana&#45;&gt;docker_prometheus_busi</title>
<path fill="none" stroke="green" d="M946,-294.43C946,-280.8 946,-264.02 946,-248.24"/>
<polygon fill="green" stroke="green" points="949.5,-248.51 946,-238.51 942.5,-248.51 949.5,-248.51"/>
</g>
</g>
</svg>
