<?xml version="1.0" encoding="UTF-8" standalone="no"?>
<!DOCTYPE svg PUBLIC "-//W3C//DTD SVG 1.1//EN"
 "http://www.w3.org/Graphics/SVG/1.1/DTD/svg11.dtd">
<!-- Generated by graphviz version 2.43.20190912.0211 (20190912.0211)
 -->
<!-- Title: %3 Pages: 1 -->
<svg width="1142pt" height="1061pt"
 viewBox="0.00 0.00 1142.00 1061.49" xmlns="http://www.w3.org/2000/svg" xmlns:xlink="http://www.w3.org/1999/xlink">
<g id="graph0" class="graph" transform="scale(1 1) rotate(0) translate(4 1057.49)">
<title>%3</title>
<polygon fill="white" stroke="transparent" points="-4,4 -4,-1057.49 1138,-1057.49 1138,4 -4,4"/>
<g id="clust1" class="cluster">
<title>cluster_AWS</title>
<polygon fill="#eeffdd" stroke="black" points="8,-8 8,-990.49 1126,-990.49 1126,-8 8,-8"/>
<text text-anchor="middle" x="567" y="-975.29" font-family="Times,serif" font-size="14.00">AWS</text>
</g>
<g id="clust2" class="cluster">
<title>cluster_VPC</title>
<polygon fill="white" stroke="black" points="16,-16 16,-897.75 800,-897.75 800,-16 16,-16"/>
<text text-anchor="middle" x="408" y="-882.55" font-family="Times,serif" font-size="14.00">VPC</text>
</g>
<g id="clust3" class="cluster">
<title>cluster_public</title>
<polygon fill="#999999" stroke="black" points="324,-731.59 324,-866.75 792,-866.75 792,-731.59 324,-731.59"/>
<text text-anchor="middle" x="558" y="-851.55" font-family="Times,serif" font-size="14.00">Public subnet</text>
</g>
<g id="clust4" class="cluster">
<title>cluster_private</title>
<polygon fill="#dddddd" stroke="black" points="24,-24 24,-712.59 792,-712.59 792,-24 24,-24"/>
<text text-anchor="middle" x="408" y="-697.39" font-family="Times,serif" font-size="14.00">Private subnet</text>
</g>
<g id="clust5" class="cluster">
<title>cluster_ecs2_app</title>
<polygon fill="#ffeeee" stroke="black" points="44,-553.21 44,-645.95 732,-645.95 732,-553.21 44,-553.21"/>
<text text-anchor="middle" x="388" y="-630.75" font-family="Times,serif" font-size="14.00">App ECS Cluster / AGS / EC2s</text>
</g>
<g id="clust6" class="cluster">
<title>cluster_rds</title>
<path fill="#b0e2ff" stroke="black" d="M408,-429.12C408,-429.12 720,-429.12 720,-429.12 726,-429.12 732,-435.12 732,-441.12 732,-441.12 732,-492.12 732,-492.12 732,-498.12 726,-504.12 720,-504.12 720,-504.12 408,-504.12 408,-504.12 402,-504.12 396,-498.12 396,-492.12 396,-492.12 396,-441.12 396,-441.12 396,-435.12 402,-429.12 408,-429.12"/>
<text text-anchor="middle" x="564" y="-488.92" font-family="Times,serif" font-size="14.00">RDS</text>
</g>
<g id="clust7" class="cluster">
<title>cluster_ecs2_ops</title>
<polygon fill="#ffeeee" stroke="black" points="313,-32 313,-380.04 748,-380.04 748,-32 313,-32"/>
<text text-anchor="middle" x="530.5" y="-364.84" font-family="Times,serif" font-size="14.00">Ops ECS Cluster / ASG / EC2s</text>
</g>
<!-- internet -->
<g id="node1" class="node">
<title>internet</title>
<ellipse fill="#aa1111" stroke="black" cx="574" cy="-1035.49" rx="48.99" ry="18"/>
<text text-anchor="middle" x="574" y="-1031.79" font-family="Times,serif" font-size="14.00" fill="white">Internet</text>
</g>
<!-- dns_shipreq -->
<g id="node2" class="node">
<title>dns_shipreq</title>
<ellipse fill="#ffee44" stroke="black" cx="408" cy="-932.62" rx="73.58" ry="26.74"/>
<text text-anchor="middle" x="408" y="-936.42" font-family="Times,serif" font-size="14.00">DNS:</text>
<text text-anchor="middle" x="408" y="-921.42" font-family="Times,serif" font-size="14.00">shipreq.com</text>
</g>
<!-- internet&#45;&gt;dns_shipreq -->
<g id="edge9" class="edge">
<title>internet&#45;&gt;dns_shipreq</title>
<path fill="none" stroke="red" d="M549.86,-1019.83C524.74,-1004.56 484.78,-980.28 453.67,-961.38"/>
<polygon fill="red" stroke="red" points="455.1,-958.15 444.74,-955.95 451.47,-964.13 455.1,-958.15"/>
</g>
<!-- eip_bastion -->
<g id="node5" class="node">
<title>eip_bastion</title>
<ellipse fill="#ffee44" stroke="black" cx="574" cy="-932.62" rx="50.41" ry="26.74"/>
<text text-anchor="middle" x="574" y="-936.42" font-family="Times,serif" font-size="14.00">EIP:</text>
<text text-anchor="middle" x="574" y="-921.42" font-family="Times,serif" font-size="14.00">Bastion</text>
</g>
<!-- internet&#45;&gt;eip_bastion -->
<g id="edge11" class="edge">
<title>internet&#45;&gt;eip_bastion</title>
<path fill="none" stroke="red" d="M574,-1017.38C574,-1004.38 574,-986.03 574,-969.82"/>
<polygon fill="red" stroke="red" points="577.5,-969.55 574,-959.55 570.5,-969.55 577.5,-969.55"/>
</g>
<!-- nat -->
<g id="node9" class="node">
<title>nat</title>
<ellipse fill="#ffee44" stroke="black" cx="748" cy="-787.67" rx="36.12" ry="26.74"/>
<text text-anchor="middle" x="748" y="-791.47" font-family="Times,serif" font-size="14.00">EC2:</text>
<text text-anchor="middle" x="748" y="-776.47" font-family="Times,serif" font-size="14.00">NAT</text>
</g>
<!-- internet&#45;&gt;nat -->
<g id="edge19" class="edge">
<title>internet&#45;&gt;nat</title>
<path fill="none" stroke="blue" d="M626.95,-1024.19C647.84,-1017.69 670.49,-1007.23 686,-990.49 732.21,-940.62 744.01,-857.05 747,-814.81"/>
<polygon fill="blue" stroke="blue" points="625.84,-1020.87 617.2,-1026.99 627.77,-1027.6 625.84,-1020.87"/>
</g>
<!-- elb_webapp -->
<g id="node8" class="node">
<title>elb_webapp</title>
<ellipse fill="#ffee44" stroke="black" cx="384" cy="-787.67" rx="51.74" ry="26.74"/>
<text text-anchor="middle" x="384" y="-791.47" font-family="Times,serif" font-size="14.00">ALB:</text>
<text text-anchor="middle" x="384" y="-776.47" font-family="Times,serif" font-size="14.00">Webapp</text>
</g>
<!-- dns_shipreq&#45;&gt;elb_webapp -->
<g id="edge10" class="edge">
<title>dns_shipreq&#45;&gt;elb_webapp</title>
<path fill="none" stroke="red" d="M403.65,-905.74C399.85,-883.11 394.3,-850.01 390.06,-824.78"/>
<polygon fill="red" stroke="red" points="393.5,-824.13 388.39,-814.85 386.6,-825.29 393.5,-824.13"/>
</g>
<!-- ebs_prometheus_tech -->
<g id="node3" class="node">
<title>ebs_prometheus_tech</title>
<ellipse fill="#b0e2ff" stroke="black" cx="881" cy="-66.87" rx="72.66" ry="37.45"/>
<text text-anchor="middle" x="881" y="-78.17" font-family="Times,serif" font-size="14.00">EBS:</text>
<text text-anchor="middle" x="881" y="-63.17" font-family="Times,serif" font-size="14.00">Prometheus</text>
<text text-anchor="middle" x="881" y="-48.17" font-family="Times,serif" font-size="14.00">(tech)</text>
</g>
<!-- ebs_prometheus_busi -->
<g id="node4" class="node">
<title>ebs_prometheus_busi</title>
<ellipse fill="#b0e2ff" stroke="black" cx="1045" cy="-66.87" rx="72.66" ry="37.45"/>
<text text-anchor="middle" x="1045" y="-78.17" font-family="Times,serif" font-size="14.00">EBS:</text>
<text text-anchor="middle" x="1045" y="-63.17" font-family="Times,serif" font-size="14.00">Prometheus</text>
<text text-anchor="middle" x="1045" y="-48.17" font-family="Times,serif" font-size="14.00">(business)</text>
</g>
<!-- bastion -->
<g id="node10" class="node">
<title>bastion</title>
<ellipse fill="#ffee44" stroke="red" cx="574" cy="-787.67" rx="120.42" ry="48.17"/>
<text text-anchor="middle" x="574" y="-806.47" font-family="Times,serif" font-size="14.00">EC2:</text>
<text text-anchor="middle" x="574" y="-791.47" font-family="Times,serif" font-size="14.00">Bastion</text>
<text text-anchor="middle" x="574" y="-776.47" font-family="Times,serif" font-size="14.00">devops reverse&#45;proxy</text>
<text text-anchor="middle" x="574" y="-761.47" font-family="Times,serif" font-size="14.00">devops portal</text>
</g>
<!-- eip_bastion&#45;&gt;bastion -->
<g id="edge12" class="edge">
<title>eip_bastion&#45;&gt;bastion</title>
<path fill="none" stroke="red" d="M574,-905.74C574,-889 574,-866.55 574,-845.78"/>
<polygon fill="red" stroke="red" points="577.5,-845.76 574,-835.76 570.5,-845.76 577.5,-845.76"/>
</g>
<!-- s3_webapp -->
<g id="node6" class="node">
<title>s3_webapp</title>
<ellipse fill="#ffee44" stroke="black" cx="859" cy="-455.12" rx="50.82" ry="48.17"/>
<text text-anchor="middle" x="859" y="-473.92" font-family="Times,serif" font-size="14.00">S3:</text>
<text text-anchor="middle" x="859" y="-458.92" font-family="Times,serif" font-size="14.00">webapp</text>
<text text-anchor="middle" x="859" y="-443.92" font-family="Times,serif" font-size="14.00">config</text>
<text text-anchor="middle" x="859" y="-428.92" font-family="Times,serif" font-size="14.00">&amp; ssl</text>
</g>
<!-- internal_dns -->
<g id="node7" class="node">
<title>internal_dns</title>
<ellipse fill="#ffee44" stroke="black" cx="170" cy="-787.67" rx="104.8" ry="37.45"/>
<text text-anchor="middle" x="170" y="-798.97" font-family="Times,serif" font-size="14.00">Private DNS:</text>
<text text-anchor="middle" x="170" y="-783.97" font-family="Times,serif" font-size="14.00">&lt;env&gt;.sd.internal</text>
<text text-anchor="middle" x="170" y="-768.97" font-family="Times,serif" font-size="14.00">&lt;env&gt;.internal</text>
</g>
<!-- docker_webapp -->
<g id="node17" class="node">
<title>docker_webapp</title>
<ellipse fill="#ffee44" stroke="black" cx="672" cy="-588.08" rx="51.74" ry="26.74"/>
<text text-anchor="middle" x="672" y="-591.88" font-family="Times,serif" font-size="14.00">Docker:</text>
<text text-anchor="middle" x="672" y="-576.88" font-family="Times,serif" font-size="14.00">Webapp</text>
</g>
<!-- elb_webapp&#45;&gt;docker_webapp -->
<g id="edge13" class="edge">
<title>elb_webapp&#45;&gt;docker_webapp</title>
<path fill="none" stroke="red" d="M408.55,-763.72C419.52,-753.65 432.73,-741.83 445,-731.59 477.75,-704.24 483.02,-692.37 521,-672.95 558.56,-653.74 575.46,-667.04 612,-645.95 623.77,-639.15 635.04,-629.6 644.57,-620.27"/>
<polygon fill="red" stroke="red" points="647.31,-622.47 651.82,-612.88 642.32,-617.57 647.31,-622.47"/>
</g>
<!-- subnet_private -->
<g id="node11" class="node">
<title>subnet_private</title>
<ellipse fill="blue" stroke="black" cx="707" cy="-677.27" rx="4.32" ry="4.32"/>
</g>
<!-- nat&#45;&gt;subnet_private -->
<g id="edge20" class="edge">
<title>nat&#45;&gt;subnet_private</title>
<path fill="none" stroke="blue" d="M734.94,-752.14C724.9,-725.6 712.11,-691.78 708.19,-681.42"/>
<polygon fill="blue" stroke="blue" points="731.68,-753.41 738.49,-761.53 738.23,-750.94 731.68,-753.41"/>
</g>
<!-- bastion&#45;&gt;subnet_private -->
<g id="edge14" class="edge">
<title>bastion&#45;&gt;subnet_private</title>
<path fill="none" stroke="red" d="M626.18,-744.14C651.97,-723.12 680.78,-699.64 696.07,-687.18"/>
<polygon fill="red" stroke="red" points="698.46,-689.74 704,-680.71 694.04,-684.32 698.46,-689.74"/>
</g>
<!-- es -->
<g id="node13" class="node">
<title>es</title>
<ellipse fill="#ffee44" stroke="black" cx="113" cy="-455.12" rx="81.13" ry="26.74"/>
<text text-anchor="middle" x="113" y="-458.92" font-family="Times,serif" font-size="14.00">ElasticSearch</text>
<text text-anchor="middle" x="113" y="-443.92" font-family="Times,serif" font-size="14.00">&amp; Kibana</text>
</g>
<!-- subnet_private&#45;&gt;es -->
<g id="edge15" class="edge">
<title>subnet_private&#45;&gt;es</title>
<path fill="none" stroke="red" stroke-dasharray="5,2" d="M702.56,-676.24C645.83,-675.87 64.38,-671.46 40,-645.95 -2.4,-601.58 46.42,-529.96 82.14,-488.55"/>
<polygon fill="red" stroke="red" points="84.87,-490.75 88.86,-480.93 79.62,-486.12 84.87,-490.75"/>
</g>
<!-- subnet_private&#45;&gt;docker_webapp -->
<!-- docker_taskman -->
<g id="node18" class="node">
<title>docker_taskman</title>
<ellipse fill="#ffee44" stroke="black" cx="546" cy="-588.08" rx="56.64" ry="26.74"/>
<text text-anchor="middle" x="546" y="-591.88" font-family="Times,serif" font-size="14.00">Docker:</text>
<text text-anchor="middle" x="546" y="-576.88" font-family="Times,serif" font-size="14.00">Taskman</text>
</g>
<!-- subnet_private&#45;&gt;docker_taskman -->
<!-- docker_prometheus_tech -->
<g id="node26" class="node">
<title>docker_prometheus_tech</title>
<ellipse fill="#ffee44" stroke="black" cx="503" cy="-199.82" rx="72.66" ry="37.45"/>
<text text-anchor="middle" x="503" y="-211.12" font-family="Times,serif" font-size="14.00">Docker:</text>
<text text-anchor="middle" x="503" y="-196.12" font-family="Times,serif" font-size="14.00">Prometheus</text>
<text text-anchor="middle" x="503" y="-181.12" font-family="Times,serif" font-size="14.00">(tech)</text>
</g>
<!-- subnet_private&#45;&gt;docker_prometheus_tech -->
<g id="edge17" class="edge">
<title>subnet_private&#45;&gt;docker_prometheus_tech</title>
<path fill="none" stroke="red" stroke-dasharray="5,2" d="M710.79,-674.79C719.19,-671.28 739.25,-661.55 747,-645.95 764.34,-611.05 762.31,-326.53 739,-295.3 695.26,-236.68 652.66,-265.06 585,-237.3 578.8,-234.76 572.37,-232.04 565.96,-229.28"/>
<polygon fill="red" stroke="red" points="567.19,-225.99 556.62,-225.21 564.39,-232.41 567.19,-225.99"/>
</g>
<!-- docker_prometheus_busi -->
<g id="node27" class="node">
<title>docker_prometheus_busi</title>
<ellipse fill="#ffee44" stroke="black" cx="667" cy="-199.82" rx="72.66" ry="37.45"/>
<text text-anchor="middle" x="667" y="-211.12" font-family="Times,serif" font-size="14.00">Docker:</text>
<text text-anchor="middle" x="667" y="-196.12" font-family="Times,serif" font-size="14.00">Prometheus</text>
<text text-anchor="middle" x="667" y="-181.12" font-family="Times,serif" font-size="14.00">(business)</text>
</g>
<!-- subnet_private&#45;&gt;docker_prometheus_busi -->
<g id="edge18" class="edge">
<title>subnet_private&#45;&gt;docker_prometheus_busi</title>
<path fill="none" stroke="red" stroke-dasharray="5,2" d="M711.26,-675.67C722.87,-673.8 755.04,-666.86 768,-645.95 788.52,-612.83 783.51,-331.04 768,-295.3 757.84,-271.88 738.7,-251.62 719.79,-235.93"/>
<polygon fill="red" stroke="red" points="721.73,-233 711.73,-229.5 717.36,-238.47 721.73,-233"/>
</g>
<!-- docker_grafana -->
<g id="node28" class="node">
<title>docker_grafana</title>
<ellipse fill="#ffee44" stroke="black" cx="678" cy="-322.17" rx="52.15" ry="26.74"/>
<text text-anchor="middle" x="678" y="-325.97" font-family="Times,serif" font-size="14.00">Docker:</text>
<text text-anchor="middle" x="678" y="-310.97" font-family="Times,serif" font-size="14.00">Grafana</text>
</g>
<!-- subnet_private&#45;&gt;docker_grafana -->
<g id="edge16" class="edge">
<title>subnet_private&#45;&gt;docker_grafana</title>
<path fill="none" stroke="red" stroke-dasharray="5,2" d="M710.16,-674.23C716.51,-669.93 730.68,-659.2 736,-645.95 755.77,-596.67 751.82,-457.72 736,-407.04 730.04,-387.93 718.03,-369.34 706.48,-354.54"/>
<polygon fill="red" stroke="red" points="709.16,-352.3 700.15,-346.73 703.72,-356.7 709.16,-352.3"/>
</g>
<!-- redis -->
<g id="node12" class="node">
<title>redis</title>
<ellipse fill="#ffee44" stroke="black" cx="350" cy="-455.12" rx="36.29" ry="18"/>
<text text-anchor="middle" x="350" y="-451.42" font-family="Times,serif" font-size="14.00">Redis</text>
</g>
<!-- docker_filebeatO -->
<g id="node22" class="node">
<title>docker_filebeatO</title>
<ellipse fill="#eecc99" stroke="black" cx="374" cy="-66.87" rx="53.07" ry="26.74"/>
<text text-anchor="middle" x="374" y="-70.67" font-family="Times,serif" font-size="14.00">Docker:</text>
<text text-anchor="middle" x="374" y="-55.67" font-family="Times,serif" font-size="14.00">Filebeat</text>
</g>
<!-- es&#45;&gt;docker_filebeatO -->
<g id="edge32" class="edge">
<title>es&#45;&gt;docker_filebeatO</title>
<path fill="none" stroke="#999999" stroke-dasharray="5,2" d="M135.75,-420.46C187.25,-344.24 311.83,-159.88 357.15,-92.8"/>
<polygon fill="#999999" stroke="#999999" points="132.82,-418.53 130.12,-428.78 138.62,-422.45 132.82,-418.53"/>
</g>
<!-- docker_filebeatA -->
<g id="node14" class="node">
<title>docker_filebeatA</title>
<ellipse fill="#eecc99" stroke="black" cx="105" cy="-588.08" rx="53.07" ry="26.74"/>
<text text-anchor="middle" x="105" y="-591.88" font-family="Times,serif" font-size="14.00">Docker:</text>
<text text-anchor="middle" x="105" y="-576.88" font-family="Times,serif" font-size="14.00">Filebeat</text>
</g>
<!-- docker_filebeatA&#45;&gt;es -->
<g id="edge31" class="edge">
<title>docker_filebeatA&#45;&gt;es</title>
<path fill="none" stroke="#999999" stroke-dasharray="5,2" d="M106.58,-561.2C107.78,-541.6 109.44,-514.42 110.77,-492.61"/>
<polygon fill="#999999" stroke="#999999" points="114.28,-492.58 111.4,-482.39 107.29,-492.16 114.28,-492.58"/>
</g>
<!-- docker_nodeexpA -->
<g id="node15" class="node">
<title>docker_nodeexpA</title>
<ellipse fill="#eecc99" stroke="black" cx="388" cy="-588.08" rx="83.38" ry="26.74"/>
<text text-anchor="middle" x="388" y="-591.88" font-family="Times,serif" font-size="14.00">Docker:</text>
<text text-anchor="middle" x="388" y="-576.88" font-family="Times,serif" font-size="14.00">NodeExporter</text>
</g>
<!-- docker_nodeexpA&#45;&gt;docker_prometheus_tech -->
<g id="edge35" class="edge">
<title>docker_nodeexpA&#45;&gt;docker_prometheus_tech</title>
<path fill="none" stroke="#999999" stroke-dasharray="5,2" d="M328.19,-561.83C304.33,-548.43 279.39,-529.42 266,-504.12 261.67,-495.95 263.74,-299.92 267,-295.3 310.4,-233.86 356.6,-266.32 426,-237.3 434.19,-233.88 442.77,-230.05 451.11,-226.21"/>
<polygon fill="#999999" stroke="#999999" points="326.78,-565.05 337.25,-566.69 330.09,-558.88 326.78,-565.05"/>
</g>
<!-- docker_cadvisorA -->
<g id="node16" class="node">
<title>docker_cadvisorA</title>
<ellipse fill="#eecc99" stroke="black" cx="231" cy="-588.08" rx="55.31" ry="26.74"/>
<text text-anchor="middle" x="231" y="-591.88" font-family="Times,serif" font-size="14.00">Docker:</text>
<text text-anchor="middle" x="231" y="-576.88" font-family="Times,serif" font-size="14.00">cAdvisor</text>
</g>
<!-- docker_cadvisorA&#45;&gt;docker_prometheus_tech -->
<g id="edge37" class="edge">
<title>docker_cadvisorA&#45;&gt;docker_prometheus_tech</title>
<path fill="none" stroke="#999999" stroke-dasharray="5,2" d="M229.91,-550.89C228.55,-481.71 229.45,-334.11 260,-295.3 308.34,-233.89 353.7,-266.96 426,-237.3 434.21,-233.93 442.8,-230.14 451.15,-226.3"/>
<polygon fill="#999999" stroke="#999999" points="226.41,-550.98 230.13,-560.9 233.4,-550.83 226.41,-550.98"/>
</g>
<!-- docker_webapp&#45;&gt;s3_webapp -->
<g id="edge25" class="edge">
<title>docker_webapp&#45;&gt;s3_webapp</title>
<path fill="none" stroke="green" d="M702.04,-566.04C731.17,-545.64 775.85,-514.35 810.1,-490.37"/>
<polygon fill="green" stroke="green" points="812.38,-493.04 818.56,-484.44 808.37,-487.31 812.38,-493.04"/>
</g>
<!-- docker_webapp&#45;&gt;redis -->
<g id="edge22" class="edge">
<title>docker_webapp&#45;&gt;redis</title>
<path fill="none" stroke="green" d="M640.16,-566.81C631.29,-561.81 621.49,-556.85 612,-553.21 518.48,-517.29 478.15,-555.26 392,-504.12 382.19,-498.3 373.47,-489.38 366.55,-480.81"/>
<polygon fill="green" stroke="green" points="369.32,-478.67 360.5,-472.81 363.74,-482.9 369.32,-478.67"/>
</g>
<!-- rds_shipreq -->
<g id="node19" class="node">
<title>rds_shipreq</title>
<ellipse fill="#fff8f0" stroke="black" cx="568" cy="-455.12" rx="46.29" ry="18"/>
<text text-anchor="middle" x="568" y="-451.42" font-family="Times,serif" font-size="14.00">shipreq</text>
</g>
<!-- docker_webapp&#45;&gt;rds_shipreq -->
<g id="edge23" class="edge">
<title>docker_webapp&#45;&gt;rds_shipreq</title>
<path fill="none" stroke="green" d="M652.92,-563.06C634.33,-539.65 606.2,-504.22 587.47,-480.64"/>
<polygon fill="green" stroke="green" points="589.99,-478.19 581.03,-472.53 584.51,-482.54 589.99,-478.19"/>
</g>
<!-- rds_taskman -->
<g id="node20" class="node">
<title>rds_taskman</title>
<ellipse fill="#fff8f0" stroke="black" cx="454" cy="-455.12" rx="50.09" ry="18"/>
<text text-anchor="middle" x="454" y="-451.42" font-family="Times,serif" font-size="14.00">taskman</text>
</g>
<!-- docker_webapp&#45;&gt;rds_taskman -->
<g id="edge24" class="edge">
<title>docker_webapp&#45;&gt;rds_taskman</title>
<path fill="none" stroke="green" d="M638.22,-567.59C629.71,-562.8 620.56,-557.74 612,-553.21 568.6,-530.22 554.3,-530.69 513,-504.12 501.35,-496.63 489.33,-487.21 479.21,-478.71"/>
<polygon fill="green" stroke="green" points="481.41,-475.99 471.54,-472.14 476.86,-481.3 481.41,-475.99"/>
</g>
<!-- docker_webapp&#45;&gt;docker_prometheus_tech -->
<g id="edge33" class="edge">
<title>docker_webapp&#45;&gt;docker_prometheus_tech</title>
<path fill="none" stroke="#999999" stroke-dasharray="5,2" d="M631.53,-561.69C625.17,-558.45 618.53,-555.48 612,-553.21 545.71,-530.13 345.61,-557.47 300,-504.12 285.98,-487.73 292.77,-427.37 300,-407.04 328.2,-327.76 406.4,-263.94 457.1,-229.29"/>
<polygon fill="#999999" stroke="#999999" points="630.15,-564.92 640.62,-566.58 633.47,-558.76 630.15,-564.92"/>
</g>
<!-- docker_taskman&#45;&gt;rds_taskman -->
<g id="edge26" class="edge">
<title>docker_taskman&#45;&gt;rds_taskman</title>
<path fill="none" stroke="green" d="M528.7,-562.45C512.36,-539.19 487.98,-504.49 471.56,-481.11"/>
<polygon fill="green" stroke="green" points="474.3,-478.93 465.69,-472.76 468.57,-482.95 474.3,-478.93"/>
</g>
<!-- docker_taskman&#45;&gt;docker_prometheus_tech -->
<g id="edge34" class="edge">
<title>docker_taskman&#45;&gt;docker_prometheus_tech</title>
<path fill="none" stroke="#999999" stroke-dasharray="5,2" d="M501.07,-562.36C494.13,-559.03 486.95,-555.85 480,-553.21 398.48,-522.2 343.4,-573.08 290,-504.12 261.59,-467.44 264.42,-334.02 290,-295.3 326.22,-240.47 366.07,-264.26 426,-237.3 433.96,-233.72 442.34,-229.85 450.52,-226.02"/>
<polygon fill="#999999" stroke="#999999" points="499.83,-565.65 510.35,-566.96 502.95,-559.38 499.83,-565.65"/>
</g>
<!-- docker_db_metrics -->
<g id="node25" class="node">
<title>docker_db_metrics</title>
<ellipse fill="#ffee44" stroke="black" cx="504" cy="-322.17" rx="103.89" ry="26.74"/>
<text text-anchor="middle" x="504" y="-325.97" font-family="Times,serif" font-size="14.00">Docker:</text>
<text text-anchor="middle" x="504" y="-310.97" font-family="Times,serif" font-size="14.00">postgres_exporter</text>
</g>
<!-- rds_shipreq&#45;&gt;docker_db_metrics -->
<g id="edge39" class="edge">
<title>rds_shipreq&#45;&gt;docker_db_metrics</title>
<path fill="none" stroke="#999999" stroke-dasharray="5,2" d="M555.29,-428.12C544.07,-405.17 527.8,-371.87 516.61,-348.97"/>
<polygon fill="#999999" stroke="#999999" points="552.23,-429.82 559.76,-437.27 558.52,-426.75 552.23,-429.82"/>
</g>
<!-- rds_taskman&#45;&gt;docker_db_metrics -->
<g id="edge40" class="edge">
<title>rds_taskman&#45;&gt;docker_db_metrics</title>
<path fill="none" stroke="#999999" stroke-dasharray="5,2" d="M464.04,-427.82C472.81,-404.87 485.44,-371.77 494.15,-348.97"/>
<polygon fill="#999999" stroke="#999999" points="460.73,-426.68 460.43,-437.27 467.27,-429.18 460.73,-426.68"/>
</g>
<!-- rds_grafana -->
<g id="node21" class="node">
<title>rds_grafana</title>
<ellipse fill="#fff8f0" stroke="black" cx="678" cy="-455.12" rx="46.29" ry="18"/>
<text text-anchor="middle" x="678" y="-451.42" font-family="Times,serif" font-size="14.00">grafana</text>
</g>
<!-- rds_grafana&#45;&gt;docker_grafana -->
<g id="edge21" class="edge">
<title>rds_grafana&#45;&gt;docker_grafana</title>
<path fill="none" stroke="green" d="M678,-426.97C678,-404.19 678,-371.85 678,-349.34"/>
<polygon fill="green" stroke="green" points="674.5,-427 678,-437 681.5,-427 674.5,-427"/>
</g>
<!-- docker_nodeexpO -->
<g id="node23" class="node">
<title>docker_nodeexpO</title>
<ellipse fill="#eecc99" stroke="black" cx="528" cy="-66.87" rx="83.38" ry="26.74"/>
<text text-anchor="middle" x="528" y="-70.67" font-family="Times,serif" font-size="14.00">Docker:</text>
<text text-anchor="middle" x="528" y="-55.67" font-family="Times,serif" font-size="14.00">NodeExporter</text>
</g>
<!-- docker_nodeexpO&#45;&gt;docker_prometheus_tech -->
<g id="edge36" class="edge">
<title>docker_nodeexpO&#45;&gt;docker_prometheus_tech</title>
<path fill="none" stroke="#999999" stroke-dasharray="5,2" d="M527.22,-103.91C524.59,-122.21 520.36,-144.38 516,-162.69"/>
<polygon fill="#999999" stroke="#999999" points="530.7,-104.29 528.54,-93.92 523.76,-103.37 530.7,-104.29"/>
</g>
<!-- docker_cadvisorO -->
<g id="node24" class="node">
<title>docker_cadvisorO</title>
<ellipse fill="#eecc99" stroke="black" cx="685" cy="-66.87" rx="55.31" ry="26.74"/>
<text text-anchor="middle" x="685" y="-70.67" font-family="Times,serif" font-size="14.00">Docker:</text>
<text text-anchor="middle" x="685" y="-55.67" font-family="Times,serif" font-size="14.00">cAdvisor</text>
</g>
<!-- docker_cadvisorO&#45;&gt;docker_prometheus_tech -->
<g id="edge38" class="edge">
<title>docker_cadvisorO&#45;&gt;docker_prometheus_tech</title>
<path fill="none" stroke="#999999" stroke-dasharray="5,2" d="M650.49,-96.81C621.45,-118.71 579.85,-148.64 548.17,-170.41"/>
<polygon fill="#999999" stroke="#999999" points="652.85,-99.41 658.7,-90.58 648.62,-93.84 652.85,-99.41"/>
</g>
<!-- docker_db_metrics&#45;&gt;docker_prometheus_busi -->
<g id="edge41" class="edge">
<title>docker_db_metrics&#45;&gt;docker_prometheus_busi</title>
<path fill="none" stroke="#999999" stroke-dasharray="5,2" d="M545.5,-290.53C570.24,-272.26 601.53,-249.16 626.15,-230.98"/>
<polygon fill="#999999" stroke="#999999" points="543.34,-287.77 537.38,-296.53 547.5,-293.4 543.34,-287.77"/>
</g>
<!-- docker_prometheus_tech&#45;&gt;ebs_prometheus_tech -->
<g id="edge27" class="edge">
<title>docker_prometheus_tech&#45;&gt;ebs_prometheus_tech</title>
<path fill="none" stroke="green" d="M556.46,-174.03C565.9,-169.95 575.68,-165.89 585,-162.35 659.98,-133.8 747.74,-106.54 808.12,-88.7"/>
<polygon fill="green" stroke="green" points="809.34,-91.99 817.95,-85.81 807.37,-85.28 809.34,-91.99"/>
</g>
<!-- docker_prometheus_tech&#45;&gt;docker_filebeatO -->
<!-- docker_prometheus_tech&#45;&gt;docker_nodeexpO -->
<!-- docker_prometheus_tech&#45;&gt;docker_cadvisorO -->
<!-- docker_prometheus_busi&#45;&gt;ebs_prometheus_busi -->
<g id="edge28" class="edge">
<title>docker_prometheus_busi&#45;&gt;ebs_prometheus_busi</title>
<path fill="none" stroke="green" d="M730.05,-180.88C790.45,-163.19 883.85,-134.48 963,-104.35 969.26,-101.96 975.73,-99.35 982.17,-96.65"/>
<polygon fill="green" stroke="green" points="983.71,-99.8 991.54,-92.66 980.97,-93.36 983.71,-99.8"/>
</g>
<!-- docker_prometheus_busi&#45;&gt;docker_filebeatO -->
<!-- docker_prometheus_busi&#45;&gt;docker_nodeexpO -->
<!-- docker_prometheus_busi&#45;&gt;docker_cadvisorO -->
<!-- docker_grafana&#45;&gt;docker_prometheus_tech -->
<g id="edge29" class="edge">
<title>docker_grafana&#45;&gt;docker_prometheus_tech</title>
<path fill="none" stroke="green" d="M647.52,-300.21C621.83,-282.54 584.52,-256.89 554.25,-236.07"/>
<polygon fill="green" stroke="green" points="556.14,-233.12 545.91,-230.34 552.17,-238.89 556.14,-233.12"/>
</g>
<!-- docker_grafana&#45;&gt;docker_prometheus_busi -->
<g id="edge30" class="edge">
<title>docker_grafana&#45;&gt;docker_prometheus_busi</title>
<path fill="none" stroke="green" d="M675.61,-295.06C674.35,-281.22 672.76,-263.8 671.29,-247.71"/>
<polygon fill="green" stroke="green" points="674.74,-247.03 670.34,-237.39 667.77,-247.66 674.74,-247.03"/>
</g>
</g>
</svg>
