<?xml version="1.0" encoding="UTF-8" standalone="no"?>
<!DOCTYPE svg PUBLIC "-//W3C//DTD SVG 1.1//EN"
 "http://www.w3.org/Graphics/SVG/1.1/DTD/svg11.dtd">
<!-- Generated by graphviz version 2.38.0 (20140413.2041)
 -->
<!-- Title: D Pages: 1 -->
<svg width="783pt" height="844pt"
 viewBox="0.00 0.00 782.78 844.39" xmlns="http://www.w3.org/2000/svg" xmlns:xlink="http://www.w3.org/1999/xlink">
<g id="graph0" class="graph" transform="scale(1 1) rotate(0) translate(4 840.394)">
<title>D</title>
<polygon fill="white" stroke="none" points="-4,4 -4,-840.394 778.782,-840.394 778.782,4 -4,4"/>
<!-- SpecAttr -->
<g id="node1" class="node"><title>SpecAttr</title>
<ellipse fill="none" stroke="black" cx="210.782" cy="-722.524" rx="82.0488" ry="26.7407"/>
<text text-anchor="middle" x="210.782" y="-726.324" font-family="Times,serif" font-size="14.00">SpecAttr/AttrSpec</text>
<text text-anchor="middle" x="210.782" y="-711.324" font-family="Times,serif" font-size="14.00">[P,V,I,C,O]</text>
</g>
<!-- SpecBuilder -->
<g id="node2" class="node"><title>SpecBuilder</title>
<ellipse fill="none" stroke="black" cx="328.782" cy="-617.784" rx="79.8063" ry="26.7407"/>
<text text-anchor="middle" x="328.782" y="-621.584" font-family="Times,serif" font-size="14.00">SpecBuilder</text>
<text text-anchor="middle" x="328.782" y="-606.584" font-family="Times,serif" font-size="14.00">[P,O,V,Iₙ,Cₙ,Oₙ]</text>
</g>
<!-- SpecAttr&#45;&gt;SpecBuilder -->
<g id="edge1" class="edge"><title>SpecAttr&#45;&gt;SpecBuilder</title>
<path fill="none" stroke="black" d="M224.173,-695.743C230.82,-684.632 239.61,-672.06 249.782,-662.654 256.877,-656.093 265.132,-650.149 273.578,-644.905"/>
<polygon fill="black" stroke="black" points="275.572,-647.793 282.408,-639.698 272.016,-641.763 275.572,-647.793"/>
<text text-anchor="middle" x="282.282" y="-666.454" font-family="Times,serif" font-size="14.00">O⁺ = (Oⁿ)⁻</text>
</g>
<!-- SpecBuilder_B2 -->
<g id="node3" class="node"><title>SpecBuilder_B2</title>
<ellipse fill="none" stroke="black" cx="337.782" cy="-516.437" rx="79.8063" ry="37.4533"/>
<text text-anchor="middle" x="337.782" y="-527.737" font-family="Times,serif" font-size="14.00">SpecBuilder.B2</text>
<text text-anchor="middle" x="337.782" y="-512.737" font-family="Times,serif" font-size="14.00">[P,O,V,Iₙ,Cₙ,Oₙ]</text>
<text text-anchor="middle" x="337.782" y="-497.737" font-family="Times,serif" font-size="14.00">[DataId]</text>
</g>
<!-- SpecBuilder&#45;&gt;SpecBuilder_B2 -->
<g id="edge2" class="edge"><title>SpecBuilder&#45;&gt;SpecBuilder_B2</title>
<path fill="none" stroke="black" d="M331.146,-590.682C331.88,-582.578 332.713,-573.385 333.535,-564.317"/>
<polygon fill="black" stroke="black" points="337.035,-564.471 334.452,-554.196 330.064,-563.84 337.035,-564.471"/>
</g>
<!-- AttrSpecW -->
<g id="node4" class="node"><title>AttrSpecW</title>
<ellipse fill="none" stroke="black" cx="77.7817" cy="-386.09" rx="77.5641" ry="26.7407"/>
<text text-anchor="middle" x="77.7817" y="-389.89" font-family="Times,serif" font-size="14.00">AttrSpecW</text>
<text text-anchor="middle" x="77.7817" y="-374.89" font-family="Times,serif" font-size="14.00">[S,W,P,V,I,C,O]</text>
</g>
<!-- SpecBuilder_B2&#45;&gt;AttrSpecW -->
<g id="edge3" class="edge"><title>SpecBuilder_B2&#45;&gt;AttrSpecW</title>
<path fill="none" stroke="black" d="M260.277,-507.234C197.888,-499.031 116.918,-484.244 93.7817,-460.96 83.9791,-451.095 79.5507,-436.737 77.7269,-423.298"/>
<polygon fill="black" stroke="black" points="81.207,-422.921 76.7939,-413.289 74.2372,-423.57 81.207,-422.921"/>
<text text-anchor="middle" x="212.282" y="-449.76" font-family="Times,serif" font-size="14.00">S⁺ = SavedAndUnsaved[DataId⁻, P⁻, Iₙ⁻]</text>
<text text-anchor="middle" x="212.282" y="-434.76" font-family="Times,serif" font-size="14.00">W⁺ = Option[DataId⁻]</text>
</g>
<!-- Spec -->
<g id="node5" class="node"><title>Spec</title>
<ellipse fill="none" stroke="black" cx="331.782" cy="-386.09" rx="99.9045" ry="26.7407"/>
<text text-anchor="middle" x="331.782" y="-389.89" font-family="Times,serif" font-size="14.00">Spec</text>
<text text-anchor="middle" x="331.782" y="-374.89" font-family="Times,serif" font-size="14.00">[S,W,G,P,V,Iₙ,Cₙ,Oₙ]</text>
</g>
<!-- SpecBuilder_B2&#45;&gt;Spec -->
<g id="edge5" class="edge"><title>SpecBuilder_B2&#45;&gt;Spec</title>
<path fill="none" stroke="black" d="M336.062,-478.658C335.254,-461.359 334.292,-440.791 333.485,-423.535"/>
<polygon fill="black" stroke="black" points="336.969,-423.103 333.006,-413.277 329.977,-423.43 336.969,-423.103"/>
<text text-anchor="middle" x="361.782" y="-442.26" font-family="Times,serif" font-size="14.00">G⁺ = O⁻</text>
</g>
<!-- TableSpecB -->
<g id="node6" class="node"><title>TableSpecB</title>
<ellipse fill="none" stroke="black" cx="539.782" cy="-131.61" rx="77.1494" ry="26.7407"/>
<text text-anchor="middle" x="539.782" y="-135.41" font-family="Times,serif" font-size="14.00">TableSpecB</text>
<text text-anchor="middle" x="539.782" y="-120.41" font-family="Times,serif" font-size="14.00">[DataId,O,P,I,V]</text>
</g>
<!-- SpecBuilder_B2&#45;&gt;TableSpecB -->
<g id="edge6" class="edge"><title>SpecBuilder_B2&#45;&gt;TableSpecB</title>
<path fill="none" stroke="black" d="M376.547,-483.252C397.527,-464.375 422.761,-439.141 440.782,-412.96 493.576,-336.264 499.423,-310.782 525.782,-221.48 530.787,-204.522 534.103,-185.184 536.245,-168.887"/>
<polygon fill="black" stroke="black" points="539.755,-169.022 537.49,-158.672 532.806,-168.175 539.755,-169.022"/>
<text text-anchor="middle" x="529.282" y="-330.02" font-family="Times,serif" font-size="14.00">I⁺ = (Iⁿ)⁻</text>
<text text-anchor="middle" x="529.282" y="-315.02" font-family="Times,serif" font-size="14.00">V⁺ = (Vⁿ)⁻</text>
</g>
<!-- AttrSpecW&#45;&gt;Spec -->
<g id="edge4" class="edge"><title>AttrSpecW&#45;&gt;Spec</title>
<path fill="none" stroke="black" d="M155.668,-386.09C177.742,-386.09 199.815,-386.09 221.888,-386.09"/>
<polygon fill="black" stroke="black" points="222.03,-389.591 232.03,-386.09 222.03,-382.591 222.03,-389.591"/>
</g>
<!-- Renderable -->
<g id="node8" class="node"><title>Renderable</title>
<ellipse fill="none" stroke="black" cx="298.782" cy="-266.35" rx="58.8803" ry="26.7407"/>
<text text-anchor="middle" x="298.782" y="-270.15" font-family="Times,serif" font-size="14.00">Renderable</text>
<text text-anchor="middle" x="298.782" y="-255.15" font-family="Times,serif" font-size="14.00">[S,G,P,E,V]</text>
</g>
<!-- Spec&#45;&gt;Renderable -->
<g id="edge8" class="edge"><title>Spec&#45;&gt;Renderable</title>
<path fill="none" stroke="black" d="M324.54,-359.252C319.897,-342.688 313.809,-320.967 308.718,-302.8"/>
<polygon fill="black" stroke="black" points="312.076,-301.813 306.007,-293.129 305.336,-303.702 312.076,-301.813"/>
<text text-anchor="middle" x="352.282" y="-330.02" font-family="Times,serif" font-size="14.00">E⁺ = (Iⁿ)⁻</text>
<text text-anchor="middle" x="352.282" y="-315.02" font-family="Times,serif" font-size="14.00">V⁺ = (Vⁿ)⁻</text>
</g>
<!-- TableSpec -->
<g id="node7" class="node"><title>TableSpec</title>
<ellipse fill="none" stroke="black" cx="539.782" cy="-26.8701" rx="84.7059" ry="26.7407"/>
<text text-anchor="middle" x="539.782" y="-30.6701" font-family="Times,serif" font-size="14.00">TableSpec</text>
<text text-anchor="middle" x="539.782" y="-15.6701" font-family="Times,serif" font-size="14.00">[S,DataId,O,P,I,V]</text>
</g>
<!-- TableSpecB&#45;&gt;TableSpec -->
<g id="edge7" class="edge"><title>TableSpecB&#45;&gt;TableSpec</title>
<path fill="none" stroke="black" d="M539.782,-104.685C539.782,-92.3951 539.782,-77.5066 539.782,-64.1214"/>
<polygon fill="black" stroke="black" points="543.282,-63.7874 539.782,-53.7874 536.282,-63.7875 543.282,-63.7874"/>
<text text-anchor="middle" x="657.282" y="-75.5401" font-family="Times,serif" font-size="14.00"> S⁺ = SavedAndUnsaved[DataId⁻, P⁻, I⁻]</text>
</g>
<!-- Renderable&#45;&gt;TableSpecB -->
<g id="edge9" class="edge"><title>Renderable&#45;&gt;TableSpecB</title>
<path fill="none" stroke="black" d="M289.185,-239.805C283.647,-220.247 280.311,-193.773 294.782,-176.48 314.943,-152.388 391.242,-141.511 453.402,-136.609"/>
<polygon fill="black" stroke="black" points="453.929,-140.08 463.64,-135.845 453.407,-133.099 453.929,-140.08"/>
<text text-anchor="middle" x="410.282" y="-210.28" font-family="Times,serif" font-size="14.00">S⁻ = SavedAndUnsaved[DataId⁺, P⁺, I⁺]</text>
<text text-anchor="middle" x="410.282" y="-195.28" font-family="Times,serif" font-size="14.00">O⁺ = G⁻</text>
<text text-anchor="middle" x="410.282" y="-180.28" font-family="Times,serif" font-size="14.00">I⁺ = E⁻</text>
</g>
<!-- User -->
<g id="node9" class="node"><title>User</title>
<ellipse fill="none" stroke="black" cx="404.782" cy="-818.394" rx="27.0966" ry="18"/>
<text text-anchor="middle" x="404.782" y="-814.694" font-family="Times,serif" font-size="14.00" fill="red">User</text>
</g>
<!-- User&#45;&gt;SpecAttr -->
<g id="edge10" class="edge"><title>User&#45;&gt;SpecAttr</title>
<path fill="none" stroke="red" d="M377.755,-815.283C348.197,-811.962 300.307,-803.532 264.782,-782.394 253.701,-775.801 243.547,-766.232 235.107,-756.719"/>
<polygon fill="red" stroke="red" points="237.56,-754.198 228.439,-748.808 232.207,-758.709 237.56,-754.198"/>
<text text-anchor="middle" x="289.782" y="-771.194" font-family="Times,serif" font-size="14.00" fill="#550000">1. Create</text>
</g>
<!-- User&#45;&gt;SpecBuilder -->
<g id="edge11" class="edge"><title>User&#45;&gt;SpecBuilder</title>
<path fill="none" stroke="red" d="M387.621,-804.053C373.002,-791.618 352.816,-771.683 342.782,-749.394 329.351,-719.562 326.577,-682.15 326.733,-655.021"/>
<polygon fill="red" stroke="red" points="330.236,-654.869 326.932,-644.803 323.238,-654.732 330.236,-654.869"/>
<text text-anchor="middle" x="404.782" y="-726.324" font-family="Times,serif" font-size="14.00" fill="#550000">2. Create</text>
<text text-anchor="middle" x="404.782" y="-711.324" font-family="Times,serif" font-size="14.00" fill="#550000">3. Specify DataId type</text>
</g>
<!-- User&#45;&gt;SpecBuilder_B2 -->
<g id="edge12" class="edge"><title>User&#45;&gt;SpecBuilder_B2</title>
<path fill="none" stroke="red" d="M422.233,-804.537C437.262,-792.283 457.893,-772.335 466.782,-749.394 475.411,-727.123 471.966,-718.969 466.782,-695.654 455.627,-645.486 448.173,-632.358 417.782,-590.914 408.634,-578.439 397.134,-566.414 385.73,-555.832"/>
<polygon fill="red" stroke="red" points="388.041,-553.204 378.274,-549.097 383.348,-558.398 388.041,-553.204"/>
<text text-anchor="middle" x="524.782" y="-666.454" font-family="Times,serif" font-size="14.00" fill="#550000">4. ctxAwareValidators</text>
</g>
<!-- User&#45;&gt;TableSpecB -->
<g id="edge13" class="edge"><title>User&#45;&gt;TableSpecB</title>
<path fill="none" stroke="red" d="M432.449,-817.55C490.517,-816.279 619.782,-804.371 619.782,-723.524 619.782,-723.524 619.782,-723.524 619.782,-265.35 619.782,-226.989 594.969,-190.186 572.981,-165.103"/>
<polygon fill="red" stroke="red" points="575.289,-162.437 565.977,-157.384 570.105,-167.142 575.289,-162.437"/>
<text text-anchor="middle" x="646.282" y="-512.737" font-family="Times,serif" font-size="14.00" fill="#550000">5. saveFn</text>
</g>
</g>
</svg>
