<?xml version="1.0" encoding="UTF-8" standalone="no"?>
<!DOCTYPE svg PUBLIC "-//W3C//DTD SVG 1.1//EN"
 "http://www.w3.org/Graphics/SVG/1.1/DTD/svg11.dtd">
<!-- Generated by graphviz version 2.38.0 (20140413.2041)
 -->
<!-- Title: D Pages: 1 -->
<svg width="790pt" height="975pt"
 viewBox="0.00 0.00 789.78 974.50" xmlns="http://www.w3.org/2000/svg" xmlns:xlink="http://www.w3.org/1999/xlink">
<g id="graph0" class="graph" transform="scale(1 1) rotate(0) translate(4 970.502)">
<title>D</title>
<polygon fill="white" stroke="none" points="-4,4 -4,-970.502 785.782,-970.502 785.782,4 -4,4"/>
<!-- SpecAttr -->
<g id="node1" class="node"><title>SpecAttr</title>
<ellipse fill="none" stroke="black" cx="210.782" cy="-852.632" rx="82.0488" ry="26.7407"/>
<text text-anchor="middle" x="210.782" y="-856.432" font-family="Times,serif" font-size="14.00">SpecAttr/AttrSpec</text>
<text text-anchor="middle" x="210.782" y="-841.432" font-family="Times,serif" font-size="14.00">[P,V,I,C,O]</text>
</g>
<!-- SpecBuilder -->
<g id="node2" class="node"><title>SpecBuilder</title>
<ellipse fill="none" stroke="black" cx="328.782" cy="-747.891" rx="79.8062" ry="26.7407"/>
<text text-anchor="middle" x="328.782" y="-751.691" font-family="Times,serif" font-size="14.00">SpecBuilderⁿ</text>
<text text-anchor="middle" x="328.782" y="-736.691" font-family="Times,serif" font-size="14.00">[P,O,V,Iₙ,Cₙ,Oₙ]</text>
</g>
<!-- SpecAttr&#45;&gt;SpecBuilder -->
<g id="edge1" class="edge"><title>SpecAttr&#45;&gt;SpecBuilder</title>
<path fill="none" stroke="black" d="M224.173,-825.851C230.82,-814.74 239.61,-802.167 249.782,-792.762 256.877,-786.2 265.132,-780.256 273.578,-775.013"/>
<polygon fill="black" stroke="black" points="275.572,-777.9 282.408,-769.805 272.016,-771.871 275.572,-777.9"/>
<text text-anchor="middle" x="282.282" y="-796.562" font-family="Times,serif" font-size="14.00">O⁺ = (Oⁿ)⁻</text>
<text text-anchor="middle" x="265.408" y="-773.605" font-family="Times,serif" font-size="14.00">1 &#160;&#160;&#160;&#160;&#160;&#160;</text>
<text text-anchor="middle" x="220.673" y="-814.651" font-family="Times,serif" font-size="14.00">n</text>
</g>
<!-- SpecBuilder_B2 -->
<g id="node3" class="node"><title>SpecBuilder_B2</title>
<ellipse fill="none" stroke="black" cx="337.782" cy="-646.545" rx="79.8062" ry="37.4533"/>
<text text-anchor="middle" x="337.782" y="-657.845" font-family="Times,serif" font-size="14.00">SpecBuilderⁿ.B2</text>
<text text-anchor="middle" x="337.782" y="-642.845" font-family="Times,serif" font-size="14.00">[P,O,V,Iₙ,Cₙ,Oₙ]</text>
<text text-anchor="middle" x="337.782" y="-627.845" font-family="Times,serif" font-size="14.00">[DataId]</text>
</g>
<!-- SpecBuilder&#45;&gt;SpecBuilder_B2 -->
<g id="edge2" class="edge"><title>SpecBuilder&#45;&gt;SpecBuilder_B2</title>
<path fill="none" stroke="black" d="M331.146,-720.789C331.88,-712.686 332.713,-703.493 333.535,-694.425"/>
<polygon fill="black" stroke="black" points="337.035,-694.579 334.452,-684.304 330.064,-693.947 337.035,-694.579"/>
</g>
<!-- AttrSpecW -->
<g id="node4" class="node"><title>AttrSpecW</title>
<ellipse fill="none" stroke="black" cx="77.7817" cy="-516.198" rx="77.5641" ry="26.7407"/>
<text text-anchor="middle" x="77.7817" y="-519.998" font-family="Times,serif" font-size="14.00">AttrSpecW</text>
<text text-anchor="middle" x="77.7817" y="-504.998" font-family="Times,serif" font-size="14.00">[S,W,P,V,I,C,O]</text>
</g>
<!-- SpecBuilder_B2&#45;&gt;AttrSpecW -->
<g id="edge3" class="edge"><title>SpecBuilder_B2&#45;&gt;AttrSpecW</title>
<path fill="none" stroke="black" d="M260.277,-637.341C197.888,-629.139 116.918,-614.352 93.7817,-591.068 83.9791,-581.203 79.5507,-566.845 77.7269,-553.405"/>
<polygon fill="black" stroke="black" points="81.207,-553.028 76.7939,-543.396 74.2372,-553.678 81.207,-553.028"/>
<text text-anchor="middle" x="212.282" y="-579.868" font-family="Times,serif" font-size="14.00">S⁺ = SavedAndUnsaved[DataId⁻, P⁻, Iₙ⁻]</text>
<text text-anchor="middle" x="212.282" y="-564.868" font-family="Times,serif" font-size="14.00">W⁺ = Option[DataId⁻]</text>
<text text-anchor="middle" x="69.2939" y="-547.196" font-family="Times,serif" font-size="14.00">n &#160;</text>
<text text-anchor="middle" x="252.777" y="-641.141" font-family="Times,serif" font-size="14.00">1 &#160;</text>
</g>
<!-- Spec -->
<g id="node5" class="node"><title>Spec</title>
<ellipse fill="none" stroke="black" cx="331.782" cy="-516.198" rx="99.9045" ry="26.7407"/>
<text text-anchor="middle" x="331.782" y="-519.998" font-family="Times,serif" font-size="14.00">Specⁿ</text>
<text text-anchor="middle" x="331.782" y="-504.998" font-family="Times,serif" font-size="14.00">[S,W,G,P,V,Iₙ,Cₙ,Oₙ]</text>
</g>
<!-- SpecBuilder_B2&#45;&gt;Spec -->
<g id="edge5" class="edge"><title>SpecBuilder_B2&#45;&gt;Spec</title>
<path fill="none" stroke="black" d="M336.062,-608.766C335.254,-591.467 334.292,-570.899 333.485,-553.643"/>
<polygon fill="black" stroke="black" points="336.969,-553.211 333.006,-543.385 329.977,-553.537 336.969,-553.211"/>
<text text-anchor="middle" x="361.782" y="-572.368" font-family="Times,serif" font-size="14.00">G⁺ = O⁻</text>
</g>
<!-- TableSpecB -->
<g id="node6" class="node"><title>TableSpecB</title>
<ellipse fill="none" stroke="black" cx="539.782" cy="-131.61" rx="77.1494" ry="26.7407"/>
<text text-anchor="middle" x="539.782" y="-135.41" font-family="Times,serif" font-size="14.00">TableSpecB</text>
<text text-anchor="middle" x="539.782" y="-120.41" font-family="Times,serif" font-size="14.00">[DataId,O,P,I,V]</text>
</g>
<!-- SpecBuilder_B2&#45;&gt;TableSpecB -->
<g id="edge6" class="edge"><title>SpecBuilder_B2&#45;&gt;TableSpecB</title>
<path fill="none" stroke="black" d="M378.46,-614.184C399.902,-595.654 424.965,-570.491 440.782,-543.068 512.692,-418.393 532.532,-243.514 537.874,-168.779"/>
<polygon fill="black" stroke="black" points="541.387,-168.709 538.562,-158.497 534.402,-168.242 541.387,-168.709"/>
<text text-anchor="middle" x="518.282" y="-460.128" font-family="Times,serif" font-size="14.00">I⁺ = (Iⁿ)⁻</text>
<text text-anchor="middle" x="518.282" y="-445.128" font-family="Times,serif" font-size="14.00">V⁺ = (Vⁿ)⁻</text>
</g>
<!-- AttrSpecW&#45;&gt;Spec -->
<g id="edge4" class="edge"><title>AttrSpecW&#45;&gt;Spec</title>
<path fill="none" stroke="black" d="M155.668,-516.198C177.742,-516.198 199.815,-516.198 221.888,-516.198"/>
<polygon fill="black" stroke="black" points="222.03,-519.698 232.03,-516.198 222.03,-512.698 222.03,-519.698"/>
<text text-anchor="middle" x="228.53" y="-519.998" font-family="Times,serif" font-size="14.00">1</text>
<text text-anchor="middle" x="159.168" y="-519.998" font-family="Times,serif" font-size="14.00">n</text>
</g>
<!-- Renderable -->
<g id="node8" class="node"><title>Renderable</title>
<ellipse fill="none" stroke="black" cx="298.782" cy="-331.404" rx="158.284" ry="91.8478"/>
<text text-anchor="middle" x="298.782" y="-381.204" font-family="Times,serif" font-size="14.00">Renderable</text>
<text text-anchor="middle" x="298.782" y="-366.204" font-family="Times,serif" font-size="14.00">[S,G,P,E,V]</text>
<text text-anchor="middle" x="298.782" y="-335.204" font-family="Times,serif" font-size="14.00">renderM: WeirdLens[M,S,S,E]</text>
<text text-anchor="middle" x="298.782" y="-320.204" font-family="Times,serif" font-size="14.00">⇒ (S ⇒ M[P])</text>
<text text-anchor="middle" x="298.782" y="-305.204" font-family="Times,serif" font-size="14.00">⇒ ((S,G) ⇒ IO[S])</text>
<text text-anchor="middle" x="298.782" y="-290.204" font-family="Times,serif" font-size="14.00">⇒ ComponentStateFocus[S] ⇒ M[V]</text>
</g>
<!-- Spec&#45;&gt;Renderable -->
<g id="edge8" class="edge"><title>Spec&#45;&gt;Renderable</title>
<path fill="none" stroke="black" d="M327.054,-489.008C324.315,-473.839 320.674,-453.668 316.918,-432.866"/>
<polygon fill="black" stroke="black" points="320.349,-432.171 315.128,-422.952 313.461,-433.415 320.349,-432.171"/>
<text text-anchor="middle" x="357.282" y="-460.128" font-family="Times,serif" font-size="14.00">E⁺ = (Iⁿ)⁻</text>
<text text-anchor="middle" x="357.282" y="-445.128" font-family="Times,serif" font-size="14.00">V⁺ = (Vⁿ)⁻</text>
</g>
<!-- TableSpec -->
<g id="node7" class="node"><title>TableSpec</title>
<ellipse fill="none" stroke="black" cx="539.782" cy="-26.8701" rx="84.7059" ry="26.7407"/>
<text text-anchor="middle" x="539.782" y="-30.6701" font-family="Times,serif" font-size="14.00">TableSpec</text>
<text text-anchor="middle" x="539.782" y="-15.6701" font-family="Times,serif" font-size="14.00">[S,DataId,O,P,I,V]</text>
</g>
<!-- TableSpecB&#45;&gt;TableSpec -->
<g id="edge7" class="edge"><title>TableSpecB&#45;&gt;TableSpec</title>
<path fill="none" stroke="black" d="M539.782,-104.685C539.782,-92.3951 539.782,-77.5066 539.782,-64.1214"/>
<polygon fill="black" stroke="black" points="543.282,-63.7874 539.782,-53.7874 536.282,-63.7875 543.282,-63.7874"/>
<text text-anchor="middle" x="660.782" y="-75.5401" font-family="Times,serif" font-size="14.00"> &#160;&#160;S⁺ = SavedAndUnsaved[DataId⁻, P⁻, I⁻]</text>
</g>
<!-- Renderable&#45;&gt;TableSpecB -->
<g id="edge9" class="edge"><title>Renderable&#45;&gt;TableSpecB</title>
<path fill="none" stroke="black" d="M276.314,-240.246C275.638,-217.267 280.028,-194.111 294.782,-176.48 314.943,-152.388 391.242,-141.511 453.402,-136.609"/>
<polygon fill="black" stroke="black" points="453.929,-140.08 463.64,-135.845 453.407,-133.099 453.929,-140.08"/>
<text text-anchor="middle" x="410.282" y="-210.28" font-family="Times,serif" font-size="14.00">S⁻ = SavedAndUnsaved[DataId⁺, P⁺, I⁺]</text>
<text text-anchor="middle" x="410.282" y="-195.28" font-family="Times,serif" font-size="14.00">O⁺ = G⁻</text>
<text text-anchor="middle" x="410.282" y="-180.28" font-family="Times,serif" font-size="14.00">I⁺ = E⁻</text>
</g>
<!-- User -->
<g id="node9" class="node"><title>User</title>
<ellipse fill="none" stroke="black" cx="404.782" cy="-948.502" rx="27.0966" ry="18"/>
<text text-anchor="middle" x="404.782" y="-944.802" font-family="Times,serif" font-size="14.00" fill="red">User</text>
</g>
<!-- User&#45;&gt;SpecAttr -->
<g id="edge10" class="edge"><title>User&#45;&gt;SpecAttr</title>
<path fill="none" stroke="red" d="M377.755,-945.391C348.197,-942.069 300.307,-933.64 264.782,-912.502 253.701,-905.908 243.547,-896.34 235.107,-886.827"/>
<polygon fill="red" stroke="red" points="237.56,-884.306 228.439,-878.915 232.207,-888.817 237.56,-884.306"/>
<text text-anchor="middle" x="289.782" y="-901.302" font-family="Times,serif" font-size="14.00" fill="#550000">1. Create</text>
</g>
<!-- User&#45;&gt;SpecBuilder -->
<g id="edge11" class="edge"><title>User&#45;&gt;SpecBuilder</title>
<path fill="none" stroke="red" d="M387.621,-934.16C373.002,-921.726 352.816,-901.79 342.782,-879.502 329.351,-849.67 326.577,-812.257 326.733,-785.128"/>
<polygon fill="red" stroke="red" points="330.236,-784.976 326.932,-774.91 323.238,-784.84 330.236,-784.976"/>
<text text-anchor="middle" x="404.782" y="-856.432" font-family="Times,serif" font-size="14.00" fill="#550000">2. Create</text>
<text text-anchor="middle" x="404.782" y="-841.432" font-family="Times,serif" font-size="14.00" fill="#550000">3. Specify DataId type</text>
</g>
<!-- User&#45;&gt;SpecBuilder_B2 -->
<g id="edge12" class="edge"><title>User&#45;&gt;SpecBuilder_B2</title>
<path fill="none" stroke="red" d="M422.233,-934.645C437.262,-922.391 457.893,-902.443 466.782,-879.502 475.411,-857.23 471.966,-849.077 466.782,-825.762 455.627,-775.593 448.173,-762.466 417.782,-721.021 408.634,-708.547 397.134,-696.522 385.73,-685.94"/>
<polygon fill="red" stroke="red" points="388.041,-683.311 378.274,-679.204 383.348,-688.505 388.041,-683.311"/>
<text text-anchor="middle" x="524.782" y="-796.562" font-family="Times,serif" font-size="14.00" fill="#550000">4. ctxAwareValidators</text>
</g>
<!-- User&#45;&gt;TableSpecB -->
<g id="edge13" class="edge"><title>User&#45;&gt;TableSpecB</title>
<path fill="none" stroke="red" d="M432.449,-947.658C490.517,-946.387 619.782,-934.479 619.782,-853.632 619.782,-853.632 619.782,-853.632 619.782,-330.404 619.782,-269.192 586.447,-204.588 562.813,-166.477"/>
<polygon fill="red" stroke="red" points="565.647,-164.411 557.338,-157.838 559.734,-168.158 565.647,-164.411"/>
<text text-anchor="middle" x="646.282" y="-642.845" font-family="Times,serif" font-size="14.00" fill="#550000">5. saveFn</text>
</g>
</g>
</svg>
