<?xml version="1.0" encoding="UTF-8" standalone="no"?>
<!DOCTYPE svg PUBLIC "-//W3C//DTD SVG 1.1//EN"
 "http://www.w3.org/Graphics/SVG/1.1/DTD/svg11.dtd">
<!-- Generated by graphviz version 2.38.0 (20140413.2041)
 -->
<!-- Title: D Pages: 1 -->
<svg width="575pt" height="965pt"
 viewBox="0.00 0.00 574.78 965.14" xmlns="http://www.w3.org/2000/svg" xmlns:xlink="http://www.w3.org/1999/xlink">
<g id="graph0" class="graph" transform="scale(1 1) rotate(0) translate(4 961.141)">
<title>D</title>
<polygon fill="white" stroke="none" points="-4,4 -4,-961.141 570.782,-961.141 570.782,4 -4,4"/>
<!-- FieldSpec -->
<g id="node1" class="node"><title>FieldSpec</title>
<ellipse fill="none" stroke="black" cx="104.782" cy="-843.271" rx="57.0522" ry="26.7407"/>
<text text-anchor="middle" x="104.782" y="-847.071" font-family="Times,serif" font-size="14.00">FieldSpec</text>
<text text-anchor="middle" x="104.782" y="-832.071" font-family="Times,serif" font-size="14.00">[P,V,I,C,O]</text>
</g>
<!-- TableSpecBuilder -->
<g id="node2" class="node"><title>TableSpecBuilder</title>
<ellipse fill="none" stroke="black" cx="189.782" cy="-727.924" rx="84.2917" ry="37.4533"/>
<text text-anchor="middle" x="189.782" y="-739.224" font-family="Times,serif" font-size="14.00">TableSpecBuilderⁿ</text>
<text text-anchor="middle" x="189.782" y="-724.224" font-family="Times,serif" font-size="14.00">[P,G,V,Iₙ,Cₙ,Oₙ]</text>
<text text-anchor="middle" x="189.782" y="-709.224" font-family="Times,serif" font-size="14.00">Iⁿ = ΣIₙ</text>
</g>
<!-- FieldSpec&#45;&gt;TableSpecBuilder -->
<g id="edge1" class="edge"><title>FieldSpec&#45;&gt;TableSpecBuilder</title>
<path fill="none" stroke="black" d="M106.579,-816.125C108.293,-805.325 111.567,-793.093 117.782,-783.401 122.006,-776.814 127.32,-770.724 133.14,-765.189"/>
<polygon fill="black" stroke="black" points="135.559,-767.721 140.736,-758.477 130.925,-762.475 135.559,-767.721"/>
<text text-anchor="middle" x="150.782" y="-787.201" font-family="Times,serif" font-size="14.00">G⁺ = ΣOₙ⁻</text>
<text text-anchor="middle" x="123.736" y="-762.277" font-family="Times,serif" font-size="14.00">1 &#160;&#160;&#160;&#160;&#160;&#160;</text>
<text text-anchor="middle" x="103.079" y="-804.925" font-family="Times,serif" font-size="14.00">n</text>
</g>
<!-- TableSpecBuilder&#45;&gt;TableSpecBuilder -->
<g id="edge14" class="edge"><title>TableSpecBuilder&#45;&gt;TableSpecBuilder</title>
<path fill="none" stroke="red" d="M271.528,-737.11C283.697,-735.68 291.927,-732.618 291.927,-727.924 291.927,-724.698 288.037,-722.242 281.652,-720.558"/>
<polygon fill="red" stroke="red" points="281.989,-717.063 271.528,-718.739 280.751,-723.953 281.989,-717.063"/>
<text text-anchor="middle" x="319.427" y="-724.224" font-family="Times,serif" font-size="14.00" fill="#550000"> G⁺ = arb</text>
</g>
<!-- TableSpecBuilder_B2 -->
<g id="node3" class="node"><title>TableSpecBuilder_B2</title>
<ellipse fill="none" stroke="black" cx="290.782" cy="-594.758" rx="150.728" ry="58.8803"/>
<text text-anchor="middle" x="290.782" y="-621.058" font-family="Times,serif" font-size="14.00">TableSpecBuilderⁿ.B2</text>
<text text-anchor="middle" x="290.782" y="-606.058" font-family="Times,serif" font-size="14.00">[P,G,V,Iₙ,Cₙ,Oₙ]</text>
<text text-anchor="middle" x="290.782" y="-591.058" font-family="Times,serif" font-size="14.00">Iⁿ = ΣIₙ</text>
<text text-anchor="middle" x="290.782" y="-576.058" font-family="Times,serif" font-size="14.00">[DataId]</text>
<text text-anchor="middle" x="290.782" y="-561.058" font-family="Times,serif" font-size="14.00">S = SavedAndUnsaved[DataId,P,Iⁿ]</text>
</g>
<!-- TableSpecBuilder&#45;&gt;TableSpecBuilder_B2 -->
<g id="edge2" class="edge"><title>TableSpecBuilder&#45;&gt;TableSpecBuilder_B2</title>
<path fill="none" stroke="black" d="M216.583,-692.119C224.342,-682.042 233.067,-670.711 241.735,-659.454"/>
<polygon fill="black" stroke="black" points="244.693,-661.349 248.021,-651.29 239.147,-657.078 244.693,-661.349"/>
</g>
<!-- FieldSpecW -->
<g id="node4" class="node"><title>FieldSpecW</title>
<ellipse fill="none" stroke="black" cx="77.7817" cy="-458.198" rx="77.5641" ry="26.7407"/>
<text text-anchor="middle" x="77.7817" y="-461.998" font-family="Times,serif" font-size="14.00">FieldSpecW</text>
<text text-anchor="middle" x="77.7817" y="-446.998" font-family="Times,serif" font-size="14.00">[S,W,P,V,I,C,O]</text>
</g>
<!-- TableSpecBuilder_B2&#45;&gt;FieldSpecW -->
<g id="edge3" class="edge"><title>TableSpecBuilder_B2&#45;&gt;FieldSpecW</title>
<path fill="none" stroke="black" d="M204.401,-546.553C188.694,-537.42 172.6,-527.69 157.782,-518.068 144.02,-509.132 129.435,-498.705 116.541,-489.131"/>
<polygon fill="black" stroke="black" points="118.44,-486.18 108.338,-482.986 114.243,-491.783 118.44,-486.18"/>
<text text-anchor="middle" x="222.282" y="-506.868" font-family="Times,serif" font-size="14.00">W⁺ = Option[DataId⁻]</text>
<text text-anchor="middle" x="100.838" y="-486.786" font-family="Times,serif" font-size="14.00">n &#160;</text>
<text text-anchor="middle" x="196.901" y="-535.353" font-family="Times,serif" font-size="14.00">1 &#160;</text>
</g>
<!-- RowSpec -->
<g id="node5" class="node"><title>RowSpec</title>
<ellipse fill="none" stroke="black" cx="290.782" cy="-458.198" rx="99.9045" ry="26.7407"/>
<text text-anchor="middle" x="290.782" y="-461.998" font-family="Times,serif" font-size="14.00">RowSpecⁿ</text>
<text text-anchor="middle" x="290.782" y="-446.998" font-family="Times,serif" font-size="14.00">[S,W,G,P,V,Iₙ,Cₙ,Oₙ]</text>
</g>
<!-- TableSpecBuilder_B2&#45;&gt;RowSpec -->
<g id="edge4" class="edge"><title>TableSpecBuilder_B2&#45;&gt;RowSpec</title>
<path fill="none" stroke="black" d="M290.782,-535.912C290.782,-522.111 290.782,-507.769 290.782,-495.273"/>
<polygon fill="black" stroke="black" points="294.282,-495.262 290.782,-485.262 287.282,-495.262 294.282,-495.262"/>
</g>
<!-- TableSpecB -->
<g id="node6" class="node"><title>TableSpecB</title>
<ellipse fill="none" stroke="black" cx="433.782" cy="-117.61" rx="84.7059" ry="26.7407"/>
<text text-anchor="middle" x="433.782" y="-121.41" font-family="Times,serif" font-size="14.00">TableSpecB</text>
<text text-anchor="middle" x="433.782" y="-106.41" font-family="Times,serif" font-size="14.00">[S,DataId,G,P,I,V]</text>
</g>
<!-- TableSpecBuilder_B2&#45;&gt;TableSpecB -->
<g id="edge5" class="edge"><title>TableSpecBuilder_B2&#45;&gt;TableSpecB</title>
<path fill="none" stroke="black" d="M356.909,-541.771C373.5,-525.406 389.49,-506.065 399.782,-485.068 453.834,-374.786 445.885,-223.516 438.568,-154.983"/>
<polygon fill="black" stroke="black" points="442.008,-154.257 437.409,-144.713 435.053,-155.042 442.008,-154.257"/>
<text text-anchor="middle" x="464.282" y="-402.128" font-family="Times,serif" font-size="14.00">I⁺ = (Iⁿ)⁻</text>
<text text-anchor="middle" x="464.282" y="-387.128" font-family="Times,serif" font-size="14.00">V⁺ = (Vⁿ)⁻</text>
</g>
<!-- FieldSpecW&#45;&gt;RowSpec -->
<g id="edge6" class="edge"><title>FieldSpecW&#45;&gt;RowSpec</title>
<path fill="none" stroke="black" d="M155.577,-458.198C163.962,-458.198 172.348,-458.198 180.734,-458.198"/>
<polygon fill="black" stroke="black" points="180.962,-461.698 190.962,-458.198 180.962,-454.698 180.962,-461.698"/>
<text text-anchor="middle" x="187.462" y="-461.998" font-family="Times,serif" font-size="14.00">1</text>
<text text-anchor="middle" x="159.077" y="-461.998" font-family="Times,serif" font-size="14.00">n</text>
</g>
<!-- RowRenderer -->
<g id="node8" class="node"><title>RowRenderer</title>
<ellipse fill="none" stroke="black" cx="247.782" cy="-273.404" rx="158.284" ry="91.8478"/>
<text text-anchor="middle" x="247.782" y="-323.204" font-family="Times,serif" font-size="14.00">RowRenderer</text>
<text text-anchor="middle" x="247.782" y="-308.204" font-family="Times,serif" font-size="14.00">[S,G,P,I,V]</text>
<text text-anchor="middle" x="247.782" y="-277.204" font-family="Times,serif" font-size="14.00">renderM: WeirdLens[M,S,S,I]</text>
<text text-anchor="middle" x="247.782" y="-262.204" font-family="Times,serif" font-size="14.00">⇒ (S ⇒ M[P])</text>
<text text-anchor="middle" x="247.782" y="-247.204" font-family="Times,serif" font-size="14.00">⇒ ((S,G) ⇒ IO[S])</text>
<text text-anchor="middle" x="247.782" y="-232.204" font-family="Times,serif" font-size="14.00">⇒ ComponentStateFocus[S] ⇒ M[V]</text>
</g>
<!-- RowSpec&#45;&gt;RowRenderer -->
<g id="edge8" class="edge"><title>RowSpec&#45;&gt;RowRenderer</title>
<path fill="none" stroke="black" d="M284.621,-431.008C281.032,-415.753 276.254,-395.442 271.332,-374.515"/>
<polygon fill="black" stroke="black" points="274.683,-373.477 268.986,-364.544 267.869,-375.08 274.683,-373.477"/>
<text text-anchor="middle" x="313.282" y="-402.128" font-family="Times,serif" font-size="14.00">I⁺ = (Iⁿ)⁻</text>
<text text-anchor="middle" x="313.282" y="-387.128" font-family="Times,serif" font-size="14.00">V⁺ = (Vⁿ)⁻</text>
</g>
<!-- TableSpec -->
<g id="node7" class="node"><title>TableSpec</title>
<ellipse fill="none" stroke="black" cx="433.782" cy="-26.8701" rx="84.7059" ry="26.7407"/>
<text text-anchor="middle" x="433.782" y="-30.6701" font-family="Times,serif" font-size="14.00">TableSpec</text>
<text text-anchor="middle" x="433.782" y="-15.6701" font-family="Times,serif" font-size="14.00">[S,DataId,G,P,I,V]</text>
</g>
<!-- TableSpecB&#45;&gt;TableSpec -->
<g id="edge7" class="edge"><title>TableSpecB&#45;&gt;TableSpec</title>
<path fill="none" stroke="black" d="M433.782,-90.4652C433.782,-82.1605 433.782,-72.8249 433.782,-63.9483"/>
<polygon fill="black" stroke="black" points="437.282,-63.8282 433.782,-53.8282 430.282,-63.8282 437.282,-63.8282"/>
</g>
<!-- RowRenderer&#45;&gt;TableSpecB -->
<g id="edge9" class="edge"><title>RowRenderer&#45;&gt;TableSpecB</title>
<path fill="none" stroke="black" d="M338.057,-197.76C358.58,-180.791 379.279,-163.676 396.153,-149.724"/>
<polygon fill="black" stroke="black" points="398.635,-152.212 404.112,-143.143 394.175,-146.818 398.635,-152.212"/>
</g>
<!-- Client -->
<g id="node9" class="node"><title>Client</title>
<ellipse fill="none" stroke="black" cx="285.782" cy="-939.141" rx="32.4942" ry="18"/>
<text text-anchor="middle" x="285.782" y="-935.441" font-family="Times,serif" font-size="14.00" fill="red">Client</text>
</g>
<!-- Client&#45;&gt;FieldSpec -->
<g id="edge10" class="edge"><title>Client&#45;&gt;FieldSpec</title>
<path fill="none" stroke="red" d="M253.262,-938.465C219.908,-937.155 168.175,-930.373 133.782,-903.141 126.025,-897 120.194,-888.251 115.875,-879.371"/>
<polygon fill="red" stroke="red" points="119.08,-877.966 111.903,-870.173 112.654,-880.741 119.08,-877.966"/>
<text text-anchor="middle" x="158.782" y="-891.941" font-family="Times,serif" font-size="14.00" fill="#550000">1. Create</text>
</g>
<!-- Client&#45;&gt;TableSpecBuilder -->
<g id="edge11" class="edge"><title>Client&#45;&gt;TableSpecBuilder</title>
<path fill="none" stroke="red" d="M265.258,-925.171C248.031,-913.115 224.288,-893.528 211.782,-870.141 196.306,-841.203 190.949,-804.474 189.386,-775.727"/>
<polygon fill="red" stroke="red" points="192.874,-775.376 188.97,-765.527 185.88,-775.661 192.874,-775.376"/>
<text text-anchor="middle" x="286.282" y="-847.071" font-family="Times,serif" font-size="14.00" fill="#550000">2. Create</text>
<text text-anchor="middle" x="286.282" y="-832.071" font-family="Times,serif" font-size="14.00" fill="#550000">3. RowSpecify DataId type</text>
</g>
<!-- Client&#45;&gt;TableSpecBuilder_B2 -->
<g id="edge12" class="edge"><title>Client&#45;&gt;TableSpecBuilder_B2</title>
<path fill="none" stroke="red" d="M307.499,-925.685C325.547,-913.959 349.958,-894.566 360.782,-870.141 371.352,-846.29 372.96,-742.178 355.782,-690.448 352.258,-679.837 347.159,-669.331 341.345,-659.393"/>
<polygon fill="red" stroke="red" points="344.291,-657.504 336.072,-650.819 338.329,-661.17 344.291,-657.504"/>
<text text-anchor="middle" x="430.782" y="-787.201" font-family="Times,serif" font-size="14.00" fill="#550000">4. ctxAwareValidators</text>
</g>
<!-- Client&#45;&gt;TableSpecB -->
<g id="edge13" class="edge"><title>Client&#45;&gt;TableSpecB</title>
<path fill="none" stroke="red" d="M318.449,-938.91C381.493,-938.516 513.782,-927.745 513.782,-844.271 513.782,-844.271 513.782,-844.271 513.782,-272.404 513.782,-226.737 485.677,-181.176 462.784,-151.638"/>
<polygon fill="red" stroke="red" points="465.462,-149.384 456.493,-143.745 459.989,-153.747 465.462,-149.384"/>
<text text-anchor="middle" x="540.282" y="-591.058" font-family="Times,serif" font-size="14.00" fill="#550000">5. saveFn</text>
</g>
</g>
</svg>
