<?xml version="1.0" encoding="UTF-8" standalone="no"?>
<!DOCTYPE svg PUBLIC "-//W3C//DTD SVG 1.1//EN"
 "http://www.w3.org/Graphics/SVG/1.1/DTD/svg11.dtd">
<!-- Generated by graphviz version 2.36.0 (20140111.2315)
 -->
<!-- Title: G Pages: 1 -->
<svg width="2603pt" height="822pt"
 viewBox="0.00 0.00 2603.00 822.00" xmlns="http://www.w3.org/2000/svg" xmlns:xlink="http://www.w3.org/1999/xlink">
<g id="graph0" class="graph" transform="scale(1 1) rotate(0) translate(4 818)">
<title>G</title>
<polygon fill="white" stroke="none" points="-4,4 -4,-818 2599,-818 2599,4 -4,4"/>
<!-- WantToResolve -->
<g id="node1" class="node"><title>WantToResolve</title>
<ellipse fill="none" stroke="black" cx="1142" cy="-665" rx="96.3112" ry="26.7407"/>
<text text-anchor="middle" x="1142" y="-668.8" font-family="Times,serif" font-size="14.00" fill="#880000">Want to</text>
<text text-anchor="middle" x="1142" y="-653.8" font-family="Times,serif" font-size="14.00" fill="#880000">resolve incompletions</text>
</g>
<!-- GaugeState -->
<g id="node2" class="node"><title>GaugeState</title>
<ellipse fill="none" stroke="black" cx="1831" cy="-665" rx="94.0678" ry="26.7407"/>
<text text-anchor="middle" x="1831" y="-668.8" font-family="Times,serif" font-size="14.00" fill="#880000">Gauge how</text>
<text text-anchor="middle" x="1831" y="-653.8" font-family="Times,serif" font-size="14.00" fill="#880000">(in)complete reqs are</text>
</g>
<!-- WantToResolve&#45;&gt;GaugeState -->
<g id="edge3" class="edge"><title>WantToResolve&#45;&gt;GaugeState</title>
<path fill="none" stroke="black" d="M1238.55,-665C1401.2,-665 1563.84,-665 1726.48,-665"/>
<polygon fill="black" stroke="black" points="1726.69,-668.5 1736.69,-665 1726.69,-661.5 1726.69,-668.5"/>
</g>
<!-- KnowWhy -->
<g id="node13" class="node"><title>KnowWhy</title>
<ellipse fill="none" stroke="black" cx="856" cy="-532" rx="71.127" ry="37.4533"/>
<text text-anchor="middle" x="856" y="-543.3" font-family="Times,serif" font-size="14.00">Need to know</text>
<text text-anchor="middle" x="856" y="-528.3" font-family="Times,serif" font-size="14.00">why something</text>
<text text-anchor="middle" x="856" y="-513.3" font-family="Times,serif" font-size="14.00">is incomplete</text>
</g>
<!-- WantToResolve&#45;&gt;KnowWhy -->
<g id="edge12" class="edge"><title>WantToResolve&#45;&gt;KnowWhy</title>
<path fill="none" stroke="black" d="M1092.85,-641.659C1051.1,-622.658 989.583,-594.616 936,-570 930.251,-567.359 924.272,-564.606 918.288,-561.846"/>
<polygon fill="black" stroke="black" points="919.459,-558.531 908.912,-557.518 916.525,-564.887 919.459,-558.531"/>
</g>
<!-- RemindMyself -->
<g id="node14" class="node"><title>RemindMyself</title>
<ellipse fill="none" stroke="black" cx="1048" cy="-532" rx="102.296" ry="26.7407"/>
<text text-anchor="middle" x="1048" y="-535.8" font-family="Times,serif" font-size="14.00">Want to remind myself</text>
<text text-anchor="middle" x="1048" y="-520.8" font-family="Times,serif" font-size="14.00">to do something</text>
</g>
<!-- WantToResolve&#45;&gt;RemindMyself -->
<g id="edge23" class="edge"><title>WantToResolve&#45;&gt;RemindMyself</title>
<path fill="none" stroke="black" d="M1123.65,-638.431C1108.97,-617.963 1088.24,-589.083 1072.2,-566.724"/>
<polygon fill="black" stroke="black" points="1074.97,-564.589 1066.3,-558.505 1069.29,-568.67 1074.97,-564.589"/>
</g>
<!-- ShareDeps -->
<g id="node15" class="node"><title>ShareDeps</title>
<ellipse fill="none" stroke="black" cx="1235" cy="-532" rx="66.2022" ry="37.4533"/>
<text text-anchor="middle" x="1235" y="-543.3" font-family="Times,serif" font-size="14.00">Communicate</text>
<text text-anchor="middle" x="1235" y="-528.3" font-family="Times,serif" font-size="14.00">dependencies</text>
<text text-anchor="middle" x="1235" y="-513.3" font-family="Times,serif" font-size="14.00">with team</text>
</g>
<!-- WantToResolve&#45;&gt;ShareDeps -->
<g id="edge24" class="edge"><title>WantToResolve&#45;&gt;ShareDeps</title>
<path fill="none" stroke="black" d="M1160.15,-638.431C1172.88,-620.499 1190.2,-596.112 1204.96,-575.308"/>
<polygon fill="black" stroke="black" points="1207.97,-577.12 1210.91,-566.939 1202.26,-573.067 1207.97,-577.12"/>
</g>
<!-- Summary -->
<g id="node31" class="node"><title>Summary</title>
<ellipse fill="#99ee99" stroke="black" cx="1634" cy="-532" rx="68.9457" ry="26.7407"/>
<text text-anchor="middle" x="1634" y="-535.8" font-family="Times,serif" font-size="14.00">View list of all</text>
<text text-anchor="middle" x="1634" y="-520.8" font-family="Times,serif" font-size="14.00">incompletions</text>
</g>
<!-- WantToResolve&#45;&gt;Summary -->
<g id="edge1" class="edge"><title>WantToResolve&#45;&gt;Summary</title>
<path fill="none" stroke="black" d="M1223.76,-650.734C1308.13,-635.812 1442.86,-608.525 1555,-570 1564.77,-566.644 1574.94,-562.45 1584.61,-558.103"/>
<polygon fill="black" stroke="black" points="1586.08,-561.279 1593.69,-553.91 1583.14,-554.924 1586.08,-561.279"/>
</g>
<!-- TasksReqless -->
<g id="node16" class="node"><title>TasksReqless</title>
<ellipse fill="none" stroke="black" cx="1433" cy="-532" rx="113.267" ry="37.4533"/>
<text text-anchor="middle" x="1433" y="-543.3" font-family="Times,serif" font-size="14.00">Some tasks won&#39;t</text>
<text text-anchor="middle" x="1433" y="-528.3" font-family="Times,serif" font-size="14.00">have a specific req</text>
<text text-anchor="middle" x="1433" y="-513.3" font-family="Times,serif" font-size="14.00">associated when recording</text>
</g>
<!-- GaugeState&#45;&gt;TasksReqless -->
<g id="edge25" class="edge"><title>GaugeState&#45;&gt;TasksReqless</title>
<path fill="none" stroke="black" d="M1770.98,-644.246C1704.76,-622.449 1597.52,-587.151 1521.62,-562.169"/>
<polygon fill="black" stroke="black" points="1522.65,-558.823 1512.06,-559.021 1520.46,-565.473 1522.65,-558.823"/>
</g>
<!-- Count -->
<g id="node30" class="node"><title>Count</title>
<ellipse fill="#99ee99" stroke="black" cx="1831" cy="-532" rx="109.402" ry="37.4533"/>
<text text-anchor="middle" x="1831" y="-543.3" font-family="Times,serif" font-size="14.00">Want to know</text>
<text text-anchor="middle" x="1831" y="-528.3" font-family="Times,serif" font-size="14.00">how many incompletions</text>
<text text-anchor="middle" x="1831" y="-513.3" font-family="Times,serif" font-size="14.00">in given scope</text>
</g>
<!-- GaugeState&#45;&gt;Count -->
<g id="edge2" class="edge"><title>GaugeState&#45;&gt;Count</title>
<path fill="none" stroke="black" d="M1831,-638.119C1831,-621.482 1831,-599.384 1831,-579.744"/>
<polygon fill="black" stroke="black" points="1834.5,-579.739 1831,-569.739 1827.5,-579.739 1834.5,-579.739"/>
</g>
<!-- MandatoryFields -->
<g id="node3" class="node"><title>MandatoryFields</title>
<ellipse fill="none" stroke="black" cx="2095" cy="-787" rx="72.2493" ry="26.7407"/>
<text text-anchor="middle" x="2095" y="-790.8" font-family="Times,serif" font-size="14.00">Some req fields</text>
<text text-anchor="middle" x="2095" y="-775.8" font-family="Times,serif" font-size="14.00">are mandatory</text>
</g>
<!-- TODOs -->
<g id="node4" class="node"><title>TODOs</title>
<ellipse fill="none" stroke="black" cx="670" cy="-665" rx="62.3993" ry="37.4533"/>
<text text-anchor="middle" x="670" y="-676.3" font-family="Times,serif" font-size="14.00">Tags such as</text>
<text text-anchor="middle" x="670" y="-661.3" font-family="Times,serif" font-size="14.00">TODO, TBD</text>
<text text-anchor="middle" x="670" y="-646.3" font-family="Times,serif" font-size="14.00">often used</text>
</g>
<!-- TagInFields -->
<g id="node36" class="node"><title>TagInFields</title>
<ellipse fill="#bbbbff" stroke="black" cx="670" cy="-532" rx="96.3112" ry="26.7407"/>
<text text-anchor="middle" x="670" y="-535.8" font-family="Times,serif" font-size="14.00">Store an incompletion</text>
<text text-anchor="middle" x="670" y="-520.8" font-family="Times,serif" font-size="14.00">tag in a req field</text>
</g>
<!-- TODOs&#45;&gt;TagInFields -->
<g id="edge4" class="edge"><title>TODOs&#45;&gt;TagInFields</title>
<path fill="none" stroke="black" d="M670,-627.509C670,-609.283 670,-587.301 670,-569.125"/>
<polygon fill="black" stroke="black" points="673.5,-568.92 670,-558.921 666.5,-568.921 673.5,-568.92"/>
</g>
<!-- VaryingImportance -->
<g id="node5" class="node"><title>VaryingImportance</title>
<ellipse fill="none" stroke="black" cx="2085" cy="-532" rx="87.5215" ry="37.4533"/>
<text text-anchor="middle" x="2085" y="-543.3" font-family="Times,serif" font-size="14.00">Incompletions have</text>
<text text-anchor="middle" x="2085" y="-528.3" font-family="Times,serif" font-size="14.00">different amounts</text>
<text text-anchor="middle" x="2085" y="-513.3" font-family="Times,serif" font-size="14.00">of importance</text>
</g>
<!-- SepByType -->
<g id="node34" class="node"><title>SepByType</title>
<ellipse fill="#99ee99" stroke="black" cx="2077" cy="-420" rx="72.1874" ry="26.7407"/>
<text text-anchor="middle" x="2077" y="-423.8" font-family="Times,serif" font-size="14.00">Seperate results</text>
<text text-anchor="middle" x="2077" y="-408.8" font-family="Times,serif" font-size="14.00">by type</text>
</g>
<!-- VaryingImportance&#45;&gt;SepByType -->
<g id="edge35" class="edge"><title>VaryingImportance&#45;&gt;SepByType</title>
<path fill="none" stroke="black" d="M2082.34,-494.372C2081.46,-482.384 2080.5,-469.08 2079.63,-457.129"/>
<polygon fill="black" stroke="black" points="2083.11,-456.762 2078.89,-447.042 2076.13,-457.27 2083.11,-456.762"/>
</g>
<!-- NeedCtx -->
<g id="node6" class="node"><title>NeedCtx</title>
<ellipse fill="none" stroke="black" cx="1650" cy="-420" rx="107.22" ry="37.4533"/>
<text text-anchor="middle" x="1650" y="-431.3" font-family="Times,serif" font-size="14.00">Hard to</text>
<text text-anchor="middle" x="1650" y="-416.3" font-family="Times,serif" font-size="14.00">understand incompletion</text>
<text text-anchor="middle" x="1650" y="-401.3" font-family="Times,serif" font-size="14.00">without ctx</text>
</g>
<!-- SeeCtx -->
<g id="node33" class="node"><title>SeeCtx</title>
<ellipse fill="#99ee99" stroke="black" cx="1623" cy="-319" rx="51.4931" ry="18"/>
<text text-anchor="middle" x="1623" y="-315.3" font-family="Times,serif" font-size="14.00">See context</text>
</g>
<!-- NeedCtx&#45;&gt;SeeCtx -->
<g id="edge19" class="edge"><title>NeedCtx&#45;&gt;SeeCtx</title>
<path fill="none" stroke="black" d="M1640.02,-382.417C1636.81,-370.646 1633.32,-357.828 1630.33,-346.886"/>
<polygon fill="black" stroke="black" points="1633.66,-345.794 1627.65,-337.067 1626.91,-347.636 1633.66,-345.794"/>
</g>
<!-- TagNotEnough -->
<g id="node7" class="node"><title>TagNotEnough</title>
<ellipse fill="none" stroke="black" cx="670" cy="-420" rx="85.9015" ry="26.7407"/>
<text text-anchor="middle" x="670" y="-423.8" font-family="Times,serif" font-size="14.00">A TODO/TBD tag</text>
<text text-anchor="middle" x="670" y="-408.8" font-family="Times,serif" font-size="14.00">is often not enough</text>
</g>
<!-- SuppText -->
<g id="node35" class="node"><title>SuppText</title>
<ellipse fill="#bbbbff" stroke="black" cx="670" cy="-319" rx="92.4462" ry="26.7407"/>
<text text-anchor="middle" x="670" y="-322.8" font-family="Times,serif" font-size="14.00">Store supplimentary</text>
<text text-anchor="middle" x="670" y="-307.8" font-family="Times,serif" font-size="14.00">text with TODO tags</text>
</g>
<!-- TagNotEnough&#45;&gt;SuppText -->
<g id="edge11" class="edge"><title>TagNotEnough&#45;&gt;SuppText</title>
<path fill="none" stroke="black" d="M670,-392.989C670,-381.823 670,-368.581 670,-356.462"/>
<polygon fill="black" stroke="black" points="673.5,-356.181 670,-346.181 666.5,-356.181 673.5,-356.181"/>
</g>
<!-- ReasonIncompete -->
<g id="node8" class="node"><title>ReasonIncompete</title>
<ellipse fill="none" stroke="black" cx="385" cy="-532" rx="67.2629" ry="26.7407"/>
<text text-anchor="middle" x="385" y="-535.8" font-family="Times,serif" font-size="14.00">Incompletions</text>
<text text-anchor="middle" x="385" y="-520.8" font-family="Times,serif" font-size="14.00">have reasons</text>
</g>
<!-- ReasonIncompete&#45;&gt;TagNotEnough -->
<g id="edge10" class="edge"><title>ReasonIncompete&#45;&gt;TagNotEnough</title>
<path fill="none" stroke="black" d="M432.062,-512.836C479.988,-494.338 554.569,-465.552 607.442,-445.145"/>
<polygon fill="black" stroke="black" points="608.982,-448.302 617.051,-441.436 606.462,-441.772 608.982,-448.302"/>
</g>
<!-- Dunno -->
<g id="node9" class="node"><title>Dunno</title>
<ellipse fill="none" stroke="black" cx="60" cy="-665" rx="60.2186" ry="37.4533"/>
<text text-anchor="middle" x="60" y="-676.3" font-family="Times,serif" font-size="14.00">Unclear how</text>
<text text-anchor="middle" x="60" y="-661.3" font-family="Times,serif" font-size="14.00">to resolve</text>
<text text-anchor="middle" x="60" y="-646.3" font-family="Times,serif" font-size="14.00">something</text>
</g>
<!-- Dunno&#45;&gt;ReasonIncompete -->
<g id="edge6" class="edge"><title>Dunno&#45;&gt;ReasonIncompete</title>
<path fill="none" stroke="black" d="M91.7959,-632.936C103.13,-623.199 116.459,-613.142 130,-606 188.258,-575.272 261.018,-556.092 313.89,-545.149"/>
<polygon fill="black" stroke="black" points="314.747,-548.546 323.855,-543.135 313.36,-541.685 314.747,-548.546"/>
</g>
<!-- IntDep -->
<g id="node10" class="node"><title>IntDep</title>
<ellipse fill="none" stroke="black" cx="223" cy="-665" rx="84.2187" ry="37.4533"/>
<text text-anchor="middle" x="223" y="-676.3" font-family="Times,serif" font-size="14.00">Waiting on</text>
<text text-anchor="middle" x="223" y="-661.3" font-family="Times,serif" font-size="14.00">author (time,</text>
<text text-anchor="middle" x="223" y="-646.3" font-family="Times,serif" font-size="14.00">attention, analysis)</text>
</g>
<!-- IntDep&#45;&gt;ReasonIncompete -->
<g id="edge7" class="edge"><title>IntDep&#45;&gt;ReasonIncompete</title>
<path fill="none" stroke="black" d="M263.045,-631.618C289.085,-610.561 322.789,-583.306 348.164,-562.787"/>
<polygon fill="black" stroke="black" points="350.515,-565.387 356.09,-556.378 346.114,-559.944 350.515,-565.387"/>
</g>
<!-- ExtDep -->
<g id="node11" class="node"><title>ExtDep</title>
<ellipse fill="none" stroke="black" cx="385" cy="-665" rx="60.1562" ry="48.1667"/>
<text text-anchor="middle" x="385" y="-683.8" font-family="Times,serif" font-size="14.00">Waiting on</text>
<text text-anchor="middle" x="385" y="-668.8" font-family="Times,serif" font-size="14.00">an external</text>
<text text-anchor="middle" x="385" y="-653.8" font-family="Times,serif" font-size="14.00">dependency,</text>
<text text-anchor="middle" x="385" y="-638.8" font-family="Times,serif" font-size="14.00">event, info</text>
</g>
<!-- ExtDep&#45;&gt;ReasonIncompete -->
<g id="edge8" class="edge"><title>ExtDep&#45;&gt;ReasonIncompete</title>
<path fill="none" stroke="black" d="M385,-616.706C385,-601.019 385,-583.819 385,-569.112"/>
<polygon fill="black" stroke="black" points="388.5,-568.901 385,-558.901 381.5,-568.901 388.5,-568.901"/>
</g>
<!-- Effect -->
<g id="node12" class="node"><title>Effect</title>
<ellipse fill="none" stroke="black" cx="526" cy="-665" rx="62.3993" ry="58.8803"/>
<text text-anchor="middle" x="526" y="-691.3" font-family="Times,serif" font-size="14.00">Incompletion</text>
<text text-anchor="middle" x="526" y="-676.3" font-family="Times,serif" font-size="14.00">caused by</text>
<text text-anchor="middle" x="526" y="-661.3" font-family="Times,serif" font-size="14.00">change to</text>
<text text-anchor="middle" x="526" y="-646.3" font-family="Times,serif" font-size="14.00">related data</text>
<text text-anchor="middle" x="526" y="-631.3" font-family="Times,serif" font-size="14.00">(eg. del UC)</text>
</g>
<!-- Effect&#45;&gt;ReasonIncompete -->
<g id="edge9" class="edge"><title>Effect&#45;&gt;ReasonIncompete</title>
<path fill="none" stroke="black" d="M481.774,-622.91C461.33,-603.917 437.448,-581.728 418.523,-564.146"/>
<polygon fill="black" stroke="black" points="420.714,-561.403 411.005,-557.161 415.949,-566.532 420.714,-561.403"/>
</g>
<!-- KnowWhy&#45;&gt;TagNotEnough -->
<g id="edge13" class="edge"><title>KnowWhy&#45;&gt;TagNotEnough</title>
<path fill="none" stroke="black" d="M809.544,-503.526C781.581,-486.989 746.054,-465.978 717.846,-449.296"/>
<polygon fill="black" stroke="black" points="719.352,-446.121 708.963,-444.043 715.789,-452.146 719.352,-446.121"/>
</g>
<!-- FreeNotes -->
<g id="node37" class="node"><title>FreeNotes</title>
<ellipse fill="#bbbbff" stroke="black" cx="1235" cy="-420" rx="124.176" ry="37.4533"/>
<text text-anchor="middle" x="1235" y="-431.3" font-family="Times,serif" font-size="14.00">Store free&#45;text incompletions</text>
<text text-anchor="middle" x="1235" y="-416.3" font-family="Times,serif" font-size="14.00">without associating</text>
<text text-anchor="middle" x="1235" y="-401.3" font-family="Times,serif" font-size="14.00">with a req</text>
</g>
<!-- RemindMyself&#45;&gt;FreeNotes -->
<g id="edge20" class="edge"><title>RemindMyself&#45;&gt;FreeNotes</title>
<path fill="none" stroke="black" d="M1088.58,-507.132C1112.61,-492.992 1143.61,-474.758 1170.89,-458.71"/>
<polygon fill="black" stroke="black" points="1172.76,-461.672 1179.61,-453.585 1169.21,-455.638 1172.76,-461.672"/>
</g>
<!-- ShareDeps&#45;&gt;FreeNotes -->
<g id="edge21" class="edge"><title>ShareDeps&#45;&gt;FreeNotes</title>
<path fill="none" stroke="black" d="M1235,-494.372C1235,-485.927 1235,-476.829 1235,-468.011"/>
<polygon fill="black" stroke="black" points="1238.5,-467.843 1235,-457.844 1231.5,-467.844 1238.5,-467.843"/>
</g>
<!-- TasksReqless&#45;&gt;FreeNotes -->
<g id="edge22" class="edge"><title>TasksReqless&#45;&gt;FreeNotes</title>
<path fill="none" stroke="black" d="M1376.26,-499.478C1353.06,-486.587 1326.04,-471.577 1301.88,-458.156"/>
<polygon fill="black" stroke="black" points="1303.56,-455.087 1293.12,-453.29 1300.16,-461.207 1303.56,-455.087"/>
</g>
<!-- AssessSocial -->
<g id="node17" class="node"><title>AssessSocial</title>
<ellipse fill="none" stroke="black" cx="1730" cy="-787" rx="109.402" ry="26.7407"/>
<text text-anchor="middle" x="1730" y="-790.8" font-family="Times,serif" font-size="14.00">Assess whether complete</text>
<text text-anchor="middle" x="1730" y="-775.8" font-family="Times,serif" font-size="14.00">enough to socialise</text>
</g>
<!-- AssessSocial&#45;&gt;GaugeState -->
<g id="edge16" class="edge"><title>AssessSocial&#45;&gt;GaugeState</title>
<path fill="none" stroke="black" d="M1751.42,-760.551C1766.48,-742.653 1786.79,-718.532 1803.11,-699.133"/>
<polygon fill="black" stroke="black" points="1805.85,-701.317 1809.61,-691.412 1800.49,-696.809 1805.85,-701.317"/>
</g>
<!-- AssessRemainingWork -->
<g id="node18" class="node"><title>AssessRemainingWork</title>
<ellipse fill="none" stroke="black" cx="1931" cy="-787" rx="73.3085" ry="26.7407"/>
<text text-anchor="middle" x="1931" y="-790.8" font-family="Times,serif" font-size="14.00">Assess</text>
<text text-anchor="middle" x="1931" y="-775.8" font-family="Times,serif" font-size="14.00">remaining work</text>
</g>
<!-- AssessRemainingWork&#45;&gt;GaugeState -->
<g id="edge17" class="edge"><title>AssessRemainingWork&#45;&gt;GaugeState</title>
<path fill="none" stroke="black" d="M1910.28,-761.136C1895.3,-743.156 1874.9,-718.675 1858.54,-699.05"/>
<polygon fill="black" stroke="black" points="1861.13,-696.687 1852.04,-691.245 1855.75,-701.168 1861.13,-696.687"/>
</g>
<!-- CanResolveOne -->
<g id="node19" class="node"><title>CanResolveOne</title>
<ellipse fill="none" stroke="black" cx="1607" cy="-229" rx="85.9015" ry="26.7407"/>
<text text-anchor="middle" x="1607" y="-232.8" font-family="Times,serif" font-size="14.00">Realise can resolve</text>
<text text-anchor="middle" x="1607" y="-217.8" font-family="Times,serif" font-size="14.00">an incompletion</text>
</g>
<!-- ResolveOne -->
<g id="node38" class="node"><title>ResolveOne</title>
<ellipse fill="#bbbbff" stroke="black" cx="1607" cy="-128" rx="82.0366" ry="37.4533"/>
<text text-anchor="middle" x="1607" y="-139.3" font-family="Times,serif" font-size="14.00">Edit field</text>
<text text-anchor="middle" x="1607" y="-124.3" font-family="Times,serif" font-size="14.00">with incompletion</text>
<text text-anchor="middle" x="1607" y="-109.3" font-family="Times,serif" font-size="14.00">and resolve</text>
</g>
<!-- CanResolveOne&#45;&gt;ResolveOne -->
<g id="edge28" class="edge"><title>CanResolveOne&#45;&gt;ResolveOne</title>
<path fill="none" stroke="black" d="M1607,-201.989C1607,-193.914 1607,-184.753 1607,-175.716"/>
<polygon fill="black" stroke="black" points="1610.5,-175.631 1607,-165.631 1603.5,-175.631 1610.5,-175.631"/>
</g>
<!-- WantToResolveNext -->
<g id="node20" class="node"><title>WantToResolveNext</title>
<ellipse fill="none" stroke="black" cx="1502" cy="-27" rx="67.3243" ry="26.7407"/>
<text text-anchor="middle" x="1502" y="-30.8" font-family="Times,serif" font-size="14.00">Want to</text>
<text text-anchor="middle" x="1502" y="-15.8" font-family="Times,serif" font-size="14.00">keep resolving</text>
</g>
<!-- WantToResolveNext&#45;&gt;Summary -->
<g id="edge30" class="edge"><title>WantToResolveNext&#45;&gt;Summary</title>
<path fill="none" stroke="black" d="M1496.64,-54.0782C1489.29,-92.132 1477,-165.189 1477,-228 1477,-320 1477,-320 1477,-320 1477,-384.111 1480.18,-406.975 1519,-458 1534.66,-478.586 1557.93,-494.907 1579.45,-506.849"/>
<polygon fill="black" stroke="black" points="1578.07,-510.079 1588.54,-511.699 1581.36,-503.903 1578.07,-510.079"/>
</g>
<!-- FinishedResolving -->
<g id="node21" class="node"><title>FinishedResolving</title>
<ellipse fill="none" stroke="black" cx="1688" cy="-27" rx="76.0649" ry="18"/>
<text text-anchor="middle" x="1688" y="-23.3" font-family="Times,serif" font-size="14.00">Finished resolving</text>
</g>
<!-- FinishedResolving&#45;&gt;GaugeState -->
<g id="edge32" class="edge"><title>FinishedResolving&#45;&gt;GaugeState</title>
<path fill="none" stroke="black" d="M1740.85,-40.0556C1822.25,-62.1067 1969,-117.223 1969,-228 1969,-421 1969,-421 1969,-421 1969,-487.816 1981.95,-511.876 1949,-570 1933.52,-597.311 1906.66,-619.655 1882.48,-635.695"/>
<polygon fill="black" stroke="black" points="1880.58,-632.754 1874.06,-641.104 1884.37,-638.644 1880.58,-632.754"/>
</g>
<!-- WhileWriting -->
<g id="node22" class="node"><title>WhileWriting</title>
<ellipse fill="none" stroke="black" cx="834" cy="-665" rx="83.1581" ry="37.4533"/>
<text text-anchor="middle" x="834" y="-676.3" font-family="Times,serif" font-size="14.00">Discover a</text>
<text text-anchor="middle" x="834" y="-661.3" font-family="Times,serif" font-size="14.00">dependency whilst</text>
<text text-anchor="middle" x="834" y="-646.3" font-family="Times,serif" font-size="14.00">writing a req</text>
</g>
<!-- WhileWriting&#45;&gt;TagInFields -->
<g id="edge33" class="edge"><title>WhileWriting&#45;&gt;TagInFields</title>
<path fill="none" stroke="black" d="M793.881,-631.954C767.954,-611.244 734.391,-584.435 708.741,-563.946"/>
<polygon fill="black" stroke="black" points="710.709,-561.038 700.711,-557.531 706.34,-566.507 710.709,-561.038"/>
</g>
<!-- ArbTypes -->
<g id="node23" class="node"><title>ArbTypes</title>
<ellipse fill="none" stroke="black" cx="2282" cy="-532" rx="85.9015" ry="26.7407"/>
<text text-anchor="middle" x="2282" y="-535.8" font-family="Times,serif" font-size="14.00">Incompletion types</text>
<text text-anchor="middle" x="2282" y="-520.8" font-family="Times,serif" font-size="14.00">are arbitrary</text>
</g>
<!-- MngTypes -->
<g id="node24" class="node"><title>MngTypes</title>
<ellipse fill="none" stroke="black" cx="2292" cy="-420" rx="63.5411" ry="18"/>
<text text-anchor="middle" x="2292" y="-416.3" font-family="Times,serif" font-size="14.00">Manage Types</text>
</g>
<!-- ArbTypes&#45;&gt;MngTypes -->
<g id="edge38" class="edge"><title>ArbTypes&#45;&gt;MngTypes</title>
<path fill="none" stroke="black" d="M2284.37,-504.932C2285.92,-487.885 2287.94,-465.655 2289.51,-448.356"/>
<polygon fill="black" stroke="black" points="2293.01,-448.588 2290.43,-438.312 2286.04,-447.954 2293.01,-448.588"/>
</g>
<!-- ArbTypes&#45;&gt;SepByType -->
<g id="edge34" class="edge"><title>ArbTypes&#45;&gt;SepByType</title>
<path fill="none" stroke="black" d="M2240.02,-508.474C2207.01,-490.761 2160.95,-466.045 2126.21,-447.403"/>
<polygon fill="black" stroke="black" points="2127.65,-444.204 2117.18,-442.56 2124.34,-450.372 2127.65,-444.204"/>
</g>
<!-- TypeC -->
<g id="node25" class="node"><title>TypeC</title>
<ellipse fill="none" stroke="black" cx="2051" cy="-319" rx="53.4184" ry="18"/>
<text text-anchor="middle" x="2051" y="-315.3" font-family="Times,serif" font-size="14.00">Create Type</text>
</g>
<!-- MngTypes&#45;&gt;TypeC -->
<g id="edge39" class="edge"><title>MngTypes&#45;&gt;TypeC</title>
<path fill="none" stroke="black" d="M2257.53,-404.892C2221.67,-390.205 2163.89,-366.523 2114,-346 2107.15,-343.184 2099.89,-340.191 2092.83,-337.276"/>
<polygon fill="black" stroke="black" points="2093.95,-333.953 2083.37,-333.374 2091.28,-340.424 2093.95,-333.953"/>
</g>
<!-- TypeR -->
<g id="node26" class="node"><title>TypeR</title>
<ellipse fill="none" stroke="black" cx="2172" cy="-319" rx="49.0941" ry="18"/>
<text text-anchor="middle" x="2172" y="-315.3" font-family="Times,serif" font-size="14.00">Read Type</text>
</g>
<!-- MngTypes&#45;&gt;TypeR -->
<g id="edge40" class="edge"><title>MngTypes&#45;&gt;TypeR</title>
<path fill="none" stroke="black" d="M2272.45,-402.874C2252.46,-386.38 2221.25,-360.633 2198.93,-342.215"/>
<polygon fill="black" stroke="black" points="2201.08,-339.456 2191.14,-335.792 2196.63,-344.856 2201.08,-339.456"/>
</g>
<!-- TypeU -->
<g id="node27" class="node"><title>TypeU</title>
<ellipse fill="none" stroke="black" cx="2297" cy="-319" rx="57.2688" ry="18"/>
<text text-anchor="middle" x="2297" y="-315.3" font-family="Times,serif" font-size="14.00">Modify Type</text>
</g>
<!-- MngTypes&#45;&gt;TypeU -->
<g id="edge41" class="edge"><title>MngTypes&#45;&gt;TypeU</title>
<path fill="none" stroke="black" d="M2292.87,-401.756C2293.63,-386.708 2294.75,-364.616 2295.63,-347.19"/>
<polygon fill="black" stroke="black" points="2299.13,-347.211 2296.14,-337.047 2292.14,-346.858 2299.13,-347.211"/>
</g>
<!-- TypeD -->
<g id="node28" class="node"><title>TypeD</title>
<ellipse fill="none" stroke="black" cx="2427" cy="-319" rx="53.4184" ry="18"/>
<text text-anchor="middle" x="2427" y="-315.3" font-family="Times,serif" font-size="14.00">Delete Type</text>
</g>
<!-- MngTypes&#45;&gt;TypeD -->
<g id="edge42" class="edge"><title>MngTypes&#45;&gt;TypeD</title>
<path fill="none" stroke="black" d="M2313.99,-402.874C2336.68,-386.235 2372.21,-360.18 2397.37,-341.732"/>
<polygon fill="black" stroke="black" points="2399.47,-344.528 2405.47,-335.792 2395.33,-338.883 2399.47,-344.528"/>
</g>
<!-- TypeL -->
<g id="node29" class="node"><title>TypeL</title>
<ellipse fill="none" stroke="black" cx="2547" cy="-319" rx="48.1437" ry="18"/>
<text text-anchor="middle" x="2547" y="-315.3" font-family="Times,serif" font-size="14.00">List Types</text>
</g>
<!-- MngTypes&#45;&gt;TypeL -->
<g id="edge43" class="edge"><title>MngTypes&#45;&gt;TypeL</title>
<path fill="none" stroke="black" d="M2330.42,-405.616C2370.34,-391.512 2434.48,-368.294 2489,-346 2495.38,-343.39 2502.1,-340.506 2508.62,-337.636"/>
<polygon fill="black" stroke="black" points="2510.25,-340.743 2517.95,-333.475 2507.4,-334.349 2510.25,-340.743"/>
</g>
<!-- FilterScope -->
<g id="node32" class="node"><title>FilterScope</title>
<ellipse fill="#99ee99" stroke="black" cx="1850" cy="-420" rx="74.4303" ry="26.7407"/>
<text text-anchor="middle" x="1850" y="-423.8" font-family="Times,serif" font-size="14.00">Apply/remove</text>
<text text-anchor="middle" x="1850" y="-408.8" font-family="Times,serif" font-size="14.00">filter(s) to scope</text>
</g>
<!-- Count&#45;&gt;FilterScope -->
<g id="edge14" class="edge"><title>Count&#45;&gt;FilterScope</title>
<path fill="none" stroke="black" d="M1838.74,-486.214C1841.04,-472.893 1843.48,-458.745 1845.5,-447.042"/>
<ellipse fill="black" stroke="black" cx="1838.01" cy="-490.43" rx="4.00001" ry="4.00001"/>
</g>
<!-- Count&#45;&gt;SepByType -->
<g id="edge36" class="edge"><title>Count&#45;&gt;SepByType</title>
<path fill="none" stroke="black" d="M1903.67,-498.506C1945.29,-479.895 1996.2,-457.128 2032.05,-441.1"/>
<ellipse fill="black" stroke="black" cx="1899.93" cy="-500.178" rx="4.00002" ry="4.00002"/>
</g>
<!-- Summary&#45;&gt;NeedCtx -->
<g id="edge18" class="edge"><title>Summary&#45;&gt;NeedCtx</title>
<path fill="none" stroke="black" d="M1637.79,-504.932C1639.41,-493.802 1641.35,-480.464 1643.2,-467.731"/>
<polygon fill="black" stroke="black" points="1646.69,-468.102 1644.66,-457.702 1639.76,-467.095 1646.69,-468.102"/>
</g>
<!-- Summary&#45;&gt;CanResolveOne -->
<g id="edge26" class="edge"><title>Summary&#45;&gt;CanResolveOne</title>
<path fill="none" stroke="black" d="M1590.25,-511.152C1569.15,-499.054 1545.88,-481.379 1534,-458 1500.84,-392.73 1547.87,-309.335 1580.44,-263.66"/>
<polygon fill="black" stroke="black" points="1583.47,-265.455 1586.53,-255.314 1577.81,-261.328 1583.47,-265.455"/>
</g>
<!-- Summary&#45;&gt;FilterScope -->
<g id="edge15" class="edge"><title>Summary&#45;&gt;FilterScope</title>
<path fill="none" stroke="black" d="M1682.24,-506.431C1720.06,-487.176 1772.13,-460.658 1808.18,-442.297"/>
<ellipse fill="black" stroke="black" cx="1678.45" cy="-508.365" rx="4.00002" ry="4.00002"/>
</g>
<!-- Summary&#45;&gt;SepByType -->
<g id="edge37" class="edge"><title>Summary&#45;&gt;SepByType</title>
<path fill="none" stroke="black" d="M1680.48,-506.345C1690.66,-501.692 1701.52,-497.266 1712,-494 1807.01,-464.382 1835.6,-478.404 1933,-458 1962.05,-451.914 1994.06,-443.829 2020.51,-436.77"/>
<ellipse fill="black" stroke="black" cx="1676.83" cy="-508.06" rx="4.00002" ry="4.00002"/>
</g>
<!-- SeeCtx&#45;&gt;CanResolveOne -->
<g id="edge27" class="edge"><title>SeeCtx&#45;&gt;CanResolveOne</title>
<path fill="none" stroke="black" d="M1619.84,-300.614C1618.05,-290.774 1615.74,-278.089 1613.58,-266.191"/>
<polygon fill="black" stroke="black" points="1616.97,-265.242 1611.73,-256.029 1610.08,-266.494 1616.97,-265.242"/>
</g>
<!-- TagInFields&#45;&gt;TagNotEnough -->
<g id="edge5" class="edge"><title>TagInFields&#45;&gt;TagNotEnough</title>
<path fill="none" stroke="black" d="M670,-504.932C670,-490.684 670,-472.817 670,-457.233"/>
<polygon fill="black" stroke="black" points="673.5,-456.881 670,-446.881 666.5,-456.881 673.5,-456.881"/>
</g>
<!-- ResolveOne&#45;&gt;WantToResolveNext -->
<g id="edge29" class="edge"><title>ResolveOne&#45;&gt;WantToResolveNext</title>
<path fill="none" stroke="black" d="M1572.04,-94.0344C1560.1,-82.776 1546.79,-70.2283 1535.01,-59.1199"/>
<polygon fill="black" stroke="black" points="1537.19,-56.3695 1527.51,-52.056 1532.39,-61.4627 1537.19,-56.3695"/>
</g>
<!-- ResolveOne&#45;&gt;FinishedResolving -->
<g id="edge31" class="edge"><title>ResolveOne&#45;&gt;FinishedResolving</title>
<path fill="none" stroke="black" d="M1635.1,-92.6524C1645.87,-79.4935 1657.93,-64.7536 1667.81,-52.6747"/>
<polygon fill="black" stroke="black" points="1670.64,-54.7456 1674.26,-44.7896 1665.22,-50.3129 1670.64,-54.7456"/>
</g>
</g>
</svg>
