<?xml version="1.0" encoding="UTF-8" standalone="no"?>
<!DOCTYPE svg PUBLIC "-//W3C//DTD SVG 1.1//EN"
 "http://www.w3.org/Graphics/SVG/1.1/DTD/svg11.dtd">
<!-- Generated by graphviz version 2.36.0 (20140111.2315)
 -->
<!-- Title: G Pages: 1 -->
<svg width="644pt" height="316pt"
 viewBox="0.00 0.00 644.00 316.00" xmlns="http://www.w3.org/2000/svg" xmlns:xlink="http://www.w3.org/1999/xlink">
<g id="graph0" class="graph" transform="scale(1 1) rotate(0) translate(4 312)">
<title>G</title>
<polygon fill="white" stroke="none" points="-4,4 -4,-312 640,-312 640,4 -4,4"/>
<!-- Overview -->
<g id="node1" class="node"><title>Overview</title>
<ellipse fill="#ddeeff" stroke="black" cx="242" cy="-260" rx="113.267" ry="48.1667"/>
<text text-anchor="middle" x="242" y="-278.8" font-family="Times,serif" font-size="14.00">Need a summary to</text>
<text text-anchor="middle" x="242" y="-263.8" font-family="Times,serif" font-size="14.00">understand how groupings</text>
<text text-anchor="middle" x="242" y="-248.8" font-family="Times,serif" font-size="14.00">are distributed across</text>
<text text-anchor="middle" x="242" y="-233.8" font-family="Times,serif" font-size="14.00">all requirements.</text>
</g>
<!-- SeeMissing -->
<g id="node2" class="node"><title>SeeMissing</title>
<ellipse fill="#ddeeff" stroke="black" cx="514" cy="-260" rx="121.995" ry="48.1667"/>
<text text-anchor="middle" x="514" y="-278.8" font-family="Times,serif" font-size="14.00">Count/see UCs that</text>
<text text-anchor="middle" x="514" y="-263.8" font-family="Times,serif" font-size="14.00">don&#39;t have any grouping</text>
<text text-anchor="middle" x="514" y="-248.8" font-family="Times,serif" font-size="14.00">of the given tree</text>
<text text-anchor="middle" x="514" y="-233.8" font-family="Times,serif" font-size="14.00">(eg. UCs without a priority.)</text>
</g>
<!-- Overview&#45;&gt;SeeMissing -->
<g id="edge1" class="edge"><title>Overview&#45;&gt;SeeMissing</title>
<path fill="none" stroke="black" d="M363.814,-260C373.061,-260 382.308,-260 391.555,-260"/>
<ellipse fill="black" stroke="black" cx="359.688" cy="-260" rx="4" ry="4"/>
</g>
<!-- BulkApply -->
<g id="node3" class="node"><title>BulkApply</title>
<ellipse fill="#bbbbff" stroke="black" cx="124" cy="-133" rx="124.176" ry="26.7407"/>
<text text-anchor="middle" x="124" y="-136.8" font-family="Times,serif" font-size="14.00">Want to assign groupings to</text>
<text text-anchor="middle" x="124" y="-121.8" font-family="Times,serif" font-size="14.00">multiple UCs simultaneously</text>
</g>
<!-- Overview&#45;&gt;BulkApply -->
<g id="edge2" class="edge"><title>Overview&#45;&gt;BulkApply</title>
<path fill="none" stroke="black" d="M142.081,-236.995C120.412,-227.415 100.088,-213.681 87,-194 81.3509,-185.505 83.3039,-176.181 88.5071,-167.468"/>
<polygon fill="black" stroke="black" points="91.3497,-169.51 94.3495,-159.349 85.6678,-165.421 91.3497,-169.51"/>
<text text-anchor="middle" x="127" y="-182.3" font-family="Times,serif" font-size="14.00">Alloc problem</text>
</g>
<!-- Cfg -->
<g id="node4" class="node"><title>Cfg</title>
<ellipse fill="#bbbbff" stroke="black" cx="250" cy="-27" rx="51.99" ry="26.7407"/>
<text text-anchor="middle" x="250" y="-30.8" font-family="Times,serif" font-size="14.00">Configure</text>
<text text-anchor="middle" x="250" y="-15.8" font-family="Times,serif" font-size="14.00">Groupings</text>
</g>
<!-- Overview&#45;&gt;Cfg -->
<g id="edge3" class="edge"><title>Overview&#45;&gt;Cfg</title>
<path fill="none" stroke="black" d="M269.919,-213.207C272.765,-206.931 275.249,-200.431 277,-194 291.252,-141.654 297.389,-123.717 281,-72 279.73,-67.9915 277.948,-64.0326 275.874,-60.2299"/>
<polygon fill="black" stroke="black" points="278.836,-58.3646 270.608,-51.6901 272.878,-62.0389 278.836,-58.3646"/>
<text text-anchor="middle" x="326" y="-129.3" font-family="Times,serif" font-size="14.00">Cfg problem</text>
</g>
<!-- BulkApply&#45;&gt;Overview -->
<g id="edge5" class="edge"><title>BulkApply&#45;&gt;Overview</title>
<path fill="none" stroke="black" d="M149.129,-159.48C155.023,-165.521 161.258,-171.964 167,-178 175.947,-187.405 185.41,-197.504 194.49,-207.271"/>
<polygon fill="black" stroke="black" points="191.976,-209.708 201.343,-214.658 197.108,-204.947 191.976,-209.708"/>
<text text-anchor="middle" x="227.5" y="-182.3" font-family="Times,serif" font-size="14.00">Continue review</text>
</g>
<!-- BulkApply&#45;&gt;Cfg -->
<g id="edge4" class="edge"><title>BulkApply&#45;&gt;Cfg</title>
<path fill="none" stroke="black" d="M111.646,-106.084C108.126,-94.6981 106.918,-81.7351 114,-72 131.033,-48.5869 160.789,-37.3757 188.133,-32.1075"/>
<polygon fill="black" stroke="black" points="188.795,-35.5452 198.069,-30.4238 187.625,-28.6436 188.795,-35.5452"/>
<text text-anchor="middle" x="149" y="-76.3" font-family="Times,serif" font-size="14.00">Cfg problem</text>
</g>
<!-- Cfg&#45;&gt;Overview -->
<g id="edge7" class="edge"><title>Cfg&#45;&gt;Overview</title>
<path fill="none" stroke="black" d="M291.124,-43.8267C317.442,-56.3649 349.465,-76.6916 365,-106 376.24,-127.205 375.364,-138.353 365,-160 354.59,-181.742 336.818,-200.228 317.971,-215.13"/>
<polygon fill="black" stroke="black" points="315.696,-212.463 309.846,-221.297 319.927,-218.039 315.696,-212.463"/>
<text text-anchor="middle" x="424" y="-136.8" font-family="Times,serif" font-size="14.00">Decide cfg change</text>
<text text-anchor="middle" x="424" y="-121.8" font-family="Times,serif" font-size="14.00">based on usage</text>
</g>
<!-- Cfg&#45;&gt;BulkApply -->
<g id="edge6" class="edge"><title>Cfg&#45;&gt;BulkApply</title>
<path fill="none" stroke="black" d="M225.784,-51.1385C213.532,-62.5524 198.267,-76.3372 184,-88 178.759,-92.2844 173.149,-96.6585 167.541,-100.906"/>
<polygon fill="black" stroke="black" points="165.284,-98.2234 159.37,-107.014 169.475,-103.83 165.284,-98.2234"/>
<text text-anchor="middle" x="240" y="-76.3" font-family="Times,serif" font-size="14.00">Apply new G</text>
</g>
</g>
</svg>
