<?xml version="1.0" encoding="UTF-8" standalone="no"?>
<!DOCTYPE svg PUBLIC "-//W3C//DTD SVG 1.1//EN"
 "http://www.w3.org/Graphics/SVG/1.1/DTD/svg11.dtd">
<!-- Generated by graphviz version 2.36.0 (20140111.2315)
 -->
<!-- Title: G Pages: 1 -->
<svg width="1564pt" height="980pt"
 viewBox="0.00 0.00 1564.00 980.49" xmlns="http://www.w3.org/2000/svg" xmlns:xlink="http://www.w3.org/1999/xlink">
<g id="graph0" class="graph" transform="scale(1 1) rotate(0) translate(4 976.489)">
<title>G</title>
<polygon fill="white" stroke="none" points="-4,4 -4,-976.489 1560,-976.489 1560,4 -4,4"/>
<!-- Interest -->
<g id="node1" class="node"><title>Interest</title>
<ellipse fill="none" stroke="black" cx="507" cy="-906" rx="91.3863" ry="37.4533"/>
<text text-anchor="middle" x="507" y="-917.3" font-family="Times,serif" font-size="14.00" fill="#880000">I&#39;m only interested</text>
<text text-anchor="middle" x="507" y="-902.3" font-family="Times,serif" font-size="14.00" fill="#880000">in a particular subset</text>
<text text-anchor="middle" x="507" y="-887.3" font-family="Times,serif" font-size="14.00" fill="#880000">of reqs right now</text>
</g>
<!-- Filter -->
<g id="node14" class="node"><title>Filter</title>
<ellipse fill="#ddeeff" stroke="black" cx="499" cy="-805" rx="81.3646" ry="18"/>
<text text-anchor="middle" x="499" y="-801.3" font-family="Times,serif" font-size="14.00">Filter by groupings.</text>
</g>
<!-- Interest&#45;&gt;Filter -->
<g id="edge2" class="edge"><title>Interest&#45;&gt;Filter</title>
<path fill="none" stroke="black" d="M504.044,-868.417C503.102,-856.768 502.078,-844.092 501.2,-833.225"/>
<polygon fill="black" stroke="black" points="504.673,-832.753 500.379,-823.067 497.696,-833.317 504.673,-832.753"/>
</g>
<!-- Store -->
<g id="node20" class="node"><title>Store</title>
<ellipse fill="#bbbbff" stroke="black" cx="754" cy="-805" rx="100.611" ry="18"/>
<text text-anchor="middle" x="754" y="-801.3" font-family="Times,serif" font-size="14.00">Need to record groupings</text>
</g>
<!-- Interest&#45;&gt;Store -->
<g id="edge3" class="edge"><title>Interest&#45;&gt;Store</title>
<path fill="none" stroke="black" d="M571.252,-879.247C613.155,-862.452 666.985,-840.876 705.346,-825.501"/>
<polygon fill="black" stroke="black" points="706.769,-828.701 714.749,-821.732 704.165,-822.204 706.769,-828.701"/>
</g>
<!-- Overwhelming -->
<g id="node2" class="node"><title>Overwhelming</title>
<ellipse fill="none" stroke="black" cx="725" cy="-906" rx="101.174" ry="26.7407"/>
<text text-anchor="middle" x="725" y="-909.8" font-family="Times,serif" font-size="14.00" fill="#880000">Overwhelming to view</text>
<text text-anchor="middle" x="725" y="-894.8" font-family="Times,serif" font-size="14.00" fill="#880000">all reqs as flat list.</text>
</g>
<!-- Overwhelming&#45;&gt;Filter -->
<g id="edge4" class="edge"><title>Overwhelming&#45;&gt;Filter</title>
<path fill="none" stroke="black" d="M673.999,-882.659C634.634,-865.415 580.729,-841.801 543.187,-825.356"/>
<polygon fill="black" stroke="black" points="544.578,-822.145 534.014,-821.338 541.77,-828.556 544.578,-822.145"/>
</g>
<!-- Overwhelming&#45;&gt;Store -->
<g id="edge5" class="edge"><title>Overwhelming&#45;&gt;Store</title>
<path fill="none" stroke="black" d="M732.619,-878.989C736.779,-864.79 741.921,-847.235 746.12,-832.9"/>
<polygon fill="black" stroke="black" points="749.531,-833.705 748.984,-823.124 742.814,-831.737 749.531,-833.705"/>
</g>
<!-- RWM -->
<g id="node3" class="node"><title>RWM</title>
<ellipse fill="none" stroke="black" cx="1043" cy="-906" rx="109.402" ry="37.4533"/>
<text text-anchor="middle" x="1043" y="-917.3" font-family="Times,serif" font-size="14.00" fill="#880000">Groupings can convey</text>
<text text-anchor="middle" x="1043" y="-902.3" font-family="Times,serif" font-size="14.00" fill="#880000">real&#45;world properties and</text>
<text text-anchor="middle" x="1043" y="-887.3" font-family="Times,serif" font-size="14.00" fill="#880000">capture real requirements</text>
</g>
<!-- RWM&#45;&gt;Interest -->
<g id="edge1" class="edge"><title>RWM&#45;&gt;Interest</title>
<path fill="none" stroke="black" d="M965.802,-932.59C881.168,-957.98 741.732,-988.723 624,-962 605.019,-957.691 585.517,-949.909 568.011,-941.489"/>
<polygon fill="black" stroke="black" points="569.565,-938.353 559.051,-937.043 566.453,-944.623 569.565,-938.353"/>
</g>
<!-- Fickle -->
<g id="node5" class="node"><title>Fickle</title>
<ellipse fill="none" stroke="black" cx="1182" cy="-704" rx="104.477" ry="26.7407"/>
<text text-anchor="middle" x="1182" y="-707.8" font-family="Times,serif" font-size="14.00">Some groupings are</text>
<text text-anchor="middle" x="1182" y="-692.8" font-family="Times,serif" font-size="14.00">fickle and change often.</text>
</g>
<!-- RWM&#45;&gt;Fickle -->
<g id="edge13" class="edge"><title>RWM&#45;&gt;Fickle</title>
<path fill="none" stroke="black" d="M1097,-873.27C1112.64,-861.912 1128.57,-847.924 1140,-832 1159.57,-804.731 1170.43,-767.771 1176.18,-740.755"/>
<polygon fill="black" stroke="black" points="1179.61,-741.42 1178.14,-730.929 1172.75,-740.051 1179.61,-741.42"/>
</g>
<!-- Planning -->
<g id="node6" class="node"><title>Planning</title>
<ellipse fill="none" stroke="black" cx="1043" cy="-805" rx="88.0829" ry="26.7407"/>
<text text-anchor="middle" x="1043" y="-808.8" font-family="Times,serif" font-size="14.00">Groupings are often</text>
<text text-anchor="middle" x="1043" y="-793.8" font-family="Times,serif" font-size="14.00">used for planning</text>
</g>
<!-- RWM&#45;&gt;Planning -->
<g id="edge15" class="edge"><title>RWM&#45;&gt;Planning</title>
<path fill="none" stroke="black" d="M1043,-868.417C1043,-859.802 1043,-850.626 1043,-842.035"/>
<polygon fill="black" stroke="black" points="1046.5,-841.924 1043,-831.924 1039.5,-841.924 1046.5,-841.924"/>
</g>
<!-- RWM&#45;&gt;Store -->
<g id="edge14" class="edge"><title>RWM&#45;&gt;Store</title>
<path fill="none" stroke="black" d="M967.069,-878.989C917.055,-861.856 852.775,-839.836 807.957,-824.484"/>
<polygon fill="black" stroke="black" points="809.014,-821.146 798.419,-821.216 806.745,-827.768 809.014,-821.146"/>
</g>
<!-- EstSize -->
<g id="node4" class="node"><title>EstSize</title>
<ellipse fill="none" stroke="black" cx="995" cy="-27" rx="108.281" ry="26.7407"/>
<text text-anchor="middle" x="995" y="-30.8" font-family="Times,serif" font-size="14.00">Need to estimate the</text>
<text text-anchor="middle" x="995" y="-15.8" font-family="Times,serif" font-size="14.00">size/scope of a grouping.</text>
</g>
<!-- Overview -->
<g id="node18" class="node"><title>Overview</title>
<ellipse fill="#ddeeff" stroke="black" cx="1188" cy="-450" rx="113.267" ry="48.1667"/>
<text text-anchor="middle" x="1188" y="-468.8" font-family="Times,serif" font-size="14.00">Need a summary to</text>
<text text-anchor="middle" x="1188" y="-453.8" font-family="Times,serif" font-size="14.00">understand how groupings</text>
<text text-anchor="middle" x="1188" y="-438.8" font-family="Times,serif" font-size="14.00">are distributed across</text>
<text text-anchor="middle" x="1188" y="-423.8" font-family="Times,serif" font-size="14.00">all requirements.</text>
</g>
<!-- EstSize&#45;&gt;Overview -->
<g id="edge26" class="edge"><title>EstSize&#45;&gt;Overview</title>
<path fill="none" stroke="black" d="M1068.66,-46.8529C1091.57,-56.2223 1114.78,-69.9849 1130,-90 1197.16,-178.31 1199.45,-314.549 1194.28,-391.299"/>
<polygon fill="black" stroke="black" points="1190.75,-391.492 1193.51,-401.723 1197.74,-392.009 1190.75,-391.492"/>
</g>
<!-- ForgotApply -->
<g id="node8" class="node"><title>ForgotApply</title>
<ellipse fill="none" stroke="black" cx="1304" cy="-582" rx="94.0678" ry="37.4533"/>
<text text-anchor="middle" x="1304" y="-593.3" font-family="Times,serif" font-size="14.00">Want to know if I&#39;ve</text>
<text text-anchor="middle" x="1304" y="-578.3" font-family="Times,serif" font-size="14.00">forgotten to apply a</text>
<text text-anchor="middle" x="1304" y="-563.3" font-family="Times,serif" font-size="14.00">grouping to any reqs.</text>
</g>
<!-- Fickle&#45;&gt;ForgotApply -->
<g id="edge22" class="edge"><title>Fickle&#45;&gt;ForgotApply</title>
<path fill="none" stroke="black" d="M1207.58,-677.844C1223.23,-662.449 1243.64,-642.371 1261.65,-624.654"/>
<polygon fill="black" stroke="black" points="1264.53,-626.734 1269.2,-617.227 1259.62,-621.744 1264.53,-626.734"/>
</g>
<!-- Fickle&#45;&gt;Overview -->
<g id="edge21" class="edge"><title>Fickle&#45;&gt;Overview</title>
<path fill="none" stroke="black" d="M1182.62,-676.981C1183.56,-637.486 1185.37,-561.416 1186.63,-508.501"/>
<polygon fill="black" stroke="black" points="1190.14,-508.325 1186.88,-498.244 1183.14,-508.158 1190.14,-508.325"/>
</g>
<!-- BulkApply -->
<g id="node21" class="node"><title>BulkApply</title>
<ellipse fill="#bbbbff" stroke="black" cx="1427" cy="-27" rx="124.176" ry="26.7407"/>
<text text-anchor="middle" x="1427" y="-30.8" font-family="Times,serif" font-size="14.00">Want to assign groupings to</text>
<text text-anchor="middle" x="1427" y="-15.8" font-family="Times,serif" font-size="14.00">multiple UCs simultaneously</text>
</g>
<!-- Fickle&#45;&gt;BulkApply -->
<g id="edge12" class="edge"><title>Fickle&#45;&gt;BulkApply</title>
<path fill="none" stroke="black" d="M1262.23,-686.589C1372.13,-658.888 1556,-591.539 1556,-451 1556,-451 1556,-451 1556,-248 1556,-173.076 1499.64,-101.078 1461.42,-60.8738"/>
<polygon fill="black" stroke="black" points="1463.52,-58.0074 1454.04,-53.2655 1458.49,-62.8807 1463.52,-58.0074"/>
</g>
<!-- Planning&#45;&gt;EstSize -->
<g id="edge17" class="edge"><title>Planning&#45;&gt;EstSize</title>
<path fill="none" stroke="black" d="M1047.85,-778.084C1058.97,-711.955 1081.09,-532.942 1023,-402 1013.82,-381.317 997.025,-386.286 987,-366 951.244,-293.645 968.345,-266.531 963,-186 960.174,-143.427 952.931,-131.462 963,-90 965.246,-80.7506 969.128,-71.338 973.431,-62.7338"/>
<polygon fill="black" stroke="black" points="976.598,-64.2325 978.206,-53.7605 970.418,-60.9438 976.598,-64.2325"/>
</g>
<!-- Planning&#45;&gt;Fickle -->
<g id="edge16" class="edge"><title>Planning&#45;&gt;Fickle</title>
<path fill="none" stroke="black" d="M1076.65,-780.035C1095.49,-766.616 1119.17,-749.748 1139.31,-735.407"/>
<polygon fill="black" stroke="black" points="1141.58,-738.084 1147.7,-729.432 1137.52,-732.383 1141.58,-738.084"/>
</g>
<!-- Balance -->
<g id="node7" class="node"><title>Balance</title>
<ellipse fill="none" stroke="black" cx="906" cy="-450" rx="108.342" ry="37.4533"/>
<text text-anchor="middle" x="906" y="-461.3" font-family="Times,serif" font-size="14.00">Want to make certain</text>
<text text-anchor="middle" x="906" y="-446.3" font-family="Times,serif" font-size="14.00">grouping buckets contain</text>
<text text-anchor="middle" x="906" y="-431.3" font-family="Times,serif" font-size="14.00">similar number of reqs</text>
</g>
<!-- Planning&#45;&gt;Balance -->
<g id="edge20" class="edge"><title>Planning&#45;&gt;Balance</title>
<path fill="none" stroke="black" d="M1032.93,-778.043C1009.86,-718.615 952.973,-572.033 923.832,-496.947"/>
<polygon fill="black" stroke="black" points="926.961,-495.336 920.08,-487.28 920.436,-497.869 926.961,-495.336"/>
</g>
<!-- Balance&#45;&gt;EstSize -->
<g id="edge18" class="edge"><title>Balance&#45;&gt;EstSize</title>
<path fill="none" stroke="black" d="M900.107,-412.483C890.98,-345.094 879.344,-198.194 930,-90 935.269,-78.7452 943.557,-68.4897 952.472,-59.7019"/>
<polygon fill="black" stroke="black" points="955.099,-62.0392 960.056,-52.6756 950.342,-56.9041 955.099,-62.0392"/>
</g>
<!-- SeeMissing -->
<g id="node19" class="node"><title>SeeMissing</title>
<ellipse fill="#ddeeff" stroke="black" cx="1427" cy="-450" rx="94.0678" ry="48.1667"/>
<text text-anchor="middle" x="1427" y="-468.8" font-family="Times,serif" font-size="14.00">Count/see reqs</text>
<text text-anchor="middle" x="1427" y="-453.8" font-family="Times,serif" font-size="14.00">missing appl of</text>
<text text-anchor="middle" x="1427" y="-438.8" font-family="Times,serif" font-size="14.00">certain grouping tree</text>
<text text-anchor="middle" x="1427" y="-423.8" font-family="Times,serif" font-size="14.00">(eg. missing priority)</text>
</g>
<!-- ForgotApply&#45;&gt;SeeMissing -->
<g id="edge24" class="edge"><title>ForgotApply&#45;&gt;SeeMissing</title>
<path fill="none" stroke="black" d="M1336.64,-546.504C1349.85,-532.541 1365.36,-516.149 1379.76,-500.925"/>
<polygon fill="black" stroke="black" points="1382.4,-503.231 1386.73,-493.561 1377.32,-498.42 1382.4,-503.231"/>
</g>
<!-- SeeProb -->
<g id="node9" class="node"><title>SeeProb</title>
<ellipse fill="none" stroke="black" cx="1439" cy="-339" rx="89.1432" ry="26.7407"/>
<text text-anchor="middle" x="1439" y="-342.8" font-family="Times,serif" font-size="14.00">Discover an</text>
<text text-anchor="middle" x="1439" y="-327.8" font-family="Times,serif" font-size="14.00">application problem</text>
</g>
<!-- SeeProb&#45;&gt;BulkApply -->
<g id="edge29" class="edge"><title>SeeProb&#45;&gt;BulkApply</title>
<path fill="none" stroke="black" d="M1438,-312.103C1435.86,-256.941 1430.86,-127.729 1428.41,-64.3526"/>
<polygon fill="black" stroke="black" points="1431.89,-63.8986 1428.01,-54.0415 1424.9,-64.1695 1431.89,-63.8986"/>
</g>
<!-- OverUnderUsed -->
<g id="node10" class="node"><title>OverUnderUsed</title>
<ellipse fill="none" stroke="black" cx="1047" cy="-138" rx="74.4303" ry="48.1667"/>
<text text-anchor="middle" x="1047" y="-156.8" font-family="Times,serif" font-size="14.00">Groups are less</text>
<text text-anchor="middle" x="1047" y="-141.8" font-family="Times,serif" font-size="14.00">effective if</text>
<text text-anchor="middle" x="1047" y="-126.8" font-family="Times,serif" font-size="14.00">they contain too</text>
<text text-anchor="middle" x="1047" y="-111.8" font-family="Times,serif" font-size="14.00">many/little reqs.</text>
</g>
<!-- OverUnderUsed&#45;&gt;EstSize -->
<g id="edge33" class="edge"><title>OverUnderUsed&#45;&gt;EstSize</title>
<path fill="none" stroke="black" d="M1025.4,-91.7211C1020.84,-82.1706 1016.1,-72.2309 1011.76,-63.1216"/>
<polygon fill="black" stroke="black" points="1014.86,-61.4991 1007.39,-53.9805 1008.54,-64.5131 1014.86,-61.4991"/>
</g>
<!-- InadeqCfg -->
<g id="node11" class="node"><title>InadeqCfg</title>
<ellipse fill="none" stroke="black" cx="1073" cy="-339" rx="77.112" ry="26.7407"/>
<text text-anchor="middle" x="1073" y="-342.8" font-family="Times,serif" font-size="14.00">Decide grouping</text>
<text text-anchor="middle" x="1073" y="-327.8" font-family="Times,serif" font-size="14.00">cfg is inadequate</text>
</g>
<!-- Cfg -->
<g id="node23" class="node"><title>Cfg</title>
<ellipse fill="#bbbbff" stroke="black" cx="1053" cy="-249" rx="51.99" ry="26.7407"/>
<text text-anchor="middle" x="1053" y="-252.8" font-family="Times,serif" font-size="14.00">Configure</text>
<text text-anchor="middle" x="1053" y="-237.8" font-family="Times,serif" font-size="14.00">Groupings</text>
</g>
<!-- InadeqCfg&#45;&gt;Cfg -->
<g id="edge35" class="edge"><title>InadeqCfg&#45;&gt;Cfg</title>
<path fill="none" stroke="black" d="M1067.11,-312.073C1065.24,-303.838 1063.13,-294.58 1061.13,-285.777"/>
<polygon fill="black" stroke="black" points="1064.48,-284.717 1058.85,-275.742 1057.65,-286.269 1064.48,-284.717"/>
</g>
<!-- CfgThenApply -->
<g id="node12" class="node"><title>CfgThenApply</title>
<ellipse fill="none" stroke="black" cx="1298" cy="-138" rx="82.0366" ry="48.1667"/>
<text text-anchor="middle" x="1298" y="-156.8" font-family="Times,serif" font-size="14.00">After creating a</text>
<text text-anchor="middle" x="1298" y="-141.8" font-family="Times,serif" font-size="14.00">new grouping, the</text>
<text text-anchor="middle" x="1298" y="-126.8" font-family="Times,serif" font-size="14.00">next step is</text>
<text text-anchor="middle" x="1298" y="-111.8" font-family="Times,serif" font-size="14.00">often to apply it</text>
</g>
<!-- CfgThenApply&#45;&gt;BulkApply -->
<g id="edge38" class="edge"><title>CfgThenApply&#45;&gt;BulkApply</title>
<path fill="none" stroke="black" d="M1344.21,-97.9564C1358.95,-85.4966 1375.09,-71.8618 1389.17,-59.9657"/>
<polygon fill="black" stroke="black" points="1391.82,-62.3119 1397.19,-53.1843 1387.3,-56.9651 1391.82,-62.3119"/>
</g>
<!-- BooleanFilterOps -->
<g id="node13" class="node"><title>BooleanFilterOps</title>
<ellipse fill="#ddeeff" stroke="black" cx="316" cy="-582" rx="114.327" ry="48.1667"/>
<text text-anchor="middle" x="316" y="-600.8" font-family="Times,serif" font-size="14.00">When searching/filtering</text>
<text text-anchor="middle" x="316" y="-585.8" font-family="Times,serif" font-size="14.00">by groupings, users</text>
<text text-anchor="middle" x="316" y="-570.8" font-family="Times,serif" font-size="14.00">sometimes need to specify</text>
<text text-anchor="middle" x="316" y="-555.8" font-family="Times,serif" font-size="14.00">{NOT,AND,OR}</text>
</g>
<!-- FilterS -->
<g id="node15" class="node"><title>FilterS</title>
<ellipse fill="#ddeeff" stroke="black" cx="99" cy="-704" rx="99.5528" ry="37.4533"/>
<text text-anchor="middle" x="99" y="-715.3" font-family="Times,serif" font-size="14.00">UC selection in Shares</text>
<text text-anchor="middle" x="99" y="-700.3" font-family="Times,serif" font-size="14.00">should be filterable</text>
<text text-anchor="middle" x="99" y="-685.3" font-family="Times,serif" font-size="14.00">by groupings.</text>
</g>
<!-- Filter&#45;&gt;FilterS -->
<g id="edge6" class="edge"><title>Filter&#45;&gt;FilterS</title>
<path fill="none" stroke="black" d="M437.747,-793.115C378.509,-782.081 286.439,-763.589 208,-742 198.679,-739.435 188.989,-736.518 179.402,-733.473"/>
<polygon fill="black" stroke="black" points="180.458,-730.137 169.866,-730.395 178.307,-736.798 180.458,-730.137"/>
</g>
<!-- FilterR -->
<g id="node16" class="node"><title>FilterR</title>
<ellipse fill="#ddeeff" stroke="black" cx="316" cy="-704" rx="98.4924" ry="37.4533"/>
<text text-anchor="middle" x="316" y="-715.3" font-family="Times,serif" font-size="14.00">Filter by groupings</text>
<text text-anchor="middle" x="316" y="-700.3" font-family="Times,serif" font-size="14.00">when reading/printing/</text>
<text text-anchor="middle" x="316" y="-685.3" font-family="Times,serif" font-size="14.00">reviewing UCs.</text>
</g>
<!-- Filter&#45;&gt;FilterR -->
<g id="edge7" class="edge"><title>Filter&#45;&gt;FilterR</title>
<path fill="none" stroke="black" d="M469.598,-788.094C445.597,-775.11 410.803,-756.287 380.398,-739.838"/>
<polygon fill="black" stroke="black" points="381.998,-736.724 371.537,-735.044 378.667,-742.881 381.998,-736.724"/>
</g>
<!-- FilterUCL -->
<g id="node17" class="node"><title>FilterUCL</title>
<ellipse fill="#ddeeff" stroke="black" cx="499" cy="-704" rx="65.1436" ry="26.7407"/>
<text text-anchor="middle" x="499" y="-707.8" font-family="Times,serif" font-size="14.00">Filter UC List</text>
<text text-anchor="middle" x="499" y="-692.8" font-family="Times,serif" font-size="14.00">by groupings</text>
</g>
<!-- Filter&#45;&gt;FilterUCL -->
<g id="edge8" class="edge"><title>Filter&#45;&gt;FilterUCL</title>
<path fill="none" stroke="black" d="M499,-786.756C499,-774.242 499,-756.858 499,-741.336"/>
<polygon fill="black" stroke="black" points="502.5,-740.971 499,-730.971 495.5,-740.971 502.5,-740.971"/>
</g>
<!-- FilterS&#45;&gt;BooleanFilterOps -->
<g id="edge9" class="edge"><title>FilterS&#45;&gt;BooleanFilterOps</title>
<path fill="none" stroke="black" d="M153.758,-672.719C179.476,-658.497 210.583,-641.295 238.651,-625.773"/>
<polygon fill="black" stroke="black" points="240.59,-628.701 247.647,-620.799 237.202,-622.575 240.59,-628.701"/>
</g>
<!-- FilterR&#45;&gt;BooleanFilterOps -->
<g id="edge10" class="edge"><title>FilterR&#45;&gt;BooleanFilterOps</title>
<path fill="none" stroke="black" d="M316,-666.344C316,-658.219 316,-649.418 316,-640.683"/>
<polygon fill="black" stroke="black" points="319.5,-640.503 316,-630.503 312.5,-640.503 319.5,-640.503"/>
</g>
<!-- FilterUCL&#45;&gt;BooleanFilterOps -->
<g id="edge11" class="edge"><title>FilterUCL&#45;&gt;BooleanFilterOps</title>
<path fill="none" stroke="black" d="M465.008,-680.71C442.62,-666.03 412.508,-646.284 385.213,-628.385"/>
<polygon fill="black" stroke="black" points="387.126,-625.454 376.844,-622.898 383.287,-631.308 387.126,-625.454"/>
</g>
<!-- Overview&#45;&gt;SeeProb -->
<g id="edge27" class="edge"><title>Overview&#45;&gt;SeeProb</title>
<path fill="none" stroke="black" d="M1266.39,-414.96C1303.2,-398.973 1346.34,-380.238 1380.29,-365.498"/>
<polygon fill="black" stroke="black" points="1381.82,-368.645 1389.6,-361.452 1379.04,-362.224 1381.82,-368.645"/>
</g>
<!-- Overview&#45;&gt;InadeqCfg -->
<g id="edge34" class="edge"><title>Overview&#45;&gt;InadeqCfg</title>
<path fill="none" stroke="black" d="M1142.55,-405.92C1130.51,-394.51 1117.73,-382.4 1106.46,-371.716"/>
<polygon fill="black" stroke="black" points="1108.59,-368.911 1098.92,-364.572 1103.77,-373.992 1108.59,-368.911"/>
</g>
<!-- Overview&#45;&gt;SeeMissing -->
<g id="edge19" class="edge"><title>Overview&#45;&gt;SeeMissing</title>
<path fill="none" stroke="black" d="M1301.43,-450C1308.46,-450 1315.49,-450 1322.52,-450"/>
<polygon fill="black" stroke="black" points="1322.82,-453.5 1332.82,-450 1322.82,-446.5 1322.82,-453.5"/>
</g>
<!-- SeeMissing&#45;&gt;SeeProb -->
<g id="edge28" class="edge"><title>SeeMissing&#45;&gt;SeeProb</title>
<path fill="none" stroke="black" d="M1432.19,-401.825C1433.15,-393.168 1434.13,-384.259 1435.04,-375.995"/>
<polygon fill="black" stroke="black" points="1438.53,-376.261 1436.14,-365.938 1431.57,-375.495 1438.53,-376.261"/>
</g>
<!-- Store&#45;&gt;ForgotApply -->
<g id="edge23" class="edge"><title>Store&#45;&gt;ForgotApply</title>
<path fill="none" stroke="black" d="M788.024,-788.029C845.266,-761.391 964.71,-706.793 1068,-666 1119.1,-645.818 1177.33,-625.315 1223.16,-609.736"/>
<polygon fill="black" stroke="black" points="1224.39,-613.012 1232.74,-606.488 1222.15,-606.382 1224.39,-613.012"/>
</g>
<!-- Apply -->
<g id="node22" class="node"><title>Apply</title>
<ellipse fill="#bbbbff" stroke="black" cx="662" cy="-704" rx="79.2942" ry="26.7407"/>
<text text-anchor="middle" x="662" y="-707.8" font-family="Times,serif" font-size="14.00">Apply groupings</text>
<text text-anchor="middle" x="662" y="-692.8" font-family="Times,serif" font-size="14.00">whilst editing req</text>
</g>
<!-- Store&#45;&gt;Apply -->
<g id="edge30" class="edge"><title>Store&#45;&gt;Apply</title>
<path fill="none" stroke="black" d="M738.393,-787.206C725.768,-773.62 707.613,-754.083 692.169,-737.464"/>
<polygon fill="black" stroke="black" points="694.665,-735.009 685.294,-730.066 689.537,-739.774 694.665,-735.009"/>
</g>
<!-- Store&#45;&gt;Cfg -->
<g id="edge31" class="edge"><title>Store&#45;&gt;Cfg</title>
<path fill="none" stroke="black" d="M755.961,-786.834C760.027,-749.706 769,-659.144 769,-583 769,-583 769,-583 769,-449 769,-339.368 912.697,-285.014 995.662,-262.768"/>
<polygon fill="black" stroke="black" points="996.671,-266.122 1005.46,-260.213 994.905,-259.348 996.671,-266.122"/>
</g>
<!-- BulkApply&#45;&gt;InadeqCfg -->
<g id="edge36" class="edge"><title>BulkApply&#45;&gt;InadeqCfg</title>
<path fill="none" stroke="black" d="M1318.37,-40.1844C1279.86,-48.9774 1238.35,-64.0804 1207,-90 1135.77,-148.897 1160.24,-195.975 1114,-276 1108.57,-285.399 1102.28,-295.315 1096.28,-304.394"/>
<polygon fill="black" stroke="black" points="1093.31,-302.539 1090.66,-312.797 1099.13,-306.432 1093.31,-302.539"/>
</g>
<!-- BulkApply&#45;&gt;Overview -->
<g id="edge25" class="edge"><title>BulkApply&#45;&gt;Overview</title>
<path fill="none" stroke="black" d="M1424.11,-53.9995C1419.78,-86.2498 1409.8,-142.313 1389,-186 1350.23,-267.435 1283.46,-347.868 1237.58,-397.92"/>
<polygon fill="black" stroke="black" points="1234.9,-395.663 1230.69,-405.384 1240.04,-400.412 1234.9,-395.663"/>
</g>
<!-- Cfg&#45;&gt;OverUnderUsed -->
<g id="edge32" class="edge"><title>Cfg&#45;&gt;OverUnderUsed</title>
<path fill="none" stroke="black" d="M1051.56,-221.892C1051.13,-214.113 1050.65,-205.263 1050.15,-196.311"/>
<polygon fill="black" stroke="black" points="1053.64,-196.006 1049.6,-186.213 1046.65,-196.391 1053.64,-196.006"/>
</g>
<!-- Cfg&#45;&gt;CfgThenApply -->
<g id="edge37" class="edge"><title>Cfg&#45;&gt;CfgThenApply</title>
<path fill="none" stroke="black" d="M1091.55,-230.849C1127.03,-215.065 1180.61,-191.228 1224.29,-171.793"/>
<polygon fill="black" stroke="black" points="1225.74,-174.98 1233.45,-167.717 1222.89,-168.584 1225.74,-174.98"/>
</g>
</g>
</svg>
