<?xml version="1.0" encoding="UTF-8" standalone="no"?>
<!DOCTYPE svg PUBLIC "-//W3C//DTD SVG 1.1//EN"
 "http://www.w3.org/Graphics/SVG/1.1/DTD/svg11.dtd">
<!-- Generated by graphviz version 2.36.0 (20140111.2315)
 -->
<!-- Title: G Pages: 1 -->
<svg width="556pt" height="366pt"
 viewBox="0.00 0.00 556.00 366.00" xmlns="http://www.w3.org/2000/svg" xmlns:xlink="http://www.w3.org/1999/xlink">
<g id="graph0" class="graph" transform="scale(1 1) rotate(0) translate(4 362.004)">
<title>G</title>
<polygon fill="white" stroke="none" points="-4,4 -4,-362.004 552,-362.004 552,4 -4,4"/>
<!-- HomeA -->
<g id="node1" class="node"><title>HomeA</title>
<ellipse fill="none" stroke="black" cx="38" cy="-306" rx="38.4949" ry="18"/>
<text text-anchor="middle" x="38" y="-302.3" font-family="Times,serif" font-size="14.00">HomeA</text>
</g>
<!-- About -->
<g id="node2" class="node"><title>About</title>
<ellipse fill="none" stroke="black" cx="127" cy="-306" rx="32.2457" ry="18"/>
<text text-anchor="middle" x="127" y="-302.3" font-family="Times,serif" font-size="14.00">About</text>
</g>
<!-- HomeA&#45;&gt;About -->
<g id="edge1" class="edge"><title>HomeA&#45;&gt;About</title>
<path fill="none" stroke="#cccccc" d="M86.7802,-306C86.9453,-306 87.1104,-306 87.2755,-306"/>
<polygon fill="#cccccc" stroke="#cccccc" points="86.5899,-302.5 76.5898,-306 86.5898,-309.5 86.5899,-302.5"/>
<polygon fill="#cccccc" stroke="#cccccc" points="84.706,-309.5 94.706,-306 84.7059,-302.5 84.706,-309.5"/>
</g>
<!-- ToS -->
<g id="node3" class="node"><title>ToS</title>
<ellipse fill="none" stroke="black" cx="204" cy="-306" rx="27" ry="18"/>
<text text-anchor="middle" x="204" y="-302.3" font-family="Times,serif" font-size="14.00">ToS</text>
</g>
<!-- HomeA&#45;&gt;ToS -->
<g id="edge2" class="edge"><title>HomeA&#45;&gt;ToS</title>
<path fill="none" stroke="#cccccc" d="M65.3987,-327.661C74.3298,-333.486 84.6283,-338.999 95,-342 122.324,-349.906 132.159,-351.415 159,-342 167.231,-339.113 175.075,-334.016 181.841,-328.551"/>
<polygon fill="#cccccc" stroke="#cccccc" points="67.1825,-324.639 56.9712,-321.814 63.1921,-330.39 67.1825,-324.639"/>
<polygon fill="#cccccc" stroke="#cccccc" points="184.584,-330.8 189.783,-321.568 179.962,-325.543 184.584,-330.8"/>
</g>
<!-- Privacy -->
<g id="node4" class="node"><title>Privacy</title>
<ellipse fill="none" stroke="black" cx="287" cy="-306" rx="37.5442" ry="18"/>
<text text-anchor="middle" x="287" y="-302.3" font-family="Times,serif" font-size="14.00">Privacy</text>
</g>
<!-- HomeA&#45;&gt;Privacy -->
<g id="edge3" class="edge"><title>HomeA&#45;&gt;Privacy</title>
<path fill="none" stroke="#cccccc" d="M65.3987,-327.661C74.3298,-333.486 84.6283,-338.999 95,-342 153.063,-358.8 173.005,-359.033 231,-342 241.23,-338.995 251.359,-333.482 260.131,-327.657"/>
<polygon fill="#cccccc" stroke="#cccccc" points="67.1825,-324.639 56.9712,-321.814 63.1921,-330.39 67.1825,-324.639"/>
<polygon fill="#cccccc" stroke="#cccccc" points="262.258,-330.44 268.405,-321.81 258.218,-324.723 262.258,-330.44"/>
</g>
<!-- Login -->
<g id="node5" class="node"><title>Login</title>
<ellipse fill="none" stroke="black" cx="375" cy="-306" rx="31.2735" ry="18"/>
<text text-anchor="middle" x="375" y="-302.3" font-family="Times,serif" font-size="14.00">Login</text>
</g>
<!-- HomeA&#45;&gt;Login -->
<g id="edge4" class="edge"><title>HomeA&#45;&gt;Login</title>
<path fill="none" stroke="#cccccc" d="M65.3987,-327.661C74.3298,-333.486 84.6283,-338.999 95,-342 143.884,-356.145 275.496,-357.395 324,-342 333.407,-339.014 342.574,-333.598 350.483,-327.857"/>
<polygon fill="#cccccc" stroke="#cccccc" points="67.1825,-324.639 56.9712,-321.814 63.1921,-330.39 67.1825,-324.639"/>
<polygon fill="#cccccc" stroke="#cccccc" points="352.78,-330.505 358.522,-321.601 348.48,-324.981 352.78,-330.505"/>
</g>
<!-- Register -->
<g id="node6" class="node"><title>Register</title>
<ellipse fill="none" stroke="black" cx="465" cy="-306" rx="39.9464" ry="18"/>
<text text-anchor="middle" x="465" y="-302.3" font-family="Times,serif" font-size="14.00">Register</text>
</g>
<!-- HomeA&#45;&gt;Register -->
<g id="edge5" class="edge"><title>HomeA&#45;&gt;Register</title>
<path fill="none" stroke="#cccccc" d="M65.3987,-327.661C74.3298,-333.486 84.6283,-338.999 95,-342 161.388,-361.209 339.466,-360.696 406,-342 416.768,-338.974 427.516,-333.379 436.831,-327.487"/>
<polygon fill="#cccccc" stroke="#cccccc" points="67.1825,-324.639 56.9712,-321.814 63.1921,-330.39 67.1825,-324.639"/>
<polygon fill="#cccccc" stroke="#cccccc" points="438.923,-330.299 445.278,-321.821 435.023,-324.486 438.923,-330.299"/>
</g>
<!-- About&#45;&gt;ToS -->
<g id="edge6" class="edge"><title>About&#45;&gt;ToS</title>
<path fill="none" stroke="#cccccc" d="M169.537,-306C169.69,-306 169.843,-306 169.996,-306"/>
<polygon fill="#cccccc" stroke="#cccccc" points="169.484,-302.5 159.484,-306 169.484,-309.5 169.484,-302.5"/>
<polygon fill="#cccccc" stroke="#cccccc" points="166.873,-309.5 176.873,-306 166.873,-302.5 166.873,-309.5"/>
</g>
<!-- About&#45;&gt;Privacy -->
<g id="edge7" class="edge"><title>About&#45;&gt;Privacy</title>
<path fill="none" stroke="#cccccc" d="M150.977,-327.852C158.728,-333.592 167.73,-339.01 177,-342 199.841,-349.367 207.973,-348.763 231,-342 241.23,-338.995 251.359,-333.482 260.131,-327.657"/>
<polygon fill="#cccccc" stroke="#cccccc" points="153.11,-325.076 143.103,-321.596 148.756,-330.557 153.11,-325.076"/>
<polygon fill="#cccccc" stroke="#cccccc" points="262.258,-330.44 268.405,-321.81 258.218,-324.723 262.258,-330.44"/>
</g>
<!-- About&#45;&gt;Login -->
<g id="edge8" class="edge"><title>About&#45;&gt;Login</title>
<path fill="none" stroke="#cccccc" d="M150.977,-327.852C158.728,-333.592 167.73,-339.01 177,-342 239.179,-362.056 261.728,-361.764 324,-342 333.407,-339.014 342.574,-333.598 350.483,-327.857"/>
<polygon fill="#cccccc" stroke="#cccccc" points="153.11,-325.076 143.103,-321.596 148.756,-330.557 153.11,-325.076"/>
<polygon fill="#cccccc" stroke="#cccccc" points="352.78,-330.505 358.522,-321.601 348.48,-324.981 352.78,-330.505"/>
</g>
<!-- About&#45;&gt;Register -->
<g id="edge9" class="edge"><title>About&#45;&gt;Register</title>
<path fill="none" stroke="#cccccc" d="M150.977,-327.852C158.728,-333.592 167.73,-339.01 177,-342 225.432,-357.622 357.009,-355.766 406,-342 416.768,-338.974 427.516,-333.379 436.831,-327.487"/>
<polygon fill="#cccccc" stroke="#cccccc" points="153.11,-325.076 143.103,-321.596 148.756,-330.557 153.11,-325.076"/>
<polygon fill="#cccccc" stroke="#cccccc" points="438.923,-330.299 445.278,-321.821 435.023,-324.486 438.923,-330.299"/>
</g>
<!-- ToS&#45;&gt;Privacy -->
<g id="edge10" class="edge"><title>ToS&#45;&gt;Privacy</title>
<path fill="none" stroke="#cccccc" d="M241.241,-306C241.328,-306 241.414,-306 241.5,-306"/>
<polygon fill="#cccccc" stroke="#cccccc" points="241.234,-302.5 231.234,-306 241.234,-309.5 241.234,-302.5"/>
<polygon fill="#cccccc" stroke="#cccccc" points="239.533,-309.5 249.532,-306 239.532,-302.5 239.533,-309.5"/>
</g>
<!-- ToS&#45;&gt;Login -->
<g id="edge11" class="edge"><title>ToS&#45;&gt;Login</title>
<path fill="none" stroke="#cccccc" d="M226.159,-328.551C232.925,-334.016 240.769,-339.113 249,-342 280.454,-353.034 292.229,-352.084 324,-342 333.407,-339.014 342.574,-333.598 350.483,-327.857"/>
<polygon fill="#cccccc" stroke="#cccccc" points="228.038,-325.543 218.217,-321.568 223.416,-330.8 228.038,-325.543"/>
<polygon fill="#cccccc" stroke="#cccccc" points="352.78,-330.505 358.522,-321.601 348.48,-324.981 352.78,-330.505"/>
</g>
<!-- ToS&#45;&gt;Register -->
<g id="edge12" class="edge"><title>ToS&#45;&gt;Register</title>
<path fill="none" stroke="#cccccc" d="M226.159,-328.551C232.925,-334.016 240.769,-339.113 249,-342 314.844,-365.097 338.824,-360.876 406,-342 416.768,-338.974 427.516,-333.379 436.831,-327.487"/>
<polygon fill="#cccccc" stroke="#cccccc" points="228.038,-325.543 218.217,-321.568 223.416,-330.8 228.038,-325.543"/>
<polygon fill="#cccccc" stroke="#cccccc" points="438.923,-330.299 445.278,-321.821 435.023,-324.486 438.923,-330.299"/>
</g>
<!-- Privacy&#45;&gt;Login -->
<g id="edge13" class="edge"><title>Privacy&#45;&gt;Login</title>
<path fill="none" stroke="#cccccc" d="M334.536,-306C334.628,-306 334.721,-306 334.813,-306"/>
<polygon fill="#cccccc" stroke="#cccccc" points="334.469,-302.5 324.469,-306 334.469,-309.5 334.469,-302.5"/>
<polygon fill="#cccccc" stroke="#cccccc" points="333.418,-309.5 343.418,-306 333.418,-302.5 333.418,-309.5"/>
</g>
<!-- Privacy&#45;&gt;Register -->
<g id="edge14" class="edge"><title>Privacy&#45;&gt;Register</title>
<path fill="none" stroke="#cccccc" d="M313.869,-327.657C322.641,-333.482 332.77,-338.995 343,-342 369.865,-349.89 379.044,-349.575 406,-342 416.768,-338.974 427.516,-333.379 436.831,-327.487"/>
<polygon fill="#cccccc" stroke="#cccccc" points="315.782,-324.723 305.595,-321.81 311.742,-330.44 315.782,-324.723"/>
<polygon fill="#cccccc" stroke="#cccccc" points="438.923,-330.299 445.278,-321.821 435.023,-324.486 438.923,-330.299"/>
</g>
<!-- Login&#45;&gt;Register -->
<g id="edge15" class="edge"><title>Login&#45;&gt;Register</title>
<path fill="none" stroke="#cccccc" d="M416.643,-306C416.805,-306 416.967,-306 417.129,-306"/>
<polygon fill="#cccccc" stroke="#cccccc" points="416.641,-302.5 406.641,-306 416.641,-309.5 416.641,-302.5"/>
<polygon fill="#cccccc" stroke="#cccccc" points="414.422,-309.5 424.422,-306 414.422,-302.5 414.422,-309.5"/>
</g>
<!-- ResetPW -->
<g id="node8" class="node"><title>ResetPW</title>
<ellipse fill="none" stroke="black" cx="239" cy="-234" rx="44.2946" ry="18"/>
<text text-anchor="middle" x="239" y="-230.3" font-family="Times,serif" font-size="14.00">ResetPW</text>
</g>
<!-- Login&#45;&gt;ResetPW -->
<g id="edge16" class="edge"><title>Login&#45;&gt;ResetPW</title>
<path fill="none" stroke="black" d="M350.296,-294.821C327.852,-284.264 294.883,-267.498 270.573,-254.398"/>
<polygon fill="black" stroke="black" points="272.177,-251.286 261.72,-249.578 268.829,-257.434 272.177,-251.286"/>
</g>
<!-- HomeL -->
<g id="node9" class="node"><title>HomeL</title>
<ellipse fill="#44ff44" stroke="#44ff44" cx="375" cy="-234" rx="74.1402" ry="18"/>
<text text-anchor="middle" x="375" y="-230.3" font-family="Times,serif" font-size="14.00">HomeL (projects)</text>
</g>
<!-- Login&#45;&gt;HomeL -->
<g id="edge23" class="edge"><title>Login&#45;&gt;HomeL</title>
<path fill="none" stroke="black" d="M375,-287.697C375,-279.983 375,-270.712 375,-262.112"/>
<polygon fill="black" stroke="black" points="378.5,-262.104 375,-252.104 371.5,-262.104 378.5,-262.104"/>
</g>
<!-- ShareView1 -->
<g id="node7" class="node"><title>ShareView1</title>
<ellipse fill="none" stroke="black" cx="495" cy="-90" rx="53.4184" ry="18"/>
<text text-anchor="middle" x="495" y="-86.3" font-family="Times,serif" font-size="14.00">ShareView1</text>
</g>
<!-- ShareView2 -->
<g id="node18" class="node"><title>ShareView2</title>
<ellipse fill="#44ff44" stroke="#44ff44" cx="431" cy="-18" rx="53.4184" ry="18"/>
<text text-anchor="middle" x="431" y="-14.3" font-family="Times,serif" font-size="14.00">ShareView2</text>
</g>
<!-- ShareView1&#45;&gt;ShareView2 -->
<g id="edge39" class="edge"><title>ShareView1&#45;&gt;ShareView2</title>
<path fill="none" stroke="black" d="M479.833,-72.411C471.783,-63.6062 461.746,-52.6282 452.869,-42.9189"/>
<polygon fill="black" stroke="black" points="455.389,-40.4886 446.058,-35.4699 450.223,-45.212 455.389,-40.4886"/>
</g>
<!-- ResetPW&#45;&gt;HomeA -->
<g id="edge17" class="edge"><title>ResetPW&#45;&gt;HomeA</title>
<path fill="none" stroke="#cccccc" d="M206.444,-246.204C175.455,-256.887 127.52,-273.456 86,-288 83.1306,-289.005 80.1659,-290.047 77.1833,-291.098"/>
<polygon fill="#cccccc" stroke="#cccccc" points="75.9553,-287.819 67.6907,-294.448 78.2855,-294.42 75.9553,-287.819"/>
</g>
<!-- ResetPW&#45;&gt;About -->
<g id="edge18" class="edge"><title>ResetPW&#45;&gt;About</title>
<path fill="none" stroke="#cccccc" d="M215.992,-249.38C198.773,-260.142 175.087,-274.946 156.48,-286.575"/>
<polygon fill="#cccccc" stroke="#cccccc" points="154.429,-283.73 147.804,-291.998 158.139,-289.666 154.429,-283.73"/>
</g>
<!-- ResetPW&#45;&gt;ToS -->
<g id="edge19" class="edge"><title>ResetPW&#45;&gt;ToS</title>
<path fill="none" stroke="#cccccc" d="M230.438,-252.124C226.294,-260.413 221.235,-270.53 216.657,-279.687"/>
<polygon fill="#cccccc" stroke="#cccccc" points="213.459,-278.255 212.118,-288.765 219.72,-281.386 213.459,-278.255"/>
</g>
<!-- ResetPW&#45;&gt;Privacy -->
<g id="edge20" class="edge"><title>ResetPW&#45;&gt;Privacy</title>
<path fill="none" stroke="#cccccc" d="M250.406,-251.633C256.302,-260.233 263.614,-270.896 270.148,-280.424"/>
<polygon fill="#cccccc" stroke="#cccccc" points="267.325,-282.497 275.867,-288.765 273.098,-278.538 267.325,-282.497"/>
</g>
<!-- ResetPW&#45;&gt;Login -->
<g id="edge21" class="edge"><title>ResetPW&#45;&gt;Login</title>
<path fill="none" stroke="#cccccc" d="M268.52,-247.462C291.604,-258.486 323.328,-274.7 346.215,-287.109"/>
<polygon fill="#cccccc" stroke="#cccccc" points="344.675,-290.256 355.126,-291.998 348.042,-284.119 344.675,-290.256"/>
</g>
<!-- ResetPW&#45;&gt;Register -->
<g id="edge22" class="edge"><title>ResetPW&#45;&gt;Register</title>
<path fill="none" stroke="#cccccc" d="M272.321,-245.832C278.837,-247.909 285.625,-250.045 292,-252 346.457,-268.7 360.69,-270.828 415,-288 418.103,-288.981 421.308,-290.017 424.525,-291.074"/>
<polygon fill="#cccccc" stroke="#cccccc" points="423.535,-294.433 434.129,-294.272 425.747,-287.792 423.535,-294.433"/>
</g>
<!-- Logout -->
<g id="node10" class="node"><title>Logout</title>
<ellipse fill="#44ff44" stroke="#44ff44" cx="153" cy="-162" rx="36.096" ry="18"/>
<text text-anchor="middle" x="153" y="-158.3" font-family="Times,serif" font-size="14.00">Logout</text>
</g>
<!-- HomeL&#45;&gt;Logout -->
<g id="edge25" class="edge"><title>HomeL&#45;&gt;Logout</title>
<path fill="none" stroke="black" d="M331.669,-219.337C291.274,-206.6 231.543,-187.766 192.449,-175.439"/>
<polygon fill="black" stroke="black" points="193.324,-172.045 182.735,-172.376 191.219,-178.721 193.324,-172.045"/>
</g>
<!-- UseCases -->
<g id="node11" class="node"><title>UseCases</title>
<ellipse fill="#44ff44" stroke="#44ff44" cx="301" cy="-162" rx="44.271" ry="18"/>
<text text-anchor="middle" x="301" y="-158.3" font-family="Times,serif" font-size="14.00">UseCases</text>
</g>
<!-- HomeL&#45;&gt;UseCases -->
<g id="edge26" class="edge"><title>HomeL&#45;&gt;UseCases</title>
<path fill="none" stroke="black" d="M357.463,-216.411C347.764,-207.237 335.572,-195.703 325.001,-185.703"/>
<polygon fill="black" stroke="black" points="327.319,-183.078 317.649,-178.749 322.508,-188.164 327.319,-183.078"/>
</g>
<!-- Account -->
<g id="node12" class="node"><title>Account</title>
<ellipse fill="#44ff44" stroke="#44ff44" cx="443" cy="-162" rx="39.9464" ry="18"/>
<text text-anchor="middle" x="443" y="-158.3" font-family="Times,serif" font-size="14.00">Account</text>
</g>
<!-- HomeL&#45;&gt;Account -->
<g id="edge27" class="edge"><title>HomeL&#45;&gt;Account</title>
<path fill="none" stroke="black" d="M391.115,-216.411C399.878,-207.39 410.857,-196.088 420.457,-186.207"/>
<polygon fill="black" stroke="black" points="423.011,-188.6 427.469,-178.988 417.99,-183.722 423.011,-188.6"/>
</g>
<!-- Logout&#45;&gt;HomeA -->
<g id="edge24" class="edge"><title>Logout&#45;&gt;HomeA</title>
<path fill="none" stroke="black" d="M139.903,-179.173C119.72,-204.093 80.9007,-252.027 57.4357,-281.001"/>
<polygon fill="black" stroke="black" points="54.5421,-279.013 50.9684,-288.987 59.9819,-283.418 54.5421,-279.013"/>
</g>
<!-- UCE -->
<g id="node13" class="node"><title>UCE</title>
<ellipse fill="#44ff44" stroke="#44ff44" cx="376" cy="-90" rx="28.3955" ry="18"/>
<text text-anchor="middle" x="376" y="-86.3" font-family="Times,serif" font-size="14.00">UCE</text>
</g>
<!-- UseCases&#45;&gt;UCE -->
<g id="edge28" class="edge"><title>UseCases&#45;&gt;UCE</title>
<path fill="none" stroke="black" d="M312.934,-144.411C322.827,-134.13 336.933,-120.886 349.38,-110.158"/>
<polygon fill="black" stroke="black" points="351.861,-112.645 357.259,-103.528 347.354,-107.289 351.861,-112.645"/>
</g>
<!-- Read -->
<g id="node14" class="node"><title>Read</title>
<ellipse fill="#44ff44" stroke="#44ff44" cx="301" cy="-90" rx="28.3955" ry="18"/>
<text text-anchor="middle" x="301" y="-86.3" font-family="Times,serif" font-size="14.00">Read</text>
</g>
<!-- UseCases&#45;&gt;Read -->
<g id="edge29" class="edge"><title>UseCases&#45;&gt;Read</title>
<path fill="none" stroke="black" d="M301,-143.697C301,-135.983 301,-126.712 301,-118.112"/>
<polygon fill="black" stroke="black" points="304.5,-118.104 301,-108.104 297.5,-118.104 304.5,-118.104"/>
</g>
<!-- Shares -->
<g id="node15" class="node"><title>Shares</title>
<ellipse fill="#44ff44" stroke="#44ff44" cx="182" cy="-90" rx="34.1708" ry="18"/>
<text text-anchor="middle" x="182" y="-86.3" font-family="Times,serif" font-size="14.00">Shares</text>
</g>
<!-- UseCases&#45;&gt;Shares -->
<g id="edge30" class="edge"><title>UseCases&#45;&gt;Shares</title>
<path fill="none" stroke="black" d="M276.919,-146.834C258.426,-135.956 232.756,-120.856 212.774,-109.102"/>
<polygon fill="black" stroke="black" points="214.433,-106.018 204.039,-103.964 210.884,-112.051 214.433,-106.018"/>
</g>
<!-- UCE&#45;&gt;HomeL -->
<g id="edge31" class="edge"><title>UCE&#45;&gt;HomeL</title>
<path fill="none" stroke="black" d="M375.879,-108.189C375.708,-132.424 375.395,-176.888 375.192,-205.679"/>
<polygon fill="black" stroke="black" points="371.691,-205.847 375.121,-215.871 378.691,-205.896 371.691,-205.847"/>
</g>
<!-- UCE&#45;&gt;UseCases -->
<g id="edge32" class="edge"><title>UCE&#45;&gt;UseCases</title>
<path fill="none" stroke="black" d="M364.826,-106.797C355.584,-116.471 342.357,-128.98 330.268,-139.544"/>
<polygon fill="black" stroke="black" points="327.864,-136.994 322.542,-146.155 332.415,-142.313 327.864,-136.994"/>
</g>
<!-- UCE&#45;&gt;UCE -->
<g id="edge33" class="edge"><title>UCE&#45;&gt;UCE</title>
<path fill="none" stroke="black" d="M396.815,-102.547C409.719,-105.573 422,-101.391 422,-90 422,-81.724 415.517,-77.2531 407.023,-76.5874"/>
<polygon fill="black" stroke="black" points="406.484,-73.1204 396.815,-77.4525 407.075,-80.0954 406.484,-73.1204"/>
</g>
<!-- ShareCreate -->
<g id="node16" class="node"><title>ShareCreate</title>
<ellipse fill="#44ff44" stroke="#44ff44" cx="242" cy="-18" rx="53.4184" ry="18"/>
<text text-anchor="middle" x="242" y="-14.3" font-family="Times,serif" font-size="14.00">ShareCreate</text>
</g>
<!-- Shares&#45;&gt;ShareCreate -->
<g id="edge34" class="edge"><title>Shares&#45;&gt;ShareCreate</title>
<path fill="none" stroke="black" d="M195.615,-73.1159C203.07,-64.4181 212.473,-53.4483 220.861,-43.6627"/>
<polygon fill="black" stroke="black" points="223.752,-45.6677 227.602,-35.7973 218.437,-41.1122 223.752,-45.6677"/>
</g>
<!-- ShareEdit -->
<g id="node17" class="node"><title>ShareEdit</title>
<ellipse fill="#44ff44" stroke="#44ff44" cx="123" cy="-18" rx="45.244" ry="18"/>
<text text-anchor="middle" x="123" y="-14.3" font-family="Times,serif" font-size="14.00">ShareEdit</text>
</g>
<!-- Shares&#45;&gt;ShareEdit -->
<g id="edge35" class="edge"><title>Shares&#45;&gt;ShareEdit</title>
<path fill="none" stroke="black" d="M168.612,-73.1159C161.175,-64.292 151.767,-53.1298 143.429,-43.238"/>
<polygon fill="black" stroke="black" points="145.865,-40.6976 136.744,-35.307 140.513,-45.209 145.865,-40.6976"/>
</g>
<!-- Shares&#45;&gt;ShareView2 -->
<g id="edge36" class="edge"><title>Shares&#45;&gt;ShareView2</title>
<path fill="none" stroke="black" d="M211.541,-80.6952C253.449,-68.9139 330.699,-47.1972 381.461,-32.9267"/>
<polygon fill="black" stroke="black" points="382.562,-36.2528 391.242,-30.177 380.668,-29.514 382.562,-36.2528"/>
</g>
<!-- ShareCreate&#45;&gt;UseCases -->
<g id="edge37" class="edge"><title>ShareCreate&#45;&gt;UseCases</title>
<path fill="none" stroke="black" d="M244.011,-36.0391C246.634,-54.4402 252.22,-84.3002 263,-108 267.57,-118.048 274.172,-128.131 280.594,-136.763"/>
<polygon fill="black" stroke="black" points="277.979,-139.103 286.874,-144.858 283.509,-134.812 277.979,-139.103"/>
</g>
<!-- ShareEdit&#45;&gt;UseCases -->
<g id="edge38" class="edge"><title>ShareEdit&#45;&gt;UseCases</title>
<path fill="none" stroke="black" d="M121.234,-36.2675C120.204,-55.994 121.684,-88.1063 139,-108 154.064,-125.306 210.319,-141.093 252.336,-150.851"/>
<polygon fill="black" stroke="black" points="251.611,-154.276 262.138,-153.079 253.163,-147.45 251.611,-154.276"/>
</g>
</g>
</svg>
