<?xml version="1.0" encoding="UTF-8" standalone="no"?>
<!DOCTYPE svg PUBLIC "-//W3C//DTD SVG 1.1//EN"
 "http://www.w3.org/Graphics/SVG/1.1/DTD/svg11.dtd">
<!-- Generated by graphviz version 2.38.0 (20140413.2041)
 -->
<!-- Title: G Pages: 1 -->
<svg width="602pt" height="332pt"
 viewBox="0.00 0.00 601.84 332.00" xmlns="http://www.w3.org/2000/svg" xmlns:xlink="http://www.w3.org/1999/xlink">
<g id="graph0" class="graph" transform="scale(1 1) rotate(0) translate(4 328)">
<title>G</title>
<polygon fill="white" stroke="none" points="-4,4 -4,-328 597.837,-328 597.837,4 -4,4"/>
<!-- 1 -->
<g id="node1" class="node"><title>1</title>
<ellipse fill="#91d5bc" stroke="#333333" cx="173.239" cy="-306" rx="31.3957" ry="18"/>
<text text-anchor="middle" x="173.239" y="-302.3" font-family="Times,serif" font-size="14.00">MF&#45;1</text>
</g>
<!-- 2 -->
<g id="node2" class="node"><title>2</title>
<ellipse fill="#91d5bc" stroke="#333333" cx="114.239" cy="-234" rx="31.3957" ry="18"/>
<text text-anchor="middle" x="114.239" y="-230.3" font-family="Times,serif" font-size="14.00">MF&#45;2</text>
</g>
<!-- 1&#45;&gt;2 -->
<g id="edge6" class="edge"><title>1&#45;&gt;2</title>
<path fill="none" stroke="#333333" d="M160.145,-289.465C152.43,-280.311 142.52,-268.554 133.884,-258.307"/>
<polygon fill="#333333" stroke="#333333" points="136.418,-255.882 127.297,-250.492 131.065,-260.394 136.418,-255.882"/>
</g>
<!-- 3 -->
<g id="node3" class="node"><title>3</title>
<ellipse fill="#91d5bc" stroke="#333333" cx="261.239" cy="-234" rx="31.3957" ry="18"/>
<text text-anchor="middle" x="261.239" y="-230.3" font-family="Times,serif" font-size="14.00">MF&#45;3</text>
</g>
<!-- 1&#45;&gt;3 -->
<g id="edge12" class="edge"><title>1&#45;&gt;3</title>
<path fill="none" stroke="#333333" d="M191.047,-290.834C203.81,-280.682 221.195,-266.853 235.47,-255.498"/>
<polygon fill="#333333" stroke="#333333" points="237.81,-258.109 243.458,-249.144 233.453,-252.631 237.81,-258.109"/>
</g>
<!-- 4 -->
<g id="node4" class="node"><title>4</title>
<ellipse fill="#dddddd" stroke="#777777" cx="173.239" cy="-162" rx="31.3957" ry="18"/>
<text text-anchor="middle" x="173.239" y="-158.3" font-family="Times,serif" font-size="14.00" fill="#666666">MF&#45;4</text>
</g>
<!-- 2&#45;&gt;4 -->
<g id="edge7" class="edge"><title>2&#45;&gt;4</title>
<path fill="none" stroke="#bbbbbb" stroke-dasharray="5,2" d="M127.333,-217.465C135.048,-208.311 144.958,-196.554 153.595,-186.307"/>
<polygon fill="#bbbbbb" stroke="#bbbbbb" points="156.413,-188.394 160.182,-178.492 151.061,-183.882 156.413,-188.394"/>
</g>
<!-- 13 -->
<g id="node8" class="node"><title>13</title>
<ellipse fill="#94dd59" stroke="#333333" cx="57.2392" cy="-162" rx="28.6953" ry="18"/>
<text text-anchor="middle" x="57.2392" y="-158.3" font-family="Times,serif" font-size="14.00">FR&#45;3</text>
</g>
<!-- 2&#45;&gt;13 -->
<g id="edge9" class="edge"><title>2&#45;&gt;13</title>
<path fill="none" stroke="#333333" d="M101.589,-217.465C94.1357,-208.311 84.5617,-196.554 76.2178,-186.307"/>
<polygon fill="#333333" stroke="#333333" points="78.8823,-184.036 69.854,-178.492 73.4542,-188.456 78.8823,-184.036"/>
</g>
<!-- 31 -->
<g id="node18" class="node"><title>31</title>
<ellipse fill="#dfb863" stroke="#333333" cx="146.239" cy="-18" rx="30.5947" ry="18"/>
<text text-anchor="middle" x="146.239" y="-14.3" font-family="Times,serif" font-size="14.00">UC&#45;1</text>
</g>
<!-- 2&#45;&gt;31 -->
<g id="edge10" class="edge"><title>2&#45;&gt;31</title>
<path fill="none" stroke="#333333" d="M86.2428,-225.83C63.7341,-218.426 33.5839,-204.429 19.2392,-180 -5.06599,-138.608 -7.37526,-111.946 19.2392,-72 38.4953,-43.0983 76.8305,-29.9303 106.369,-23.9466"/>
<polygon fill="#333333" stroke="#333333" points="107.196,-27.3537 116.405,-22.1157 105.939,-20.4674 107.196,-27.3537"/>
</g>
<!-- 32 -->
<g id="node19" class="node"><title>32</title>
<ellipse fill="#dfb863" stroke="#333333" cx="59.2392" cy="-90" rx="30.5947" ry="18"/>
<text text-anchor="middle" x="59.2392" y="-86.3" font-family="Times,serif" font-size="14.00">UC&#45;2</text>
</g>
<!-- 2&#45;&gt;32 -->
<g id="edge11" class="edge"><title>2&#45;&gt;32</title>
<path fill="none" stroke="#333333" d="M112.583,-216.012C110.349,-197.654 105.413,-167.83 95.2392,-144 90.9155,-133.872 84.552,-123.651 78.3731,-114.924"/>
<polygon fill="#333333" stroke="#333333" points="81.0947,-112.718 72.338,-106.754 75.4641,-116.877 81.0947,-112.718"/>
</g>
<!-- 11 -->
<g id="node6" class="node"><title>11</title>
<ellipse fill="#94dd59" stroke="#333333" cx="358.239" cy="-18" rx="28.6953" ry="18"/>
<text text-anchor="middle" x="358.239" y="-14.3" font-family="Times,serif" font-size="14.00">FR&#45;1</text>
</g>
<!-- 3&#45;&gt;11 -->
<g id="edge15" class="edge"><title>3&#45;&gt;11</title>
<path fill="none" stroke="#333333" d="M283.797,-221.263C299.082,-212.105 318.403,-197.936 329.239,-180 354.419,-138.323 358.879,-80.259 359.079,-46.4494"/>
<polygon fill="#333333" stroke="#333333" points="362.578,-46.3536 359.015,-36.3761 355.578,-46.3981 362.578,-46.3536"/>
</g>
<!-- 21 -->
<g id="node13" class="node"><title>21</title>
<ellipse fill="#d0a9d4" stroke="#333333" cx="290.239" cy="-162" rx="29.795" ry="18"/>
<text text-anchor="middle" x="290.239" y="-158.3" font-family="Times,serif" font-size="14.00">BR&#45;1</text>
</g>
<!-- 3&#45;&gt;21 -->
<g id="edge14" class="edge"><title>3&#45;&gt;21</title>
<path fill="none" stroke="#333333" d="M268.112,-216.411C271.457,-208.335 275.561,-198.431 279.321,-189.355"/>
<polygon fill="#333333" stroke="#333333" points="282.621,-190.534 283.214,-179.956 276.154,-187.855 282.621,-190.534"/>
</g>
<!-- 22 -->
<g id="node14" class="node"><title>22</title>
<ellipse fill="#d0a9d4" stroke="#333333" cx="222.239" cy="-90" rx="29.795" ry="18"/>
<text text-anchor="middle" x="222.239" y="-86.3" font-family="Times,serif" font-size="14.00">BR&#45;2</text>
</g>
<!-- 3&#45;&gt;22 -->
<g id="edge13" class="edge"><title>3&#45;&gt;22</title>
<path fill="none" stroke="#333333" d="M256.612,-216.153C249.927,-191.813 237.501,-146.568 229.563,-117.665"/>
<polygon fill="#333333" stroke="#333333" points="232.884,-116.541 226.86,-107.825 226.134,-118.395 232.884,-116.541"/>
</g>
<!-- 12 -->
<g id="node7" class="node"><title>12</title>
<ellipse fill="#dddddd" stroke="#777777" cx="146.239" cy="-90" rx="28.6953" ry="18"/>
<text text-anchor="middle" x="146.239" y="-86.3" font-family="Times,serif" font-size="14.00" fill="#666666">FR&#45;2</text>
</g>
<!-- 4&#45;&gt;12 -->
<g id="edge8" class="edge"><title>4&#45;&gt;12</title>
<path fill="none" stroke="#bbbbbb" stroke-dasharray="5,2" d="M166.703,-144.055C163.619,-136.059 159.867,-126.331 156.422,-117.4"/>
<polygon fill="#bbbbbb" stroke="#bbbbbb" points="159.579,-115.859 152.715,-107.789 153.048,-118.379 159.579,-115.859"/>
</g>
<!-- 5 -->
<g id="node5" class="node"><title>5</title>
<ellipse fill="#91d5bc" stroke="#333333" cx="253.239" cy="-306" rx="31.3957" ry="18"/>
<text text-anchor="middle" x="253.239" y="-302.3" font-family="Times,serif" font-size="14.00">MF&#45;5</text>
</g>
<!-- 13&#45;&gt;32 -->
<g id="edge20" class="edge"><title>13&#45;&gt;32</title>
<path fill="none" stroke="#333333" d="M57.7336,-143.697C57.954,-135.983 58.2188,-126.712 58.4645,-118.112"/>
<polygon fill="#333333" stroke="#333333" points="61.9634,-118.2 58.7505,-108.104 54.9662,-118 61.9634,-118.2"/>
</g>
<!-- 14 -->
<g id="node9" class="node"><title>14</title>
<ellipse fill="#94dd59" stroke="#333333" cx="490.239" cy="-162" rx="28.6953" ry="18"/>
<text text-anchor="middle" x="490.239" y="-158.3" font-family="Times,serif" font-size="14.00">FR&#45;4</text>
</g>
<!-- 15 -->
<g id="node10" class="node"><title>15</title>
<ellipse fill="#94dd59" stroke="#333333" cx="415.239" cy="-162" rx="28.6953" ry="18"/>
<text text-anchor="middle" x="415.239" y="-158.3" font-family="Times,serif" font-size="14.00">FR&#45;5</text>
</g>
<!-- 16 -->
<g id="node11" class="node"><title>16</title>
<ellipse fill="#94dd59" stroke="#333333" cx="565.239" cy="-162" rx="28.6953" ry="18"/>
<text text-anchor="middle" x="565.239" y="-158.3" font-family="Times,serif" font-size="14.00">FR&#45;6</text>
</g>
<!-- 17 -->
<g id="node12" class="node"><title>17</title>
<ellipse fill="#94dd59" stroke="#333333" cx="490.239" cy="-90" rx="28.6953" ry="18"/>
<text text-anchor="middle" x="490.239" y="-86.3" font-family="Times,serif" font-size="14.00">FR&#45;7</text>
</g>
<!-- 16&#45;&gt;17 -->
<g id="edge4" class="edge"><title>16&#45;&gt;17</title>
<path fill="none" stroke="#dd0000" d="M549.699,-146.496C539.07,-136.575 524.806,-123.262 512.913,-112.163"/>
<polygon fill="#dd0000" stroke="#dd0000" points="515.201,-109.51 505.503,-105.246 510.425,-114.628 515.201,-109.51"/>
</g>
<!-- 17&#45;&gt;11 -->
<g id="edge5" class="edge"><title>17&#45;&gt;11</title>
<path fill="none" stroke="#dd0000" d="M469.031,-77.7533C447.189,-66.1703 412.954,-48.0156 388.32,-34.952"/>
<polygon fill="#dd0000" stroke="#dd0000" points="389.869,-31.8118 379.395,-30.2188 386.589,-37.996 389.869,-31.8118"/>
</g>
<!-- 21&#45;&gt;22 -->
<g id="edge16" class="edge"><title>21&#45;&gt;22</title>
<path fill="none" stroke="#333333" d="M275.818,-146.155C266.532,-136.596 254.29,-123.994 243.853,-113.249"/>
<polygon fill="#333333" stroke="#333333" points="246.118,-110.558 236.639,-105.824 241.097,-115.435 246.118,-110.558"/>
</g>
<!-- 23 -->
<g id="node15" class="node"><title>23</title>
<ellipse fill="#d0a9d4" stroke="#333333" cx="300.239" cy="-90" rx="29.795" ry="18"/>
<text text-anchor="middle" x="300.239" y="-86.3" font-family="Times,serif" font-size="14.00">BR&#45;3</text>
</g>
<!-- 21&#45;&gt;23 -->
<g id="edge17" class="edge"><title>21&#45;&gt;23</title>
<path fill="none" stroke="#333333" d="M292.66,-144.055C293.761,-136.346 295.092,-127.027 296.33,-118.364"/>
<polygon fill="#333333" stroke="#333333" points="299.822,-118.67 297.771,-108.275 292.892,-117.68 299.822,-118.67"/>
</g>
<!-- 23&#45;&gt;11 -->
<g id="edge19" class="edge"><title>23&#45;&gt;11</title>
<path fill="none" stroke="#333333" d="M313.111,-73.4647C320.695,-64.3115 330.437,-52.5539 338.928,-42.3071"/>
<polygon fill="#333333" stroke="#333333" points="341.718,-44.4252 345.403,-34.4918 336.328,-39.959 341.718,-44.4252"/>
</g>
<!-- 23&#45;&gt;31 -->
<g id="edge18" class="edge"><title>23&#45;&gt;31</title>
<path fill="none" stroke="#333333" d="M277.184,-78.5203C251.176,-66.6984 208.667,-47.3761 179.168,-33.9675"/>
<polygon fill="#333333" stroke="#333333" points="180.257,-30.6181 169.705,-29.6663 177.36,-36.9907 180.257,-30.6181"/>
</g>
<!-- 24 -->
<g id="node16" class="node"><title>24</title>
<ellipse fill="#d0a9d4" stroke="#333333" cx="332.239" cy="-306" rx="29.795" ry="18"/>
<text text-anchor="middle" x="332.239" y="-302.3" font-family="Times,serif" font-size="14.00">BR&#45;4</text>
</g>
<!-- 25 -->
<g id="node17" class="node"><title>25</title>
<ellipse fill="#dddddd" stroke="#777777" cx="410.239" cy="-306" rx="29.795" ry="18"/>
<text text-anchor="middle" x="410.239" y="-302.3" font-family="Times,serif" font-size="14.00" fill="#666666">BR&#45;5</text>
</g>
<!-- REQUIRED -->
<g id="node20" class="node"><title>REQUIRED</title>
<polygon fill="red" stroke="#333333" points="517.239,-226.544 517.239,-241.456 501.423,-252 479.055,-252 463.239,-241.456 463.239,-226.544 479.055,-216 501.423,-216 517.239,-226.544"/>
<text text-anchor="start" x="485.239" y="-230.6" font-family="Times,serif" font-weight="bold" font-size="18.00" fill="white">?</text>
</g>
<!-- REQUIRED&#45;&gt;14 -->
<g id="edge1" class="edge"><title>REQUIRED&#45;&gt;14</title>
<path fill="none" stroke="#dd0000" d="M490.239,-215.697C490.239,-207.983 490.239,-198.712 490.239,-190.112"/>
<polygon fill="#dd0000" stroke="#dd0000" points="493.739,-190.104 490.239,-180.104 486.739,-190.104 493.739,-190.104"/>
</g>
<!-- REQUIRED&#45;&gt;15 -->
<g id="edge2" class="edge"><title>REQUIRED&#45;&gt;15</title>
<path fill="none" stroke="#dd0000" d="M474.699,-218.496C464.07,-208.575 449.806,-195.262 437.913,-184.163"/>
<polygon fill="#dd0000" stroke="#dd0000" points="440.201,-181.51 430.503,-177.246 435.425,-186.628 440.201,-181.51"/>
</g>
<!-- REQUIRED&#45;&gt;16 -->
<g id="edge3" class="edge"><title>REQUIRED&#45;&gt;16</title>
<path fill="none" stroke="#dd0000" d="M505.779,-218.496C516.409,-208.575 530.672,-195.262 542.565,-184.163"/>
<polygon fill="#dd0000" stroke="#dd0000" points="545.053,-186.628 549.976,-177.246 540.277,-181.51 545.053,-186.628"/>
</g>
</g>
</svg>
